%TF.GenerationSoftware,KiCad,Pcbnew,(5.1.9)-1*%
%TF.CreationDate,2021-11-10T22:47:00+01:00*%
%TF.ProjectId,ESP32_Tasmota_Fan,45535033-325f-4546-9173-6d6f74615f46,rev?*%
%TF.SameCoordinates,Original*%
%TF.FileFunction,Legend,Bot*%
%TF.FilePolarity,Positive*%
%FSLAX46Y46*%
G04 Gerber Fmt 4.6, Leading zero omitted, Abs format (unit mm)*
G04 Created by KiCad (PCBNEW (5.1.9)-1) date 2021-11-10 22:47:00*
%MOMM*%
%LPD*%
G01*
G04 APERTURE LIST*
%ADD10C,0.150000*%
%ADD11C,0.120000*%
G04 APERTURE END LIST*
D10*
X149635595Y-124375000D02*
X149730833Y-124327380D01*
X149873690Y-124327380D01*
X150016547Y-124375000D01*
X150111785Y-124470238D01*
X150159404Y-124565476D01*
X150207023Y-124755952D01*
X150207023Y-124898809D01*
X150159404Y-125089285D01*
X150111785Y-125184523D01*
X150016547Y-125279761D01*
X149873690Y-125327380D01*
X149778452Y-125327380D01*
X149635595Y-125279761D01*
X149587976Y-125232142D01*
X149587976Y-124898809D01*
X149778452Y-124898809D01*
X149159404Y-125327380D02*
X149159404Y-124327380D01*
X148587976Y-125327380D01*
X148587976Y-124327380D01*
X148111785Y-125327380D02*
X148111785Y-124327380D01*
X147873690Y-124327380D01*
X147730833Y-124375000D01*
X147635595Y-124470238D01*
X147587976Y-124565476D01*
X147540357Y-124755952D01*
X147540357Y-124898809D01*
X147587976Y-125089285D01*
X147635595Y-125184523D01*
X147730833Y-125279761D01*
X147873690Y-125327380D01*
X148111785Y-125327380D01*
X150159404Y-122787380D02*
X150159404Y-121787380D01*
X149492738Y-121787380D02*
X149302261Y-121787380D01*
X149207023Y-121835000D01*
X149111785Y-121930238D01*
X149064166Y-122120714D01*
X149064166Y-122454047D01*
X149111785Y-122644523D01*
X149207023Y-122739761D01*
X149302261Y-122787380D01*
X149492738Y-122787380D01*
X149587976Y-122739761D01*
X149683214Y-122644523D01*
X149730833Y-122454047D01*
X149730833Y-122120714D01*
X149683214Y-121930238D01*
X149587976Y-121835000D01*
X149492738Y-121787380D01*
X148445119Y-121787380D02*
X148349880Y-121787380D01*
X148254642Y-121835000D01*
X148207023Y-121882619D01*
X148159404Y-121977857D01*
X148111785Y-122168333D01*
X148111785Y-122406428D01*
X148159404Y-122596904D01*
X148207023Y-122692142D01*
X148254642Y-122739761D01*
X148349880Y-122787380D01*
X148445119Y-122787380D01*
X148540357Y-122739761D01*
X148587976Y-122692142D01*
X148635595Y-122596904D01*
X148683214Y-122406428D01*
X148683214Y-122168333D01*
X148635595Y-121977857D01*
X148587976Y-121882619D01*
X148540357Y-121835000D01*
X148445119Y-121787380D01*
X149587976Y-120247380D02*
X149921309Y-119771190D01*
X150159404Y-120247380D02*
X150159404Y-119247380D01*
X149778452Y-119247380D01*
X149683214Y-119295000D01*
X149635595Y-119342619D01*
X149587976Y-119437857D01*
X149587976Y-119580714D01*
X149635595Y-119675952D01*
X149683214Y-119723571D01*
X149778452Y-119771190D01*
X150159404Y-119771190D01*
X149254642Y-119247380D02*
X148587976Y-120247380D01*
X148587976Y-119247380D02*
X149254642Y-120247380D01*
X150302261Y-116707380D02*
X149730833Y-116707380D01*
X150016547Y-117707380D02*
X150016547Y-116707380D01*
X149492738Y-116707380D02*
X148826071Y-117707380D01*
X148826071Y-116707380D02*
X149492738Y-117707380D01*
X150159404Y-114643571D02*
X149826071Y-114643571D01*
X149683214Y-115167380D02*
X150159404Y-115167380D01*
X150159404Y-114167380D01*
X149683214Y-114167380D01*
X149254642Y-115167380D02*
X149254642Y-114167380D01*
X148683214Y-115167380D01*
X148683214Y-114167380D01*
X150159404Y-112246428D02*
X149397500Y-112246428D01*
X149778452Y-112627380D02*
X149778452Y-111865476D01*
X149016547Y-111627380D02*
X148397500Y-111627380D01*
X148730833Y-112008333D01*
X148587976Y-112008333D01*
X148492738Y-112055952D01*
X148445119Y-112103571D01*
X148397500Y-112198809D01*
X148397500Y-112436904D01*
X148445119Y-112532142D01*
X148492738Y-112579761D01*
X148587976Y-112627380D01*
X148873690Y-112627380D01*
X148968928Y-112579761D01*
X149016547Y-112532142D01*
X148111785Y-111627380D02*
X147778452Y-112627380D01*
X147445119Y-111627380D01*
X147207023Y-111627380D02*
X146587976Y-111627380D01*
X146921309Y-112008333D01*
X146778452Y-112008333D01*
X146683214Y-112055952D01*
X146635595Y-112103571D01*
X146587976Y-112198809D01*
X146587976Y-112436904D01*
X146635595Y-112532142D01*
X146683214Y-112579761D01*
X146778452Y-112627380D01*
X147064166Y-112627380D01*
X147159404Y-112579761D01*
X147207023Y-112532142D01*
D11*
X118110000Y-112810000D02*
X118110000Y-113445000D01*
X118110000Y-111540000D02*
X118745000Y-112175000D01*
X118110000Y-111540000D02*
X117475000Y-112175000D01*
X118110000Y-112175000D02*
X118110000Y-111540000D01*
X119380000Y-113445000D02*
X120015000Y-113445000D01*
X118110000Y-113445000D02*
X118745000Y-113445000D01*
X120650000Y-111540000D02*
X120015000Y-112175000D01*
X121285000Y-112175000D02*
X120650000Y-111540000D01*
X120650000Y-112175000D02*
X120650000Y-111540000D01*
X120650000Y-113445000D02*
X120650000Y-112810000D01*
X116840000Y-113445000D02*
X117475000Y-113445000D01*
X115570000Y-113445000D02*
X116205000Y-113445000D01*
X115570000Y-111540000D02*
X116205000Y-112175000D01*
X115570000Y-111540000D02*
X114935000Y-112175000D01*
X115570000Y-113445000D02*
X115570000Y-111540000D01*
X113030000Y-113445000D02*
X115570000Y-113445000D01*
X112395000Y-112175000D02*
X113030000Y-111540000D01*
X113665000Y-112175000D02*
X113030000Y-111540000D01*
X113030000Y-111540000D02*
X113665000Y-112175000D01*
X113030000Y-113445000D02*
X113030000Y-111540000D01*
X110490000Y-113445000D02*
X113030000Y-113445000D01*
X110490000Y-111540000D02*
X111125000Y-112175000D01*
X110490000Y-111540000D02*
X109855000Y-112175000D01*
X110490000Y-113445000D02*
X110490000Y-111540000D01*
X107950000Y-113445000D02*
X110490000Y-113445000D01*
X107950000Y-111540000D02*
X108585000Y-112175000D01*
X107950000Y-111540000D02*
X107315000Y-112175000D01*
X107950000Y-113445000D02*
X107950000Y-111540000D01*
X100330000Y-113445000D02*
X107950000Y-113445000D01*
X97790000Y-113445000D02*
X100330000Y-113445000D01*
X97790000Y-113445000D02*
X97155000Y-113445000D01*
D10*
X95851071Y-113373571D02*
X95708214Y-113421190D01*
X95660595Y-113468809D01*
X95612976Y-113564047D01*
X95612976Y-113706904D01*
X95660595Y-113802142D01*
X95708214Y-113849761D01*
X95803452Y-113897380D01*
X96184404Y-113897380D01*
X96184404Y-112897380D01*
X95851071Y-112897380D01*
X95755833Y-112945000D01*
X95708214Y-112992619D01*
X95660595Y-113087857D01*
X95660595Y-113183095D01*
X95708214Y-113278333D01*
X95755833Y-113325952D01*
X95851071Y-113373571D01*
X96184404Y-113373571D01*
X95184404Y-113897380D02*
X95184404Y-112897380D01*
X94851071Y-113611666D01*
X94517738Y-112897380D01*
X94517738Y-113897380D01*
X94041547Y-113373571D02*
X93708214Y-113373571D01*
X93565357Y-113897380D02*
X94041547Y-113897380D01*
X94041547Y-112897380D01*
X93565357Y-112897380D01*
X93184404Y-112992619D02*
X93136785Y-112945000D01*
X93041547Y-112897380D01*
X92803452Y-112897380D01*
X92708214Y-112945000D01*
X92660595Y-112992619D01*
X92612976Y-113087857D01*
X92612976Y-113183095D01*
X92660595Y-113325952D01*
X93232023Y-113897380D01*
X92612976Y-113897380D01*
X92041547Y-113325952D02*
X92136785Y-113278333D01*
X92184404Y-113230714D01*
X92232023Y-113135476D01*
X92232023Y-113087857D01*
X92184404Y-112992619D01*
X92136785Y-112945000D01*
X92041547Y-112897380D01*
X91851071Y-112897380D01*
X91755833Y-112945000D01*
X91708214Y-112992619D01*
X91660595Y-113087857D01*
X91660595Y-113135476D01*
X91708214Y-113230714D01*
X91755833Y-113278333D01*
X91851071Y-113325952D01*
X92041547Y-113325952D01*
X92136785Y-113373571D01*
X92184404Y-113421190D01*
X92232023Y-113516428D01*
X92232023Y-113706904D01*
X92184404Y-113802142D01*
X92136785Y-113849761D01*
X92041547Y-113897380D01*
X91851071Y-113897380D01*
X91755833Y-113849761D01*
X91708214Y-113802142D01*
X91660595Y-113706904D01*
X91660595Y-113516428D01*
X91708214Y-113421190D01*
X91755833Y-113373571D01*
X91851071Y-113325952D01*
X91041547Y-112897380D02*
X90946309Y-112897380D01*
X90851071Y-112945000D01*
X90803452Y-112992619D01*
X90755833Y-113087857D01*
X90708214Y-113278333D01*
X90708214Y-113516428D01*
X90755833Y-113706904D01*
X90803452Y-113802142D01*
X90851071Y-113849761D01*
X90946309Y-113897380D01*
X91041547Y-113897380D01*
X91136785Y-113849761D01*
X91184404Y-113802142D01*
X91232023Y-113706904D01*
X91279642Y-113516428D01*
X91279642Y-113278333D01*
X91232023Y-113087857D01*
X91184404Y-112992619D01*
X91136785Y-112945000D01*
X91041547Y-112897380D01*
D11*
X97790000Y-110905000D02*
X97155000Y-110905000D01*
X97790000Y-108365000D02*
X97155000Y-108365000D01*
X97155000Y-109635000D02*
X97790000Y-109000000D01*
X98425000Y-109635000D02*
X97790000Y-109000000D01*
X99695000Y-109635000D02*
X100330000Y-109000000D01*
X100965000Y-109635000D02*
X100330000Y-109000000D01*
X104775000Y-109635000D02*
X105410000Y-109000000D01*
X106045000Y-109635000D02*
X105410000Y-109000000D01*
X97155000Y-107095000D02*
X97790000Y-106460000D01*
X98425000Y-107095000D02*
X97790000Y-106460000D01*
X99695000Y-107095000D02*
X100330000Y-106460000D01*
X100965000Y-107095000D02*
X100330000Y-106460000D01*
X102235000Y-107095000D02*
X102870000Y-106460000D01*
X103505000Y-107095000D02*
X102870000Y-106460000D01*
X104775000Y-107095000D02*
X105410000Y-106460000D01*
X106045000Y-107095000D02*
X105410000Y-106460000D01*
D10*
X96184404Y-111357380D02*
X96184404Y-110357380D01*
X95946309Y-110357380D01*
X95803452Y-110405000D01*
X95708214Y-110500238D01*
X95660595Y-110595476D01*
X95612976Y-110785952D01*
X95612976Y-110928809D01*
X95660595Y-111119285D01*
X95708214Y-111214523D01*
X95803452Y-111309761D01*
X95946309Y-111357380D01*
X96184404Y-111357380D01*
X95232023Y-111309761D02*
X95089166Y-111357380D01*
X94851071Y-111357380D01*
X94755833Y-111309761D01*
X94708214Y-111262142D01*
X94660595Y-111166904D01*
X94660595Y-111071666D01*
X94708214Y-110976428D01*
X94755833Y-110928809D01*
X94851071Y-110881190D01*
X95041547Y-110833571D01*
X95136785Y-110785952D01*
X95184404Y-110738333D01*
X95232023Y-110643095D01*
X95232023Y-110547857D01*
X95184404Y-110452619D01*
X95136785Y-110405000D01*
X95041547Y-110357380D01*
X94803452Y-110357380D01*
X94660595Y-110405000D01*
X93708214Y-111357380D02*
X94279642Y-111357380D01*
X93993928Y-111357380D02*
X93993928Y-110357380D01*
X94089166Y-110500238D01*
X94184404Y-110595476D01*
X94279642Y-110643095D01*
X93136785Y-110785952D02*
X93232023Y-110738333D01*
X93279642Y-110690714D01*
X93327261Y-110595476D01*
X93327261Y-110547857D01*
X93279642Y-110452619D01*
X93232023Y-110405000D01*
X93136785Y-110357380D01*
X92946309Y-110357380D01*
X92851071Y-110405000D01*
X92803452Y-110452619D01*
X92755833Y-110547857D01*
X92755833Y-110595476D01*
X92803452Y-110690714D01*
X92851071Y-110738333D01*
X92946309Y-110785952D01*
X93136785Y-110785952D01*
X93232023Y-110833571D01*
X93279642Y-110881190D01*
X93327261Y-110976428D01*
X93327261Y-111166904D01*
X93279642Y-111262142D01*
X93232023Y-111309761D01*
X93136785Y-111357380D01*
X92946309Y-111357380D01*
X92851071Y-111309761D01*
X92803452Y-111262142D01*
X92755833Y-111166904D01*
X92755833Y-110976428D01*
X92803452Y-110881190D01*
X92851071Y-110833571D01*
X92946309Y-110785952D01*
X91993928Y-110833571D02*
X91851071Y-110881190D01*
X91803452Y-110928809D01*
X91755833Y-111024047D01*
X91755833Y-111166904D01*
X91803452Y-111262142D01*
X91851071Y-111309761D01*
X91946309Y-111357380D01*
X92327261Y-111357380D01*
X92327261Y-110357380D01*
X91993928Y-110357380D01*
X91898690Y-110405000D01*
X91851071Y-110452619D01*
X91803452Y-110547857D01*
X91803452Y-110643095D01*
X91851071Y-110738333D01*
X91898690Y-110785952D01*
X91993928Y-110833571D01*
X92327261Y-110833571D01*
X91374880Y-110452619D02*
X91327261Y-110405000D01*
X91232023Y-110357380D01*
X90993928Y-110357380D01*
X90898690Y-110405000D01*
X90851071Y-110452619D01*
X90803452Y-110547857D01*
X90803452Y-110643095D01*
X90851071Y-110785952D01*
X91422500Y-111357380D01*
X90803452Y-111357380D01*
X90184404Y-110357380D02*
X90089166Y-110357380D01*
X89993928Y-110405000D01*
X89946309Y-110452619D01*
X89898690Y-110547857D01*
X89851071Y-110738333D01*
X89851071Y-110976428D01*
X89898690Y-111166904D01*
X89946309Y-111262142D01*
X89993928Y-111309761D01*
X90089166Y-111357380D01*
X90184404Y-111357380D01*
X90279642Y-111309761D01*
X90327261Y-111262142D01*
X90374880Y-111166904D01*
X90422500Y-110976428D01*
X90422500Y-110738333D01*
X90374880Y-110547857D01*
X90327261Y-110452619D01*
X90279642Y-110405000D01*
X90184404Y-110357380D01*
D11*
X105410000Y-110905000D02*
X105410000Y-109000000D01*
X100330000Y-110905000D02*
X105410000Y-110905000D01*
X100330000Y-110905000D02*
X100330000Y-109000000D01*
X97790000Y-110905000D02*
X100330000Y-110905000D01*
X97790000Y-109000000D02*
X97790000Y-110905000D01*
D10*
X96184404Y-108817380D02*
X96184404Y-107817380D01*
X95946309Y-107817380D01*
X95803452Y-107865000D01*
X95708214Y-107960238D01*
X95660595Y-108055476D01*
X95612976Y-108245952D01*
X95612976Y-108388809D01*
X95660595Y-108579285D01*
X95708214Y-108674523D01*
X95803452Y-108769761D01*
X95946309Y-108817380D01*
X96184404Y-108817380D01*
X95184404Y-108817380D02*
X95184404Y-107817380D01*
X95184404Y-108293571D02*
X94612976Y-108293571D01*
X94612976Y-108817380D02*
X94612976Y-107817380D01*
X94279642Y-107817380D02*
X93708214Y-107817380D01*
X93993928Y-108817380D02*
X93993928Y-107817380D01*
X93374880Y-108436428D02*
X92612976Y-108436428D01*
X92184404Y-107912619D02*
X92136785Y-107865000D01*
X92041547Y-107817380D01*
X91803452Y-107817380D01*
X91708214Y-107865000D01*
X91660595Y-107912619D01*
X91612976Y-108007857D01*
X91612976Y-108103095D01*
X91660595Y-108245952D01*
X92232023Y-108817380D01*
X91612976Y-108817380D01*
X91232023Y-107912619D02*
X91184404Y-107865000D01*
X91089166Y-107817380D01*
X90851071Y-107817380D01*
X90755833Y-107865000D01*
X90708214Y-107912619D01*
X90660595Y-108007857D01*
X90660595Y-108103095D01*
X90708214Y-108245952D01*
X91279642Y-108817380D01*
X90660595Y-108817380D01*
D11*
X97790000Y-108365000D02*
X97790000Y-106460000D01*
X100330000Y-108365000D02*
X97790000Y-108365000D01*
X100330000Y-108365000D02*
X100330000Y-106460000D01*
X102870000Y-108365000D02*
X100330000Y-108365000D01*
X102870000Y-108365000D02*
X102870000Y-106460000D01*
X105410000Y-108365000D02*
X102870000Y-108365000D01*
X105410000Y-106460000D02*
X105410000Y-108365000D01*
D10*
X121102380Y-102985595D02*
X120102380Y-102985595D01*
X120102380Y-103652261D02*
X120102380Y-103842738D01*
X120150000Y-103937976D01*
X120245238Y-104033214D01*
X120435714Y-104080833D01*
X120769047Y-104080833D01*
X120959523Y-104033214D01*
X121054761Y-103937976D01*
X121102380Y-103842738D01*
X121102380Y-103652261D01*
X121054761Y-103557023D01*
X120959523Y-103461785D01*
X120769047Y-103414166D01*
X120435714Y-103414166D01*
X120245238Y-103461785D01*
X120150000Y-103557023D01*
X120102380Y-103652261D01*
X120102380Y-104414166D02*
X120102380Y-105033214D01*
X120483333Y-104699880D01*
X120483333Y-104842738D01*
X120530952Y-104937976D01*
X120578571Y-104985595D01*
X120673809Y-105033214D01*
X120911904Y-105033214D01*
X121007142Y-104985595D01*
X121054761Y-104937976D01*
X121102380Y-104842738D01*
X121102380Y-104557023D01*
X121054761Y-104461785D01*
X121007142Y-104414166D01*
X120102380Y-105890357D02*
X120102380Y-105699880D01*
X120150000Y-105604642D01*
X120197619Y-105557023D01*
X120340476Y-105461785D01*
X120530952Y-105414166D01*
X120911904Y-105414166D01*
X121007142Y-105461785D01*
X121054761Y-105509404D01*
X121102380Y-105604642D01*
X121102380Y-105795119D01*
X121054761Y-105890357D01*
X121007142Y-105937976D01*
X120911904Y-105985595D01*
X120673809Y-105985595D01*
X120578571Y-105937976D01*
X120530952Y-105890357D01*
X120483333Y-105795119D01*
X120483333Y-105604642D01*
X120530952Y-105509404D01*
X120578571Y-105461785D01*
X120673809Y-105414166D01*
X118562380Y-102985595D02*
X117562380Y-102985595D01*
X117562380Y-103652261D02*
X117562380Y-103842738D01*
X117610000Y-103937976D01*
X117705238Y-104033214D01*
X117895714Y-104080833D01*
X118229047Y-104080833D01*
X118419523Y-104033214D01*
X118514761Y-103937976D01*
X118562380Y-103842738D01*
X118562380Y-103652261D01*
X118514761Y-103557023D01*
X118419523Y-103461785D01*
X118229047Y-103414166D01*
X117895714Y-103414166D01*
X117705238Y-103461785D01*
X117610000Y-103557023D01*
X117562380Y-103652261D01*
X117562380Y-104414166D02*
X117562380Y-105033214D01*
X117943333Y-104699880D01*
X117943333Y-104842738D01*
X117990952Y-104937976D01*
X118038571Y-104985595D01*
X118133809Y-105033214D01*
X118371904Y-105033214D01*
X118467142Y-104985595D01*
X118514761Y-104937976D01*
X118562380Y-104842738D01*
X118562380Y-104557023D01*
X118514761Y-104461785D01*
X118467142Y-104414166D01*
X118562380Y-105509404D02*
X118562380Y-105699880D01*
X118514761Y-105795119D01*
X118467142Y-105842738D01*
X118324285Y-105937976D01*
X118133809Y-105985595D01*
X117752857Y-105985595D01*
X117657619Y-105937976D01*
X117610000Y-105890357D01*
X117562380Y-105795119D01*
X117562380Y-105604642D01*
X117610000Y-105509404D01*
X117657619Y-105461785D01*
X117752857Y-105414166D01*
X117990952Y-105414166D01*
X118086190Y-105461785D01*
X118133809Y-105509404D01*
X118181428Y-105604642D01*
X118181428Y-105795119D01*
X118133809Y-105890357D01*
X118086190Y-105937976D01*
X117990952Y-105985595D01*
X103322380Y-102985595D02*
X102322380Y-102985595D01*
X102322380Y-103652261D02*
X102322380Y-103842738D01*
X102370000Y-103937976D01*
X102465238Y-104033214D01*
X102655714Y-104080833D01*
X102989047Y-104080833D01*
X103179523Y-104033214D01*
X103274761Y-103937976D01*
X103322380Y-103842738D01*
X103322380Y-103652261D01*
X103274761Y-103557023D01*
X103179523Y-103461785D01*
X102989047Y-103414166D01*
X102655714Y-103414166D01*
X102465238Y-103461785D01*
X102370000Y-103557023D01*
X102322380Y-103652261D01*
X102322380Y-104414166D02*
X102322380Y-105033214D01*
X102703333Y-104699880D01*
X102703333Y-104842738D01*
X102750952Y-104937976D01*
X102798571Y-104985595D01*
X102893809Y-105033214D01*
X103131904Y-105033214D01*
X103227142Y-104985595D01*
X103274761Y-104937976D01*
X103322380Y-104842738D01*
X103322380Y-104557023D01*
X103274761Y-104461785D01*
X103227142Y-104414166D01*
X102655714Y-105890357D02*
X103322380Y-105890357D01*
X102274761Y-105652261D02*
X102989047Y-105414166D01*
X102989047Y-106033214D01*
X115974761Y-102937976D02*
X116022380Y-103080833D01*
X116022380Y-103318928D01*
X115974761Y-103414166D01*
X115927142Y-103461785D01*
X115831904Y-103509404D01*
X115736666Y-103509404D01*
X115641428Y-103461785D01*
X115593809Y-103414166D01*
X115546190Y-103318928D01*
X115498571Y-103128452D01*
X115450952Y-103033214D01*
X115403333Y-102985595D01*
X115308095Y-102937976D01*
X115212857Y-102937976D01*
X115117619Y-102985595D01*
X115070000Y-103033214D01*
X115022380Y-103128452D01*
X115022380Y-103366547D01*
X115070000Y-103509404D01*
X116022380Y-103937976D02*
X115022380Y-103937976D01*
X115022380Y-104176071D01*
X115070000Y-104318928D01*
X115165238Y-104414166D01*
X115260476Y-104461785D01*
X115450952Y-104509404D01*
X115593809Y-104509404D01*
X115784285Y-104461785D01*
X115879523Y-104414166D01*
X115974761Y-104318928D01*
X116022380Y-104176071D01*
X116022380Y-103937976D01*
X115736666Y-104890357D02*
X115736666Y-105366547D01*
X116022380Y-104795119D02*
X115022380Y-105128452D01*
X116022380Y-105461785D01*
X113434761Y-102937976D02*
X113482380Y-103080833D01*
X113482380Y-103318928D01*
X113434761Y-103414166D01*
X113387142Y-103461785D01*
X113291904Y-103509404D01*
X113196666Y-103509404D01*
X113101428Y-103461785D01*
X113053809Y-103414166D01*
X113006190Y-103318928D01*
X112958571Y-103128452D01*
X112910952Y-103033214D01*
X112863333Y-102985595D01*
X112768095Y-102937976D01*
X112672857Y-102937976D01*
X112577619Y-102985595D01*
X112530000Y-103033214D01*
X112482380Y-103128452D01*
X112482380Y-103366547D01*
X112530000Y-103509404D01*
X113387142Y-104509404D02*
X113434761Y-104461785D01*
X113482380Y-104318928D01*
X113482380Y-104223690D01*
X113434761Y-104080833D01*
X113339523Y-103985595D01*
X113244285Y-103937976D01*
X113053809Y-103890357D01*
X112910952Y-103890357D01*
X112720476Y-103937976D01*
X112625238Y-103985595D01*
X112530000Y-104080833D01*
X112482380Y-104223690D01*
X112482380Y-104318928D01*
X112530000Y-104461785D01*
X112577619Y-104509404D01*
X113482380Y-105414166D02*
X113482380Y-104937976D01*
X112482380Y-104937976D01*
X109990000Y-103509404D02*
X109942380Y-103414166D01*
X109942380Y-103271309D01*
X109990000Y-103128452D01*
X110085238Y-103033214D01*
X110180476Y-102985595D01*
X110370952Y-102937976D01*
X110513809Y-102937976D01*
X110704285Y-102985595D01*
X110799523Y-103033214D01*
X110894761Y-103128452D01*
X110942380Y-103271309D01*
X110942380Y-103366547D01*
X110894761Y-103509404D01*
X110847142Y-103557023D01*
X110513809Y-103557023D01*
X110513809Y-103366547D01*
X110942380Y-103985595D02*
X109942380Y-103985595D01*
X110942380Y-104557023D01*
X109942380Y-104557023D01*
X110942380Y-105033214D02*
X109942380Y-105033214D01*
X109942380Y-105271309D01*
X109990000Y-105414166D01*
X110085238Y-105509404D01*
X110180476Y-105557023D01*
X110370952Y-105604642D01*
X110513809Y-105604642D01*
X110704285Y-105557023D01*
X110799523Y-105509404D01*
X110894761Y-105414166D01*
X110942380Y-105271309D01*
X110942380Y-105033214D01*
X107402380Y-102890357D02*
X107402380Y-103509404D01*
X107783333Y-103176071D01*
X107783333Y-103318928D01*
X107830952Y-103414166D01*
X107878571Y-103461785D01*
X107973809Y-103509404D01*
X108211904Y-103509404D01*
X108307142Y-103461785D01*
X108354761Y-103414166D01*
X108402380Y-103318928D01*
X108402380Y-103033214D01*
X108354761Y-102937976D01*
X108307142Y-102890357D01*
X107402380Y-103795119D02*
X108402380Y-104128452D01*
X107402380Y-104461785D01*
X107402380Y-104699880D02*
X107402380Y-105318928D01*
X107783333Y-104985595D01*
X107783333Y-105128452D01*
X107830952Y-105223690D01*
X107878571Y-105271309D01*
X107973809Y-105318928D01*
X108211904Y-105318928D01*
X108307142Y-105271309D01*
X108354761Y-105223690D01*
X108402380Y-105128452D01*
X108402380Y-104842738D01*
X108354761Y-104747500D01*
X108307142Y-104699880D01*
X104910000Y-103509404D02*
X104862380Y-103414166D01*
X104862380Y-103271309D01*
X104910000Y-103128452D01*
X105005238Y-103033214D01*
X105100476Y-102985595D01*
X105290952Y-102937976D01*
X105433809Y-102937976D01*
X105624285Y-102985595D01*
X105719523Y-103033214D01*
X105814761Y-103128452D01*
X105862380Y-103271309D01*
X105862380Y-103366547D01*
X105814761Y-103509404D01*
X105767142Y-103557023D01*
X105433809Y-103557023D01*
X105433809Y-103366547D01*
X105862380Y-103985595D02*
X104862380Y-103985595D01*
X105862380Y-104557023D01*
X104862380Y-104557023D01*
X105862380Y-105033214D02*
X104862380Y-105033214D01*
X104862380Y-105271309D01*
X104910000Y-105414166D01*
X105005238Y-105509404D01*
X105100476Y-105557023D01*
X105290952Y-105604642D01*
X105433809Y-105604642D01*
X105624285Y-105557023D01*
X105719523Y-105509404D01*
X105814761Y-105414166D01*
X105862380Y-105271309D01*
X105862380Y-105033214D01*
X100782380Y-103509404D02*
X100782380Y-102937976D01*
X100782380Y-103223690D02*
X99782380Y-103223690D01*
X99925238Y-103128452D01*
X100020476Y-103033214D01*
X100068095Y-102937976D01*
X100401428Y-103937976D02*
X100401428Y-104699880D01*
X99782380Y-105080833D02*
X100782380Y-105318928D01*
X100068095Y-105509404D01*
X100782380Y-105699880D01*
X99782380Y-105937976D01*
X97242380Y-102890357D02*
X97242380Y-103509404D01*
X97623333Y-103176071D01*
X97623333Y-103318928D01*
X97670952Y-103414166D01*
X97718571Y-103461785D01*
X97813809Y-103509404D01*
X98051904Y-103509404D01*
X98147142Y-103461785D01*
X98194761Y-103414166D01*
X98242380Y-103318928D01*
X98242380Y-103033214D01*
X98194761Y-102937976D01*
X98147142Y-102890357D01*
X97242380Y-103795119D02*
X98242380Y-104128452D01*
X97242380Y-104461785D01*
X97242380Y-104699880D02*
X97242380Y-105318928D01*
X97623333Y-104985595D01*
X97623333Y-105128452D01*
X97670952Y-105223690D01*
X97718571Y-105271309D01*
X97813809Y-105318928D01*
X98051904Y-105318928D01*
X98147142Y-105271309D01*
X98194761Y-105223690D01*
X98242380Y-105128452D01*
X98242380Y-104842738D01*
X98194761Y-104747500D01*
X98147142Y-104699880D01*
M02*
