%TF.GenerationSoftware,KiCad,Pcbnew,(5.1.9)-1*%
%TF.CreationDate,2021-11-10T21:17:52+01:00*%
%TF.ProjectId,ESP32_Tasmota_Fan,45535033-325f-4546-9173-6d6f74615f46,rev?*%
%TF.SameCoordinates,Original*%
%TF.FileFunction,Copper,L1,Top*%
%TF.FilePolarity,Positive*%
%FSLAX46Y46*%
G04 Gerber Fmt 4.6, Leading zero omitted, Abs format (unit mm)*
G04 Created by KiCad (PCBNEW (5.1.9)-1) date 2021-11-10 21:17:52*
%MOMM*%
%LPD*%
G01*
G04 APERTURE LIST*
%TA.AperFunction,SMDPad,CuDef*%
%ADD10R,1.050000X1.050000*%
%TD*%
%TA.AperFunction,SMDPad,CuDef*%
%ADD11R,1.500000X0.900000*%
%TD*%
%TA.AperFunction,SMDPad,CuDef*%
%ADD12R,0.900000X1.500000*%
%TD*%
%TA.AperFunction,SMDPad,CuDef*%
%ADD13R,0.900000X0.800000*%
%TD*%
%TA.AperFunction,SMDPad,CuDef*%
%ADD14R,1.700000X1.300000*%
%TD*%
%TA.AperFunction,ComponentPad*%
%ADD15O,1.700000X1.700000*%
%TD*%
%TA.AperFunction,ComponentPad*%
%ADD16R,1.700000X1.700000*%
%TD*%
%TA.AperFunction,ComponentPad*%
%ADD17C,1.700000*%
%TD*%
%TA.AperFunction,SMDPad,CuDef*%
%ADD18R,1.550000X0.700000*%
%TD*%
%TA.AperFunction,SMDPad,CuDef*%
%ADD19R,1.800000X2.500000*%
%TD*%
%TA.AperFunction,ComponentPad*%
%ADD20O,1.730000X2.030000*%
%TD*%
%TA.AperFunction,ComponentPad*%
%ADD21R,1.730000X2.030000*%
%TD*%
%TA.AperFunction,ComponentPad*%
%ADD22C,0.800000*%
%TD*%
%TA.AperFunction,ComponentPad*%
%ADD23C,6.400000*%
%TD*%
%TA.AperFunction,ComponentPad*%
%ADD24C,3.750000*%
%TD*%
%TA.AperFunction,ComponentPad*%
%ADD25C,4.000000*%
%TD*%
%TA.AperFunction,ViaPad*%
%ADD26C,0.800000*%
%TD*%
%TA.AperFunction,Conductor*%
%ADD27C,0.250000*%
%TD*%
%TA.AperFunction,Conductor*%
%ADD28C,1.500000*%
%TD*%
%TA.AperFunction,Conductor*%
%ADD29C,0.500000*%
%TD*%
%TA.AperFunction,Conductor*%
%ADD30C,0.300000*%
%TD*%
%TA.AperFunction,Conductor*%
%ADD31C,0.254000*%
%TD*%
%TA.AperFunction,Conductor*%
%ADD32C,0.100000*%
%TD*%
G04 APERTURE END LIST*
%TO.P,L1,2*%
%TO.N,+3V3*%
%TA.AperFunction,SMDPad,CuDef*%
G36*
G01*
X104230000Y-108505000D02*
X102780000Y-108505000D01*
G75*
G02*
X102405000Y-108130000I0J375000D01*
G01*
X102405000Y-107380000D01*
G75*
G02*
X102780000Y-107005000I375000J0D01*
G01*
X104230000Y-107005000D01*
G75*
G02*
X104605000Y-107380000I0J-375000D01*
G01*
X104605000Y-108130000D01*
G75*
G02*
X104230000Y-108505000I-375000J0D01*
G01*
G37*
%TD.AperFunction*%
%TO.P,L1,1*%
%TO.N,/DC/DC Buck/OUTPUT*%
%TA.AperFunction,SMDPad,CuDef*%
G36*
G01*
X104230000Y-114805000D02*
X102780000Y-114805000D01*
G75*
G02*
X102405000Y-114430000I0J375000D01*
G01*
X102405000Y-113680000D01*
G75*
G02*
X102780000Y-113305000I375000J0D01*
G01*
X104230000Y-113305000D01*
G75*
G02*
X104605000Y-113680000I0J-375000D01*
G01*
X104605000Y-114430000D01*
G75*
G02*
X104230000Y-114805000I-375000J0D01*
G01*
G37*
%TD.AperFunction*%
%TD*%
%TO.P,C5,2*%
%TO.N,GND*%
%TA.AperFunction,SMDPad,CuDef*%
G36*
G01*
X123030000Y-107600000D02*
X122080000Y-107600000D01*
G75*
G02*
X121830000Y-107350000I0J250000D01*
G01*
X121830000Y-106850000D01*
G75*
G02*
X122080000Y-106600000I250000J0D01*
G01*
X123030000Y-106600000D01*
G75*
G02*
X123280000Y-106850000I0J-250000D01*
G01*
X123280000Y-107350000D01*
G75*
G02*
X123030000Y-107600000I-250000J0D01*
G01*
G37*
%TD.AperFunction*%
%TO.P,C5,1*%
%TO.N,+3V3*%
%TA.AperFunction,SMDPad,CuDef*%
G36*
G01*
X123030000Y-109500000D02*
X122080000Y-109500000D01*
G75*
G02*
X121830000Y-109250000I0J250000D01*
G01*
X121830000Y-108750000D01*
G75*
G02*
X122080000Y-108500000I250000J0D01*
G01*
X123030000Y-108500000D01*
G75*
G02*
X123280000Y-108750000I0J-250000D01*
G01*
X123280000Y-109250000D01*
G75*
G02*
X123030000Y-109500000I-250000J0D01*
G01*
G37*
%TD.AperFunction*%
%TD*%
%TO.P,C4,2*%
%TO.N,GND*%
%TA.AperFunction,SMDPad,CuDef*%
G36*
G01*
X110199999Y-114320000D02*
X112050001Y-114320000D01*
G75*
G02*
X112300000Y-114569999I0J-249999D01*
G01*
X112300000Y-115395001D01*
G75*
G02*
X112050001Y-115645000I-249999J0D01*
G01*
X110199999Y-115645000D01*
G75*
G02*
X109950000Y-115395001I0J249999D01*
G01*
X109950000Y-114569999D01*
G75*
G02*
X110199999Y-114320000I249999J0D01*
G01*
G37*
%TD.AperFunction*%
%TO.P,C4,1*%
%TO.N,+3V3*%
%TA.AperFunction,SMDPad,CuDef*%
G36*
G01*
X110199999Y-111245000D02*
X112050001Y-111245000D01*
G75*
G02*
X112300000Y-111494999I0J-249999D01*
G01*
X112300000Y-112320001D01*
G75*
G02*
X112050001Y-112570000I-249999J0D01*
G01*
X110199999Y-112570000D01*
G75*
G02*
X109950000Y-112320001I0J249999D01*
G01*
X109950000Y-111494999D01*
G75*
G02*
X110199999Y-111245000I249999J0D01*
G01*
G37*
%TD.AperFunction*%
%TD*%
%TO.P,C2,2*%
%TO.N,GND*%
%TA.AperFunction,SMDPad,CuDef*%
G36*
G01*
X94375000Y-122679999D02*
X94375000Y-124530001D01*
G75*
G02*
X94125001Y-124780000I-249999J0D01*
G01*
X93299999Y-124780000D01*
G75*
G02*
X93050000Y-124530001I0J249999D01*
G01*
X93050000Y-122679999D01*
G75*
G02*
X93299999Y-122430000I249999J0D01*
G01*
X94125001Y-122430000D01*
G75*
G02*
X94375000Y-122679999I0J-249999D01*
G01*
G37*
%TD.AperFunction*%
%TO.P,C2,1*%
%TO.N,+12V*%
%TA.AperFunction,SMDPad,CuDef*%
G36*
G01*
X97450000Y-122679999D02*
X97450000Y-124530001D01*
G75*
G02*
X97200001Y-124780000I-249999J0D01*
G01*
X96374999Y-124780000D01*
G75*
G02*
X96125000Y-124530001I0J249999D01*
G01*
X96125000Y-122679999D01*
G75*
G02*
X96374999Y-122430000I249999J0D01*
G01*
X97200001Y-122430000D01*
G75*
G02*
X97450000Y-122679999I0J-249999D01*
G01*
G37*
%TD.AperFunction*%
%TD*%
D10*
%TO.P,U1,39*%
%TO.N,GND*%
X131675000Y-113230000D03*
X133200000Y-113230000D03*
X134725000Y-113230000D03*
X134725000Y-116280000D03*
X133200000Y-116280000D03*
X131675000Y-116280000D03*
X131675000Y-114755000D03*
X134725000Y-114755000D03*
X133200000Y-114755000D03*
D11*
%TO.P,U1,38*%
X142630000Y-107415000D03*
%TO.P,U1,37*%
%TO.N,/ESP32 Core/IO23*%
X142630000Y-108685000D03*
%TO.P,U1,36*%
%TO.N,/LINK*%
X142630000Y-109955000D03*
%TO.P,U1,35*%
%TO.N,/ESP32 Core/TX*%
X142630000Y-111225000D03*
%TO.P,U1,34*%
%TO.N,/ESP32 Core/RX*%
X142630000Y-112495000D03*
%TO.P,U1,33*%
%TO.N,/SENSE4*%
X142630000Y-113765000D03*
%TO.P,U1,32*%
%TO.N,Net-(U1-Pad32)*%
X142630000Y-115035000D03*
%TO.P,U1,31*%
%TO.N,/PWM4*%
X142630000Y-116305000D03*
%TO.P,U1,30*%
%TO.N,/SENSE3*%
X142630000Y-117575000D03*
%TO.P,U1,29*%
%TO.N,Net-(U1-Pad29)*%
X142630000Y-118845000D03*
%TO.P,U1,28*%
%TO.N,Net-(U1-Pad28)*%
X142630000Y-120115000D03*
%TO.P,U1,27*%
%TO.N,Net-(U1-Pad27)*%
X142630000Y-121385000D03*
%TO.P,U1,26*%
%TO.N,/PWM3*%
X142630000Y-122655000D03*
%TO.P,U1,25*%
%TO.N,/ESP32 Core/IO0*%
X142630000Y-123925000D03*
D12*
%TO.P,U1,24*%
%TO.N,Net-(U1-Pad24)*%
X139590000Y-125175000D03*
%TO.P,U1,23*%
%TO.N,Net-(U1-Pad23)*%
X138320000Y-125175000D03*
%TO.P,U1,22*%
%TO.N,Net-(U1-Pad22)*%
X137050000Y-125175000D03*
%TO.P,U1,21*%
%TO.N,Net-(U1-Pad21)*%
X135780000Y-125175000D03*
%TO.P,U1,20*%
%TO.N,Net-(U1-Pad20)*%
X134510000Y-125175000D03*
%TO.P,U1,19*%
%TO.N,Net-(U1-Pad19)*%
X133240000Y-125175000D03*
%TO.P,U1,18*%
%TO.N,Net-(U1-Pad18)*%
X131970000Y-125175000D03*
%TO.P,U1,17*%
%TO.N,Net-(U1-Pad17)*%
X130700000Y-125175000D03*
%TO.P,U1,16*%
%TO.N,/SENSE2*%
X129430000Y-125175000D03*
%TO.P,U1,15*%
%TO.N,GND*%
X128160000Y-125175000D03*
D11*
%TO.P,U1,1*%
X125130000Y-107415000D03*
%TO.P,U1,2*%
%TO.N,+3V3*%
X125130000Y-108685000D03*
%TO.P,U1,3*%
%TO.N,/ESP32 Core/EN*%
X125130000Y-109955000D03*
%TO.P,U1,4*%
%TO.N,/EXT3*%
X125130000Y-111225000D03*
%TO.P,U1,5*%
%TO.N,/EXT2*%
X125130000Y-112495000D03*
%TO.P,U1,6*%
%TO.N,/EXT1*%
X125130000Y-113765000D03*
%TO.P,U1,7*%
%TO.N,/ESP32 Core/I35*%
X125130000Y-115035000D03*
%TO.P,U1,8*%
%TO.N,/SDA*%
X125130000Y-116305000D03*
%TO.P,U1,9*%
%TO.N,/SCL*%
X125130000Y-117575000D03*
%TO.P,U1,10*%
%TO.N,/OneWire*%
X125130000Y-118845000D03*
%TO.P,U1,11*%
%TO.N,/PWM1*%
X125130000Y-120115000D03*
%TO.P,U1,12*%
%TO.N,/SENSE1*%
X125130000Y-121385000D03*
%TO.P,U1,13*%
%TO.N,/PWM2*%
X125130000Y-122655000D03*
%TO.P,U1,14*%
%TO.N,Net-(U1-Pad14)*%
X125130000Y-123925000D03*
%TD*%
%TO.P,R5,2*%
%TO.N,/SENSE1*%
%TA.AperFunction,SMDPad,CuDef*%
G36*
G01*
X111303750Y-121515000D02*
X112216250Y-121515000D01*
G75*
G02*
X112460000Y-121758750I0J-243750D01*
G01*
X112460000Y-122246250D01*
G75*
G02*
X112216250Y-122490000I-243750J0D01*
G01*
X111303750Y-122490000D01*
G75*
G02*
X111060000Y-122246250I0J243750D01*
G01*
X111060000Y-121758750D01*
G75*
G02*
X111303750Y-121515000I243750J0D01*
G01*
G37*
%TD.AperFunction*%
%TO.P,R5,1*%
%TO.N,+3V3*%
%TA.AperFunction,SMDPad,CuDef*%
G36*
G01*
X111303750Y-119640000D02*
X112216250Y-119640000D01*
G75*
G02*
X112460000Y-119883750I0J-243750D01*
G01*
X112460000Y-120371250D01*
G75*
G02*
X112216250Y-120615000I-243750J0D01*
G01*
X111303750Y-120615000D01*
G75*
G02*
X111060000Y-120371250I0J243750D01*
G01*
X111060000Y-119883750D01*
G75*
G02*
X111303750Y-119640000I243750J0D01*
G01*
G37*
%TD.AperFunction*%
%TD*%
%TO.P,R12,2*%
%TO.N,GND*%
%TA.AperFunction,SMDPad,CuDef*%
G36*
G01*
X100565000Y-130774999D02*
X100565000Y-131675001D01*
G75*
G02*
X100315001Y-131925000I-249999J0D01*
G01*
X99789999Y-131925000D01*
G75*
G02*
X99540000Y-131675001I0J249999D01*
G01*
X99540000Y-130774999D01*
G75*
G02*
X99789999Y-130525000I249999J0D01*
G01*
X100315001Y-130525000D01*
G75*
G02*
X100565000Y-130774999I0J-249999D01*
G01*
G37*
%TD.AperFunction*%
%TO.P,R12,1*%
%TO.N,Net-(D3-Pad2)*%
%TA.AperFunction,SMDPad,CuDef*%
G36*
G01*
X102390000Y-130774999D02*
X102390000Y-131675001D01*
G75*
G02*
X102140001Y-131925000I-249999J0D01*
G01*
X101614999Y-131925000D01*
G75*
G02*
X101365000Y-131675001I0J249999D01*
G01*
X101365000Y-130774999D01*
G75*
G02*
X101614999Y-130525000I249999J0D01*
G01*
X102140001Y-130525000D01*
G75*
G02*
X102390000Y-130774999I0J-249999D01*
G01*
G37*
%TD.AperFunction*%
%TD*%
D13*
%TO.P,Q1,3*%
%TO.N,/VIN*%
X99965000Y-128050000D03*
%TO.P,Q1,2*%
%TO.N,+12V*%
X101965000Y-127100000D03*
%TO.P,Q1,1*%
%TO.N,Net-(D3-Pad2)*%
X101965000Y-129000000D03*
%TD*%
D14*
%TO.P,D3,2*%
%TO.N,Net-(D3-Pad2)*%
X104775000Y-129800000D03*
%TO.P,D3,1*%
%TO.N,+12V*%
X104775000Y-126300000D03*
%TD*%
D15*
%TO.P,J3,10*%
%TO.N,/EXT3*%
X120650000Y-101110000D03*
%TO.P,J3,9*%
%TO.N,/EXT2*%
X118110000Y-101110000D03*
%TO.P,J3,8*%
%TO.N,/SDA*%
X115570000Y-101110000D03*
%TO.P,J3,7*%
%TO.N,/SCL*%
X113030000Y-101110000D03*
D16*
%TO.P,J3,6*%
%TO.N,GND*%
X110490000Y-101110000D03*
D15*
%TO.P,J3,5*%
%TO.N,+3V3*%
X107950000Y-101110000D03*
D16*
%TO.P,J3,4*%
%TO.N,GND*%
X105410000Y-101110000D03*
D15*
%TO.P,J3,3*%
%TO.N,/EXT1*%
X102870000Y-101110000D03*
%TO.P,J3,2*%
%TO.N,/OneWire*%
X100330000Y-101110000D03*
D17*
%TO.P,J3,1*%
%TO.N,+3V3*%
X97790000Y-101110000D03*
%TD*%
%TO.P,D1,2*%
%TO.N,Net-(D1-Pad2)*%
%TA.AperFunction,SMDPad,CuDef*%
G36*
G01*
X118923750Y-138025000D02*
X119836250Y-138025000D01*
G75*
G02*
X120080000Y-138268750I0J-243750D01*
G01*
X120080000Y-138756250D01*
G75*
G02*
X119836250Y-139000000I-243750J0D01*
G01*
X118923750Y-139000000D01*
G75*
G02*
X118680000Y-138756250I0J243750D01*
G01*
X118680000Y-138268750D01*
G75*
G02*
X118923750Y-138025000I243750J0D01*
G01*
G37*
%TD.AperFunction*%
%TO.P,D1,1*%
%TO.N,GND*%
%TA.AperFunction,SMDPad,CuDef*%
G36*
G01*
X118923750Y-136150000D02*
X119836250Y-136150000D01*
G75*
G02*
X120080000Y-136393750I0J-243750D01*
G01*
X120080000Y-136881250D01*
G75*
G02*
X119836250Y-137125000I-243750J0D01*
G01*
X118923750Y-137125000D01*
G75*
G02*
X118680000Y-136881250I0J243750D01*
G01*
X118680000Y-136393750D01*
G75*
G02*
X118923750Y-136150000I243750J0D01*
G01*
G37*
%TD.AperFunction*%
%TD*%
D18*
%TO.P,IC1,8*%
%TO.N,GND*%
X99270000Y-122200000D03*
%TO.P,IC1,7*%
X99270000Y-120930000D03*
%TO.P,IC1,6*%
X99270000Y-119660000D03*
%TO.P,IC1,5*%
X99270000Y-118390000D03*
%TO.P,IC1,4*%
X104720000Y-118390000D03*
%TO.P,IC1,3*%
%TO.N,/DC/DC Buck/FB*%
X104720000Y-119660000D03*
%TO.P,IC1,2*%
%TO.N,/DC/DC Buck/OUTPUT*%
X104720000Y-120930000D03*
%TO.P,IC1,1*%
%TO.N,+12V*%
X104720000Y-122200000D03*
%TD*%
%TO.P,R21,2*%
%TO.N,GND*%
%TA.AperFunction,SMDPad,CuDef*%
G36*
G01*
X107253750Y-122982500D02*
X108166250Y-122982500D01*
G75*
G02*
X108410000Y-123226250I0J-243750D01*
G01*
X108410000Y-123713750D01*
G75*
G02*
X108166250Y-123957500I-243750J0D01*
G01*
X107253750Y-123957500D01*
G75*
G02*
X107010000Y-123713750I0J243750D01*
G01*
X107010000Y-123226250D01*
G75*
G02*
X107253750Y-122982500I243750J0D01*
G01*
G37*
%TD.AperFunction*%
%TO.P,R21,1*%
%TO.N,/DC/DC Buck/FB*%
%TA.AperFunction,SMDPad,CuDef*%
G36*
G01*
X107253750Y-121107500D02*
X108166250Y-121107500D01*
G75*
G02*
X108410000Y-121351250I0J-243750D01*
G01*
X108410000Y-121838750D01*
G75*
G02*
X108166250Y-122082500I-243750J0D01*
G01*
X107253750Y-122082500D01*
G75*
G02*
X107010000Y-121838750I0J243750D01*
G01*
X107010000Y-121351250D01*
G75*
G02*
X107253750Y-121107500I243750J0D01*
G01*
G37*
%TD.AperFunction*%
%TD*%
%TO.P,R20,2*%
%TO.N,/DC/DC Buck/FB*%
%TA.AperFunction,SMDPad,CuDef*%
G36*
G01*
X107253750Y-119475000D02*
X108166250Y-119475000D01*
G75*
G02*
X108410000Y-119718750I0J-243750D01*
G01*
X108410000Y-120206250D01*
G75*
G02*
X108166250Y-120450000I-243750J0D01*
G01*
X107253750Y-120450000D01*
G75*
G02*
X107010000Y-120206250I0J243750D01*
G01*
X107010000Y-119718750D01*
G75*
G02*
X107253750Y-119475000I243750J0D01*
G01*
G37*
%TD.AperFunction*%
%TO.P,R20,1*%
%TO.N,+3V3*%
%TA.AperFunction,SMDPad,CuDef*%
G36*
G01*
X107253750Y-117600000D02*
X108166250Y-117600000D01*
G75*
G02*
X108410000Y-117843750I0J-243750D01*
G01*
X108410000Y-118331250D01*
G75*
G02*
X108166250Y-118575000I-243750J0D01*
G01*
X107253750Y-118575000D01*
G75*
G02*
X107010000Y-118331250I0J243750D01*
G01*
X107010000Y-117843750D01*
G75*
G02*
X107253750Y-117600000I243750J0D01*
G01*
G37*
%TD.AperFunction*%
%TD*%
D19*
%TO.P,D2,2*%
%TO.N,GND*%
X95885000Y-119255000D03*
%TO.P,D2,1*%
%TO.N,/DC/DC Buck/OUTPUT*%
X95885000Y-115255000D03*
%TD*%
%TO.P,C3,2*%
%TO.N,GND*%
%TA.AperFunction,SMDPad,CuDef*%
G36*
G01*
X101785000Y-123783750D02*
X101785000Y-124696250D01*
G75*
G02*
X101541250Y-124940000I-243750J0D01*
G01*
X101053750Y-124940000D01*
G75*
G02*
X100810000Y-124696250I0J243750D01*
G01*
X100810000Y-123783750D01*
G75*
G02*
X101053750Y-123540000I243750J0D01*
G01*
X101541250Y-123540000D01*
G75*
G02*
X101785000Y-123783750I0J-243750D01*
G01*
G37*
%TD.AperFunction*%
%TO.P,C3,1*%
%TO.N,+12V*%
%TA.AperFunction,SMDPad,CuDef*%
G36*
G01*
X103660000Y-123783750D02*
X103660000Y-124696250D01*
G75*
G02*
X103416250Y-124940000I-243750J0D01*
G01*
X102928750Y-124940000D01*
G75*
G02*
X102685000Y-124696250I0J243750D01*
G01*
X102685000Y-123783750D01*
G75*
G02*
X102928750Y-123540000I243750J0D01*
G01*
X103416250Y-123540000D01*
G75*
G02*
X103660000Y-123783750I0J-243750D01*
G01*
G37*
%TD.AperFunction*%
%TD*%
%TO.P,R11,2*%
%TO.N,/SENSE4*%
%TA.AperFunction,SMDPad,CuDef*%
G36*
G01*
X118923750Y-121515000D02*
X119836250Y-121515000D01*
G75*
G02*
X120080000Y-121758750I0J-243750D01*
G01*
X120080000Y-122246250D01*
G75*
G02*
X119836250Y-122490000I-243750J0D01*
G01*
X118923750Y-122490000D01*
G75*
G02*
X118680000Y-122246250I0J243750D01*
G01*
X118680000Y-121758750D01*
G75*
G02*
X118923750Y-121515000I243750J0D01*
G01*
G37*
%TD.AperFunction*%
%TO.P,R11,1*%
%TO.N,+3V3*%
%TA.AperFunction,SMDPad,CuDef*%
G36*
G01*
X118923750Y-119640000D02*
X119836250Y-119640000D01*
G75*
G02*
X120080000Y-119883750I0J-243750D01*
G01*
X120080000Y-120371250D01*
G75*
G02*
X119836250Y-120615000I-243750J0D01*
G01*
X118923750Y-120615000D01*
G75*
G02*
X118680000Y-120371250I0J243750D01*
G01*
X118680000Y-119883750D01*
G75*
G02*
X118923750Y-119640000I243750J0D01*
G01*
G37*
%TD.AperFunction*%
%TD*%
%TO.P,R10,2*%
%TO.N,/sheet61958B6B/PWM_Ctrl*%
%TA.AperFunction,SMDPad,CuDef*%
G36*
G01*
X134163750Y-138025000D02*
X135076250Y-138025000D01*
G75*
G02*
X135320000Y-138268750I0J-243750D01*
G01*
X135320000Y-138756250D01*
G75*
G02*
X135076250Y-139000000I-243750J0D01*
G01*
X134163750Y-139000000D01*
G75*
G02*
X133920000Y-138756250I0J243750D01*
G01*
X133920000Y-138268750D01*
G75*
G02*
X134163750Y-138025000I243750J0D01*
G01*
G37*
%TD.AperFunction*%
%TO.P,R10,1*%
%TO.N,/PWM4*%
%TA.AperFunction,SMDPad,CuDef*%
G36*
G01*
X134163750Y-136150000D02*
X135076250Y-136150000D01*
G75*
G02*
X135320000Y-136393750I0J-243750D01*
G01*
X135320000Y-136881250D01*
G75*
G02*
X135076250Y-137125000I-243750J0D01*
G01*
X134163750Y-137125000D01*
G75*
G02*
X133920000Y-136881250I0J243750D01*
G01*
X133920000Y-136393750D01*
G75*
G02*
X134163750Y-136150000I243750J0D01*
G01*
G37*
%TD.AperFunction*%
%TD*%
%TO.P,R9,2*%
%TO.N,/SENSE3*%
%TA.AperFunction,SMDPad,CuDef*%
G36*
G01*
X116383750Y-121515000D02*
X117296250Y-121515000D01*
G75*
G02*
X117540000Y-121758750I0J-243750D01*
G01*
X117540000Y-122246250D01*
G75*
G02*
X117296250Y-122490000I-243750J0D01*
G01*
X116383750Y-122490000D01*
G75*
G02*
X116140000Y-122246250I0J243750D01*
G01*
X116140000Y-121758750D01*
G75*
G02*
X116383750Y-121515000I243750J0D01*
G01*
G37*
%TD.AperFunction*%
%TO.P,R9,1*%
%TO.N,+3V3*%
%TA.AperFunction,SMDPad,CuDef*%
G36*
G01*
X116383750Y-119640000D02*
X117296250Y-119640000D01*
G75*
G02*
X117540000Y-119883750I0J-243750D01*
G01*
X117540000Y-120371250D01*
G75*
G02*
X117296250Y-120615000I-243750J0D01*
G01*
X116383750Y-120615000D01*
G75*
G02*
X116140000Y-120371250I0J243750D01*
G01*
X116140000Y-119883750D01*
G75*
G02*
X116383750Y-119640000I243750J0D01*
G01*
G37*
%TD.AperFunction*%
%TD*%
%TO.P,R8,2*%
%TO.N,/sheet61957927/PWM_Ctrl*%
%TA.AperFunction,SMDPad,CuDef*%
G36*
G01*
X121463750Y-138025000D02*
X122376250Y-138025000D01*
G75*
G02*
X122620000Y-138268750I0J-243750D01*
G01*
X122620000Y-138756250D01*
G75*
G02*
X122376250Y-139000000I-243750J0D01*
G01*
X121463750Y-139000000D01*
G75*
G02*
X121220000Y-138756250I0J243750D01*
G01*
X121220000Y-138268750D01*
G75*
G02*
X121463750Y-138025000I243750J0D01*
G01*
G37*
%TD.AperFunction*%
%TO.P,R8,1*%
%TO.N,/PWM3*%
%TA.AperFunction,SMDPad,CuDef*%
G36*
G01*
X121463750Y-136150000D02*
X122376250Y-136150000D01*
G75*
G02*
X122620000Y-136393750I0J-243750D01*
G01*
X122620000Y-136881250D01*
G75*
G02*
X122376250Y-137125000I-243750J0D01*
G01*
X121463750Y-137125000D01*
G75*
G02*
X121220000Y-136881250I0J243750D01*
G01*
X121220000Y-136393750D01*
G75*
G02*
X121463750Y-136150000I243750J0D01*
G01*
G37*
%TD.AperFunction*%
%TD*%
D20*
%TO.P,FAN4,4*%
%TO.N,/sheet61958B6B/PWM_Ctrl*%
X134620000Y-143925000D03*
%TO.P,FAN4,3*%
%TO.N,/SENSE4*%
X137160000Y-143925000D03*
%TO.P,FAN4,2*%
%TO.N,+12V*%
X139700000Y-143925000D03*
D21*
%TO.P,FAN4,1*%
%TO.N,GND*%
X142240000Y-143925000D03*
%TD*%
D20*
%TO.P,FAN3,4*%
%TO.N,/sheet61957927/PWM_Ctrl*%
X121920000Y-143925000D03*
%TO.P,FAN3,3*%
%TO.N,/SENSE3*%
X124460000Y-143925000D03*
%TO.P,FAN3,2*%
%TO.N,+12V*%
X127000000Y-143925000D03*
D21*
%TO.P,FAN3,1*%
%TO.N,GND*%
X129540000Y-143925000D03*
%TD*%
D20*
%TO.P,FAN2,4*%
%TO.N,/sheet619566BF/PWM_Ctrl*%
X109220000Y-143925000D03*
%TO.P,FAN2,3*%
%TO.N,/SENSE2*%
X111760000Y-143925000D03*
%TO.P,FAN2,2*%
%TO.N,+12V*%
X114300000Y-143925000D03*
D21*
%TO.P,FAN2,1*%
%TO.N,GND*%
X116840000Y-143925000D03*
%TD*%
%TO.P,R7,2*%
%TO.N,/ESP32 Core/EN*%
%TA.AperFunction,SMDPad,CuDef*%
G36*
G01*
X148133750Y-113895000D02*
X149046250Y-113895000D01*
G75*
G02*
X149290000Y-114138750I0J-243750D01*
G01*
X149290000Y-114626250D01*
G75*
G02*
X149046250Y-114870000I-243750J0D01*
G01*
X148133750Y-114870000D01*
G75*
G02*
X147890000Y-114626250I0J243750D01*
G01*
X147890000Y-114138750D01*
G75*
G02*
X148133750Y-113895000I243750J0D01*
G01*
G37*
%TD.AperFunction*%
%TO.P,R7,1*%
%TO.N,+3V3*%
%TA.AperFunction,SMDPad,CuDef*%
G36*
G01*
X148133750Y-112020000D02*
X149046250Y-112020000D01*
G75*
G02*
X149290000Y-112263750I0J-243750D01*
G01*
X149290000Y-112751250D01*
G75*
G02*
X149046250Y-112995000I-243750J0D01*
G01*
X148133750Y-112995000D01*
G75*
G02*
X147890000Y-112751250I0J243750D01*
G01*
X147890000Y-112263750D01*
G75*
G02*
X148133750Y-112020000I243750J0D01*
G01*
G37*
%TD.AperFunction*%
%TD*%
%TO.P,R6,2*%
%TO.N,/SENSE2*%
%TA.AperFunction,SMDPad,CuDef*%
G36*
G01*
X113843750Y-121515000D02*
X114756250Y-121515000D01*
G75*
G02*
X115000000Y-121758750I0J-243750D01*
G01*
X115000000Y-122246250D01*
G75*
G02*
X114756250Y-122490000I-243750J0D01*
G01*
X113843750Y-122490000D01*
G75*
G02*
X113600000Y-122246250I0J243750D01*
G01*
X113600000Y-121758750D01*
G75*
G02*
X113843750Y-121515000I243750J0D01*
G01*
G37*
%TD.AperFunction*%
%TO.P,R6,1*%
%TO.N,+3V3*%
%TA.AperFunction,SMDPad,CuDef*%
G36*
G01*
X113843750Y-119640000D02*
X114756250Y-119640000D01*
G75*
G02*
X115000000Y-119883750I0J-243750D01*
G01*
X115000000Y-120371250D01*
G75*
G02*
X114756250Y-120615000I-243750J0D01*
G01*
X113843750Y-120615000D01*
G75*
G02*
X113600000Y-120371250I0J243750D01*
G01*
X113600000Y-119883750D01*
G75*
G02*
X113843750Y-119640000I243750J0D01*
G01*
G37*
%TD.AperFunction*%
%TD*%
%TO.P,R4,2*%
%TO.N,/FAN 1/PWM_Ctrl*%
%TA.AperFunction,SMDPad,CuDef*%
G36*
G01*
X99238750Y-137722500D02*
X100151250Y-137722500D01*
G75*
G02*
X100395000Y-137966250I0J-243750D01*
G01*
X100395000Y-138453750D01*
G75*
G02*
X100151250Y-138697500I-243750J0D01*
G01*
X99238750Y-138697500D01*
G75*
G02*
X98995000Y-138453750I0J243750D01*
G01*
X98995000Y-137966250D01*
G75*
G02*
X99238750Y-137722500I243750J0D01*
G01*
G37*
%TD.AperFunction*%
%TO.P,R4,1*%
%TO.N,/PWM1*%
%TA.AperFunction,SMDPad,CuDef*%
G36*
G01*
X99238750Y-135847500D02*
X100151250Y-135847500D01*
G75*
G02*
X100395000Y-136091250I0J-243750D01*
G01*
X100395000Y-136578750D01*
G75*
G02*
X100151250Y-136822500I-243750J0D01*
G01*
X99238750Y-136822500D01*
G75*
G02*
X98995000Y-136578750I0J243750D01*
G01*
X98995000Y-136091250D01*
G75*
G02*
X99238750Y-135847500I243750J0D01*
G01*
G37*
%TD.AperFunction*%
%TD*%
%TO.P,R3,2*%
%TO.N,/sheet619566BF/PWM_Ctrl*%
%TA.AperFunction,SMDPad,CuDef*%
G36*
G01*
X108763750Y-138025000D02*
X109676250Y-138025000D01*
G75*
G02*
X109920000Y-138268750I0J-243750D01*
G01*
X109920000Y-138756250D01*
G75*
G02*
X109676250Y-139000000I-243750J0D01*
G01*
X108763750Y-139000000D01*
G75*
G02*
X108520000Y-138756250I0J243750D01*
G01*
X108520000Y-138268750D01*
G75*
G02*
X108763750Y-138025000I243750J0D01*
G01*
G37*
%TD.AperFunction*%
%TO.P,R3,1*%
%TO.N,/PWM2*%
%TA.AperFunction,SMDPad,CuDef*%
G36*
G01*
X108763750Y-136150000D02*
X109676250Y-136150000D01*
G75*
G02*
X109920000Y-136393750I0J-243750D01*
G01*
X109920000Y-136881250D01*
G75*
G02*
X109676250Y-137125000I-243750J0D01*
G01*
X108763750Y-137125000D01*
G75*
G02*
X108520000Y-136881250I0J243750D01*
G01*
X108520000Y-136393750D01*
G75*
G02*
X108763750Y-136150000I243750J0D01*
G01*
G37*
%TD.AperFunction*%
%TD*%
%TO.P,R1,2*%
%TO.N,/OneWire*%
%TA.AperFunction,SMDPad,CuDef*%
G36*
G01*
X121463750Y-121515000D02*
X122376250Y-121515000D01*
G75*
G02*
X122620000Y-121758750I0J-243750D01*
G01*
X122620000Y-122246250D01*
G75*
G02*
X122376250Y-122490000I-243750J0D01*
G01*
X121463750Y-122490000D01*
G75*
G02*
X121220000Y-122246250I0J243750D01*
G01*
X121220000Y-121758750D01*
G75*
G02*
X121463750Y-121515000I243750J0D01*
G01*
G37*
%TD.AperFunction*%
%TO.P,R1,1*%
%TO.N,+3V3*%
%TA.AperFunction,SMDPad,CuDef*%
G36*
G01*
X121463750Y-119640000D02*
X122376250Y-119640000D01*
G75*
G02*
X122620000Y-119883750I0J-243750D01*
G01*
X122620000Y-120371250D01*
G75*
G02*
X122376250Y-120615000I-243750J0D01*
G01*
X121463750Y-120615000D01*
G75*
G02*
X121220000Y-120371250I0J243750D01*
G01*
X121220000Y-119883750D01*
G75*
G02*
X121463750Y-119640000I243750J0D01*
G01*
G37*
%TD.AperFunction*%
%TD*%
D15*
%TO.P,J2,6*%
%TO.N,+3V3*%
X151880000Y-112175000D03*
%TO.P,J2,5*%
%TO.N,/ESP32 Core/EN*%
X151880000Y-114715000D03*
%TO.P,J2,4*%
%TO.N,/ESP32 Core/TX*%
X151880000Y-117255000D03*
%TO.P,J2,3*%
%TO.N,/ESP32 Core/RX*%
X151880000Y-119795000D03*
%TO.P,J2,2*%
%TO.N,/ESP32 Core/IO0*%
X151880000Y-122335000D03*
D16*
%TO.P,J2,1*%
%TO.N,GND*%
X151880000Y-124875000D03*
%TD*%
D20*
%TO.P,FAN1,4*%
%TO.N,/FAN 1/PWM_Ctrl*%
X96520000Y-143925000D03*
%TO.P,FAN1,3*%
%TO.N,/SENSE1*%
X99060000Y-143925000D03*
%TO.P,FAN1,2*%
%TO.N,+12V*%
X101600000Y-143925000D03*
D21*
%TO.P,FAN1,1*%
%TO.N,GND*%
X104140000Y-143925000D03*
%TD*%
%TO.P,C1,2*%
%TO.N,GND*%
%TA.AperFunction,SMDPad,CuDef*%
G36*
G01*
X148133750Y-117705000D02*
X149046250Y-117705000D01*
G75*
G02*
X149290000Y-117948750I0J-243750D01*
G01*
X149290000Y-118436250D01*
G75*
G02*
X149046250Y-118680000I-243750J0D01*
G01*
X148133750Y-118680000D01*
G75*
G02*
X147890000Y-118436250I0J243750D01*
G01*
X147890000Y-117948750D01*
G75*
G02*
X148133750Y-117705000I243750J0D01*
G01*
G37*
%TD.AperFunction*%
%TO.P,C1,1*%
%TO.N,/ESP32 Core/EN*%
%TA.AperFunction,SMDPad,CuDef*%
G36*
G01*
X148133750Y-115830000D02*
X149046250Y-115830000D01*
G75*
G02*
X149290000Y-116073750I0J-243750D01*
G01*
X149290000Y-116561250D01*
G75*
G02*
X149046250Y-116805000I-243750J0D01*
G01*
X148133750Y-116805000D01*
G75*
G02*
X147890000Y-116561250I0J243750D01*
G01*
X147890000Y-116073750D01*
G75*
G02*
X148133750Y-115830000I243750J0D01*
G01*
G37*
%TD.AperFunction*%
%TD*%
D22*
%TO.P,H4,1*%
%TO.N,N/C*%
X91077056Y-142227944D03*
X89380000Y-141525000D03*
X87682944Y-142227944D03*
X86980000Y-143925000D03*
X87682944Y-145622056D03*
X89380000Y-146325000D03*
X91077056Y-145622056D03*
X91780000Y-143925000D03*
D23*
X89380000Y-143925000D03*
%TD*%
D22*
%TO.P,H3,1*%
%TO.N,N/C*%
X151077056Y-142227944D03*
X149380000Y-141525000D03*
X147682944Y-142227944D03*
X146980000Y-143925000D03*
X147682944Y-145622056D03*
X149380000Y-146325000D03*
X151077056Y-145622056D03*
X151780000Y-143925000D03*
D23*
X149380000Y-143925000D03*
%TD*%
D22*
%TO.P,H2,1*%
%TO.N,N/C*%
X151077056Y-102227944D03*
X149380000Y-101525000D03*
X147682944Y-102227944D03*
X146980000Y-103925000D03*
X147682944Y-105622056D03*
X149380000Y-106325000D03*
X151077056Y-105622056D03*
X151780000Y-103925000D03*
D23*
X149380000Y-103925000D03*
%TD*%
D22*
%TO.P,H1,1*%
%TO.N,N/C*%
X91077056Y-102227944D03*
X89380000Y-101525000D03*
X87682944Y-102227944D03*
X86980000Y-103925000D03*
X87682944Y-105622056D03*
X89380000Y-106325000D03*
X91077056Y-105622056D03*
X91780000Y-103925000D03*
D23*
X89380000Y-103925000D03*
%TD*%
D24*
%TO.P,J1,2*%
%TO.N,GND*%
X91615000Y-136290000D03*
D25*
X88615000Y-131590000D03*
D24*
%TO.P,J1,1*%
%TO.N,/VIN*%
X94615000Y-131590000D03*
%TD*%
%TO.P,R2,2*%
%TO.N,Net-(D1-Pad2)*%
%TA.AperFunction,SMDPad,CuDef*%
G36*
G01*
X116389998Y-137975000D02*
X117290002Y-137975000D01*
G75*
G02*
X117540000Y-138224998I0J-249998D01*
G01*
X117540000Y-138750002D01*
G75*
G02*
X117290002Y-139000000I-249998J0D01*
G01*
X116389998Y-139000000D01*
G75*
G02*
X116140000Y-138750002I0J249998D01*
G01*
X116140000Y-138224998D01*
G75*
G02*
X116389998Y-137975000I249998J0D01*
G01*
G37*
%TD.AperFunction*%
%TO.P,R2,1*%
%TO.N,/LINK*%
%TA.AperFunction,SMDPad,CuDef*%
G36*
G01*
X116389998Y-136150000D02*
X117290002Y-136150000D01*
G75*
G02*
X117540000Y-136399998I0J-249998D01*
G01*
X117540000Y-136925002D01*
G75*
G02*
X117290002Y-137175000I-249998J0D01*
G01*
X116389998Y-137175000D01*
G75*
G02*
X116140000Y-136925002I0J249998D01*
G01*
X116140000Y-136399998D01*
G75*
G02*
X116389998Y-136150000I249998J0D01*
G01*
G37*
%TD.AperFunction*%
%TD*%
D26*
%TO.N,+12V*%
X107315000Y-126145000D03*
%TO.N,GND*%
X119380000Y-135035000D03*
X93345000Y-119160000D03*
X106045000Y-118525000D03*
X98425000Y-131225000D03*
X109220000Y-123605000D03*
X128130000Y-123425000D03*
X131680000Y-115525000D03*
X133180000Y-115525000D03*
X134780000Y-115525000D03*
X134680000Y-114025000D03*
X133180000Y-114025000D03*
X131680000Y-114025000D03*
X132480000Y-113225000D03*
X132480000Y-114725000D03*
X132480000Y-116325000D03*
X133980000Y-116325000D03*
X133980000Y-114725000D03*
X133980000Y-113225000D03*
X148590000Y-119160000D03*
X111125000Y-116620000D03*
X91440000Y-123605000D03*
%TO.N,/ESP32 Core/EN*%
X126365000Y-110270000D03*
%TO.N,/ESP32 Core/TX*%
X144145000Y-110905000D03*
%TO.N,/ESP32 Core/RX*%
X144145000Y-112810000D03*
%TO.N,/ESP32 Core/IO0*%
X141079323Y-123586027D03*
%TO.N,/SENSE1*%
X111760000Y-124240000D03*
X113347500Y-127097500D03*
%TO.N,/SENSE2*%
X114300000Y-123605000D03*
X116565000Y-129045000D03*
%TO.N,/SENSE3*%
X116840000Y-123605000D03*
X119380000Y-129955000D03*
X127635000Y-132380000D03*
X130195000Y-135035000D03*
%TO.N,/SENSE4*%
X119380000Y-123605000D03*
X121285000Y-129955000D03*
X128905000Y-131860000D03*
X137685000Y-134510000D03*
%TO.N,/OneWire*%
X122555000Y-118525000D03*
X110559315Y-105894315D03*
%TO.N,/EXT2*%
X120650000Y-111540000D03*
%TO.N,/EXT1*%
X111630000Y-105675000D03*
X118589669Y-113715331D03*
%TO.N,/SDA*%
X122555000Y-114080000D03*
%TO.N,/SCL*%
X122555000Y-115350000D03*
%TO.N,/EXT3*%
X121920000Y-110905000D03*
%TD*%
D27*
%TO.N,+12V*%
X114300000Y-143790000D02*
X114300000Y-143155000D01*
D28*
X139700000Y-143925000D02*
X139700000Y-146605000D01*
X101600000Y-146440000D02*
X101600000Y-143925000D01*
X102745001Y-147585001D02*
X101600000Y-146440000D01*
X139700000Y-146605000D02*
X138719999Y-147585001D01*
X114300000Y-147100000D02*
X114785001Y-147585001D01*
X114300000Y-143925000D02*
X114300000Y-147100000D01*
X114785001Y-147585001D02*
X102745001Y-147585001D01*
X127000000Y-147100000D02*
X126514999Y-147585001D01*
X127000000Y-143925000D02*
X127000000Y-147100000D01*
X126514999Y-147585001D02*
X114785001Y-147585001D01*
X138719999Y-147585001D02*
X126514999Y-147585001D01*
X104930000Y-126145000D02*
X104775000Y-126300000D01*
X107315000Y-126145000D02*
X104930000Y-126145000D01*
D29*
X103975000Y-127100000D02*
X104775000Y-126300000D01*
X101965000Y-127100000D02*
X103975000Y-127100000D01*
X103172500Y-124697500D02*
X104775000Y-126300000D01*
X103172500Y-124240000D02*
X103172500Y-124697500D01*
X104720000Y-122692500D02*
X103172500Y-124240000D01*
X104720000Y-122200000D02*
X104720000Y-122692500D01*
X98470000Y-123605000D02*
X101965000Y-127100000D01*
X96787500Y-123605000D02*
X98470000Y-123605000D01*
D30*
%TO.N,GND*%
X119380000Y-136637500D02*
X119380000Y-135035000D01*
X99270000Y-122200000D02*
X99270000Y-118390000D01*
X98865000Y-119255000D02*
X99270000Y-119660000D01*
X95885000Y-119255000D02*
X98865000Y-119255000D01*
X93440000Y-119255000D02*
X93345000Y-119160000D01*
X95885000Y-119255000D02*
X93440000Y-119255000D01*
X105910000Y-118390000D02*
X106045000Y-118525000D01*
X104720000Y-118390000D02*
X105910000Y-118390000D01*
X100052500Y-131225000D02*
X98425000Y-131225000D01*
X99270000Y-122212500D02*
X101297500Y-124240000D01*
X99270000Y-122200000D02*
X99270000Y-122212500D01*
D27*
X109085000Y-123470000D02*
X109220000Y-123605000D01*
X107710000Y-123470000D02*
X109085000Y-123470000D01*
X128160000Y-123455000D02*
X128130000Y-123425000D01*
X128160000Y-124675000D02*
X128160000Y-123455000D01*
X148590000Y-118192500D02*
X148590000Y-119160000D01*
D29*
X111125000Y-114982500D02*
X111125000Y-116620000D01*
X122870000Y-107415000D02*
X122555000Y-107100000D01*
X125130000Y-107415000D02*
X122870000Y-107415000D01*
X93712500Y-123605000D02*
X91440000Y-123605000D01*
%TO.N,+3V3*%
X122870000Y-108685000D02*
X122555000Y-109000000D01*
X125130000Y-108685000D02*
X122870000Y-108685000D01*
D30*
%TO.N,Net-(D1-Pad2)*%
X116865000Y-138512500D02*
X116840000Y-138487500D01*
X119380000Y-138512500D02*
X116865000Y-138512500D01*
D29*
%TO.N,/FAN 1/PWM_Ctrl*%
X96520000Y-141385000D02*
X99695000Y-138210000D01*
X96520000Y-143925000D02*
X96520000Y-141385000D01*
D27*
%TO.N,/ESP32 Core/EN*%
X126050000Y-109955000D02*
X126365000Y-110270000D01*
X125130000Y-109955000D02*
X126050000Y-109955000D01*
X148922500Y-114715000D02*
X148590000Y-114382500D01*
X151880000Y-114715000D02*
X148922500Y-114715000D01*
X148590000Y-114382500D02*
X148590000Y-116317500D01*
%TO.N,/ESP32 Core/TX*%
X143825000Y-111225000D02*
X144145000Y-110905000D01*
X142630000Y-111225000D02*
X143825000Y-111225000D01*
%TO.N,/ESP32 Core/RX*%
X143830000Y-112495000D02*
X144145000Y-112810000D01*
X142630000Y-112495000D02*
X143830000Y-112495000D01*
%TO.N,/ESP32 Core/IO0*%
X141418296Y-123925000D02*
X141079323Y-123586027D01*
X142630000Y-123925000D02*
X141418296Y-123925000D01*
D30*
%TO.N,/DC/DC Buck/FB*%
X107407500Y-119660000D02*
X107710000Y-119962500D01*
X104720000Y-119660000D02*
X107407500Y-119660000D01*
X107710000Y-121595000D02*
X107710000Y-119962500D01*
%TO.N,/DC/DC Buck/OUTPUT*%
X95885000Y-115255000D02*
X103305000Y-115255000D01*
X103645000Y-120930000D02*
X104720000Y-120930000D01*
X103505000Y-120790000D02*
X103645000Y-120930000D01*
X103505000Y-115055000D02*
X103505000Y-120790000D01*
D29*
X103505000Y-115055000D02*
X103357500Y-115202500D01*
X103505000Y-114105000D02*
X103505000Y-115055000D01*
D30*
X103305000Y-115255000D02*
X103357500Y-115202500D01*
%TO.N,/SENSE1*%
X99060000Y-141385000D02*
X99060000Y-143925000D01*
X111760000Y-122002500D02*
X111760000Y-124240000D01*
X113347500Y-127097500D02*
X99060000Y-141385000D01*
X114400000Y-126045000D02*
X113347500Y-127097500D01*
D27*
X124678260Y-121385000D02*
X125130000Y-121385000D01*
X120018260Y-126045000D02*
X124678260Y-121385000D01*
X114400000Y-126045000D02*
X120018260Y-126045000D01*
D30*
%TO.N,/SENSE2*%
X111760000Y-132495000D02*
X111760000Y-143925000D01*
X115210000Y-129045000D02*
X111760000Y-132495000D01*
X114300000Y-122002500D02*
X114300000Y-122335000D01*
X114300000Y-122335000D02*
X114300000Y-123605000D01*
X116565000Y-129045000D02*
X115210000Y-129045000D01*
D27*
X116565000Y-129045000D02*
X126260000Y-129045000D01*
X129430000Y-125875000D02*
X129430000Y-125175000D01*
X126260000Y-129045000D02*
X129430000Y-125875000D01*
D29*
%TO.N,/SENSE3*%
X130195000Y-138190000D02*
X124460000Y-143925000D01*
X130195000Y-135035000D02*
X130195000Y-138190000D01*
D30*
X116840000Y-122002500D02*
X116840000Y-122335000D01*
X116840000Y-122335000D02*
X116840000Y-123605000D01*
X121805000Y-132380000D02*
X127635000Y-132380000D01*
X119380000Y-129955000D02*
X121805000Y-132380000D01*
D29*
X144880000Y-124174964D02*
X137629964Y-131425000D01*
X144880000Y-118075000D02*
X144880000Y-124174964D01*
D27*
X133805000Y-131425000D02*
X130195000Y-135035000D01*
X137629964Y-131425000D02*
X133805000Y-131425000D01*
X144380000Y-117575000D02*
X142630000Y-117575000D01*
X144880000Y-118075000D02*
X144380000Y-117575000D01*
D29*
%TO.N,/SENSE4*%
X137160000Y-140750000D02*
X137160000Y-143925000D01*
X137685000Y-140225000D02*
X137160000Y-140750000D01*
D30*
X119380000Y-122002500D02*
X119380000Y-122335000D01*
X119380000Y-122335000D02*
X119380000Y-123605000D01*
X128674999Y-131629999D02*
X128905000Y-131860000D01*
X122959999Y-131629999D02*
X128674999Y-131629999D01*
X121285000Y-129955000D02*
X122959999Y-131629999D01*
D29*
X137685000Y-134510000D02*
X137685000Y-140225000D01*
X137685000Y-132605000D02*
X137685000Y-134510000D01*
X146280020Y-124754870D02*
X140380000Y-130654890D01*
X146280020Y-115825020D02*
X146280020Y-124754870D01*
X140380000Y-130654890D02*
X140380000Y-131425000D01*
D27*
X139253112Y-132605000D02*
X137685000Y-132605000D01*
X140380000Y-131478112D02*
X139253112Y-132605000D01*
X140380000Y-131425000D02*
X140380000Y-131478112D01*
X144220000Y-113765000D02*
X142630000Y-113765000D01*
X146280020Y-115825020D02*
X144220000Y-113765000D01*
%TO.N,/LINK*%
X136668590Y-126425000D02*
X129418590Y-133675000D01*
X129418590Y-133675000D02*
X118130000Y-133675000D01*
X116840000Y-134965000D02*
X116840000Y-136662500D01*
X118130000Y-133675000D02*
X116840000Y-134965000D01*
X142630000Y-109955000D02*
X140750000Y-109955000D01*
X140750000Y-109955000D02*
X140080000Y-110625000D01*
X140080000Y-110625000D02*
X140080000Y-123425000D01*
X140365001Y-123710001D02*
X140365001Y-126739999D01*
X140080000Y-123425000D02*
X140365001Y-123710001D01*
X140050002Y-126425000D02*
X136668590Y-126425000D01*
X140365001Y-126739999D02*
X140050002Y-126425000D01*
D30*
%TO.N,/PWM2*%
X109220000Y-133765000D02*
X109220000Y-136637500D01*
X115440000Y-127545000D02*
X109220000Y-133765000D01*
D27*
X119154670Y-127545000D02*
X115440000Y-127545000D01*
X125130000Y-122155000D02*
X124544670Y-122155000D01*
X119240000Y-127545000D02*
X119154670Y-127545000D01*
X124130000Y-122655000D02*
X119240000Y-127545000D01*
X125130000Y-122655000D02*
X124130000Y-122655000D01*
%TO.N,/PWM1*%
X124614998Y-120115000D02*
X125130000Y-120115000D01*
X123840925Y-121585925D02*
X123840925Y-120889073D01*
X120461849Y-124965001D02*
X123840925Y-121585925D01*
X123840925Y-120889073D02*
X124614998Y-120115000D01*
X111695001Y-124965001D02*
X120461849Y-124965001D01*
X100325002Y-136335000D02*
X111695001Y-124965001D01*
X99695000Y-136335000D02*
X100325002Y-136335000D01*
D29*
%TO.N,/PWM3*%
X121920000Y-136637500D02*
X127092500Y-136637500D01*
X144110000Y-123955002D02*
X139140002Y-128925000D01*
X139140002Y-128925000D02*
X135880000Y-128925000D01*
D27*
X134805000Y-128925000D02*
X127092500Y-136637500D01*
X135880000Y-128925000D02*
X134805000Y-128925000D01*
X143630000Y-122655000D02*
X142630000Y-122655000D01*
X144110000Y-123135000D02*
X143630000Y-122655000D01*
X144110000Y-123955002D02*
X144110000Y-123135000D01*
D29*
%TO.N,/PWM4*%
X134620000Y-135035000D02*
X134620000Y-136637500D01*
X136185000Y-133470000D02*
X134620000Y-135035000D01*
X145580010Y-124464917D02*
X138619926Y-131425000D01*
X145580010Y-117505010D02*
X145580010Y-124464917D01*
X138619926Y-131425000D02*
X139119926Y-131925000D01*
D27*
X136185000Y-133291814D02*
X136185000Y-133470000D01*
X137446824Y-132029990D02*
X136185000Y-133291814D01*
X138014936Y-132029990D02*
X137446824Y-132029990D01*
X138619926Y-131425000D02*
X138014936Y-132029990D01*
X144380000Y-116305000D02*
X142630000Y-116305000D01*
X145580010Y-117505010D02*
X144380000Y-116305000D01*
D30*
%TO.N,/OneWire*%
X122575000Y-118545000D02*
X122555000Y-118525000D01*
X99997500Y-101442500D02*
X100330000Y-101110000D01*
X106749315Y-105894315D02*
X110559315Y-105894315D01*
X104775000Y-103920000D02*
X106749315Y-105894315D01*
D29*
X103140000Y-103920000D02*
X100330000Y-101110000D01*
X104775000Y-103920000D02*
X103140000Y-103920000D01*
D27*
X122735000Y-118345000D02*
X122555000Y-118525000D01*
X121920000Y-122002500D02*
X122702500Y-122002500D01*
X122702500Y-122002500D02*
X122702500Y-121102500D01*
X124130000Y-118845000D02*
X125130000Y-118845000D01*
X124054999Y-118920001D02*
X124130000Y-118845000D01*
X124054999Y-119750001D02*
X124054999Y-118920001D01*
X122702500Y-121102500D02*
X124054999Y-119750001D01*
X122555000Y-118525000D02*
X123680000Y-118525000D01*
X124054999Y-118899999D02*
X124054999Y-118920001D01*
X123680000Y-118525000D02*
X124054999Y-118899999D01*
D30*
%TO.N,/EXT2*%
X121655000Y-112545000D02*
X120650000Y-111540000D01*
D27*
X121705000Y-112495000D02*
X121655000Y-112545000D01*
X125130000Y-112495000D02*
X121705000Y-112495000D01*
%TO.N,/EXT1*%
X102870000Y-101110000D02*
X106185000Y-104425000D01*
X110380000Y-104425000D02*
X111630000Y-105675000D01*
X106185000Y-104425000D02*
X110380000Y-104425000D01*
X118589669Y-113715331D02*
X118989668Y-113315332D01*
X124680332Y-113315332D02*
X125130000Y-113765000D01*
X118989668Y-113315332D02*
X124680332Y-113315332D01*
D30*
%TO.N,/SDA*%
X122590000Y-114045000D02*
X122555000Y-114080000D01*
D27*
X122555000Y-114245002D02*
X122555000Y-114080000D01*
X124614998Y-116305000D02*
X122555000Y-114245002D01*
X125130000Y-116305000D02*
X124614998Y-116305000D01*
D30*
%TO.N,/SCL*%
X122750000Y-115545000D02*
X122555000Y-115350000D01*
D27*
X122555000Y-116000000D02*
X122555000Y-115350000D01*
X124130000Y-117575000D02*
X122555000Y-116000000D01*
X125130000Y-117575000D02*
X124130000Y-117575000D01*
D30*
%TO.N,/EXT3*%
X122060000Y-111045000D02*
X121920000Y-110905000D01*
D27*
X124810000Y-110905000D02*
X125130000Y-111225000D01*
X121920000Y-110905000D02*
X124810000Y-110905000D01*
D30*
%TO.N,Net-(D3-Pad2)*%
X101877500Y-129087500D02*
X101965000Y-129000000D01*
X101877500Y-131225000D02*
X101877500Y-129087500D01*
X102765000Y-129800000D02*
X101965000Y-129000000D01*
X104775000Y-129800000D02*
X102765000Y-129800000D01*
D29*
%TO.N,/VIN*%
X94615000Y-131590000D02*
X97790000Y-128415000D01*
X99600000Y-128415000D02*
X99965000Y-128050000D01*
X97790000Y-128415000D02*
X99600000Y-128415000D01*
%TO.N,/sheet619566BF/PWM_Ctrl*%
X109220000Y-143925000D02*
X109220000Y-138512500D01*
%TO.N,/sheet61957927/PWM_Ctrl*%
X121920000Y-138512500D02*
X121920000Y-143925000D01*
%TO.N,/sheet61958B6B/PWM_Ctrl*%
X134620000Y-138512500D02*
X134620000Y-143925000D01*
%TD*%
D31*
%TO.N,+3V3*%
X122139659Y-99613625D02*
X122389429Y-99689035D01*
X122619792Y-99811522D01*
X122821980Y-99976422D01*
X122988286Y-100177450D01*
X123112378Y-100406954D01*
X123189531Y-100656195D01*
X123220001Y-100946098D01*
X123220000Y-103457418D01*
X123222852Y-103486372D01*
X123222765Y-103498781D01*
X123223665Y-103507952D01*
X123264466Y-103896145D01*
X123276487Y-103954708D01*
X123287702Y-104013501D01*
X123290366Y-104022323D01*
X123405790Y-104395198D01*
X123428975Y-104450353D01*
X123451379Y-104505806D01*
X123455706Y-104513943D01*
X123641357Y-104857298D01*
X123674780Y-104906849D01*
X123707562Y-104956946D01*
X123713387Y-104964087D01*
X123962194Y-105264841D01*
X124004629Y-105306981D01*
X124046492Y-105349730D01*
X124053592Y-105355604D01*
X124356077Y-105602305D01*
X124405904Y-105635409D01*
X124455259Y-105669204D01*
X124463365Y-105673587D01*
X124808007Y-105856837D01*
X124863311Y-105879631D01*
X124918295Y-105903198D01*
X124927098Y-105905923D01*
X125300770Y-106018741D01*
X125359458Y-106030361D01*
X125417961Y-106042797D01*
X125427126Y-106043760D01*
X125815595Y-106081850D01*
X125815598Y-106081850D01*
X125847581Y-106085000D01*
X141912419Y-106085000D01*
X141941373Y-106082148D01*
X141953781Y-106082235D01*
X141962952Y-106081335D01*
X142351145Y-106040534D01*
X142409708Y-106028513D01*
X142468501Y-106017298D01*
X142477323Y-106014634D01*
X142850198Y-105899210D01*
X142905353Y-105876025D01*
X142960806Y-105853621D01*
X142968943Y-105849294D01*
X143312298Y-105663643D01*
X143361849Y-105630220D01*
X143411946Y-105597438D01*
X143419087Y-105591613D01*
X143719841Y-105342806D01*
X143761981Y-105300371D01*
X143804730Y-105258508D01*
X143810604Y-105251408D01*
X144057305Y-104948923D01*
X144090414Y-104899089D01*
X144124204Y-104849741D01*
X144128587Y-104841635D01*
X144311837Y-104496993D01*
X144334631Y-104441689D01*
X144358198Y-104386705D01*
X144360923Y-104377902D01*
X144473741Y-104004230D01*
X144485361Y-103945542D01*
X144497797Y-103887039D01*
X144498760Y-103877874D01*
X144531174Y-103547285D01*
X145545000Y-103547285D01*
X145545000Y-104302715D01*
X145692377Y-105043628D01*
X145981467Y-105741554D01*
X146401161Y-106369670D01*
X146935330Y-106903839D01*
X147563446Y-107323533D01*
X148261372Y-107612623D01*
X149002285Y-107760000D01*
X149757715Y-107760000D01*
X150498628Y-107612623D01*
X151196554Y-107323533D01*
X151824670Y-106903839D01*
X152358839Y-106369670D01*
X152778533Y-105741554D01*
X153067623Y-105043628D01*
X153215000Y-104302715D01*
X153215000Y-103547285D01*
X153067623Y-102806372D01*
X152778533Y-102108446D01*
X152358839Y-101480330D01*
X151824670Y-100946161D01*
X151196554Y-100526467D01*
X150498628Y-100237377D01*
X149757715Y-100090000D01*
X149002285Y-100090000D01*
X148261372Y-100237377D01*
X147563446Y-100526467D01*
X146935330Y-100946161D01*
X146401161Y-101480330D01*
X145981467Y-102108446D01*
X145692377Y-102806372D01*
X145545000Y-103547285D01*
X144531174Y-103547285D01*
X144536850Y-103489405D01*
X144536850Y-103489402D01*
X144540000Y-103457419D01*
X144540000Y-100957279D01*
X144568625Y-100665341D01*
X144644035Y-100415571D01*
X144766522Y-100185208D01*
X144931422Y-99983020D01*
X145132450Y-99816714D01*
X145361954Y-99692622D01*
X145611195Y-99615469D01*
X145901088Y-99585000D01*
X152347721Y-99585000D01*
X152639659Y-99613625D01*
X152889429Y-99689035D01*
X153119792Y-99811522D01*
X153321980Y-99976422D01*
X153488286Y-100177450D01*
X153612378Y-100406954D01*
X153689531Y-100656195D01*
X153720001Y-100946098D01*
X153720000Y-146892721D01*
X153691375Y-147184660D01*
X153615965Y-147434429D01*
X153493477Y-147664794D01*
X153328579Y-147866979D01*
X153127546Y-148033288D01*
X152898046Y-148157378D01*
X152648805Y-148234531D01*
X152358911Y-148265000D01*
X139998685Y-148265000D01*
X140631236Y-147632450D01*
X140684081Y-147589081D01*
X140730991Y-147531922D01*
X140857157Y-147378188D01*
X140985764Y-147137581D01*
X141064960Y-146876507D01*
X141069689Y-146828493D01*
X141085000Y-146673037D01*
X141085000Y-146673029D01*
X141091700Y-146605000D01*
X141085000Y-146536971D01*
X141085000Y-145505010D01*
X141130820Y-145529502D01*
X141250518Y-145565812D01*
X141375000Y-145578072D01*
X143105000Y-145578072D01*
X143229482Y-145565812D01*
X143349180Y-145529502D01*
X143459494Y-145470537D01*
X143556185Y-145391185D01*
X143635537Y-145294494D01*
X143694502Y-145184180D01*
X143730812Y-145064482D01*
X143743072Y-144940000D01*
X143743072Y-143547285D01*
X145545000Y-143547285D01*
X145545000Y-144302715D01*
X145692377Y-145043628D01*
X145981467Y-145741554D01*
X146401161Y-146369670D01*
X146935330Y-146903839D01*
X147563446Y-147323533D01*
X148261372Y-147612623D01*
X149002285Y-147760000D01*
X149757715Y-147760000D01*
X150498628Y-147612623D01*
X151196554Y-147323533D01*
X151824670Y-146903839D01*
X152358839Y-146369670D01*
X152778533Y-145741554D01*
X153067623Y-145043628D01*
X153215000Y-144302715D01*
X153215000Y-143547285D01*
X153067623Y-142806372D01*
X152778533Y-142108446D01*
X152358839Y-141480330D01*
X151824670Y-140946161D01*
X151196554Y-140526467D01*
X150498628Y-140237377D01*
X149757715Y-140090000D01*
X149002285Y-140090000D01*
X148261372Y-140237377D01*
X147563446Y-140526467D01*
X146935330Y-140946161D01*
X146401161Y-141480330D01*
X145981467Y-142108446D01*
X145692377Y-142806372D01*
X145545000Y-143547285D01*
X143743072Y-143547285D01*
X143743072Y-142910000D01*
X143730812Y-142785518D01*
X143694502Y-142665820D01*
X143635537Y-142555506D01*
X143556185Y-142458815D01*
X143459494Y-142379463D01*
X143349180Y-142320498D01*
X143229482Y-142284188D01*
X143105000Y-142271928D01*
X141375000Y-142271928D01*
X141250518Y-142284188D01*
X141130820Y-142320498D01*
X141020506Y-142379463D01*
X140923815Y-142458815D01*
X140844463Y-142555506D01*
X140785498Y-142665820D01*
X140770570Y-142715030D01*
X140765792Y-142709208D01*
X140537387Y-142521762D01*
X140276802Y-142382476D01*
X139994051Y-142296705D01*
X139700000Y-142267743D01*
X139405950Y-142296705D01*
X139123199Y-142382476D01*
X138862614Y-142521762D01*
X138634208Y-142709208D01*
X138446762Y-142937613D01*
X138430000Y-142968972D01*
X138413238Y-142937613D01*
X138225792Y-142709208D01*
X138045000Y-142560837D01*
X138045000Y-141116578D01*
X138280044Y-140881534D01*
X138313817Y-140853817D01*
X138424411Y-140719059D01*
X138506589Y-140565313D01*
X138557195Y-140398490D01*
X138570000Y-140268477D01*
X138570000Y-140268467D01*
X138574281Y-140225001D01*
X138570000Y-140181535D01*
X138570000Y-135048454D01*
X138602205Y-135000256D01*
X138680226Y-134811898D01*
X138720000Y-134611939D01*
X138720000Y-134408061D01*
X138680226Y-134208102D01*
X138602205Y-134019744D01*
X138570000Y-133971546D01*
X138570000Y-133365000D01*
X139215790Y-133365000D01*
X139253112Y-133368676D01*
X139290434Y-133365000D01*
X139290445Y-133365000D01*
X139402098Y-133354003D01*
X139545359Y-133310546D01*
X139677388Y-133239974D01*
X139793113Y-133145001D01*
X139816916Y-133115998D01*
X140671525Y-132261389D01*
X140720313Y-132246589D01*
X140874059Y-132164411D01*
X141008817Y-132053817D01*
X141119411Y-131919059D01*
X141201589Y-131765313D01*
X141252195Y-131598490D01*
X141265000Y-131468477D01*
X141265000Y-131021468D01*
X146875069Y-125411400D01*
X146908837Y-125383687D01*
X146945139Y-125339454D01*
X147012604Y-125257248D01*
X147019431Y-125248929D01*
X147101609Y-125095183D01*
X147152215Y-124928360D01*
X147165020Y-124798347D01*
X147165020Y-124798337D01*
X147169301Y-124754871D01*
X147165020Y-124711405D01*
X147165020Y-115781543D01*
X147152215Y-115651530D01*
X147101609Y-115484707D01*
X147019431Y-115330961D01*
X146908837Y-115196203D01*
X146774078Y-115085609D01*
X146620332Y-115003431D01*
X146495306Y-114965504D01*
X144969220Y-113439419D01*
X145062205Y-113300256D01*
X145140226Y-113111898D01*
X145163478Y-112995000D01*
X147251928Y-112995000D01*
X147264188Y-113119482D01*
X147300498Y-113239180D01*
X147359463Y-113349494D01*
X147438815Y-113446185D01*
X147516564Y-113509992D01*
X147510208Y-113515208D01*
X147400542Y-113648836D01*
X147319053Y-113801291D01*
X147268872Y-113966715D01*
X147251928Y-114138750D01*
X147251928Y-114626250D01*
X147268872Y-114798285D01*
X147319053Y-114963709D01*
X147400542Y-115116164D01*
X147510208Y-115249792D01*
X147632311Y-115350000D01*
X147510208Y-115450208D01*
X147400542Y-115583836D01*
X147319053Y-115736291D01*
X147268872Y-115901715D01*
X147251928Y-116073750D01*
X147251928Y-116561250D01*
X147268872Y-116733285D01*
X147319053Y-116898709D01*
X147400542Y-117051164D01*
X147510208Y-117184792D01*
X147595756Y-117255000D01*
X147510208Y-117325208D01*
X147400542Y-117458836D01*
X147319053Y-117611291D01*
X147268872Y-117776715D01*
X147251928Y-117948750D01*
X147251928Y-118436250D01*
X147268872Y-118608285D01*
X147319053Y-118773709D01*
X147400542Y-118926164D01*
X147510208Y-119059792D01*
X147555000Y-119096552D01*
X147555000Y-119261939D01*
X147594774Y-119461898D01*
X147672795Y-119650256D01*
X147786063Y-119819774D01*
X147930226Y-119963937D01*
X148099744Y-120077205D01*
X148288102Y-120155226D01*
X148488061Y-120195000D01*
X148691939Y-120195000D01*
X148891898Y-120155226D01*
X149080256Y-120077205D01*
X149249774Y-119963937D01*
X149393937Y-119819774D01*
X149507205Y-119650256D01*
X149585226Y-119461898D01*
X149625000Y-119261939D01*
X149625000Y-119096552D01*
X149669792Y-119059792D01*
X149779458Y-118926164D01*
X149860947Y-118773709D01*
X149911128Y-118608285D01*
X149928072Y-118436250D01*
X149928072Y-117948750D01*
X149911128Y-117776715D01*
X149860947Y-117611291D01*
X149779458Y-117458836D01*
X149669792Y-117325208D01*
X149584244Y-117255000D01*
X149669792Y-117184792D01*
X149779458Y-117051164D01*
X149860947Y-116898709D01*
X149911128Y-116733285D01*
X149928072Y-116561250D01*
X149928072Y-116073750D01*
X149911128Y-115901715D01*
X149860947Y-115736291D01*
X149779458Y-115583836D01*
X149690138Y-115475000D01*
X150601822Y-115475000D01*
X150726525Y-115661632D01*
X150933368Y-115868475D01*
X151107760Y-115985000D01*
X150933368Y-116101525D01*
X150726525Y-116308368D01*
X150564010Y-116551589D01*
X150452068Y-116821842D01*
X150395000Y-117108740D01*
X150395000Y-117401260D01*
X150452068Y-117688158D01*
X150564010Y-117958411D01*
X150726525Y-118201632D01*
X150933368Y-118408475D01*
X151107760Y-118525000D01*
X150933368Y-118641525D01*
X150726525Y-118848368D01*
X150564010Y-119091589D01*
X150452068Y-119361842D01*
X150395000Y-119648740D01*
X150395000Y-119941260D01*
X150452068Y-120228158D01*
X150564010Y-120498411D01*
X150726525Y-120741632D01*
X150933368Y-120948475D01*
X151107760Y-121065000D01*
X150933368Y-121181525D01*
X150726525Y-121388368D01*
X150564010Y-121631589D01*
X150452068Y-121901842D01*
X150395000Y-122188740D01*
X150395000Y-122481260D01*
X150452068Y-122768158D01*
X150564010Y-123038411D01*
X150726525Y-123281632D01*
X150858380Y-123413487D01*
X150785820Y-123435498D01*
X150675506Y-123494463D01*
X150578815Y-123573815D01*
X150499463Y-123670506D01*
X150440498Y-123780820D01*
X150404188Y-123900518D01*
X150391928Y-124025000D01*
X150391928Y-125725000D01*
X150404188Y-125849482D01*
X150440498Y-125969180D01*
X150499463Y-126079494D01*
X150578815Y-126176185D01*
X150675506Y-126255537D01*
X150785820Y-126314502D01*
X150905518Y-126350812D01*
X151030000Y-126363072D01*
X152730000Y-126363072D01*
X152854482Y-126350812D01*
X152974180Y-126314502D01*
X153084494Y-126255537D01*
X153181185Y-126176185D01*
X153260537Y-126079494D01*
X153319502Y-125969180D01*
X153355812Y-125849482D01*
X153368072Y-125725000D01*
X153368072Y-124025000D01*
X153355812Y-123900518D01*
X153319502Y-123780820D01*
X153260537Y-123670506D01*
X153181185Y-123573815D01*
X153084494Y-123494463D01*
X152974180Y-123435498D01*
X152901620Y-123413487D01*
X153033475Y-123281632D01*
X153195990Y-123038411D01*
X153307932Y-122768158D01*
X153365000Y-122481260D01*
X153365000Y-122188740D01*
X153307932Y-121901842D01*
X153195990Y-121631589D01*
X153033475Y-121388368D01*
X152826632Y-121181525D01*
X152652240Y-121065000D01*
X152826632Y-120948475D01*
X153033475Y-120741632D01*
X153195990Y-120498411D01*
X153307932Y-120228158D01*
X153365000Y-119941260D01*
X153365000Y-119648740D01*
X153307932Y-119361842D01*
X153195990Y-119091589D01*
X153033475Y-118848368D01*
X152826632Y-118641525D01*
X152652240Y-118525000D01*
X152826632Y-118408475D01*
X153033475Y-118201632D01*
X153195990Y-117958411D01*
X153307932Y-117688158D01*
X153365000Y-117401260D01*
X153365000Y-117108740D01*
X153307932Y-116821842D01*
X153195990Y-116551589D01*
X153033475Y-116308368D01*
X152826632Y-116101525D01*
X152652240Y-115985000D01*
X152826632Y-115868475D01*
X153033475Y-115661632D01*
X153195990Y-115418411D01*
X153307932Y-115148158D01*
X153365000Y-114861260D01*
X153365000Y-114568740D01*
X153307932Y-114281842D01*
X153195990Y-114011589D01*
X153033475Y-113768368D01*
X152826632Y-113561525D01*
X152644466Y-113439805D01*
X152761355Y-113370178D01*
X152977588Y-113175269D01*
X153151641Y-112941920D01*
X153276825Y-112679099D01*
X153321476Y-112531890D01*
X153200155Y-112302000D01*
X152007000Y-112302000D01*
X152007000Y-112322000D01*
X151753000Y-112322000D01*
X151753000Y-112302000D01*
X150559845Y-112302000D01*
X150438524Y-112531890D01*
X150483175Y-112679099D01*
X150608359Y-112941920D01*
X150782412Y-113175269D01*
X150998645Y-113370178D01*
X151115534Y-113439805D01*
X150933368Y-113561525D01*
X150726525Y-113768368D01*
X150601822Y-113955000D01*
X149907574Y-113955000D01*
X149860947Y-113801291D01*
X149779458Y-113648836D01*
X149669792Y-113515208D01*
X149663436Y-113509992D01*
X149741185Y-113446185D01*
X149820537Y-113349494D01*
X149879502Y-113239180D01*
X149915812Y-113119482D01*
X149928072Y-112995000D01*
X149925000Y-112793250D01*
X149766250Y-112634500D01*
X148717000Y-112634500D01*
X148717000Y-112654500D01*
X148463000Y-112654500D01*
X148463000Y-112634500D01*
X147413750Y-112634500D01*
X147255000Y-112793250D01*
X147251928Y-112995000D01*
X145163478Y-112995000D01*
X145180000Y-112911939D01*
X145180000Y-112708061D01*
X145140226Y-112508102D01*
X145062205Y-112319744D01*
X144948937Y-112150226D01*
X144818711Y-112020000D01*
X147251928Y-112020000D01*
X147255000Y-112221750D01*
X147413750Y-112380500D01*
X148463000Y-112380500D01*
X148463000Y-111543750D01*
X148717000Y-111543750D01*
X148717000Y-112380500D01*
X149766250Y-112380500D01*
X149925000Y-112221750D01*
X149928072Y-112020000D01*
X149915812Y-111895518D01*
X149892331Y-111818110D01*
X150438524Y-111818110D01*
X150559845Y-112048000D01*
X151753000Y-112048000D01*
X151753000Y-110854186D01*
X152007000Y-110854186D01*
X152007000Y-112048000D01*
X153200155Y-112048000D01*
X153321476Y-111818110D01*
X153276825Y-111670901D01*
X153151641Y-111408080D01*
X152977588Y-111174731D01*
X152761355Y-110979822D01*
X152511252Y-110830843D01*
X152236891Y-110733519D01*
X152007000Y-110854186D01*
X151753000Y-110854186D01*
X151523109Y-110733519D01*
X151248748Y-110830843D01*
X150998645Y-110979822D01*
X150782412Y-111174731D01*
X150608359Y-111408080D01*
X150483175Y-111670901D01*
X150438524Y-111818110D01*
X149892331Y-111818110D01*
X149879502Y-111775820D01*
X149820537Y-111665506D01*
X149741185Y-111568815D01*
X149644494Y-111489463D01*
X149534180Y-111430498D01*
X149414482Y-111394188D01*
X149290000Y-111381928D01*
X148875750Y-111385000D01*
X148717000Y-111543750D01*
X148463000Y-111543750D01*
X148304250Y-111385000D01*
X147890000Y-111381928D01*
X147765518Y-111394188D01*
X147645820Y-111430498D01*
X147535506Y-111489463D01*
X147438815Y-111568815D01*
X147359463Y-111665506D01*
X147300498Y-111775820D01*
X147264188Y-111895518D01*
X147251928Y-112020000D01*
X144818711Y-112020000D01*
X144804774Y-112006063D01*
X144635256Y-111892795D01*
X144550047Y-111857500D01*
X144635256Y-111822205D01*
X144804774Y-111708937D01*
X144948937Y-111564774D01*
X145062205Y-111395256D01*
X145140226Y-111206898D01*
X145180000Y-111006939D01*
X145180000Y-110803061D01*
X145140226Y-110603102D01*
X145062205Y-110414744D01*
X144948937Y-110245226D01*
X144804774Y-110101063D01*
X144635256Y-109987795D01*
X144446898Y-109909774D01*
X144246939Y-109870000D01*
X144043061Y-109870000D01*
X144018072Y-109874971D01*
X144018072Y-109505000D01*
X144005812Y-109380518D01*
X143987454Y-109320000D01*
X144005812Y-109259482D01*
X144018072Y-109135000D01*
X144018072Y-108235000D01*
X144005812Y-108110518D01*
X143987454Y-108050000D01*
X144005812Y-107989482D01*
X144018072Y-107865000D01*
X144018072Y-106965000D01*
X144005812Y-106840518D01*
X143969502Y-106720820D01*
X143910537Y-106610506D01*
X143831185Y-106513815D01*
X143734494Y-106434463D01*
X143624180Y-106375498D01*
X143504482Y-106339188D01*
X143380000Y-106326928D01*
X143335397Y-106326928D01*
X143253882Y-106302201D01*
X143130000Y-106290000D01*
X124630000Y-106290000D01*
X124506118Y-106302201D01*
X124424603Y-106326928D01*
X124380000Y-106326928D01*
X124255518Y-106339188D01*
X124135820Y-106375498D01*
X124025506Y-106434463D01*
X123928815Y-106513815D01*
X123915532Y-106530000D01*
X123856493Y-106530000D01*
X123850472Y-106510150D01*
X123768405Y-106356614D01*
X123657962Y-106222038D01*
X123523386Y-106111595D01*
X123369850Y-106029528D01*
X123203254Y-105978992D01*
X123030000Y-105961928D01*
X122080000Y-105961928D01*
X121906746Y-105978992D01*
X121740150Y-106029528D01*
X121586614Y-106111595D01*
X121452038Y-106222038D01*
X121341595Y-106356614D01*
X121259528Y-106510150D01*
X121208992Y-106676746D01*
X121191928Y-106850000D01*
X121191928Y-107350000D01*
X121208992Y-107523254D01*
X121259528Y-107689850D01*
X121341595Y-107843386D01*
X121452038Y-107977962D01*
X121458594Y-107983342D01*
X121378815Y-108048815D01*
X121299463Y-108145506D01*
X121240498Y-108255820D01*
X121204188Y-108375518D01*
X121191928Y-108500000D01*
X121195000Y-108714250D01*
X121353750Y-108873000D01*
X122428000Y-108873000D01*
X122428000Y-108853000D01*
X122682000Y-108853000D01*
X122682000Y-108873000D01*
X122702000Y-108873000D01*
X122702000Y-109127000D01*
X122682000Y-109127000D01*
X122682000Y-109147000D01*
X122428000Y-109147000D01*
X122428000Y-109127000D01*
X121353750Y-109127000D01*
X121195000Y-109285750D01*
X121191928Y-109500000D01*
X121204188Y-109624482D01*
X121240498Y-109744180D01*
X121299463Y-109854494D01*
X121378815Y-109951185D01*
X121426261Y-109990123D01*
X121260226Y-110101063D01*
X121116063Y-110245226D01*
X121002795Y-110414744D01*
X120949160Y-110544229D01*
X120751939Y-110505000D01*
X120548061Y-110505000D01*
X120348102Y-110544774D01*
X120159744Y-110622795D01*
X119990226Y-110736063D01*
X119846063Y-110880226D01*
X119732795Y-111049744D01*
X119654774Y-111238102D01*
X119615000Y-111438061D01*
X119615000Y-111641939D01*
X119654774Y-111841898D01*
X119732795Y-112030256D01*
X119846063Y-112199774D01*
X119990226Y-112343937D01*
X120159744Y-112457205D01*
X120348102Y-112535226D01*
X120449182Y-112555332D01*
X119026990Y-112555332D01*
X118989667Y-112551656D01*
X118952345Y-112555332D01*
X118952335Y-112555332D01*
X118840682Y-112566329D01*
X118697421Y-112609786D01*
X118565443Y-112680331D01*
X118487730Y-112680331D01*
X118287771Y-112720105D01*
X118099413Y-112798126D01*
X117929895Y-112911394D01*
X117785732Y-113055557D01*
X117672464Y-113225075D01*
X117594443Y-113413433D01*
X117554669Y-113613392D01*
X117554669Y-113817270D01*
X117594443Y-114017229D01*
X117672464Y-114205587D01*
X117785732Y-114375105D01*
X117929895Y-114519268D01*
X118099413Y-114632536D01*
X118287771Y-114710557D01*
X118487730Y-114750331D01*
X118691608Y-114750331D01*
X118891567Y-114710557D01*
X119079925Y-114632536D01*
X119249443Y-114519268D01*
X119393606Y-114375105D01*
X119506874Y-114205587D01*
X119560828Y-114075332D01*
X121520000Y-114075332D01*
X121520000Y-114181939D01*
X121559774Y-114381898D01*
X121637795Y-114570256D01*
X121734510Y-114715000D01*
X121637795Y-114859744D01*
X121559774Y-115048102D01*
X121520000Y-115248061D01*
X121520000Y-115451939D01*
X121559774Y-115651898D01*
X121637795Y-115840256D01*
X121751063Y-116009774D01*
X121796789Y-116055500D01*
X121805997Y-116148985D01*
X121836425Y-116249295D01*
X121849454Y-116292246D01*
X121920026Y-116424276D01*
X121944408Y-116453985D01*
X122014999Y-116540001D01*
X122044003Y-116563804D01*
X123174051Y-117693853D01*
X123045256Y-117607795D01*
X122856898Y-117529774D01*
X122656939Y-117490000D01*
X122453061Y-117490000D01*
X122253102Y-117529774D01*
X122064744Y-117607795D01*
X121895226Y-117721063D01*
X121751063Y-117865226D01*
X121637795Y-118034744D01*
X121559774Y-118223102D01*
X121520000Y-118423061D01*
X121520000Y-118626939D01*
X121559774Y-118826898D01*
X121633545Y-119004995D01*
X121220000Y-119001928D01*
X121095518Y-119014188D01*
X120975820Y-119050498D01*
X120865506Y-119109463D01*
X120768815Y-119188815D01*
X120689463Y-119285506D01*
X120650000Y-119359335D01*
X120610537Y-119285506D01*
X120531185Y-119188815D01*
X120434494Y-119109463D01*
X120324180Y-119050498D01*
X120204482Y-119014188D01*
X120080000Y-119001928D01*
X119665750Y-119005000D01*
X119507000Y-119163750D01*
X119507000Y-120000500D01*
X120556250Y-120000500D01*
X120650000Y-119906750D01*
X120743750Y-120000500D01*
X121793000Y-120000500D01*
X121793000Y-119980500D01*
X122047000Y-119980500D01*
X122047000Y-120000500D01*
X122067000Y-120000500D01*
X122067000Y-120254500D01*
X122047000Y-120254500D01*
X122047000Y-120274500D01*
X121793000Y-120274500D01*
X121793000Y-120254500D01*
X120743750Y-120254500D01*
X120650000Y-120348250D01*
X120556250Y-120254500D01*
X119507000Y-120254500D01*
X119507000Y-120274500D01*
X119253000Y-120274500D01*
X119253000Y-120254500D01*
X118203750Y-120254500D01*
X118110000Y-120348250D01*
X118016250Y-120254500D01*
X116967000Y-120254500D01*
X116967000Y-120274500D01*
X116713000Y-120274500D01*
X116713000Y-120254500D01*
X115663750Y-120254500D01*
X115570000Y-120348250D01*
X115476250Y-120254500D01*
X114427000Y-120254500D01*
X114427000Y-120274500D01*
X114173000Y-120274500D01*
X114173000Y-120254500D01*
X113123750Y-120254500D01*
X113030000Y-120348250D01*
X112936250Y-120254500D01*
X111887000Y-120254500D01*
X111887000Y-120274500D01*
X111633000Y-120274500D01*
X111633000Y-120254500D01*
X110583750Y-120254500D01*
X110425000Y-120413250D01*
X110421928Y-120615000D01*
X110434188Y-120739482D01*
X110470498Y-120859180D01*
X110529463Y-120969494D01*
X110608815Y-121066185D01*
X110686564Y-121129992D01*
X110680208Y-121135208D01*
X110570542Y-121268836D01*
X110489053Y-121421291D01*
X110438872Y-121586715D01*
X110421928Y-121758750D01*
X110421928Y-122246250D01*
X110438872Y-122418285D01*
X110489053Y-122583709D01*
X110570542Y-122736164D01*
X110680208Y-122869792D01*
X110813836Y-122979458D01*
X110966291Y-123060947D01*
X110975000Y-123063589D01*
X110975001Y-123561288D01*
X110956063Y-123580226D01*
X110842795Y-123749744D01*
X110764774Y-123938102D01*
X110725000Y-124138061D01*
X110725000Y-124341939D01*
X110764774Y-124541898D01*
X110842795Y-124730256D01*
X110847661Y-124737539D01*
X106263072Y-129322128D01*
X106263072Y-129150000D01*
X106250812Y-129025518D01*
X106214502Y-128905820D01*
X106155537Y-128795506D01*
X106076185Y-128698815D01*
X105979494Y-128619463D01*
X105869180Y-128560498D01*
X105749482Y-128524188D01*
X105625000Y-128511928D01*
X103925000Y-128511928D01*
X103800518Y-128524188D01*
X103680820Y-128560498D01*
X103570506Y-128619463D01*
X103473815Y-128698815D01*
X103394463Y-128795506D01*
X103335498Y-128905820D01*
X103302379Y-129015000D01*
X103090157Y-129015000D01*
X103053072Y-128977915D01*
X103053072Y-128600000D01*
X103040812Y-128475518D01*
X103004502Y-128355820D01*
X102945537Y-128245506D01*
X102866185Y-128148815D01*
X102769494Y-128069463D01*
X102733082Y-128050000D01*
X102769494Y-128030537D01*
X102824981Y-127985000D01*
X103931531Y-127985000D01*
X103975000Y-127989281D01*
X104018469Y-127985000D01*
X104018477Y-127985000D01*
X104148490Y-127972195D01*
X104315313Y-127921589D01*
X104469059Y-127839411D01*
X104603817Y-127728817D01*
X104631534Y-127695044D01*
X104647441Y-127679137D01*
X104775000Y-127691700D01*
X105046507Y-127664960D01*
X105299972Y-127588072D01*
X105625000Y-127588072D01*
X105749482Y-127575812D01*
X105869180Y-127539502D01*
X105886957Y-127530000D01*
X107383037Y-127530000D01*
X107586507Y-127509960D01*
X107847581Y-127430764D01*
X108088188Y-127302157D01*
X108299081Y-127129081D01*
X108472157Y-126918188D01*
X108600764Y-126677581D01*
X108679960Y-126416507D01*
X108706701Y-126145000D01*
X108679960Y-125873493D01*
X108600764Y-125612419D01*
X108472157Y-125371812D01*
X108299081Y-125160919D01*
X108088188Y-124987843D01*
X107847581Y-124859236D01*
X107586507Y-124780040D01*
X107383037Y-124760000D01*
X104998026Y-124760000D01*
X104929999Y-124753300D01*
X104861973Y-124760000D01*
X104861963Y-124760000D01*
X104658493Y-124780040D01*
X104541966Y-124815388D01*
X104298072Y-124571494D01*
X104298072Y-124366006D01*
X105315049Y-123349030D01*
X105348817Y-123321317D01*
X105378062Y-123285683D01*
X105458169Y-123188072D01*
X105495000Y-123188072D01*
X105619482Y-123175812D01*
X105739180Y-123139502D01*
X105849494Y-123080537D01*
X105946185Y-123001185D01*
X106025537Y-122904494D01*
X106084502Y-122794180D01*
X106120812Y-122674482D01*
X106133072Y-122550000D01*
X106133072Y-121850000D01*
X106120812Y-121725518D01*
X106084502Y-121605820D01*
X106062683Y-121565000D01*
X106084502Y-121524180D01*
X106120812Y-121404482D01*
X106133072Y-121280000D01*
X106133072Y-120580000D01*
X106120812Y-120455518D01*
X106117621Y-120445000D01*
X106409110Y-120445000D01*
X106439053Y-120543709D01*
X106520542Y-120696164D01*
X106588319Y-120778750D01*
X106520542Y-120861336D01*
X106439053Y-121013791D01*
X106388872Y-121179215D01*
X106371928Y-121351250D01*
X106371928Y-121838750D01*
X106388872Y-122010785D01*
X106439053Y-122176209D01*
X106520542Y-122328664D01*
X106630208Y-122462292D01*
X106715756Y-122532500D01*
X106630208Y-122602708D01*
X106520542Y-122736336D01*
X106439053Y-122888791D01*
X106388872Y-123054215D01*
X106371928Y-123226250D01*
X106371928Y-123713750D01*
X106388872Y-123885785D01*
X106439053Y-124051209D01*
X106520542Y-124203664D01*
X106630208Y-124337292D01*
X106763836Y-124446958D01*
X106916291Y-124528447D01*
X107081715Y-124578628D01*
X107253750Y-124595572D01*
X108166250Y-124595572D01*
X108338285Y-124578628D01*
X108503709Y-124528447D01*
X108634477Y-124458550D01*
X108729744Y-124522205D01*
X108918102Y-124600226D01*
X109118061Y-124640000D01*
X109321939Y-124640000D01*
X109521898Y-124600226D01*
X109710256Y-124522205D01*
X109879774Y-124408937D01*
X110023937Y-124264774D01*
X110137205Y-124095256D01*
X110215226Y-123906898D01*
X110255000Y-123706939D01*
X110255000Y-123503061D01*
X110215226Y-123303102D01*
X110137205Y-123114744D01*
X110023937Y-122945226D01*
X109879774Y-122801063D01*
X109710256Y-122687795D01*
X109521898Y-122609774D01*
X109321939Y-122570000D01*
X109118061Y-122570000D01*
X108918102Y-122609774D01*
X108826672Y-122647646D01*
X108789792Y-122602708D01*
X108704244Y-122532500D01*
X108789792Y-122462292D01*
X108899458Y-122328664D01*
X108980947Y-122176209D01*
X109031128Y-122010785D01*
X109048072Y-121838750D01*
X109048072Y-121351250D01*
X109031128Y-121179215D01*
X108980947Y-121013791D01*
X108899458Y-120861336D01*
X108831681Y-120778750D01*
X108899458Y-120696164D01*
X108980947Y-120543709D01*
X109031128Y-120378285D01*
X109048072Y-120206250D01*
X109048072Y-119718750D01*
X109040316Y-119640000D01*
X110421928Y-119640000D01*
X110425000Y-119841750D01*
X110583750Y-120000500D01*
X111633000Y-120000500D01*
X111633000Y-119163750D01*
X111887000Y-119163750D01*
X111887000Y-120000500D01*
X112936250Y-120000500D01*
X113030000Y-119906750D01*
X113123750Y-120000500D01*
X114173000Y-120000500D01*
X114173000Y-119163750D01*
X114427000Y-119163750D01*
X114427000Y-120000500D01*
X115476250Y-120000500D01*
X115570000Y-119906750D01*
X115663750Y-120000500D01*
X116713000Y-120000500D01*
X116713000Y-119163750D01*
X116967000Y-119163750D01*
X116967000Y-120000500D01*
X118016250Y-120000500D01*
X118110000Y-119906750D01*
X118203750Y-120000500D01*
X119253000Y-120000500D01*
X119253000Y-119163750D01*
X119094250Y-119005000D01*
X118680000Y-119001928D01*
X118555518Y-119014188D01*
X118435820Y-119050498D01*
X118325506Y-119109463D01*
X118228815Y-119188815D01*
X118149463Y-119285506D01*
X118110000Y-119359335D01*
X118070537Y-119285506D01*
X117991185Y-119188815D01*
X117894494Y-119109463D01*
X117784180Y-119050498D01*
X117664482Y-119014188D01*
X117540000Y-119001928D01*
X117125750Y-119005000D01*
X116967000Y-119163750D01*
X116713000Y-119163750D01*
X116554250Y-119005000D01*
X116140000Y-119001928D01*
X116015518Y-119014188D01*
X115895820Y-119050498D01*
X115785506Y-119109463D01*
X115688815Y-119188815D01*
X115609463Y-119285506D01*
X115570000Y-119359335D01*
X115530537Y-119285506D01*
X115451185Y-119188815D01*
X115354494Y-119109463D01*
X115244180Y-119050498D01*
X115124482Y-119014188D01*
X115000000Y-119001928D01*
X114585750Y-119005000D01*
X114427000Y-119163750D01*
X114173000Y-119163750D01*
X114014250Y-119005000D01*
X113600000Y-119001928D01*
X113475518Y-119014188D01*
X113355820Y-119050498D01*
X113245506Y-119109463D01*
X113148815Y-119188815D01*
X113069463Y-119285506D01*
X113030000Y-119359335D01*
X112990537Y-119285506D01*
X112911185Y-119188815D01*
X112814494Y-119109463D01*
X112704180Y-119050498D01*
X112584482Y-119014188D01*
X112460000Y-119001928D01*
X112045750Y-119005000D01*
X111887000Y-119163750D01*
X111633000Y-119163750D01*
X111474250Y-119005000D01*
X111060000Y-119001928D01*
X110935518Y-119014188D01*
X110815820Y-119050498D01*
X110705506Y-119109463D01*
X110608815Y-119188815D01*
X110529463Y-119285506D01*
X110470498Y-119395820D01*
X110434188Y-119515518D01*
X110421928Y-119640000D01*
X109040316Y-119640000D01*
X109031128Y-119546715D01*
X108980947Y-119381291D01*
X108899458Y-119228836D01*
X108789792Y-119095208D01*
X108783436Y-119089992D01*
X108861185Y-119026185D01*
X108940537Y-118929494D01*
X108999502Y-118819180D01*
X109035812Y-118699482D01*
X109048072Y-118575000D01*
X109045000Y-118373250D01*
X108886250Y-118214500D01*
X107837000Y-118214500D01*
X107837000Y-118234500D01*
X107583000Y-118234500D01*
X107583000Y-118214500D01*
X107563000Y-118214500D01*
X107563000Y-117960500D01*
X107583000Y-117960500D01*
X107583000Y-117123750D01*
X107837000Y-117123750D01*
X107837000Y-117960500D01*
X108886250Y-117960500D01*
X109045000Y-117801750D01*
X109048072Y-117600000D01*
X109035812Y-117475518D01*
X108999502Y-117355820D01*
X108940537Y-117245506D01*
X108861185Y-117148815D01*
X108764494Y-117069463D01*
X108654180Y-117010498D01*
X108534482Y-116974188D01*
X108410000Y-116961928D01*
X107995750Y-116965000D01*
X107837000Y-117123750D01*
X107583000Y-117123750D01*
X107424250Y-116965000D01*
X107010000Y-116961928D01*
X106885518Y-116974188D01*
X106765820Y-117010498D01*
X106655506Y-117069463D01*
X106558815Y-117148815D01*
X106479463Y-117245506D01*
X106420498Y-117355820D01*
X106384188Y-117475518D01*
X106377592Y-117542488D01*
X106346898Y-117529774D01*
X106146939Y-117490000D01*
X105943061Y-117490000D01*
X105848333Y-117508842D01*
X105739180Y-117450498D01*
X105619482Y-117414188D01*
X105495000Y-117401928D01*
X104290000Y-117401928D01*
X104290000Y-115463767D01*
X104305010Y-115435684D01*
X104427641Y-115423606D01*
X104617686Y-115365956D01*
X104792833Y-115272339D01*
X104946350Y-115146350D01*
X105072339Y-114992833D01*
X105165956Y-114817686D01*
X105223606Y-114627641D01*
X105229283Y-114569999D01*
X109311928Y-114569999D01*
X109311928Y-115395001D01*
X109328992Y-115568255D01*
X109379528Y-115734851D01*
X109461595Y-115888387D01*
X109572038Y-116022962D01*
X109706613Y-116133405D01*
X109860149Y-116215472D01*
X110026745Y-116266008D01*
X110146468Y-116277800D01*
X110129774Y-116318102D01*
X110090000Y-116518061D01*
X110090000Y-116721939D01*
X110129774Y-116921898D01*
X110207795Y-117110256D01*
X110321063Y-117279774D01*
X110465226Y-117423937D01*
X110634744Y-117537205D01*
X110823102Y-117615226D01*
X111023061Y-117655000D01*
X111226939Y-117655000D01*
X111426898Y-117615226D01*
X111615256Y-117537205D01*
X111784774Y-117423937D01*
X111928937Y-117279774D01*
X112042205Y-117110256D01*
X112120226Y-116921898D01*
X112160000Y-116721939D01*
X112160000Y-116518061D01*
X112120226Y-116318102D01*
X112103532Y-116277800D01*
X112223255Y-116266008D01*
X112389851Y-116215472D01*
X112543387Y-116133405D01*
X112677962Y-116022962D01*
X112788405Y-115888387D01*
X112870472Y-115734851D01*
X112921008Y-115568255D01*
X112938072Y-115395001D01*
X112938072Y-114569999D01*
X112921008Y-114396745D01*
X112870472Y-114230149D01*
X112788405Y-114076613D01*
X112677962Y-113942038D01*
X112543387Y-113831595D01*
X112389851Y-113749528D01*
X112223255Y-113698992D01*
X112050001Y-113681928D01*
X110199999Y-113681928D01*
X110026745Y-113698992D01*
X109860149Y-113749528D01*
X109706613Y-113831595D01*
X109572038Y-113942038D01*
X109461595Y-114076613D01*
X109379528Y-114230149D01*
X109328992Y-114396745D01*
X109311928Y-114569999D01*
X105229283Y-114569999D01*
X105243072Y-114430000D01*
X105243072Y-113680000D01*
X105223606Y-113482359D01*
X105165956Y-113292314D01*
X105072339Y-113117167D01*
X104946350Y-112963650D01*
X104792833Y-112837661D01*
X104617686Y-112744044D01*
X104427641Y-112686394D01*
X104230000Y-112666928D01*
X102780000Y-112666928D01*
X102582359Y-112686394D01*
X102392314Y-112744044D01*
X102217167Y-112837661D01*
X102063650Y-112963650D01*
X101937661Y-113117167D01*
X101844044Y-113292314D01*
X101786394Y-113482359D01*
X101766928Y-113680000D01*
X101766928Y-114430000D01*
X101770868Y-114470000D01*
X97423072Y-114470000D01*
X97423072Y-114005000D01*
X97410812Y-113880518D01*
X97374502Y-113760820D01*
X97315537Y-113650506D01*
X97236185Y-113553815D01*
X97139494Y-113474463D01*
X97029180Y-113415498D01*
X96909482Y-113379188D01*
X96785000Y-113366928D01*
X94985000Y-113366928D01*
X94860518Y-113379188D01*
X94740820Y-113415498D01*
X94630506Y-113474463D01*
X94533815Y-113553815D01*
X94454463Y-113650506D01*
X94395498Y-113760820D01*
X94359188Y-113880518D01*
X94346928Y-114005000D01*
X94346928Y-116505000D01*
X94359188Y-116629482D01*
X94395498Y-116749180D01*
X94454463Y-116859494D01*
X94533815Y-116956185D01*
X94630506Y-117035537D01*
X94740820Y-117094502D01*
X94860518Y-117130812D01*
X94985000Y-117143072D01*
X96785000Y-117143072D01*
X96909482Y-117130812D01*
X97029180Y-117094502D01*
X97139494Y-117035537D01*
X97236185Y-116956185D01*
X97315537Y-116859494D01*
X97374502Y-116749180D01*
X97410812Y-116629482D01*
X97423072Y-116505000D01*
X97423072Y-116040000D01*
X102720000Y-116040000D01*
X102720001Y-120751437D01*
X102716203Y-120790000D01*
X102731359Y-120943886D01*
X102776246Y-121091859D01*
X102777659Y-121094502D01*
X102849139Y-121228233D01*
X102869873Y-121253497D01*
X102922655Y-121317812D01*
X102922659Y-121317816D01*
X102947237Y-121347764D01*
X102977185Y-121372342D01*
X103062653Y-121457810D01*
X103087236Y-121487764D01*
X103206767Y-121585862D01*
X103339957Y-121657053D01*
X103319188Y-121725518D01*
X103306928Y-121850000D01*
X103306928Y-122550000D01*
X103319188Y-122674482D01*
X103355498Y-122794180D01*
X103359414Y-122801507D01*
X103258994Y-122901928D01*
X102928750Y-122901928D01*
X102756715Y-122918872D01*
X102591291Y-122969053D01*
X102438836Y-123050542D01*
X102305208Y-123160208D01*
X102235000Y-123245756D01*
X102164792Y-123160208D01*
X102031164Y-123050542D01*
X101878709Y-122969053D01*
X101713285Y-122918872D01*
X101541250Y-122901928D01*
X101069586Y-122901928D01*
X100683072Y-122515415D01*
X100683072Y-121850000D01*
X100670812Y-121725518D01*
X100634502Y-121605820D01*
X100612683Y-121565000D01*
X100634502Y-121524180D01*
X100670812Y-121404482D01*
X100683072Y-121280000D01*
X100683072Y-120580000D01*
X100670812Y-120455518D01*
X100634502Y-120335820D01*
X100612683Y-120295000D01*
X100634502Y-120254180D01*
X100670812Y-120134482D01*
X100683072Y-120010000D01*
X100683072Y-119310000D01*
X100670812Y-119185518D01*
X100634502Y-119065820D01*
X100612683Y-119025000D01*
X100634502Y-118984180D01*
X100670812Y-118864482D01*
X100683072Y-118740000D01*
X100683072Y-118040000D01*
X100670812Y-117915518D01*
X100634502Y-117795820D01*
X100575537Y-117685506D01*
X100496185Y-117588815D01*
X100399494Y-117509463D01*
X100289180Y-117450498D01*
X100169482Y-117414188D01*
X100045000Y-117401928D01*
X98495000Y-117401928D01*
X98370518Y-117414188D01*
X98250820Y-117450498D01*
X98140506Y-117509463D01*
X98043815Y-117588815D01*
X97964463Y-117685506D01*
X97905498Y-117795820D01*
X97869188Y-117915518D01*
X97856928Y-118040000D01*
X97856928Y-118470000D01*
X97423072Y-118470000D01*
X97423072Y-118005000D01*
X97410812Y-117880518D01*
X97374502Y-117760820D01*
X97315537Y-117650506D01*
X97236185Y-117553815D01*
X97139494Y-117474463D01*
X97029180Y-117415498D01*
X96909482Y-117379188D01*
X96785000Y-117366928D01*
X94985000Y-117366928D01*
X94860518Y-117379188D01*
X94740820Y-117415498D01*
X94630506Y-117474463D01*
X94533815Y-117553815D01*
X94454463Y-117650506D01*
X94395498Y-117760820D01*
X94359188Y-117880518D01*
X94346928Y-118005000D01*
X94346928Y-118470000D01*
X94118711Y-118470000D01*
X94004774Y-118356063D01*
X93835256Y-118242795D01*
X93646898Y-118164774D01*
X93446939Y-118125000D01*
X93243061Y-118125000D01*
X93043102Y-118164774D01*
X92854744Y-118242795D01*
X92685226Y-118356063D01*
X92541063Y-118500226D01*
X92427795Y-118669744D01*
X92349774Y-118858102D01*
X92310000Y-119058061D01*
X92310000Y-119261939D01*
X92349774Y-119461898D01*
X92427795Y-119650256D01*
X92541063Y-119819774D01*
X92685226Y-119963937D01*
X92854744Y-120077205D01*
X93043102Y-120155226D01*
X93243061Y-120195000D01*
X93446939Y-120195000D01*
X93646898Y-120155226D01*
X93835256Y-120077205D01*
X93890937Y-120040000D01*
X94346928Y-120040000D01*
X94346928Y-120505000D01*
X94359188Y-120629482D01*
X94395498Y-120749180D01*
X94454463Y-120859494D01*
X94533815Y-120956185D01*
X94630506Y-121035537D01*
X94740820Y-121094502D01*
X94860518Y-121130812D01*
X94985000Y-121143072D01*
X96785000Y-121143072D01*
X96909482Y-121130812D01*
X97029180Y-121094502D01*
X97139494Y-121035537D01*
X97236185Y-120956185D01*
X97315537Y-120859494D01*
X97374502Y-120749180D01*
X97410812Y-120629482D01*
X97423072Y-120505000D01*
X97423072Y-120040000D01*
X97859883Y-120040000D01*
X97869188Y-120134482D01*
X97905498Y-120254180D01*
X97927317Y-120295000D01*
X97905498Y-120335820D01*
X97869188Y-120455518D01*
X97856928Y-120580000D01*
X97856928Y-121280000D01*
X97869188Y-121404482D01*
X97905498Y-121524180D01*
X97927317Y-121565000D01*
X97905498Y-121605820D01*
X97869188Y-121725518D01*
X97856928Y-121850000D01*
X97856928Y-122087333D01*
X97827962Y-122052038D01*
X97693387Y-121941595D01*
X97539851Y-121859528D01*
X97373255Y-121808992D01*
X97200001Y-121791928D01*
X96374999Y-121791928D01*
X96201745Y-121808992D01*
X96035149Y-121859528D01*
X95881613Y-121941595D01*
X95747038Y-122052038D01*
X95636595Y-122186613D01*
X95554528Y-122340149D01*
X95503992Y-122506745D01*
X95486928Y-122679999D01*
X95486928Y-124530001D01*
X95503992Y-124703255D01*
X95554528Y-124869851D01*
X95636595Y-125023387D01*
X95747038Y-125157962D01*
X95881613Y-125268405D01*
X96035149Y-125350472D01*
X96201745Y-125401008D01*
X96374999Y-125418072D01*
X97200001Y-125418072D01*
X97373255Y-125401008D01*
X97539851Y-125350472D01*
X97693387Y-125268405D01*
X97827962Y-125157962D01*
X97938405Y-125023387D01*
X98020472Y-124869851D01*
X98071008Y-124703255D01*
X98088072Y-124530001D01*
X98088072Y-124490000D01*
X98103422Y-124490000D01*
X100690844Y-127077423D01*
X100659180Y-127060498D01*
X100539482Y-127024188D01*
X100415000Y-127011928D01*
X99515000Y-127011928D01*
X99390518Y-127024188D01*
X99270820Y-127060498D01*
X99160506Y-127119463D01*
X99063815Y-127198815D01*
X98984463Y-127295506D01*
X98925498Y-127405820D01*
X98889188Y-127525518D01*
X98888747Y-127530000D01*
X97833466Y-127530000D01*
X97789999Y-127525719D01*
X97746533Y-127530000D01*
X97746523Y-127530000D01*
X97616510Y-127542805D01*
X97449687Y-127593411D01*
X97295941Y-127675589D01*
X97295939Y-127675590D01*
X97295940Y-127675590D01*
X97194953Y-127758468D01*
X97194951Y-127758470D01*
X97161183Y-127786183D01*
X97133470Y-127819951D01*
X95651071Y-129302350D01*
X95347140Y-129176458D01*
X94862213Y-129080000D01*
X94367787Y-129080000D01*
X93882860Y-129176458D01*
X93426069Y-129365667D01*
X93014968Y-129640356D01*
X92665356Y-129989968D01*
X92390667Y-130401069D01*
X92201458Y-130857860D01*
X92105000Y-131342787D01*
X92105000Y-131837213D01*
X92201458Y-132322140D01*
X92390667Y-132778931D01*
X92665356Y-133190032D01*
X93014968Y-133539644D01*
X93426069Y-133814333D01*
X93882860Y-134003542D01*
X94367787Y-134100000D01*
X94862213Y-134100000D01*
X95347140Y-134003542D01*
X95803931Y-133814333D01*
X96215032Y-133539644D01*
X96564644Y-133190032D01*
X96839333Y-132778931D01*
X97028542Y-132322140D01*
X97125000Y-131837213D01*
X97125000Y-131342787D01*
X97028542Y-130857860D01*
X96902650Y-130553929D01*
X98156579Y-129300000D01*
X99556531Y-129300000D01*
X99600000Y-129304281D01*
X99643469Y-129300000D01*
X99643477Y-129300000D01*
X99773490Y-129287195D01*
X99940313Y-129236589D01*
X100094059Y-129154411D01*
X100174893Y-129088072D01*
X100415000Y-129088072D01*
X100539482Y-129075812D01*
X100659180Y-129039502D01*
X100769494Y-128980537D01*
X100866185Y-128901185D01*
X100876928Y-128888095D01*
X100876928Y-129400000D01*
X100889188Y-129524482D01*
X100925498Y-129644180D01*
X100984463Y-129754494D01*
X101063815Y-129851185D01*
X101092501Y-129874727D01*
X101092501Y-130060487D01*
X100987038Y-130147038D01*
X100965000Y-130173891D01*
X100942962Y-130147038D01*
X100808387Y-130036595D01*
X100654851Y-129954528D01*
X100488255Y-129903992D01*
X100315001Y-129886928D01*
X99789999Y-129886928D01*
X99616745Y-129903992D01*
X99450149Y-129954528D01*
X99296613Y-130036595D01*
X99162038Y-130147038D01*
X99051595Y-130281613D01*
X99005404Y-130368030D01*
X98915256Y-130307795D01*
X98726898Y-130229774D01*
X98526939Y-130190000D01*
X98323061Y-130190000D01*
X98123102Y-130229774D01*
X97934744Y-130307795D01*
X97765226Y-130421063D01*
X97621063Y-130565226D01*
X97507795Y-130734744D01*
X97429774Y-130923102D01*
X97390000Y-131123061D01*
X97390000Y-131326939D01*
X97429774Y-131526898D01*
X97507795Y-131715256D01*
X97621063Y-131884774D01*
X97765226Y-132028937D01*
X97934744Y-132142205D01*
X98123102Y-132220226D01*
X98323061Y-132260000D01*
X98526939Y-132260000D01*
X98726898Y-132220226D01*
X98915256Y-132142205D01*
X99005404Y-132081970D01*
X99051595Y-132168387D01*
X99162038Y-132302962D01*
X99296613Y-132413405D01*
X99450149Y-132495472D01*
X99616745Y-132546008D01*
X99789999Y-132563072D01*
X100315001Y-132563072D01*
X100488255Y-132546008D01*
X100654851Y-132495472D01*
X100808387Y-132413405D01*
X100942962Y-132302962D01*
X100965000Y-132276109D01*
X100987038Y-132302962D01*
X101121613Y-132413405D01*
X101275149Y-132495472D01*
X101441745Y-132546008D01*
X101614999Y-132563072D01*
X102140001Y-132563072D01*
X102313255Y-132546008D01*
X102479851Y-132495472D01*
X102633387Y-132413405D01*
X102767962Y-132302962D01*
X102878405Y-132168387D01*
X102960472Y-132014851D01*
X103011008Y-131848255D01*
X103028072Y-131675001D01*
X103028072Y-130774999D01*
X103011008Y-130601745D01*
X103005928Y-130585000D01*
X103302379Y-130585000D01*
X103335498Y-130694180D01*
X103394463Y-130804494D01*
X103473815Y-130901185D01*
X103570506Y-130980537D01*
X103680820Y-131039502D01*
X103800518Y-131075812D01*
X103925000Y-131088072D01*
X104497129Y-131088072D01*
X100350556Y-135234645D01*
X100323285Y-135226372D01*
X100151250Y-135209428D01*
X99238750Y-135209428D01*
X99066715Y-135226372D01*
X98901291Y-135276553D01*
X98748836Y-135358042D01*
X98615208Y-135467708D01*
X98505542Y-135601336D01*
X98424053Y-135753791D01*
X98373872Y-135919215D01*
X98356928Y-136091250D01*
X98356928Y-136578750D01*
X98373872Y-136750785D01*
X98424053Y-136916209D01*
X98505542Y-137068664D01*
X98615208Y-137202292D01*
X98700756Y-137272500D01*
X98615208Y-137342708D01*
X98505542Y-137476336D01*
X98424053Y-137628791D01*
X98373872Y-137794215D01*
X98356928Y-137966250D01*
X98356928Y-138296493D01*
X95924951Y-140728471D01*
X95891184Y-140756183D01*
X95863471Y-140789951D01*
X95863468Y-140789954D01*
X95780590Y-140890941D01*
X95698412Y-141044687D01*
X95647805Y-141211510D01*
X95630719Y-141385000D01*
X95635001Y-141428479D01*
X95635001Y-142560837D01*
X95454208Y-142709208D01*
X95266762Y-142937613D01*
X95127476Y-143198198D01*
X95041705Y-143480949D01*
X95020000Y-143701320D01*
X95020000Y-144148679D01*
X95041705Y-144369050D01*
X95127476Y-144651801D01*
X95266762Y-144912386D01*
X95454208Y-145140792D01*
X95682613Y-145328238D01*
X95943198Y-145467524D01*
X96225949Y-145553295D01*
X96520000Y-145582257D01*
X96814050Y-145553295D01*
X97096801Y-145467524D01*
X97357386Y-145328238D01*
X97585792Y-145140792D01*
X97773238Y-144912387D01*
X97790000Y-144881027D01*
X97806762Y-144912386D01*
X97994208Y-145140792D01*
X98177742Y-145291414D01*
X98139550Y-145329606D01*
X98009866Y-145523692D01*
X97920539Y-145739348D01*
X97875000Y-145968288D01*
X97875000Y-146201712D01*
X97920539Y-146430652D01*
X98009866Y-146646308D01*
X98139550Y-146840394D01*
X98304606Y-147005450D01*
X98498692Y-147135134D01*
X98714348Y-147224461D01*
X98943288Y-147270000D01*
X99176712Y-147270000D01*
X99405652Y-147224461D01*
X99621308Y-147135134D01*
X99815394Y-147005450D01*
X99980450Y-146840394D01*
X100110134Y-146646308D01*
X100199461Y-146430652D01*
X100215000Y-146352532D01*
X100215000Y-146371970D01*
X100208300Y-146440000D01*
X100215000Y-146508029D01*
X100215000Y-146508036D01*
X100229677Y-146657056D01*
X100235040Y-146711507D01*
X100288952Y-146889230D01*
X100314236Y-146972580D01*
X100434103Y-147196834D01*
X100442844Y-147213188D01*
X100563330Y-147360000D01*
X100615919Y-147424080D01*
X100668765Y-147467450D01*
X101466314Y-148265000D01*
X86412279Y-148265000D01*
X86120340Y-148236375D01*
X85870571Y-148160965D01*
X85640206Y-148038477D01*
X85438021Y-147873579D01*
X85271712Y-147672546D01*
X85147622Y-147443046D01*
X85070469Y-147193805D01*
X85040000Y-146903911D01*
X85040000Y-143547285D01*
X85545000Y-143547285D01*
X85545000Y-144302715D01*
X85692377Y-145043628D01*
X85981467Y-145741554D01*
X86401161Y-146369670D01*
X86935330Y-146903839D01*
X87563446Y-147323533D01*
X88261372Y-147612623D01*
X89002285Y-147760000D01*
X89757715Y-147760000D01*
X90498628Y-147612623D01*
X91196554Y-147323533D01*
X91824670Y-146903839D01*
X92358839Y-146369670D01*
X92778533Y-145741554D01*
X93067623Y-145043628D01*
X93215000Y-144302715D01*
X93215000Y-143547285D01*
X93067623Y-142806372D01*
X92778533Y-142108446D01*
X92358839Y-141480330D01*
X91824670Y-140946161D01*
X91196554Y-140526467D01*
X90498628Y-140237377D01*
X89757715Y-140090000D01*
X89002285Y-140090000D01*
X88261372Y-140237377D01*
X87563446Y-140526467D01*
X86935330Y-140946161D01*
X86401161Y-141480330D01*
X85981467Y-142108446D01*
X85692377Y-142806372D01*
X85545000Y-143547285D01*
X85040000Y-143547285D01*
X85040000Y-136042787D01*
X89105000Y-136042787D01*
X89105000Y-136537213D01*
X89201458Y-137022140D01*
X89390667Y-137478931D01*
X89665356Y-137890032D01*
X90014968Y-138239644D01*
X90426069Y-138514333D01*
X90882860Y-138703542D01*
X91367787Y-138800000D01*
X91862213Y-138800000D01*
X92347140Y-138703542D01*
X92803931Y-138514333D01*
X93215032Y-138239644D01*
X93564644Y-137890032D01*
X93839333Y-137478931D01*
X94028542Y-137022140D01*
X94125000Y-136537213D01*
X94125000Y-136042787D01*
X94028542Y-135557860D01*
X93839333Y-135101069D01*
X93564644Y-134689968D01*
X93215032Y-134340356D01*
X92803931Y-134065667D01*
X92347140Y-133876458D01*
X91862213Y-133780000D01*
X91367787Y-133780000D01*
X90882860Y-133876458D01*
X90426069Y-134065667D01*
X90014968Y-134340356D01*
X89665356Y-134689968D01*
X89390667Y-135101069D01*
X89201458Y-135557860D01*
X89105000Y-136042787D01*
X85040000Y-136042787D01*
X85040000Y-131330475D01*
X85980000Y-131330475D01*
X85980000Y-131849525D01*
X86081261Y-132358601D01*
X86279893Y-132838141D01*
X86568262Y-133269715D01*
X86935285Y-133636738D01*
X87366859Y-133925107D01*
X87846399Y-134123739D01*
X88355475Y-134225000D01*
X88874525Y-134225000D01*
X89383601Y-134123739D01*
X89863141Y-133925107D01*
X90294715Y-133636738D01*
X90661738Y-133269715D01*
X90950107Y-132838141D01*
X91148739Y-132358601D01*
X91250000Y-131849525D01*
X91250000Y-131330475D01*
X91148739Y-130821399D01*
X90950107Y-130341859D01*
X90661738Y-129910285D01*
X90294715Y-129543262D01*
X89863141Y-129254893D01*
X89383601Y-129056261D01*
X88874525Y-128955000D01*
X88355475Y-128955000D01*
X87846399Y-129056261D01*
X87366859Y-129254893D01*
X86935285Y-129543262D01*
X86568262Y-129910285D01*
X86279893Y-130341859D01*
X86081261Y-130821399D01*
X85980000Y-131330475D01*
X85040000Y-131330475D01*
X85040000Y-123503061D01*
X90405000Y-123503061D01*
X90405000Y-123706939D01*
X90444774Y-123906898D01*
X90522795Y-124095256D01*
X90636063Y-124264774D01*
X90780226Y-124408937D01*
X90949744Y-124522205D01*
X91138102Y-124600226D01*
X91338061Y-124640000D01*
X91541939Y-124640000D01*
X91741898Y-124600226D01*
X91930256Y-124522205D01*
X91978454Y-124490000D01*
X92411928Y-124490000D01*
X92411928Y-124530001D01*
X92428992Y-124703255D01*
X92479528Y-124869851D01*
X92561595Y-125023387D01*
X92672038Y-125157962D01*
X92806613Y-125268405D01*
X92960149Y-125350472D01*
X93126745Y-125401008D01*
X93299999Y-125418072D01*
X94125001Y-125418072D01*
X94298255Y-125401008D01*
X94464851Y-125350472D01*
X94618387Y-125268405D01*
X94752962Y-125157962D01*
X94863405Y-125023387D01*
X94945472Y-124869851D01*
X94996008Y-124703255D01*
X95013072Y-124530001D01*
X95013072Y-122679999D01*
X94996008Y-122506745D01*
X94945472Y-122340149D01*
X94863405Y-122186613D01*
X94752962Y-122052038D01*
X94618387Y-121941595D01*
X94464851Y-121859528D01*
X94298255Y-121808992D01*
X94125001Y-121791928D01*
X93299999Y-121791928D01*
X93126745Y-121808992D01*
X92960149Y-121859528D01*
X92806613Y-121941595D01*
X92672038Y-122052038D01*
X92561595Y-122186613D01*
X92479528Y-122340149D01*
X92428992Y-122506745D01*
X92411928Y-122679999D01*
X92411928Y-122720000D01*
X91978454Y-122720000D01*
X91930256Y-122687795D01*
X91741898Y-122609774D01*
X91541939Y-122570000D01*
X91338061Y-122570000D01*
X91138102Y-122609774D01*
X90949744Y-122687795D01*
X90780226Y-122801063D01*
X90636063Y-122945226D01*
X90522795Y-123114744D01*
X90444774Y-123303102D01*
X90405000Y-123503061D01*
X85040000Y-123503061D01*
X85040000Y-112570000D01*
X109311928Y-112570000D01*
X109324188Y-112694482D01*
X109360498Y-112814180D01*
X109419463Y-112924494D01*
X109498815Y-113021185D01*
X109595506Y-113100537D01*
X109705820Y-113159502D01*
X109825518Y-113195812D01*
X109950000Y-113208072D01*
X110839250Y-113205000D01*
X110998000Y-113046250D01*
X110998000Y-112034500D01*
X111252000Y-112034500D01*
X111252000Y-113046250D01*
X111410750Y-113205000D01*
X112300000Y-113208072D01*
X112424482Y-113195812D01*
X112544180Y-113159502D01*
X112654494Y-113100537D01*
X112751185Y-113021185D01*
X112830537Y-112924494D01*
X112889502Y-112814180D01*
X112925812Y-112694482D01*
X112938072Y-112570000D01*
X112935000Y-112193250D01*
X112776250Y-112034500D01*
X111252000Y-112034500D01*
X110998000Y-112034500D01*
X109473750Y-112034500D01*
X109315000Y-112193250D01*
X109311928Y-112570000D01*
X85040000Y-112570000D01*
X85040000Y-111245000D01*
X109311928Y-111245000D01*
X109315000Y-111621750D01*
X109473750Y-111780500D01*
X110998000Y-111780500D01*
X110998000Y-110768750D01*
X111252000Y-110768750D01*
X111252000Y-111780500D01*
X112776250Y-111780500D01*
X112935000Y-111621750D01*
X112938072Y-111245000D01*
X112925812Y-111120518D01*
X112889502Y-111000820D01*
X112830537Y-110890506D01*
X112751185Y-110793815D01*
X112654494Y-110714463D01*
X112544180Y-110655498D01*
X112424482Y-110619188D01*
X112300000Y-110606928D01*
X111410750Y-110610000D01*
X111252000Y-110768750D01*
X110998000Y-110768750D01*
X110839250Y-110610000D01*
X109950000Y-110606928D01*
X109825518Y-110619188D01*
X109705820Y-110655498D01*
X109595506Y-110714463D01*
X109498815Y-110793815D01*
X109419463Y-110890506D01*
X109360498Y-111000820D01*
X109324188Y-111120518D01*
X109311928Y-111245000D01*
X85040000Y-111245000D01*
X85040000Y-108505000D01*
X101766928Y-108505000D01*
X101779188Y-108629482D01*
X101815498Y-108749180D01*
X101874463Y-108859494D01*
X101953815Y-108956185D01*
X102050506Y-109035537D01*
X102160820Y-109094502D01*
X102280518Y-109130812D01*
X102405000Y-109143072D01*
X103219250Y-109140000D01*
X103378000Y-108981250D01*
X103378000Y-107882000D01*
X103632000Y-107882000D01*
X103632000Y-108981250D01*
X103790750Y-109140000D01*
X104605000Y-109143072D01*
X104729482Y-109130812D01*
X104849180Y-109094502D01*
X104959494Y-109035537D01*
X105056185Y-108956185D01*
X105135537Y-108859494D01*
X105194502Y-108749180D01*
X105230812Y-108629482D01*
X105243072Y-108505000D01*
X105240000Y-108040750D01*
X105081250Y-107882000D01*
X103632000Y-107882000D01*
X103378000Y-107882000D01*
X101928750Y-107882000D01*
X101770000Y-108040750D01*
X101766928Y-108505000D01*
X85040000Y-108505000D01*
X85040000Y-103547285D01*
X85545000Y-103547285D01*
X85545000Y-104302715D01*
X85692377Y-105043628D01*
X85981467Y-105741554D01*
X86401161Y-106369670D01*
X86935330Y-106903839D01*
X87563446Y-107323533D01*
X88261372Y-107612623D01*
X89002285Y-107760000D01*
X89757715Y-107760000D01*
X90498628Y-107612623D01*
X91196554Y-107323533D01*
X91673271Y-107005000D01*
X101766928Y-107005000D01*
X101770000Y-107469250D01*
X101928750Y-107628000D01*
X103378000Y-107628000D01*
X103378000Y-106528750D01*
X103632000Y-106528750D01*
X103632000Y-107628000D01*
X105081250Y-107628000D01*
X105240000Y-107469250D01*
X105243072Y-107005000D01*
X105230812Y-106880518D01*
X105194502Y-106760820D01*
X105135537Y-106650506D01*
X105056185Y-106553815D01*
X104959494Y-106474463D01*
X104849180Y-106415498D01*
X104729482Y-106379188D01*
X104605000Y-106366928D01*
X103790750Y-106370000D01*
X103632000Y-106528750D01*
X103378000Y-106528750D01*
X103219250Y-106370000D01*
X102405000Y-106366928D01*
X102280518Y-106379188D01*
X102160820Y-106415498D01*
X102050506Y-106474463D01*
X101953815Y-106553815D01*
X101874463Y-106650506D01*
X101815498Y-106760820D01*
X101779188Y-106880518D01*
X101766928Y-107005000D01*
X91673271Y-107005000D01*
X91824670Y-106903839D01*
X92358839Y-106369670D01*
X92778533Y-105741554D01*
X93067623Y-105043628D01*
X93215000Y-104302715D01*
X93215000Y-103547285D01*
X93067623Y-102806372D01*
X92790940Y-102138397D01*
X96941208Y-102138397D01*
X97018843Y-102387472D01*
X97282883Y-102513371D01*
X97566411Y-102585339D01*
X97858531Y-102600611D01*
X98148019Y-102558599D01*
X98423747Y-102460919D01*
X98561157Y-102387472D01*
X98638792Y-102138397D01*
X97790000Y-101289605D01*
X96941208Y-102138397D01*
X92790940Y-102138397D01*
X92778533Y-102108446D01*
X92358839Y-101480330D01*
X92057040Y-101178531D01*
X96299389Y-101178531D01*
X96341401Y-101468019D01*
X96439081Y-101743747D01*
X96512528Y-101881157D01*
X96761603Y-101958792D01*
X97610395Y-101110000D01*
X97969605Y-101110000D01*
X98818397Y-101958792D01*
X99060689Y-101883271D01*
X99176525Y-102056632D01*
X99383368Y-102263475D01*
X99626589Y-102425990D01*
X99896842Y-102537932D01*
X100183740Y-102595000D01*
X100476260Y-102595000D01*
X100548961Y-102580539D01*
X102483470Y-104515049D01*
X102511183Y-104548817D01*
X102544951Y-104576530D01*
X102544953Y-104576532D01*
X102568905Y-104596189D01*
X102645941Y-104659411D01*
X102799687Y-104741589D01*
X102966510Y-104792195D01*
X103096523Y-104805000D01*
X103096533Y-104805000D01*
X103139999Y-104809281D01*
X103183465Y-104805000D01*
X104549843Y-104805000D01*
X106166973Y-106422131D01*
X106191551Y-106452079D01*
X106221499Y-106476657D01*
X106221502Y-106476660D01*
X106224277Y-106478937D01*
X106311082Y-106550177D01*
X106447455Y-106623069D01*
X106595428Y-106667956D01*
X106710754Y-106679315D01*
X106710761Y-106679315D01*
X106749314Y-106683112D01*
X106787867Y-106679315D01*
X109880604Y-106679315D01*
X109899541Y-106698252D01*
X110069059Y-106811520D01*
X110257417Y-106889541D01*
X110457376Y-106929315D01*
X110661254Y-106929315D01*
X110861213Y-106889541D01*
X111049571Y-106811520D01*
X111219089Y-106698252D01*
X111270836Y-106646505D01*
X111328102Y-106670226D01*
X111528061Y-106710000D01*
X111731939Y-106710000D01*
X111931898Y-106670226D01*
X112120256Y-106592205D01*
X112289774Y-106478937D01*
X112433937Y-106334774D01*
X112547205Y-106165256D01*
X112625226Y-105976898D01*
X112665000Y-105776939D01*
X112665000Y-105573061D01*
X112625226Y-105373102D01*
X112547205Y-105184744D01*
X112433937Y-105015226D01*
X112289774Y-104871063D01*
X112120256Y-104757795D01*
X111931898Y-104679774D01*
X111731939Y-104640000D01*
X111669802Y-104640000D01*
X110943804Y-103914003D01*
X110920001Y-103884999D01*
X110804276Y-103790026D01*
X110672247Y-103719454D01*
X110528986Y-103675997D01*
X110417333Y-103665000D01*
X110417322Y-103665000D01*
X110380000Y-103661324D01*
X110342678Y-103665000D01*
X106499802Y-103665000D01*
X105432874Y-102598072D01*
X106260000Y-102598072D01*
X106384482Y-102585812D01*
X106504180Y-102549502D01*
X106614494Y-102490537D01*
X106711185Y-102411185D01*
X106790537Y-102314494D01*
X106849502Y-102204180D01*
X106873966Y-102123534D01*
X106949731Y-102207588D01*
X107183080Y-102381641D01*
X107445901Y-102506825D01*
X107593110Y-102551476D01*
X107823000Y-102430155D01*
X107823000Y-101237000D01*
X107803000Y-101237000D01*
X107803000Y-100983000D01*
X107823000Y-100983000D01*
X107823000Y-99789845D01*
X108077000Y-99789845D01*
X108077000Y-100983000D01*
X108097000Y-100983000D01*
X108097000Y-101237000D01*
X108077000Y-101237000D01*
X108077000Y-102430155D01*
X108306890Y-102551476D01*
X108454099Y-102506825D01*
X108716920Y-102381641D01*
X108950269Y-102207588D01*
X109026034Y-102123534D01*
X109050498Y-102204180D01*
X109109463Y-102314494D01*
X109188815Y-102411185D01*
X109285506Y-102490537D01*
X109395820Y-102549502D01*
X109515518Y-102585812D01*
X109640000Y-102598072D01*
X111340000Y-102598072D01*
X111464482Y-102585812D01*
X111584180Y-102549502D01*
X111694494Y-102490537D01*
X111791185Y-102411185D01*
X111870537Y-102314494D01*
X111929502Y-102204180D01*
X111951513Y-102131620D01*
X112083368Y-102263475D01*
X112326589Y-102425990D01*
X112596842Y-102537932D01*
X112883740Y-102595000D01*
X113176260Y-102595000D01*
X113463158Y-102537932D01*
X113733411Y-102425990D01*
X113976632Y-102263475D01*
X114183475Y-102056632D01*
X114300000Y-101882240D01*
X114416525Y-102056632D01*
X114623368Y-102263475D01*
X114866589Y-102425990D01*
X115136842Y-102537932D01*
X115423740Y-102595000D01*
X115716260Y-102595000D01*
X116003158Y-102537932D01*
X116273411Y-102425990D01*
X116516632Y-102263475D01*
X116723475Y-102056632D01*
X116840000Y-101882240D01*
X116956525Y-102056632D01*
X117163368Y-102263475D01*
X117406589Y-102425990D01*
X117676842Y-102537932D01*
X117963740Y-102595000D01*
X118256260Y-102595000D01*
X118543158Y-102537932D01*
X118813411Y-102425990D01*
X119056632Y-102263475D01*
X119263475Y-102056632D01*
X119380000Y-101882240D01*
X119496525Y-102056632D01*
X119703368Y-102263475D01*
X119946589Y-102425990D01*
X120216842Y-102537932D01*
X120503740Y-102595000D01*
X120796260Y-102595000D01*
X121083158Y-102537932D01*
X121353411Y-102425990D01*
X121596632Y-102263475D01*
X121803475Y-102056632D01*
X121965990Y-101813411D01*
X122077932Y-101543158D01*
X122135000Y-101256260D01*
X122135000Y-100963740D01*
X122077932Y-100676842D01*
X121965990Y-100406589D01*
X121803475Y-100163368D01*
X121596632Y-99956525D01*
X121353411Y-99794010D01*
X121083158Y-99682068D01*
X120796260Y-99625000D01*
X120503740Y-99625000D01*
X120216842Y-99682068D01*
X119946589Y-99794010D01*
X119703368Y-99956525D01*
X119496525Y-100163368D01*
X119380000Y-100337760D01*
X119263475Y-100163368D01*
X119056632Y-99956525D01*
X118813411Y-99794010D01*
X118543158Y-99682068D01*
X118256260Y-99625000D01*
X117963740Y-99625000D01*
X117676842Y-99682068D01*
X117406589Y-99794010D01*
X117163368Y-99956525D01*
X116956525Y-100163368D01*
X116840000Y-100337760D01*
X116723475Y-100163368D01*
X116516632Y-99956525D01*
X116273411Y-99794010D01*
X116003158Y-99682068D01*
X115716260Y-99625000D01*
X115423740Y-99625000D01*
X115136842Y-99682068D01*
X114866589Y-99794010D01*
X114623368Y-99956525D01*
X114416525Y-100163368D01*
X114300000Y-100337760D01*
X114183475Y-100163368D01*
X113976632Y-99956525D01*
X113733411Y-99794010D01*
X113463158Y-99682068D01*
X113176260Y-99625000D01*
X112883740Y-99625000D01*
X112596842Y-99682068D01*
X112326589Y-99794010D01*
X112083368Y-99956525D01*
X111951513Y-100088380D01*
X111929502Y-100015820D01*
X111870537Y-99905506D01*
X111791185Y-99808815D01*
X111694494Y-99729463D01*
X111584180Y-99670498D01*
X111464482Y-99634188D01*
X111340000Y-99621928D01*
X109640000Y-99621928D01*
X109515518Y-99634188D01*
X109395820Y-99670498D01*
X109285506Y-99729463D01*
X109188815Y-99808815D01*
X109109463Y-99905506D01*
X109050498Y-100015820D01*
X109026034Y-100096466D01*
X108950269Y-100012412D01*
X108716920Y-99838359D01*
X108454099Y-99713175D01*
X108306890Y-99668524D01*
X108077000Y-99789845D01*
X107823000Y-99789845D01*
X107593110Y-99668524D01*
X107445901Y-99713175D01*
X107183080Y-99838359D01*
X106949731Y-100012412D01*
X106873966Y-100096466D01*
X106849502Y-100015820D01*
X106790537Y-99905506D01*
X106711185Y-99808815D01*
X106614494Y-99729463D01*
X106504180Y-99670498D01*
X106384482Y-99634188D01*
X106260000Y-99621928D01*
X104560000Y-99621928D01*
X104435518Y-99634188D01*
X104315820Y-99670498D01*
X104205506Y-99729463D01*
X104108815Y-99808815D01*
X104029463Y-99905506D01*
X103970498Y-100015820D01*
X103948487Y-100088380D01*
X103816632Y-99956525D01*
X103573411Y-99794010D01*
X103303158Y-99682068D01*
X103016260Y-99625000D01*
X102723740Y-99625000D01*
X102436842Y-99682068D01*
X102166589Y-99794010D01*
X101923368Y-99956525D01*
X101716525Y-100163368D01*
X101600000Y-100337760D01*
X101483475Y-100163368D01*
X101276632Y-99956525D01*
X101033411Y-99794010D01*
X100763158Y-99682068D01*
X100476260Y-99625000D01*
X100183740Y-99625000D01*
X99896842Y-99682068D01*
X99626589Y-99794010D01*
X99383368Y-99956525D01*
X99176525Y-100163368D01*
X99060689Y-100336729D01*
X98818397Y-100261208D01*
X97969605Y-101110000D01*
X97610395Y-101110000D01*
X96761603Y-100261208D01*
X96512528Y-100338843D01*
X96386629Y-100602883D01*
X96314661Y-100886411D01*
X96299389Y-101178531D01*
X92057040Y-101178531D01*
X91824670Y-100946161D01*
X91196554Y-100526467D01*
X90498628Y-100237377D01*
X89757715Y-100090000D01*
X89002285Y-100090000D01*
X88261372Y-100237377D01*
X87563446Y-100526467D01*
X86935330Y-100946161D01*
X86401161Y-101480330D01*
X85981467Y-102108446D01*
X85692377Y-102806372D01*
X85545000Y-103547285D01*
X85040000Y-103547285D01*
X85040000Y-100957279D01*
X85068625Y-100665341D01*
X85144035Y-100415571D01*
X85266522Y-100185208D01*
X85351019Y-100081603D01*
X96941208Y-100081603D01*
X97790000Y-100930395D01*
X98638792Y-100081603D01*
X98561157Y-99832528D01*
X98297117Y-99706629D01*
X98013589Y-99634661D01*
X97721469Y-99619389D01*
X97431981Y-99661401D01*
X97156253Y-99759081D01*
X97018843Y-99832528D01*
X96941208Y-100081603D01*
X85351019Y-100081603D01*
X85431422Y-99983020D01*
X85632450Y-99816714D01*
X85861954Y-99692622D01*
X86111195Y-99615469D01*
X86401088Y-99585000D01*
X121847721Y-99585000D01*
X122139659Y-99613625D01*
%TA.AperFunction,Conductor*%
D32*
G36*
X122139659Y-99613625D02*
G01*
X122389429Y-99689035D01*
X122619792Y-99811522D01*
X122821980Y-99976422D01*
X122988286Y-100177450D01*
X123112378Y-100406954D01*
X123189531Y-100656195D01*
X123220001Y-100946098D01*
X123220000Y-103457418D01*
X123222852Y-103486372D01*
X123222765Y-103498781D01*
X123223665Y-103507952D01*
X123264466Y-103896145D01*
X123276487Y-103954708D01*
X123287702Y-104013501D01*
X123290366Y-104022323D01*
X123405790Y-104395198D01*
X123428975Y-104450353D01*
X123451379Y-104505806D01*
X123455706Y-104513943D01*
X123641357Y-104857298D01*
X123674780Y-104906849D01*
X123707562Y-104956946D01*
X123713387Y-104964087D01*
X123962194Y-105264841D01*
X124004629Y-105306981D01*
X124046492Y-105349730D01*
X124053592Y-105355604D01*
X124356077Y-105602305D01*
X124405904Y-105635409D01*
X124455259Y-105669204D01*
X124463365Y-105673587D01*
X124808007Y-105856837D01*
X124863311Y-105879631D01*
X124918295Y-105903198D01*
X124927098Y-105905923D01*
X125300770Y-106018741D01*
X125359458Y-106030361D01*
X125417961Y-106042797D01*
X125427126Y-106043760D01*
X125815595Y-106081850D01*
X125815598Y-106081850D01*
X125847581Y-106085000D01*
X141912419Y-106085000D01*
X141941373Y-106082148D01*
X141953781Y-106082235D01*
X141962952Y-106081335D01*
X142351145Y-106040534D01*
X142409708Y-106028513D01*
X142468501Y-106017298D01*
X142477323Y-106014634D01*
X142850198Y-105899210D01*
X142905353Y-105876025D01*
X142960806Y-105853621D01*
X142968943Y-105849294D01*
X143312298Y-105663643D01*
X143361849Y-105630220D01*
X143411946Y-105597438D01*
X143419087Y-105591613D01*
X143719841Y-105342806D01*
X143761981Y-105300371D01*
X143804730Y-105258508D01*
X143810604Y-105251408D01*
X144057305Y-104948923D01*
X144090414Y-104899089D01*
X144124204Y-104849741D01*
X144128587Y-104841635D01*
X144311837Y-104496993D01*
X144334631Y-104441689D01*
X144358198Y-104386705D01*
X144360923Y-104377902D01*
X144473741Y-104004230D01*
X144485361Y-103945542D01*
X144497797Y-103887039D01*
X144498760Y-103877874D01*
X144531174Y-103547285D01*
X145545000Y-103547285D01*
X145545000Y-104302715D01*
X145692377Y-105043628D01*
X145981467Y-105741554D01*
X146401161Y-106369670D01*
X146935330Y-106903839D01*
X147563446Y-107323533D01*
X148261372Y-107612623D01*
X149002285Y-107760000D01*
X149757715Y-107760000D01*
X150498628Y-107612623D01*
X151196554Y-107323533D01*
X151824670Y-106903839D01*
X152358839Y-106369670D01*
X152778533Y-105741554D01*
X153067623Y-105043628D01*
X153215000Y-104302715D01*
X153215000Y-103547285D01*
X153067623Y-102806372D01*
X152778533Y-102108446D01*
X152358839Y-101480330D01*
X151824670Y-100946161D01*
X151196554Y-100526467D01*
X150498628Y-100237377D01*
X149757715Y-100090000D01*
X149002285Y-100090000D01*
X148261372Y-100237377D01*
X147563446Y-100526467D01*
X146935330Y-100946161D01*
X146401161Y-101480330D01*
X145981467Y-102108446D01*
X145692377Y-102806372D01*
X145545000Y-103547285D01*
X144531174Y-103547285D01*
X144536850Y-103489405D01*
X144536850Y-103489402D01*
X144540000Y-103457419D01*
X144540000Y-100957279D01*
X144568625Y-100665341D01*
X144644035Y-100415571D01*
X144766522Y-100185208D01*
X144931422Y-99983020D01*
X145132450Y-99816714D01*
X145361954Y-99692622D01*
X145611195Y-99615469D01*
X145901088Y-99585000D01*
X152347721Y-99585000D01*
X152639659Y-99613625D01*
X152889429Y-99689035D01*
X153119792Y-99811522D01*
X153321980Y-99976422D01*
X153488286Y-100177450D01*
X153612378Y-100406954D01*
X153689531Y-100656195D01*
X153720001Y-100946098D01*
X153720000Y-146892721D01*
X153691375Y-147184660D01*
X153615965Y-147434429D01*
X153493477Y-147664794D01*
X153328579Y-147866979D01*
X153127546Y-148033288D01*
X152898046Y-148157378D01*
X152648805Y-148234531D01*
X152358911Y-148265000D01*
X139998685Y-148265000D01*
X140631236Y-147632450D01*
X140684081Y-147589081D01*
X140730991Y-147531922D01*
X140857157Y-147378188D01*
X140985764Y-147137581D01*
X141064960Y-146876507D01*
X141069689Y-146828493D01*
X141085000Y-146673037D01*
X141085000Y-146673029D01*
X141091700Y-146605000D01*
X141085000Y-146536971D01*
X141085000Y-145505010D01*
X141130820Y-145529502D01*
X141250518Y-145565812D01*
X141375000Y-145578072D01*
X143105000Y-145578072D01*
X143229482Y-145565812D01*
X143349180Y-145529502D01*
X143459494Y-145470537D01*
X143556185Y-145391185D01*
X143635537Y-145294494D01*
X143694502Y-145184180D01*
X143730812Y-145064482D01*
X143743072Y-144940000D01*
X143743072Y-143547285D01*
X145545000Y-143547285D01*
X145545000Y-144302715D01*
X145692377Y-145043628D01*
X145981467Y-145741554D01*
X146401161Y-146369670D01*
X146935330Y-146903839D01*
X147563446Y-147323533D01*
X148261372Y-147612623D01*
X149002285Y-147760000D01*
X149757715Y-147760000D01*
X150498628Y-147612623D01*
X151196554Y-147323533D01*
X151824670Y-146903839D01*
X152358839Y-146369670D01*
X152778533Y-145741554D01*
X153067623Y-145043628D01*
X153215000Y-144302715D01*
X153215000Y-143547285D01*
X153067623Y-142806372D01*
X152778533Y-142108446D01*
X152358839Y-141480330D01*
X151824670Y-140946161D01*
X151196554Y-140526467D01*
X150498628Y-140237377D01*
X149757715Y-140090000D01*
X149002285Y-140090000D01*
X148261372Y-140237377D01*
X147563446Y-140526467D01*
X146935330Y-140946161D01*
X146401161Y-141480330D01*
X145981467Y-142108446D01*
X145692377Y-142806372D01*
X145545000Y-143547285D01*
X143743072Y-143547285D01*
X143743072Y-142910000D01*
X143730812Y-142785518D01*
X143694502Y-142665820D01*
X143635537Y-142555506D01*
X143556185Y-142458815D01*
X143459494Y-142379463D01*
X143349180Y-142320498D01*
X143229482Y-142284188D01*
X143105000Y-142271928D01*
X141375000Y-142271928D01*
X141250518Y-142284188D01*
X141130820Y-142320498D01*
X141020506Y-142379463D01*
X140923815Y-142458815D01*
X140844463Y-142555506D01*
X140785498Y-142665820D01*
X140770570Y-142715030D01*
X140765792Y-142709208D01*
X140537387Y-142521762D01*
X140276802Y-142382476D01*
X139994051Y-142296705D01*
X139700000Y-142267743D01*
X139405950Y-142296705D01*
X139123199Y-142382476D01*
X138862614Y-142521762D01*
X138634208Y-142709208D01*
X138446762Y-142937613D01*
X138430000Y-142968972D01*
X138413238Y-142937613D01*
X138225792Y-142709208D01*
X138045000Y-142560837D01*
X138045000Y-141116578D01*
X138280044Y-140881534D01*
X138313817Y-140853817D01*
X138424411Y-140719059D01*
X138506589Y-140565313D01*
X138557195Y-140398490D01*
X138570000Y-140268477D01*
X138570000Y-140268467D01*
X138574281Y-140225001D01*
X138570000Y-140181535D01*
X138570000Y-135048454D01*
X138602205Y-135000256D01*
X138680226Y-134811898D01*
X138720000Y-134611939D01*
X138720000Y-134408061D01*
X138680226Y-134208102D01*
X138602205Y-134019744D01*
X138570000Y-133971546D01*
X138570000Y-133365000D01*
X139215790Y-133365000D01*
X139253112Y-133368676D01*
X139290434Y-133365000D01*
X139290445Y-133365000D01*
X139402098Y-133354003D01*
X139545359Y-133310546D01*
X139677388Y-133239974D01*
X139793113Y-133145001D01*
X139816916Y-133115998D01*
X140671525Y-132261389D01*
X140720313Y-132246589D01*
X140874059Y-132164411D01*
X141008817Y-132053817D01*
X141119411Y-131919059D01*
X141201589Y-131765313D01*
X141252195Y-131598490D01*
X141265000Y-131468477D01*
X141265000Y-131021468D01*
X146875069Y-125411400D01*
X146908837Y-125383687D01*
X146945139Y-125339454D01*
X147012604Y-125257248D01*
X147019431Y-125248929D01*
X147101609Y-125095183D01*
X147152215Y-124928360D01*
X147165020Y-124798347D01*
X147165020Y-124798337D01*
X147169301Y-124754871D01*
X147165020Y-124711405D01*
X147165020Y-115781543D01*
X147152215Y-115651530D01*
X147101609Y-115484707D01*
X147019431Y-115330961D01*
X146908837Y-115196203D01*
X146774078Y-115085609D01*
X146620332Y-115003431D01*
X146495306Y-114965504D01*
X144969220Y-113439419D01*
X145062205Y-113300256D01*
X145140226Y-113111898D01*
X145163478Y-112995000D01*
X147251928Y-112995000D01*
X147264188Y-113119482D01*
X147300498Y-113239180D01*
X147359463Y-113349494D01*
X147438815Y-113446185D01*
X147516564Y-113509992D01*
X147510208Y-113515208D01*
X147400542Y-113648836D01*
X147319053Y-113801291D01*
X147268872Y-113966715D01*
X147251928Y-114138750D01*
X147251928Y-114626250D01*
X147268872Y-114798285D01*
X147319053Y-114963709D01*
X147400542Y-115116164D01*
X147510208Y-115249792D01*
X147632311Y-115350000D01*
X147510208Y-115450208D01*
X147400542Y-115583836D01*
X147319053Y-115736291D01*
X147268872Y-115901715D01*
X147251928Y-116073750D01*
X147251928Y-116561250D01*
X147268872Y-116733285D01*
X147319053Y-116898709D01*
X147400542Y-117051164D01*
X147510208Y-117184792D01*
X147595756Y-117255000D01*
X147510208Y-117325208D01*
X147400542Y-117458836D01*
X147319053Y-117611291D01*
X147268872Y-117776715D01*
X147251928Y-117948750D01*
X147251928Y-118436250D01*
X147268872Y-118608285D01*
X147319053Y-118773709D01*
X147400542Y-118926164D01*
X147510208Y-119059792D01*
X147555000Y-119096552D01*
X147555000Y-119261939D01*
X147594774Y-119461898D01*
X147672795Y-119650256D01*
X147786063Y-119819774D01*
X147930226Y-119963937D01*
X148099744Y-120077205D01*
X148288102Y-120155226D01*
X148488061Y-120195000D01*
X148691939Y-120195000D01*
X148891898Y-120155226D01*
X149080256Y-120077205D01*
X149249774Y-119963937D01*
X149393937Y-119819774D01*
X149507205Y-119650256D01*
X149585226Y-119461898D01*
X149625000Y-119261939D01*
X149625000Y-119096552D01*
X149669792Y-119059792D01*
X149779458Y-118926164D01*
X149860947Y-118773709D01*
X149911128Y-118608285D01*
X149928072Y-118436250D01*
X149928072Y-117948750D01*
X149911128Y-117776715D01*
X149860947Y-117611291D01*
X149779458Y-117458836D01*
X149669792Y-117325208D01*
X149584244Y-117255000D01*
X149669792Y-117184792D01*
X149779458Y-117051164D01*
X149860947Y-116898709D01*
X149911128Y-116733285D01*
X149928072Y-116561250D01*
X149928072Y-116073750D01*
X149911128Y-115901715D01*
X149860947Y-115736291D01*
X149779458Y-115583836D01*
X149690138Y-115475000D01*
X150601822Y-115475000D01*
X150726525Y-115661632D01*
X150933368Y-115868475D01*
X151107760Y-115985000D01*
X150933368Y-116101525D01*
X150726525Y-116308368D01*
X150564010Y-116551589D01*
X150452068Y-116821842D01*
X150395000Y-117108740D01*
X150395000Y-117401260D01*
X150452068Y-117688158D01*
X150564010Y-117958411D01*
X150726525Y-118201632D01*
X150933368Y-118408475D01*
X151107760Y-118525000D01*
X150933368Y-118641525D01*
X150726525Y-118848368D01*
X150564010Y-119091589D01*
X150452068Y-119361842D01*
X150395000Y-119648740D01*
X150395000Y-119941260D01*
X150452068Y-120228158D01*
X150564010Y-120498411D01*
X150726525Y-120741632D01*
X150933368Y-120948475D01*
X151107760Y-121065000D01*
X150933368Y-121181525D01*
X150726525Y-121388368D01*
X150564010Y-121631589D01*
X150452068Y-121901842D01*
X150395000Y-122188740D01*
X150395000Y-122481260D01*
X150452068Y-122768158D01*
X150564010Y-123038411D01*
X150726525Y-123281632D01*
X150858380Y-123413487D01*
X150785820Y-123435498D01*
X150675506Y-123494463D01*
X150578815Y-123573815D01*
X150499463Y-123670506D01*
X150440498Y-123780820D01*
X150404188Y-123900518D01*
X150391928Y-124025000D01*
X150391928Y-125725000D01*
X150404188Y-125849482D01*
X150440498Y-125969180D01*
X150499463Y-126079494D01*
X150578815Y-126176185D01*
X150675506Y-126255537D01*
X150785820Y-126314502D01*
X150905518Y-126350812D01*
X151030000Y-126363072D01*
X152730000Y-126363072D01*
X152854482Y-126350812D01*
X152974180Y-126314502D01*
X153084494Y-126255537D01*
X153181185Y-126176185D01*
X153260537Y-126079494D01*
X153319502Y-125969180D01*
X153355812Y-125849482D01*
X153368072Y-125725000D01*
X153368072Y-124025000D01*
X153355812Y-123900518D01*
X153319502Y-123780820D01*
X153260537Y-123670506D01*
X153181185Y-123573815D01*
X153084494Y-123494463D01*
X152974180Y-123435498D01*
X152901620Y-123413487D01*
X153033475Y-123281632D01*
X153195990Y-123038411D01*
X153307932Y-122768158D01*
X153365000Y-122481260D01*
X153365000Y-122188740D01*
X153307932Y-121901842D01*
X153195990Y-121631589D01*
X153033475Y-121388368D01*
X152826632Y-121181525D01*
X152652240Y-121065000D01*
X152826632Y-120948475D01*
X153033475Y-120741632D01*
X153195990Y-120498411D01*
X153307932Y-120228158D01*
X153365000Y-119941260D01*
X153365000Y-119648740D01*
X153307932Y-119361842D01*
X153195990Y-119091589D01*
X153033475Y-118848368D01*
X152826632Y-118641525D01*
X152652240Y-118525000D01*
X152826632Y-118408475D01*
X153033475Y-118201632D01*
X153195990Y-117958411D01*
X153307932Y-117688158D01*
X153365000Y-117401260D01*
X153365000Y-117108740D01*
X153307932Y-116821842D01*
X153195990Y-116551589D01*
X153033475Y-116308368D01*
X152826632Y-116101525D01*
X152652240Y-115985000D01*
X152826632Y-115868475D01*
X153033475Y-115661632D01*
X153195990Y-115418411D01*
X153307932Y-115148158D01*
X153365000Y-114861260D01*
X153365000Y-114568740D01*
X153307932Y-114281842D01*
X153195990Y-114011589D01*
X153033475Y-113768368D01*
X152826632Y-113561525D01*
X152644466Y-113439805D01*
X152761355Y-113370178D01*
X152977588Y-113175269D01*
X153151641Y-112941920D01*
X153276825Y-112679099D01*
X153321476Y-112531890D01*
X153200155Y-112302000D01*
X152007000Y-112302000D01*
X152007000Y-112322000D01*
X151753000Y-112322000D01*
X151753000Y-112302000D01*
X150559845Y-112302000D01*
X150438524Y-112531890D01*
X150483175Y-112679099D01*
X150608359Y-112941920D01*
X150782412Y-113175269D01*
X150998645Y-113370178D01*
X151115534Y-113439805D01*
X150933368Y-113561525D01*
X150726525Y-113768368D01*
X150601822Y-113955000D01*
X149907574Y-113955000D01*
X149860947Y-113801291D01*
X149779458Y-113648836D01*
X149669792Y-113515208D01*
X149663436Y-113509992D01*
X149741185Y-113446185D01*
X149820537Y-113349494D01*
X149879502Y-113239180D01*
X149915812Y-113119482D01*
X149928072Y-112995000D01*
X149925000Y-112793250D01*
X149766250Y-112634500D01*
X148717000Y-112634500D01*
X148717000Y-112654500D01*
X148463000Y-112654500D01*
X148463000Y-112634500D01*
X147413750Y-112634500D01*
X147255000Y-112793250D01*
X147251928Y-112995000D01*
X145163478Y-112995000D01*
X145180000Y-112911939D01*
X145180000Y-112708061D01*
X145140226Y-112508102D01*
X145062205Y-112319744D01*
X144948937Y-112150226D01*
X144818711Y-112020000D01*
X147251928Y-112020000D01*
X147255000Y-112221750D01*
X147413750Y-112380500D01*
X148463000Y-112380500D01*
X148463000Y-111543750D01*
X148717000Y-111543750D01*
X148717000Y-112380500D01*
X149766250Y-112380500D01*
X149925000Y-112221750D01*
X149928072Y-112020000D01*
X149915812Y-111895518D01*
X149892331Y-111818110D01*
X150438524Y-111818110D01*
X150559845Y-112048000D01*
X151753000Y-112048000D01*
X151753000Y-110854186D01*
X152007000Y-110854186D01*
X152007000Y-112048000D01*
X153200155Y-112048000D01*
X153321476Y-111818110D01*
X153276825Y-111670901D01*
X153151641Y-111408080D01*
X152977588Y-111174731D01*
X152761355Y-110979822D01*
X152511252Y-110830843D01*
X152236891Y-110733519D01*
X152007000Y-110854186D01*
X151753000Y-110854186D01*
X151523109Y-110733519D01*
X151248748Y-110830843D01*
X150998645Y-110979822D01*
X150782412Y-111174731D01*
X150608359Y-111408080D01*
X150483175Y-111670901D01*
X150438524Y-111818110D01*
X149892331Y-111818110D01*
X149879502Y-111775820D01*
X149820537Y-111665506D01*
X149741185Y-111568815D01*
X149644494Y-111489463D01*
X149534180Y-111430498D01*
X149414482Y-111394188D01*
X149290000Y-111381928D01*
X148875750Y-111385000D01*
X148717000Y-111543750D01*
X148463000Y-111543750D01*
X148304250Y-111385000D01*
X147890000Y-111381928D01*
X147765518Y-111394188D01*
X147645820Y-111430498D01*
X147535506Y-111489463D01*
X147438815Y-111568815D01*
X147359463Y-111665506D01*
X147300498Y-111775820D01*
X147264188Y-111895518D01*
X147251928Y-112020000D01*
X144818711Y-112020000D01*
X144804774Y-112006063D01*
X144635256Y-111892795D01*
X144550047Y-111857500D01*
X144635256Y-111822205D01*
X144804774Y-111708937D01*
X144948937Y-111564774D01*
X145062205Y-111395256D01*
X145140226Y-111206898D01*
X145180000Y-111006939D01*
X145180000Y-110803061D01*
X145140226Y-110603102D01*
X145062205Y-110414744D01*
X144948937Y-110245226D01*
X144804774Y-110101063D01*
X144635256Y-109987795D01*
X144446898Y-109909774D01*
X144246939Y-109870000D01*
X144043061Y-109870000D01*
X144018072Y-109874971D01*
X144018072Y-109505000D01*
X144005812Y-109380518D01*
X143987454Y-109320000D01*
X144005812Y-109259482D01*
X144018072Y-109135000D01*
X144018072Y-108235000D01*
X144005812Y-108110518D01*
X143987454Y-108050000D01*
X144005812Y-107989482D01*
X144018072Y-107865000D01*
X144018072Y-106965000D01*
X144005812Y-106840518D01*
X143969502Y-106720820D01*
X143910537Y-106610506D01*
X143831185Y-106513815D01*
X143734494Y-106434463D01*
X143624180Y-106375498D01*
X143504482Y-106339188D01*
X143380000Y-106326928D01*
X143335397Y-106326928D01*
X143253882Y-106302201D01*
X143130000Y-106290000D01*
X124630000Y-106290000D01*
X124506118Y-106302201D01*
X124424603Y-106326928D01*
X124380000Y-106326928D01*
X124255518Y-106339188D01*
X124135820Y-106375498D01*
X124025506Y-106434463D01*
X123928815Y-106513815D01*
X123915532Y-106530000D01*
X123856493Y-106530000D01*
X123850472Y-106510150D01*
X123768405Y-106356614D01*
X123657962Y-106222038D01*
X123523386Y-106111595D01*
X123369850Y-106029528D01*
X123203254Y-105978992D01*
X123030000Y-105961928D01*
X122080000Y-105961928D01*
X121906746Y-105978992D01*
X121740150Y-106029528D01*
X121586614Y-106111595D01*
X121452038Y-106222038D01*
X121341595Y-106356614D01*
X121259528Y-106510150D01*
X121208992Y-106676746D01*
X121191928Y-106850000D01*
X121191928Y-107350000D01*
X121208992Y-107523254D01*
X121259528Y-107689850D01*
X121341595Y-107843386D01*
X121452038Y-107977962D01*
X121458594Y-107983342D01*
X121378815Y-108048815D01*
X121299463Y-108145506D01*
X121240498Y-108255820D01*
X121204188Y-108375518D01*
X121191928Y-108500000D01*
X121195000Y-108714250D01*
X121353750Y-108873000D01*
X122428000Y-108873000D01*
X122428000Y-108853000D01*
X122682000Y-108853000D01*
X122682000Y-108873000D01*
X122702000Y-108873000D01*
X122702000Y-109127000D01*
X122682000Y-109127000D01*
X122682000Y-109147000D01*
X122428000Y-109147000D01*
X122428000Y-109127000D01*
X121353750Y-109127000D01*
X121195000Y-109285750D01*
X121191928Y-109500000D01*
X121204188Y-109624482D01*
X121240498Y-109744180D01*
X121299463Y-109854494D01*
X121378815Y-109951185D01*
X121426261Y-109990123D01*
X121260226Y-110101063D01*
X121116063Y-110245226D01*
X121002795Y-110414744D01*
X120949160Y-110544229D01*
X120751939Y-110505000D01*
X120548061Y-110505000D01*
X120348102Y-110544774D01*
X120159744Y-110622795D01*
X119990226Y-110736063D01*
X119846063Y-110880226D01*
X119732795Y-111049744D01*
X119654774Y-111238102D01*
X119615000Y-111438061D01*
X119615000Y-111641939D01*
X119654774Y-111841898D01*
X119732795Y-112030256D01*
X119846063Y-112199774D01*
X119990226Y-112343937D01*
X120159744Y-112457205D01*
X120348102Y-112535226D01*
X120449182Y-112555332D01*
X119026990Y-112555332D01*
X118989667Y-112551656D01*
X118952345Y-112555332D01*
X118952335Y-112555332D01*
X118840682Y-112566329D01*
X118697421Y-112609786D01*
X118565443Y-112680331D01*
X118487730Y-112680331D01*
X118287771Y-112720105D01*
X118099413Y-112798126D01*
X117929895Y-112911394D01*
X117785732Y-113055557D01*
X117672464Y-113225075D01*
X117594443Y-113413433D01*
X117554669Y-113613392D01*
X117554669Y-113817270D01*
X117594443Y-114017229D01*
X117672464Y-114205587D01*
X117785732Y-114375105D01*
X117929895Y-114519268D01*
X118099413Y-114632536D01*
X118287771Y-114710557D01*
X118487730Y-114750331D01*
X118691608Y-114750331D01*
X118891567Y-114710557D01*
X119079925Y-114632536D01*
X119249443Y-114519268D01*
X119393606Y-114375105D01*
X119506874Y-114205587D01*
X119560828Y-114075332D01*
X121520000Y-114075332D01*
X121520000Y-114181939D01*
X121559774Y-114381898D01*
X121637795Y-114570256D01*
X121734510Y-114715000D01*
X121637795Y-114859744D01*
X121559774Y-115048102D01*
X121520000Y-115248061D01*
X121520000Y-115451939D01*
X121559774Y-115651898D01*
X121637795Y-115840256D01*
X121751063Y-116009774D01*
X121796789Y-116055500D01*
X121805997Y-116148985D01*
X121836425Y-116249295D01*
X121849454Y-116292246D01*
X121920026Y-116424276D01*
X121944408Y-116453985D01*
X122014999Y-116540001D01*
X122044003Y-116563804D01*
X123174051Y-117693853D01*
X123045256Y-117607795D01*
X122856898Y-117529774D01*
X122656939Y-117490000D01*
X122453061Y-117490000D01*
X122253102Y-117529774D01*
X122064744Y-117607795D01*
X121895226Y-117721063D01*
X121751063Y-117865226D01*
X121637795Y-118034744D01*
X121559774Y-118223102D01*
X121520000Y-118423061D01*
X121520000Y-118626939D01*
X121559774Y-118826898D01*
X121633545Y-119004995D01*
X121220000Y-119001928D01*
X121095518Y-119014188D01*
X120975820Y-119050498D01*
X120865506Y-119109463D01*
X120768815Y-119188815D01*
X120689463Y-119285506D01*
X120650000Y-119359335D01*
X120610537Y-119285506D01*
X120531185Y-119188815D01*
X120434494Y-119109463D01*
X120324180Y-119050498D01*
X120204482Y-119014188D01*
X120080000Y-119001928D01*
X119665750Y-119005000D01*
X119507000Y-119163750D01*
X119507000Y-120000500D01*
X120556250Y-120000500D01*
X120650000Y-119906750D01*
X120743750Y-120000500D01*
X121793000Y-120000500D01*
X121793000Y-119980500D01*
X122047000Y-119980500D01*
X122047000Y-120000500D01*
X122067000Y-120000500D01*
X122067000Y-120254500D01*
X122047000Y-120254500D01*
X122047000Y-120274500D01*
X121793000Y-120274500D01*
X121793000Y-120254500D01*
X120743750Y-120254500D01*
X120650000Y-120348250D01*
X120556250Y-120254500D01*
X119507000Y-120254500D01*
X119507000Y-120274500D01*
X119253000Y-120274500D01*
X119253000Y-120254500D01*
X118203750Y-120254500D01*
X118110000Y-120348250D01*
X118016250Y-120254500D01*
X116967000Y-120254500D01*
X116967000Y-120274500D01*
X116713000Y-120274500D01*
X116713000Y-120254500D01*
X115663750Y-120254500D01*
X115570000Y-120348250D01*
X115476250Y-120254500D01*
X114427000Y-120254500D01*
X114427000Y-120274500D01*
X114173000Y-120274500D01*
X114173000Y-120254500D01*
X113123750Y-120254500D01*
X113030000Y-120348250D01*
X112936250Y-120254500D01*
X111887000Y-120254500D01*
X111887000Y-120274500D01*
X111633000Y-120274500D01*
X111633000Y-120254500D01*
X110583750Y-120254500D01*
X110425000Y-120413250D01*
X110421928Y-120615000D01*
X110434188Y-120739482D01*
X110470498Y-120859180D01*
X110529463Y-120969494D01*
X110608815Y-121066185D01*
X110686564Y-121129992D01*
X110680208Y-121135208D01*
X110570542Y-121268836D01*
X110489053Y-121421291D01*
X110438872Y-121586715D01*
X110421928Y-121758750D01*
X110421928Y-122246250D01*
X110438872Y-122418285D01*
X110489053Y-122583709D01*
X110570542Y-122736164D01*
X110680208Y-122869792D01*
X110813836Y-122979458D01*
X110966291Y-123060947D01*
X110975000Y-123063589D01*
X110975001Y-123561288D01*
X110956063Y-123580226D01*
X110842795Y-123749744D01*
X110764774Y-123938102D01*
X110725000Y-124138061D01*
X110725000Y-124341939D01*
X110764774Y-124541898D01*
X110842795Y-124730256D01*
X110847661Y-124737539D01*
X106263072Y-129322128D01*
X106263072Y-129150000D01*
X106250812Y-129025518D01*
X106214502Y-128905820D01*
X106155537Y-128795506D01*
X106076185Y-128698815D01*
X105979494Y-128619463D01*
X105869180Y-128560498D01*
X105749482Y-128524188D01*
X105625000Y-128511928D01*
X103925000Y-128511928D01*
X103800518Y-128524188D01*
X103680820Y-128560498D01*
X103570506Y-128619463D01*
X103473815Y-128698815D01*
X103394463Y-128795506D01*
X103335498Y-128905820D01*
X103302379Y-129015000D01*
X103090157Y-129015000D01*
X103053072Y-128977915D01*
X103053072Y-128600000D01*
X103040812Y-128475518D01*
X103004502Y-128355820D01*
X102945537Y-128245506D01*
X102866185Y-128148815D01*
X102769494Y-128069463D01*
X102733082Y-128050000D01*
X102769494Y-128030537D01*
X102824981Y-127985000D01*
X103931531Y-127985000D01*
X103975000Y-127989281D01*
X104018469Y-127985000D01*
X104018477Y-127985000D01*
X104148490Y-127972195D01*
X104315313Y-127921589D01*
X104469059Y-127839411D01*
X104603817Y-127728817D01*
X104631534Y-127695044D01*
X104647441Y-127679137D01*
X104775000Y-127691700D01*
X105046507Y-127664960D01*
X105299972Y-127588072D01*
X105625000Y-127588072D01*
X105749482Y-127575812D01*
X105869180Y-127539502D01*
X105886957Y-127530000D01*
X107383037Y-127530000D01*
X107586507Y-127509960D01*
X107847581Y-127430764D01*
X108088188Y-127302157D01*
X108299081Y-127129081D01*
X108472157Y-126918188D01*
X108600764Y-126677581D01*
X108679960Y-126416507D01*
X108706701Y-126145000D01*
X108679960Y-125873493D01*
X108600764Y-125612419D01*
X108472157Y-125371812D01*
X108299081Y-125160919D01*
X108088188Y-124987843D01*
X107847581Y-124859236D01*
X107586507Y-124780040D01*
X107383037Y-124760000D01*
X104998026Y-124760000D01*
X104929999Y-124753300D01*
X104861973Y-124760000D01*
X104861963Y-124760000D01*
X104658493Y-124780040D01*
X104541966Y-124815388D01*
X104298072Y-124571494D01*
X104298072Y-124366006D01*
X105315049Y-123349030D01*
X105348817Y-123321317D01*
X105378062Y-123285683D01*
X105458169Y-123188072D01*
X105495000Y-123188072D01*
X105619482Y-123175812D01*
X105739180Y-123139502D01*
X105849494Y-123080537D01*
X105946185Y-123001185D01*
X106025537Y-122904494D01*
X106084502Y-122794180D01*
X106120812Y-122674482D01*
X106133072Y-122550000D01*
X106133072Y-121850000D01*
X106120812Y-121725518D01*
X106084502Y-121605820D01*
X106062683Y-121565000D01*
X106084502Y-121524180D01*
X106120812Y-121404482D01*
X106133072Y-121280000D01*
X106133072Y-120580000D01*
X106120812Y-120455518D01*
X106117621Y-120445000D01*
X106409110Y-120445000D01*
X106439053Y-120543709D01*
X106520542Y-120696164D01*
X106588319Y-120778750D01*
X106520542Y-120861336D01*
X106439053Y-121013791D01*
X106388872Y-121179215D01*
X106371928Y-121351250D01*
X106371928Y-121838750D01*
X106388872Y-122010785D01*
X106439053Y-122176209D01*
X106520542Y-122328664D01*
X106630208Y-122462292D01*
X106715756Y-122532500D01*
X106630208Y-122602708D01*
X106520542Y-122736336D01*
X106439053Y-122888791D01*
X106388872Y-123054215D01*
X106371928Y-123226250D01*
X106371928Y-123713750D01*
X106388872Y-123885785D01*
X106439053Y-124051209D01*
X106520542Y-124203664D01*
X106630208Y-124337292D01*
X106763836Y-124446958D01*
X106916291Y-124528447D01*
X107081715Y-124578628D01*
X107253750Y-124595572D01*
X108166250Y-124595572D01*
X108338285Y-124578628D01*
X108503709Y-124528447D01*
X108634477Y-124458550D01*
X108729744Y-124522205D01*
X108918102Y-124600226D01*
X109118061Y-124640000D01*
X109321939Y-124640000D01*
X109521898Y-124600226D01*
X109710256Y-124522205D01*
X109879774Y-124408937D01*
X110023937Y-124264774D01*
X110137205Y-124095256D01*
X110215226Y-123906898D01*
X110255000Y-123706939D01*
X110255000Y-123503061D01*
X110215226Y-123303102D01*
X110137205Y-123114744D01*
X110023937Y-122945226D01*
X109879774Y-122801063D01*
X109710256Y-122687795D01*
X109521898Y-122609774D01*
X109321939Y-122570000D01*
X109118061Y-122570000D01*
X108918102Y-122609774D01*
X108826672Y-122647646D01*
X108789792Y-122602708D01*
X108704244Y-122532500D01*
X108789792Y-122462292D01*
X108899458Y-122328664D01*
X108980947Y-122176209D01*
X109031128Y-122010785D01*
X109048072Y-121838750D01*
X109048072Y-121351250D01*
X109031128Y-121179215D01*
X108980947Y-121013791D01*
X108899458Y-120861336D01*
X108831681Y-120778750D01*
X108899458Y-120696164D01*
X108980947Y-120543709D01*
X109031128Y-120378285D01*
X109048072Y-120206250D01*
X109048072Y-119718750D01*
X109040316Y-119640000D01*
X110421928Y-119640000D01*
X110425000Y-119841750D01*
X110583750Y-120000500D01*
X111633000Y-120000500D01*
X111633000Y-119163750D01*
X111887000Y-119163750D01*
X111887000Y-120000500D01*
X112936250Y-120000500D01*
X113030000Y-119906750D01*
X113123750Y-120000500D01*
X114173000Y-120000500D01*
X114173000Y-119163750D01*
X114427000Y-119163750D01*
X114427000Y-120000500D01*
X115476250Y-120000500D01*
X115570000Y-119906750D01*
X115663750Y-120000500D01*
X116713000Y-120000500D01*
X116713000Y-119163750D01*
X116967000Y-119163750D01*
X116967000Y-120000500D01*
X118016250Y-120000500D01*
X118110000Y-119906750D01*
X118203750Y-120000500D01*
X119253000Y-120000500D01*
X119253000Y-119163750D01*
X119094250Y-119005000D01*
X118680000Y-119001928D01*
X118555518Y-119014188D01*
X118435820Y-119050498D01*
X118325506Y-119109463D01*
X118228815Y-119188815D01*
X118149463Y-119285506D01*
X118110000Y-119359335D01*
X118070537Y-119285506D01*
X117991185Y-119188815D01*
X117894494Y-119109463D01*
X117784180Y-119050498D01*
X117664482Y-119014188D01*
X117540000Y-119001928D01*
X117125750Y-119005000D01*
X116967000Y-119163750D01*
X116713000Y-119163750D01*
X116554250Y-119005000D01*
X116140000Y-119001928D01*
X116015518Y-119014188D01*
X115895820Y-119050498D01*
X115785506Y-119109463D01*
X115688815Y-119188815D01*
X115609463Y-119285506D01*
X115570000Y-119359335D01*
X115530537Y-119285506D01*
X115451185Y-119188815D01*
X115354494Y-119109463D01*
X115244180Y-119050498D01*
X115124482Y-119014188D01*
X115000000Y-119001928D01*
X114585750Y-119005000D01*
X114427000Y-119163750D01*
X114173000Y-119163750D01*
X114014250Y-119005000D01*
X113600000Y-119001928D01*
X113475518Y-119014188D01*
X113355820Y-119050498D01*
X113245506Y-119109463D01*
X113148815Y-119188815D01*
X113069463Y-119285506D01*
X113030000Y-119359335D01*
X112990537Y-119285506D01*
X112911185Y-119188815D01*
X112814494Y-119109463D01*
X112704180Y-119050498D01*
X112584482Y-119014188D01*
X112460000Y-119001928D01*
X112045750Y-119005000D01*
X111887000Y-119163750D01*
X111633000Y-119163750D01*
X111474250Y-119005000D01*
X111060000Y-119001928D01*
X110935518Y-119014188D01*
X110815820Y-119050498D01*
X110705506Y-119109463D01*
X110608815Y-119188815D01*
X110529463Y-119285506D01*
X110470498Y-119395820D01*
X110434188Y-119515518D01*
X110421928Y-119640000D01*
X109040316Y-119640000D01*
X109031128Y-119546715D01*
X108980947Y-119381291D01*
X108899458Y-119228836D01*
X108789792Y-119095208D01*
X108783436Y-119089992D01*
X108861185Y-119026185D01*
X108940537Y-118929494D01*
X108999502Y-118819180D01*
X109035812Y-118699482D01*
X109048072Y-118575000D01*
X109045000Y-118373250D01*
X108886250Y-118214500D01*
X107837000Y-118214500D01*
X107837000Y-118234500D01*
X107583000Y-118234500D01*
X107583000Y-118214500D01*
X107563000Y-118214500D01*
X107563000Y-117960500D01*
X107583000Y-117960500D01*
X107583000Y-117123750D01*
X107837000Y-117123750D01*
X107837000Y-117960500D01*
X108886250Y-117960500D01*
X109045000Y-117801750D01*
X109048072Y-117600000D01*
X109035812Y-117475518D01*
X108999502Y-117355820D01*
X108940537Y-117245506D01*
X108861185Y-117148815D01*
X108764494Y-117069463D01*
X108654180Y-117010498D01*
X108534482Y-116974188D01*
X108410000Y-116961928D01*
X107995750Y-116965000D01*
X107837000Y-117123750D01*
X107583000Y-117123750D01*
X107424250Y-116965000D01*
X107010000Y-116961928D01*
X106885518Y-116974188D01*
X106765820Y-117010498D01*
X106655506Y-117069463D01*
X106558815Y-117148815D01*
X106479463Y-117245506D01*
X106420498Y-117355820D01*
X106384188Y-117475518D01*
X106377592Y-117542488D01*
X106346898Y-117529774D01*
X106146939Y-117490000D01*
X105943061Y-117490000D01*
X105848333Y-117508842D01*
X105739180Y-117450498D01*
X105619482Y-117414188D01*
X105495000Y-117401928D01*
X104290000Y-117401928D01*
X104290000Y-115463767D01*
X104305010Y-115435684D01*
X104427641Y-115423606D01*
X104617686Y-115365956D01*
X104792833Y-115272339D01*
X104946350Y-115146350D01*
X105072339Y-114992833D01*
X105165956Y-114817686D01*
X105223606Y-114627641D01*
X105229283Y-114569999D01*
X109311928Y-114569999D01*
X109311928Y-115395001D01*
X109328992Y-115568255D01*
X109379528Y-115734851D01*
X109461595Y-115888387D01*
X109572038Y-116022962D01*
X109706613Y-116133405D01*
X109860149Y-116215472D01*
X110026745Y-116266008D01*
X110146468Y-116277800D01*
X110129774Y-116318102D01*
X110090000Y-116518061D01*
X110090000Y-116721939D01*
X110129774Y-116921898D01*
X110207795Y-117110256D01*
X110321063Y-117279774D01*
X110465226Y-117423937D01*
X110634744Y-117537205D01*
X110823102Y-117615226D01*
X111023061Y-117655000D01*
X111226939Y-117655000D01*
X111426898Y-117615226D01*
X111615256Y-117537205D01*
X111784774Y-117423937D01*
X111928937Y-117279774D01*
X112042205Y-117110256D01*
X112120226Y-116921898D01*
X112160000Y-116721939D01*
X112160000Y-116518061D01*
X112120226Y-116318102D01*
X112103532Y-116277800D01*
X112223255Y-116266008D01*
X112389851Y-116215472D01*
X112543387Y-116133405D01*
X112677962Y-116022962D01*
X112788405Y-115888387D01*
X112870472Y-115734851D01*
X112921008Y-115568255D01*
X112938072Y-115395001D01*
X112938072Y-114569999D01*
X112921008Y-114396745D01*
X112870472Y-114230149D01*
X112788405Y-114076613D01*
X112677962Y-113942038D01*
X112543387Y-113831595D01*
X112389851Y-113749528D01*
X112223255Y-113698992D01*
X112050001Y-113681928D01*
X110199999Y-113681928D01*
X110026745Y-113698992D01*
X109860149Y-113749528D01*
X109706613Y-113831595D01*
X109572038Y-113942038D01*
X109461595Y-114076613D01*
X109379528Y-114230149D01*
X109328992Y-114396745D01*
X109311928Y-114569999D01*
X105229283Y-114569999D01*
X105243072Y-114430000D01*
X105243072Y-113680000D01*
X105223606Y-113482359D01*
X105165956Y-113292314D01*
X105072339Y-113117167D01*
X104946350Y-112963650D01*
X104792833Y-112837661D01*
X104617686Y-112744044D01*
X104427641Y-112686394D01*
X104230000Y-112666928D01*
X102780000Y-112666928D01*
X102582359Y-112686394D01*
X102392314Y-112744044D01*
X102217167Y-112837661D01*
X102063650Y-112963650D01*
X101937661Y-113117167D01*
X101844044Y-113292314D01*
X101786394Y-113482359D01*
X101766928Y-113680000D01*
X101766928Y-114430000D01*
X101770868Y-114470000D01*
X97423072Y-114470000D01*
X97423072Y-114005000D01*
X97410812Y-113880518D01*
X97374502Y-113760820D01*
X97315537Y-113650506D01*
X97236185Y-113553815D01*
X97139494Y-113474463D01*
X97029180Y-113415498D01*
X96909482Y-113379188D01*
X96785000Y-113366928D01*
X94985000Y-113366928D01*
X94860518Y-113379188D01*
X94740820Y-113415498D01*
X94630506Y-113474463D01*
X94533815Y-113553815D01*
X94454463Y-113650506D01*
X94395498Y-113760820D01*
X94359188Y-113880518D01*
X94346928Y-114005000D01*
X94346928Y-116505000D01*
X94359188Y-116629482D01*
X94395498Y-116749180D01*
X94454463Y-116859494D01*
X94533815Y-116956185D01*
X94630506Y-117035537D01*
X94740820Y-117094502D01*
X94860518Y-117130812D01*
X94985000Y-117143072D01*
X96785000Y-117143072D01*
X96909482Y-117130812D01*
X97029180Y-117094502D01*
X97139494Y-117035537D01*
X97236185Y-116956185D01*
X97315537Y-116859494D01*
X97374502Y-116749180D01*
X97410812Y-116629482D01*
X97423072Y-116505000D01*
X97423072Y-116040000D01*
X102720000Y-116040000D01*
X102720001Y-120751437D01*
X102716203Y-120790000D01*
X102731359Y-120943886D01*
X102776246Y-121091859D01*
X102777659Y-121094502D01*
X102849139Y-121228233D01*
X102869873Y-121253497D01*
X102922655Y-121317812D01*
X102922659Y-121317816D01*
X102947237Y-121347764D01*
X102977185Y-121372342D01*
X103062653Y-121457810D01*
X103087236Y-121487764D01*
X103206767Y-121585862D01*
X103339957Y-121657053D01*
X103319188Y-121725518D01*
X103306928Y-121850000D01*
X103306928Y-122550000D01*
X103319188Y-122674482D01*
X103355498Y-122794180D01*
X103359414Y-122801507D01*
X103258994Y-122901928D01*
X102928750Y-122901928D01*
X102756715Y-122918872D01*
X102591291Y-122969053D01*
X102438836Y-123050542D01*
X102305208Y-123160208D01*
X102235000Y-123245756D01*
X102164792Y-123160208D01*
X102031164Y-123050542D01*
X101878709Y-122969053D01*
X101713285Y-122918872D01*
X101541250Y-122901928D01*
X101069586Y-122901928D01*
X100683072Y-122515415D01*
X100683072Y-121850000D01*
X100670812Y-121725518D01*
X100634502Y-121605820D01*
X100612683Y-121565000D01*
X100634502Y-121524180D01*
X100670812Y-121404482D01*
X100683072Y-121280000D01*
X100683072Y-120580000D01*
X100670812Y-120455518D01*
X100634502Y-120335820D01*
X100612683Y-120295000D01*
X100634502Y-120254180D01*
X100670812Y-120134482D01*
X100683072Y-120010000D01*
X100683072Y-119310000D01*
X100670812Y-119185518D01*
X100634502Y-119065820D01*
X100612683Y-119025000D01*
X100634502Y-118984180D01*
X100670812Y-118864482D01*
X100683072Y-118740000D01*
X100683072Y-118040000D01*
X100670812Y-117915518D01*
X100634502Y-117795820D01*
X100575537Y-117685506D01*
X100496185Y-117588815D01*
X100399494Y-117509463D01*
X100289180Y-117450498D01*
X100169482Y-117414188D01*
X100045000Y-117401928D01*
X98495000Y-117401928D01*
X98370518Y-117414188D01*
X98250820Y-117450498D01*
X98140506Y-117509463D01*
X98043815Y-117588815D01*
X97964463Y-117685506D01*
X97905498Y-117795820D01*
X97869188Y-117915518D01*
X97856928Y-118040000D01*
X97856928Y-118470000D01*
X97423072Y-118470000D01*
X97423072Y-118005000D01*
X97410812Y-117880518D01*
X97374502Y-117760820D01*
X97315537Y-117650506D01*
X97236185Y-117553815D01*
X97139494Y-117474463D01*
X97029180Y-117415498D01*
X96909482Y-117379188D01*
X96785000Y-117366928D01*
X94985000Y-117366928D01*
X94860518Y-117379188D01*
X94740820Y-117415498D01*
X94630506Y-117474463D01*
X94533815Y-117553815D01*
X94454463Y-117650506D01*
X94395498Y-117760820D01*
X94359188Y-117880518D01*
X94346928Y-118005000D01*
X94346928Y-118470000D01*
X94118711Y-118470000D01*
X94004774Y-118356063D01*
X93835256Y-118242795D01*
X93646898Y-118164774D01*
X93446939Y-118125000D01*
X93243061Y-118125000D01*
X93043102Y-118164774D01*
X92854744Y-118242795D01*
X92685226Y-118356063D01*
X92541063Y-118500226D01*
X92427795Y-118669744D01*
X92349774Y-118858102D01*
X92310000Y-119058061D01*
X92310000Y-119261939D01*
X92349774Y-119461898D01*
X92427795Y-119650256D01*
X92541063Y-119819774D01*
X92685226Y-119963937D01*
X92854744Y-120077205D01*
X93043102Y-120155226D01*
X93243061Y-120195000D01*
X93446939Y-120195000D01*
X93646898Y-120155226D01*
X93835256Y-120077205D01*
X93890937Y-120040000D01*
X94346928Y-120040000D01*
X94346928Y-120505000D01*
X94359188Y-120629482D01*
X94395498Y-120749180D01*
X94454463Y-120859494D01*
X94533815Y-120956185D01*
X94630506Y-121035537D01*
X94740820Y-121094502D01*
X94860518Y-121130812D01*
X94985000Y-121143072D01*
X96785000Y-121143072D01*
X96909482Y-121130812D01*
X97029180Y-121094502D01*
X97139494Y-121035537D01*
X97236185Y-120956185D01*
X97315537Y-120859494D01*
X97374502Y-120749180D01*
X97410812Y-120629482D01*
X97423072Y-120505000D01*
X97423072Y-120040000D01*
X97859883Y-120040000D01*
X97869188Y-120134482D01*
X97905498Y-120254180D01*
X97927317Y-120295000D01*
X97905498Y-120335820D01*
X97869188Y-120455518D01*
X97856928Y-120580000D01*
X97856928Y-121280000D01*
X97869188Y-121404482D01*
X97905498Y-121524180D01*
X97927317Y-121565000D01*
X97905498Y-121605820D01*
X97869188Y-121725518D01*
X97856928Y-121850000D01*
X97856928Y-122087333D01*
X97827962Y-122052038D01*
X97693387Y-121941595D01*
X97539851Y-121859528D01*
X97373255Y-121808992D01*
X97200001Y-121791928D01*
X96374999Y-121791928D01*
X96201745Y-121808992D01*
X96035149Y-121859528D01*
X95881613Y-121941595D01*
X95747038Y-122052038D01*
X95636595Y-122186613D01*
X95554528Y-122340149D01*
X95503992Y-122506745D01*
X95486928Y-122679999D01*
X95486928Y-124530001D01*
X95503992Y-124703255D01*
X95554528Y-124869851D01*
X95636595Y-125023387D01*
X95747038Y-125157962D01*
X95881613Y-125268405D01*
X96035149Y-125350472D01*
X96201745Y-125401008D01*
X96374999Y-125418072D01*
X97200001Y-125418072D01*
X97373255Y-125401008D01*
X97539851Y-125350472D01*
X97693387Y-125268405D01*
X97827962Y-125157962D01*
X97938405Y-125023387D01*
X98020472Y-124869851D01*
X98071008Y-124703255D01*
X98088072Y-124530001D01*
X98088072Y-124490000D01*
X98103422Y-124490000D01*
X100690844Y-127077423D01*
X100659180Y-127060498D01*
X100539482Y-127024188D01*
X100415000Y-127011928D01*
X99515000Y-127011928D01*
X99390518Y-127024188D01*
X99270820Y-127060498D01*
X99160506Y-127119463D01*
X99063815Y-127198815D01*
X98984463Y-127295506D01*
X98925498Y-127405820D01*
X98889188Y-127525518D01*
X98888747Y-127530000D01*
X97833466Y-127530000D01*
X97789999Y-127525719D01*
X97746533Y-127530000D01*
X97746523Y-127530000D01*
X97616510Y-127542805D01*
X97449687Y-127593411D01*
X97295941Y-127675589D01*
X97295939Y-127675590D01*
X97295940Y-127675590D01*
X97194953Y-127758468D01*
X97194951Y-127758470D01*
X97161183Y-127786183D01*
X97133470Y-127819951D01*
X95651071Y-129302350D01*
X95347140Y-129176458D01*
X94862213Y-129080000D01*
X94367787Y-129080000D01*
X93882860Y-129176458D01*
X93426069Y-129365667D01*
X93014968Y-129640356D01*
X92665356Y-129989968D01*
X92390667Y-130401069D01*
X92201458Y-130857860D01*
X92105000Y-131342787D01*
X92105000Y-131837213D01*
X92201458Y-132322140D01*
X92390667Y-132778931D01*
X92665356Y-133190032D01*
X93014968Y-133539644D01*
X93426069Y-133814333D01*
X93882860Y-134003542D01*
X94367787Y-134100000D01*
X94862213Y-134100000D01*
X95347140Y-134003542D01*
X95803931Y-133814333D01*
X96215032Y-133539644D01*
X96564644Y-133190032D01*
X96839333Y-132778931D01*
X97028542Y-132322140D01*
X97125000Y-131837213D01*
X97125000Y-131342787D01*
X97028542Y-130857860D01*
X96902650Y-130553929D01*
X98156579Y-129300000D01*
X99556531Y-129300000D01*
X99600000Y-129304281D01*
X99643469Y-129300000D01*
X99643477Y-129300000D01*
X99773490Y-129287195D01*
X99940313Y-129236589D01*
X100094059Y-129154411D01*
X100174893Y-129088072D01*
X100415000Y-129088072D01*
X100539482Y-129075812D01*
X100659180Y-129039502D01*
X100769494Y-128980537D01*
X100866185Y-128901185D01*
X100876928Y-128888095D01*
X100876928Y-129400000D01*
X100889188Y-129524482D01*
X100925498Y-129644180D01*
X100984463Y-129754494D01*
X101063815Y-129851185D01*
X101092501Y-129874727D01*
X101092501Y-130060487D01*
X100987038Y-130147038D01*
X100965000Y-130173891D01*
X100942962Y-130147038D01*
X100808387Y-130036595D01*
X100654851Y-129954528D01*
X100488255Y-129903992D01*
X100315001Y-129886928D01*
X99789999Y-129886928D01*
X99616745Y-129903992D01*
X99450149Y-129954528D01*
X99296613Y-130036595D01*
X99162038Y-130147038D01*
X99051595Y-130281613D01*
X99005404Y-130368030D01*
X98915256Y-130307795D01*
X98726898Y-130229774D01*
X98526939Y-130190000D01*
X98323061Y-130190000D01*
X98123102Y-130229774D01*
X97934744Y-130307795D01*
X97765226Y-130421063D01*
X97621063Y-130565226D01*
X97507795Y-130734744D01*
X97429774Y-130923102D01*
X97390000Y-131123061D01*
X97390000Y-131326939D01*
X97429774Y-131526898D01*
X97507795Y-131715256D01*
X97621063Y-131884774D01*
X97765226Y-132028937D01*
X97934744Y-132142205D01*
X98123102Y-132220226D01*
X98323061Y-132260000D01*
X98526939Y-132260000D01*
X98726898Y-132220226D01*
X98915256Y-132142205D01*
X99005404Y-132081970D01*
X99051595Y-132168387D01*
X99162038Y-132302962D01*
X99296613Y-132413405D01*
X99450149Y-132495472D01*
X99616745Y-132546008D01*
X99789999Y-132563072D01*
X100315001Y-132563072D01*
X100488255Y-132546008D01*
X100654851Y-132495472D01*
X100808387Y-132413405D01*
X100942962Y-132302962D01*
X100965000Y-132276109D01*
X100987038Y-132302962D01*
X101121613Y-132413405D01*
X101275149Y-132495472D01*
X101441745Y-132546008D01*
X101614999Y-132563072D01*
X102140001Y-132563072D01*
X102313255Y-132546008D01*
X102479851Y-132495472D01*
X102633387Y-132413405D01*
X102767962Y-132302962D01*
X102878405Y-132168387D01*
X102960472Y-132014851D01*
X103011008Y-131848255D01*
X103028072Y-131675001D01*
X103028072Y-130774999D01*
X103011008Y-130601745D01*
X103005928Y-130585000D01*
X103302379Y-130585000D01*
X103335498Y-130694180D01*
X103394463Y-130804494D01*
X103473815Y-130901185D01*
X103570506Y-130980537D01*
X103680820Y-131039502D01*
X103800518Y-131075812D01*
X103925000Y-131088072D01*
X104497129Y-131088072D01*
X100350556Y-135234645D01*
X100323285Y-135226372D01*
X100151250Y-135209428D01*
X99238750Y-135209428D01*
X99066715Y-135226372D01*
X98901291Y-135276553D01*
X98748836Y-135358042D01*
X98615208Y-135467708D01*
X98505542Y-135601336D01*
X98424053Y-135753791D01*
X98373872Y-135919215D01*
X98356928Y-136091250D01*
X98356928Y-136578750D01*
X98373872Y-136750785D01*
X98424053Y-136916209D01*
X98505542Y-137068664D01*
X98615208Y-137202292D01*
X98700756Y-137272500D01*
X98615208Y-137342708D01*
X98505542Y-137476336D01*
X98424053Y-137628791D01*
X98373872Y-137794215D01*
X98356928Y-137966250D01*
X98356928Y-138296493D01*
X95924951Y-140728471D01*
X95891184Y-140756183D01*
X95863471Y-140789951D01*
X95863468Y-140789954D01*
X95780590Y-140890941D01*
X95698412Y-141044687D01*
X95647805Y-141211510D01*
X95630719Y-141385000D01*
X95635001Y-141428479D01*
X95635001Y-142560837D01*
X95454208Y-142709208D01*
X95266762Y-142937613D01*
X95127476Y-143198198D01*
X95041705Y-143480949D01*
X95020000Y-143701320D01*
X95020000Y-144148679D01*
X95041705Y-144369050D01*
X95127476Y-144651801D01*
X95266762Y-144912386D01*
X95454208Y-145140792D01*
X95682613Y-145328238D01*
X95943198Y-145467524D01*
X96225949Y-145553295D01*
X96520000Y-145582257D01*
X96814050Y-145553295D01*
X97096801Y-145467524D01*
X97357386Y-145328238D01*
X97585792Y-145140792D01*
X97773238Y-144912387D01*
X97790000Y-144881027D01*
X97806762Y-144912386D01*
X97994208Y-145140792D01*
X98177742Y-145291414D01*
X98139550Y-145329606D01*
X98009866Y-145523692D01*
X97920539Y-145739348D01*
X97875000Y-145968288D01*
X97875000Y-146201712D01*
X97920539Y-146430652D01*
X98009866Y-146646308D01*
X98139550Y-146840394D01*
X98304606Y-147005450D01*
X98498692Y-147135134D01*
X98714348Y-147224461D01*
X98943288Y-147270000D01*
X99176712Y-147270000D01*
X99405652Y-147224461D01*
X99621308Y-147135134D01*
X99815394Y-147005450D01*
X99980450Y-146840394D01*
X100110134Y-146646308D01*
X100199461Y-146430652D01*
X100215000Y-146352532D01*
X100215000Y-146371970D01*
X100208300Y-146440000D01*
X100215000Y-146508029D01*
X100215000Y-146508036D01*
X100229677Y-146657056D01*
X100235040Y-146711507D01*
X100288952Y-146889230D01*
X100314236Y-146972580D01*
X100434103Y-147196834D01*
X100442844Y-147213188D01*
X100563330Y-147360000D01*
X100615919Y-147424080D01*
X100668765Y-147467450D01*
X101466314Y-148265000D01*
X86412279Y-148265000D01*
X86120340Y-148236375D01*
X85870571Y-148160965D01*
X85640206Y-148038477D01*
X85438021Y-147873579D01*
X85271712Y-147672546D01*
X85147622Y-147443046D01*
X85070469Y-147193805D01*
X85040000Y-146903911D01*
X85040000Y-143547285D01*
X85545000Y-143547285D01*
X85545000Y-144302715D01*
X85692377Y-145043628D01*
X85981467Y-145741554D01*
X86401161Y-146369670D01*
X86935330Y-146903839D01*
X87563446Y-147323533D01*
X88261372Y-147612623D01*
X89002285Y-147760000D01*
X89757715Y-147760000D01*
X90498628Y-147612623D01*
X91196554Y-147323533D01*
X91824670Y-146903839D01*
X92358839Y-146369670D01*
X92778533Y-145741554D01*
X93067623Y-145043628D01*
X93215000Y-144302715D01*
X93215000Y-143547285D01*
X93067623Y-142806372D01*
X92778533Y-142108446D01*
X92358839Y-141480330D01*
X91824670Y-140946161D01*
X91196554Y-140526467D01*
X90498628Y-140237377D01*
X89757715Y-140090000D01*
X89002285Y-140090000D01*
X88261372Y-140237377D01*
X87563446Y-140526467D01*
X86935330Y-140946161D01*
X86401161Y-141480330D01*
X85981467Y-142108446D01*
X85692377Y-142806372D01*
X85545000Y-143547285D01*
X85040000Y-143547285D01*
X85040000Y-136042787D01*
X89105000Y-136042787D01*
X89105000Y-136537213D01*
X89201458Y-137022140D01*
X89390667Y-137478931D01*
X89665356Y-137890032D01*
X90014968Y-138239644D01*
X90426069Y-138514333D01*
X90882860Y-138703542D01*
X91367787Y-138800000D01*
X91862213Y-138800000D01*
X92347140Y-138703542D01*
X92803931Y-138514333D01*
X93215032Y-138239644D01*
X93564644Y-137890032D01*
X93839333Y-137478931D01*
X94028542Y-137022140D01*
X94125000Y-136537213D01*
X94125000Y-136042787D01*
X94028542Y-135557860D01*
X93839333Y-135101069D01*
X93564644Y-134689968D01*
X93215032Y-134340356D01*
X92803931Y-134065667D01*
X92347140Y-133876458D01*
X91862213Y-133780000D01*
X91367787Y-133780000D01*
X90882860Y-133876458D01*
X90426069Y-134065667D01*
X90014968Y-134340356D01*
X89665356Y-134689968D01*
X89390667Y-135101069D01*
X89201458Y-135557860D01*
X89105000Y-136042787D01*
X85040000Y-136042787D01*
X85040000Y-131330475D01*
X85980000Y-131330475D01*
X85980000Y-131849525D01*
X86081261Y-132358601D01*
X86279893Y-132838141D01*
X86568262Y-133269715D01*
X86935285Y-133636738D01*
X87366859Y-133925107D01*
X87846399Y-134123739D01*
X88355475Y-134225000D01*
X88874525Y-134225000D01*
X89383601Y-134123739D01*
X89863141Y-133925107D01*
X90294715Y-133636738D01*
X90661738Y-133269715D01*
X90950107Y-132838141D01*
X91148739Y-132358601D01*
X91250000Y-131849525D01*
X91250000Y-131330475D01*
X91148739Y-130821399D01*
X90950107Y-130341859D01*
X90661738Y-129910285D01*
X90294715Y-129543262D01*
X89863141Y-129254893D01*
X89383601Y-129056261D01*
X88874525Y-128955000D01*
X88355475Y-128955000D01*
X87846399Y-129056261D01*
X87366859Y-129254893D01*
X86935285Y-129543262D01*
X86568262Y-129910285D01*
X86279893Y-130341859D01*
X86081261Y-130821399D01*
X85980000Y-131330475D01*
X85040000Y-131330475D01*
X85040000Y-123503061D01*
X90405000Y-123503061D01*
X90405000Y-123706939D01*
X90444774Y-123906898D01*
X90522795Y-124095256D01*
X90636063Y-124264774D01*
X90780226Y-124408937D01*
X90949744Y-124522205D01*
X91138102Y-124600226D01*
X91338061Y-124640000D01*
X91541939Y-124640000D01*
X91741898Y-124600226D01*
X91930256Y-124522205D01*
X91978454Y-124490000D01*
X92411928Y-124490000D01*
X92411928Y-124530001D01*
X92428992Y-124703255D01*
X92479528Y-124869851D01*
X92561595Y-125023387D01*
X92672038Y-125157962D01*
X92806613Y-125268405D01*
X92960149Y-125350472D01*
X93126745Y-125401008D01*
X93299999Y-125418072D01*
X94125001Y-125418072D01*
X94298255Y-125401008D01*
X94464851Y-125350472D01*
X94618387Y-125268405D01*
X94752962Y-125157962D01*
X94863405Y-125023387D01*
X94945472Y-124869851D01*
X94996008Y-124703255D01*
X95013072Y-124530001D01*
X95013072Y-122679999D01*
X94996008Y-122506745D01*
X94945472Y-122340149D01*
X94863405Y-122186613D01*
X94752962Y-122052038D01*
X94618387Y-121941595D01*
X94464851Y-121859528D01*
X94298255Y-121808992D01*
X94125001Y-121791928D01*
X93299999Y-121791928D01*
X93126745Y-121808992D01*
X92960149Y-121859528D01*
X92806613Y-121941595D01*
X92672038Y-122052038D01*
X92561595Y-122186613D01*
X92479528Y-122340149D01*
X92428992Y-122506745D01*
X92411928Y-122679999D01*
X92411928Y-122720000D01*
X91978454Y-122720000D01*
X91930256Y-122687795D01*
X91741898Y-122609774D01*
X91541939Y-122570000D01*
X91338061Y-122570000D01*
X91138102Y-122609774D01*
X90949744Y-122687795D01*
X90780226Y-122801063D01*
X90636063Y-122945226D01*
X90522795Y-123114744D01*
X90444774Y-123303102D01*
X90405000Y-123503061D01*
X85040000Y-123503061D01*
X85040000Y-112570000D01*
X109311928Y-112570000D01*
X109324188Y-112694482D01*
X109360498Y-112814180D01*
X109419463Y-112924494D01*
X109498815Y-113021185D01*
X109595506Y-113100537D01*
X109705820Y-113159502D01*
X109825518Y-113195812D01*
X109950000Y-113208072D01*
X110839250Y-113205000D01*
X110998000Y-113046250D01*
X110998000Y-112034500D01*
X111252000Y-112034500D01*
X111252000Y-113046250D01*
X111410750Y-113205000D01*
X112300000Y-113208072D01*
X112424482Y-113195812D01*
X112544180Y-113159502D01*
X112654494Y-113100537D01*
X112751185Y-113021185D01*
X112830537Y-112924494D01*
X112889502Y-112814180D01*
X112925812Y-112694482D01*
X112938072Y-112570000D01*
X112935000Y-112193250D01*
X112776250Y-112034500D01*
X111252000Y-112034500D01*
X110998000Y-112034500D01*
X109473750Y-112034500D01*
X109315000Y-112193250D01*
X109311928Y-112570000D01*
X85040000Y-112570000D01*
X85040000Y-111245000D01*
X109311928Y-111245000D01*
X109315000Y-111621750D01*
X109473750Y-111780500D01*
X110998000Y-111780500D01*
X110998000Y-110768750D01*
X111252000Y-110768750D01*
X111252000Y-111780500D01*
X112776250Y-111780500D01*
X112935000Y-111621750D01*
X112938072Y-111245000D01*
X112925812Y-111120518D01*
X112889502Y-111000820D01*
X112830537Y-110890506D01*
X112751185Y-110793815D01*
X112654494Y-110714463D01*
X112544180Y-110655498D01*
X112424482Y-110619188D01*
X112300000Y-110606928D01*
X111410750Y-110610000D01*
X111252000Y-110768750D01*
X110998000Y-110768750D01*
X110839250Y-110610000D01*
X109950000Y-110606928D01*
X109825518Y-110619188D01*
X109705820Y-110655498D01*
X109595506Y-110714463D01*
X109498815Y-110793815D01*
X109419463Y-110890506D01*
X109360498Y-111000820D01*
X109324188Y-111120518D01*
X109311928Y-111245000D01*
X85040000Y-111245000D01*
X85040000Y-108505000D01*
X101766928Y-108505000D01*
X101779188Y-108629482D01*
X101815498Y-108749180D01*
X101874463Y-108859494D01*
X101953815Y-108956185D01*
X102050506Y-109035537D01*
X102160820Y-109094502D01*
X102280518Y-109130812D01*
X102405000Y-109143072D01*
X103219250Y-109140000D01*
X103378000Y-108981250D01*
X103378000Y-107882000D01*
X103632000Y-107882000D01*
X103632000Y-108981250D01*
X103790750Y-109140000D01*
X104605000Y-109143072D01*
X104729482Y-109130812D01*
X104849180Y-109094502D01*
X104959494Y-109035537D01*
X105056185Y-108956185D01*
X105135537Y-108859494D01*
X105194502Y-108749180D01*
X105230812Y-108629482D01*
X105243072Y-108505000D01*
X105240000Y-108040750D01*
X105081250Y-107882000D01*
X103632000Y-107882000D01*
X103378000Y-107882000D01*
X101928750Y-107882000D01*
X101770000Y-108040750D01*
X101766928Y-108505000D01*
X85040000Y-108505000D01*
X85040000Y-103547285D01*
X85545000Y-103547285D01*
X85545000Y-104302715D01*
X85692377Y-105043628D01*
X85981467Y-105741554D01*
X86401161Y-106369670D01*
X86935330Y-106903839D01*
X87563446Y-107323533D01*
X88261372Y-107612623D01*
X89002285Y-107760000D01*
X89757715Y-107760000D01*
X90498628Y-107612623D01*
X91196554Y-107323533D01*
X91673271Y-107005000D01*
X101766928Y-107005000D01*
X101770000Y-107469250D01*
X101928750Y-107628000D01*
X103378000Y-107628000D01*
X103378000Y-106528750D01*
X103632000Y-106528750D01*
X103632000Y-107628000D01*
X105081250Y-107628000D01*
X105240000Y-107469250D01*
X105243072Y-107005000D01*
X105230812Y-106880518D01*
X105194502Y-106760820D01*
X105135537Y-106650506D01*
X105056185Y-106553815D01*
X104959494Y-106474463D01*
X104849180Y-106415498D01*
X104729482Y-106379188D01*
X104605000Y-106366928D01*
X103790750Y-106370000D01*
X103632000Y-106528750D01*
X103378000Y-106528750D01*
X103219250Y-106370000D01*
X102405000Y-106366928D01*
X102280518Y-106379188D01*
X102160820Y-106415498D01*
X102050506Y-106474463D01*
X101953815Y-106553815D01*
X101874463Y-106650506D01*
X101815498Y-106760820D01*
X101779188Y-106880518D01*
X101766928Y-107005000D01*
X91673271Y-107005000D01*
X91824670Y-106903839D01*
X92358839Y-106369670D01*
X92778533Y-105741554D01*
X93067623Y-105043628D01*
X93215000Y-104302715D01*
X93215000Y-103547285D01*
X93067623Y-102806372D01*
X92790940Y-102138397D01*
X96941208Y-102138397D01*
X97018843Y-102387472D01*
X97282883Y-102513371D01*
X97566411Y-102585339D01*
X97858531Y-102600611D01*
X98148019Y-102558599D01*
X98423747Y-102460919D01*
X98561157Y-102387472D01*
X98638792Y-102138397D01*
X97790000Y-101289605D01*
X96941208Y-102138397D01*
X92790940Y-102138397D01*
X92778533Y-102108446D01*
X92358839Y-101480330D01*
X92057040Y-101178531D01*
X96299389Y-101178531D01*
X96341401Y-101468019D01*
X96439081Y-101743747D01*
X96512528Y-101881157D01*
X96761603Y-101958792D01*
X97610395Y-101110000D01*
X97969605Y-101110000D01*
X98818397Y-101958792D01*
X99060689Y-101883271D01*
X99176525Y-102056632D01*
X99383368Y-102263475D01*
X99626589Y-102425990D01*
X99896842Y-102537932D01*
X100183740Y-102595000D01*
X100476260Y-102595000D01*
X100548961Y-102580539D01*
X102483470Y-104515049D01*
X102511183Y-104548817D01*
X102544951Y-104576530D01*
X102544953Y-104576532D01*
X102568905Y-104596189D01*
X102645941Y-104659411D01*
X102799687Y-104741589D01*
X102966510Y-104792195D01*
X103096523Y-104805000D01*
X103096533Y-104805000D01*
X103139999Y-104809281D01*
X103183465Y-104805000D01*
X104549843Y-104805000D01*
X106166973Y-106422131D01*
X106191551Y-106452079D01*
X106221499Y-106476657D01*
X106221502Y-106476660D01*
X106224277Y-106478937D01*
X106311082Y-106550177D01*
X106447455Y-106623069D01*
X106595428Y-106667956D01*
X106710754Y-106679315D01*
X106710761Y-106679315D01*
X106749314Y-106683112D01*
X106787867Y-106679315D01*
X109880604Y-106679315D01*
X109899541Y-106698252D01*
X110069059Y-106811520D01*
X110257417Y-106889541D01*
X110457376Y-106929315D01*
X110661254Y-106929315D01*
X110861213Y-106889541D01*
X111049571Y-106811520D01*
X111219089Y-106698252D01*
X111270836Y-106646505D01*
X111328102Y-106670226D01*
X111528061Y-106710000D01*
X111731939Y-106710000D01*
X111931898Y-106670226D01*
X112120256Y-106592205D01*
X112289774Y-106478937D01*
X112433937Y-106334774D01*
X112547205Y-106165256D01*
X112625226Y-105976898D01*
X112665000Y-105776939D01*
X112665000Y-105573061D01*
X112625226Y-105373102D01*
X112547205Y-105184744D01*
X112433937Y-105015226D01*
X112289774Y-104871063D01*
X112120256Y-104757795D01*
X111931898Y-104679774D01*
X111731939Y-104640000D01*
X111669802Y-104640000D01*
X110943804Y-103914003D01*
X110920001Y-103884999D01*
X110804276Y-103790026D01*
X110672247Y-103719454D01*
X110528986Y-103675997D01*
X110417333Y-103665000D01*
X110417322Y-103665000D01*
X110380000Y-103661324D01*
X110342678Y-103665000D01*
X106499802Y-103665000D01*
X105432874Y-102598072D01*
X106260000Y-102598072D01*
X106384482Y-102585812D01*
X106504180Y-102549502D01*
X106614494Y-102490537D01*
X106711185Y-102411185D01*
X106790537Y-102314494D01*
X106849502Y-102204180D01*
X106873966Y-102123534D01*
X106949731Y-102207588D01*
X107183080Y-102381641D01*
X107445901Y-102506825D01*
X107593110Y-102551476D01*
X107823000Y-102430155D01*
X107823000Y-101237000D01*
X107803000Y-101237000D01*
X107803000Y-100983000D01*
X107823000Y-100983000D01*
X107823000Y-99789845D01*
X108077000Y-99789845D01*
X108077000Y-100983000D01*
X108097000Y-100983000D01*
X108097000Y-101237000D01*
X108077000Y-101237000D01*
X108077000Y-102430155D01*
X108306890Y-102551476D01*
X108454099Y-102506825D01*
X108716920Y-102381641D01*
X108950269Y-102207588D01*
X109026034Y-102123534D01*
X109050498Y-102204180D01*
X109109463Y-102314494D01*
X109188815Y-102411185D01*
X109285506Y-102490537D01*
X109395820Y-102549502D01*
X109515518Y-102585812D01*
X109640000Y-102598072D01*
X111340000Y-102598072D01*
X111464482Y-102585812D01*
X111584180Y-102549502D01*
X111694494Y-102490537D01*
X111791185Y-102411185D01*
X111870537Y-102314494D01*
X111929502Y-102204180D01*
X111951513Y-102131620D01*
X112083368Y-102263475D01*
X112326589Y-102425990D01*
X112596842Y-102537932D01*
X112883740Y-102595000D01*
X113176260Y-102595000D01*
X113463158Y-102537932D01*
X113733411Y-102425990D01*
X113976632Y-102263475D01*
X114183475Y-102056632D01*
X114300000Y-101882240D01*
X114416525Y-102056632D01*
X114623368Y-102263475D01*
X114866589Y-102425990D01*
X115136842Y-102537932D01*
X115423740Y-102595000D01*
X115716260Y-102595000D01*
X116003158Y-102537932D01*
X116273411Y-102425990D01*
X116516632Y-102263475D01*
X116723475Y-102056632D01*
X116840000Y-101882240D01*
X116956525Y-102056632D01*
X117163368Y-102263475D01*
X117406589Y-102425990D01*
X117676842Y-102537932D01*
X117963740Y-102595000D01*
X118256260Y-102595000D01*
X118543158Y-102537932D01*
X118813411Y-102425990D01*
X119056632Y-102263475D01*
X119263475Y-102056632D01*
X119380000Y-101882240D01*
X119496525Y-102056632D01*
X119703368Y-102263475D01*
X119946589Y-102425990D01*
X120216842Y-102537932D01*
X120503740Y-102595000D01*
X120796260Y-102595000D01*
X121083158Y-102537932D01*
X121353411Y-102425990D01*
X121596632Y-102263475D01*
X121803475Y-102056632D01*
X121965990Y-101813411D01*
X122077932Y-101543158D01*
X122135000Y-101256260D01*
X122135000Y-100963740D01*
X122077932Y-100676842D01*
X121965990Y-100406589D01*
X121803475Y-100163368D01*
X121596632Y-99956525D01*
X121353411Y-99794010D01*
X121083158Y-99682068D01*
X120796260Y-99625000D01*
X120503740Y-99625000D01*
X120216842Y-99682068D01*
X119946589Y-99794010D01*
X119703368Y-99956525D01*
X119496525Y-100163368D01*
X119380000Y-100337760D01*
X119263475Y-100163368D01*
X119056632Y-99956525D01*
X118813411Y-99794010D01*
X118543158Y-99682068D01*
X118256260Y-99625000D01*
X117963740Y-99625000D01*
X117676842Y-99682068D01*
X117406589Y-99794010D01*
X117163368Y-99956525D01*
X116956525Y-100163368D01*
X116840000Y-100337760D01*
X116723475Y-100163368D01*
X116516632Y-99956525D01*
X116273411Y-99794010D01*
X116003158Y-99682068D01*
X115716260Y-99625000D01*
X115423740Y-99625000D01*
X115136842Y-99682068D01*
X114866589Y-99794010D01*
X114623368Y-99956525D01*
X114416525Y-100163368D01*
X114300000Y-100337760D01*
X114183475Y-100163368D01*
X113976632Y-99956525D01*
X113733411Y-99794010D01*
X113463158Y-99682068D01*
X113176260Y-99625000D01*
X112883740Y-99625000D01*
X112596842Y-99682068D01*
X112326589Y-99794010D01*
X112083368Y-99956525D01*
X111951513Y-100088380D01*
X111929502Y-100015820D01*
X111870537Y-99905506D01*
X111791185Y-99808815D01*
X111694494Y-99729463D01*
X111584180Y-99670498D01*
X111464482Y-99634188D01*
X111340000Y-99621928D01*
X109640000Y-99621928D01*
X109515518Y-99634188D01*
X109395820Y-99670498D01*
X109285506Y-99729463D01*
X109188815Y-99808815D01*
X109109463Y-99905506D01*
X109050498Y-100015820D01*
X109026034Y-100096466D01*
X108950269Y-100012412D01*
X108716920Y-99838359D01*
X108454099Y-99713175D01*
X108306890Y-99668524D01*
X108077000Y-99789845D01*
X107823000Y-99789845D01*
X107593110Y-99668524D01*
X107445901Y-99713175D01*
X107183080Y-99838359D01*
X106949731Y-100012412D01*
X106873966Y-100096466D01*
X106849502Y-100015820D01*
X106790537Y-99905506D01*
X106711185Y-99808815D01*
X106614494Y-99729463D01*
X106504180Y-99670498D01*
X106384482Y-99634188D01*
X106260000Y-99621928D01*
X104560000Y-99621928D01*
X104435518Y-99634188D01*
X104315820Y-99670498D01*
X104205506Y-99729463D01*
X104108815Y-99808815D01*
X104029463Y-99905506D01*
X103970498Y-100015820D01*
X103948487Y-100088380D01*
X103816632Y-99956525D01*
X103573411Y-99794010D01*
X103303158Y-99682068D01*
X103016260Y-99625000D01*
X102723740Y-99625000D01*
X102436842Y-99682068D01*
X102166589Y-99794010D01*
X101923368Y-99956525D01*
X101716525Y-100163368D01*
X101600000Y-100337760D01*
X101483475Y-100163368D01*
X101276632Y-99956525D01*
X101033411Y-99794010D01*
X100763158Y-99682068D01*
X100476260Y-99625000D01*
X100183740Y-99625000D01*
X99896842Y-99682068D01*
X99626589Y-99794010D01*
X99383368Y-99956525D01*
X99176525Y-100163368D01*
X99060689Y-100336729D01*
X98818397Y-100261208D01*
X97969605Y-101110000D01*
X97610395Y-101110000D01*
X96761603Y-100261208D01*
X96512528Y-100338843D01*
X96386629Y-100602883D01*
X96314661Y-100886411D01*
X96299389Y-101178531D01*
X92057040Y-101178531D01*
X91824670Y-100946161D01*
X91196554Y-100526467D01*
X90498628Y-100237377D01*
X89757715Y-100090000D01*
X89002285Y-100090000D01*
X88261372Y-100237377D01*
X87563446Y-100526467D01*
X86935330Y-100946161D01*
X86401161Y-101480330D01*
X85981467Y-102108446D01*
X85692377Y-102806372D01*
X85545000Y-103547285D01*
X85040000Y-103547285D01*
X85040000Y-100957279D01*
X85068625Y-100665341D01*
X85144035Y-100415571D01*
X85266522Y-100185208D01*
X85351019Y-100081603D01*
X96941208Y-100081603D01*
X97790000Y-100930395D01*
X98638792Y-100081603D01*
X98561157Y-99832528D01*
X98297117Y-99706629D01*
X98013589Y-99634661D01*
X97721469Y-99619389D01*
X97431981Y-99661401D01*
X97156253Y-99759081D01*
X97018843Y-99832528D01*
X96941208Y-100081603D01*
X85351019Y-100081603D01*
X85431422Y-99983020D01*
X85632450Y-99816714D01*
X85861954Y-99692622D01*
X86111195Y-99615469D01*
X86401088Y-99585000D01*
X121847721Y-99585000D01*
X122139659Y-99613625D01*
G37*
%TD.AperFunction*%
%TD*%
D31*
%TO.N,GND*%
X141245000Y-107129250D02*
X141403750Y-107288000D01*
X142503000Y-107288000D01*
X142503000Y-107268000D01*
X142757000Y-107268000D01*
X142757000Y-107288000D01*
X142777000Y-107288000D01*
X142777000Y-107542000D01*
X142757000Y-107542000D01*
X142757000Y-107562000D01*
X142503000Y-107562000D01*
X142503000Y-107542000D01*
X141403750Y-107542000D01*
X141245000Y-107700750D01*
X141241928Y-107865000D01*
X141254188Y-107989482D01*
X141272546Y-108050000D01*
X141254188Y-108110518D01*
X141241928Y-108235000D01*
X141241928Y-109135000D01*
X141247837Y-109195000D01*
X140787322Y-109195000D01*
X140749999Y-109191324D01*
X140712676Y-109195000D01*
X140712667Y-109195000D01*
X140601014Y-109205997D01*
X140457753Y-109249454D01*
X140325723Y-109320026D01*
X140252014Y-109380518D01*
X140209999Y-109414999D01*
X140186200Y-109443998D01*
X139569002Y-110061197D01*
X139539999Y-110084999D01*
X139493775Y-110141324D01*
X139445026Y-110200724D01*
X139407983Y-110270026D01*
X139374454Y-110332754D01*
X139330997Y-110476015D01*
X139320000Y-110587668D01*
X139320000Y-110587678D01*
X139316324Y-110625000D01*
X139320000Y-110662322D01*
X139320001Y-123387668D01*
X139316324Y-123425000D01*
X139320001Y-123462333D01*
X139329721Y-123561015D01*
X139330998Y-123573985D01*
X139374454Y-123717246D01*
X139411700Y-123786928D01*
X139140000Y-123786928D01*
X139015518Y-123799188D01*
X138955000Y-123817546D01*
X138894482Y-123799188D01*
X138770000Y-123786928D01*
X137870000Y-123786928D01*
X137745518Y-123799188D01*
X137685000Y-123817546D01*
X137624482Y-123799188D01*
X137500000Y-123786928D01*
X136600000Y-123786928D01*
X136475518Y-123799188D01*
X136415000Y-123817546D01*
X136354482Y-123799188D01*
X136230000Y-123786928D01*
X135330000Y-123786928D01*
X135205518Y-123799188D01*
X135145000Y-123817546D01*
X135084482Y-123799188D01*
X134960000Y-123786928D01*
X134060000Y-123786928D01*
X133935518Y-123799188D01*
X133875000Y-123817546D01*
X133814482Y-123799188D01*
X133690000Y-123786928D01*
X132790000Y-123786928D01*
X132665518Y-123799188D01*
X132605000Y-123817546D01*
X132544482Y-123799188D01*
X132420000Y-123786928D01*
X131520000Y-123786928D01*
X131395518Y-123799188D01*
X131335000Y-123817546D01*
X131274482Y-123799188D01*
X131150000Y-123786928D01*
X130250000Y-123786928D01*
X130125518Y-123799188D01*
X130065000Y-123817546D01*
X130004482Y-123799188D01*
X129880000Y-123786928D01*
X128980000Y-123786928D01*
X128855518Y-123799188D01*
X128795000Y-123817546D01*
X128734482Y-123799188D01*
X128610000Y-123786928D01*
X128445750Y-123790000D01*
X128287000Y-123948750D01*
X128287000Y-125048000D01*
X128307000Y-125048000D01*
X128307000Y-125302000D01*
X128287000Y-125302000D01*
X128287000Y-125322000D01*
X128033000Y-125322000D01*
X128033000Y-125302000D01*
X127233750Y-125302000D01*
X127075000Y-125460750D01*
X127074423Y-125548000D01*
X124757000Y-125548000D01*
X124757000Y-125013072D01*
X125880000Y-125013072D01*
X126004482Y-125000812D01*
X126124180Y-124964502D01*
X126234494Y-124905537D01*
X126331185Y-124826185D01*
X126410537Y-124729494D01*
X126469502Y-124619180D01*
X126505812Y-124499482D01*
X126513147Y-124425000D01*
X127071928Y-124425000D01*
X127075000Y-124889250D01*
X127233750Y-125048000D01*
X128033000Y-125048000D01*
X128033000Y-123948750D01*
X127874250Y-123790000D01*
X127710000Y-123786928D01*
X127585518Y-123799188D01*
X127465820Y-123835498D01*
X127355506Y-123894463D01*
X127258815Y-123973815D01*
X127179463Y-124070506D01*
X127120498Y-124180820D01*
X127084188Y-124300518D01*
X127071928Y-124425000D01*
X126513147Y-124425000D01*
X126518072Y-124375000D01*
X126518072Y-123475000D01*
X126505812Y-123350518D01*
X126487454Y-123290000D01*
X126505812Y-123229482D01*
X126518072Y-123105000D01*
X126518072Y-122205000D01*
X126505812Y-122080518D01*
X126487454Y-122020000D01*
X126505812Y-121959482D01*
X126518072Y-121835000D01*
X126518072Y-120935000D01*
X126505812Y-120810518D01*
X126487454Y-120750000D01*
X126505812Y-120689482D01*
X126518072Y-120565000D01*
X126518072Y-119665000D01*
X126505812Y-119540518D01*
X126487454Y-119480000D01*
X126505812Y-119419482D01*
X126518072Y-119295000D01*
X126518072Y-118395000D01*
X126505812Y-118270518D01*
X126487454Y-118210000D01*
X126505812Y-118149482D01*
X126518072Y-118025000D01*
X126518072Y-117125000D01*
X126505812Y-117000518D01*
X126487454Y-116940000D01*
X126505812Y-116879482D01*
X126513147Y-116805000D01*
X130511928Y-116805000D01*
X130524188Y-116929482D01*
X130560498Y-117049180D01*
X130619463Y-117159494D01*
X130698815Y-117256185D01*
X130795506Y-117335537D01*
X130905820Y-117394502D01*
X131025518Y-117430812D01*
X131150000Y-117443072D01*
X131389250Y-117440000D01*
X131548000Y-117281250D01*
X131548000Y-116407000D01*
X131802000Y-116407000D01*
X131802000Y-117281250D01*
X131960750Y-117440000D01*
X132200000Y-117443072D01*
X132324482Y-117430812D01*
X132437500Y-117396528D01*
X132550518Y-117430812D01*
X132675000Y-117443072D01*
X132914250Y-117440000D01*
X133073000Y-117281250D01*
X133073000Y-116407000D01*
X133327000Y-116407000D01*
X133327000Y-117281250D01*
X133485750Y-117440000D01*
X133725000Y-117443072D01*
X133849482Y-117430812D01*
X133962500Y-117396528D01*
X134075518Y-117430812D01*
X134200000Y-117443072D01*
X134439250Y-117440000D01*
X134598000Y-117281250D01*
X134598000Y-116407000D01*
X134852000Y-116407000D01*
X134852000Y-117281250D01*
X135010750Y-117440000D01*
X135250000Y-117443072D01*
X135374482Y-117430812D01*
X135494180Y-117394502D01*
X135604494Y-117335537D01*
X135701185Y-117256185D01*
X135780537Y-117159494D01*
X135839502Y-117049180D01*
X135875812Y-116929482D01*
X135888072Y-116805000D01*
X135885000Y-116565750D01*
X135726250Y-116407000D01*
X134852000Y-116407000D01*
X134598000Y-116407000D01*
X133327000Y-116407000D01*
X133073000Y-116407000D01*
X131802000Y-116407000D01*
X131548000Y-116407000D01*
X130673750Y-116407000D01*
X130515000Y-116565750D01*
X130511928Y-116805000D01*
X126513147Y-116805000D01*
X126518072Y-116755000D01*
X126518072Y-115855000D01*
X126505812Y-115730518D01*
X126487454Y-115670000D01*
X126505812Y-115609482D01*
X126518072Y-115485000D01*
X126518072Y-115280000D01*
X130511928Y-115280000D01*
X130524188Y-115404482D01*
X130558472Y-115517500D01*
X130524188Y-115630518D01*
X130511928Y-115755000D01*
X130515000Y-115994250D01*
X130673750Y-116153000D01*
X131548000Y-116153000D01*
X131548000Y-114882000D01*
X131802000Y-114882000D01*
X131802000Y-116153000D01*
X133073000Y-116153000D01*
X133073000Y-114882000D01*
X133327000Y-114882000D01*
X133327000Y-116153000D01*
X134598000Y-116153000D01*
X134598000Y-114882000D01*
X134852000Y-114882000D01*
X134852000Y-116153000D01*
X135726250Y-116153000D01*
X135885000Y-115994250D01*
X135888072Y-115755000D01*
X135875812Y-115630518D01*
X135841528Y-115517500D01*
X135875812Y-115404482D01*
X135888072Y-115280000D01*
X135885000Y-115040750D01*
X135726250Y-114882000D01*
X134852000Y-114882000D01*
X134598000Y-114882000D01*
X133327000Y-114882000D01*
X133073000Y-114882000D01*
X131802000Y-114882000D01*
X131548000Y-114882000D01*
X130673750Y-114882000D01*
X130515000Y-115040750D01*
X130511928Y-115280000D01*
X126518072Y-115280000D01*
X126518072Y-114585000D01*
X126505812Y-114460518D01*
X126487454Y-114400000D01*
X126505812Y-114339482D01*
X126518072Y-114215000D01*
X126518072Y-113755000D01*
X130511928Y-113755000D01*
X130524188Y-113879482D01*
X130558472Y-113992500D01*
X130524188Y-114105518D01*
X130511928Y-114230000D01*
X130515000Y-114469250D01*
X130673750Y-114628000D01*
X131548000Y-114628000D01*
X131548000Y-113357000D01*
X131802000Y-113357000D01*
X131802000Y-114628000D01*
X133073000Y-114628000D01*
X133073000Y-113357000D01*
X133327000Y-113357000D01*
X133327000Y-114628000D01*
X134598000Y-114628000D01*
X134598000Y-113357000D01*
X134852000Y-113357000D01*
X134852000Y-114628000D01*
X135726250Y-114628000D01*
X135885000Y-114469250D01*
X135888072Y-114230000D01*
X135875812Y-114105518D01*
X135841528Y-113992500D01*
X135875812Y-113879482D01*
X135888072Y-113755000D01*
X135885000Y-113515750D01*
X135726250Y-113357000D01*
X134852000Y-113357000D01*
X134598000Y-113357000D01*
X133327000Y-113357000D01*
X133073000Y-113357000D01*
X131802000Y-113357000D01*
X131548000Y-113357000D01*
X130673750Y-113357000D01*
X130515000Y-113515750D01*
X130511928Y-113755000D01*
X126518072Y-113755000D01*
X126518072Y-113315000D01*
X126505812Y-113190518D01*
X126487454Y-113130000D01*
X126505812Y-113069482D01*
X126518072Y-112945000D01*
X126518072Y-112705000D01*
X130511928Y-112705000D01*
X130515000Y-112944250D01*
X130673750Y-113103000D01*
X131548000Y-113103000D01*
X131548000Y-112228750D01*
X131802000Y-112228750D01*
X131802000Y-113103000D01*
X133073000Y-113103000D01*
X133073000Y-112228750D01*
X133327000Y-112228750D01*
X133327000Y-113103000D01*
X134598000Y-113103000D01*
X134598000Y-112228750D01*
X134852000Y-112228750D01*
X134852000Y-113103000D01*
X135726250Y-113103000D01*
X135885000Y-112944250D01*
X135888072Y-112705000D01*
X135875812Y-112580518D01*
X135839502Y-112460820D01*
X135780537Y-112350506D01*
X135701185Y-112253815D01*
X135604494Y-112174463D01*
X135494180Y-112115498D01*
X135374482Y-112079188D01*
X135250000Y-112066928D01*
X135010750Y-112070000D01*
X134852000Y-112228750D01*
X134598000Y-112228750D01*
X134439250Y-112070000D01*
X134200000Y-112066928D01*
X134075518Y-112079188D01*
X133962500Y-112113472D01*
X133849482Y-112079188D01*
X133725000Y-112066928D01*
X133485750Y-112070000D01*
X133327000Y-112228750D01*
X133073000Y-112228750D01*
X132914250Y-112070000D01*
X132675000Y-112066928D01*
X132550518Y-112079188D01*
X132437500Y-112113472D01*
X132324482Y-112079188D01*
X132200000Y-112066928D01*
X131960750Y-112070000D01*
X131802000Y-112228750D01*
X131548000Y-112228750D01*
X131389250Y-112070000D01*
X131150000Y-112066928D01*
X131025518Y-112079188D01*
X130905820Y-112115498D01*
X130795506Y-112174463D01*
X130698815Y-112253815D01*
X130619463Y-112350506D01*
X130560498Y-112460820D01*
X130524188Y-112580518D01*
X130511928Y-112705000D01*
X126518072Y-112705000D01*
X126518072Y-112045000D01*
X126505812Y-111920518D01*
X126487454Y-111860000D01*
X126505812Y-111799482D01*
X126518072Y-111675000D01*
X126518072Y-111294829D01*
X126666898Y-111265226D01*
X126855256Y-111187205D01*
X127024774Y-111073937D01*
X127168937Y-110929774D01*
X127282205Y-110760256D01*
X127360226Y-110571898D01*
X127400000Y-110371939D01*
X127400000Y-110168061D01*
X127360226Y-109968102D01*
X127282205Y-109779744D01*
X127168937Y-109610226D01*
X127024774Y-109466063D01*
X126855256Y-109352795D01*
X126666898Y-109274774D01*
X126507430Y-109243054D01*
X126518072Y-109135000D01*
X126518072Y-108235000D01*
X126505812Y-108110518D01*
X126487454Y-108050000D01*
X126505812Y-107989482D01*
X126518072Y-107865000D01*
X126515000Y-107700750D01*
X126356250Y-107542000D01*
X125257000Y-107542000D01*
X125257000Y-107562000D01*
X125003000Y-107562000D01*
X125003000Y-107542000D01*
X124983000Y-107542000D01*
X124983000Y-107288000D01*
X125003000Y-107288000D01*
X125003000Y-107268000D01*
X125257000Y-107268000D01*
X125257000Y-107288000D01*
X126356250Y-107288000D01*
X126515000Y-107129250D01*
X126516445Y-107052000D01*
X141243555Y-107052000D01*
X141245000Y-107129250D01*
%TA.AperFunction,Conductor*%
D32*
G36*
X141245000Y-107129250D02*
G01*
X141403750Y-107288000D01*
X142503000Y-107288000D01*
X142503000Y-107268000D01*
X142757000Y-107268000D01*
X142757000Y-107288000D01*
X142777000Y-107288000D01*
X142777000Y-107542000D01*
X142757000Y-107542000D01*
X142757000Y-107562000D01*
X142503000Y-107562000D01*
X142503000Y-107542000D01*
X141403750Y-107542000D01*
X141245000Y-107700750D01*
X141241928Y-107865000D01*
X141254188Y-107989482D01*
X141272546Y-108050000D01*
X141254188Y-108110518D01*
X141241928Y-108235000D01*
X141241928Y-109135000D01*
X141247837Y-109195000D01*
X140787322Y-109195000D01*
X140749999Y-109191324D01*
X140712676Y-109195000D01*
X140712667Y-109195000D01*
X140601014Y-109205997D01*
X140457753Y-109249454D01*
X140325723Y-109320026D01*
X140252014Y-109380518D01*
X140209999Y-109414999D01*
X140186200Y-109443998D01*
X139569002Y-110061197D01*
X139539999Y-110084999D01*
X139493775Y-110141324D01*
X139445026Y-110200724D01*
X139407983Y-110270026D01*
X139374454Y-110332754D01*
X139330997Y-110476015D01*
X139320000Y-110587668D01*
X139320000Y-110587678D01*
X139316324Y-110625000D01*
X139320000Y-110662322D01*
X139320001Y-123387668D01*
X139316324Y-123425000D01*
X139320001Y-123462333D01*
X139329721Y-123561015D01*
X139330998Y-123573985D01*
X139374454Y-123717246D01*
X139411700Y-123786928D01*
X139140000Y-123786928D01*
X139015518Y-123799188D01*
X138955000Y-123817546D01*
X138894482Y-123799188D01*
X138770000Y-123786928D01*
X137870000Y-123786928D01*
X137745518Y-123799188D01*
X137685000Y-123817546D01*
X137624482Y-123799188D01*
X137500000Y-123786928D01*
X136600000Y-123786928D01*
X136475518Y-123799188D01*
X136415000Y-123817546D01*
X136354482Y-123799188D01*
X136230000Y-123786928D01*
X135330000Y-123786928D01*
X135205518Y-123799188D01*
X135145000Y-123817546D01*
X135084482Y-123799188D01*
X134960000Y-123786928D01*
X134060000Y-123786928D01*
X133935518Y-123799188D01*
X133875000Y-123817546D01*
X133814482Y-123799188D01*
X133690000Y-123786928D01*
X132790000Y-123786928D01*
X132665518Y-123799188D01*
X132605000Y-123817546D01*
X132544482Y-123799188D01*
X132420000Y-123786928D01*
X131520000Y-123786928D01*
X131395518Y-123799188D01*
X131335000Y-123817546D01*
X131274482Y-123799188D01*
X131150000Y-123786928D01*
X130250000Y-123786928D01*
X130125518Y-123799188D01*
X130065000Y-123817546D01*
X130004482Y-123799188D01*
X129880000Y-123786928D01*
X128980000Y-123786928D01*
X128855518Y-123799188D01*
X128795000Y-123817546D01*
X128734482Y-123799188D01*
X128610000Y-123786928D01*
X128445750Y-123790000D01*
X128287000Y-123948750D01*
X128287000Y-125048000D01*
X128307000Y-125048000D01*
X128307000Y-125302000D01*
X128287000Y-125302000D01*
X128287000Y-125322000D01*
X128033000Y-125322000D01*
X128033000Y-125302000D01*
X127233750Y-125302000D01*
X127075000Y-125460750D01*
X127074423Y-125548000D01*
X124757000Y-125548000D01*
X124757000Y-125013072D01*
X125880000Y-125013072D01*
X126004482Y-125000812D01*
X126124180Y-124964502D01*
X126234494Y-124905537D01*
X126331185Y-124826185D01*
X126410537Y-124729494D01*
X126469502Y-124619180D01*
X126505812Y-124499482D01*
X126513147Y-124425000D01*
X127071928Y-124425000D01*
X127075000Y-124889250D01*
X127233750Y-125048000D01*
X128033000Y-125048000D01*
X128033000Y-123948750D01*
X127874250Y-123790000D01*
X127710000Y-123786928D01*
X127585518Y-123799188D01*
X127465820Y-123835498D01*
X127355506Y-123894463D01*
X127258815Y-123973815D01*
X127179463Y-124070506D01*
X127120498Y-124180820D01*
X127084188Y-124300518D01*
X127071928Y-124425000D01*
X126513147Y-124425000D01*
X126518072Y-124375000D01*
X126518072Y-123475000D01*
X126505812Y-123350518D01*
X126487454Y-123290000D01*
X126505812Y-123229482D01*
X126518072Y-123105000D01*
X126518072Y-122205000D01*
X126505812Y-122080518D01*
X126487454Y-122020000D01*
X126505812Y-121959482D01*
X126518072Y-121835000D01*
X126518072Y-120935000D01*
X126505812Y-120810518D01*
X126487454Y-120750000D01*
X126505812Y-120689482D01*
X126518072Y-120565000D01*
X126518072Y-119665000D01*
X126505812Y-119540518D01*
X126487454Y-119480000D01*
X126505812Y-119419482D01*
X126518072Y-119295000D01*
X126518072Y-118395000D01*
X126505812Y-118270518D01*
X126487454Y-118210000D01*
X126505812Y-118149482D01*
X126518072Y-118025000D01*
X126518072Y-117125000D01*
X126505812Y-117000518D01*
X126487454Y-116940000D01*
X126505812Y-116879482D01*
X126513147Y-116805000D01*
X130511928Y-116805000D01*
X130524188Y-116929482D01*
X130560498Y-117049180D01*
X130619463Y-117159494D01*
X130698815Y-117256185D01*
X130795506Y-117335537D01*
X130905820Y-117394502D01*
X131025518Y-117430812D01*
X131150000Y-117443072D01*
X131389250Y-117440000D01*
X131548000Y-117281250D01*
X131548000Y-116407000D01*
X131802000Y-116407000D01*
X131802000Y-117281250D01*
X131960750Y-117440000D01*
X132200000Y-117443072D01*
X132324482Y-117430812D01*
X132437500Y-117396528D01*
X132550518Y-117430812D01*
X132675000Y-117443072D01*
X132914250Y-117440000D01*
X133073000Y-117281250D01*
X133073000Y-116407000D01*
X133327000Y-116407000D01*
X133327000Y-117281250D01*
X133485750Y-117440000D01*
X133725000Y-117443072D01*
X133849482Y-117430812D01*
X133962500Y-117396528D01*
X134075518Y-117430812D01*
X134200000Y-117443072D01*
X134439250Y-117440000D01*
X134598000Y-117281250D01*
X134598000Y-116407000D01*
X134852000Y-116407000D01*
X134852000Y-117281250D01*
X135010750Y-117440000D01*
X135250000Y-117443072D01*
X135374482Y-117430812D01*
X135494180Y-117394502D01*
X135604494Y-117335537D01*
X135701185Y-117256185D01*
X135780537Y-117159494D01*
X135839502Y-117049180D01*
X135875812Y-116929482D01*
X135888072Y-116805000D01*
X135885000Y-116565750D01*
X135726250Y-116407000D01*
X134852000Y-116407000D01*
X134598000Y-116407000D01*
X133327000Y-116407000D01*
X133073000Y-116407000D01*
X131802000Y-116407000D01*
X131548000Y-116407000D01*
X130673750Y-116407000D01*
X130515000Y-116565750D01*
X130511928Y-116805000D01*
X126513147Y-116805000D01*
X126518072Y-116755000D01*
X126518072Y-115855000D01*
X126505812Y-115730518D01*
X126487454Y-115670000D01*
X126505812Y-115609482D01*
X126518072Y-115485000D01*
X126518072Y-115280000D01*
X130511928Y-115280000D01*
X130524188Y-115404482D01*
X130558472Y-115517500D01*
X130524188Y-115630518D01*
X130511928Y-115755000D01*
X130515000Y-115994250D01*
X130673750Y-116153000D01*
X131548000Y-116153000D01*
X131548000Y-114882000D01*
X131802000Y-114882000D01*
X131802000Y-116153000D01*
X133073000Y-116153000D01*
X133073000Y-114882000D01*
X133327000Y-114882000D01*
X133327000Y-116153000D01*
X134598000Y-116153000D01*
X134598000Y-114882000D01*
X134852000Y-114882000D01*
X134852000Y-116153000D01*
X135726250Y-116153000D01*
X135885000Y-115994250D01*
X135888072Y-115755000D01*
X135875812Y-115630518D01*
X135841528Y-115517500D01*
X135875812Y-115404482D01*
X135888072Y-115280000D01*
X135885000Y-115040750D01*
X135726250Y-114882000D01*
X134852000Y-114882000D01*
X134598000Y-114882000D01*
X133327000Y-114882000D01*
X133073000Y-114882000D01*
X131802000Y-114882000D01*
X131548000Y-114882000D01*
X130673750Y-114882000D01*
X130515000Y-115040750D01*
X130511928Y-115280000D01*
X126518072Y-115280000D01*
X126518072Y-114585000D01*
X126505812Y-114460518D01*
X126487454Y-114400000D01*
X126505812Y-114339482D01*
X126518072Y-114215000D01*
X126518072Y-113755000D01*
X130511928Y-113755000D01*
X130524188Y-113879482D01*
X130558472Y-113992500D01*
X130524188Y-114105518D01*
X130511928Y-114230000D01*
X130515000Y-114469250D01*
X130673750Y-114628000D01*
X131548000Y-114628000D01*
X131548000Y-113357000D01*
X131802000Y-113357000D01*
X131802000Y-114628000D01*
X133073000Y-114628000D01*
X133073000Y-113357000D01*
X133327000Y-113357000D01*
X133327000Y-114628000D01*
X134598000Y-114628000D01*
X134598000Y-113357000D01*
X134852000Y-113357000D01*
X134852000Y-114628000D01*
X135726250Y-114628000D01*
X135885000Y-114469250D01*
X135888072Y-114230000D01*
X135875812Y-114105518D01*
X135841528Y-113992500D01*
X135875812Y-113879482D01*
X135888072Y-113755000D01*
X135885000Y-113515750D01*
X135726250Y-113357000D01*
X134852000Y-113357000D01*
X134598000Y-113357000D01*
X133327000Y-113357000D01*
X133073000Y-113357000D01*
X131802000Y-113357000D01*
X131548000Y-113357000D01*
X130673750Y-113357000D01*
X130515000Y-113515750D01*
X130511928Y-113755000D01*
X126518072Y-113755000D01*
X126518072Y-113315000D01*
X126505812Y-113190518D01*
X126487454Y-113130000D01*
X126505812Y-113069482D01*
X126518072Y-112945000D01*
X126518072Y-112705000D01*
X130511928Y-112705000D01*
X130515000Y-112944250D01*
X130673750Y-113103000D01*
X131548000Y-113103000D01*
X131548000Y-112228750D01*
X131802000Y-112228750D01*
X131802000Y-113103000D01*
X133073000Y-113103000D01*
X133073000Y-112228750D01*
X133327000Y-112228750D01*
X133327000Y-113103000D01*
X134598000Y-113103000D01*
X134598000Y-112228750D01*
X134852000Y-112228750D01*
X134852000Y-113103000D01*
X135726250Y-113103000D01*
X135885000Y-112944250D01*
X135888072Y-112705000D01*
X135875812Y-112580518D01*
X135839502Y-112460820D01*
X135780537Y-112350506D01*
X135701185Y-112253815D01*
X135604494Y-112174463D01*
X135494180Y-112115498D01*
X135374482Y-112079188D01*
X135250000Y-112066928D01*
X135010750Y-112070000D01*
X134852000Y-112228750D01*
X134598000Y-112228750D01*
X134439250Y-112070000D01*
X134200000Y-112066928D01*
X134075518Y-112079188D01*
X133962500Y-112113472D01*
X133849482Y-112079188D01*
X133725000Y-112066928D01*
X133485750Y-112070000D01*
X133327000Y-112228750D01*
X133073000Y-112228750D01*
X132914250Y-112070000D01*
X132675000Y-112066928D01*
X132550518Y-112079188D01*
X132437500Y-112113472D01*
X132324482Y-112079188D01*
X132200000Y-112066928D01*
X131960750Y-112070000D01*
X131802000Y-112228750D01*
X131548000Y-112228750D01*
X131389250Y-112070000D01*
X131150000Y-112066928D01*
X131025518Y-112079188D01*
X130905820Y-112115498D01*
X130795506Y-112174463D01*
X130698815Y-112253815D01*
X130619463Y-112350506D01*
X130560498Y-112460820D01*
X130524188Y-112580518D01*
X130511928Y-112705000D01*
X126518072Y-112705000D01*
X126518072Y-112045000D01*
X126505812Y-111920518D01*
X126487454Y-111860000D01*
X126505812Y-111799482D01*
X126518072Y-111675000D01*
X126518072Y-111294829D01*
X126666898Y-111265226D01*
X126855256Y-111187205D01*
X127024774Y-111073937D01*
X127168937Y-110929774D01*
X127282205Y-110760256D01*
X127360226Y-110571898D01*
X127400000Y-110371939D01*
X127400000Y-110168061D01*
X127360226Y-109968102D01*
X127282205Y-109779744D01*
X127168937Y-109610226D01*
X127024774Y-109466063D01*
X126855256Y-109352795D01*
X126666898Y-109274774D01*
X126507430Y-109243054D01*
X126518072Y-109135000D01*
X126518072Y-108235000D01*
X126505812Y-108110518D01*
X126487454Y-108050000D01*
X126505812Y-107989482D01*
X126518072Y-107865000D01*
X126515000Y-107700750D01*
X126356250Y-107542000D01*
X125257000Y-107542000D01*
X125257000Y-107562000D01*
X125003000Y-107562000D01*
X125003000Y-107542000D01*
X124983000Y-107542000D01*
X124983000Y-107288000D01*
X125003000Y-107288000D01*
X125003000Y-107268000D01*
X125257000Y-107268000D01*
X125257000Y-107288000D01*
X126356250Y-107288000D01*
X126515000Y-107129250D01*
X126516445Y-107052000D01*
X141243555Y-107052000D01*
X141245000Y-107129250D01*
G37*
%TD.AperFunction*%
%TD*%
D31*
%TO.N,GND*%
X135753000Y-117298000D02*
X130757000Y-117298000D01*
X130757000Y-112302000D01*
X135753000Y-112302000D01*
X135753000Y-117298000D01*
%TA.AperFunction,Conductor*%
D32*
G36*
X135753000Y-117298000D02*
G01*
X130757000Y-117298000D01*
X130757000Y-112302000D01*
X135753000Y-112302000D01*
X135753000Y-117298000D01*
G37*
%TD.AperFunction*%
%TD*%
M02*
