%TF.GenerationSoftware,KiCad,Pcbnew,(5.1.9)-1*%
%TF.CreationDate,2021-11-10T22:47:00+01:00*%
%TF.ProjectId,ESP32_Tasmota_Fan,45535033-325f-4546-9173-6d6f74615f46,rev?*%
%TF.SameCoordinates,Original*%
%TF.FileFunction,Copper,L2,Bot*%
%TF.FilePolarity,Positive*%
%FSLAX46Y46*%
G04 Gerber Fmt 4.6, Leading zero omitted, Abs format (unit mm)*
G04 Created by KiCad (PCBNEW (5.1.9)-1) date 2021-11-10 22:47:00*
%MOMM*%
%LPD*%
G01*
G04 APERTURE LIST*
%TA.AperFunction,ComponentPad*%
%ADD10O,1.700000X1.700000*%
%TD*%
%TA.AperFunction,ComponentPad*%
%ADD11R,1.700000X1.700000*%
%TD*%
%TA.AperFunction,ComponentPad*%
%ADD12C,1.700000*%
%TD*%
%TA.AperFunction,ComponentPad*%
%ADD13O,1.730000X2.030000*%
%TD*%
%TA.AperFunction,ComponentPad*%
%ADD14R,1.730000X2.030000*%
%TD*%
%TA.AperFunction,ComponentPad*%
%ADD15C,0.800000*%
%TD*%
%TA.AperFunction,ComponentPad*%
%ADD16C,6.400000*%
%TD*%
%TA.AperFunction,ComponentPad*%
%ADD17C,3.750000*%
%TD*%
%TA.AperFunction,ComponentPad*%
%ADD18C,4.000000*%
%TD*%
%TA.AperFunction,ViaPad*%
%ADD19C,0.800000*%
%TD*%
%TA.AperFunction,Conductor*%
%ADD20C,1.500000*%
%TD*%
%TA.AperFunction,Conductor*%
%ADD21C,0.300000*%
%TD*%
%TA.AperFunction,Conductor*%
%ADD22C,0.254000*%
%TD*%
%TA.AperFunction,Conductor*%
%ADD23C,0.100000*%
%TD*%
G04 APERTURE END LIST*
D10*
%TO.P,J3,10*%
%TO.N,/EXT3*%
X120650000Y-101110000D03*
%TO.P,J3,9*%
%TO.N,/EXT2*%
X118110000Y-101110000D03*
%TO.P,J3,8*%
%TO.N,/SDA*%
X115570000Y-101110000D03*
%TO.P,J3,7*%
%TO.N,/SCL*%
X113030000Y-101110000D03*
D11*
%TO.P,J3,6*%
%TO.N,GND*%
X110490000Y-101110000D03*
D10*
%TO.P,J3,5*%
%TO.N,+3V3*%
X107950000Y-101110000D03*
D11*
%TO.P,J3,4*%
%TO.N,GND*%
X105410000Y-101110000D03*
D10*
%TO.P,J3,3*%
%TO.N,/EXT1*%
X102870000Y-101110000D03*
%TO.P,J3,2*%
%TO.N,/OneWire*%
X100330000Y-101110000D03*
D12*
%TO.P,J3,1*%
%TO.N,+3V3*%
X97790000Y-101110000D03*
%TD*%
D13*
%TO.P,FAN4,4*%
%TO.N,/sheet61958B6B/PWM_Ctrl*%
X134620000Y-143925000D03*
%TO.P,FAN4,3*%
%TO.N,/SENSE4*%
X137160000Y-143925000D03*
%TO.P,FAN4,2*%
%TO.N,+12V*%
X139700000Y-143925000D03*
D14*
%TO.P,FAN4,1*%
%TO.N,GND*%
X142240000Y-143925000D03*
%TD*%
D13*
%TO.P,FAN3,4*%
%TO.N,/sheet61957927/PWM_Ctrl*%
X121920000Y-143925000D03*
%TO.P,FAN3,3*%
%TO.N,/SENSE3*%
X124460000Y-143925000D03*
%TO.P,FAN3,2*%
%TO.N,+12V*%
X127000000Y-143925000D03*
D14*
%TO.P,FAN3,1*%
%TO.N,GND*%
X129540000Y-143925000D03*
%TD*%
D13*
%TO.P,FAN2,4*%
%TO.N,/sheet619566BF/PWM_Ctrl*%
X109220000Y-143925000D03*
%TO.P,FAN2,3*%
%TO.N,/SENSE2*%
X111760000Y-143925000D03*
%TO.P,FAN2,2*%
%TO.N,+12V*%
X114300000Y-143925000D03*
D14*
%TO.P,FAN2,1*%
%TO.N,GND*%
X116840000Y-143925000D03*
%TD*%
D10*
%TO.P,J2,6*%
%TO.N,+3V3*%
X151880000Y-112175000D03*
%TO.P,J2,5*%
%TO.N,/ESP32 Core/EN*%
X151880000Y-114715000D03*
%TO.P,J2,4*%
%TO.N,/ESP32 Core/TX*%
X151880000Y-117255000D03*
%TO.P,J2,3*%
%TO.N,/ESP32 Core/RX*%
X151880000Y-119795000D03*
%TO.P,J2,2*%
%TO.N,/ESP32 Core/IO0*%
X151880000Y-122335000D03*
D11*
%TO.P,J2,1*%
%TO.N,GND*%
X151880000Y-124875000D03*
%TD*%
D13*
%TO.P,FAN1,4*%
%TO.N,/FAN 1/PWM_Ctrl*%
X96520000Y-143925000D03*
%TO.P,FAN1,3*%
%TO.N,/SENSE1*%
X99060000Y-143925000D03*
%TO.P,FAN1,2*%
%TO.N,+12V*%
X101600000Y-143925000D03*
D14*
%TO.P,FAN1,1*%
%TO.N,GND*%
X104140000Y-143925000D03*
%TD*%
D15*
%TO.P,H4,1*%
%TO.N,N/C*%
X91077056Y-142227944D03*
X89380000Y-141525000D03*
X87682944Y-142227944D03*
X86980000Y-143925000D03*
X87682944Y-145622056D03*
X89380000Y-146325000D03*
X91077056Y-145622056D03*
X91780000Y-143925000D03*
D16*
X89380000Y-143925000D03*
%TD*%
D15*
%TO.P,H3,1*%
%TO.N,N/C*%
X151077056Y-142227944D03*
X149380000Y-141525000D03*
X147682944Y-142227944D03*
X146980000Y-143925000D03*
X147682944Y-145622056D03*
X149380000Y-146325000D03*
X151077056Y-145622056D03*
X151780000Y-143925000D03*
D16*
X149380000Y-143925000D03*
%TD*%
D15*
%TO.P,H2,1*%
%TO.N,N/C*%
X151077056Y-102227944D03*
X149380000Y-101525000D03*
X147682944Y-102227944D03*
X146980000Y-103925000D03*
X147682944Y-105622056D03*
X149380000Y-106325000D03*
X151077056Y-105622056D03*
X151780000Y-103925000D03*
D16*
X149380000Y-103925000D03*
%TD*%
D15*
%TO.P,H1,1*%
%TO.N,N/C*%
X91077056Y-102227944D03*
X89380000Y-101525000D03*
X87682944Y-102227944D03*
X86980000Y-103925000D03*
X87682944Y-105622056D03*
X89380000Y-106325000D03*
X91077056Y-105622056D03*
X91780000Y-103925000D03*
D16*
X89380000Y-103925000D03*
%TD*%
D17*
%TO.P,J1,2*%
%TO.N,GND*%
X91615000Y-136290000D03*
D18*
X88615000Y-131590000D03*
D17*
%TO.P,J1,1*%
%TO.N,/VIN*%
X94615000Y-131590000D03*
%TD*%
D19*
%TO.N,+12V*%
X107315000Y-127415000D03*
X107315000Y-127415000D03*
X107315000Y-127415000D03*
X107315000Y-127415000D03*
X107315000Y-127415000D03*
X107315000Y-127415000D03*
X106045000Y-126145000D03*
X107315000Y-126145000D03*
X106045000Y-127415000D03*
%TO.N,GND*%
X102235000Y-116620000D03*
X97155000Y-116620000D03*
X97155000Y-117890000D03*
X97155000Y-119160000D03*
X97155000Y-120430000D03*
X96520000Y-122970000D03*
X93980000Y-116620000D03*
X93980000Y-117890000D03*
X93980000Y-119160000D03*
X92710000Y-119795000D03*
X93980000Y-120430000D03*
X98425000Y-130590000D03*
X104775000Y-108365000D03*
X107315000Y-117890000D03*
X148590000Y-119160000D03*
X132588000Y-113572000D03*
X133985000Y-113572000D03*
X133985000Y-115096000D03*
X132588000Y-115096000D03*
X132588000Y-116620000D03*
X134112000Y-116620000D03*
X131826000Y-114334000D03*
X131826000Y-115858000D03*
X133350000Y-115858000D03*
X134874000Y-115858000D03*
X134874000Y-114334000D03*
X133350000Y-114334000D03*
%TO.N,/ESP32 Core/EN*%
X127000000Y-110270000D03*
%TO.N,/ESP32 Core/TX*%
X144780000Y-111540000D03*
%TO.N,/ESP32 Core/RX*%
X144780000Y-112810000D03*
%TO.N,/ESP32 Core/IO0*%
X144145000Y-124240000D03*
%TO.N,/SENSE1*%
X109855000Y-132380000D03*
X109855000Y-133880000D03*
%TO.N,/SENSE2*%
X112395000Y-131860000D03*
X113030000Y-136305000D03*
%TO.N,/SENSE3*%
X114935000Y-129320000D03*
X115570000Y-136305000D03*
%TO.N,/SENSE4*%
X117475000Y-126780000D03*
X132080000Y-129955000D03*
%TO.N,/OneWire*%
X109855000Y-109635000D03*
%TO.N,/EXT2*%
X118110000Y-110270000D03*
%TO.N,/EXT1*%
X110490000Y-108365000D03*
%TO.N,/SDA*%
X115570000Y-111540000D03*
%TO.N,/SCL*%
X113030000Y-110270000D03*
%TO.N,/EXT3*%
X120650000Y-110905000D03*
%TD*%
D20*
%TO.N,+12V*%
X101600000Y-143925000D02*
X101600000Y-139480000D01*
X101600000Y-139480000D02*
X107315000Y-133765000D01*
X107315000Y-133765000D02*
X107315000Y-127415000D01*
X107315000Y-127415000D02*
X107315000Y-127415000D01*
X107315000Y-127415000D02*
X107315000Y-127415000D01*
X107315000Y-127415000D02*
X107315000Y-127415000D01*
X107315000Y-127415000D02*
X107315000Y-127415000D01*
X107315000Y-127415000D02*
X107315000Y-127415000D01*
X107315000Y-127415000D02*
X107315000Y-126145000D01*
X107315000Y-126145000D02*
X106045000Y-126145000D01*
X107315000Y-127415000D02*
X106045000Y-127415000D01*
X106045000Y-127415000D02*
X106045000Y-126145000D01*
X106045000Y-126145000D02*
X106045000Y-126145000D01*
X107315000Y-126145000D02*
X107315000Y-126145000D01*
X106045000Y-127415000D02*
X106045000Y-127415000D01*
D21*
%TO.N,/ESP32 Core/EN*%
X143625000Y-106460000D02*
X151880000Y-114715000D01*
X127635000Y-106460000D02*
X143625000Y-106460000D01*
X127000000Y-107095000D02*
X127635000Y-106460000D01*
X127000000Y-110270000D02*
X127000000Y-107095000D01*
%TO.N,/ESP32 Core/TX*%
X150495000Y-117255000D02*
X151880000Y-117255000D01*
X144780000Y-111540000D02*
X150495000Y-117255000D01*
%TO.N,/ESP32 Core/RX*%
X151765000Y-119795000D02*
X151880000Y-119795000D01*
X144780000Y-112810000D02*
X151765000Y-119795000D01*
%TO.N,/ESP32 Core/IO0*%
X149975000Y-124240000D02*
X151880000Y-122335000D01*
X144145000Y-124240000D02*
X149975000Y-124240000D01*
%TO.N,/SENSE1*%
X109855000Y-132380000D02*
X109855000Y-133880000D01*
%TO.N,/SENSE2*%
X112395000Y-135670000D02*
X113030000Y-136305000D01*
X112395000Y-131860000D02*
X112395000Y-135670000D01*
%TO.N,/SENSE3*%
X114935000Y-129320000D02*
X114935000Y-135670000D01*
X114935000Y-135670000D02*
X115570000Y-136305000D01*
%TO.N,/SENSE4*%
X117475000Y-126780000D02*
X117475000Y-128685000D01*
X117475000Y-128685000D02*
X118745000Y-129955000D01*
X118745000Y-129955000D02*
X132080000Y-129955000D01*
%TO.N,/OneWire*%
X108855000Y-109635000D02*
X109855000Y-109635000D01*
X100330000Y-101110000D02*
X108855000Y-109635000D01*
%TO.N,/EXT2*%
X118110000Y-110270000D02*
X118110000Y-101110000D01*
%TO.N,/EXT1*%
X102870000Y-102650000D02*
X102870000Y-101110000D01*
X108585000Y-108365000D02*
X102870000Y-102650000D01*
X110490000Y-108365000D02*
X108585000Y-108365000D01*
%TO.N,/SDA*%
X115570000Y-111540000D02*
X115570000Y-101110000D01*
%TO.N,/SCL*%
X113030000Y-110270000D02*
X113030000Y-101110000D01*
%TO.N,/EXT3*%
X120650000Y-110905000D02*
X120650000Y-101110000D01*
%TD*%
D22*
%TO.N,GND*%
X122139659Y-99613625D02*
X122389429Y-99689035D01*
X122619792Y-99811522D01*
X122821980Y-99976422D01*
X122988286Y-100177450D01*
X123112378Y-100406954D01*
X123189531Y-100656195D01*
X123220001Y-100946098D01*
X123220000Y-103457418D01*
X123222852Y-103486372D01*
X123222765Y-103498781D01*
X123223665Y-103507952D01*
X123264466Y-103896145D01*
X123276487Y-103954708D01*
X123287702Y-104013501D01*
X123290366Y-104022323D01*
X123405790Y-104395198D01*
X123428975Y-104450353D01*
X123451379Y-104505806D01*
X123455706Y-104513943D01*
X123641357Y-104857298D01*
X123674780Y-104906849D01*
X123707562Y-104956946D01*
X123713387Y-104964087D01*
X123962194Y-105264841D01*
X124004629Y-105306981D01*
X124046492Y-105349730D01*
X124053592Y-105355604D01*
X124356077Y-105602305D01*
X124405904Y-105635409D01*
X124455259Y-105669204D01*
X124463365Y-105673587D01*
X124808007Y-105856837D01*
X124863311Y-105879631D01*
X124918295Y-105903198D01*
X124927098Y-105905923D01*
X125300770Y-106018741D01*
X125359458Y-106030361D01*
X125417961Y-106042797D01*
X125427126Y-106043760D01*
X125815595Y-106081850D01*
X125815598Y-106081850D01*
X125847581Y-106085000D01*
X126899843Y-106085000D01*
X126472185Y-106512658D01*
X126442237Y-106537236D01*
X126417659Y-106567184D01*
X126417655Y-106567188D01*
X126384690Y-106607356D01*
X126344139Y-106656767D01*
X126343985Y-106657056D01*
X126271246Y-106793141D01*
X126226359Y-106941114D01*
X126211203Y-107095000D01*
X126215001Y-107133563D01*
X126215000Y-109591289D01*
X126196063Y-109610226D01*
X126082795Y-109779744D01*
X126004774Y-109968102D01*
X125965000Y-110168061D01*
X125965000Y-110371939D01*
X126004774Y-110571898D01*
X126082795Y-110760256D01*
X126196063Y-110929774D01*
X126340226Y-111073937D01*
X126509744Y-111187205D01*
X126698102Y-111265226D01*
X126898061Y-111305000D01*
X127101939Y-111305000D01*
X127301898Y-111265226D01*
X127490256Y-111187205D01*
X127659774Y-111073937D01*
X127803937Y-110929774D01*
X127917205Y-110760256D01*
X127995226Y-110571898D01*
X128035000Y-110371939D01*
X128035000Y-110168061D01*
X127995226Y-109968102D01*
X127917205Y-109779744D01*
X127803937Y-109610226D01*
X127785000Y-109591289D01*
X127785000Y-107420157D01*
X127960157Y-107245000D01*
X143299843Y-107245000D01*
X150432924Y-114378082D01*
X150395000Y-114568740D01*
X150395000Y-114861260D01*
X150452068Y-115148158D01*
X150564010Y-115418411D01*
X150726525Y-115661632D01*
X150933368Y-115868475D01*
X151107760Y-115985000D01*
X150933368Y-116101525D01*
X150726525Y-116308368D01*
X150699288Y-116349131D01*
X145815000Y-111464843D01*
X145815000Y-111438061D01*
X145775226Y-111238102D01*
X145697205Y-111049744D01*
X145583937Y-110880226D01*
X145439774Y-110736063D01*
X145270256Y-110622795D01*
X145081898Y-110544774D01*
X144881939Y-110505000D01*
X144678061Y-110505000D01*
X144478102Y-110544774D01*
X144289744Y-110622795D01*
X144120226Y-110736063D01*
X143976063Y-110880226D01*
X143862795Y-111049744D01*
X143784774Y-111238102D01*
X143745000Y-111438061D01*
X143745000Y-111641939D01*
X143784774Y-111841898D01*
X143862795Y-112030256D01*
X143959510Y-112175000D01*
X143862795Y-112319744D01*
X143784774Y-112508102D01*
X143745000Y-112708061D01*
X143745000Y-112911939D01*
X143784774Y-113111898D01*
X143862795Y-113300256D01*
X143976063Y-113469774D01*
X144120226Y-113613937D01*
X144289744Y-113727205D01*
X144478102Y-113805226D01*
X144678061Y-113845000D01*
X144704843Y-113845000D01*
X150413845Y-119554002D01*
X150395000Y-119648740D01*
X150395000Y-119941260D01*
X150452068Y-120228158D01*
X150564010Y-120498411D01*
X150726525Y-120741632D01*
X150933368Y-120948475D01*
X151107760Y-121065000D01*
X150933368Y-121181525D01*
X150726525Y-121388368D01*
X150564010Y-121631589D01*
X150452068Y-121901842D01*
X150395000Y-122188740D01*
X150395000Y-122481260D01*
X150432925Y-122671918D01*
X149649843Y-123455000D01*
X144823711Y-123455000D01*
X144804774Y-123436063D01*
X144635256Y-123322795D01*
X144446898Y-123244774D01*
X144246939Y-123205000D01*
X144043061Y-123205000D01*
X143843102Y-123244774D01*
X143654744Y-123322795D01*
X143485226Y-123436063D01*
X143341063Y-123580226D01*
X143227795Y-123749744D01*
X143149774Y-123938102D01*
X143110000Y-124138061D01*
X143110000Y-124341939D01*
X143149774Y-124541898D01*
X143227795Y-124730256D01*
X143341063Y-124899774D01*
X143485226Y-125043937D01*
X143654744Y-125157205D01*
X143843102Y-125235226D01*
X144043061Y-125275000D01*
X144246939Y-125275000D01*
X144446898Y-125235226D01*
X144635256Y-125157205D01*
X144804774Y-125043937D01*
X144823711Y-125025000D01*
X149936447Y-125025000D01*
X149975000Y-125028797D01*
X150013553Y-125025000D01*
X150013561Y-125025000D01*
X150128887Y-125013641D01*
X150276860Y-124968754D01*
X150395000Y-124905608D01*
X150395000Y-125248002D01*
X150553748Y-125248002D01*
X150395000Y-125406750D01*
X150391928Y-125725000D01*
X150404188Y-125849482D01*
X150440498Y-125969180D01*
X150499463Y-126079494D01*
X150578815Y-126176185D01*
X150675506Y-126255537D01*
X150785820Y-126314502D01*
X150905518Y-126350812D01*
X151030000Y-126363072D01*
X151348250Y-126360000D01*
X151507000Y-126201250D01*
X151507000Y-125248000D01*
X152253000Y-125248000D01*
X152253000Y-126201250D01*
X152411750Y-126360000D01*
X152730000Y-126363072D01*
X152854482Y-126350812D01*
X152974180Y-126314502D01*
X153084494Y-126255537D01*
X153181185Y-126176185D01*
X153260537Y-126079494D01*
X153319502Y-125969180D01*
X153355812Y-125849482D01*
X153368072Y-125725000D01*
X153365000Y-125406750D01*
X153206250Y-125248000D01*
X152253000Y-125248000D01*
X151507000Y-125248000D01*
X151487000Y-125248000D01*
X151487000Y-124502000D01*
X151507000Y-124502000D01*
X151507000Y-124482000D01*
X152253000Y-124482000D01*
X152253000Y-124502000D01*
X153206250Y-124502000D01*
X153365000Y-124343250D01*
X153368072Y-124025000D01*
X153355812Y-123900518D01*
X153319502Y-123780820D01*
X153260537Y-123670506D01*
X153181185Y-123573815D01*
X153084494Y-123494463D01*
X152974180Y-123435498D01*
X152901620Y-123413487D01*
X153033475Y-123281632D01*
X153195990Y-123038411D01*
X153307932Y-122768158D01*
X153365000Y-122481260D01*
X153365000Y-122188740D01*
X153307932Y-121901842D01*
X153195990Y-121631589D01*
X153033475Y-121388368D01*
X152826632Y-121181525D01*
X152652240Y-121065000D01*
X152826632Y-120948475D01*
X153033475Y-120741632D01*
X153195990Y-120498411D01*
X153307932Y-120228158D01*
X153365000Y-119941260D01*
X153365000Y-119648740D01*
X153307932Y-119361842D01*
X153195990Y-119091589D01*
X153033475Y-118848368D01*
X152826632Y-118641525D01*
X152652240Y-118525000D01*
X152826632Y-118408475D01*
X153033475Y-118201632D01*
X153195990Y-117958411D01*
X153307932Y-117688158D01*
X153365000Y-117401260D01*
X153365000Y-117108740D01*
X153307932Y-116821842D01*
X153195990Y-116551589D01*
X153033475Y-116308368D01*
X152826632Y-116101525D01*
X152652240Y-115985000D01*
X152826632Y-115868475D01*
X153033475Y-115661632D01*
X153195990Y-115418411D01*
X153307932Y-115148158D01*
X153365000Y-114861260D01*
X153365000Y-114568740D01*
X153307932Y-114281842D01*
X153195990Y-114011589D01*
X153033475Y-113768368D01*
X152826632Y-113561525D01*
X152652240Y-113445000D01*
X152826632Y-113328475D01*
X153033475Y-113121632D01*
X153195990Y-112878411D01*
X153307932Y-112608158D01*
X153365000Y-112321260D01*
X153365000Y-112028740D01*
X153307932Y-111741842D01*
X153195990Y-111471589D01*
X153033475Y-111228368D01*
X152826632Y-111021525D01*
X152583411Y-110859010D01*
X152313158Y-110747068D01*
X152026260Y-110690000D01*
X151733740Y-110690000D01*
X151446842Y-110747068D01*
X151176589Y-110859010D01*
X150933368Y-111021525D01*
X150726525Y-111228368D01*
X150564010Y-111471589D01*
X150452068Y-111741842D01*
X150395000Y-112028740D01*
X150395000Y-112119842D01*
X144207347Y-105932190D01*
X144182764Y-105902236D01*
X144063233Y-105804138D01*
X143926860Y-105731246D01*
X143778887Y-105686359D01*
X143663561Y-105675000D01*
X143663553Y-105675000D01*
X143625000Y-105671203D01*
X143586447Y-105675000D01*
X143291294Y-105675000D01*
X143312298Y-105663643D01*
X143361849Y-105630220D01*
X143411946Y-105597438D01*
X143419087Y-105591613D01*
X143719841Y-105342806D01*
X143761981Y-105300371D01*
X143804730Y-105258508D01*
X143810604Y-105251408D01*
X144057305Y-104948923D01*
X144090409Y-104899096D01*
X144124204Y-104849741D01*
X144128587Y-104841635D01*
X144311837Y-104496993D01*
X144334631Y-104441689D01*
X144358198Y-104386705D01*
X144360923Y-104377902D01*
X144473741Y-104004230D01*
X144485361Y-103945542D01*
X144497797Y-103887039D01*
X144498760Y-103877874D01*
X144531174Y-103547285D01*
X145545000Y-103547285D01*
X145545000Y-104302715D01*
X145692377Y-105043628D01*
X145981467Y-105741554D01*
X146401161Y-106369670D01*
X146935330Y-106903839D01*
X147563446Y-107323533D01*
X148261372Y-107612623D01*
X149002285Y-107760000D01*
X149757715Y-107760000D01*
X150498628Y-107612623D01*
X151196554Y-107323533D01*
X151824670Y-106903839D01*
X152358839Y-106369670D01*
X152778533Y-105741554D01*
X153067623Y-105043628D01*
X153215000Y-104302715D01*
X153215000Y-103547285D01*
X153067623Y-102806372D01*
X152778533Y-102108446D01*
X152358839Y-101480330D01*
X151824670Y-100946161D01*
X151196554Y-100526467D01*
X150498628Y-100237377D01*
X149757715Y-100090000D01*
X149002285Y-100090000D01*
X148261372Y-100237377D01*
X147563446Y-100526467D01*
X146935330Y-100946161D01*
X146401161Y-101480330D01*
X145981467Y-102108446D01*
X145692377Y-102806372D01*
X145545000Y-103547285D01*
X144531174Y-103547285D01*
X144536850Y-103489405D01*
X144536850Y-103489402D01*
X144540000Y-103457419D01*
X144540000Y-100957279D01*
X144568625Y-100665341D01*
X144644035Y-100415571D01*
X144766522Y-100185208D01*
X144931422Y-99983020D01*
X145132450Y-99816714D01*
X145361954Y-99692622D01*
X145611195Y-99615469D01*
X145901088Y-99585000D01*
X152347721Y-99585000D01*
X152639659Y-99613625D01*
X152889429Y-99689035D01*
X153119792Y-99811522D01*
X153321980Y-99976422D01*
X153488286Y-100177450D01*
X153612378Y-100406954D01*
X153689531Y-100656195D01*
X153720001Y-100946098D01*
X153720000Y-146892721D01*
X153691375Y-147184660D01*
X153615965Y-147434429D01*
X153493477Y-147664794D01*
X153328579Y-147866979D01*
X153127546Y-148033288D01*
X152898046Y-148157378D01*
X152648805Y-148234531D01*
X152358911Y-148265000D01*
X86412279Y-148265000D01*
X86120340Y-148236375D01*
X85870571Y-148160965D01*
X85640206Y-148038477D01*
X85438021Y-147873579D01*
X85271712Y-147672546D01*
X85147622Y-147443046D01*
X85070469Y-147193805D01*
X85040000Y-146903911D01*
X85040000Y-143547285D01*
X85545000Y-143547285D01*
X85545000Y-144302715D01*
X85692377Y-145043628D01*
X85981467Y-145741554D01*
X86401161Y-146369670D01*
X86935330Y-146903839D01*
X87563446Y-147323533D01*
X88261372Y-147612623D01*
X89002285Y-147760000D01*
X89757715Y-147760000D01*
X90498628Y-147612623D01*
X91196554Y-147323533D01*
X91824670Y-146903839D01*
X92358839Y-146369670D01*
X92778533Y-145741554D01*
X93067623Y-145043628D01*
X93215000Y-144302715D01*
X93215000Y-143701320D01*
X95020000Y-143701320D01*
X95020000Y-144148679D01*
X95041705Y-144369050D01*
X95127476Y-144651801D01*
X95266762Y-144912386D01*
X95454208Y-145140792D01*
X95682613Y-145328238D01*
X95943198Y-145467524D01*
X96225949Y-145553295D01*
X96520000Y-145582257D01*
X96814050Y-145553295D01*
X97096801Y-145467524D01*
X97357386Y-145328238D01*
X97585792Y-145140792D01*
X97773238Y-144912387D01*
X97790000Y-144881027D01*
X97806762Y-144912386D01*
X97994208Y-145140792D01*
X98177742Y-145291414D01*
X98139550Y-145329606D01*
X98009866Y-145523692D01*
X97920539Y-145739348D01*
X97875000Y-145968288D01*
X97875000Y-146201712D01*
X97920539Y-146430652D01*
X98009866Y-146646308D01*
X98139550Y-146840394D01*
X98304606Y-147005450D01*
X98498692Y-147135134D01*
X98714348Y-147224461D01*
X98943288Y-147270000D01*
X99176712Y-147270000D01*
X99405652Y-147224461D01*
X99621308Y-147135134D01*
X99815394Y-147005450D01*
X99980450Y-146840394D01*
X100110134Y-146646308D01*
X100199461Y-146430652D01*
X100245000Y-146201712D01*
X100245000Y-145968288D01*
X100199461Y-145739348D01*
X100110134Y-145523692D01*
X99980450Y-145329606D01*
X99942257Y-145291413D01*
X100125792Y-145140792D01*
X100313238Y-144912387D01*
X100330000Y-144881027D01*
X100346762Y-144912386D01*
X100534208Y-145140792D01*
X100762613Y-145328238D01*
X101023198Y-145467524D01*
X101305949Y-145553295D01*
X101600000Y-145582257D01*
X101894050Y-145553295D01*
X102176801Y-145467524D01*
X102437386Y-145328238D01*
X102665792Y-145140792D01*
X102670570Y-145134970D01*
X102685498Y-145184180D01*
X102744463Y-145294494D01*
X102823815Y-145391185D01*
X102920506Y-145470537D01*
X103030820Y-145529502D01*
X103150518Y-145565812D01*
X103275000Y-145578072D01*
X103608250Y-145575000D01*
X103767000Y-145416250D01*
X103767000Y-144298000D01*
X104513000Y-144298000D01*
X104513000Y-145416250D01*
X104671750Y-145575000D01*
X105005000Y-145578072D01*
X105129482Y-145565812D01*
X105249180Y-145529502D01*
X105359494Y-145470537D01*
X105456185Y-145391185D01*
X105535537Y-145294494D01*
X105594502Y-145184180D01*
X105630812Y-145064482D01*
X105643072Y-144940000D01*
X105640000Y-144456750D01*
X105481250Y-144298000D01*
X104513000Y-144298000D01*
X103767000Y-144298000D01*
X103747000Y-144298000D01*
X103747000Y-143701320D01*
X107720000Y-143701320D01*
X107720000Y-144148679D01*
X107741705Y-144369050D01*
X107827476Y-144651801D01*
X107966762Y-144912386D01*
X108154208Y-145140792D01*
X108382613Y-145328238D01*
X108643198Y-145467524D01*
X108925949Y-145553295D01*
X109220000Y-145582257D01*
X109514050Y-145553295D01*
X109796801Y-145467524D01*
X110057386Y-145328238D01*
X110285792Y-145140792D01*
X110473238Y-144912387D01*
X110490000Y-144881027D01*
X110506762Y-144912386D01*
X110694208Y-145140792D01*
X110877742Y-145291414D01*
X110839550Y-145329606D01*
X110709866Y-145523692D01*
X110620539Y-145739348D01*
X110575000Y-145968288D01*
X110575000Y-146201712D01*
X110620539Y-146430652D01*
X110709866Y-146646308D01*
X110839550Y-146840394D01*
X111004606Y-147005450D01*
X111198692Y-147135134D01*
X111414348Y-147224461D01*
X111643288Y-147270000D01*
X111876712Y-147270000D01*
X112105652Y-147224461D01*
X112321308Y-147135134D01*
X112515394Y-147005450D01*
X112680450Y-146840394D01*
X112810134Y-146646308D01*
X112899461Y-146430652D01*
X112945000Y-146201712D01*
X112945000Y-145968288D01*
X112899461Y-145739348D01*
X112810134Y-145523692D01*
X112680450Y-145329606D01*
X112642257Y-145291413D01*
X112825792Y-145140792D01*
X113013238Y-144912387D01*
X113030000Y-144881027D01*
X113046762Y-144912386D01*
X113234208Y-145140792D01*
X113462613Y-145328238D01*
X113723198Y-145467524D01*
X114005949Y-145553295D01*
X114300000Y-145582257D01*
X114594050Y-145553295D01*
X114876801Y-145467524D01*
X115137386Y-145328238D01*
X115365792Y-145140792D01*
X115370570Y-145134970D01*
X115385498Y-145184180D01*
X115444463Y-145294494D01*
X115523815Y-145391185D01*
X115620506Y-145470537D01*
X115730820Y-145529502D01*
X115850518Y-145565812D01*
X115975000Y-145578072D01*
X116308250Y-145575000D01*
X116467000Y-145416250D01*
X116467000Y-144298000D01*
X117213000Y-144298000D01*
X117213000Y-145416250D01*
X117371750Y-145575000D01*
X117705000Y-145578072D01*
X117829482Y-145565812D01*
X117949180Y-145529502D01*
X118059494Y-145470537D01*
X118156185Y-145391185D01*
X118235537Y-145294494D01*
X118294502Y-145184180D01*
X118330812Y-145064482D01*
X118343072Y-144940000D01*
X118340000Y-144456750D01*
X118181250Y-144298000D01*
X117213000Y-144298000D01*
X116467000Y-144298000D01*
X116447000Y-144298000D01*
X116447000Y-143701320D01*
X120420000Y-143701320D01*
X120420000Y-144148679D01*
X120441705Y-144369050D01*
X120527476Y-144651801D01*
X120666762Y-144912386D01*
X120854208Y-145140792D01*
X121082613Y-145328238D01*
X121343198Y-145467524D01*
X121625949Y-145553295D01*
X121920000Y-145582257D01*
X122214050Y-145553295D01*
X122496801Y-145467524D01*
X122757386Y-145328238D01*
X122985792Y-145140792D01*
X123173238Y-144912387D01*
X123190000Y-144881027D01*
X123206762Y-144912386D01*
X123394208Y-145140792D01*
X123577742Y-145291414D01*
X123539550Y-145329606D01*
X123409866Y-145523692D01*
X123320539Y-145739348D01*
X123275000Y-145968288D01*
X123275000Y-146201712D01*
X123320539Y-146430652D01*
X123409866Y-146646308D01*
X123539550Y-146840394D01*
X123704606Y-147005450D01*
X123898692Y-147135134D01*
X124114348Y-147224461D01*
X124343288Y-147270000D01*
X124576712Y-147270000D01*
X124805652Y-147224461D01*
X125021308Y-147135134D01*
X125215394Y-147005450D01*
X125380450Y-146840394D01*
X125510134Y-146646308D01*
X125599461Y-146430652D01*
X125645000Y-146201712D01*
X125645000Y-145968288D01*
X125599461Y-145739348D01*
X125510134Y-145523692D01*
X125380450Y-145329606D01*
X125342257Y-145291413D01*
X125525792Y-145140792D01*
X125713238Y-144912387D01*
X125730000Y-144881027D01*
X125746762Y-144912386D01*
X125934208Y-145140792D01*
X126162613Y-145328238D01*
X126423198Y-145467524D01*
X126705949Y-145553295D01*
X127000000Y-145582257D01*
X127294050Y-145553295D01*
X127576801Y-145467524D01*
X127837386Y-145328238D01*
X128065792Y-145140792D01*
X128070570Y-145134970D01*
X128085498Y-145184180D01*
X128144463Y-145294494D01*
X128223815Y-145391185D01*
X128320506Y-145470537D01*
X128430820Y-145529502D01*
X128550518Y-145565812D01*
X128675000Y-145578072D01*
X129008250Y-145575000D01*
X129167000Y-145416250D01*
X129167000Y-144298000D01*
X129913000Y-144298000D01*
X129913000Y-145416250D01*
X130071750Y-145575000D01*
X130405000Y-145578072D01*
X130529482Y-145565812D01*
X130649180Y-145529502D01*
X130759494Y-145470537D01*
X130856185Y-145391185D01*
X130935537Y-145294494D01*
X130994502Y-145184180D01*
X131030812Y-145064482D01*
X131043072Y-144940000D01*
X131040000Y-144456750D01*
X130881250Y-144298000D01*
X129913000Y-144298000D01*
X129167000Y-144298000D01*
X129147000Y-144298000D01*
X129147000Y-143701320D01*
X133120000Y-143701320D01*
X133120000Y-144148679D01*
X133141705Y-144369050D01*
X133227476Y-144651801D01*
X133366762Y-144912386D01*
X133554208Y-145140792D01*
X133782613Y-145328238D01*
X134043198Y-145467524D01*
X134325949Y-145553295D01*
X134620000Y-145582257D01*
X134914050Y-145553295D01*
X135196801Y-145467524D01*
X135457386Y-145328238D01*
X135685792Y-145140792D01*
X135873238Y-144912387D01*
X135890000Y-144881027D01*
X135906762Y-144912386D01*
X136094208Y-145140792D01*
X136277742Y-145291414D01*
X136239550Y-145329606D01*
X136109866Y-145523692D01*
X136020539Y-145739348D01*
X135975000Y-145968288D01*
X135975000Y-146201712D01*
X136020539Y-146430652D01*
X136109866Y-146646308D01*
X136239550Y-146840394D01*
X136404606Y-147005450D01*
X136598692Y-147135134D01*
X136814348Y-147224461D01*
X137043288Y-147270000D01*
X137276712Y-147270000D01*
X137505652Y-147224461D01*
X137721308Y-147135134D01*
X137915394Y-147005450D01*
X138080450Y-146840394D01*
X138210134Y-146646308D01*
X138299461Y-146430652D01*
X138345000Y-146201712D01*
X138345000Y-145968288D01*
X138299461Y-145739348D01*
X138210134Y-145523692D01*
X138080450Y-145329606D01*
X138042257Y-145291413D01*
X138225792Y-145140792D01*
X138413238Y-144912387D01*
X138430000Y-144881027D01*
X138446762Y-144912386D01*
X138634208Y-145140792D01*
X138862613Y-145328238D01*
X139123198Y-145467524D01*
X139405949Y-145553295D01*
X139700000Y-145582257D01*
X139994050Y-145553295D01*
X140276801Y-145467524D01*
X140537386Y-145328238D01*
X140765792Y-145140792D01*
X140770570Y-145134970D01*
X140785498Y-145184180D01*
X140844463Y-145294494D01*
X140923815Y-145391185D01*
X141020506Y-145470537D01*
X141130820Y-145529502D01*
X141250518Y-145565812D01*
X141375000Y-145578072D01*
X141708250Y-145575000D01*
X141867000Y-145416250D01*
X141867000Y-144298000D01*
X142613000Y-144298000D01*
X142613000Y-145416250D01*
X142771750Y-145575000D01*
X143105000Y-145578072D01*
X143229482Y-145565812D01*
X143349180Y-145529502D01*
X143459494Y-145470537D01*
X143556185Y-145391185D01*
X143635537Y-145294494D01*
X143694502Y-145184180D01*
X143730812Y-145064482D01*
X143743072Y-144940000D01*
X143740000Y-144456750D01*
X143581250Y-144298000D01*
X142613000Y-144298000D01*
X141867000Y-144298000D01*
X141847000Y-144298000D01*
X141847000Y-143552000D01*
X141867000Y-143552000D01*
X141867000Y-142433750D01*
X142613000Y-142433750D01*
X142613000Y-143552000D01*
X143581250Y-143552000D01*
X143585965Y-143547285D01*
X145545000Y-143547285D01*
X145545000Y-144302715D01*
X145692377Y-145043628D01*
X145981467Y-145741554D01*
X146401161Y-146369670D01*
X146935330Y-146903839D01*
X147563446Y-147323533D01*
X148261372Y-147612623D01*
X149002285Y-147760000D01*
X149757715Y-147760000D01*
X150498628Y-147612623D01*
X151196554Y-147323533D01*
X151824670Y-146903839D01*
X152358839Y-146369670D01*
X152778533Y-145741554D01*
X153067623Y-145043628D01*
X153215000Y-144302715D01*
X153215000Y-143547285D01*
X153067623Y-142806372D01*
X152778533Y-142108446D01*
X152358839Y-141480330D01*
X151824670Y-140946161D01*
X151196554Y-140526467D01*
X150498628Y-140237377D01*
X149757715Y-140090000D01*
X149002285Y-140090000D01*
X148261372Y-140237377D01*
X147563446Y-140526467D01*
X146935330Y-140946161D01*
X146401161Y-141480330D01*
X145981467Y-142108446D01*
X145692377Y-142806372D01*
X145545000Y-143547285D01*
X143585965Y-143547285D01*
X143740000Y-143393250D01*
X143743072Y-142910000D01*
X143730812Y-142785518D01*
X143694502Y-142665820D01*
X143635537Y-142555506D01*
X143556185Y-142458815D01*
X143459494Y-142379463D01*
X143349180Y-142320498D01*
X143229482Y-142284188D01*
X143105000Y-142271928D01*
X142771750Y-142275000D01*
X142613000Y-142433750D01*
X141867000Y-142433750D01*
X141708250Y-142275000D01*
X141375000Y-142271928D01*
X141250518Y-142284188D01*
X141130820Y-142320498D01*
X141020506Y-142379463D01*
X140923815Y-142458815D01*
X140844463Y-142555506D01*
X140785498Y-142665820D01*
X140770570Y-142715030D01*
X140765792Y-142709208D01*
X140537387Y-142521762D01*
X140276802Y-142382476D01*
X139994051Y-142296705D01*
X139700000Y-142267743D01*
X139405950Y-142296705D01*
X139123199Y-142382476D01*
X138862614Y-142521762D01*
X138634208Y-142709208D01*
X138446762Y-142937613D01*
X138430000Y-142968972D01*
X138413238Y-142937613D01*
X138225792Y-142709208D01*
X137997387Y-142521762D01*
X137736802Y-142382476D01*
X137454051Y-142296705D01*
X137160000Y-142267743D01*
X136865950Y-142296705D01*
X136583199Y-142382476D01*
X136322614Y-142521762D01*
X136094208Y-142709208D01*
X135906762Y-142937613D01*
X135890000Y-142968972D01*
X135873238Y-142937613D01*
X135685792Y-142709208D01*
X135457387Y-142521762D01*
X135196802Y-142382476D01*
X134914051Y-142296705D01*
X134620000Y-142267743D01*
X134325950Y-142296705D01*
X134043199Y-142382476D01*
X133782614Y-142521762D01*
X133554208Y-142709208D01*
X133366762Y-142937613D01*
X133227476Y-143198198D01*
X133141705Y-143480949D01*
X133120000Y-143701320D01*
X129147000Y-143701320D01*
X129147000Y-143552000D01*
X129167000Y-143552000D01*
X129167000Y-142433750D01*
X129913000Y-142433750D01*
X129913000Y-143552000D01*
X130881250Y-143552000D01*
X131040000Y-143393250D01*
X131043072Y-142910000D01*
X131030812Y-142785518D01*
X130994502Y-142665820D01*
X130935537Y-142555506D01*
X130856185Y-142458815D01*
X130759494Y-142379463D01*
X130649180Y-142320498D01*
X130529482Y-142284188D01*
X130405000Y-142271928D01*
X130071750Y-142275000D01*
X129913000Y-142433750D01*
X129167000Y-142433750D01*
X129008250Y-142275000D01*
X128675000Y-142271928D01*
X128550518Y-142284188D01*
X128430820Y-142320498D01*
X128320506Y-142379463D01*
X128223815Y-142458815D01*
X128144463Y-142555506D01*
X128085498Y-142665820D01*
X128070570Y-142715030D01*
X128065792Y-142709208D01*
X127837387Y-142521762D01*
X127576802Y-142382476D01*
X127294051Y-142296705D01*
X127000000Y-142267743D01*
X126705950Y-142296705D01*
X126423199Y-142382476D01*
X126162614Y-142521762D01*
X125934208Y-142709208D01*
X125746762Y-142937613D01*
X125730000Y-142968972D01*
X125713238Y-142937613D01*
X125525792Y-142709208D01*
X125297387Y-142521762D01*
X125036802Y-142382476D01*
X124754051Y-142296705D01*
X124460000Y-142267743D01*
X124165950Y-142296705D01*
X123883199Y-142382476D01*
X123622614Y-142521762D01*
X123394208Y-142709208D01*
X123206762Y-142937613D01*
X123190000Y-142968972D01*
X123173238Y-142937613D01*
X122985792Y-142709208D01*
X122757387Y-142521762D01*
X122496802Y-142382476D01*
X122214051Y-142296705D01*
X121920000Y-142267743D01*
X121625950Y-142296705D01*
X121343199Y-142382476D01*
X121082614Y-142521762D01*
X120854208Y-142709208D01*
X120666762Y-142937613D01*
X120527476Y-143198198D01*
X120441705Y-143480949D01*
X120420000Y-143701320D01*
X116447000Y-143701320D01*
X116447000Y-143552000D01*
X116467000Y-143552000D01*
X116467000Y-142433750D01*
X117213000Y-142433750D01*
X117213000Y-143552000D01*
X118181250Y-143552000D01*
X118340000Y-143393250D01*
X118343072Y-142910000D01*
X118330812Y-142785518D01*
X118294502Y-142665820D01*
X118235537Y-142555506D01*
X118156185Y-142458815D01*
X118059494Y-142379463D01*
X117949180Y-142320498D01*
X117829482Y-142284188D01*
X117705000Y-142271928D01*
X117371750Y-142275000D01*
X117213000Y-142433750D01*
X116467000Y-142433750D01*
X116308250Y-142275000D01*
X115975000Y-142271928D01*
X115850518Y-142284188D01*
X115730820Y-142320498D01*
X115620506Y-142379463D01*
X115523815Y-142458815D01*
X115444463Y-142555506D01*
X115385498Y-142665820D01*
X115370570Y-142715030D01*
X115365792Y-142709208D01*
X115137387Y-142521762D01*
X114876802Y-142382476D01*
X114594051Y-142296705D01*
X114300000Y-142267743D01*
X114005950Y-142296705D01*
X113723199Y-142382476D01*
X113462614Y-142521762D01*
X113234208Y-142709208D01*
X113046762Y-142937613D01*
X113030000Y-142968972D01*
X113013238Y-142937613D01*
X112825792Y-142709208D01*
X112597387Y-142521762D01*
X112336802Y-142382476D01*
X112054051Y-142296705D01*
X111760000Y-142267743D01*
X111465950Y-142296705D01*
X111183199Y-142382476D01*
X110922614Y-142521762D01*
X110694208Y-142709208D01*
X110506762Y-142937613D01*
X110490000Y-142968972D01*
X110473238Y-142937613D01*
X110285792Y-142709208D01*
X110057387Y-142521762D01*
X109796802Y-142382476D01*
X109514051Y-142296705D01*
X109220000Y-142267743D01*
X108925950Y-142296705D01*
X108643199Y-142382476D01*
X108382614Y-142521762D01*
X108154208Y-142709208D01*
X107966762Y-142937613D01*
X107827476Y-143198198D01*
X107741705Y-143480949D01*
X107720000Y-143701320D01*
X103747000Y-143701320D01*
X103747000Y-143552000D01*
X103767000Y-143552000D01*
X103767000Y-142433750D01*
X104513000Y-142433750D01*
X104513000Y-143552000D01*
X105481250Y-143552000D01*
X105640000Y-143393250D01*
X105643072Y-142910000D01*
X105630812Y-142785518D01*
X105594502Y-142665820D01*
X105535537Y-142555506D01*
X105456185Y-142458815D01*
X105359494Y-142379463D01*
X105249180Y-142320498D01*
X105129482Y-142284188D01*
X105005000Y-142271928D01*
X104671750Y-142275000D01*
X104513000Y-142433750D01*
X103767000Y-142433750D01*
X103608250Y-142275000D01*
X103275000Y-142271928D01*
X103150518Y-142284188D01*
X103030820Y-142320498D01*
X102985000Y-142344990D01*
X102985000Y-140053685D01*
X108246241Y-134792445D01*
X108299080Y-134749081D01*
X108342445Y-134696241D01*
X108342452Y-134696234D01*
X108472157Y-134538188D01*
X108600764Y-134297581D01*
X108679960Y-134036507D01*
X108706701Y-133765000D01*
X108700000Y-133696963D01*
X108700000Y-132278061D01*
X108820000Y-132278061D01*
X108820000Y-132481939D01*
X108859774Y-132681898D01*
X108937795Y-132870256D01*
X109051063Y-133039774D01*
X109070000Y-133058711D01*
X109070001Y-133201288D01*
X109051063Y-133220226D01*
X108937795Y-133389744D01*
X108859774Y-133578102D01*
X108820000Y-133778061D01*
X108820000Y-133981939D01*
X108859774Y-134181898D01*
X108937795Y-134370256D01*
X109051063Y-134539774D01*
X109195226Y-134683937D01*
X109364744Y-134797205D01*
X109553102Y-134875226D01*
X109753061Y-134915000D01*
X109956939Y-134915000D01*
X110156898Y-134875226D01*
X110345256Y-134797205D01*
X110514774Y-134683937D01*
X110658937Y-134539774D01*
X110772205Y-134370256D01*
X110850226Y-134181898D01*
X110890000Y-133981939D01*
X110890000Y-133778061D01*
X110850226Y-133578102D01*
X110772205Y-133389744D01*
X110658937Y-133220226D01*
X110640000Y-133201289D01*
X110640000Y-133058711D01*
X110658937Y-133039774D01*
X110772205Y-132870256D01*
X110850226Y-132681898D01*
X110890000Y-132481939D01*
X110890000Y-132278061D01*
X110850226Y-132078102D01*
X110772205Y-131889744D01*
X110684218Y-131758061D01*
X111360000Y-131758061D01*
X111360000Y-131961939D01*
X111399774Y-132161898D01*
X111477795Y-132350256D01*
X111591063Y-132519774D01*
X111610000Y-132538711D01*
X111610001Y-135631437D01*
X111606203Y-135670000D01*
X111621359Y-135823886D01*
X111666246Y-135971859D01*
X111666247Y-135971860D01*
X111739139Y-136108233D01*
X111774330Y-136151113D01*
X111812655Y-136197812D01*
X111812659Y-136197816D01*
X111837237Y-136227764D01*
X111867185Y-136252342D01*
X111995000Y-136380157D01*
X111995000Y-136406939D01*
X112034774Y-136606898D01*
X112112795Y-136795256D01*
X112226063Y-136964774D01*
X112370226Y-137108937D01*
X112539744Y-137222205D01*
X112728102Y-137300226D01*
X112928061Y-137340000D01*
X113131939Y-137340000D01*
X113331898Y-137300226D01*
X113520256Y-137222205D01*
X113689774Y-137108937D01*
X113833937Y-136964774D01*
X113947205Y-136795256D01*
X114025226Y-136606898D01*
X114065000Y-136406939D01*
X114065000Y-136203061D01*
X114025226Y-136003102D01*
X113947205Y-135814744D01*
X113833937Y-135645226D01*
X113689774Y-135501063D01*
X113520256Y-135387795D01*
X113331898Y-135309774D01*
X113180000Y-135279560D01*
X113180000Y-132538711D01*
X113198937Y-132519774D01*
X113312205Y-132350256D01*
X113390226Y-132161898D01*
X113430000Y-131961939D01*
X113430000Y-131758061D01*
X113390226Y-131558102D01*
X113312205Y-131369744D01*
X113198937Y-131200226D01*
X113054774Y-131056063D01*
X112885256Y-130942795D01*
X112696898Y-130864774D01*
X112496939Y-130825000D01*
X112293061Y-130825000D01*
X112093102Y-130864774D01*
X111904744Y-130942795D01*
X111735226Y-131056063D01*
X111591063Y-131200226D01*
X111477795Y-131369744D01*
X111399774Y-131558102D01*
X111360000Y-131758061D01*
X110684218Y-131758061D01*
X110658937Y-131720226D01*
X110514774Y-131576063D01*
X110345256Y-131462795D01*
X110156898Y-131384774D01*
X109956939Y-131345000D01*
X109753061Y-131345000D01*
X109553102Y-131384774D01*
X109364744Y-131462795D01*
X109195226Y-131576063D01*
X109051063Y-131720226D01*
X108937795Y-131889744D01*
X108859774Y-132078102D01*
X108820000Y-132278061D01*
X108700000Y-132278061D01*
X108700000Y-129218061D01*
X113900000Y-129218061D01*
X113900000Y-129421939D01*
X113939774Y-129621898D01*
X114017795Y-129810256D01*
X114131063Y-129979774D01*
X114150000Y-129998711D01*
X114150001Y-135631437D01*
X114146203Y-135670000D01*
X114161359Y-135823886D01*
X114206246Y-135971859D01*
X114206247Y-135971860D01*
X114279139Y-136108233D01*
X114314330Y-136151113D01*
X114352655Y-136197812D01*
X114352659Y-136197816D01*
X114377237Y-136227764D01*
X114407185Y-136252342D01*
X114535000Y-136380157D01*
X114535000Y-136406939D01*
X114574774Y-136606898D01*
X114652795Y-136795256D01*
X114766063Y-136964774D01*
X114910226Y-137108937D01*
X115079744Y-137222205D01*
X115268102Y-137300226D01*
X115468061Y-137340000D01*
X115671939Y-137340000D01*
X115871898Y-137300226D01*
X116060256Y-137222205D01*
X116229774Y-137108937D01*
X116373937Y-136964774D01*
X116487205Y-136795256D01*
X116565226Y-136606898D01*
X116605000Y-136406939D01*
X116605000Y-136203061D01*
X116565226Y-136003102D01*
X116487205Y-135814744D01*
X116373937Y-135645226D01*
X116229774Y-135501063D01*
X116060256Y-135387795D01*
X115871898Y-135309774D01*
X115720000Y-135279560D01*
X115720000Y-129998711D01*
X115738937Y-129979774D01*
X115852205Y-129810256D01*
X115930226Y-129621898D01*
X115970000Y-129421939D01*
X115970000Y-129218061D01*
X115930226Y-129018102D01*
X115852205Y-128829744D01*
X115738937Y-128660226D01*
X115594774Y-128516063D01*
X115425256Y-128402795D01*
X115236898Y-128324774D01*
X115036939Y-128285000D01*
X114833061Y-128285000D01*
X114633102Y-128324774D01*
X114444744Y-128402795D01*
X114275226Y-128516063D01*
X114131063Y-128660226D01*
X114017795Y-128829744D01*
X113939774Y-129018102D01*
X113900000Y-129218061D01*
X108700000Y-129218061D01*
X108700000Y-127483036D01*
X108706701Y-127415000D01*
X108700000Y-127346963D01*
X108700000Y-126678061D01*
X116440000Y-126678061D01*
X116440000Y-126881939D01*
X116479774Y-127081898D01*
X116557795Y-127270256D01*
X116671063Y-127439774D01*
X116690000Y-127458711D01*
X116690001Y-128646438D01*
X116686203Y-128685000D01*
X116701359Y-128838886D01*
X116746246Y-128986859D01*
X116746247Y-128986860D01*
X116819139Y-129123233D01*
X116841979Y-129151063D01*
X116892655Y-129212812D01*
X116892659Y-129212816D01*
X116917237Y-129242764D01*
X116947185Y-129267342D01*
X118162658Y-130482815D01*
X118187236Y-130512764D01*
X118217184Y-130537342D01*
X118217187Y-130537345D01*
X118246559Y-130561450D01*
X118306767Y-130610862D01*
X118443140Y-130683754D01*
X118556672Y-130718194D01*
X118591112Y-130728641D01*
X118605490Y-130730057D01*
X118706439Y-130740000D01*
X118706446Y-130740000D01*
X118744999Y-130743797D01*
X118783552Y-130740000D01*
X131401289Y-130740000D01*
X131420226Y-130758937D01*
X131589744Y-130872205D01*
X131778102Y-130950226D01*
X131978061Y-130990000D01*
X132181939Y-130990000D01*
X132381898Y-130950226D01*
X132570256Y-130872205D01*
X132739774Y-130758937D01*
X132883937Y-130614774D01*
X132997205Y-130445256D01*
X133075226Y-130256898D01*
X133115000Y-130056939D01*
X133115000Y-129853061D01*
X133075226Y-129653102D01*
X132997205Y-129464744D01*
X132883937Y-129295226D01*
X132739774Y-129151063D01*
X132570256Y-129037795D01*
X132381898Y-128959774D01*
X132181939Y-128920000D01*
X131978061Y-128920000D01*
X131778102Y-128959774D01*
X131589744Y-129037795D01*
X131420226Y-129151063D01*
X131401289Y-129170000D01*
X119070158Y-129170000D01*
X118260000Y-128359843D01*
X118260000Y-127458711D01*
X118278937Y-127439774D01*
X118392205Y-127270256D01*
X118470226Y-127081898D01*
X118510000Y-126881939D01*
X118510000Y-126678061D01*
X118470226Y-126478102D01*
X118392205Y-126289744D01*
X118278937Y-126120226D01*
X118134774Y-125976063D01*
X117965256Y-125862795D01*
X117776898Y-125784774D01*
X117576939Y-125745000D01*
X117373061Y-125745000D01*
X117173102Y-125784774D01*
X116984744Y-125862795D01*
X116815226Y-125976063D01*
X116671063Y-126120226D01*
X116557795Y-126289744D01*
X116479774Y-126478102D01*
X116440000Y-126678061D01*
X108700000Y-126678061D01*
X108700000Y-126213037D01*
X108706701Y-126145000D01*
X108679960Y-125873493D01*
X108600764Y-125612419D01*
X108472157Y-125371812D01*
X108299081Y-125160919D01*
X108088188Y-124987843D01*
X107847581Y-124859236D01*
X107586507Y-124780040D01*
X107383037Y-124760000D01*
X107315000Y-124753299D01*
X107246964Y-124760000D01*
X106113037Y-124760000D01*
X106045000Y-124753299D01*
X105976964Y-124760000D01*
X105976963Y-124760000D01*
X105773493Y-124780040D01*
X105512419Y-124859236D01*
X105271812Y-124987843D01*
X105060919Y-125160919D01*
X104887843Y-125371812D01*
X104759236Y-125612419D01*
X104680040Y-125873493D01*
X104653299Y-126145000D01*
X104660000Y-126213037D01*
X104660000Y-127346963D01*
X104653299Y-127415000D01*
X104680040Y-127686507D01*
X104759236Y-127947581D01*
X104887843Y-128188188D01*
X105060919Y-128399081D01*
X105240377Y-128546359D01*
X105271812Y-128572157D01*
X105512419Y-128700764D01*
X105773493Y-128779960D01*
X105930001Y-128795375D01*
X105930000Y-133191314D01*
X100668764Y-138452551D01*
X100615920Y-138495919D01*
X100572551Y-138548764D01*
X100572548Y-138548767D01*
X100442844Y-138706812D01*
X100314236Y-138947420D01*
X100235040Y-139208493D01*
X100208300Y-139480000D01*
X100215001Y-139548039D01*
X100215000Y-142817909D01*
X100125792Y-142709208D01*
X99897387Y-142521762D01*
X99636802Y-142382476D01*
X99354051Y-142296705D01*
X99060000Y-142267743D01*
X98765950Y-142296705D01*
X98483199Y-142382476D01*
X98222614Y-142521762D01*
X97994208Y-142709208D01*
X97806762Y-142937613D01*
X97790000Y-142968972D01*
X97773238Y-142937613D01*
X97585792Y-142709208D01*
X97357387Y-142521762D01*
X97096802Y-142382476D01*
X96814051Y-142296705D01*
X96520000Y-142267743D01*
X96225950Y-142296705D01*
X95943199Y-142382476D01*
X95682614Y-142521762D01*
X95454208Y-142709208D01*
X95266762Y-142937613D01*
X95127476Y-143198198D01*
X95041705Y-143480949D01*
X95020000Y-143701320D01*
X93215000Y-143701320D01*
X93215000Y-143547285D01*
X93067623Y-142806372D01*
X92778533Y-142108446D01*
X92358839Y-141480330D01*
X91824670Y-140946161D01*
X91196554Y-140526467D01*
X90498628Y-140237377D01*
X89757715Y-140090000D01*
X89002285Y-140090000D01*
X88261372Y-140237377D01*
X87563446Y-140526467D01*
X86935330Y-140946161D01*
X86401161Y-141480330D01*
X85981467Y-142108446D01*
X85692377Y-142806372D01*
X85545000Y-143547285D01*
X85040000Y-143547285D01*
X85040000Y-138203979D01*
X90228523Y-138203979D01*
X90450585Y-138527265D01*
X90909428Y-138711443D01*
X91395385Y-138802565D01*
X91889782Y-138797131D01*
X92373620Y-138695350D01*
X92779415Y-138527265D01*
X93001477Y-138203979D01*
X91615000Y-136817502D01*
X90228523Y-138203979D01*
X85040000Y-138203979D01*
X85040000Y-136070385D01*
X89102435Y-136070385D01*
X89107869Y-136564782D01*
X89209650Y-137048620D01*
X89377735Y-137454415D01*
X89701021Y-137676477D01*
X91087498Y-136290000D01*
X92142502Y-136290000D01*
X93528979Y-137676477D01*
X93852265Y-137454415D01*
X94036443Y-136995572D01*
X94127565Y-136509615D01*
X94122131Y-136015218D01*
X94020350Y-135531380D01*
X93852265Y-135125585D01*
X93528979Y-134903523D01*
X92142502Y-136290000D01*
X91087498Y-136290000D01*
X89701021Y-134903523D01*
X89377735Y-135125585D01*
X89193557Y-135584428D01*
X89102435Y-136070385D01*
X85040000Y-136070385D01*
X85040000Y-134376021D01*
X90228523Y-134376021D01*
X91615000Y-135762498D01*
X93001477Y-134376021D01*
X92779415Y-134052735D01*
X92320572Y-133868557D01*
X91834615Y-133777435D01*
X91340218Y-133782869D01*
X90856380Y-133884650D01*
X90450585Y-134052735D01*
X90228523Y-134376021D01*
X85040000Y-134376021D01*
X85040000Y-133593865D01*
X87138637Y-133593865D01*
X87375975Y-133929956D01*
X87856285Y-134126717D01*
X88365752Y-134225992D01*
X88884798Y-134223969D01*
X89393476Y-134120723D01*
X89854025Y-133929956D01*
X90091363Y-133593865D01*
X88615000Y-132117502D01*
X87138637Y-133593865D01*
X85040000Y-133593865D01*
X85040000Y-131340752D01*
X85979008Y-131340752D01*
X85981031Y-131859798D01*
X86084277Y-132368476D01*
X86275044Y-132829025D01*
X86611135Y-133066363D01*
X88087498Y-131590000D01*
X89142502Y-131590000D01*
X90618865Y-133066363D01*
X90954956Y-132829025D01*
X91151717Y-132348715D01*
X91250992Y-131839248D01*
X91249058Y-131342787D01*
X92105000Y-131342787D01*
X92105000Y-131837213D01*
X92201458Y-132322140D01*
X92390667Y-132778931D01*
X92665356Y-133190032D01*
X93014968Y-133539644D01*
X93426069Y-133814333D01*
X93882860Y-134003542D01*
X94367787Y-134100000D01*
X94862213Y-134100000D01*
X95347140Y-134003542D01*
X95803931Y-133814333D01*
X96215032Y-133539644D01*
X96564644Y-133190032D01*
X96839333Y-132778931D01*
X97028542Y-132322140D01*
X97125000Y-131837213D01*
X97125000Y-131342787D01*
X97028542Y-130857860D01*
X96839333Y-130401069D01*
X96564644Y-129989968D01*
X96215032Y-129640356D01*
X95803931Y-129365667D01*
X95347140Y-129176458D01*
X94862213Y-129080000D01*
X94367787Y-129080000D01*
X93882860Y-129176458D01*
X93426069Y-129365667D01*
X93014968Y-129640356D01*
X92665356Y-129989968D01*
X92390667Y-130401069D01*
X92201458Y-130857860D01*
X92105000Y-131342787D01*
X91249058Y-131342787D01*
X91248969Y-131320202D01*
X91145723Y-130811524D01*
X90954956Y-130350975D01*
X90618865Y-130113637D01*
X89142502Y-131590000D01*
X88087498Y-131590000D01*
X86611135Y-130113637D01*
X86275044Y-130350975D01*
X86078283Y-130831285D01*
X85979008Y-131340752D01*
X85040000Y-131340752D01*
X85040000Y-129586135D01*
X87138637Y-129586135D01*
X88615000Y-131062498D01*
X90091363Y-129586135D01*
X89854025Y-129250044D01*
X89373715Y-129053283D01*
X88864248Y-128954008D01*
X88345202Y-128956031D01*
X87836524Y-129059277D01*
X87375975Y-129250044D01*
X87138637Y-129586135D01*
X85040000Y-129586135D01*
X85040000Y-103547285D01*
X85545000Y-103547285D01*
X85545000Y-104302715D01*
X85692377Y-105043628D01*
X85981467Y-105741554D01*
X86401161Y-106369670D01*
X86935330Y-106903839D01*
X87563446Y-107323533D01*
X88261372Y-107612623D01*
X89002285Y-107760000D01*
X89757715Y-107760000D01*
X90498628Y-107612623D01*
X91196554Y-107323533D01*
X91824670Y-106903839D01*
X92358839Y-106369670D01*
X92778533Y-105741554D01*
X93067623Y-105043628D01*
X93215000Y-104302715D01*
X93215000Y-103547285D01*
X93067623Y-102806372D01*
X92778533Y-102108446D01*
X92358839Y-101480330D01*
X91842249Y-100963740D01*
X96305000Y-100963740D01*
X96305000Y-101256260D01*
X96362068Y-101543158D01*
X96474010Y-101813411D01*
X96636525Y-102056632D01*
X96843368Y-102263475D01*
X97086589Y-102425990D01*
X97356842Y-102537932D01*
X97643740Y-102595000D01*
X97936260Y-102595000D01*
X98223158Y-102537932D01*
X98493411Y-102425990D01*
X98736632Y-102263475D01*
X98943475Y-102056632D01*
X99060000Y-101882240D01*
X99176525Y-102056632D01*
X99383368Y-102263475D01*
X99626589Y-102425990D01*
X99896842Y-102537932D01*
X100183740Y-102595000D01*
X100476260Y-102595000D01*
X100666918Y-102557075D01*
X108272653Y-110162810D01*
X108297236Y-110192764D01*
X108416767Y-110290862D01*
X108553140Y-110363754D01*
X108701113Y-110408642D01*
X108776026Y-110416020D01*
X108816439Y-110420000D01*
X108816444Y-110420000D01*
X108855000Y-110423797D01*
X108893556Y-110420000D01*
X109176289Y-110420000D01*
X109195226Y-110438937D01*
X109364744Y-110552205D01*
X109553102Y-110630226D01*
X109753061Y-110670000D01*
X109956939Y-110670000D01*
X110156898Y-110630226D01*
X110345256Y-110552205D01*
X110514774Y-110438937D01*
X110658937Y-110294774D01*
X110772205Y-110125256D01*
X110850226Y-109936898D01*
X110890000Y-109736939D01*
X110890000Y-109533061D01*
X110850771Y-109335840D01*
X110980256Y-109282205D01*
X111149774Y-109168937D01*
X111293937Y-109024774D01*
X111407205Y-108855256D01*
X111485226Y-108666898D01*
X111525000Y-108466939D01*
X111525000Y-108263061D01*
X111485226Y-108063102D01*
X111407205Y-107874744D01*
X111293937Y-107705226D01*
X111149774Y-107561063D01*
X110980256Y-107447795D01*
X110791898Y-107369774D01*
X110591939Y-107330000D01*
X110388061Y-107330000D01*
X110188102Y-107369774D01*
X109999744Y-107447795D01*
X109830226Y-107561063D01*
X109811289Y-107580000D01*
X108910157Y-107580000D01*
X103682953Y-102352796D01*
X103816632Y-102263475D01*
X103948487Y-102131620D01*
X103970498Y-102204180D01*
X104029463Y-102314494D01*
X104108815Y-102411185D01*
X104205506Y-102490537D01*
X104315820Y-102549502D01*
X104435518Y-102585812D01*
X104560000Y-102598072D01*
X104878250Y-102595000D01*
X105037000Y-102436250D01*
X105037000Y-101483000D01*
X105017000Y-101483000D01*
X105017000Y-100737000D01*
X105037000Y-100737000D01*
X105037000Y-99783750D01*
X105783000Y-99783750D01*
X105783000Y-100737000D01*
X105803000Y-100737000D01*
X105803000Y-101483000D01*
X105783000Y-101483000D01*
X105783000Y-102436250D01*
X105941750Y-102595000D01*
X106260000Y-102598072D01*
X106384482Y-102585812D01*
X106504180Y-102549502D01*
X106614494Y-102490537D01*
X106711185Y-102411185D01*
X106790537Y-102314494D01*
X106849502Y-102204180D01*
X106871513Y-102131620D01*
X107003368Y-102263475D01*
X107246589Y-102425990D01*
X107516842Y-102537932D01*
X107803740Y-102595000D01*
X108096260Y-102595000D01*
X108383158Y-102537932D01*
X108653411Y-102425990D01*
X108896632Y-102263475D01*
X109028487Y-102131620D01*
X109050498Y-102204180D01*
X109109463Y-102314494D01*
X109188815Y-102411185D01*
X109285506Y-102490537D01*
X109395820Y-102549502D01*
X109515518Y-102585812D01*
X109640000Y-102598072D01*
X109958250Y-102595000D01*
X110117000Y-102436250D01*
X110117000Y-101483000D01*
X110097000Y-101483000D01*
X110097000Y-100737000D01*
X110117000Y-100737000D01*
X110117000Y-99783750D01*
X110863000Y-99783750D01*
X110863000Y-100737000D01*
X110883000Y-100737000D01*
X110883000Y-101483000D01*
X110863000Y-101483000D01*
X110863000Y-102436250D01*
X111021750Y-102595000D01*
X111340000Y-102598072D01*
X111464482Y-102585812D01*
X111584180Y-102549502D01*
X111694494Y-102490537D01*
X111791185Y-102411185D01*
X111870537Y-102314494D01*
X111929502Y-102204180D01*
X111951513Y-102131620D01*
X112083368Y-102263475D01*
X112245001Y-102371475D01*
X112245000Y-109591289D01*
X112226063Y-109610226D01*
X112112795Y-109779744D01*
X112034774Y-109968102D01*
X111995000Y-110168061D01*
X111995000Y-110371939D01*
X112034774Y-110571898D01*
X112112795Y-110760256D01*
X112226063Y-110929774D01*
X112370226Y-111073937D01*
X112539744Y-111187205D01*
X112728102Y-111265226D01*
X112928061Y-111305000D01*
X113131939Y-111305000D01*
X113331898Y-111265226D01*
X113520256Y-111187205D01*
X113689774Y-111073937D01*
X113833937Y-110929774D01*
X113947205Y-110760256D01*
X114025226Y-110571898D01*
X114065000Y-110371939D01*
X114065000Y-110168061D01*
X114025226Y-109968102D01*
X113947205Y-109779744D01*
X113833937Y-109610226D01*
X113815000Y-109591289D01*
X113815000Y-102371474D01*
X113976632Y-102263475D01*
X114183475Y-102056632D01*
X114300000Y-101882240D01*
X114416525Y-102056632D01*
X114623368Y-102263475D01*
X114785001Y-102371475D01*
X114785000Y-110861289D01*
X114766063Y-110880226D01*
X114652795Y-111049744D01*
X114574774Y-111238102D01*
X114535000Y-111438061D01*
X114535000Y-111641939D01*
X114574774Y-111841898D01*
X114652795Y-112030256D01*
X114766063Y-112199774D01*
X114910226Y-112343937D01*
X115079744Y-112457205D01*
X115268102Y-112535226D01*
X115468061Y-112575000D01*
X115671939Y-112575000D01*
X115871898Y-112535226D01*
X116060256Y-112457205D01*
X116229774Y-112343937D01*
X116373937Y-112199774D01*
X116487205Y-112030256D01*
X116565226Y-111841898D01*
X116605000Y-111641939D01*
X116605000Y-111438061D01*
X116565226Y-111238102D01*
X116487205Y-111049744D01*
X116373937Y-110880226D01*
X116355000Y-110861289D01*
X116355000Y-102371474D01*
X116516632Y-102263475D01*
X116723475Y-102056632D01*
X116840000Y-101882240D01*
X116956525Y-102056632D01*
X117163368Y-102263475D01*
X117325001Y-102371475D01*
X117325000Y-109591289D01*
X117306063Y-109610226D01*
X117192795Y-109779744D01*
X117114774Y-109968102D01*
X117075000Y-110168061D01*
X117075000Y-110371939D01*
X117114774Y-110571898D01*
X117192795Y-110760256D01*
X117306063Y-110929774D01*
X117450226Y-111073937D01*
X117619744Y-111187205D01*
X117808102Y-111265226D01*
X118008061Y-111305000D01*
X118211939Y-111305000D01*
X118411898Y-111265226D01*
X118600256Y-111187205D01*
X118769774Y-111073937D01*
X118913937Y-110929774D01*
X119027205Y-110760256D01*
X119105226Y-110571898D01*
X119145000Y-110371939D01*
X119145000Y-110168061D01*
X119105226Y-109968102D01*
X119027205Y-109779744D01*
X118913937Y-109610226D01*
X118895000Y-109591289D01*
X118895000Y-102371474D01*
X119056632Y-102263475D01*
X119263475Y-102056632D01*
X119380000Y-101882240D01*
X119496525Y-102056632D01*
X119703368Y-102263475D01*
X119865001Y-102371475D01*
X119865000Y-110226289D01*
X119846063Y-110245226D01*
X119732795Y-110414744D01*
X119654774Y-110603102D01*
X119615000Y-110803061D01*
X119615000Y-111006939D01*
X119654774Y-111206898D01*
X119732795Y-111395256D01*
X119846063Y-111564774D01*
X119990226Y-111708937D01*
X120159744Y-111822205D01*
X120348102Y-111900226D01*
X120548061Y-111940000D01*
X120751939Y-111940000D01*
X120951898Y-111900226D01*
X121140256Y-111822205D01*
X121309774Y-111708937D01*
X121453937Y-111564774D01*
X121567205Y-111395256D01*
X121645226Y-111206898D01*
X121685000Y-111006939D01*
X121685000Y-110803061D01*
X121645226Y-110603102D01*
X121567205Y-110414744D01*
X121453937Y-110245226D01*
X121435000Y-110226289D01*
X121435000Y-102371474D01*
X121596632Y-102263475D01*
X121803475Y-102056632D01*
X121965990Y-101813411D01*
X122077932Y-101543158D01*
X122135000Y-101256260D01*
X122135000Y-100963740D01*
X122077932Y-100676842D01*
X121965990Y-100406589D01*
X121803475Y-100163368D01*
X121596632Y-99956525D01*
X121353411Y-99794010D01*
X121083158Y-99682068D01*
X120796260Y-99625000D01*
X120503740Y-99625000D01*
X120216842Y-99682068D01*
X119946589Y-99794010D01*
X119703368Y-99956525D01*
X119496525Y-100163368D01*
X119380000Y-100337760D01*
X119263475Y-100163368D01*
X119056632Y-99956525D01*
X118813411Y-99794010D01*
X118543158Y-99682068D01*
X118256260Y-99625000D01*
X117963740Y-99625000D01*
X117676842Y-99682068D01*
X117406589Y-99794010D01*
X117163368Y-99956525D01*
X116956525Y-100163368D01*
X116840000Y-100337760D01*
X116723475Y-100163368D01*
X116516632Y-99956525D01*
X116273411Y-99794010D01*
X116003158Y-99682068D01*
X115716260Y-99625000D01*
X115423740Y-99625000D01*
X115136842Y-99682068D01*
X114866589Y-99794010D01*
X114623368Y-99956525D01*
X114416525Y-100163368D01*
X114300000Y-100337760D01*
X114183475Y-100163368D01*
X113976632Y-99956525D01*
X113733411Y-99794010D01*
X113463158Y-99682068D01*
X113176260Y-99625000D01*
X112883740Y-99625000D01*
X112596842Y-99682068D01*
X112326589Y-99794010D01*
X112083368Y-99956525D01*
X111951513Y-100088380D01*
X111929502Y-100015820D01*
X111870537Y-99905506D01*
X111791185Y-99808815D01*
X111694494Y-99729463D01*
X111584180Y-99670498D01*
X111464482Y-99634188D01*
X111340000Y-99621928D01*
X111021750Y-99625000D01*
X110863000Y-99783750D01*
X110117000Y-99783750D01*
X109958250Y-99625000D01*
X109640000Y-99621928D01*
X109515518Y-99634188D01*
X109395820Y-99670498D01*
X109285506Y-99729463D01*
X109188815Y-99808815D01*
X109109463Y-99905506D01*
X109050498Y-100015820D01*
X109028487Y-100088380D01*
X108896632Y-99956525D01*
X108653411Y-99794010D01*
X108383158Y-99682068D01*
X108096260Y-99625000D01*
X107803740Y-99625000D01*
X107516842Y-99682068D01*
X107246589Y-99794010D01*
X107003368Y-99956525D01*
X106871513Y-100088380D01*
X106849502Y-100015820D01*
X106790537Y-99905506D01*
X106711185Y-99808815D01*
X106614494Y-99729463D01*
X106504180Y-99670498D01*
X106384482Y-99634188D01*
X106260000Y-99621928D01*
X105941750Y-99625000D01*
X105783000Y-99783750D01*
X105037000Y-99783750D01*
X104878250Y-99625000D01*
X104560000Y-99621928D01*
X104435518Y-99634188D01*
X104315820Y-99670498D01*
X104205506Y-99729463D01*
X104108815Y-99808815D01*
X104029463Y-99905506D01*
X103970498Y-100015820D01*
X103948487Y-100088380D01*
X103816632Y-99956525D01*
X103573411Y-99794010D01*
X103303158Y-99682068D01*
X103016260Y-99625000D01*
X102723740Y-99625000D01*
X102436842Y-99682068D01*
X102166589Y-99794010D01*
X101923368Y-99956525D01*
X101716525Y-100163368D01*
X101600000Y-100337760D01*
X101483475Y-100163368D01*
X101276632Y-99956525D01*
X101033411Y-99794010D01*
X100763158Y-99682068D01*
X100476260Y-99625000D01*
X100183740Y-99625000D01*
X99896842Y-99682068D01*
X99626589Y-99794010D01*
X99383368Y-99956525D01*
X99176525Y-100163368D01*
X99060000Y-100337760D01*
X98943475Y-100163368D01*
X98736632Y-99956525D01*
X98493411Y-99794010D01*
X98223158Y-99682068D01*
X97936260Y-99625000D01*
X97643740Y-99625000D01*
X97356842Y-99682068D01*
X97086589Y-99794010D01*
X96843368Y-99956525D01*
X96636525Y-100163368D01*
X96474010Y-100406589D01*
X96362068Y-100676842D01*
X96305000Y-100963740D01*
X91842249Y-100963740D01*
X91824670Y-100946161D01*
X91196554Y-100526467D01*
X90498628Y-100237377D01*
X89757715Y-100090000D01*
X89002285Y-100090000D01*
X88261372Y-100237377D01*
X87563446Y-100526467D01*
X86935330Y-100946161D01*
X86401161Y-101480330D01*
X85981467Y-102108446D01*
X85692377Y-102806372D01*
X85545000Y-103547285D01*
X85040000Y-103547285D01*
X85040000Y-100957279D01*
X85068625Y-100665341D01*
X85144035Y-100415571D01*
X85266522Y-100185208D01*
X85431422Y-99983020D01*
X85632450Y-99816714D01*
X85861954Y-99692622D01*
X86111195Y-99615469D01*
X86401088Y-99585000D01*
X121847721Y-99585000D01*
X122139659Y-99613625D01*
%TA.AperFunction,Conductor*%
D23*
G36*
X122139659Y-99613625D02*
G01*
X122389429Y-99689035D01*
X122619792Y-99811522D01*
X122821980Y-99976422D01*
X122988286Y-100177450D01*
X123112378Y-100406954D01*
X123189531Y-100656195D01*
X123220001Y-100946098D01*
X123220000Y-103457418D01*
X123222852Y-103486372D01*
X123222765Y-103498781D01*
X123223665Y-103507952D01*
X123264466Y-103896145D01*
X123276487Y-103954708D01*
X123287702Y-104013501D01*
X123290366Y-104022323D01*
X123405790Y-104395198D01*
X123428975Y-104450353D01*
X123451379Y-104505806D01*
X123455706Y-104513943D01*
X123641357Y-104857298D01*
X123674780Y-104906849D01*
X123707562Y-104956946D01*
X123713387Y-104964087D01*
X123962194Y-105264841D01*
X124004629Y-105306981D01*
X124046492Y-105349730D01*
X124053592Y-105355604D01*
X124356077Y-105602305D01*
X124405904Y-105635409D01*
X124455259Y-105669204D01*
X124463365Y-105673587D01*
X124808007Y-105856837D01*
X124863311Y-105879631D01*
X124918295Y-105903198D01*
X124927098Y-105905923D01*
X125300770Y-106018741D01*
X125359458Y-106030361D01*
X125417961Y-106042797D01*
X125427126Y-106043760D01*
X125815595Y-106081850D01*
X125815598Y-106081850D01*
X125847581Y-106085000D01*
X126899843Y-106085000D01*
X126472185Y-106512658D01*
X126442237Y-106537236D01*
X126417659Y-106567184D01*
X126417655Y-106567188D01*
X126384690Y-106607356D01*
X126344139Y-106656767D01*
X126343985Y-106657056D01*
X126271246Y-106793141D01*
X126226359Y-106941114D01*
X126211203Y-107095000D01*
X126215001Y-107133563D01*
X126215000Y-109591289D01*
X126196063Y-109610226D01*
X126082795Y-109779744D01*
X126004774Y-109968102D01*
X125965000Y-110168061D01*
X125965000Y-110371939D01*
X126004774Y-110571898D01*
X126082795Y-110760256D01*
X126196063Y-110929774D01*
X126340226Y-111073937D01*
X126509744Y-111187205D01*
X126698102Y-111265226D01*
X126898061Y-111305000D01*
X127101939Y-111305000D01*
X127301898Y-111265226D01*
X127490256Y-111187205D01*
X127659774Y-111073937D01*
X127803937Y-110929774D01*
X127917205Y-110760256D01*
X127995226Y-110571898D01*
X128035000Y-110371939D01*
X128035000Y-110168061D01*
X127995226Y-109968102D01*
X127917205Y-109779744D01*
X127803937Y-109610226D01*
X127785000Y-109591289D01*
X127785000Y-107420157D01*
X127960157Y-107245000D01*
X143299843Y-107245000D01*
X150432924Y-114378082D01*
X150395000Y-114568740D01*
X150395000Y-114861260D01*
X150452068Y-115148158D01*
X150564010Y-115418411D01*
X150726525Y-115661632D01*
X150933368Y-115868475D01*
X151107760Y-115985000D01*
X150933368Y-116101525D01*
X150726525Y-116308368D01*
X150699288Y-116349131D01*
X145815000Y-111464843D01*
X145815000Y-111438061D01*
X145775226Y-111238102D01*
X145697205Y-111049744D01*
X145583937Y-110880226D01*
X145439774Y-110736063D01*
X145270256Y-110622795D01*
X145081898Y-110544774D01*
X144881939Y-110505000D01*
X144678061Y-110505000D01*
X144478102Y-110544774D01*
X144289744Y-110622795D01*
X144120226Y-110736063D01*
X143976063Y-110880226D01*
X143862795Y-111049744D01*
X143784774Y-111238102D01*
X143745000Y-111438061D01*
X143745000Y-111641939D01*
X143784774Y-111841898D01*
X143862795Y-112030256D01*
X143959510Y-112175000D01*
X143862795Y-112319744D01*
X143784774Y-112508102D01*
X143745000Y-112708061D01*
X143745000Y-112911939D01*
X143784774Y-113111898D01*
X143862795Y-113300256D01*
X143976063Y-113469774D01*
X144120226Y-113613937D01*
X144289744Y-113727205D01*
X144478102Y-113805226D01*
X144678061Y-113845000D01*
X144704843Y-113845000D01*
X150413845Y-119554002D01*
X150395000Y-119648740D01*
X150395000Y-119941260D01*
X150452068Y-120228158D01*
X150564010Y-120498411D01*
X150726525Y-120741632D01*
X150933368Y-120948475D01*
X151107760Y-121065000D01*
X150933368Y-121181525D01*
X150726525Y-121388368D01*
X150564010Y-121631589D01*
X150452068Y-121901842D01*
X150395000Y-122188740D01*
X150395000Y-122481260D01*
X150432925Y-122671918D01*
X149649843Y-123455000D01*
X144823711Y-123455000D01*
X144804774Y-123436063D01*
X144635256Y-123322795D01*
X144446898Y-123244774D01*
X144246939Y-123205000D01*
X144043061Y-123205000D01*
X143843102Y-123244774D01*
X143654744Y-123322795D01*
X143485226Y-123436063D01*
X143341063Y-123580226D01*
X143227795Y-123749744D01*
X143149774Y-123938102D01*
X143110000Y-124138061D01*
X143110000Y-124341939D01*
X143149774Y-124541898D01*
X143227795Y-124730256D01*
X143341063Y-124899774D01*
X143485226Y-125043937D01*
X143654744Y-125157205D01*
X143843102Y-125235226D01*
X144043061Y-125275000D01*
X144246939Y-125275000D01*
X144446898Y-125235226D01*
X144635256Y-125157205D01*
X144804774Y-125043937D01*
X144823711Y-125025000D01*
X149936447Y-125025000D01*
X149975000Y-125028797D01*
X150013553Y-125025000D01*
X150013561Y-125025000D01*
X150128887Y-125013641D01*
X150276860Y-124968754D01*
X150395000Y-124905608D01*
X150395000Y-125248002D01*
X150553748Y-125248002D01*
X150395000Y-125406750D01*
X150391928Y-125725000D01*
X150404188Y-125849482D01*
X150440498Y-125969180D01*
X150499463Y-126079494D01*
X150578815Y-126176185D01*
X150675506Y-126255537D01*
X150785820Y-126314502D01*
X150905518Y-126350812D01*
X151030000Y-126363072D01*
X151348250Y-126360000D01*
X151507000Y-126201250D01*
X151507000Y-125248000D01*
X152253000Y-125248000D01*
X152253000Y-126201250D01*
X152411750Y-126360000D01*
X152730000Y-126363072D01*
X152854482Y-126350812D01*
X152974180Y-126314502D01*
X153084494Y-126255537D01*
X153181185Y-126176185D01*
X153260537Y-126079494D01*
X153319502Y-125969180D01*
X153355812Y-125849482D01*
X153368072Y-125725000D01*
X153365000Y-125406750D01*
X153206250Y-125248000D01*
X152253000Y-125248000D01*
X151507000Y-125248000D01*
X151487000Y-125248000D01*
X151487000Y-124502000D01*
X151507000Y-124502000D01*
X151507000Y-124482000D01*
X152253000Y-124482000D01*
X152253000Y-124502000D01*
X153206250Y-124502000D01*
X153365000Y-124343250D01*
X153368072Y-124025000D01*
X153355812Y-123900518D01*
X153319502Y-123780820D01*
X153260537Y-123670506D01*
X153181185Y-123573815D01*
X153084494Y-123494463D01*
X152974180Y-123435498D01*
X152901620Y-123413487D01*
X153033475Y-123281632D01*
X153195990Y-123038411D01*
X153307932Y-122768158D01*
X153365000Y-122481260D01*
X153365000Y-122188740D01*
X153307932Y-121901842D01*
X153195990Y-121631589D01*
X153033475Y-121388368D01*
X152826632Y-121181525D01*
X152652240Y-121065000D01*
X152826632Y-120948475D01*
X153033475Y-120741632D01*
X153195990Y-120498411D01*
X153307932Y-120228158D01*
X153365000Y-119941260D01*
X153365000Y-119648740D01*
X153307932Y-119361842D01*
X153195990Y-119091589D01*
X153033475Y-118848368D01*
X152826632Y-118641525D01*
X152652240Y-118525000D01*
X152826632Y-118408475D01*
X153033475Y-118201632D01*
X153195990Y-117958411D01*
X153307932Y-117688158D01*
X153365000Y-117401260D01*
X153365000Y-117108740D01*
X153307932Y-116821842D01*
X153195990Y-116551589D01*
X153033475Y-116308368D01*
X152826632Y-116101525D01*
X152652240Y-115985000D01*
X152826632Y-115868475D01*
X153033475Y-115661632D01*
X153195990Y-115418411D01*
X153307932Y-115148158D01*
X153365000Y-114861260D01*
X153365000Y-114568740D01*
X153307932Y-114281842D01*
X153195990Y-114011589D01*
X153033475Y-113768368D01*
X152826632Y-113561525D01*
X152652240Y-113445000D01*
X152826632Y-113328475D01*
X153033475Y-113121632D01*
X153195990Y-112878411D01*
X153307932Y-112608158D01*
X153365000Y-112321260D01*
X153365000Y-112028740D01*
X153307932Y-111741842D01*
X153195990Y-111471589D01*
X153033475Y-111228368D01*
X152826632Y-111021525D01*
X152583411Y-110859010D01*
X152313158Y-110747068D01*
X152026260Y-110690000D01*
X151733740Y-110690000D01*
X151446842Y-110747068D01*
X151176589Y-110859010D01*
X150933368Y-111021525D01*
X150726525Y-111228368D01*
X150564010Y-111471589D01*
X150452068Y-111741842D01*
X150395000Y-112028740D01*
X150395000Y-112119842D01*
X144207347Y-105932190D01*
X144182764Y-105902236D01*
X144063233Y-105804138D01*
X143926860Y-105731246D01*
X143778887Y-105686359D01*
X143663561Y-105675000D01*
X143663553Y-105675000D01*
X143625000Y-105671203D01*
X143586447Y-105675000D01*
X143291294Y-105675000D01*
X143312298Y-105663643D01*
X143361849Y-105630220D01*
X143411946Y-105597438D01*
X143419087Y-105591613D01*
X143719841Y-105342806D01*
X143761981Y-105300371D01*
X143804730Y-105258508D01*
X143810604Y-105251408D01*
X144057305Y-104948923D01*
X144090409Y-104899096D01*
X144124204Y-104849741D01*
X144128587Y-104841635D01*
X144311837Y-104496993D01*
X144334631Y-104441689D01*
X144358198Y-104386705D01*
X144360923Y-104377902D01*
X144473741Y-104004230D01*
X144485361Y-103945542D01*
X144497797Y-103887039D01*
X144498760Y-103877874D01*
X144531174Y-103547285D01*
X145545000Y-103547285D01*
X145545000Y-104302715D01*
X145692377Y-105043628D01*
X145981467Y-105741554D01*
X146401161Y-106369670D01*
X146935330Y-106903839D01*
X147563446Y-107323533D01*
X148261372Y-107612623D01*
X149002285Y-107760000D01*
X149757715Y-107760000D01*
X150498628Y-107612623D01*
X151196554Y-107323533D01*
X151824670Y-106903839D01*
X152358839Y-106369670D01*
X152778533Y-105741554D01*
X153067623Y-105043628D01*
X153215000Y-104302715D01*
X153215000Y-103547285D01*
X153067623Y-102806372D01*
X152778533Y-102108446D01*
X152358839Y-101480330D01*
X151824670Y-100946161D01*
X151196554Y-100526467D01*
X150498628Y-100237377D01*
X149757715Y-100090000D01*
X149002285Y-100090000D01*
X148261372Y-100237377D01*
X147563446Y-100526467D01*
X146935330Y-100946161D01*
X146401161Y-101480330D01*
X145981467Y-102108446D01*
X145692377Y-102806372D01*
X145545000Y-103547285D01*
X144531174Y-103547285D01*
X144536850Y-103489405D01*
X144536850Y-103489402D01*
X144540000Y-103457419D01*
X144540000Y-100957279D01*
X144568625Y-100665341D01*
X144644035Y-100415571D01*
X144766522Y-100185208D01*
X144931422Y-99983020D01*
X145132450Y-99816714D01*
X145361954Y-99692622D01*
X145611195Y-99615469D01*
X145901088Y-99585000D01*
X152347721Y-99585000D01*
X152639659Y-99613625D01*
X152889429Y-99689035D01*
X153119792Y-99811522D01*
X153321980Y-99976422D01*
X153488286Y-100177450D01*
X153612378Y-100406954D01*
X153689531Y-100656195D01*
X153720001Y-100946098D01*
X153720000Y-146892721D01*
X153691375Y-147184660D01*
X153615965Y-147434429D01*
X153493477Y-147664794D01*
X153328579Y-147866979D01*
X153127546Y-148033288D01*
X152898046Y-148157378D01*
X152648805Y-148234531D01*
X152358911Y-148265000D01*
X86412279Y-148265000D01*
X86120340Y-148236375D01*
X85870571Y-148160965D01*
X85640206Y-148038477D01*
X85438021Y-147873579D01*
X85271712Y-147672546D01*
X85147622Y-147443046D01*
X85070469Y-147193805D01*
X85040000Y-146903911D01*
X85040000Y-143547285D01*
X85545000Y-143547285D01*
X85545000Y-144302715D01*
X85692377Y-145043628D01*
X85981467Y-145741554D01*
X86401161Y-146369670D01*
X86935330Y-146903839D01*
X87563446Y-147323533D01*
X88261372Y-147612623D01*
X89002285Y-147760000D01*
X89757715Y-147760000D01*
X90498628Y-147612623D01*
X91196554Y-147323533D01*
X91824670Y-146903839D01*
X92358839Y-146369670D01*
X92778533Y-145741554D01*
X93067623Y-145043628D01*
X93215000Y-144302715D01*
X93215000Y-143701320D01*
X95020000Y-143701320D01*
X95020000Y-144148679D01*
X95041705Y-144369050D01*
X95127476Y-144651801D01*
X95266762Y-144912386D01*
X95454208Y-145140792D01*
X95682613Y-145328238D01*
X95943198Y-145467524D01*
X96225949Y-145553295D01*
X96520000Y-145582257D01*
X96814050Y-145553295D01*
X97096801Y-145467524D01*
X97357386Y-145328238D01*
X97585792Y-145140792D01*
X97773238Y-144912387D01*
X97790000Y-144881027D01*
X97806762Y-144912386D01*
X97994208Y-145140792D01*
X98177742Y-145291414D01*
X98139550Y-145329606D01*
X98009866Y-145523692D01*
X97920539Y-145739348D01*
X97875000Y-145968288D01*
X97875000Y-146201712D01*
X97920539Y-146430652D01*
X98009866Y-146646308D01*
X98139550Y-146840394D01*
X98304606Y-147005450D01*
X98498692Y-147135134D01*
X98714348Y-147224461D01*
X98943288Y-147270000D01*
X99176712Y-147270000D01*
X99405652Y-147224461D01*
X99621308Y-147135134D01*
X99815394Y-147005450D01*
X99980450Y-146840394D01*
X100110134Y-146646308D01*
X100199461Y-146430652D01*
X100245000Y-146201712D01*
X100245000Y-145968288D01*
X100199461Y-145739348D01*
X100110134Y-145523692D01*
X99980450Y-145329606D01*
X99942257Y-145291413D01*
X100125792Y-145140792D01*
X100313238Y-144912387D01*
X100330000Y-144881027D01*
X100346762Y-144912386D01*
X100534208Y-145140792D01*
X100762613Y-145328238D01*
X101023198Y-145467524D01*
X101305949Y-145553295D01*
X101600000Y-145582257D01*
X101894050Y-145553295D01*
X102176801Y-145467524D01*
X102437386Y-145328238D01*
X102665792Y-145140792D01*
X102670570Y-145134970D01*
X102685498Y-145184180D01*
X102744463Y-145294494D01*
X102823815Y-145391185D01*
X102920506Y-145470537D01*
X103030820Y-145529502D01*
X103150518Y-145565812D01*
X103275000Y-145578072D01*
X103608250Y-145575000D01*
X103767000Y-145416250D01*
X103767000Y-144298000D01*
X104513000Y-144298000D01*
X104513000Y-145416250D01*
X104671750Y-145575000D01*
X105005000Y-145578072D01*
X105129482Y-145565812D01*
X105249180Y-145529502D01*
X105359494Y-145470537D01*
X105456185Y-145391185D01*
X105535537Y-145294494D01*
X105594502Y-145184180D01*
X105630812Y-145064482D01*
X105643072Y-144940000D01*
X105640000Y-144456750D01*
X105481250Y-144298000D01*
X104513000Y-144298000D01*
X103767000Y-144298000D01*
X103747000Y-144298000D01*
X103747000Y-143701320D01*
X107720000Y-143701320D01*
X107720000Y-144148679D01*
X107741705Y-144369050D01*
X107827476Y-144651801D01*
X107966762Y-144912386D01*
X108154208Y-145140792D01*
X108382613Y-145328238D01*
X108643198Y-145467524D01*
X108925949Y-145553295D01*
X109220000Y-145582257D01*
X109514050Y-145553295D01*
X109796801Y-145467524D01*
X110057386Y-145328238D01*
X110285792Y-145140792D01*
X110473238Y-144912387D01*
X110490000Y-144881027D01*
X110506762Y-144912386D01*
X110694208Y-145140792D01*
X110877742Y-145291414D01*
X110839550Y-145329606D01*
X110709866Y-145523692D01*
X110620539Y-145739348D01*
X110575000Y-145968288D01*
X110575000Y-146201712D01*
X110620539Y-146430652D01*
X110709866Y-146646308D01*
X110839550Y-146840394D01*
X111004606Y-147005450D01*
X111198692Y-147135134D01*
X111414348Y-147224461D01*
X111643288Y-147270000D01*
X111876712Y-147270000D01*
X112105652Y-147224461D01*
X112321308Y-147135134D01*
X112515394Y-147005450D01*
X112680450Y-146840394D01*
X112810134Y-146646308D01*
X112899461Y-146430652D01*
X112945000Y-146201712D01*
X112945000Y-145968288D01*
X112899461Y-145739348D01*
X112810134Y-145523692D01*
X112680450Y-145329606D01*
X112642257Y-145291413D01*
X112825792Y-145140792D01*
X113013238Y-144912387D01*
X113030000Y-144881027D01*
X113046762Y-144912386D01*
X113234208Y-145140792D01*
X113462613Y-145328238D01*
X113723198Y-145467524D01*
X114005949Y-145553295D01*
X114300000Y-145582257D01*
X114594050Y-145553295D01*
X114876801Y-145467524D01*
X115137386Y-145328238D01*
X115365792Y-145140792D01*
X115370570Y-145134970D01*
X115385498Y-145184180D01*
X115444463Y-145294494D01*
X115523815Y-145391185D01*
X115620506Y-145470537D01*
X115730820Y-145529502D01*
X115850518Y-145565812D01*
X115975000Y-145578072D01*
X116308250Y-145575000D01*
X116467000Y-145416250D01*
X116467000Y-144298000D01*
X117213000Y-144298000D01*
X117213000Y-145416250D01*
X117371750Y-145575000D01*
X117705000Y-145578072D01*
X117829482Y-145565812D01*
X117949180Y-145529502D01*
X118059494Y-145470537D01*
X118156185Y-145391185D01*
X118235537Y-145294494D01*
X118294502Y-145184180D01*
X118330812Y-145064482D01*
X118343072Y-144940000D01*
X118340000Y-144456750D01*
X118181250Y-144298000D01*
X117213000Y-144298000D01*
X116467000Y-144298000D01*
X116447000Y-144298000D01*
X116447000Y-143701320D01*
X120420000Y-143701320D01*
X120420000Y-144148679D01*
X120441705Y-144369050D01*
X120527476Y-144651801D01*
X120666762Y-144912386D01*
X120854208Y-145140792D01*
X121082613Y-145328238D01*
X121343198Y-145467524D01*
X121625949Y-145553295D01*
X121920000Y-145582257D01*
X122214050Y-145553295D01*
X122496801Y-145467524D01*
X122757386Y-145328238D01*
X122985792Y-145140792D01*
X123173238Y-144912387D01*
X123190000Y-144881027D01*
X123206762Y-144912386D01*
X123394208Y-145140792D01*
X123577742Y-145291414D01*
X123539550Y-145329606D01*
X123409866Y-145523692D01*
X123320539Y-145739348D01*
X123275000Y-145968288D01*
X123275000Y-146201712D01*
X123320539Y-146430652D01*
X123409866Y-146646308D01*
X123539550Y-146840394D01*
X123704606Y-147005450D01*
X123898692Y-147135134D01*
X124114348Y-147224461D01*
X124343288Y-147270000D01*
X124576712Y-147270000D01*
X124805652Y-147224461D01*
X125021308Y-147135134D01*
X125215394Y-147005450D01*
X125380450Y-146840394D01*
X125510134Y-146646308D01*
X125599461Y-146430652D01*
X125645000Y-146201712D01*
X125645000Y-145968288D01*
X125599461Y-145739348D01*
X125510134Y-145523692D01*
X125380450Y-145329606D01*
X125342257Y-145291413D01*
X125525792Y-145140792D01*
X125713238Y-144912387D01*
X125730000Y-144881027D01*
X125746762Y-144912386D01*
X125934208Y-145140792D01*
X126162613Y-145328238D01*
X126423198Y-145467524D01*
X126705949Y-145553295D01*
X127000000Y-145582257D01*
X127294050Y-145553295D01*
X127576801Y-145467524D01*
X127837386Y-145328238D01*
X128065792Y-145140792D01*
X128070570Y-145134970D01*
X128085498Y-145184180D01*
X128144463Y-145294494D01*
X128223815Y-145391185D01*
X128320506Y-145470537D01*
X128430820Y-145529502D01*
X128550518Y-145565812D01*
X128675000Y-145578072D01*
X129008250Y-145575000D01*
X129167000Y-145416250D01*
X129167000Y-144298000D01*
X129913000Y-144298000D01*
X129913000Y-145416250D01*
X130071750Y-145575000D01*
X130405000Y-145578072D01*
X130529482Y-145565812D01*
X130649180Y-145529502D01*
X130759494Y-145470537D01*
X130856185Y-145391185D01*
X130935537Y-145294494D01*
X130994502Y-145184180D01*
X131030812Y-145064482D01*
X131043072Y-144940000D01*
X131040000Y-144456750D01*
X130881250Y-144298000D01*
X129913000Y-144298000D01*
X129167000Y-144298000D01*
X129147000Y-144298000D01*
X129147000Y-143701320D01*
X133120000Y-143701320D01*
X133120000Y-144148679D01*
X133141705Y-144369050D01*
X133227476Y-144651801D01*
X133366762Y-144912386D01*
X133554208Y-145140792D01*
X133782613Y-145328238D01*
X134043198Y-145467524D01*
X134325949Y-145553295D01*
X134620000Y-145582257D01*
X134914050Y-145553295D01*
X135196801Y-145467524D01*
X135457386Y-145328238D01*
X135685792Y-145140792D01*
X135873238Y-144912387D01*
X135890000Y-144881027D01*
X135906762Y-144912386D01*
X136094208Y-145140792D01*
X136277742Y-145291414D01*
X136239550Y-145329606D01*
X136109866Y-145523692D01*
X136020539Y-145739348D01*
X135975000Y-145968288D01*
X135975000Y-146201712D01*
X136020539Y-146430652D01*
X136109866Y-146646308D01*
X136239550Y-146840394D01*
X136404606Y-147005450D01*
X136598692Y-147135134D01*
X136814348Y-147224461D01*
X137043288Y-147270000D01*
X137276712Y-147270000D01*
X137505652Y-147224461D01*
X137721308Y-147135134D01*
X137915394Y-147005450D01*
X138080450Y-146840394D01*
X138210134Y-146646308D01*
X138299461Y-146430652D01*
X138345000Y-146201712D01*
X138345000Y-145968288D01*
X138299461Y-145739348D01*
X138210134Y-145523692D01*
X138080450Y-145329606D01*
X138042257Y-145291413D01*
X138225792Y-145140792D01*
X138413238Y-144912387D01*
X138430000Y-144881027D01*
X138446762Y-144912386D01*
X138634208Y-145140792D01*
X138862613Y-145328238D01*
X139123198Y-145467524D01*
X139405949Y-145553295D01*
X139700000Y-145582257D01*
X139994050Y-145553295D01*
X140276801Y-145467524D01*
X140537386Y-145328238D01*
X140765792Y-145140792D01*
X140770570Y-145134970D01*
X140785498Y-145184180D01*
X140844463Y-145294494D01*
X140923815Y-145391185D01*
X141020506Y-145470537D01*
X141130820Y-145529502D01*
X141250518Y-145565812D01*
X141375000Y-145578072D01*
X141708250Y-145575000D01*
X141867000Y-145416250D01*
X141867000Y-144298000D01*
X142613000Y-144298000D01*
X142613000Y-145416250D01*
X142771750Y-145575000D01*
X143105000Y-145578072D01*
X143229482Y-145565812D01*
X143349180Y-145529502D01*
X143459494Y-145470537D01*
X143556185Y-145391185D01*
X143635537Y-145294494D01*
X143694502Y-145184180D01*
X143730812Y-145064482D01*
X143743072Y-144940000D01*
X143740000Y-144456750D01*
X143581250Y-144298000D01*
X142613000Y-144298000D01*
X141867000Y-144298000D01*
X141847000Y-144298000D01*
X141847000Y-143552000D01*
X141867000Y-143552000D01*
X141867000Y-142433750D01*
X142613000Y-142433750D01*
X142613000Y-143552000D01*
X143581250Y-143552000D01*
X143585965Y-143547285D01*
X145545000Y-143547285D01*
X145545000Y-144302715D01*
X145692377Y-145043628D01*
X145981467Y-145741554D01*
X146401161Y-146369670D01*
X146935330Y-146903839D01*
X147563446Y-147323533D01*
X148261372Y-147612623D01*
X149002285Y-147760000D01*
X149757715Y-147760000D01*
X150498628Y-147612623D01*
X151196554Y-147323533D01*
X151824670Y-146903839D01*
X152358839Y-146369670D01*
X152778533Y-145741554D01*
X153067623Y-145043628D01*
X153215000Y-144302715D01*
X153215000Y-143547285D01*
X153067623Y-142806372D01*
X152778533Y-142108446D01*
X152358839Y-141480330D01*
X151824670Y-140946161D01*
X151196554Y-140526467D01*
X150498628Y-140237377D01*
X149757715Y-140090000D01*
X149002285Y-140090000D01*
X148261372Y-140237377D01*
X147563446Y-140526467D01*
X146935330Y-140946161D01*
X146401161Y-141480330D01*
X145981467Y-142108446D01*
X145692377Y-142806372D01*
X145545000Y-143547285D01*
X143585965Y-143547285D01*
X143740000Y-143393250D01*
X143743072Y-142910000D01*
X143730812Y-142785518D01*
X143694502Y-142665820D01*
X143635537Y-142555506D01*
X143556185Y-142458815D01*
X143459494Y-142379463D01*
X143349180Y-142320498D01*
X143229482Y-142284188D01*
X143105000Y-142271928D01*
X142771750Y-142275000D01*
X142613000Y-142433750D01*
X141867000Y-142433750D01*
X141708250Y-142275000D01*
X141375000Y-142271928D01*
X141250518Y-142284188D01*
X141130820Y-142320498D01*
X141020506Y-142379463D01*
X140923815Y-142458815D01*
X140844463Y-142555506D01*
X140785498Y-142665820D01*
X140770570Y-142715030D01*
X140765792Y-142709208D01*
X140537387Y-142521762D01*
X140276802Y-142382476D01*
X139994051Y-142296705D01*
X139700000Y-142267743D01*
X139405950Y-142296705D01*
X139123199Y-142382476D01*
X138862614Y-142521762D01*
X138634208Y-142709208D01*
X138446762Y-142937613D01*
X138430000Y-142968972D01*
X138413238Y-142937613D01*
X138225792Y-142709208D01*
X137997387Y-142521762D01*
X137736802Y-142382476D01*
X137454051Y-142296705D01*
X137160000Y-142267743D01*
X136865950Y-142296705D01*
X136583199Y-142382476D01*
X136322614Y-142521762D01*
X136094208Y-142709208D01*
X135906762Y-142937613D01*
X135890000Y-142968972D01*
X135873238Y-142937613D01*
X135685792Y-142709208D01*
X135457387Y-142521762D01*
X135196802Y-142382476D01*
X134914051Y-142296705D01*
X134620000Y-142267743D01*
X134325950Y-142296705D01*
X134043199Y-142382476D01*
X133782614Y-142521762D01*
X133554208Y-142709208D01*
X133366762Y-142937613D01*
X133227476Y-143198198D01*
X133141705Y-143480949D01*
X133120000Y-143701320D01*
X129147000Y-143701320D01*
X129147000Y-143552000D01*
X129167000Y-143552000D01*
X129167000Y-142433750D01*
X129913000Y-142433750D01*
X129913000Y-143552000D01*
X130881250Y-143552000D01*
X131040000Y-143393250D01*
X131043072Y-142910000D01*
X131030812Y-142785518D01*
X130994502Y-142665820D01*
X130935537Y-142555506D01*
X130856185Y-142458815D01*
X130759494Y-142379463D01*
X130649180Y-142320498D01*
X130529482Y-142284188D01*
X130405000Y-142271928D01*
X130071750Y-142275000D01*
X129913000Y-142433750D01*
X129167000Y-142433750D01*
X129008250Y-142275000D01*
X128675000Y-142271928D01*
X128550518Y-142284188D01*
X128430820Y-142320498D01*
X128320506Y-142379463D01*
X128223815Y-142458815D01*
X128144463Y-142555506D01*
X128085498Y-142665820D01*
X128070570Y-142715030D01*
X128065792Y-142709208D01*
X127837387Y-142521762D01*
X127576802Y-142382476D01*
X127294051Y-142296705D01*
X127000000Y-142267743D01*
X126705950Y-142296705D01*
X126423199Y-142382476D01*
X126162614Y-142521762D01*
X125934208Y-142709208D01*
X125746762Y-142937613D01*
X125730000Y-142968972D01*
X125713238Y-142937613D01*
X125525792Y-142709208D01*
X125297387Y-142521762D01*
X125036802Y-142382476D01*
X124754051Y-142296705D01*
X124460000Y-142267743D01*
X124165950Y-142296705D01*
X123883199Y-142382476D01*
X123622614Y-142521762D01*
X123394208Y-142709208D01*
X123206762Y-142937613D01*
X123190000Y-142968972D01*
X123173238Y-142937613D01*
X122985792Y-142709208D01*
X122757387Y-142521762D01*
X122496802Y-142382476D01*
X122214051Y-142296705D01*
X121920000Y-142267743D01*
X121625950Y-142296705D01*
X121343199Y-142382476D01*
X121082614Y-142521762D01*
X120854208Y-142709208D01*
X120666762Y-142937613D01*
X120527476Y-143198198D01*
X120441705Y-143480949D01*
X120420000Y-143701320D01*
X116447000Y-143701320D01*
X116447000Y-143552000D01*
X116467000Y-143552000D01*
X116467000Y-142433750D01*
X117213000Y-142433750D01*
X117213000Y-143552000D01*
X118181250Y-143552000D01*
X118340000Y-143393250D01*
X118343072Y-142910000D01*
X118330812Y-142785518D01*
X118294502Y-142665820D01*
X118235537Y-142555506D01*
X118156185Y-142458815D01*
X118059494Y-142379463D01*
X117949180Y-142320498D01*
X117829482Y-142284188D01*
X117705000Y-142271928D01*
X117371750Y-142275000D01*
X117213000Y-142433750D01*
X116467000Y-142433750D01*
X116308250Y-142275000D01*
X115975000Y-142271928D01*
X115850518Y-142284188D01*
X115730820Y-142320498D01*
X115620506Y-142379463D01*
X115523815Y-142458815D01*
X115444463Y-142555506D01*
X115385498Y-142665820D01*
X115370570Y-142715030D01*
X115365792Y-142709208D01*
X115137387Y-142521762D01*
X114876802Y-142382476D01*
X114594051Y-142296705D01*
X114300000Y-142267743D01*
X114005950Y-142296705D01*
X113723199Y-142382476D01*
X113462614Y-142521762D01*
X113234208Y-142709208D01*
X113046762Y-142937613D01*
X113030000Y-142968972D01*
X113013238Y-142937613D01*
X112825792Y-142709208D01*
X112597387Y-142521762D01*
X112336802Y-142382476D01*
X112054051Y-142296705D01*
X111760000Y-142267743D01*
X111465950Y-142296705D01*
X111183199Y-142382476D01*
X110922614Y-142521762D01*
X110694208Y-142709208D01*
X110506762Y-142937613D01*
X110490000Y-142968972D01*
X110473238Y-142937613D01*
X110285792Y-142709208D01*
X110057387Y-142521762D01*
X109796802Y-142382476D01*
X109514051Y-142296705D01*
X109220000Y-142267743D01*
X108925950Y-142296705D01*
X108643199Y-142382476D01*
X108382614Y-142521762D01*
X108154208Y-142709208D01*
X107966762Y-142937613D01*
X107827476Y-143198198D01*
X107741705Y-143480949D01*
X107720000Y-143701320D01*
X103747000Y-143701320D01*
X103747000Y-143552000D01*
X103767000Y-143552000D01*
X103767000Y-142433750D01*
X104513000Y-142433750D01*
X104513000Y-143552000D01*
X105481250Y-143552000D01*
X105640000Y-143393250D01*
X105643072Y-142910000D01*
X105630812Y-142785518D01*
X105594502Y-142665820D01*
X105535537Y-142555506D01*
X105456185Y-142458815D01*
X105359494Y-142379463D01*
X105249180Y-142320498D01*
X105129482Y-142284188D01*
X105005000Y-142271928D01*
X104671750Y-142275000D01*
X104513000Y-142433750D01*
X103767000Y-142433750D01*
X103608250Y-142275000D01*
X103275000Y-142271928D01*
X103150518Y-142284188D01*
X103030820Y-142320498D01*
X102985000Y-142344990D01*
X102985000Y-140053685D01*
X108246241Y-134792445D01*
X108299080Y-134749081D01*
X108342445Y-134696241D01*
X108342452Y-134696234D01*
X108472157Y-134538188D01*
X108600764Y-134297581D01*
X108679960Y-134036507D01*
X108706701Y-133765000D01*
X108700000Y-133696963D01*
X108700000Y-132278061D01*
X108820000Y-132278061D01*
X108820000Y-132481939D01*
X108859774Y-132681898D01*
X108937795Y-132870256D01*
X109051063Y-133039774D01*
X109070000Y-133058711D01*
X109070001Y-133201288D01*
X109051063Y-133220226D01*
X108937795Y-133389744D01*
X108859774Y-133578102D01*
X108820000Y-133778061D01*
X108820000Y-133981939D01*
X108859774Y-134181898D01*
X108937795Y-134370256D01*
X109051063Y-134539774D01*
X109195226Y-134683937D01*
X109364744Y-134797205D01*
X109553102Y-134875226D01*
X109753061Y-134915000D01*
X109956939Y-134915000D01*
X110156898Y-134875226D01*
X110345256Y-134797205D01*
X110514774Y-134683937D01*
X110658937Y-134539774D01*
X110772205Y-134370256D01*
X110850226Y-134181898D01*
X110890000Y-133981939D01*
X110890000Y-133778061D01*
X110850226Y-133578102D01*
X110772205Y-133389744D01*
X110658937Y-133220226D01*
X110640000Y-133201289D01*
X110640000Y-133058711D01*
X110658937Y-133039774D01*
X110772205Y-132870256D01*
X110850226Y-132681898D01*
X110890000Y-132481939D01*
X110890000Y-132278061D01*
X110850226Y-132078102D01*
X110772205Y-131889744D01*
X110684218Y-131758061D01*
X111360000Y-131758061D01*
X111360000Y-131961939D01*
X111399774Y-132161898D01*
X111477795Y-132350256D01*
X111591063Y-132519774D01*
X111610000Y-132538711D01*
X111610001Y-135631437D01*
X111606203Y-135670000D01*
X111621359Y-135823886D01*
X111666246Y-135971859D01*
X111666247Y-135971860D01*
X111739139Y-136108233D01*
X111774330Y-136151113D01*
X111812655Y-136197812D01*
X111812659Y-136197816D01*
X111837237Y-136227764D01*
X111867185Y-136252342D01*
X111995000Y-136380157D01*
X111995000Y-136406939D01*
X112034774Y-136606898D01*
X112112795Y-136795256D01*
X112226063Y-136964774D01*
X112370226Y-137108937D01*
X112539744Y-137222205D01*
X112728102Y-137300226D01*
X112928061Y-137340000D01*
X113131939Y-137340000D01*
X113331898Y-137300226D01*
X113520256Y-137222205D01*
X113689774Y-137108937D01*
X113833937Y-136964774D01*
X113947205Y-136795256D01*
X114025226Y-136606898D01*
X114065000Y-136406939D01*
X114065000Y-136203061D01*
X114025226Y-136003102D01*
X113947205Y-135814744D01*
X113833937Y-135645226D01*
X113689774Y-135501063D01*
X113520256Y-135387795D01*
X113331898Y-135309774D01*
X113180000Y-135279560D01*
X113180000Y-132538711D01*
X113198937Y-132519774D01*
X113312205Y-132350256D01*
X113390226Y-132161898D01*
X113430000Y-131961939D01*
X113430000Y-131758061D01*
X113390226Y-131558102D01*
X113312205Y-131369744D01*
X113198937Y-131200226D01*
X113054774Y-131056063D01*
X112885256Y-130942795D01*
X112696898Y-130864774D01*
X112496939Y-130825000D01*
X112293061Y-130825000D01*
X112093102Y-130864774D01*
X111904744Y-130942795D01*
X111735226Y-131056063D01*
X111591063Y-131200226D01*
X111477795Y-131369744D01*
X111399774Y-131558102D01*
X111360000Y-131758061D01*
X110684218Y-131758061D01*
X110658937Y-131720226D01*
X110514774Y-131576063D01*
X110345256Y-131462795D01*
X110156898Y-131384774D01*
X109956939Y-131345000D01*
X109753061Y-131345000D01*
X109553102Y-131384774D01*
X109364744Y-131462795D01*
X109195226Y-131576063D01*
X109051063Y-131720226D01*
X108937795Y-131889744D01*
X108859774Y-132078102D01*
X108820000Y-132278061D01*
X108700000Y-132278061D01*
X108700000Y-129218061D01*
X113900000Y-129218061D01*
X113900000Y-129421939D01*
X113939774Y-129621898D01*
X114017795Y-129810256D01*
X114131063Y-129979774D01*
X114150000Y-129998711D01*
X114150001Y-135631437D01*
X114146203Y-135670000D01*
X114161359Y-135823886D01*
X114206246Y-135971859D01*
X114206247Y-135971860D01*
X114279139Y-136108233D01*
X114314330Y-136151113D01*
X114352655Y-136197812D01*
X114352659Y-136197816D01*
X114377237Y-136227764D01*
X114407185Y-136252342D01*
X114535000Y-136380157D01*
X114535000Y-136406939D01*
X114574774Y-136606898D01*
X114652795Y-136795256D01*
X114766063Y-136964774D01*
X114910226Y-137108937D01*
X115079744Y-137222205D01*
X115268102Y-137300226D01*
X115468061Y-137340000D01*
X115671939Y-137340000D01*
X115871898Y-137300226D01*
X116060256Y-137222205D01*
X116229774Y-137108937D01*
X116373937Y-136964774D01*
X116487205Y-136795256D01*
X116565226Y-136606898D01*
X116605000Y-136406939D01*
X116605000Y-136203061D01*
X116565226Y-136003102D01*
X116487205Y-135814744D01*
X116373937Y-135645226D01*
X116229774Y-135501063D01*
X116060256Y-135387795D01*
X115871898Y-135309774D01*
X115720000Y-135279560D01*
X115720000Y-129998711D01*
X115738937Y-129979774D01*
X115852205Y-129810256D01*
X115930226Y-129621898D01*
X115970000Y-129421939D01*
X115970000Y-129218061D01*
X115930226Y-129018102D01*
X115852205Y-128829744D01*
X115738937Y-128660226D01*
X115594774Y-128516063D01*
X115425256Y-128402795D01*
X115236898Y-128324774D01*
X115036939Y-128285000D01*
X114833061Y-128285000D01*
X114633102Y-128324774D01*
X114444744Y-128402795D01*
X114275226Y-128516063D01*
X114131063Y-128660226D01*
X114017795Y-128829744D01*
X113939774Y-129018102D01*
X113900000Y-129218061D01*
X108700000Y-129218061D01*
X108700000Y-127483036D01*
X108706701Y-127415000D01*
X108700000Y-127346963D01*
X108700000Y-126678061D01*
X116440000Y-126678061D01*
X116440000Y-126881939D01*
X116479774Y-127081898D01*
X116557795Y-127270256D01*
X116671063Y-127439774D01*
X116690000Y-127458711D01*
X116690001Y-128646438D01*
X116686203Y-128685000D01*
X116701359Y-128838886D01*
X116746246Y-128986859D01*
X116746247Y-128986860D01*
X116819139Y-129123233D01*
X116841979Y-129151063D01*
X116892655Y-129212812D01*
X116892659Y-129212816D01*
X116917237Y-129242764D01*
X116947185Y-129267342D01*
X118162658Y-130482815D01*
X118187236Y-130512764D01*
X118217184Y-130537342D01*
X118217187Y-130537345D01*
X118246559Y-130561450D01*
X118306767Y-130610862D01*
X118443140Y-130683754D01*
X118556672Y-130718194D01*
X118591112Y-130728641D01*
X118605490Y-130730057D01*
X118706439Y-130740000D01*
X118706446Y-130740000D01*
X118744999Y-130743797D01*
X118783552Y-130740000D01*
X131401289Y-130740000D01*
X131420226Y-130758937D01*
X131589744Y-130872205D01*
X131778102Y-130950226D01*
X131978061Y-130990000D01*
X132181939Y-130990000D01*
X132381898Y-130950226D01*
X132570256Y-130872205D01*
X132739774Y-130758937D01*
X132883937Y-130614774D01*
X132997205Y-130445256D01*
X133075226Y-130256898D01*
X133115000Y-130056939D01*
X133115000Y-129853061D01*
X133075226Y-129653102D01*
X132997205Y-129464744D01*
X132883937Y-129295226D01*
X132739774Y-129151063D01*
X132570256Y-129037795D01*
X132381898Y-128959774D01*
X132181939Y-128920000D01*
X131978061Y-128920000D01*
X131778102Y-128959774D01*
X131589744Y-129037795D01*
X131420226Y-129151063D01*
X131401289Y-129170000D01*
X119070158Y-129170000D01*
X118260000Y-128359843D01*
X118260000Y-127458711D01*
X118278937Y-127439774D01*
X118392205Y-127270256D01*
X118470226Y-127081898D01*
X118510000Y-126881939D01*
X118510000Y-126678061D01*
X118470226Y-126478102D01*
X118392205Y-126289744D01*
X118278937Y-126120226D01*
X118134774Y-125976063D01*
X117965256Y-125862795D01*
X117776898Y-125784774D01*
X117576939Y-125745000D01*
X117373061Y-125745000D01*
X117173102Y-125784774D01*
X116984744Y-125862795D01*
X116815226Y-125976063D01*
X116671063Y-126120226D01*
X116557795Y-126289744D01*
X116479774Y-126478102D01*
X116440000Y-126678061D01*
X108700000Y-126678061D01*
X108700000Y-126213037D01*
X108706701Y-126145000D01*
X108679960Y-125873493D01*
X108600764Y-125612419D01*
X108472157Y-125371812D01*
X108299081Y-125160919D01*
X108088188Y-124987843D01*
X107847581Y-124859236D01*
X107586507Y-124780040D01*
X107383037Y-124760000D01*
X107315000Y-124753299D01*
X107246964Y-124760000D01*
X106113037Y-124760000D01*
X106045000Y-124753299D01*
X105976964Y-124760000D01*
X105976963Y-124760000D01*
X105773493Y-124780040D01*
X105512419Y-124859236D01*
X105271812Y-124987843D01*
X105060919Y-125160919D01*
X104887843Y-125371812D01*
X104759236Y-125612419D01*
X104680040Y-125873493D01*
X104653299Y-126145000D01*
X104660000Y-126213037D01*
X104660000Y-127346963D01*
X104653299Y-127415000D01*
X104680040Y-127686507D01*
X104759236Y-127947581D01*
X104887843Y-128188188D01*
X105060919Y-128399081D01*
X105240377Y-128546359D01*
X105271812Y-128572157D01*
X105512419Y-128700764D01*
X105773493Y-128779960D01*
X105930001Y-128795375D01*
X105930000Y-133191314D01*
X100668764Y-138452551D01*
X100615920Y-138495919D01*
X100572551Y-138548764D01*
X100572548Y-138548767D01*
X100442844Y-138706812D01*
X100314236Y-138947420D01*
X100235040Y-139208493D01*
X100208300Y-139480000D01*
X100215001Y-139548039D01*
X100215000Y-142817909D01*
X100125792Y-142709208D01*
X99897387Y-142521762D01*
X99636802Y-142382476D01*
X99354051Y-142296705D01*
X99060000Y-142267743D01*
X98765950Y-142296705D01*
X98483199Y-142382476D01*
X98222614Y-142521762D01*
X97994208Y-142709208D01*
X97806762Y-142937613D01*
X97790000Y-142968972D01*
X97773238Y-142937613D01*
X97585792Y-142709208D01*
X97357387Y-142521762D01*
X97096802Y-142382476D01*
X96814051Y-142296705D01*
X96520000Y-142267743D01*
X96225950Y-142296705D01*
X95943199Y-142382476D01*
X95682614Y-142521762D01*
X95454208Y-142709208D01*
X95266762Y-142937613D01*
X95127476Y-143198198D01*
X95041705Y-143480949D01*
X95020000Y-143701320D01*
X93215000Y-143701320D01*
X93215000Y-143547285D01*
X93067623Y-142806372D01*
X92778533Y-142108446D01*
X92358839Y-141480330D01*
X91824670Y-140946161D01*
X91196554Y-140526467D01*
X90498628Y-140237377D01*
X89757715Y-140090000D01*
X89002285Y-140090000D01*
X88261372Y-140237377D01*
X87563446Y-140526467D01*
X86935330Y-140946161D01*
X86401161Y-141480330D01*
X85981467Y-142108446D01*
X85692377Y-142806372D01*
X85545000Y-143547285D01*
X85040000Y-143547285D01*
X85040000Y-138203979D01*
X90228523Y-138203979D01*
X90450585Y-138527265D01*
X90909428Y-138711443D01*
X91395385Y-138802565D01*
X91889782Y-138797131D01*
X92373620Y-138695350D01*
X92779415Y-138527265D01*
X93001477Y-138203979D01*
X91615000Y-136817502D01*
X90228523Y-138203979D01*
X85040000Y-138203979D01*
X85040000Y-136070385D01*
X89102435Y-136070385D01*
X89107869Y-136564782D01*
X89209650Y-137048620D01*
X89377735Y-137454415D01*
X89701021Y-137676477D01*
X91087498Y-136290000D01*
X92142502Y-136290000D01*
X93528979Y-137676477D01*
X93852265Y-137454415D01*
X94036443Y-136995572D01*
X94127565Y-136509615D01*
X94122131Y-136015218D01*
X94020350Y-135531380D01*
X93852265Y-135125585D01*
X93528979Y-134903523D01*
X92142502Y-136290000D01*
X91087498Y-136290000D01*
X89701021Y-134903523D01*
X89377735Y-135125585D01*
X89193557Y-135584428D01*
X89102435Y-136070385D01*
X85040000Y-136070385D01*
X85040000Y-134376021D01*
X90228523Y-134376021D01*
X91615000Y-135762498D01*
X93001477Y-134376021D01*
X92779415Y-134052735D01*
X92320572Y-133868557D01*
X91834615Y-133777435D01*
X91340218Y-133782869D01*
X90856380Y-133884650D01*
X90450585Y-134052735D01*
X90228523Y-134376021D01*
X85040000Y-134376021D01*
X85040000Y-133593865D01*
X87138637Y-133593865D01*
X87375975Y-133929956D01*
X87856285Y-134126717D01*
X88365752Y-134225992D01*
X88884798Y-134223969D01*
X89393476Y-134120723D01*
X89854025Y-133929956D01*
X90091363Y-133593865D01*
X88615000Y-132117502D01*
X87138637Y-133593865D01*
X85040000Y-133593865D01*
X85040000Y-131340752D01*
X85979008Y-131340752D01*
X85981031Y-131859798D01*
X86084277Y-132368476D01*
X86275044Y-132829025D01*
X86611135Y-133066363D01*
X88087498Y-131590000D01*
X89142502Y-131590000D01*
X90618865Y-133066363D01*
X90954956Y-132829025D01*
X91151717Y-132348715D01*
X91250992Y-131839248D01*
X91249058Y-131342787D01*
X92105000Y-131342787D01*
X92105000Y-131837213D01*
X92201458Y-132322140D01*
X92390667Y-132778931D01*
X92665356Y-133190032D01*
X93014968Y-133539644D01*
X93426069Y-133814333D01*
X93882860Y-134003542D01*
X94367787Y-134100000D01*
X94862213Y-134100000D01*
X95347140Y-134003542D01*
X95803931Y-133814333D01*
X96215032Y-133539644D01*
X96564644Y-133190032D01*
X96839333Y-132778931D01*
X97028542Y-132322140D01*
X97125000Y-131837213D01*
X97125000Y-131342787D01*
X97028542Y-130857860D01*
X96839333Y-130401069D01*
X96564644Y-129989968D01*
X96215032Y-129640356D01*
X95803931Y-129365667D01*
X95347140Y-129176458D01*
X94862213Y-129080000D01*
X94367787Y-129080000D01*
X93882860Y-129176458D01*
X93426069Y-129365667D01*
X93014968Y-129640356D01*
X92665356Y-129989968D01*
X92390667Y-130401069D01*
X92201458Y-130857860D01*
X92105000Y-131342787D01*
X91249058Y-131342787D01*
X91248969Y-131320202D01*
X91145723Y-130811524D01*
X90954956Y-130350975D01*
X90618865Y-130113637D01*
X89142502Y-131590000D01*
X88087498Y-131590000D01*
X86611135Y-130113637D01*
X86275044Y-130350975D01*
X86078283Y-130831285D01*
X85979008Y-131340752D01*
X85040000Y-131340752D01*
X85040000Y-129586135D01*
X87138637Y-129586135D01*
X88615000Y-131062498D01*
X90091363Y-129586135D01*
X89854025Y-129250044D01*
X89373715Y-129053283D01*
X88864248Y-128954008D01*
X88345202Y-128956031D01*
X87836524Y-129059277D01*
X87375975Y-129250044D01*
X87138637Y-129586135D01*
X85040000Y-129586135D01*
X85040000Y-103547285D01*
X85545000Y-103547285D01*
X85545000Y-104302715D01*
X85692377Y-105043628D01*
X85981467Y-105741554D01*
X86401161Y-106369670D01*
X86935330Y-106903839D01*
X87563446Y-107323533D01*
X88261372Y-107612623D01*
X89002285Y-107760000D01*
X89757715Y-107760000D01*
X90498628Y-107612623D01*
X91196554Y-107323533D01*
X91824670Y-106903839D01*
X92358839Y-106369670D01*
X92778533Y-105741554D01*
X93067623Y-105043628D01*
X93215000Y-104302715D01*
X93215000Y-103547285D01*
X93067623Y-102806372D01*
X92778533Y-102108446D01*
X92358839Y-101480330D01*
X91842249Y-100963740D01*
X96305000Y-100963740D01*
X96305000Y-101256260D01*
X96362068Y-101543158D01*
X96474010Y-101813411D01*
X96636525Y-102056632D01*
X96843368Y-102263475D01*
X97086589Y-102425990D01*
X97356842Y-102537932D01*
X97643740Y-102595000D01*
X97936260Y-102595000D01*
X98223158Y-102537932D01*
X98493411Y-102425990D01*
X98736632Y-102263475D01*
X98943475Y-102056632D01*
X99060000Y-101882240D01*
X99176525Y-102056632D01*
X99383368Y-102263475D01*
X99626589Y-102425990D01*
X99896842Y-102537932D01*
X100183740Y-102595000D01*
X100476260Y-102595000D01*
X100666918Y-102557075D01*
X108272653Y-110162810D01*
X108297236Y-110192764D01*
X108416767Y-110290862D01*
X108553140Y-110363754D01*
X108701113Y-110408642D01*
X108776026Y-110416020D01*
X108816439Y-110420000D01*
X108816444Y-110420000D01*
X108855000Y-110423797D01*
X108893556Y-110420000D01*
X109176289Y-110420000D01*
X109195226Y-110438937D01*
X109364744Y-110552205D01*
X109553102Y-110630226D01*
X109753061Y-110670000D01*
X109956939Y-110670000D01*
X110156898Y-110630226D01*
X110345256Y-110552205D01*
X110514774Y-110438937D01*
X110658937Y-110294774D01*
X110772205Y-110125256D01*
X110850226Y-109936898D01*
X110890000Y-109736939D01*
X110890000Y-109533061D01*
X110850771Y-109335840D01*
X110980256Y-109282205D01*
X111149774Y-109168937D01*
X111293937Y-109024774D01*
X111407205Y-108855256D01*
X111485226Y-108666898D01*
X111525000Y-108466939D01*
X111525000Y-108263061D01*
X111485226Y-108063102D01*
X111407205Y-107874744D01*
X111293937Y-107705226D01*
X111149774Y-107561063D01*
X110980256Y-107447795D01*
X110791898Y-107369774D01*
X110591939Y-107330000D01*
X110388061Y-107330000D01*
X110188102Y-107369774D01*
X109999744Y-107447795D01*
X109830226Y-107561063D01*
X109811289Y-107580000D01*
X108910157Y-107580000D01*
X103682953Y-102352796D01*
X103816632Y-102263475D01*
X103948487Y-102131620D01*
X103970498Y-102204180D01*
X104029463Y-102314494D01*
X104108815Y-102411185D01*
X104205506Y-102490537D01*
X104315820Y-102549502D01*
X104435518Y-102585812D01*
X104560000Y-102598072D01*
X104878250Y-102595000D01*
X105037000Y-102436250D01*
X105037000Y-101483000D01*
X105017000Y-101483000D01*
X105017000Y-100737000D01*
X105037000Y-100737000D01*
X105037000Y-99783750D01*
X105783000Y-99783750D01*
X105783000Y-100737000D01*
X105803000Y-100737000D01*
X105803000Y-101483000D01*
X105783000Y-101483000D01*
X105783000Y-102436250D01*
X105941750Y-102595000D01*
X106260000Y-102598072D01*
X106384482Y-102585812D01*
X106504180Y-102549502D01*
X106614494Y-102490537D01*
X106711185Y-102411185D01*
X106790537Y-102314494D01*
X106849502Y-102204180D01*
X106871513Y-102131620D01*
X107003368Y-102263475D01*
X107246589Y-102425990D01*
X107516842Y-102537932D01*
X107803740Y-102595000D01*
X108096260Y-102595000D01*
X108383158Y-102537932D01*
X108653411Y-102425990D01*
X108896632Y-102263475D01*
X109028487Y-102131620D01*
X109050498Y-102204180D01*
X109109463Y-102314494D01*
X109188815Y-102411185D01*
X109285506Y-102490537D01*
X109395820Y-102549502D01*
X109515518Y-102585812D01*
X109640000Y-102598072D01*
X109958250Y-102595000D01*
X110117000Y-102436250D01*
X110117000Y-101483000D01*
X110097000Y-101483000D01*
X110097000Y-100737000D01*
X110117000Y-100737000D01*
X110117000Y-99783750D01*
X110863000Y-99783750D01*
X110863000Y-100737000D01*
X110883000Y-100737000D01*
X110883000Y-101483000D01*
X110863000Y-101483000D01*
X110863000Y-102436250D01*
X111021750Y-102595000D01*
X111340000Y-102598072D01*
X111464482Y-102585812D01*
X111584180Y-102549502D01*
X111694494Y-102490537D01*
X111791185Y-102411185D01*
X111870537Y-102314494D01*
X111929502Y-102204180D01*
X111951513Y-102131620D01*
X112083368Y-102263475D01*
X112245001Y-102371475D01*
X112245000Y-109591289D01*
X112226063Y-109610226D01*
X112112795Y-109779744D01*
X112034774Y-109968102D01*
X111995000Y-110168061D01*
X111995000Y-110371939D01*
X112034774Y-110571898D01*
X112112795Y-110760256D01*
X112226063Y-110929774D01*
X112370226Y-111073937D01*
X112539744Y-111187205D01*
X112728102Y-111265226D01*
X112928061Y-111305000D01*
X113131939Y-111305000D01*
X113331898Y-111265226D01*
X113520256Y-111187205D01*
X113689774Y-111073937D01*
X113833937Y-110929774D01*
X113947205Y-110760256D01*
X114025226Y-110571898D01*
X114065000Y-110371939D01*
X114065000Y-110168061D01*
X114025226Y-109968102D01*
X113947205Y-109779744D01*
X113833937Y-109610226D01*
X113815000Y-109591289D01*
X113815000Y-102371474D01*
X113976632Y-102263475D01*
X114183475Y-102056632D01*
X114300000Y-101882240D01*
X114416525Y-102056632D01*
X114623368Y-102263475D01*
X114785001Y-102371475D01*
X114785000Y-110861289D01*
X114766063Y-110880226D01*
X114652795Y-111049744D01*
X114574774Y-111238102D01*
X114535000Y-111438061D01*
X114535000Y-111641939D01*
X114574774Y-111841898D01*
X114652795Y-112030256D01*
X114766063Y-112199774D01*
X114910226Y-112343937D01*
X115079744Y-112457205D01*
X115268102Y-112535226D01*
X115468061Y-112575000D01*
X115671939Y-112575000D01*
X115871898Y-112535226D01*
X116060256Y-112457205D01*
X116229774Y-112343937D01*
X116373937Y-112199774D01*
X116487205Y-112030256D01*
X116565226Y-111841898D01*
X116605000Y-111641939D01*
X116605000Y-111438061D01*
X116565226Y-111238102D01*
X116487205Y-111049744D01*
X116373937Y-110880226D01*
X116355000Y-110861289D01*
X116355000Y-102371474D01*
X116516632Y-102263475D01*
X116723475Y-102056632D01*
X116840000Y-101882240D01*
X116956525Y-102056632D01*
X117163368Y-102263475D01*
X117325001Y-102371475D01*
X117325000Y-109591289D01*
X117306063Y-109610226D01*
X117192795Y-109779744D01*
X117114774Y-109968102D01*
X117075000Y-110168061D01*
X117075000Y-110371939D01*
X117114774Y-110571898D01*
X117192795Y-110760256D01*
X117306063Y-110929774D01*
X117450226Y-111073937D01*
X117619744Y-111187205D01*
X117808102Y-111265226D01*
X118008061Y-111305000D01*
X118211939Y-111305000D01*
X118411898Y-111265226D01*
X118600256Y-111187205D01*
X118769774Y-111073937D01*
X118913937Y-110929774D01*
X119027205Y-110760256D01*
X119105226Y-110571898D01*
X119145000Y-110371939D01*
X119145000Y-110168061D01*
X119105226Y-109968102D01*
X119027205Y-109779744D01*
X118913937Y-109610226D01*
X118895000Y-109591289D01*
X118895000Y-102371474D01*
X119056632Y-102263475D01*
X119263475Y-102056632D01*
X119380000Y-101882240D01*
X119496525Y-102056632D01*
X119703368Y-102263475D01*
X119865001Y-102371475D01*
X119865000Y-110226289D01*
X119846063Y-110245226D01*
X119732795Y-110414744D01*
X119654774Y-110603102D01*
X119615000Y-110803061D01*
X119615000Y-111006939D01*
X119654774Y-111206898D01*
X119732795Y-111395256D01*
X119846063Y-111564774D01*
X119990226Y-111708937D01*
X120159744Y-111822205D01*
X120348102Y-111900226D01*
X120548061Y-111940000D01*
X120751939Y-111940000D01*
X120951898Y-111900226D01*
X121140256Y-111822205D01*
X121309774Y-111708937D01*
X121453937Y-111564774D01*
X121567205Y-111395256D01*
X121645226Y-111206898D01*
X121685000Y-111006939D01*
X121685000Y-110803061D01*
X121645226Y-110603102D01*
X121567205Y-110414744D01*
X121453937Y-110245226D01*
X121435000Y-110226289D01*
X121435000Y-102371474D01*
X121596632Y-102263475D01*
X121803475Y-102056632D01*
X121965990Y-101813411D01*
X122077932Y-101543158D01*
X122135000Y-101256260D01*
X122135000Y-100963740D01*
X122077932Y-100676842D01*
X121965990Y-100406589D01*
X121803475Y-100163368D01*
X121596632Y-99956525D01*
X121353411Y-99794010D01*
X121083158Y-99682068D01*
X120796260Y-99625000D01*
X120503740Y-99625000D01*
X120216842Y-99682068D01*
X119946589Y-99794010D01*
X119703368Y-99956525D01*
X119496525Y-100163368D01*
X119380000Y-100337760D01*
X119263475Y-100163368D01*
X119056632Y-99956525D01*
X118813411Y-99794010D01*
X118543158Y-99682068D01*
X118256260Y-99625000D01*
X117963740Y-99625000D01*
X117676842Y-99682068D01*
X117406589Y-99794010D01*
X117163368Y-99956525D01*
X116956525Y-100163368D01*
X116840000Y-100337760D01*
X116723475Y-100163368D01*
X116516632Y-99956525D01*
X116273411Y-99794010D01*
X116003158Y-99682068D01*
X115716260Y-99625000D01*
X115423740Y-99625000D01*
X115136842Y-99682068D01*
X114866589Y-99794010D01*
X114623368Y-99956525D01*
X114416525Y-100163368D01*
X114300000Y-100337760D01*
X114183475Y-100163368D01*
X113976632Y-99956525D01*
X113733411Y-99794010D01*
X113463158Y-99682068D01*
X113176260Y-99625000D01*
X112883740Y-99625000D01*
X112596842Y-99682068D01*
X112326589Y-99794010D01*
X112083368Y-99956525D01*
X111951513Y-100088380D01*
X111929502Y-100015820D01*
X111870537Y-99905506D01*
X111791185Y-99808815D01*
X111694494Y-99729463D01*
X111584180Y-99670498D01*
X111464482Y-99634188D01*
X111340000Y-99621928D01*
X111021750Y-99625000D01*
X110863000Y-99783750D01*
X110117000Y-99783750D01*
X109958250Y-99625000D01*
X109640000Y-99621928D01*
X109515518Y-99634188D01*
X109395820Y-99670498D01*
X109285506Y-99729463D01*
X109188815Y-99808815D01*
X109109463Y-99905506D01*
X109050498Y-100015820D01*
X109028487Y-100088380D01*
X108896632Y-99956525D01*
X108653411Y-99794010D01*
X108383158Y-99682068D01*
X108096260Y-99625000D01*
X107803740Y-99625000D01*
X107516842Y-99682068D01*
X107246589Y-99794010D01*
X107003368Y-99956525D01*
X106871513Y-100088380D01*
X106849502Y-100015820D01*
X106790537Y-99905506D01*
X106711185Y-99808815D01*
X106614494Y-99729463D01*
X106504180Y-99670498D01*
X106384482Y-99634188D01*
X106260000Y-99621928D01*
X105941750Y-99625000D01*
X105783000Y-99783750D01*
X105037000Y-99783750D01*
X104878250Y-99625000D01*
X104560000Y-99621928D01*
X104435518Y-99634188D01*
X104315820Y-99670498D01*
X104205506Y-99729463D01*
X104108815Y-99808815D01*
X104029463Y-99905506D01*
X103970498Y-100015820D01*
X103948487Y-100088380D01*
X103816632Y-99956525D01*
X103573411Y-99794010D01*
X103303158Y-99682068D01*
X103016260Y-99625000D01*
X102723740Y-99625000D01*
X102436842Y-99682068D01*
X102166589Y-99794010D01*
X101923368Y-99956525D01*
X101716525Y-100163368D01*
X101600000Y-100337760D01*
X101483475Y-100163368D01*
X101276632Y-99956525D01*
X101033411Y-99794010D01*
X100763158Y-99682068D01*
X100476260Y-99625000D01*
X100183740Y-99625000D01*
X99896842Y-99682068D01*
X99626589Y-99794010D01*
X99383368Y-99956525D01*
X99176525Y-100163368D01*
X99060000Y-100337760D01*
X98943475Y-100163368D01*
X98736632Y-99956525D01*
X98493411Y-99794010D01*
X98223158Y-99682068D01*
X97936260Y-99625000D01*
X97643740Y-99625000D01*
X97356842Y-99682068D01*
X97086589Y-99794010D01*
X96843368Y-99956525D01*
X96636525Y-100163368D01*
X96474010Y-100406589D01*
X96362068Y-100676842D01*
X96305000Y-100963740D01*
X91842249Y-100963740D01*
X91824670Y-100946161D01*
X91196554Y-100526467D01*
X90498628Y-100237377D01*
X89757715Y-100090000D01*
X89002285Y-100090000D01*
X88261372Y-100237377D01*
X87563446Y-100526467D01*
X86935330Y-100946161D01*
X86401161Y-101480330D01*
X85981467Y-102108446D01*
X85692377Y-102806372D01*
X85545000Y-103547285D01*
X85040000Y-103547285D01*
X85040000Y-100957279D01*
X85068625Y-100665341D01*
X85144035Y-100415571D01*
X85266522Y-100185208D01*
X85431422Y-99983020D01*
X85632450Y-99816714D01*
X85861954Y-99692622D01*
X86111195Y-99615469D01*
X86401088Y-99585000D01*
X121847721Y-99585000D01*
X122139659Y-99613625D01*
G37*
%TD.AperFunction*%
%TD*%
M02*
