%TF.GenerationSoftware,KiCad,Pcbnew,(5.1.9)-1*%
%TF.CreationDate,2021-04-29T19:34:58+02:00*%
%TF.ProjectId,ESP32_Tasmota_Fan,45535033-325f-4546-9173-6d6f74615f46,rev?*%
%TF.SameCoordinates,Original*%
%TF.FileFunction,Soldermask,Top*%
%TF.FilePolarity,Negative*%
%FSLAX46Y46*%
G04 Gerber Fmt 4.6, Leading zero omitted, Abs format (unit mm)*
G04 Created by KiCad (PCBNEW (5.1.9)-1) date 2021-04-29 19:34:58*
%MOMM*%
%LPD*%
G01*
G04 APERTURE LIST*
%ADD10C,0.500000*%
%ADD11O,1.700000X1.700000*%
%ADD12C,1.700000*%
%ADD13C,0.800000*%
%ADD14C,6.400000*%
%ADD15C,3.750000*%
%ADD16C,4.000000*%
%ADD17C,1.800000*%
%ADD18R,1.800000X1.800000*%
%ADD19C,1.400000*%
%ADD20O,1.730000X2.030000*%
%ADD21R,1.730000X2.030000*%
G04 APERTURE END LIST*
D10*
X89237142Y-135353571D02*
X89237142Y-133782142D01*
X91237142Y-135353571D01*
X91237142Y-133782142D01*
X91094285Y-131496428D02*
X91237142Y-131782142D01*
X91237142Y-132353571D01*
X91094285Y-132639285D01*
X90808571Y-132782142D01*
X89665714Y-132782142D01*
X89380000Y-132639285D01*
X89237142Y-132353571D01*
X89237142Y-131782142D01*
X89380000Y-131496428D01*
X89665714Y-131353571D01*
X89951428Y-131353571D01*
X90237142Y-132782142D01*
X91237142Y-130067857D02*
X89237142Y-130067857D01*
X89808571Y-130067857D02*
X89522857Y-129925000D01*
X89380000Y-129782142D01*
X89237142Y-129496428D01*
X89237142Y-129210714D01*
X91237142Y-127782142D02*
X91094285Y-128067857D01*
X90951428Y-128210714D01*
X90665714Y-128353571D01*
X89808571Y-128353571D01*
X89522857Y-128210714D01*
X89380000Y-128067857D01*
X89237142Y-127782142D01*
X89237142Y-127353571D01*
X89380000Y-127067857D01*
X89522857Y-126925000D01*
X89808571Y-126782142D01*
X90665714Y-126782142D01*
X90951428Y-126925000D01*
X91094285Y-127067857D01*
X91237142Y-127353571D01*
X91237142Y-127782142D01*
X89237142Y-125925000D02*
X89237142Y-124782142D01*
X91237142Y-125496428D02*
X88665714Y-125496428D01*
X88380000Y-125353571D01*
X88237142Y-125067857D01*
X88237142Y-124782142D01*
X91237142Y-123353571D02*
X91094285Y-123639285D01*
X90808571Y-123782142D01*
X88237142Y-123782142D01*
X91237142Y-121782142D02*
X91094285Y-122067857D01*
X90951428Y-122210714D01*
X90665714Y-122353571D01*
X89808571Y-122353571D01*
X89522857Y-122210714D01*
X89380000Y-122067857D01*
X89237142Y-121782142D01*
X89237142Y-121353571D01*
X89380000Y-121067857D01*
X89522857Y-120925000D01*
X89808571Y-120782142D01*
X90665714Y-120782142D01*
X90951428Y-120925000D01*
X91094285Y-121067857D01*
X91237142Y-121353571D01*
X91237142Y-121782142D01*
X89237142Y-119782142D02*
X91237142Y-119210714D01*
X89808571Y-118639285D01*
X91237142Y-118067857D01*
X89237142Y-117496428D01*
D11*
%TO.C,J8*%
X109220000Y-105555000D03*
X106680000Y-105555000D03*
X104140000Y-105555000D03*
X101600000Y-105555000D03*
X99060000Y-105555000D03*
D12*
X96520000Y-105555000D03*
%TD*%
D13*
%TO.C,H4*%
X91077056Y-142227944D03*
X89380000Y-141525000D03*
X87682944Y-142227944D03*
X86980000Y-143925000D03*
X87682944Y-145622056D03*
X89380000Y-146325000D03*
X91077056Y-145622056D03*
X91780000Y-143925000D03*
D14*
X89380000Y-143925000D03*
%TD*%
D13*
%TO.C,H3*%
X151077056Y-142227944D03*
X149380000Y-141525000D03*
X147682944Y-142227944D03*
X146980000Y-143925000D03*
X147682944Y-145622056D03*
X149380000Y-146325000D03*
X151077056Y-145622056D03*
X151780000Y-143925000D03*
D14*
X149380000Y-143925000D03*
%TD*%
D13*
%TO.C,H2*%
X151077056Y-107227944D03*
X149380000Y-106525000D03*
X147682944Y-107227944D03*
X146980000Y-108925000D03*
X147682944Y-110622056D03*
X149380000Y-111325000D03*
X151077056Y-110622056D03*
X151780000Y-108925000D03*
D14*
X149380000Y-108925000D03*
%TD*%
D13*
%TO.C,H1*%
X91077056Y-107227944D03*
X89380000Y-106525000D03*
X87682944Y-107227944D03*
X86980000Y-108925000D03*
X87682944Y-110622056D03*
X89380000Y-111325000D03*
X91077056Y-110622056D03*
X91780000Y-108925000D03*
D14*
X89380000Y-108925000D03*
%TD*%
D15*
%TO.C,J6*%
X147780000Y-128795000D03*
D16*
X150780000Y-133495000D03*
D15*
X144780000Y-133495000D03*
%TD*%
D11*
%TO.C,J1*%
X134620000Y-124605000D03*
X134620000Y-122065000D03*
X134620000Y-119525000D03*
D12*
X134620000Y-116985000D03*
%TD*%
D11*
%TO.C,J2*%
X129540000Y-106190000D03*
X132080000Y-106190000D03*
X134620000Y-106190000D03*
X137160000Y-106190000D03*
X139700000Y-106190000D03*
D12*
X142240000Y-106190000D03*
%TD*%
D17*
%TO.C,D1*%
X118110000Y-106190000D03*
D18*
X120650000Y-106190000D03*
%TD*%
D19*
%TO.C,U1*%
X124460000Y-112540000D03*
X124460000Y-110000000D03*
X121920000Y-110000000D03*
X121920000Y-112540000D03*
X119380000Y-110000000D03*
X119380000Y-112540000D03*
X116840000Y-110000000D03*
X116840000Y-112540000D03*
X114300000Y-110000000D03*
X114300000Y-112540000D03*
X111760000Y-110000000D03*
X111760000Y-112540000D03*
X109220000Y-110000000D03*
X109220000Y-112540000D03*
X106680000Y-110000000D03*
X106680000Y-112540000D03*
X104140000Y-110000000D03*
X104140000Y-112540000D03*
X101600000Y-110000000D03*
X101600000Y-112540000D03*
X124460000Y-135400000D03*
X124460000Y-137940000D03*
X121920000Y-135400000D03*
X121920000Y-137940000D03*
X119380000Y-135400000D03*
X119380000Y-137940000D03*
X116840000Y-135400000D03*
X116840000Y-137940000D03*
X114300000Y-135400000D03*
X114300000Y-137940000D03*
X111760000Y-135400000D03*
X111760000Y-137940000D03*
X109220000Y-135400000D03*
X109220000Y-137940000D03*
X106680000Y-135400000D03*
X106680000Y-137940000D03*
X104140000Y-135400000D03*
X104140000Y-137940000D03*
X101600000Y-135400000D03*
X101600000Y-137940000D03*
%TD*%
%TO.C,R1*%
G36*
G01*
X107499998Y-131905000D02*
X108400002Y-131905000D01*
G75*
G02*
X108650000Y-132154998I0J-249998D01*
G01*
X108650000Y-132680002D01*
G75*
G02*
X108400002Y-132930000I-249998J0D01*
G01*
X107499998Y-132930000D01*
G75*
G02*
X107250000Y-132680002I0J249998D01*
G01*
X107250000Y-132154998D01*
G75*
G02*
X107499998Y-131905000I249998J0D01*
G01*
G37*
G36*
G01*
X107499998Y-130080000D02*
X108400002Y-130080000D01*
G75*
G02*
X108650000Y-130329998I0J-249998D01*
G01*
X108650000Y-130855002D01*
G75*
G02*
X108400002Y-131105000I-249998J0D01*
G01*
X107499998Y-131105000D01*
G75*
G02*
X107250000Y-130855002I0J249998D01*
G01*
X107250000Y-130329998D01*
G75*
G02*
X107499998Y-130080000I249998J0D01*
G01*
G37*
%TD*%
%TO.C,R5*%
G36*
G01*
X114700000Y-106640002D02*
X114700000Y-105739998D01*
G75*
G02*
X114949998Y-105490000I249998J0D01*
G01*
X115475002Y-105490000D01*
G75*
G02*
X115725000Y-105739998I0J-249998D01*
G01*
X115725000Y-106640002D01*
G75*
G02*
X115475002Y-106890000I-249998J0D01*
G01*
X114949998Y-106890000D01*
G75*
G02*
X114700000Y-106640002I0J249998D01*
G01*
G37*
G36*
G01*
X112875000Y-106640002D02*
X112875000Y-105739998D01*
G75*
G02*
X113124998Y-105490000I249998J0D01*
G01*
X113650002Y-105490000D01*
G75*
G02*
X113900000Y-105739998I0J-249998D01*
G01*
X113900000Y-106640002D01*
G75*
G02*
X113650002Y-106890000I-249998J0D01*
G01*
X113124998Y-106890000D01*
G75*
G02*
X112875000Y-106640002I0J249998D01*
G01*
G37*
%TD*%
D20*
%TO.C,FAN4*%
X134620000Y-144925000D03*
X137160000Y-144925000D03*
X139700000Y-144925000D03*
D21*
X142240000Y-144925000D03*
%TD*%
D20*
%TO.C,FAN3*%
X121920000Y-144925000D03*
X124460000Y-144925000D03*
X127000000Y-144925000D03*
D21*
X129540000Y-144925000D03*
%TD*%
D20*
%TO.C,FAN2*%
X109220000Y-144925000D03*
X111760000Y-144925000D03*
X114300000Y-144925000D03*
D21*
X116840000Y-144925000D03*
%TD*%
D20*
%TO.C,FAN1*%
X96520000Y-144925000D03*
X99060000Y-144925000D03*
X101600000Y-144925000D03*
D21*
X104140000Y-144925000D03*
%TD*%
%TO.C,R2*%
G36*
G01*
X112579998Y-131905000D02*
X113480002Y-131905000D01*
G75*
G02*
X113730000Y-132154998I0J-249998D01*
G01*
X113730000Y-132680002D01*
G75*
G02*
X113480002Y-132930000I-249998J0D01*
G01*
X112579998Y-132930000D01*
G75*
G02*
X112330000Y-132680002I0J249998D01*
G01*
X112330000Y-132154998D01*
G75*
G02*
X112579998Y-131905000I249998J0D01*
G01*
G37*
G36*
G01*
X112579998Y-130080000D02*
X113480002Y-130080000D01*
G75*
G02*
X113730000Y-130329998I0J-249998D01*
G01*
X113730000Y-130855002D01*
G75*
G02*
X113480002Y-131105000I-249998J0D01*
G01*
X112579998Y-131105000D01*
G75*
G02*
X112330000Y-130855002I0J249998D01*
G01*
X112330000Y-130329998D01*
G75*
G02*
X112579998Y-130080000I249998J0D01*
G01*
G37*
%TD*%
%TO.C,R4*%
G36*
G01*
X117659998Y-131905000D02*
X118560002Y-131905000D01*
G75*
G02*
X118810000Y-132154998I0J-249998D01*
G01*
X118810000Y-132680002D01*
G75*
G02*
X118560002Y-132930000I-249998J0D01*
G01*
X117659998Y-132930000D01*
G75*
G02*
X117410000Y-132680002I0J249998D01*
G01*
X117410000Y-132154998D01*
G75*
G02*
X117659998Y-131905000I249998J0D01*
G01*
G37*
G36*
G01*
X117659998Y-130080000D02*
X118560002Y-130080000D01*
G75*
G02*
X118810000Y-130329998I0J-249998D01*
G01*
X118810000Y-130855002D01*
G75*
G02*
X118560002Y-131105000I-249998J0D01*
G01*
X117659998Y-131105000D01*
G75*
G02*
X117410000Y-130855002I0J249998D01*
G01*
X117410000Y-130329998D01*
G75*
G02*
X117659998Y-130080000I249998J0D01*
G01*
G37*
%TD*%
%TO.C,R3*%
G36*
G01*
X115119998Y-131905000D02*
X116020002Y-131905000D01*
G75*
G02*
X116270000Y-132154998I0J-249998D01*
G01*
X116270000Y-132680002D01*
G75*
G02*
X116020002Y-132930000I-249998J0D01*
G01*
X115119998Y-132930000D01*
G75*
G02*
X114870000Y-132680002I0J249998D01*
G01*
X114870000Y-132154998D01*
G75*
G02*
X115119998Y-131905000I249998J0D01*
G01*
G37*
G36*
G01*
X115119998Y-130080000D02*
X116020002Y-130080000D01*
G75*
G02*
X116270000Y-130329998I0J-249998D01*
G01*
X116270000Y-130855002D01*
G75*
G02*
X116020002Y-131105000I-249998J0D01*
G01*
X115119998Y-131105000D01*
G75*
G02*
X114870000Y-130855002I0J249998D01*
G01*
X114870000Y-130329998D01*
G75*
G02*
X115119998Y-130080000I249998J0D01*
G01*
G37*
%TD*%
M02*
