%TF.GenerationSoftware,KiCad,Pcbnew,(5.1.9)-1*%
%TF.CreationDate,2021-03-27T11:47:09+01:00*%
%TF.ProjectId,ESP32_Tasmota_Fan,45535033-325f-4546-9173-6d6f74615f46,rev?*%
%TF.SameCoordinates,Original*%
%TF.FileFunction,Legend,Bot*%
%TF.FilePolarity,Positive*%
%FSLAX46Y46*%
G04 Gerber Fmt 4.6, Leading zero omitted, Abs format (unit mm)*
G04 Created by KiCad (PCBNEW (5.1.9)-1) date 2021-03-27 11:47:09*
%MOMM*%
%LPD*%
G01*
G04 APERTURE LIST*
%ADD10C,0.500000*%
G04 APERTURE END LIST*
D10*
X125308571Y-124710714D02*
X124308571Y-124710714D01*
X123880000Y-126282142D02*
X125308571Y-126282142D01*
X125308571Y-123282142D01*
X123880000Y-123282142D01*
X122737142Y-126139285D02*
X122308571Y-126282142D01*
X121594285Y-126282142D01*
X121308571Y-126139285D01*
X121165714Y-125996428D01*
X121022857Y-125710714D01*
X121022857Y-125425000D01*
X121165714Y-125139285D01*
X121308571Y-124996428D01*
X121594285Y-124853571D01*
X122165714Y-124710714D01*
X122451428Y-124567857D01*
X122594285Y-124425000D01*
X122737142Y-124139285D01*
X122737142Y-123853571D01*
X122594285Y-123567857D01*
X122451428Y-123425000D01*
X122165714Y-123282142D01*
X121451428Y-123282142D01*
X121022857Y-123425000D01*
X119737142Y-126282142D02*
X119737142Y-123282142D01*
X118594285Y-123282142D01*
X118308571Y-123425000D01*
X118165714Y-123567857D01*
X118022857Y-123853571D01*
X118022857Y-124282142D01*
X118165714Y-124567857D01*
X118308571Y-124710714D01*
X118594285Y-124853571D01*
X119737142Y-124853571D01*
X117022857Y-123282142D02*
X115165714Y-123282142D01*
X116165714Y-124425000D01*
X115737142Y-124425000D01*
X115451428Y-124567857D01*
X115308571Y-124710714D01*
X115165714Y-124996428D01*
X115165714Y-125710714D01*
X115308571Y-125996428D01*
X115451428Y-126139285D01*
X115737142Y-126282142D01*
X116594285Y-126282142D01*
X116880000Y-126139285D01*
X117022857Y-125996428D01*
X114022857Y-123567857D02*
X113880000Y-123425000D01*
X113594285Y-123282142D01*
X112880000Y-123282142D01*
X112594285Y-123425000D01*
X112451428Y-123567857D01*
X112308571Y-123853571D01*
X112308571Y-124139285D01*
X112451428Y-124567857D01*
X114165714Y-126282142D01*
X112308571Y-126282142D01*
X139380000Y-131282142D02*
X139380000Y-128282142D01*
X138237142Y-128282142D01*
X137951428Y-128425000D01*
X137808571Y-128567857D01*
X137665714Y-128853571D01*
X137665714Y-129282142D01*
X137808571Y-129567857D01*
X137951428Y-129710714D01*
X138237142Y-129853571D01*
X139380000Y-129853571D01*
X136665714Y-128282142D02*
X135951428Y-131282142D01*
X135380000Y-129139285D01*
X134808571Y-131282142D01*
X134094285Y-128282142D01*
X132951428Y-131282142D02*
X132951428Y-128282142D01*
X131951428Y-130425000D01*
X130951428Y-128282142D01*
X130951428Y-131282142D01*
X128522857Y-129710714D02*
X129522857Y-129710714D01*
X129522857Y-131282142D02*
X129522857Y-128282142D01*
X128094285Y-128282142D01*
X125665714Y-131282142D02*
X125665714Y-129710714D01*
X125808571Y-129425000D01*
X126094285Y-129282142D01*
X126665714Y-129282142D01*
X126951428Y-129425000D01*
X125665714Y-131139285D02*
X125951428Y-131282142D01*
X126665714Y-131282142D01*
X126951428Y-131139285D01*
X127094285Y-130853571D01*
X127094285Y-130567857D01*
X126951428Y-130282142D01*
X126665714Y-130139285D01*
X125951428Y-130139285D01*
X125665714Y-129996428D01*
X124237142Y-129282142D02*
X124237142Y-131282142D01*
X124237142Y-129567857D02*
X124094285Y-129425000D01*
X123808571Y-129282142D01*
X123380000Y-129282142D01*
X123094285Y-129425000D01*
X122951428Y-129710714D01*
X122951428Y-131282142D01*
X117522857Y-130996428D02*
X117665714Y-131139285D01*
X118094285Y-131282142D01*
X118380000Y-131282142D01*
X118808571Y-131139285D01*
X119094285Y-130853571D01*
X119237142Y-130567857D01*
X119380000Y-129996428D01*
X119380000Y-129567857D01*
X119237142Y-128996428D01*
X119094285Y-128710714D01*
X118808571Y-128425000D01*
X118380000Y-128282142D01*
X118094285Y-128282142D01*
X117665714Y-128425000D01*
X117522857Y-128567857D01*
X115808571Y-131282142D02*
X116094285Y-131139285D01*
X116237142Y-130996428D01*
X116380000Y-130710714D01*
X116380000Y-129853571D01*
X116237142Y-129567857D01*
X116094285Y-129425000D01*
X115808571Y-129282142D01*
X115380000Y-129282142D01*
X115094285Y-129425000D01*
X114951428Y-129567857D01*
X114808571Y-129853571D01*
X114808571Y-130710714D01*
X114951428Y-130996428D01*
X115094285Y-131139285D01*
X115380000Y-131282142D01*
X115808571Y-131282142D01*
X113522857Y-129282142D02*
X113522857Y-131282142D01*
X113522857Y-129567857D02*
X113380000Y-129425000D01*
X113094285Y-129282142D01*
X112665714Y-129282142D01*
X112380000Y-129425000D01*
X112237142Y-129710714D01*
X112237142Y-131282142D01*
X111237142Y-129282142D02*
X110094285Y-129282142D01*
X110808571Y-128282142D02*
X110808571Y-130853571D01*
X110665714Y-131139285D01*
X110380000Y-131282142D01*
X110094285Y-131282142D01*
X109094285Y-131282142D02*
X109094285Y-129282142D01*
X109094285Y-129853571D02*
X108951428Y-129567857D01*
X108808571Y-129425000D01*
X108522857Y-129282142D01*
X108237142Y-129282142D01*
X106808571Y-131282142D02*
X107094285Y-131139285D01*
X107237142Y-130996428D01*
X107380000Y-130710714D01*
X107380000Y-129853571D01*
X107237142Y-129567857D01*
X107094285Y-129425000D01*
X106808571Y-129282142D01*
X106380000Y-129282142D01*
X106094285Y-129425000D01*
X105951428Y-129567857D01*
X105808571Y-129853571D01*
X105808571Y-130710714D01*
X105951428Y-130996428D01*
X106094285Y-131139285D01*
X106380000Y-131282142D01*
X106808571Y-131282142D01*
X104094285Y-131282142D02*
X104380000Y-131139285D01*
X104522857Y-130853571D01*
X104522857Y-128282142D01*
X102522857Y-131282142D02*
X102808571Y-131139285D01*
X102951428Y-130853571D01*
X102951428Y-128282142D01*
X100237142Y-131139285D02*
X100522857Y-131282142D01*
X101094285Y-131282142D01*
X101380000Y-131139285D01*
X101522857Y-130853571D01*
X101522857Y-129710714D01*
X101380000Y-129425000D01*
X101094285Y-129282142D01*
X100522857Y-129282142D01*
X100237142Y-129425000D01*
X100094285Y-129710714D01*
X100094285Y-129996428D01*
X101522857Y-130282142D01*
X98808571Y-131282142D02*
X98808571Y-129282142D01*
X98808571Y-129853571D02*
X98665714Y-129567857D01*
X98522857Y-129425000D01*
X98237142Y-129282142D01*
X97951428Y-129282142D01*
M02*
