M48
; DRILL file {KiCad (5.1.9)-1} date 11/10/21 21:17:54
; FORMAT={-:-/ absolute / inch / decimal}
; #@! TF.CreationDate,2021-11-10T21:17:54+01:00
; #@! TF.GenerationSoftware,Kicad,Pcbnew,(5.1.9)-1
FMAT,2
INCH
T1C0.0157
T2C0.0197
T3C0.0394
T4C0.0402
T5C0.0984
T6C0.1083
T7C0.1260
T8C0.0433
%
G90
G05
T1
X3.6Y-4.8663
X3.675Y-4.6913
X3.875Y-5.1663
X4.175Y-4.6663
X4.225Y-4.9663
X4.3Y-4.8663
X4.3527Y-4.1691
X4.375Y-4.5913
X4.3949Y-4.1604
X4.4Y-4.8913
X4.4625Y-5.0038
X4.5Y-4.8663
X4.5892Y-5.0805
X4.6Y-4.8663
X4.6689Y-4.477
X4.7Y-4.8663
X4.7Y-5.1163
X4.7Y-5.3163
X4.75Y-4.3913
X4.775Y-5.1163
X4.8Y-4.3663
X4.825Y-4.4913
X4.825Y-4.5413
X4.825Y-4.6663
X4.975Y-4.3413
X5.025Y-5.2118
X5.0445Y-4.8593
X5.075Y-5.1913
X5.1258Y-5.3163
X5.1843Y-4.4892
X5.1843Y-4.5482
X5.2157Y-4.4577
X5.2157Y-4.5167
X5.2157Y-4.5797
X5.2433Y-4.4892
X5.2433Y-4.5482
X5.2748Y-4.4577
X5.2748Y-4.5167
X5.2748Y-4.5797
X5.3024Y-4.4892
X5.3063Y-4.5482
X5.4207Y-5.2957
X5.5543Y-4.8656
X5.675Y-4.3663
X5.675Y-4.4413
X5.85Y-4.6913
T2
X3.4244Y-4.0915
X3.4244Y-5.6663
X3.4521Y-4.0247
X3.4521Y-4.1583
X3.4521Y-5.5995
X3.4521Y-5.7332
X3.5189Y-3.997
X3.5189Y-4.186
X3.5189Y-5.5719
X3.5189Y-5.7608
X3.5857Y-4.0247
X3.5857Y-4.1583
X3.5857Y-5.5995
X3.5857Y-5.7332
X3.6134Y-4.0915
X3.6134Y-5.6663
X5.7866Y-4.0915
X5.7866Y-5.6663
X5.8143Y-4.0247
X5.8143Y-4.1583
X5.8143Y-5.5995
X5.8143Y-5.7332
X5.8811Y-3.997
X5.8811Y-4.186
X5.8811Y-5.5719
X5.8811Y-5.7608
X5.9479Y-4.0247
X5.9479Y-4.1583
X5.9479Y-5.5995
X5.9479Y-5.7332
X5.9756Y-4.0915
X5.9756Y-5.6663
T3
X3.85Y-3.9807
X3.95Y-3.9807
X4.05Y-3.9807
X4.15Y-3.9807
X4.25Y-3.9807
X4.35Y-3.9807
X4.45Y-3.9807
X4.55Y-3.9807
X4.65Y-3.9807
X4.75Y-3.9807
X5.9795Y-4.4163
X5.9795Y-4.5163
X5.9795Y-4.6163
X5.9795Y-4.7163
X5.9795Y-4.8163
X5.9795Y-4.9163
T4
X3.8Y-5.6663
X3.9Y-5.6663
X4.0Y-5.6663
X4.1Y-5.6663
X4.3Y-5.6663
X4.4Y-5.6663
X4.5Y-5.6663
X4.6Y-5.6663
X4.8Y-5.6663
X4.9Y-5.6663
X5.0Y-5.6663
X5.1Y-5.6663
X5.3Y-5.6663
X5.4Y-5.6663
X5.5Y-5.6663
X5.6Y-5.6663
T5
X3.6069Y-5.3657
X3.725Y-5.1807
T6
X3.4888Y-5.1807
T7
X3.5189Y-4.0915
X3.5189Y-5.6663
X5.8811Y-4.0915
X5.8811Y-5.6663
T8
X3.9Y-5.7514
X4.4Y-5.7514
X4.9Y-5.7514
X5.4Y-5.7514
T0
M30
