%TF.GenerationSoftware,KiCad,Pcbnew,(5.1.9)-1*%
%TF.CreationDate,2021-11-10T22:47:00+01:00*%
%TF.ProjectId,ESP32_Tasmota_Fan,45535033-325f-4546-9173-6d6f74615f46,rev?*%
%TF.SameCoordinates,Original*%
%TF.FileFunction,Copper,L1,Top*%
%TF.FilePolarity,Positive*%
%FSLAX46Y46*%
G04 Gerber Fmt 4.6, Leading zero omitted, Abs format (unit mm)*
G04 Created by KiCad (PCBNEW (5.1.9)-1) date 2021-11-10 22:47:00*
%MOMM*%
%LPD*%
G01*
G04 APERTURE LIST*
%TA.AperFunction,SMDPad,CuDef*%
%ADD10R,1.050000X1.050000*%
%TD*%
%TA.AperFunction,SMDPad,CuDef*%
%ADD11R,1.500000X0.900000*%
%TD*%
%TA.AperFunction,SMDPad,CuDef*%
%ADD12R,0.900000X1.500000*%
%TD*%
%TA.AperFunction,SMDPad,CuDef*%
%ADD13R,0.900000X0.800000*%
%TD*%
%TA.AperFunction,SMDPad,CuDef*%
%ADD14R,1.700000X1.300000*%
%TD*%
%TA.AperFunction,ComponentPad*%
%ADD15O,1.700000X1.700000*%
%TD*%
%TA.AperFunction,ComponentPad*%
%ADD16R,1.700000X1.700000*%
%TD*%
%TA.AperFunction,ComponentPad*%
%ADD17C,1.700000*%
%TD*%
%TA.AperFunction,SMDPad,CuDef*%
%ADD18R,1.550000X0.700000*%
%TD*%
%TA.AperFunction,SMDPad,CuDef*%
%ADD19R,1.800000X2.500000*%
%TD*%
%TA.AperFunction,ComponentPad*%
%ADD20O,1.730000X2.030000*%
%TD*%
%TA.AperFunction,ComponentPad*%
%ADD21R,1.730000X2.030000*%
%TD*%
%TA.AperFunction,ComponentPad*%
%ADD22C,0.800000*%
%TD*%
%TA.AperFunction,ComponentPad*%
%ADD23C,6.400000*%
%TD*%
%TA.AperFunction,ComponentPad*%
%ADD24C,3.750000*%
%TD*%
%TA.AperFunction,ComponentPad*%
%ADD25C,4.000000*%
%TD*%
%TA.AperFunction,ViaPad*%
%ADD26C,0.800000*%
%TD*%
%TA.AperFunction,Conductor*%
%ADD27C,0.250000*%
%TD*%
%TA.AperFunction,Conductor*%
%ADD28C,1.500000*%
%TD*%
%TA.AperFunction,Conductor*%
%ADD29C,0.300000*%
%TD*%
%TA.AperFunction,Conductor*%
%ADD30C,0.500000*%
%TD*%
%TA.AperFunction,Conductor*%
%ADD31C,0.254000*%
%TD*%
%TA.AperFunction,Conductor*%
%ADD32C,0.100000*%
%TD*%
G04 APERTURE END LIST*
D10*
%TO.P,U1,39*%
%TO.N,GND*%
X131780000Y-113520000D03*
X133305000Y-113520000D03*
X134830000Y-113520000D03*
X134830000Y-116570000D03*
X133305000Y-116570000D03*
X131780000Y-116570000D03*
X131780000Y-115045000D03*
X134830000Y-115045000D03*
X133305000Y-115045000D03*
D11*
%TO.P,U1,38*%
X142735000Y-107705000D03*
%TO.P,U1,37*%
%TO.N,/ESP32 Core/IO23*%
X142735000Y-108975000D03*
%TO.P,U1,36*%
%TO.N,/LINK*%
X142735000Y-110245000D03*
%TO.P,U1,35*%
%TO.N,/ESP32 Core/TX*%
X142735000Y-111515000D03*
%TO.P,U1,34*%
%TO.N,/ESP32 Core/RX*%
X142735000Y-112785000D03*
%TO.P,U1,33*%
%TO.N,/SENSE4*%
X142735000Y-114055000D03*
%TO.P,U1,32*%
%TO.N,Net-(U1-Pad32)*%
X142735000Y-115325000D03*
%TO.P,U1,31*%
%TO.N,/PWM4*%
X142735000Y-116595000D03*
%TO.P,U1,30*%
%TO.N,/SENSE3*%
X142735000Y-117865000D03*
%TO.P,U1,29*%
%TO.N,Net-(U1-Pad29)*%
X142735000Y-119135000D03*
%TO.P,U1,28*%
%TO.N,Net-(U1-Pad28)*%
X142735000Y-120405000D03*
%TO.P,U1,27*%
%TO.N,Net-(U1-Pad27)*%
X142735000Y-121675000D03*
%TO.P,U1,26*%
%TO.N,/PWM3*%
X142735000Y-122945000D03*
%TO.P,U1,25*%
%TO.N,/ESP32 Core/IO0*%
X142735000Y-124215000D03*
D12*
%TO.P,U1,24*%
%TO.N,Net-(U1-Pad24)*%
X139695000Y-125465000D03*
%TO.P,U1,23*%
%TO.N,Net-(U1-Pad23)*%
X138425000Y-125465000D03*
%TO.P,U1,22*%
%TO.N,Net-(U1-Pad22)*%
X137155000Y-125465000D03*
%TO.P,U1,21*%
%TO.N,Net-(U1-Pad21)*%
X135885000Y-125465000D03*
%TO.P,U1,20*%
%TO.N,Net-(U1-Pad20)*%
X134615000Y-125465000D03*
%TO.P,U1,19*%
%TO.N,Net-(U1-Pad19)*%
X133345000Y-125465000D03*
%TO.P,U1,18*%
%TO.N,Net-(U1-Pad18)*%
X132075000Y-125465000D03*
%TO.P,U1,17*%
%TO.N,Net-(U1-Pad17)*%
X130805000Y-125465000D03*
%TO.P,U1,16*%
%TO.N,/SENSE2*%
X129535000Y-125465000D03*
%TO.P,U1,15*%
%TO.N,GND*%
X128265000Y-125465000D03*
D11*
%TO.P,U1,1*%
X125235000Y-107705000D03*
%TO.P,U1,2*%
%TO.N,+3V3*%
X125235000Y-108975000D03*
%TO.P,U1,3*%
%TO.N,/ESP32 Core/EN*%
X125235000Y-110245000D03*
%TO.P,U1,4*%
%TO.N,/EXT3*%
X125235000Y-111515000D03*
%TO.P,U1,5*%
%TO.N,/EXT2*%
X125235000Y-112785000D03*
%TO.P,U1,6*%
%TO.N,/EXT1*%
X125235000Y-114055000D03*
%TO.P,U1,7*%
%TO.N,/ESP32 Core/I35*%
X125235000Y-115325000D03*
%TO.P,U1,8*%
%TO.N,/SDA*%
X125235000Y-116595000D03*
%TO.P,U1,9*%
%TO.N,/SCL*%
X125235000Y-117865000D03*
%TO.P,U1,10*%
%TO.N,/OneWire*%
X125235000Y-119135000D03*
%TO.P,U1,11*%
%TO.N,/PWM1*%
X125235000Y-120405000D03*
%TO.P,U1,12*%
%TO.N,/SENSE1*%
X125235000Y-121675000D03*
%TO.P,U1,13*%
%TO.N,/PWM2*%
X125235000Y-122945000D03*
%TO.P,U1,14*%
%TO.N,Net-(U1-Pad14)*%
X125235000Y-124215000D03*
%TD*%
%TO.P,L1,2*%
%TO.N,+3V3*%
%TA.AperFunction,SMDPad,CuDef*%
G36*
G01*
X99150000Y-108505000D02*
X97700000Y-108505000D01*
G75*
G02*
X97325000Y-108130000I0J375000D01*
G01*
X97325000Y-107380000D01*
G75*
G02*
X97700000Y-107005000I375000J0D01*
G01*
X99150000Y-107005000D01*
G75*
G02*
X99525000Y-107380000I0J-375000D01*
G01*
X99525000Y-108130000D01*
G75*
G02*
X99150000Y-108505000I-375000J0D01*
G01*
G37*
%TD.AperFunction*%
%TO.P,L1,1*%
%TO.N,/DC/DC Buck/OUTPUT*%
%TA.AperFunction,SMDPad,CuDef*%
G36*
G01*
X99150000Y-114805000D02*
X97700000Y-114805000D01*
G75*
G02*
X97325000Y-114430000I0J375000D01*
G01*
X97325000Y-113680000D01*
G75*
G02*
X97700000Y-113305000I375000J0D01*
G01*
X99150000Y-113305000D01*
G75*
G02*
X99525000Y-113680000I0J-375000D01*
G01*
X99525000Y-114430000D01*
G75*
G02*
X99150000Y-114805000I-375000J0D01*
G01*
G37*
%TD.AperFunction*%
%TD*%
%TO.P,C5,2*%
%TO.N,GND*%
%TA.AperFunction,SMDPad,CuDef*%
G36*
G01*
X122395000Y-107915000D02*
X121445000Y-107915000D01*
G75*
G02*
X121195000Y-107665000I0J250000D01*
G01*
X121195000Y-107165000D01*
G75*
G02*
X121445000Y-106915000I250000J0D01*
G01*
X122395000Y-106915000D01*
G75*
G02*
X122645000Y-107165000I0J-250000D01*
G01*
X122645000Y-107665000D01*
G75*
G02*
X122395000Y-107915000I-250000J0D01*
G01*
G37*
%TD.AperFunction*%
%TO.P,C5,1*%
%TO.N,+3V3*%
%TA.AperFunction,SMDPad,CuDef*%
G36*
G01*
X122395000Y-109815000D02*
X121445000Y-109815000D01*
G75*
G02*
X121195000Y-109565000I0J250000D01*
G01*
X121195000Y-109065000D01*
G75*
G02*
X121445000Y-108815000I250000J0D01*
G01*
X122395000Y-108815000D01*
G75*
G02*
X122645000Y-109065000I0J-250000D01*
G01*
X122645000Y-109565000D01*
G75*
G02*
X122395000Y-109815000I-250000J0D01*
G01*
G37*
%TD.AperFunction*%
%TD*%
%TO.P,C4,2*%
%TO.N,GND*%
%TA.AperFunction,SMDPad,CuDef*%
G36*
G01*
X105700001Y-110665000D02*
X103849999Y-110665000D01*
G75*
G02*
X103600000Y-110415001I0J249999D01*
G01*
X103600000Y-109589999D01*
G75*
G02*
X103849999Y-109340000I249999J0D01*
G01*
X105700001Y-109340000D01*
G75*
G02*
X105950000Y-109589999I0J-249999D01*
G01*
X105950000Y-110415001D01*
G75*
G02*
X105700001Y-110665000I-249999J0D01*
G01*
G37*
%TD.AperFunction*%
%TO.P,C4,1*%
%TO.N,+3V3*%
%TA.AperFunction,SMDPad,CuDef*%
G36*
G01*
X105700001Y-113740000D02*
X103849999Y-113740000D01*
G75*
G02*
X103600000Y-113490001I0J249999D01*
G01*
X103600000Y-112664999D01*
G75*
G02*
X103849999Y-112415000I249999J0D01*
G01*
X105700001Y-112415000D01*
G75*
G02*
X105950000Y-112664999I0J-249999D01*
G01*
X105950000Y-113490001D01*
G75*
G02*
X105700001Y-113740000I-249999J0D01*
G01*
G37*
%TD.AperFunction*%
%TD*%
%TO.P,C2,2*%
%TO.N,GND*%
%TA.AperFunction,SMDPad,CuDef*%
G36*
G01*
X106285000Y-122625001D02*
X106285000Y-120774999D01*
G75*
G02*
X106534999Y-120525000I249999J0D01*
G01*
X107360001Y-120525000D01*
G75*
G02*
X107610000Y-120774999I0J-249999D01*
G01*
X107610000Y-122625001D01*
G75*
G02*
X107360001Y-122875000I-249999J0D01*
G01*
X106534999Y-122875000D01*
G75*
G02*
X106285000Y-122625001I0J249999D01*
G01*
G37*
%TD.AperFunction*%
%TO.P,C2,1*%
%TO.N,+12V*%
%TA.AperFunction,SMDPad,CuDef*%
G36*
G01*
X103210000Y-122625001D02*
X103210000Y-120774999D01*
G75*
G02*
X103459999Y-120525000I249999J0D01*
G01*
X104285001Y-120525000D01*
G75*
G02*
X104535000Y-120774999I0J-249999D01*
G01*
X104535000Y-122625001D01*
G75*
G02*
X104285001Y-122875000I-249999J0D01*
G01*
X103459999Y-122875000D01*
G75*
G02*
X103210000Y-122625001I0J249999D01*
G01*
G37*
%TD.AperFunction*%
%TD*%
%TO.P,R5,2*%
%TO.N,/SENSE1*%
%TA.AperFunction,SMDPad,CuDef*%
G36*
G01*
X109398750Y-122150000D02*
X110311250Y-122150000D01*
G75*
G02*
X110555000Y-122393750I0J-243750D01*
G01*
X110555000Y-122881250D01*
G75*
G02*
X110311250Y-123125000I-243750J0D01*
G01*
X109398750Y-123125000D01*
G75*
G02*
X109155000Y-122881250I0J243750D01*
G01*
X109155000Y-122393750D01*
G75*
G02*
X109398750Y-122150000I243750J0D01*
G01*
G37*
%TD.AperFunction*%
%TO.P,R5,1*%
%TO.N,+3V3*%
%TA.AperFunction,SMDPad,CuDef*%
G36*
G01*
X109398750Y-120275000D02*
X110311250Y-120275000D01*
G75*
G02*
X110555000Y-120518750I0J-243750D01*
G01*
X110555000Y-121006250D01*
G75*
G02*
X110311250Y-121250000I-243750J0D01*
G01*
X109398750Y-121250000D01*
G75*
G02*
X109155000Y-121006250I0J243750D01*
G01*
X109155000Y-120518750D01*
G75*
G02*
X109398750Y-120275000I243750J0D01*
G01*
G37*
%TD.AperFunction*%
%TD*%
%TO.P,R12,2*%
%TO.N,GND*%
%TA.AperFunction,SMDPad,CuDef*%
G36*
G01*
X99930000Y-130139999D02*
X99930000Y-131040001D01*
G75*
G02*
X99680001Y-131290000I-249999J0D01*
G01*
X99154999Y-131290000D01*
G75*
G02*
X98905000Y-131040001I0J249999D01*
G01*
X98905000Y-130139999D01*
G75*
G02*
X99154999Y-129890000I249999J0D01*
G01*
X99680001Y-129890000D01*
G75*
G02*
X99930000Y-130139999I0J-249999D01*
G01*
G37*
%TD.AperFunction*%
%TO.P,R12,1*%
%TO.N,Net-(D3-Pad2)*%
%TA.AperFunction,SMDPad,CuDef*%
G36*
G01*
X101755000Y-130139999D02*
X101755000Y-131040001D01*
G75*
G02*
X101505001Y-131290000I-249999J0D01*
G01*
X100979999Y-131290000D01*
G75*
G02*
X100730000Y-131040001I0J249999D01*
G01*
X100730000Y-130139999D01*
G75*
G02*
X100979999Y-129890000I249999J0D01*
G01*
X101505001Y-129890000D01*
G75*
G02*
X101755000Y-130139999I0J-249999D01*
G01*
G37*
%TD.AperFunction*%
%TD*%
D13*
%TO.P,Q1,3*%
%TO.N,/VIN*%
X99330000Y-127415000D03*
%TO.P,Q1,2*%
%TO.N,+12V*%
X101330000Y-126465000D03*
%TO.P,Q1,1*%
%TO.N,Net-(D3-Pad2)*%
X101330000Y-128365000D03*
%TD*%
D14*
%TO.P,D3,2*%
%TO.N,Net-(D3-Pad2)*%
X104140000Y-129165000D03*
%TO.P,D3,1*%
%TO.N,+12V*%
X104140000Y-125665000D03*
%TD*%
D15*
%TO.P,J3,10*%
%TO.N,/EXT3*%
X120650000Y-101110000D03*
%TO.P,J3,9*%
%TO.N,/EXT2*%
X118110000Y-101110000D03*
%TO.P,J3,8*%
%TO.N,/SDA*%
X115570000Y-101110000D03*
%TO.P,J3,7*%
%TO.N,/SCL*%
X113030000Y-101110000D03*
D16*
%TO.P,J3,6*%
%TO.N,GND*%
X110490000Y-101110000D03*
D15*
%TO.P,J3,5*%
%TO.N,+3V3*%
X107950000Y-101110000D03*
D16*
%TO.P,J3,4*%
%TO.N,GND*%
X105410000Y-101110000D03*
D15*
%TO.P,J3,3*%
%TO.N,/EXT1*%
X102870000Y-101110000D03*
%TO.P,J3,2*%
%TO.N,/OneWire*%
X100330000Y-101110000D03*
D17*
%TO.P,J3,1*%
%TO.N,+3V3*%
X97790000Y-101110000D03*
%TD*%
%TO.P,D1,2*%
%TO.N,Net-(D1-Pad2)*%
%TA.AperFunction,SMDPad,CuDef*%
G36*
G01*
X119836250Y-135855000D02*
X118923750Y-135855000D01*
G75*
G02*
X118680000Y-135611250I0J243750D01*
G01*
X118680000Y-135123750D01*
G75*
G02*
X118923750Y-134880000I243750J0D01*
G01*
X119836250Y-134880000D01*
G75*
G02*
X120080000Y-135123750I0J-243750D01*
G01*
X120080000Y-135611250D01*
G75*
G02*
X119836250Y-135855000I-243750J0D01*
G01*
G37*
%TD.AperFunction*%
%TO.P,D1,1*%
%TO.N,GND*%
%TA.AperFunction,SMDPad,CuDef*%
G36*
G01*
X119836250Y-137730000D02*
X118923750Y-137730000D01*
G75*
G02*
X118680000Y-137486250I0J243750D01*
G01*
X118680000Y-136998750D01*
G75*
G02*
X118923750Y-136755000I243750J0D01*
G01*
X119836250Y-136755000D01*
G75*
G02*
X120080000Y-136998750I0J-243750D01*
G01*
X120080000Y-137486250D01*
G75*
G02*
X119836250Y-137730000I-243750J0D01*
G01*
G37*
%TD.AperFunction*%
%TD*%
D18*
%TO.P,IC1,8*%
%TO.N,GND*%
X95700000Y-120430000D03*
%TO.P,IC1,7*%
X95700000Y-119160000D03*
%TO.P,IC1,6*%
X95700000Y-117890000D03*
%TO.P,IC1,5*%
X95700000Y-116620000D03*
%TO.P,IC1,4*%
X101150000Y-116620000D03*
%TO.P,IC1,3*%
%TO.N,/DC/DC Buck/FB*%
X101150000Y-117890000D03*
%TO.P,IC1,2*%
%TO.N,/DC/DC Buck/OUTPUT*%
X101150000Y-119160000D03*
%TO.P,IC1,1*%
%TO.N,+12V*%
X101150000Y-120430000D03*
%TD*%
%TO.P,R21,2*%
%TO.N,GND*%
%TA.AperFunction,SMDPad,CuDef*%
G36*
G01*
X105225000Y-118346250D02*
X105225000Y-117433750D01*
G75*
G02*
X105468750Y-117190000I243750J0D01*
G01*
X105956250Y-117190000D01*
G75*
G02*
X106200000Y-117433750I0J-243750D01*
G01*
X106200000Y-118346250D01*
G75*
G02*
X105956250Y-118590000I-243750J0D01*
G01*
X105468750Y-118590000D01*
G75*
G02*
X105225000Y-118346250I0J243750D01*
G01*
G37*
%TD.AperFunction*%
%TO.P,R21,1*%
%TO.N,/DC/DC Buck/FB*%
%TA.AperFunction,SMDPad,CuDef*%
G36*
G01*
X103350000Y-118346250D02*
X103350000Y-117433750D01*
G75*
G02*
X103593750Y-117190000I243750J0D01*
G01*
X104081250Y-117190000D01*
G75*
G02*
X104325000Y-117433750I0J-243750D01*
G01*
X104325000Y-118346250D01*
G75*
G02*
X104081250Y-118590000I-243750J0D01*
G01*
X103593750Y-118590000D01*
G75*
G02*
X103350000Y-118346250I0J243750D01*
G01*
G37*
%TD.AperFunction*%
%TD*%
%TO.P,R20,2*%
%TO.N,/DC/DC Buck/FB*%
%TA.AperFunction,SMDPad,CuDef*%
G36*
G01*
X105225000Y-115806250D02*
X105225000Y-114893750D01*
G75*
G02*
X105468750Y-114650000I243750J0D01*
G01*
X105956250Y-114650000D01*
G75*
G02*
X106200000Y-114893750I0J-243750D01*
G01*
X106200000Y-115806250D01*
G75*
G02*
X105956250Y-116050000I-243750J0D01*
G01*
X105468750Y-116050000D01*
G75*
G02*
X105225000Y-115806250I0J243750D01*
G01*
G37*
%TD.AperFunction*%
%TO.P,R20,1*%
%TO.N,+3V3*%
%TA.AperFunction,SMDPad,CuDef*%
G36*
G01*
X103350000Y-115806250D02*
X103350000Y-114893750D01*
G75*
G02*
X103593750Y-114650000I243750J0D01*
G01*
X104081250Y-114650000D01*
G75*
G02*
X104325000Y-114893750I0J-243750D01*
G01*
X104325000Y-115806250D01*
G75*
G02*
X104081250Y-116050000I-243750J0D01*
G01*
X103593750Y-116050000D01*
G75*
G02*
X103350000Y-115806250I0J243750D01*
G01*
G37*
%TD.AperFunction*%
%TD*%
D19*
%TO.P,D2,2*%
%TO.N,GND*%
X92075000Y-117985000D03*
%TO.P,D2,1*%
%TO.N,/DC/DC Buck/OUTPUT*%
X92075000Y-113985000D03*
%TD*%
%TO.P,C3,2*%
%TO.N,GND*%
%TA.AperFunction,SMDPad,CuDef*%
G36*
G01*
X97975000Y-122513750D02*
X97975000Y-123426250D01*
G75*
G02*
X97731250Y-123670000I-243750J0D01*
G01*
X97243750Y-123670000D01*
G75*
G02*
X97000000Y-123426250I0J243750D01*
G01*
X97000000Y-122513750D01*
G75*
G02*
X97243750Y-122270000I243750J0D01*
G01*
X97731250Y-122270000D01*
G75*
G02*
X97975000Y-122513750I0J-243750D01*
G01*
G37*
%TD.AperFunction*%
%TO.P,C3,1*%
%TO.N,+12V*%
%TA.AperFunction,SMDPad,CuDef*%
G36*
G01*
X99850000Y-122513750D02*
X99850000Y-123426250D01*
G75*
G02*
X99606250Y-123670000I-243750J0D01*
G01*
X99118750Y-123670000D01*
G75*
G02*
X98875000Y-123426250I0J243750D01*
G01*
X98875000Y-122513750D01*
G75*
G02*
X99118750Y-122270000I243750J0D01*
G01*
X99606250Y-122270000D01*
G75*
G02*
X99850000Y-122513750I0J-243750D01*
G01*
G37*
%TD.AperFunction*%
%TD*%
%TO.P,R11,2*%
%TO.N,/SENSE4*%
%TA.AperFunction,SMDPad,CuDef*%
G36*
G01*
X117018750Y-122150000D02*
X117931250Y-122150000D01*
G75*
G02*
X118175000Y-122393750I0J-243750D01*
G01*
X118175000Y-122881250D01*
G75*
G02*
X117931250Y-123125000I-243750J0D01*
G01*
X117018750Y-123125000D01*
G75*
G02*
X116775000Y-122881250I0J243750D01*
G01*
X116775000Y-122393750D01*
G75*
G02*
X117018750Y-122150000I243750J0D01*
G01*
G37*
%TD.AperFunction*%
%TO.P,R11,1*%
%TO.N,+3V3*%
%TA.AperFunction,SMDPad,CuDef*%
G36*
G01*
X117018750Y-120275000D02*
X117931250Y-120275000D01*
G75*
G02*
X118175000Y-120518750I0J-243750D01*
G01*
X118175000Y-121006250D01*
G75*
G02*
X117931250Y-121250000I-243750J0D01*
G01*
X117018750Y-121250000D01*
G75*
G02*
X116775000Y-121006250I0J243750D01*
G01*
X116775000Y-120518750D01*
G75*
G02*
X117018750Y-120275000I243750J0D01*
G01*
G37*
%TD.AperFunction*%
%TD*%
%TO.P,R10,2*%
%TO.N,/sheet61958B6B/PWM_Ctrl*%
%TA.AperFunction,SMDPad,CuDef*%
G36*
G01*
X135440000Y-138388750D02*
X135440000Y-139301250D01*
G75*
G02*
X135196250Y-139545000I-243750J0D01*
G01*
X134708750Y-139545000D01*
G75*
G02*
X134465000Y-139301250I0J243750D01*
G01*
X134465000Y-138388750D01*
G75*
G02*
X134708750Y-138145000I243750J0D01*
G01*
X135196250Y-138145000D01*
G75*
G02*
X135440000Y-138388750I0J-243750D01*
G01*
G37*
%TD.AperFunction*%
%TO.P,R10,1*%
%TO.N,/PWM4*%
%TA.AperFunction,SMDPad,CuDef*%
G36*
G01*
X137315000Y-138388750D02*
X137315000Y-139301250D01*
G75*
G02*
X137071250Y-139545000I-243750J0D01*
G01*
X136583750Y-139545000D01*
G75*
G02*
X136340000Y-139301250I0J243750D01*
G01*
X136340000Y-138388750D01*
G75*
G02*
X136583750Y-138145000I243750J0D01*
G01*
X137071250Y-138145000D01*
G75*
G02*
X137315000Y-138388750I0J-243750D01*
G01*
G37*
%TD.AperFunction*%
%TD*%
%TO.P,R9,2*%
%TO.N,/SENSE3*%
%TA.AperFunction,SMDPad,CuDef*%
G36*
G01*
X114478750Y-122150000D02*
X115391250Y-122150000D01*
G75*
G02*
X115635000Y-122393750I0J-243750D01*
G01*
X115635000Y-122881250D01*
G75*
G02*
X115391250Y-123125000I-243750J0D01*
G01*
X114478750Y-123125000D01*
G75*
G02*
X114235000Y-122881250I0J243750D01*
G01*
X114235000Y-122393750D01*
G75*
G02*
X114478750Y-122150000I243750J0D01*
G01*
G37*
%TD.AperFunction*%
%TO.P,R9,1*%
%TO.N,+3V3*%
%TA.AperFunction,SMDPad,CuDef*%
G36*
G01*
X114478750Y-120275000D02*
X115391250Y-120275000D01*
G75*
G02*
X115635000Y-120518750I0J-243750D01*
G01*
X115635000Y-121006250D01*
G75*
G02*
X115391250Y-121250000I-243750J0D01*
G01*
X114478750Y-121250000D01*
G75*
G02*
X114235000Y-121006250I0J243750D01*
G01*
X114235000Y-120518750D01*
G75*
G02*
X114478750Y-120275000I243750J0D01*
G01*
G37*
%TD.AperFunction*%
%TD*%
%TO.P,R8,2*%
%TO.N,/sheet61957927/PWM_Ctrl*%
%TA.AperFunction,SMDPad,CuDef*%
G36*
G01*
X122740000Y-138388750D02*
X122740000Y-139301250D01*
G75*
G02*
X122496250Y-139545000I-243750J0D01*
G01*
X122008750Y-139545000D01*
G75*
G02*
X121765000Y-139301250I0J243750D01*
G01*
X121765000Y-138388750D01*
G75*
G02*
X122008750Y-138145000I243750J0D01*
G01*
X122496250Y-138145000D01*
G75*
G02*
X122740000Y-138388750I0J-243750D01*
G01*
G37*
%TD.AperFunction*%
%TO.P,R8,1*%
%TO.N,/PWM3*%
%TA.AperFunction,SMDPad,CuDef*%
G36*
G01*
X124615000Y-138388750D02*
X124615000Y-139301250D01*
G75*
G02*
X124371250Y-139545000I-243750J0D01*
G01*
X123883750Y-139545000D01*
G75*
G02*
X123640000Y-139301250I0J243750D01*
G01*
X123640000Y-138388750D01*
G75*
G02*
X123883750Y-138145000I243750J0D01*
G01*
X124371250Y-138145000D01*
G75*
G02*
X124615000Y-138388750I0J-243750D01*
G01*
G37*
%TD.AperFunction*%
%TD*%
D20*
%TO.P,FAN4,4*%
%TO.N,/sheet61958B6B/PWM_Ctrl*%
X134620000Y-143925000D03*
%TO.P,FAN4,3*%
%TO.N,/SENSE4*%
X137160000Y-143925000D03*
%TO.P,FAN4,2*%
%TO.N,+12V*%
X139700000Y-143925000D03*
D21*
%TO.P,FAN4,1*%
%TO.N,GND*%
X142240000Y-143925000D03*
%TD*%
D20*
%TO.P,FAN3,4*%
%TO.N,/sheet61957927/PWM_Ctrl*%
X121920000Y-143925000D03*
%TO.P,FAN3,3*%
%TO.N,/SENSE3*%
X124460000Y-143925000D03*
%TO.P,FAN3,2*%
%TO.N,+12V*%
X127000000Y-143925000D03*
D21*
%TO.P,FAN3,1*%
%TO.N,GND*%
X129540000Y-143925000D03*
%TD*%
D20*
%TO.P,FAN2,4*%
%TO.N,/sheet619566BF/PWM_Ctrl*%
X109220000Y-143925000D03*
%TO.P,FAN2,3*%
%TO.N,/SENSE2*%
X111760000Y-143925000D03*
%TO.P,FAN2,2*%
%TO.N,+12V*%
X114300000Y-143925000D03*
D21*
%TO.P,FAN2,1*%
%TO.N,GND*%
X116840000Y-143925000D03*
%TD*%
%TO.P,R7,2*%
%TO.N,/ESP32 Core/EN*%
%TA.AperFunction,SMDPad,CuDef*%
G36*
G01*
X148133750Y-113895000D02*
X149046250Y-113895000D01*
G75*
G02*
X149290000Y-114138750I0J-243750D01*
G01*
X149290000Y-114626250D01*
G75*
G02*
X149046250Y-114870000I-243750J0D01*
G01*
X148133750Y-114870000D01*
G75*
G02*
X147890000Y-114626250I0J243750D01*
G01*
X147890000Y-114138750D01*
G75*
G02*
X148133750Y-113895000I243750J0D01*
G01*
G37*
%TD.AperFunction*%
%TO.P,R7,1*%
%TO.N,+3V3*%
%TA.AperFunction,SMDPad,CuDef*%
G36*
G01*
X148133750Y-112020000D02*
X149046250Y-112020000D01*
G75*
G02*
X149290000Y-112263750I0J-243750D01*
G01*
X149290000Y-112751250D01*
G75*
G02*
X149046250Y-112995000I-243750J0D01*
G01*
X148133750Y-112995000D01*
G75*
G02*
X147890000Y-112751250I0J243750D01*
G01*
X147890000Y-112263750D01*
G75*
G02*
X148133750Y-112020000I243750J0D01*
G01*
G37*
%TD.AperFunction*%
%TD*%
%TO.P,R6,2*%
%TO.N,/SENSE2*%
%TA.AperFunction,SMDPad,CuDef*%
G36*
G01*
X111938750Y-122150000D02*
X112851250Y-122150000D01*
G75*
G02*
X113095000Y-122393750I0J-243750D01*
G01*
X113095000Y-122881250D01*
G75*
G02*
X112851250Y-123125000I-243750J0D01*
G01*
X111938750Y-123125000D01*
G75*
G02*
X111695000Y-122881250I0J243750D01*
G01*
X111695000Y-122393750D01*
G75*
G02*
X111938750Y-122150000I243750J0D01*
G01*
G37*
%TD.AperFunction*%
%TO.P,R6,1*%
%TO.N,+3V3*%
%TA.AperFunction,SMDPad,CuDef*%
G36*
G01*
X111938750Y-120275000D02*
X112851250Y-120275000D01*
G75*
G02*
X113095000Y-120518750I0J-243750D01*
G01*
X113095000Y-121006250D01*
G75*
G02*
X112851250Y-121250000I-243750J0D01*
G01*
X111938750Y-121250000D01*
G75*
G02*
X111695000Y-121006250I0J243750D01*
G01*
X111695000Y-120518750D01*
G75*
G02*
X111938750Y-120275000I243750J0D01*
G01*
G37*
%TD.AperFunction*%
%TD*%
%TO.P,R4,2*%
%TO.N,/FAN 1/PWM_Ctrl*%
%TA.AperFunction,SMDPad,CuDef*%
G36*
G01*
X97340000Y-138388750D02*
X97340000Y-139301250D01*
G75*
G02*
X97096250Y-139545000I-243750J0D01*
G01*
X96608750Y-139545000D01*
G75*
G02*
X96365000Y-139301250I0J243750D01*
G01*
X96365000Y-138388750D01*
G75*
G02*
X96608750Y-138145000I243750J0D01*
G01*
X97096250Y-138145000D01*
G75*
G02*
X97340000Y-138388750I0J-243750D01*
G01*
G37*
%TD.AperFunction*%
%TO.P,R4,1*%
%TO.N,/PWM1*%
%TA.AperFunction,SMDPad,CuDef*%
G36*
G01*
X99215000Y-138388750D02*
X99215000Y-139301250D01*
G75*
G02*
X98971250Y-139545000I-243750J0D01*
G01*
X98483750Y-139545000D01*
G75*
G02*
X98240000Y-139301250I0J243750D01*
G01*
X98240000Y-138388750D01*
G75*
G02*
X98483750Y-138145000I243750J0D01*
G01*
X98971250Y-138145000D01*
G75*
G02*
X99215000Y-138388750I0J-243750D01*
G01*
G37*
%TD.AperFunction*%
%TD*%
%TO.P,R3,2*%
%TO.N,/sheet619566BF/PWM_Ctrl*%
%TA.AperFunction,SMDPad,CuDef*%
G36*
G01*
X110040000Y-138388750D02*
X110040000Y-139301250D01*
G75*
G02*
X109796250Y-139545000I-243750J0D01*
G01*
X109308750Y-139545000D01*
G75*
G02*
X109065000Y-139301250I0J243750D01*
G01*
X109065000Y-138388750D01*
G75*
G02*
X109308750Y-138145000I243750J0D01*
G01*
X109796250Y-138145000D01*
G75*
G02*
X110040000Y-138388750I0J-243750D01*
G01*
G37*
%TD.AperFunction*%
%TO.P,R3,1*%
%TO.N,/PWM2*%
%TA.AperFunction,SMDPad,CuDef*%
G36*
G01*
X111915000Y-138388750D02*
X111915000Y-139301250D01*
G75*
G02*
X111671250Y-139545000I-243750J0D01*
G01*
X111183750Y-139545000D01*
G75*
G02*
X110940000Y-139301250I0J243750D01*
G01*
X110940000Y-138388750D01*
G75*
G02*
X111183750Y-138145000I243750J0D01*
G01*
X111671250Y-138145000D01*
G75*
G02*
X111915000Y-138388750I0J-243750D01*
G01*
G37*
%TD.AperFunction*%
%TD*%
%TO.P,R1,2*%
%TO.N,/OneWire*%
%TA.AperFunction,SMDPad,CuDef*%
G36*
G01*
X119558750Y-122150000D02*
X120471250Y-122150000D01*
G75*
G02*
X120715000Y-122393750I0J-243750D01*
G01*
X120715000Y-122881250D01*
G75*
G02*
X120471250Y-123125000I-243750J0D01*
G01*
X119558750Y-123125000D01*
G75*
G02*
X119315000Y-122881250I0J243750D01*
G01*
X119315000Y-122393750D01*
G75*
G02*
X119558750Y-122150000I243750J0D01*
G01*
G37*
%TD.AperFunction*%
%TO.P,R1,1*%
%TO.N,+3V3*%
%TA.AperFunction,SMDPad,CuDef*%
G36*
G01*
X119558750Y-120275000D02*
X120471250Y-120275000D01*
G75*
G02*
X120715000Y-120518750I0J-243750D01*
G01*
X120715000Y-121006250D01*
G75*
G02*
X120471250Y-121250000I-243750J0D01*
G01*
X119558750Y-121250000D01*
G75*
G02*
X119315000Y-121006250I0J243750D01*
G01*
X119315000Y-120518750D01*
G75*
G02*
X119558750Y-120275000I243750J0D01*
G01*
G37*
%TD.AperFunction*%
%TD*%
D15*
%TO.P,J2,6*%
%TO.N,+3V3*%
X151880000Y-112175000D03*
%TO.P,J2,5*%
%TO.N,/ESP32 Core/EN*%
X151880000Y-114715000D03*
%TO.P,J2,4*%
%TO.N,/ESP32 Core/TX*%
X151880000Y-117255000D03*
%TO.P,J2,3*%
%TO.N,/ESP32 Core/RX*%
X151880000Y-119795000D03*
%TO.P,J2,2*%
%TO.N,/ESP32 Core/IO0*%
X151880000Y-122335000D03*
D16*
%TO.P,J2,1*%
%TO.N,GND*%
X151880000Y-124875000D03*
%TD*%
D20*
%TO.P,FAN1,4*%
%TO.N,/FAN 1/PWM_Ctrl*%
X96520000Y-143925000D03*
%TO.P,FAN1,3*%
%TO.N,/SENSE1*%
X99060000Y-143925000D03*
%TO.P,FAN1,2*%
%TO.N,+12V*%
X101600000Y-143925000D03*
D21*
%TO.P,FAN1,1*%
%TO.N,GND*%
X104140000Y-143925000D03*
%TD*%
%TO.P,C1,2*%
%TO.N,GND*%
%TA.AperFunction,SMDPad,CuDef*%
G36*
G01*
X148133750Y-117705000D02*
X149046250Y-117705000D01*
G75*
G02*
X149290000Y-117948750I0J-243750D01*
G01*
X149290000Y-118436250D01*
G75*
G02*
X149046250Y-118680000I-243750J0D01*
G01*
X148133750Y-118680000D01*
G75*
G02*
X147890000Y-118436250I0J243750D01*
G01*
X147890000Y-117948750D01*
G75*
G02*
X148133750Y-117705000I243750J0D01*
G01*
G37*
%TD.AperFunction*%
%TO.P,C1,1*%
%TO.N,/ESP32 Core/EN*%
%TA.AperFunction,SMDPad,CuDef*%
G36*
G01*
X148133750Y-115830000D02*
X149046250Y-115830000D01*
G75*
G02*
X149290000Y-116073750I0J-243750D01*
G01*
X149290000Y-116561250D01*
G75*
G02*
X149046250Y-116805000I-243750J0D01*
G01*
X148133750Y-116805000D01*
G75*
G02*
X147890000Y-116561250I0J243750D01*
G01*
X147890000Y-116073750D01*
G75*
G02*
X148133750Y-115830000I243750J0D01*
G01*
G37*
%TD.AperFunction*%
%TD*%
D22*
%TO.P,H4,1*%
%TO.N,N/C*%
X91077056Y-142227944D03*
X89380000Y-141525000D03*
X87682944Y-142227944D03*
X86980000Y-143925000D03*
X87682944Y-145622056D03*
X89380000Y-146325000D03*
X91077056Y-145622056D03*
X91780000Y-143925000D03*
D23*
X89380000Y-143925000D03*
%TD*%
D22*
%TO.P,H3,1*%
%TO.N,N/C*%
X151077056Y-142227944D03*
X149380000Y-141525000D03*
X147682944Y-142227944D03*
X146980000Y-143925000D03*
X147682944Y-145622056D03*
X149380000Y-146325000D03*
X151077056Y-145622056D03*
X151780000Y-143925000D03*
D23*
X149380000Y-143925000D03*
%TD*%
D22*
%TO.P,H2,1*%
%TO.N,N/C*%
X151077056Y-102227944D03*
X149380000Y-101525000D03*
X147682944Y-102227944D03*
X146980000Y-103925000D03*
X147682944Y-105622056D03*
X149380000Y-106325000D03*
X151077056Y-105622056D03*
X151780000Y-103925000D03*
D23*
X149380000Y-103925000D03*
%TD*%
D22*
%TO.P,H1,1*%
%TO.N,N/C*%
X91077056Y-102227944D03*
X89380000Y-101525000D03*
X87682944Y-102227944D03*
X86980000Y-103925000D03*
X87682944Y-105622056D03*
X89380000Y-106325000D03*
X91077056Y-105622056D03*
X91780000Y-103925000D03*
D23*
X89380000Y-103925000D03*
%TD*%
D24*
%TO.P,J1,2*%
%TO.N,GND*%
X91615000Y-136290000D03*
D25*
X88615000Y-131590000D03*
D24*
%TO.P,J1,1*%
%TO.N,/VIN*%
X94615000Y-131590000D03*
%TD*%
%TO.P,R2,2*%
%TO.N,Net-(D1-Pad2)*%
%TA.AperFunction,SMDPad,CuDef*%
G36*
G01*
X118929998Y-132895000D02*
X119830002Y-132895000D01*
G75*
G02*
X120080000Y-133144998I0J-249998D01*
G01*
X120080000Y-133670002D01*
G75*
G02*
X119830002Y-133920000I-249998J0D01*
G01*
X118929998Y-133920000D01*
G75*
G02*
X118680000Y-133670002I0J249998D01*
G01*
X118680000Y-133144998D01*
G75*
G02*
X118929998Y-132895000I249998J0D01*
G01*
G37*
%TD.AperFunction*%
%TO.P,R2,1*%
%TO.N,/LINK*%
%TA.AperFunction,SMDPad,CuDef*%
G36*
G01*
X118929998Y-131070000D02*
X119830002Y-131070000D01*
G75*
G02*
X120080000Y-131319998I0J-249998D01*
G01*
X120080000Y-131845002D01*
G75*
G02*
X119830002Y-132095000I-249998J0D01*
G01*
X118929998Y-132095000D01*
G75*
G02*
X118680000Y-131845002I0J249998D01*
G01*
X118680000Y-131319998D01*
G75*
G02*
X118929998Y-131070000I249998J0D01*
G01*
G37*
%TD.AperFunction*%
%TD*%
D26*
%TO.N,+12V*%
X107315000Y-127415000D03*
X107315000Y-127415000D03*
X107315000Y-127415000D03*
X107315000Y-127415000D03*
X107315000Y-127415000D03*
X107315000Y-127415000D03*
X106045000Y-126145000D03*
X107315000Y-126145000D03*
X106045000Y-127415000D03*
%TO.N,GND*%
X102235000Y-116620000D03*
X97155000Y-116620000D03*
X97155000Y-117890000D03*
X97155000Y-119160000D03*
X97155000Y-120430000D03*
X96520000Y-122970000D03*
X93980000Y-116620000D03*
X93980000Y-117890000D03*
X93980000Y-119160000D03*
X92710000Y-119795000D03*
X93980000Y-120430000D03*
X98425000Y-130590000D03*
X104775000Y-108365000D03*
X107315000Y-117890000D03*
X148590000Y-119160000D03*
X132588000Y-113572000D03*
X133985000Y-113572000D03*
X133985000Y-115096000D03*
X132588000Y-115096000D03*
X132588000Y-116620000D03*
X134112000Y-116620000D03*
X131826000Y-114334000D03*
X131826000Y-115858000D03*
X133350000Y-115858000D03*
X134874000Y-115858000D03*
X134874000Y-114334000D03*
X133350000Y-114334000D03*
%TO.N,/ESP32 Core/EN*%
X127000000Y-110270000D03*
%TO.N,/ESP32 Core/TX*%
X144780000Y-111540000D03*
%TO.N,/ESP32 Core/RX*%
X144780000Y-112810000D03*
%TO.N,/ESP32 Core/IO0*%
X144145000Y-124240000D03*
%TO.N,/SENSE1*%
X109855000Y-132380000D03*
X109855000Y-133880000D03*
%TO.N,/SENSE2*%
X112395000Y-131860000D03*
X113030000Y-136305000D03*
%TO.N,/SENSE3*%
X114935000Y-129320000D03*
X115570000Y-136305000D03*
%TO.N,/SENSE4*%
X117475000Y-126780000D03*
X132080000Y-129955000D03*
%TO.N,/OneWire*%
X109855000Y-109635000D03*
%TO.N,/EXT2*%
X118110000Y-110270000D03*
%TO.N,/EXT1*%
X110490000Y-108365000D03*
%TO.N,/SDA*%
X115570000Y-111540000D03*
%TO.N,/SCL*%
X113030000Y-110270000D03*
%TO.N,/EXT3*%
X120650000Y-110905000D03*
%TD*%
D27*
%TO.N,+12V*%
X114300000Y-143790000D02*
X114300000Y-143155000D01*
D28*
X139700000Y-146465000D02*
X139700000Y-143925000D01*
X138430000Y-147735000D02*
X139700000Y-146465000D01*
X101600000Y-146440000D02*
X102895000Y-147735000D01*
X101600000Y-143925000D02*
X101600000Y-146440000D01*
X114300000Y-143925000D02*
X114300000Y-147735000D01*
X102895000Y-147735000D02*
X114300000Y-147735000D01*
X127000000Y-143925000D02*
X127000000Y-147735000D01*
X127000000Y-147735000D02*
X138430000Y-147735000D01*
X114300000Y-147735000D02*
X127000000Y-147735000D01*
D29*
%TO.N,GND*%
X101150000Y-116620000D02*
X102235000Y-116620000D01*
D30*
X95700000Y-116620000D02*
X97155000Y-116620000D01*
X95700000Y-117890000D02*
X97155000Y-117890000D01*
X95700000Y-119160000D02*
X97155000Y-119160000D01*
X95700000Y-120430000D02*
X97155000Y-120430000D01*
X97487500Y-122970000D02*
X96520000Y-122970000D01*
X99417500Y-130590000D02*
X98425000Y-130590000D01*
X104775000Y-110002500D02*
X104775000Y-108365000D01*
D29*
X106947500Y-118257500D02*
X107315000Y-117890000D01*
X106947500Y-121700000D02*
X106947500Y-118257500D01*
X105712500Y-117890000D02*
X107315000Y-117890000D01*
X119380000Y-137242500D02*
X119380000Y-138845000D01*
X116840000Y-141385000D02*
X116840000Y-143925000D01*
X119380000Y-138845000D02*
X116840000Y-141385000D01*
X148590000Y-118192500D02*
X148590000Y-119160000D01*
D30*
X123850000Y-107705000D02*
X125235000Y-107705000D01*
X123560000Y-107415000D02*
X123850000Y-107705000D01*
X121920000Y-107415000D02*
X123560000Y-107415000D01*
D29*
%TO.N,+3V3*%
X103837500Y-115350000D02*
X104775000Y-114412500D01*
X104775000Y-114412500D02*
X104775000Y-113077500D01*
D30*
X125235000Y-108975000D02*
X123850000Y-108975000D01*
X123510000Y-109315000D02*
X123850000Y-108975000D01*
X121920000Y-109315000D02*
X123510000Y-109315000D01*
D29*
%TO.N,Net-(D1-Pad2)*%
X119380000Y-135367500D02*
X119380000Y-133407500D01*
%TO.N,/FAN 1/PWM_Ctrl*%
X96852500Y-138845000D02*
X96852500Y-140417500D01*
X96520000Y-140750000D02*
X96520000Y-143925000D01*
X96852500Y-140417500D02*
X96520000Y-140750000D01*
%TO.N,/ESP32 Core/EN*%
X148590000Y-116317500D02*
X148590000Y-114382500D01*
X148922500Y-114715000D02*
X148590000Y-114382500D01*
X148590000Y-114382500D02*
X150162500Y-114382500D01*
X150495000Y-114715000D02*
X151880000Y-114715000D01*
X150162500Y-114382500D02*
X150495000Y-114715000D01*
X126975000Y-110245000D02*
X127000000Y-110270000D01*
X125235000Y-110245000D02*
X126975000Y-110245000D01*
%TO.N,/ESP32 Core/TX*%
X144755000Y-111515000D02*
X144780000Y-111540000D01*
X142735000Y-111515000D02*
X144755000Y-111515000D01*
%TO.N,/ESP32 Core/RX*%
X144755000Y-112785000D02*
X144780000Y-112810000D01*
X142735000Y-112785000D02*
X144755000Y-112785000D01*
%TO.N,/ESP32 Core/IO0*%
X144120000Y-124215000D02*
X144145000Y-124240000D01*
X142735000Y-124215000D02*
X144120000Y-124215000D01*
%TO.N,/DC/DC Buck/FB*%
X103837500Y-117890000D02*
X103837500Y-116922500D01*
X103837500Y-116922500D02*
X104140000Y-116620000D01*
X105712500Y-115350000D02*
X105712500Y-116317500D01*
X105410000Y-116620000D02*
X104140000Y-116620000D01*
X105712500Y-116317500D02*
X105410000Y-116620000D01*
X103837500Y-117890000D02*
X101150000Y-117890000D01*
%TO.N,/SENSE1*%
X99060000Y-143925000D02*
X99060000Y-140750000D01*
X99060000Y-140750000D02*
X106045000Y-133765000D01*
X106045000Y-133765000D02*
X112467120Y-133765000D01*
X112467120Y-133765000D02*
X113030000Y-133765000D01*
X113030000Y-133765000D02*
X122555000Y-124240000D01*
X109855000Y-122637500D02*
X109855000Y-132380000D01*
X125235000Y-121675000D02*
X123215000Y-121675000D01*
X123215000Y-121675000D02*
X122555000Y-122335000D01*
X122555000Y-122335000D02*
X122555000Y-124240000D01*
%TO.N,/SENSE2*%
X113030000Y-139480000D02*
X111760000Y-140750000D01*
X113030000Y-136305000D02*
X113030000Y-139480000D01*
X121920000Y-127415000D02*
X113030000Y-136305000D01*
X128905000Y-127415000D02*
X121920000Y-127415000D01*
X111760000Y-140750000D02*
X111760000Y-143925000D01*
X112395000Y-122637500D02*
X112395000Y-131860000D01*
X129535000Y-126785000D02*
X128905000Y-127415000D01*
X129535000Y-125465000D02*
X129535000Y-126775000D01*
%TO.N,/SENSE3*%
X124460000Y-142020000D02*
X124460000Y-143925000D01*
X114935000Y-122637500D02*
X114935000Y-129320000D01*
X115570000Y-136305000D02*
X121920000Y-136305000D01*
X121920000Y-136305000D02*
X123190000Y-137575000D01*
X123190000Y-140750000D02*
X124460000Y-142020000D01*
X123190000Y-137575000D02*
X123190000Y-140750000D01*
X144755000Y-117865000D02*
X142735000Y-117865000D01*
X146050000Y-119160000D02*
X144755000Y-117865000D01*
X146050000Y-126780000D02*
X146050000Y-119160000D01*
X144145000Y-128685000D02*
X146050000Y-126780000D01*
X132080000Y-128685000D02*
X144145000Y-128685000D01*
X125730000Y-135035000D02*
X132080000Y-128685000D01*
X125730000Y-140750000D02*
X125730000Y-135035000D01*
X124460000Y-142020000D02*
X125730000Y-140750000D01*
%TO.N,/SENSE4*%
X137160000Y-142020000D02*
X137160000Y-143925000D01*
X117475000Y-122637500D02*
X117475000Y-126780000D01*
X132080000Y-129955000D02*
X135255000Y-129955000D01*
X135255000Y-129955000D02*
X135890000Y-130590000D01*
X135890000Y-140750000D02*
X137160000Y-142020000D01*
X135890000Y-130590000D02*
X135890000Y-140750000D01*
X139700000Y-129955000D02*
X145415000Y-129955000D01*
X139065000Y-130590000D02*
X139700000Y-129955000D01*
X139065000Y-140115000D02*
X139065000Y-130590000D01*
X137160000Y-142020000D02*
X139065000Y-140115000D01*
X145415000Y-129955000D02*
X147320000Y-128050000D01*
X147320000Y-128050000D02*
X147320000Y-116620000D01*
X144755000Y-114055000D02*
X142735000Y-114055000D01*
X147320000Y-116620000D02*
X144755000Y-114055000D01*
%TO.N,/LINK*%
X126642500Y-131582500D02*
X119380000Y-131582500D01*
X140335000Y-127415000D02*
X130810000Y-127415000D01*
X130810000Y-127415000D02*
X126642500Y-131582500D01*
X140970000Y-110905000D02*
X140970000Y-126780000D01*
X140970000Y-126780000D02*
X140335000Y-127415000D01*
X141630000Y-110245000D02*
X140970000Y-110905000D01*
X142735000Y-110245000D02*
X141630000Y-110245000D01*
%TO.N,/PWM2*%
X111427500Y-136637500D02*
X111427500Y-138845000D01*
X123190000Y-124875000D02*
X111427500Y-136637500D01*
X125235000Y-122945000D02*
X123850000Y-122945000D01*
X123190000Y-123605000D02*
X123190000Y-124875000D01*
X123850000Y-122945000D02*
X123190000Y-123605000D01*
%TO.N,/PWM1*%
X121920000Y-123605000D02*
X112395000Y-133130000D01*
X125235000Y-120405000D02*
X122580000Y-120405000D01*
X121920000Y-121065000D02*
X121920000Y-123605000D01*
X122580000Y-120405000D02*
X121920000Y-121065000D01*
X98727500Y-138845000D02*
X99695000Y-138845000D01*
X99695000Y-138845000D02*
X105410000Y-133130000D01*
X105410000Y-133130000D02*
X112395000Y-133130000D01*
%TO.N,/PWM3*%
X144755000Y-122945000D02*
X142735000Y-122945000D01*
X145415000Y-126145000D02*
X145415000Y-123605000D01*
X143510000Y-128050000D02*
X145415000Y-126145000D01*
X145415000Y-123605000D02*
X144755000Y-122945000D01*
X131445000Y-128050000D02*
X143510000Y-128050000D01*
X124127500Y-135367500D02*
X131445000Y-128050000D01*
X124127500Y-138845000D02*
X124127500Y-135367500D01*
%TO.N,/PWM4*%
X144755000Y-116595000D02*
X142735000Y-116595000D01*
X146685000Y-127415000D02*
X146685000Y-118525000D01*
X146685000Y-118525000D02*
X144755000Y-116595000D01*
X144780000Y-129320000D02*
X146685000Y-127415000D01*
X138430000Y-129320000D02*
X144780000Y-129320000D01*
X136827500Y-130922500D02*
X138430000Y-129320000D01*
X136827500Y-138845000D02*
X136827500Y-130922500D01*
%TO.N,/OneWire*%
X125235000Y-119135000D02*
X121945000Y-119135000D01*
X121945000Y-119135000D02*
X121285000Y-119795000D01*
X120015000Y-122637500D02*
X120982500Y-122637500D01*
X120982500Y-122637500D02*
X121285000Y-122335000D01*
X111125000Y-109635000D02*
X109855000Y-109635000D01*
X121285000Y-119795000D02*
X111125000Y-109635000D01*
X121285000Y-122335000D02*
X121285000Y-119795000D01*
%TO.N,/EXT2*%
X125235000Y-112785000D02*
X120625000Y-112785000D01*
X118110000Y-110270000D02*
X120625000Y-112785000D01*
%TO.N,/EXT1*%
X113665000Y-108365000D02*
X110490000Y-108365000D01*
X119355000Y-114055000D02*
X113665000Y-108365000D01*
X125235000Y-114055000D02*
X119355000Y-114055000D01*
%TO.N,/SDA*%
X120625000Y-116595000D02*
X125235000Y-116595000D01*
X115570000Y-111540000D02*
X120625000Y-116595000D01*
%TO.N,/SCL*%
X113030000Y-110270000D02*
X119990000Y-117230000D01*
X120625000Y-117865000D02*
X119990000Y-117230000D01*
X125235000Y-117865000D02*
X120625000Y-117865000D01*
%TO.N,/EXT3*%
X125235000Y-111515000D02*
X121260000Y-111515000D01*
X121260000Y-111515000D02*
X120650000Y-110905000D01*
%TO.N,Net-(D3-Pad2)*%
X101330000Y-130502500D02*
X101242500Y-130590000D01*
X101330000Y-128365000D02*
X101330000Y-130502500D01*
X104140000Y-129165000D02*
X103025000Y-129165000D01*
X101330000Y-128365000D02*
X101915000Y-128365000D01*
X102715000Y-129165000D02*
X103025000Y-129165000D01*
X101915000Y-128365000D02*
X102715000Y-129165000D01*
D28*
%TO.N,/VIN*%
X94615000Y-131590000D02*
X94615000Y-128685000D01*
X94615000Y-128685000D02*
X95885000Y-127415000D01*
X95885000Y-127415000D02*
X97790000Y-127415000D01*
D30*
X99330000Y-127415000D02*
X97790000Y-127415000D01*
D29*
%TO.N,/sheet619566BF/PWM_Ctrl*%
X109552500Y-138845000D02*
X109552500Y-140417500D01*
X109220000Y-140750000D02*
X109220000Y-143925000D01*
X109552500Y-140417500D02*
X109220000Y-140750000D01*
%TO.N,/sheet61957927/PWM_Ctrl*%
X122252500Y-138845000D02*
X122252500Y-140417500D01*
X121920000Y-140750000D02*
X121920000Y-143925000D01*
X122252500Y-140417500D02*
X121920000Y-140750000D01*
%TO.N,/sheet61958B6B/PWM_Ctrl*%
X134952500Y-138845000D02*
X134952500Y-140417500D01*
X134620000Y-140750000D02*
X134620000Y-143925000D01*
X134952500Y-140417500D02*
X134620000Y-140750000D01*
%TD*%
D31*
%TO.N,+3V3*%
X122139659Y-99613625D02*
X122389429Y-99689035D01*
X122619792Y-99811522D01*
X122821980Y-99976422D01*
X122988286Y-100177450D01*
X123112378Y-100406954D01*
X123189531Y-100656195D01*
X123220001Y-100946098D01*
X123220000Y-103457418D01*
X123222852Y-103486372D01*
X123222765Y-103498781D01*
X123223665Y-103507952D01*
X123264466Y-103896145D01*
X123276487Y-103954708D01*
X123287702Y-104013501D01*
X123290366Y-104022323D01*
X123405790Y-104395198D01*
X123428975Y-104450353D01*
X123451379Y-104505806D01*
X123455706Y-104513943D01*
X123641357Y-104857298D01*
X123674780Y-104906849D01*
X123707562Y-104956946D01*
X123713387Y-104964087D01*
X123962194Y-105264841D01*
X124004629Y-105306981D01*
X124046492Y-105349730D01*
X124053592Y-105355604D01*
X124356077Y-105602305D01*
X124405904Y-105635409D01*
X124455259Y-105669204D01*
X124463365Y-105673587D01*
X124808007Y-105856837D01*
X124863311Y-105879631D01*
X124918295Y-105903198D01*
X124927098Y-105905923D01*
X125300770Y-106018741D01*
X125359458Y-106030361D01*
X125417961Y-106042797D01*
X125427126Y-106043760D01*
X125815595Y-106081850D01*
X125815598Y-106081850D01*
X125847581Y-106085000D01*
X141912419Y-106085000D01*
X141941373Y-106082148D01*
X141953781Y-106082235D01*
X141962952Y-106081335D01*
X142351145Y-106040534D01*
X142409708Y-106028513D01*
X142468501Y-106017298D01*
X142477323Y-106014634D01*
X142850198Y-105899210D01*
X142905353Y-105876025D01*
X142960806Y-105853621D01*
X142968943Y-105849294D01*
X143312298Y-105663643D01*
X143361849Y-105630220D01*
X143411946Y-105597438D01*
X143419087Y-105591613D01*
X143719841Y-105342806D01*
X143761981Y-105300371D01*
X143804730Y-105258508D01*
X143810604Y-105251408D01*
X144057305Y-104948923D01*
X144090409Y-104899096D01*
X144124204Y-104849741D01*
X144128587Y-104841635D01*
X144311837Y-104496993D01*
X144334631Y-104441689D01*
X144358198Y-104386705D01*
X144360923Y-104377902D01*
X144473741Y-104004230D01*
X144485361Y-103945542D01*
X144497797Y-103887039D01*
X144498760Y-103877874D01*
X144531174Y-103547285D01*
X145545000Y-103547285D01*
X145545000Y-104302715D01*
X145692377Y-105043628D01*
X145981467Y-105741554D01*
X146401161Y-106369670D01*
X146935330Y-106903839D01*
X147563446Y-107323533D01*
X148261372Y-107612623D01*
X149002285Y-107760000D01*
X149757715Y-107760000D01*
X150498628Y-107612623D01*
X151196554Y-107323533D01*
X151824670Y-106903839D01*
X152358839Y-106369670D01*
X152778533Y-105741554D01*
X153067623Y-105043628D01*
X153215000Y-104302715D01*
X153215000Y-103547285D01*
X153067623Y-102806372D01*
X152778533Y-102108446D01*
X152358839Y-101480330D01*
X151824670Y-100946161D01*
X151196554Y-100526467D01*
X150498628Y-100237377D01*
X149757715Y-100090000D01*
X149002285Y-100090000D01*
X148261372Y-100237377D01*
X147563446Y-100526467D01*
X146935330Y-100946161D01*
X146401161Y-101480330D01*
X145981467Y-102108446D01*
X145692377Y-102806372D01*
X145545000Y-103547285D01*
X144531174Y-103547285D01*
X144536850Y-103489405D01*
X144536850Y-103489402D01*
X144540000Y-103457419D01*
X144540000Y-100957279D01*
X144568625Y-100665341D01*
X144644035Y-100415571D01*
X144766522Y-100185208D01*
X144931422Y-99983020D01*
X145132450Y-99816714D01*
X145361954Y-99692622D01*
X145611195Y-99615469D01*
X145901088Y-99585000D01*
X152347721Y-99585000D01*
X152639659Y-99613625D01*
X152889429Y-99689035D01*
X153119792Y-99811522D01*
X153321980Y-99976422D01*
X153488286Y-100177450D01*
X153612378Y-100406954D01*
X153689531Y-100656195D01*
X153720001Y-100946098D01*
X153720000Y-146892721D01*
X153691375Y-147184660D01*
X153615965Y-147434429D01*
X153493477Y-147664794D01*
X153328579Y-147866979D01*
X153127546Y-148033288D01*
X152898046Y-148157378D01*
X152648805Y-148234531D01*
X152358911Y-148265000D01*
X139858685Y-148265000D01*
X140631241Y-147492445D01*
X140684080Y-147449081D01*
X140727445Y-147396241D01*
X140727452Y-147396234D01*
X140857156Y-147238189D01*
X140857157Y-147238188D01*
X140985764Y-146997581D01*
X141064960Y-146736507D01*
X141085000Y-146533037D01*
X141085000Y-146533028D01*
X141091700Y-146465001D01*
X141085000Y-146396974D01*
X141085000Y-145505010D01*
X141130820Y-145529502D01*
X141250518Y-145565812D01*
X141375000Y-145578072D01*
X143105000Y-145578072D01*
X143229482Y-145565812D01*
X143349180Y-145529502D01*
X143459494Y-145470537D01*
X143556185Y-145391185D01*
X143635537Y-145294494D01*
X143694502Y-145184180D01*
X143730812Y-145064482D01*
X143743072Y-144940000D01*
X143743072Y-143547285D01*
X145545000Y-143547285D01*
X145545000Y-144302715D01*
X145692377Y-145043628D01*
X145981467Y-145741554D01*
X146401161Y-146369670D01*
X146935330Y-146903839D01*
X147563446Y-147323533D01*
X148261372Y-147612623D01*
X149002285Y-147760000D01*
X149757715Y-147760000D01*
X150498628Y-147612623D01*
X151196554Y-147323533D01*
X151824670Y-146903839D01*
X152358839Y-146369670D01*
X152778533Y-145741554D01*
X153067623Y-145043628D01*
X153215000Y-144302715D01*
X153215000Y-143547285D01*
X153067623Y-142806372D01*
X152778533Y-142108446D01*
X152358839Y-141480330D01*
X151824670Y-140946161D01*
X151196554Y-140526467D01*
X150498628Y-140237377D01*
X149757715Y-140090000D01*
X149002285Y-140090000D01*
X148261372Y-140237377D01*
X147563446Y-140526467D01*
X146935330Y-140946161D01*
X146401161Y-141480330D01*
X145981467Y-142108446D01*
X145692377Y-142806372D01*
X145545000Y-143547285D01*
X143743072Y-143547285D01*
X143743072Y-142910000D01*
X143730812Y-142785518D01*
X143694502Y-142665820D01*
X143635537Y-142555506D01*
X143556185Y-142458815D01*
X143459494Y-142379463D01*
X143349180Y-142320498D01*
X143229482Y-142284188D01*
X143105000Y-142271928D01*
X141375000Y-142271928D01*
X141250518Y-142284188D01*
X141130820Y-142320498D01*
X141020506Y-142379463D01*
X140923815Y-142458815D01*
X140844463Y-142555506D01*
X140785498Y-142665820D01*
X140770570Y-142715030D01*
X140765792Y-142709208D01*
X140537387Y-142521762D01*
X140276802Y-142382476D01*
X139994051Y-142296705D01*
X139700000Y-142267743D01*
X139405950Y-142296705D01*
X139123199Y-142382476D01*
X138862614Y-142521762D01*
X138634208Y-142709208D01*
X138446762Y-142937613D01*
X138430000Y-142968972D01*
X138413238Y-142937613D01*
X138225792Y-142709208D01*
X137997387Y-142521762D01*
X137945000Y-142493760D01*
X137945000Y-142345157D01*
X139592811Y-140697346D01*
X139622764Y-140672764D01*
X139720862Y-140553233D01*
X139793754Y-140416860D01*
X139793754Y-140416859D01*
X139838642Y-140268887D01*
X139847093Y-140183072D01*
X139850000Y-140153561D01*
X139850000Y-140153556D01*
X139853797Y-140115000D01*
X139850000Y-140076444D01*
X139850000Y-130915157D01*
X140025157Y-130740000D01*
X145376447Y-130740000D01*
X145415000Y-130743797D01*
X145453553Y-130740000D01*
X145453561Y-130740000D01*
X145568887Y-130728641D01*
X145716860Y-130683754D01*
X145853233Y-130610862D01*
X145972764Y-130512764D01*
X145997347Y-130482810D01*
X147847812Y-128632345D01*
X147877764Y-128607764D01*
X147975862Y-128488233D01*
X148048754Y-128351860D01*
X148056465Y-128326440D01*
X148093642Y-128203887D01*
X148101191Y-128127236D01*
X148105000Y-128088561D01*
X148105000Y-128088556D01*
X148108797Y-128050000D01*
X148105000Y-128011444D01*
X148105000Y-120079382D01*
X148288102Y-120155226D01*
X148488061Y-120195000D01*
X148691939Y-120195000D01*
X148891898Y-120155226D01*
X149080256Y-120077205D01*
X149249774Y-119963937D01*
X149393937Y-119819774D01*
X149507205Y-119650256D01*
X149585226Y-119461898D01*
X149625000Y-119261939D01*
X149625000Y-119096552D01*
X149669792Y-119059792D01*
X149779458Y-118926164D01*
X149860947Y-118773709D01*
X149911128Y-118608285D01*
X149928072Y-118436250D01*
X149928072Y-117948750D01*
X149911128Y-117776715D01*
X149860947Y-117611291D01*
X149779458Y-117458836D01*
X149669792Y-117325208D01*
X149584244Y-117255000D01*
X149669792Y-117184792D01*
X149779458Y-117051164D01*
X149860947Y-116898709D01*
X149911128Y-116733285D01*
X149928072Y-116561250D01*
X149928072Y-116073750D01*
X149911128Y-115901715D01*
X149860947Y-115736291D01*
X149779458Y-115583836D01*
X149669792Y-115450208D01*
X149547689Y-115350000D01*
X149669792Y-115249792D01*
X149737328Y-115167500D01*
X149837343Y-115167500D01*
X149912653Y-115242810D01*
X149937236Y-115272764D01*
X150056767Y-115370862D01*
X150193140Y-115443754D01*
X150341113Y-115488641D01*
X150456439Y-115500000D01*
X150456446Y-115500000D01*
X150494999Y-115503797D01*
X150533552Y-115500000D01*
X150618526Y-115500000D01*
X150726525Y-115661632D01*
X150933368Y-115868475D01*
X151107760Y-115985000D01*
X150933368Y-116101525D01*
X150726525Y-116308368D01*
X150564010Y-116551589D01*
X150452068Y-116821842D01*
X150395000Y-117108740D01*
X150395000Y-117401260D01*
X150452068Y-117688158D01*
X150564010Y-117958411D01*
X150726525Y-118201632D01*
X150933368Y-118408475D01*
X151107760Y-118525000D01*
X150933368Y-118641525D01*
X150726525Y-118848368D01*
X150564010Y-119091589D01*
X150452068Y-119361842D01*
X150395000Y-119648740D01*
X150395000Y-119941260D01*
X150452068Y-120228158D01*
X150564010Y-120498411D01*
X150726525Y-120741632D01*
X150933368Y-120948475D01*
X151107760Y-121065000D01*
X150933368Y-121181525D01*
X150726525Y-121388368D01*
X150564010Y-121631589D01*
X150452068Y-121901842D01*
X150395000Y-122188740D01*
X150395000Y-122481260D01*
X150452068Y-122768158D01*
X150564010Y-123038411D01*
X150726525Y-123281632D01*
X150858380Y-123413487D01*
X150785820Y-123435498D01*
X150675506Y-123494463D01*
X150578815Y-123573815D01*
X150499463Y-123670506D01*
X150440498Y-123780820D01*
X150404188Y-123900518D01*
X150391928Y-124025000D01*
X150391928Y-125725000D01*
X150404188Y-125849482D01*
X150440498Y-125969180D01*
X150499463Y-126079494D01*
X150578815Y-126176185D01*
X150675506Y-126255537D01*
X150785820Y-126314502D01*
X150905518Y-126350812D01*
X151030000Y-126363072D01*
X152730000Y-126363072D01*
X152854482Y-126350812D01*
X152974180Y-126314502D01*
X153084494Y-126255537D01*
X153181185Y-126176185D01*
X153260537Y-126079494D01*
X153319502Y-125969180D01*
X153355812Y-125849482D01*
X153368072Y-125725000D01*
X153368072Y-124025000D01*
X153355812Y-123900518D01*
X153319502Y-123780820D01*
X153260537Y-123670506D01*
X153181185Y-123573815D01*
X153084494Y-123494463D01*
X152974180Y-123435498D01*
X152901620Y-123413487D01*
X153033475Y-123281632D01*
X153195990Y-123038411D01*
X153307932Y-122768158D01*
X153365000Y-122481260D01*
X153365000Y-122188740D01*
X153307932Y-121901842D01*
X153195990Y-121631589D01*
X153033475Y-121388368D01*
X152826632Y-121181525D01*
X152652240Y-121065000D01*
X152826632Y-120948475D01*
X153033475Y-120741632D01*
X153195990Y-120498411D01*
X153307932Y-120228158D01*
X153365000Y-119941260D01*
X153365000Y-119648740D01*
X153307932Y-119361842D01*
X153195990Y-119091589D01*
X153033475Y-118848368D01*
X152826632Y-118641525D01*
X152652240Y-118525000D01*
X152826632Y-118408475D01*
X153033475Y-118201632D01*
X153195990Y-117958411D01*
X153307932Y-117688158D01*
X153365000Y-117401260D01*
X153365000Y-117108740D01*
X153307932Y-116821842D01*
X153195990Y-116551589D01*
X153033475Y-116308368D01*
X152826632Y-116101525D01*
X152652240Y-115985000D01*
X152826632Y-115868475D01*
X153033475Y-115661632D01*
X153195990Y-115418411D01*
X153307932Y-115148158D01*
X153365000Y-114861260D01*
X153365000Y-114568740D01*
X153307932Y-114281842D01*
X153195990Y-114011589D01*
X153033475Y-113768368D01*
X152826632Y-113561525D01*
X152644466Y-113439805D01*
X152761355Y-113370178D01*
X152977588Y-113175269D01*
X153151641Y-112941920D01*
X153276825Y-112679099D01*
X153321476Y-112531890D01*
X153200155Y-112302000D01*
X152007000Y-112302000D01*
X152007000Y-112322000D01*
X151753000Y-112322000D01*
X151753000Y-112302000D01*
X150559845Y-112302000D01*
X150438524Y-112531890D01*
X150483175Y-112679099D01*
X150608359Y-112941920D01*
X150782412Y-113175269D01*
X150998645Y-113370178D01*
X151115534Y-113439805D01*
X150933368Y-113561525D01*
X150726525Y-113768368D01*
X150699983Y-113808091D01*
X150600733Y-113726638D01*
X150464360Y-113653746D01*
X150316387Y-113608859D01*
X150201061Y-113597500D01*
X150201053Y-113597500D01*
X150162500Y-113593703D01*
X150123947Y-113597500D01*
X149737328Y-113597500D01*
X149669792Y-113515208D01*
X149663436Y-113509992D01*
X149741185Y-113446185D01*
X149820537Y-113349494D01*
X149879502Y-113239180D01*
X149915812Y-113119482D01*
X149928072Y-112995000D01*
X149925000Y-112793250D01*
X149766250Y-112634500D01*
X148717000Y-112634500D01*
X148717000Y-112654500D01*
X148463000Y-112654500D01*
X148463000Y-112634500D01*
X147413750Y-112634500D01*
X147255000Y-112793250D01*
X147251928Y-112995000D01*
X147264188Y-113119482D01*
X147300498Y-113239180D01*
X147359463Y-113349494D01*
X147438815Y-113446185D01*
X147516564Y-113509992D01*
X147510208Y-113515208D01*
X147400542Y-113648836D01*
X147319053Y-113801291D01*
X147268872Y-113966715D01*
X147251928Y-114138750D01*
X147251928Y-114626250D01*
X147268872Y-114798285D01*
X147319053Y-114963709D01*
X147400542Y-115116164D01*
X147510208Y-115249792D01*
X147632311Y-115350000D01*
X147510208Y-115450208D01*
X147400542Y-115583836D01*
X147398261Y-115588104D01*
X145430375Y-113620218D01*
X145439774Y-113613937D01*
X145583937Y-113469774D01*
X145697205Y-113300256D01*
X145775226Y-113111898D01*
X145815000Y-112911939D01*
X145815000Y-112708061D01*
X145775226Y-112508102D01*
X145697205Y-112319744D01*
X145600490Y-112175000D01*
X145697205Y-112030256D01*
X145701453Y-112020000D01*
X147251928Y-112020000D01*
X147255000Y-112221750D01*
X147413750Y-112380500D01*
X148463000Y-112380500D01*
X148463000Y-111543750D01*
X148717000Y-111543750D01*
X148717000Y-112380500D01*
X149766250Y-112380500D01*
X149925000Y-112221750D01*
X149928072Y-112020000D01*
X149915812Y-111895518D01*
X149892331Y-111818110D01*
X150438524Y-111818110D01*
X150559845Y-112048000D01*
X151753000Y-112048000D01*
X151753000Y-110854186D01*
X152007000Y-110854186D01*
X152007000Y-112048000D01*
X153200155Y-112048000D01*
X153321476Y-111818110D01*
X153276825Y-111670901D01*
X153151641Y-111408080D01*
X152977588Y-111174731D01*
X152761355Y-110979822D01*
X152511252Y-110830843D01*
X152236891Y-110733519D01*
X152007000Y-110854186D01*
X151753000Y-110854186D01*
X151523109Y-110733519D01*
X151248748Y-110830843D01*
X150998645Y-110979822D01*
X150782412Y-111174731D01*
X150608359Y-111408080D01*
X150483175Y-111670901D01*
X150438524Y-111818110D01*
X149892331Y-111818110D01*
X149879502Y-111775820D01*
X149820537Y-111665506D01*
X149741185Y-111568815D01*
X149644494Y-111489463D01*
X149534180Y-111430498D01*
X149414482Y-111394188D01*
X149290000Y-111381928D01*
X148875750Y-111385000D01*
X148717000Y-111543750D01*
X148463000Y-111543750D01*
X148304250Y-111385000D01*
X147890000Y-111381928D01*
X147765518Y-111394188D01*
X147645820Y-111430498D01*
X147535506Y-111489463D01*
X147438815Y-111568815D01*
X147359463Y-111665506D01*
X147300498Y-111775820D01*
X147264188Y-111895518D01*
X147251928Y-112020000D01*
X145701453Y-112020000D01*
X145775226Y-111841898D01*
X145815000Y-111641939D01*
X145815000Y-111438061D01*
X145775226Y-111238102D01*
X145697205Y-111049744D01*
X145583937Y-110880226D01*
X145439774Y-110736063D01*
X145270256Y-110622795D01*
X145081898Y-110544774D01*
X144881939Y-110505000D01*
X144678061Y-110505000D01*
X144478102Y-110544774D01*
X144289744Y-110622795D01*
X144145000Y-110719510D01*
X144145000Y-107095000D01*
X144132799Y-106971118D01*
X144096664Y-106851996D01*
X144037983Y-106742213D01*
X143959013Y-106645987D01*
X143862787Y-106567017D01*
X143753004Y-106508336D01*
X143633882Y-106472201D01*
X143510000Y-106460000D01*
X124460000Y-106460000D01*
X124336118Y-106472201D01*
X124216996Y-106508336D01*
X124107213Y-106567017D01*
X124010987Y-106645987D01*
X124007234Y-106650561D01*
X123900313Y-106593411D01*
X123733490Y-106542805D01*
X123603477Y-106530000D01*
X123603469Y-106530000D01*
X123560000Y-106525719D01*
X123516531Y-106530000D01*
X123014386Y-106530000D01*
X122888386Y-106426595D01*
X122734850Y-106344528D01*
X122568254Y-106293992D01*
X122395000Y-106276928D01*
X121445000Y-106276928D01*
X121271746Y-106293992D01*
X121105150Y-106344528D01*
X120951614Y-106426595D01*
X120817038Y-106537038D01*
X120706595Y-106671614D01*
X120624528Y-106825150D01*
X120573992Y-106991746D01*
X120556928Y-107165000D01*
X120556928Y-107665000D01*
X120573992Y-107838254D01*
X120624528Y-108004850D01*
X120706595Y-108158386D01*
X120817038Y-108292962D01*
X120823594Y-108298342D01*
X120743815Y-108363815D01*
X120664463Y-108460506D01*
X120605498Y-108570820D01*
X120569188Y-108690518D01*
X120556928Y-108815000D01*
X120560000Y-109029250D01*
X120718750Y-109188000D01*
X121793000Y-109188000D01*
X121793000Y-109168000D01*
X122047000Y-109168000D01*
X122047000Y-109188000D01*
X123121250Y-109188000D01*
X123280000Y-109029250D01*
X123283072Y-108815000D01*
X123270812Y-108690518D01*
X123234502Y-108570820D01*
X123175537Y-108460506D01*
X123096185Y-108363815D01*
X123018426Y-108300000D01*
X123193422Y-108300000D01*
X123193466Y-108300044D01*
X123221183Y-108333817D01*
X123355941Y-108444411D01*
X123509687Y-108526589D01*
X123637682Y-108565416D01*
X123676509Y-108577195D01*
X123691306Y-108578652D01*
X123806523Y-108590000D01*
X123806531Y-108590000D01*
X123825000Y-108591819D01*
X123825000Y-110730000D01*
X121670467Y-110730000D01*
X121645226Y-110603102D01*
X121581960Y-110450366D01*
X121634250Y-110450000D01*
X121793000Y-110291250D01*
X121793000Y-109442000D01*
X122047000Y-109442000D01*
X122047000Y-110291250D01*
X122205750Y-110450000D01*
X122645000Y-110453072D01*
X122769482Y-110440812D01*
X122889180Y-110404502D01*
X122999494Y-110345537D01*
X123096185Y-110266185D01*
X123175537Y-110169494D01*
X123234502Y-110059180D01*
X123270812Y-109939482D01*
X123283072Y-109815000D01*
X123280000Y-109600750D01*
X123121250Y-109442000D01*
X122047000Y-109442000D01*
X121793000Y-109442000D01*
X120718750Y-109442000D01*
X120560000Y-109600750D01*
X120556928Y-109815000D01*
X120562345Y-109870000D01*
X120548061Y-109870000D01*
X120348102Y-109909774D01*
X120159744Y-109987795D01*
X119990226Y-110101063D01*
X119846063Y-110245226D01*
X119732795Y-110414744D01*
X119654774Y-110603102D01*
X119637932Y-110687774D01*
X119145000Y-110194843D01*
X119145000Y-110168061D01*
X119105226Y-109968102D01*
X119027205Y-109779744D01*
X118913937Y-109610226D01*
X118769774Y-109466063D01*
X118600256Y-109352795D01*
X118411898Y-109274774D01*
X118211939Y-109235000D01*
X118008061Y-109235000D01*
X117808102Y-109274774D01*
X117619744Y-109352795D01*
X117450226Y-109466063D01*
X117306063Y-109610226D01*
X117192795Y-109779744D01*
X117114774Y-109968102D01*
X117075000Y-110168061D01*
X117075000Y-110371939D01*
X117114774Y-110571898D01*
X117192795Y-110760256D01*
X117237864Y-110827706D01*
X114247347Y-107837190D01*
X114222764Y-107807236D01*
X114103233Y-107709138D01*
X113966860Y-107636246D01*
X113818887Y-107591359D01*
X113703561Y-107580000D01*
X113703553Y-107580000D01*
X113665000Y-107576203D01*
X113626447Y-107580000D01*
X111168711Y-107580000D01*
X111149774Y-107561063D01*
X110980256Y-107447795D01*
X110791898Y-107369774D01*
X110591939Y-107330000D01*
X110388061Y-107330000D01*
X110188102Y-107369774D01*
X109999744Y-107447795D01*
X109830226Y-107561063D01*
X109686063Y-107705226D01*
X109572795Y-107874744D01*
X109494774Y-108063102D01*
X109455000Y-108263061D01*
X109455000Y-108466939D01*
X109494229Y-108664160D01*
X109364744Y-108717795D01*
X109195226Y-108831063D01*
X109051063Y-108975226D01*
X108937795Y-109144744D01*
X108859774Y-109333102D01*
X108820000Y-109533061D01*
X108820000Y-109736939D01*
X108859774Y-109936898D01*
X108937795Y-110125256D01*
X109051063Y-110294774D01*
X109195226Y-110438937D01*
X109364744Y-110552205D01*
X109553102Y-110630226D01*
X109753061Y-110670000D01*
X109956939Y-110670000D01*
X110156898Y-110630226D01*
X110345256Y-110552205D01*
X110514774Y-110438937D01*
X110533711Y-110420000D01*
X110799843Y-110420000D01*
X120160297Y-119780454D01*
X120142000Y-119798750D01*
X120142000Y-120635500D01*
X120162000Y-120635500D01*
X120162000Y-120889500D01*
X120142000Y-120889500D01*
X120142000Y-120909500D01*
X119888000Y-120909500D01*
X119888000Y-120889500D01*
X118838750Y-120889500D01*
X118745000Y-120983250D01*
X118651250Y-120889500D01*
X117602000Y-120889500D01*
X117602000Y-120909500D01*
X117348000Y-120909500D01*
X117348000Y-120889500D01*
X116298750Y-120889500D01*
X116205000Y-120983250D01*
X116111250Y-120889500D01*
X115062000Y-120889500D01*
X115062000Y-120909500D01*
X114808000Y-120909500D01*
X114808000Y-120889500D01*
X113758750Y-120889500D01*
X113665000Y-120983250D01*
X113571250Y-120889500D01*
X112522000Y-120889500D01*
X112522000Y-120909500D01*
X112268000Y-120909500D01*
X112268000Y-120889500D01*
X111218750Y-120889500D01*
X111125000Y-120983250D01*
X111031250Y-120889500D01*
X109982000Y-120889500D01*
X109982000Y-120909500D01*
X109728000Y-120909500D01*
X109728000Y-120889500D01*
X108678750Y-120889500D01*
X108520000Y-121048250D01*
X108516928Y-121250000D01*
X108529188Y-121374482D01*
X108565498Y-121494180D01*
X108624463Y-121604494D01*
X108703815Y-121701185D01*
X108781564Y-121764992D01*
X108775208Y-121770208D01*
X108665542Y-121903836D01*
X108584053Y-122056291D01*
X108533872Y-122221715D01*
X108516928Y-122393750D01*
X108516928Y-122881250D01*
X108533872Y-123053285D01*
X108584053Y-123218709D01*
X108665542Y-123371164D01*
X108775208Y-123504792D01*
X108908836Y-123614458D01*
X109061291Y-123695947D01*
X109070000Y-123698589D01*
X109070000Y-125104838D01*
X109034013Y-125060987D01*
X108399013Y-124425987D01*
X108302787Y-124347017D01*
X108193004Y-124288336D01*
X108073882Y-124252201D01*
X107950000Y-124240000D01*
X106943026Y-124240000D01*
X106094929Y-123391903D01*
X106195149Y-123445472D01*
X106361745Y-123496008D01*
X106534999Y-123513072D01*
X107360001Y-123513072D01*
X107533255Y-123496008D01*
X107699851Y-123445472D01*
X107853387Y-123363405D01*
X107987962Y-123252962D01*
X108098405Y-123118387D01*
X108180472Y-122964851D01*
X108231008Y-122798255D01*
X108248072Y-122625001D01*
X108248072Y-120774999D01*
X108231008Y-120601745D01*
X108180472Y-120435149D01*
X108098405Y-120281613D01*
X108092978Y-120275000D01*
X108516928Y-120275000D01*
X108520000Y-120476750D01*
X108678750Y-120635500D01*
X109728000Y-120635500D01*
X109728000Y-119798750D01*
X109982000Y-119798750D01*
X109982000Y-120635500D01*
X111031250Y-120635500D01*
X111125000Y-120541750D01*
X111218750Y-120635500D01*
X112268000Y-120635500D01*
X112268000Y-119798750D01*
X112522000Y-119798750D01*
X112522000Y-120635500D01*
X113571250Y-120635500D01*
X113665000Y-120541750D01*
X113758750Y-120635500D01*
X114808000Y-120635500D01*
X114808000Y-119798750D01*
X115062000Y-119798750D01*
X115062000Y-120635500D01*
X116111250Y-120635500D01*
X116205000Y-120541750D01*
X116298750Y-120635500D01*
X117348000Y-120635500D01*
X117348000Y-119798750D01*
X117602000Y-119798750D01*
X117602000Y-120635500D01*
X118651250Y-120635500D01*
X118745000Y-120541750D01*
X118838750Y-120635500D01*
X119888000Y-120635500D01*
X119888000Y-119798750D01*
X119729250Y-119640000D01*
X119315000Y-119636928D01*
X119190518Y-119649188D01*
X119070820Y-119685498D01*
X118960506Y-119744463D01*
X118863815Y-119823815D01*
X118784463Y-119920506D01*
X118745000Y-119994335D01*
X118705537Y-119920506D01*
X118626185Y-119823815D01*
X118529494Y-119744463D01*
X118419180Y-119685498D01*
X118299482Y-119649188D01*
X118175000Y-119636928D01*
X117760750Y-119640000D01*
X117602000Y-119798750D01*
X117348000Y-119798750D01*
X117189250Y-119640000D01*
X116775000Y-119636928D01*
X116650518Y-119649188D01*
X116530820Y-119685498D01*
X116420506Y-119744463D01*
X116323815Y-119823815D01*
X116244463Y-119920506D01*
X116205000Y-119994335D01*
X116165537Y-119920506D01*
X116086185Y-119823815D01*
X115989494Y-119744463D01*
X115879180Y-119685498D01*
X115759482Y-119649188D01*
X115635000Y-119636928D01*
X115220750Y-119640000D01*
X115062000Y-119798750D01*
X114808000Y-119798750D01*
X114649250Y-119640000D01*
X114235000Y-119636928D01*
X114110518Y-119649188D01*
X113990820Y-119685498D01*
X113880506Y-119744463D01*
X113783815Y-119823815D01*
X113704463Y-119920506D01*
X113665000Y-119994335D01*
X113625537Y-119920506D01*
X113546185Y-119823815D01*
X113449494Y-119744463D01*
X113339180Y-119685498D01*
X113219482Y-119649188D01*
X113095000Y-119636928D01*
X112680750Y-119640000D01*
X112522000Y-119798750D01*
X112268000Y-119798750D01*
X112109250Y-119640000D01*
X111695000Y-119636928D01*
X111570518Y-119649188D01*
X111450820Y-119685498D01*
X111340506Y-119744463D01*
X111243815Y-119823815D01*
X111164463Y-119920506D01*
X111125000Y-119994335D01*
X111085537Y-119920506D01*
X111006185Y-119823815D01*
X110909494Y-119744463D01*
X110799180Y-119685498D01*
X110679482Y-119649188D01*
X110555000Y-119636928D01*
X110140750Y-119640000D01*
X109982000Y-119798750D01*
X109728000Y-119798750D01*
X109569250Y-119640000D01*
X109155000Y-119636928D01*
X109030518Y-119649188D01*
X108910820Y-119685498D01*
X108800506Y-119744463D01*
X108703815Y-119823815D01*
X108624463Y-119920506D01*
X108565498Y-120030820D01*
X108529188Y-120150518D01*
X108516928Y-120275000D01*
X108092978Y-120275000D01*
X107987962Y-120147038D01*
X107853387Y-120036595D01*
X107732500Y-119971979D01*
X107732500Y-118837342D01*
X107805256Y-118807205D01*
X107974774Y-118693937D01*
X108118937Y-118549774D01*
X108232205Y-118380256D01*
X108310226Y-118191898D01*
X108350000Y-117991939D01*
X108350000Y-117788061D01*
X108310226Y-117588102D01*
X108232205Y-117399744D01*
X108118937Y-117230226D01*
X107974774Y-117086063D01*
X107805256Y-116972795D01*
X107616898Y-116894774D01*
X107416939Y-116855000D01*
X107213061Y-116855000D01*
X107013102Y-116894774D01*
X106824744Y-116972795D01*
X106736465Y-117031781D01*
X106689458Y-116943836D01*
X106579792Y-116810208D01*
X106446164Y-116700542D01*
X106408595Y-116680461D01*
X106441254Y-116619360D01*
X106454972Y-116574139D01*
X106471899Y-116518337D01*
X106579792Y-116429792D01*
X106689458Y-116296164D01*
X106770947Y-116143709D01*
X106821128Y-115978285D01*
X106838072Y-115806250D01*
X106838072Y-114893750D01*
X106821128Y-114721715D01*
X106770947Y-114556291D01*
X106689458Y-114403836D01*
X106579792Y-114270208D01*
X106446164Y-114160542D01*
X106432380Y-114153174D01*
X106480537Y-114094494D01*
X106539502Y-113984180D01*
X106575812Y-113864482D01*
X106588072Y-113740000D01*
X106585000Y-113363250D01*
X106426250Y-113204500D01*
X104902000Y-113204500D01*
X104902000Y-113224500D01*
X104648000Y-113224500D01*
X104648000Y-113204500D01*
X103123750Y-113204500D01*
X102965000Y-113363250D01*
X102961928Y-113740000D01*
X102974188Y-113864482D01*
X103010498Y-113984180D01*
X103063409Y-114083168D01*
X102995506Y-114119463D01*
X102898815Y-114198815D01*
X102870000Y-114233926D01*
X102870000Y-112415000D01*
X102961928Y-112415000D01*
X102965000Y-112791750D01*
X103123750Y-112950500D01*
X104648000Y-112950500D01*
X104648000Y-111938750D01*
X104902000Y-111938750D01*
X104902000Y-112950500D01*
X106426250Y-112950500D01*
X106585000Y-112791750D01*
X106588072Y-112415000D01*
X106575812Y-112290518D01*
X106539502Y-112170820D01*
X106480537Y-112060506D01*
X106401185Y-111963815D01*
X106304494Y-111884463D01*
X106194180Y-111825498D01*
X106074482Y-111789188D01*
X105950000Y-111776928D01*
X105060750Y-111780000D01*
X104902000Y-111938750D01*
X104648000Y-111938750D01*
X104489250Y-111780000D01*
X103600000Y-111776928D01*
X103475518Y-111789188D01*
X103355820Y-111825498D01*
X103245506Y-111884463D01*
X103148815Y-111963815D01*
X103069463Y-112060506D01*
X103010498Y-112170820D01*
X102974188Y-112290518D01*
X102961928Y-112415000D01*
X102870000Y-112415000D01*
X102870000Y-111413000D01*
X102857799Y-111289118D01*
X102821664Y-111169996D01*
X102762983Y-111060213D01*
X102684013Y-110963987D01*
X102587787Y-110885017D01*
X102478004Y-110826336D01*
X102358882Y-110790201D01*
X102235000Y-110778000D01*
X90805000Y-110778000D01*
X90681118Y-110790201D01*
X90561996Y-110826336D01*
X90452213Y-110885017D01*
X90355987Y-110963987D01*
X90277017Y-111060213D01*
X90218336Y-111169996D01*
X90182201Y-111289118D01*
X90170000Y-111413000D01*
X90170000Y-115223000D01*
X90182201Y-115346882D01*
X90218336Y-115466004D01*
X90277017Y-115575787D01*
X90300171Y-115604000D01*
X90277017Y-115632213D01*
X90218336Y-115741996D01*
X90182201Y-115861118D01*
X90170000Y-115985000D01*
X90170000Y-119795000D01*
X90182201Y-119918882D01*
X90218336Y-120038004D01*
X90277017Y-120147787D01*
X90355987Y-120244013D01*
X94800987Y-124689013D01*
X94897213Y-124767983D01*
X95006996Y-124826664D01*
X95126118Y-124862799D01*
X95250000Y-124875000D01*
X97790000Y-124875000D01*
X97790000Y-126030000D01*
X95953026Y-126030000D01*
X95884999Y-126023300D01*
X95816972Y-126030000D01*
X95816963Y-126030000D01*
X95613493Y-126050040D01*
X95352419Y-126129236D01*
X95111812Y-126257843D01*
X95111810Y-126257844D01*
X95111811Y-126257844D01*
X94953766Y-126387548D01*
X94953764Y-126387550D01*
X94900919Y-126430919D01*
X94857550Y-126483764D01*
X93683764Y-127657551D01*
X93630920Y-127700919D01*
X93587551Y-127753764D01*
X93587548Y-127753767D01*
X93457844Y-127911812D01*
X93329236Y-128152420D01*
X93250040Y-128413493D01*
X93223300Y-128685000D01*
X93230001Y-128753039D01*
X93230001Y-129496676D01*
X93014968Y-129640356D01*
X92665356Y-129989968D01*
X92390667Y-130401069D01*
X92201458Y-130857860D01*
X92105000Y-131342787D01*
X92105000Y-131837213D01*
X92201458Y-132322140D01*
X92390667Y-132778931D01*
X92665356Y-133190032D01*
X93014968Y-133539644D01*
X93426069Y-133814333D01*
X93882860Y-134003542D01*
X94367787Y-134100000D01*
X94862213Y-134100000D01*
X95347140Y-134003542D01*
X95803931Y-133814333D01*
X96215032Y-133539644D01*
X96564644Y-133190032D01*
X96839333Y-132778931D01*
X97028542Y-132322140D01*
X97125000Y-131837213D01*
X97125000Y-131342787D01*
X97028542Y-130857860D01*
X96839333Y-130401069D01*
X96564644Y-129989968D01*
X96215032Y-129640356D01*
X96000000Y-129496676D01*
X96000000Y-129258685D01*
X96458686Y-128800000D01*
X97858037Y-128800000D01*
X98061507Y-128779960D01*
X98322581Y-128700764D01*
X98363420Y-128678935D01*
X98425000Y-128685000D01*
X100241928Y-128685000D01*
X100241928Y-128765000D01*
X100254188Y-128889482D01*
X100290498Y-129009180D01*
X100349463Y-129119494D01*
X100428815Y-129216185D01*
X100525506Y-129295537D01*
X100545000Y-129305957D01*
X100545000Y-129370386D01*
X100486613Y-129401595D01*
X100352038Y-129512038D01*
X100330000Y-129538891D01*
X100307962Y-129512038D01*
X100173387Y-129401595D01*
X100019851Y-129319528D01*
X99853255Y-129268992D01*
X99680001Y-129251928D01*
X99154999Y-129251928D01*
X98981745Y-129268992D01*
X98815149Y-129319528D01*
X98661613Y-129401595D01*
X98527038Y-129512038D01*
X98491780Y-129555000D01*
X98323061Y-129555000D01*
X98123102Y-129594774D01*
X97934744Y-129672795D01*
X97765226Y-129786063D01*
X97621063Y-129930226D01*
X97507795Y-130099744D01*
X97429774Y-130288102D01*
X97390000Y-130488061D01*
X97390000Y-130691939D01*
X97429774Y-130891898D01*
X97507795Y-131080256D01*
X97621063Y-131249774D01*
X97765226Y-131393937D01*
X97934744Y-131507205D01*
X98123102Y-131585226D01*
X98323061Y-131625000D01*
X98491780Y-131625000D01*
X98527038Y-131667962D01*
X98661613Y-131778405D01*
X98815149Y-131860472D01*
X98981745Y-131911008D01*
X99154999Y-131928072D01*
X99680001Y-131928072D01*
X99853255Y-131911008D01*
X100019851Y-131860472D01*
X100173387Y-131778405D01*
X100307962Y-131667962D01*
X100330000Y-131641109D01*
X100352038Y-131667962D01*
X100486613Y-131778405D01*
X100640149Y-131860472D01*
X100806745Y-131911008D01*
X100979999Y-131928072D01*
X101505001Y-131928072D01*
X101678255Y-131911008D01*
X101844851Y-131860472D01*
X101998387Y-131778405D01*
X102132962Y-131667962D01*
X102243405Y-131533387D01*
X102325472Y-131379851D01*
X102376008Y-131213255D01*
X102393072Y-131040001D01*
X102393072Y-130139999D01*
X102376008Y-129966745D01*
X102342396Y-129855941D01*
X102413140Y-129893754D01*
X102561113Y-129938642D01*
X102636026Y-129946020D01*
X102667100Y-129949080D01*
X102700498Y-130059180D01*
X102759463Y-130169494D01*
X102838815Y-130266185D01*
X102935506Y-130345537D01*
X103045820Y-130404502D01*
X103165518Y-130440812D01*
X103290000Y-130453072D01*
X104990000Y-130453072D01*
X105114482Y-130440812D01*
X105234180Y-130404502D01*
X105344494Y-130345537D01*
X105441185Y-130266185D01*
X105520537Y-130169494D01*
X105579502Y-130059180D01*
X105615812Y-129939482D01*
X105628072Y-129815000D01*
X105628072Y-128685000D01*
X107950000Y-128685000D01*
X108073882Y-128672799D01*
X108193004Y-128636664D01*
X108302787Y-128577983D01*
X108399013Y-128499013D01*
X109034013Y-127864013D01*
X109070001Y-127820162D01*
X109070001Y-131701288D01*
X109051063Y-131720226D01*
X108937795Y-131889744D01*
X108859774Y-132078102D01*
X108820000Y-132278061D01*
X108820000Y-132345000D01*
X105448556Y-132345000D01*
X105410000Y-132341203D01*
X105371444Y-132345000D01*
X105371439Y-132345000D01*
X105331026Y-132348980D01*
X105256113Y-132356358D01*
X105108140Y-132401246D01*
X104971767Y-132474138D01*
X104852236Y-132572236D01*
X104827655Y-132602188D01*
X99626274Y-137803569D01*
X99594792Y-137765208D01*
X99461164Y-137655542D01*
X99308709Y-137574053D01*
X99143285Y-137523872D01*
X98971250Y-137506928D01*
X98483750Y-137506928D01*
X98311715Y-137523872D01*
X98146291Y-137574053D01*
X97993836Y-137655542D01*
X97860208Y-137765208D01*
X97790000Y-137850756D01*
X97719792Y-137765208D01*
X97586164Y-137655542D01*
X97433709Y-137574053D01*
X97268285Y-137523872D01*
X97096250Y-137506928D01*
X96608750Y-137506928D01*
X96436715Y-137523872D01*
X96271291Y-137574053D01*
X96118836Y-137655542D01*
X95985208Y-137765208D01*
X95875542Y-137898836D01*
X95794053Y-138051291D01*
X95743872Y-138216715D01*
X95726928Y-138388750D01*
X95726928Y-139301250D01*
X95743872Y-139473285D01*
X95794053Y-139638709D01*
X95875542Y-139791164D01*
X95985208Y-139924792D01*
X96067501Y-139992328D01*
X96067501Y-140092342D01*
X95992190Y-140167653D01*
X95962236Y-140192236D01*
X95864138Y-140311768D01*
X95791246Y-140448141D01*
X95746359Y-140596114D01*
X95735000Y-140711440D01*
X95735000Y-140711447D01*
X95731203Y-140750000D01*
X95735000Y-140788553D01*
X95735001Y-142493761D01*
X95682614Y-142521762D01*
X95454208Y-142709208D01*
X95266762Y-142937613D01*
X95127476Y-143198198D01*
X95041705Y-143480949D01*
X95020000Y-143701320D01*
X95020000Y-144148679D01*
X95041705Y-144369050D01*
X95127476Y-144651801D01*
X95266762Y-144912386D01*
X95454208Y-145140792D01*
X95682613Y-145328238D01*
X95943198Y-145467524D01*
X96225949Y-145553295D01*
X96520000Y-145582257D01*
X96814050Y-145553295D01*
X97096801Y-145467524D01*
X97357386Y-145328238D01*
X97585792Y-145140792D01*
X97773238Y-144912387D01*
X97790000Y-144881027D01*
X97806762Y-144912386D01*
X97994208Y-145140792D01*
X98177742Y-145291414D01*
X98139550Y-145329606D01*
X98009866Y-145523692D01*
X97920539Y-145739348D01*
X97875000Y-145968288D01*
X97875000Y-146201712D01*
X97920539Y-146430652D01*
X98009866Y-146646308D01*
X98139550Y-146840394D01*
X98304606Y-147005450D01*
X98498692Y-147135134D01*
X98714348Y-147224461D01*
X98943288Y-147270000D01*
X99176712Y-147270000D01*
X99405652Y-147224461D01*
X99621308Y-147135134D01*
X99815394Y-147005450D01*
X99980450Y-146840394D01*
X100110134Y-146646308D01*
X100199461Y-146430652D01*
X100215001Y-146352527D01*
X100215001Y-146371961D01*
X100208300Y-146440000D01*
X100235040Y-146711507D01*
X100314236Y-146972580D01*
X100442844Y-147213188D01*
X100572548Y-147371233D01*
X100572551Y-147371236D01*
X100615920Y-147424081D01*
X100668764Y-147467449D01*
X101466314Y-148265000D01*
X86412279Y-148265000D01*
X86120340Y-148236375D01*
X85870571Y-148160965D01*
X85640206Y-148038477D01*
X85438021Y-147873579D01*
X85271712Y-147672546D01*
X85147622Y-147443046D01*
X85070469Y-147193805D01*
X85040000Y-146903911D01*
X85040000Y-143547285D01*
X85545000Y-143547285D01*
X85545000Y-144302715D01*
X85692377Y-145043628D01*
X85981467Y-145741554D01*
X86401161Y-146369670D01*
X86935330Y-146903839D01*
X87563446Y-147323533D01*
X88261372Y-147612623D01*
X89002285Y-147760000D01*
X89757715Y-147760000D01*
X90498628Y-147612623D01*
X91196554Y-147323533D01*
X91824670Y-146903839D01*
X92358839Y-146369670D01*
X92778533Y-145741554D01*
X93067623Y-145043628D01*
X93215000Y-144302715D01*
X93215000Y-143547285D01*
X93067623Y-142806372D01*
X92778533Y-142108446D01*
X92358839Y-141480330D01*
X91824670Y-140946161D01*
X91196554Y-140526467D01*
X90498628Y-140237377D01*
X89757715Y-140090000D01*
X89002285Y-140090000D01*
X88261372Y-140237377D01*
X87563446Y-140526467D01*
X86935330Y-140946161D01*
X86401161Y-141480330D01*
X85981467Y-142108446D01*
X85692377Y-142806372D01*
X85545000Y-143547285D01*
X85040000Y-143547285D01*
X85040000Y-136042787D01*
X89105000Y-136042787D01*
X89105000Y-136537213D01*
X89201458Y-137022140D01*
X89390667Y-137478931D01*
X89665356Y-137890032D01*
X90014968Y-138239644D01*
X90426069Y-138514333D01*
X90882860Y-138703542D01*
X91367787Y-138800000D01*
X91862213Y-138800000D01*
X92347140Y-138703542D01*
X92803931Y-138514333D01*
X93215032Y-138239644D01*
X93564644Y-137890032D01*
X93839333Y-137478931D01*
X94028542Y-137022140D01*
X94125000Y-136537213D01*
X94125000Y-136042787D01*
X94028542Y-135557860D01*
X93839333Y-135101069D01*
X93564644Y-134689968D01*
X93215032Y-134340356D01*
X92803931Y-134065667D01*
X92347140Y-133876458D01*
X91862213Y-133780000D01*
X91367787Y-133780000D01*
X90882860Y-133876458D01*
X90426069Y-134065667D01*
X90014968Y-134340356D01*
X89665356Y-134689968D01*
X89390667Y-135101069D01*
X89201458Y-135557860D01*
X89105000Y-136042787D01*
X85040000Y-136042787D01*
X85040000Y-131330475D01*
X85980000Y-131330475D01*
X85980000Y-131849525D01*
X86081261Y-132358601D01*
X86279893Y-132838141D01*
X86568262Y-133269715D01*
X86935285Y-133636738D01*
X87366859Y-133925107D01*
X87846399Y-134123739D01*
X88355475Y-134225000D01*
X88874525Y-134225000D01*
X89383601Y-134123739D01*
X89863141Y-133925107D01*
X90294715Y-133636738D01*
X90661738Y-133269715D01*
X90950107Y-132838141D01*
X91148739Y-132358601D01*
X91250000Y-131849525D01*
X91250000Y-131330475D01*
X91148739Y-130821399D01*
X90950107Y-130341859D01*
X90661738Y-129910285D01*
X90294715Y-129543262D01*
X89863141Y-129254893D01*
X89383601Y-129056261D01*
X88874525Y-128955000D01*
X88355475Y-128955000D01*
X87846399Y-129056261D01*
X87366859Y-129254893D01*
X86935285Y-129543262D01*
X86568262Y-129910285D01*
X86279893Y-130341859D01*
X86081261Y-130821399D01*
X85980000Y-131330475D01*
X85040000Y-131330475D01*
X85040000Y-109589999D01*
X102961928Y-109589999D01*
X102961928Y-110415001D01*
X102978992Y-110588255D01*
X103029528Y-110754851D01*
X103111595Y-110908387D01*
X103222038Y-111042962D01*
X103356613Y-111153405D01*
X103510149Y-111235472D01*
X103676745Y-111286008D01*
X103849999Y-111303072D01*
X105700001Y-111303072D01*
X105873255Y-111286008D01*
X106039851Y-111235472D01*
X106193387Y-111153405D01*
X106327962Y-111042962D01*
X106438405Y-110908387D01*
X106520472Y-110754851D01*
X106571008Y-110588255D01*
X106588072Y-110415001D01*
X106588072Y-109589999D01*
X106571008Y-109416745D01*
X106520472Y-109250149D01*
X106438405Y-109096613D01*
X106327962Y-108962038D01*
X106193387Y-108851595D01*
X106039851Y-108769528D01*
X105873255Y-108718992D01*
X105753532Y-108707200D01*
X105770226Y-108666898D01*
X105810000Y-108466939D01*
X105810000Y-108263061D01*
X105770226Y-108063102D01*
X105692205Y-107874744D01*
X105578937Y-107705226D01*
X105434774Y-107561063D01*
X105265256Y-107447795D01*
X105076898Y-107369774D01*
X104876939Y-107330000D01*
X104673061Y-107330000D01*
X104473102Y-107369774D01*
X104284744Y-107447795D01*
X104115226Y-107561063D01*
X103971063Y-107705226D01*
X103857795Y-107874744D01*
X103779774Y-108063102D01*
X103740000Y-108263061D01*
X103740000Y-108466939D01*
X103779774Y-108666898D01*
X103796468Y-108707200D01*
X103676745Y-108718992D01*
X103510149Y-108769528D01*
X103356613Y-108851595D01*
X103222038Y-108962038D01*
X103111595Y-109096613D01*
X103029528Y-109250149D01*
X102978992Y-109416745D01*
X102961928Y-109589999D01*
X85040000Y-109589999D01*
X85040000Y-108505000D01*
X96686928Y-108505000D01*
X96699188Y-108629482D01*
X96735498Y-108749180D01*
X96794463Y-108859494D01*
X96873815Y-108956185D01*
X96970506Y-109035537D01*
X97080820Y-109094502D01*
X97200518Y-109130812D01*
X97325000Y-109143072D01*
X98139250Y-109140000D01*
X98298000Y-108981250D01*
X98298000Y-107882000D01*
X98552000Y-107882000D01*
X98552000Y-108981250D01*
X98710750Y-109140000D01*
X99525000Y-109143072D01*
X99649482Y-109130812D01*
X99769180Y-109094502D01*
X99879494Y-109035537D01*
X99976185Y-108956185D01*
X100055537Y-108859494D01*
X100114502Y-108749180D01*
X100150812Y-108629482D01*
X100163072Y-108505000D01*
X100160000Y-108040750D01*
X100001250Y-107882000D01*
X98552000Y-107882000D01*
X98298000Y-107882000D01*
X96848750Y-107882000D01*
X96690000Y-108040750D01*
X96686928Y-108505000D01*
X85040000Y-108505000D01*
X85040000Y-103547285D01*
X85545000Y-103547285D01*
X85545000Y-104302715D01*
X85692377Y-105043628D01*
X85981467Y-105741554D01*
X86401161Y-106369670D01*
X86935330Y-106903839D01*
X87563446Y-107323533D01*
X88261372Y-107612623D01*
X89002285Y-107760000D01*
X89757715Y-107760000D01*
X90498628Y-107612623D01*
X91196554Y-107323533D01*
X91673271Y-107005000D01*
X96686928Y-107005000D01*
X96690000Y-107469250D01*
X96848750Y-107628000D01*
X98298000Y-107628000D01*
X98298000Y-106528750D01*
X98552000Y-106528750D01*
X98552000Y-107628000D01*
X100001250Y-107628000D01*
X100160000Y-107469250D01*
X100163072Y-107005000D01*
X100150812Y-106880518D01*
X100114502Y-106760820D01*
X100055537Y-106650506D01*
X99976185Y-106553815D01*
X99879494Y-106474463D01*
X99769180Y-106415498D01*
X99649482Y-106379188D01*
X99525000Y-106366928D01*
X98710750Y-106370000D01*
X98552000Y-106528750D01*
X98298000Y-106528750D01*
X98139250Y-106370000D01*
X97325000Y-106366928D01*
X97200518Y-106379188D01*
X97080820Y-106415498D01*
X96970506Y-106474463D01*
X96873815Y-106553815D01*
X96794463Y-106650506D01*
X96735498Y-106760820D01*
X96699188Y-106880518D01*
X96686928Y-107005000D01*
X91673271Y-107005000D01*
X91824670Y-106903839D01*
X92358839Y-106369670D01*
X92778533Y-105741554D01*
X93067623Y-105043628D01*
X93215000Y-104302715D01*
X93215000Y-103547285D01*
X93067623Y-102806372D01*
X92790940Y-102138397D01*
X96941208Y-102138397D01*
X97018843Y-102387472D01*
X97282883Y-102513371D01*
X97566411Y-102585339D01*
X97858531Y-102600611D01*
X98148019Y-102558599D01*
X98423747Y-102460919D01*
X98561157Y-102387472D01*
X98638792Y-102138397D01*
X97790000Y-101289605D01*
X96941208Y-102138397D01*
X92790940Y-102138397D01*
X92778533Y-102108446D01*
X92358839Y-101480330D01*
X92057040Y-101178531D01*
X96299389Y-101178531D01*
X96341401Y-101468019D01*
X96439081Y-101743747D01*
X96512528Y-101881157D01*
X96761603Y-101958792D01*
X97610395Y-101110000D01*
X97969605Y-101110000D01*
X98818397Y-101958792D01*
X99060689Y-101883271D01*
X99176525Y-102056632D01*
X99383368Y-102263475D01*
X99626589Y-102425990D01*
X99896842Y-102537932D01*
X100183740Y-102595000D01*
X100476260Y-102595000D01*
X100763158Y-102537932D01*
X101033411Y-102425990D01*
X101276632Y-102263475D01*
X101483475Y-102056632D01*
X101600000Y-101882240D01*
X101716525Y-102056632D01*
X101923368Y-102263475D01*
X102166589Y-102425990D01*
X102436842Y-102537932D01*
X102723740Y-102595000D01*
X103016260Y-102595000D01*
X103303158Y-102537932D01*
X103573411Y-102425990D01*
X103816632Y-102263475D01*
X103948487Y-102131620D01*
X103970498Y-102204180D01*
X104029463Y-102314494D01*
X104108815Y-102411185D01*
X104205506Y-102490537D01*
X104315820Y-102549502D01*
X104435518Y-102585812D01*
X104560000Y-102598072D01*
X106260000Y-102598072D01*
X106384482Y-102585812D01*
X106504180Y-102549502D01*
X106614494Y-102490537D01*
X106711185Y-102411185D01*
X106790537Y-102314494D01*
X106849502Y-102204180D01*
X106873966Y-102123534D01*
X106949731Y-102207588D01*
X107183080Y-102381641D01*
X107445901Y-102506825D01*
X107593110Y-102551476D01*
X107823000Y-102430155D01*
X107823000Y-101237000D01*
X107803000Y-101237000D01*
X107803000Y-100983000D01*
X107823000Y-100983000D01*
X107823000Y-99789845D01*
X108077000Y-99789845D01*
X108077000Y-100983000D01*
X108097000Y-100983000D01*
X108097000Y-101237000D01*
X108077000Y-101237000D01*
X108077000Y-102430155D01*
X108306890Y-102551476D01*
X108454099Y-102506825D01*
X108716920Y-102381641D01*
X108950269Y-102207588D01*
X109026034Y-102123534D01*
X109050498Y-102204180D01*
X109109463Y-102314494D01*
X109188815Y-102411185D01*
X109285506Y-102490537D01*
X109395820Y-102549502D01*
X109515518Y-102585812D01*
X109640000Y-102598072D01*
X111340000Y-102598072D01*
X111464482Y-102585812D01*
X111584180Y-102549502D01*
X111694494Y-102490537D01*
X111791185Y-102411185D01*
X111870537Y-102314494D01*
X111929502Y-102204180D01*
X111951513Y-102131620D01*
X112083368Y-102263475D01*
X112326589Y-102425990D01*
X112596842Y-102537932D01*
X112883740Y-102595000D01*
X113176260Y-102595000D01*
X113463158Y-102537932D01*
X113733411Y-102425990D01*
X113976632Y-102263475D01*
X114183475Y-102056632D01*
X114300000Y-101882240D01*
X114416525Y-102056632D01*
X114623368Y-102263475D01*
X114866589Y-102425990D01*
X115136842Y-102537932D01*
X115423740Y-102595000D01*
X115716260Y-102595000D01*
X116003158Y-102537932D01*
X116273411Y-102425990D01*
X116516632Y-102263475D01*
X116723475Y-102056632D01*
X116840000Y-101882240D01*
X116956525Y-102056632D01*
X117163368Y-102263475D01*
X117406589Y-102425990D01*
X117676842Y-102537932D01*
X117963740Y-102595000D01*
X118256260Y-102595000D01*
X118543158Y-102537932D01*
X118813411Y-102425990D01*
X119056632Y-102263475D01*
X119263475Y-102056632D01*
X119380000Y-101882240D01*
X119496525Y-102056632D01*
X119703368Y-102263475D01*
X119946589Y-102425990D01*
X120216842Y-102537932D01*
X120503740Y-102595000D01*
X120796260Y-102595000D01*
X121083158Y-102537932D01*
X121353411Y-102425990D01*
X121596632Y-102263475D01*
X121803475Y-102056632D01*
X121965990Y-101813411D01*
X122077932Y-101543158D01*
X122135000Y-101256260D01*
X122135000Y-100963740D01*
X122077932Y-100676842D01*
X121965990Y-100406589D01*
X121803475Y-100163368D01*
X121596632Y-99956525D01*
X121353411Y-99794010D01*
X121083158Y-99682068D01*
X120796260Y-99625000D01*
X120503740Y-99625000D01*
X120216842Y-99682068D01*
X119946589Y-99794010D01*
X119703368Y-99956525D01*
X119496525Y-100163368D01*
X119380000Y-100337760D01*
X119263475Y-100163368D01*
X119056632Y-99956525D01*
X118813411Y-99794010D01*
X118543158Y-99682068D01*
X118256260Y-99625000D01*
X117963740Y-99625000D01*
X117676842Y-99682068D01*
X117406589Y-99794010D01*
X117163368Y-99956525D01*
X116956525Y-100163368D01*
X116840000Y-100337760D01*
X116723475Y-100163368D01*
X116516632Y-99956525D01*
X116273411Y-99794010D01*
X116003158Y-99682068D01*
X115716260Y-99625000D01*
X115423740Y-99625000D01*
X115136842Y-99682068D01*
X114866589Y-99794010D01*
X114623368Y-99956525D01*
X114416525Y-100163368D01*
X114300000Y-100337760D01*
X114183475Y-100163368D01*
X113976632Y-99956525D01*
X113733411Y-99794010D01*
X113463158Y-99682068D01*
X113176260Y-99625000D01*
X112883740Y-99625000D01*
X112596842Y-99682068D01*
X112326589Y-99794010D01*
X112083368Y-99956525D01*
X111951513Y-100088380D01*
X111929502Y-100015820D01*
X111870537Y-99905506D01*
X111791185Y-99808815D01*
X111694494Y-99729463D01*
X111584180Y-99670498D01*
X111464482Y-99634188D01*
X111340000Y-99621928D01*
X109640000Y-99621928D01*
X109515518Y-99634188D01*
X109395820Y-99670498D01*
X109285506Y-99729463D01*
X109188815Y-99808815D01*
X109109463Y-99905506D01*
X109050498Y-100015820D01*
X109026034Y-100096466D01*
X108950269Y-100012412D01*
X108716920Y-99838359D01*
X108454099Y-99713175D01*
X108306890Y-99668524D01*
X108077000Y-99789845D01*
X107823000Y-99789845D01*
X107593110Y-99668524D01*
X107445901Y-99713175D01*
X107183080Y-99838359D01*
X106949731Y-100012412D01*
X106873966Y-100096466D01*
X106849502Y-100015820D01*
X106790537Y-99905506D01*
X106711185Y-99808815D01*
X106614494Y-99729463D01*
X106504180Y-99670498D01*
X106384482Y-99634188D01*
X106260000Y-99621928D01*
X104560000Y-99621928D01*
X104435518Y-99634188D01*
X104315820Y-99670498D01*
X104205506Y-99729463D01*
X104108815Y-99808815D01*
X104029463Y-99905506D01*
X103970498Y-100015820D01*
X103948487Y-100088380D01*
X103816632Y-99956525D01*
X103573411Y-99794010D01*
X103303158Y-99682068D01*
X103016260Y-99625000D01*
X102723740Y-99625000D01*
X102436842Y-99682068D01*
X102166589Y-99794010D01*
X101923368Y-99956525D01*
X101716525Y-100163368D01*
X101600000Y-100337760D01*
X101483475Y-100163368D01*
X101276632Y-99956525D01*
X101033411Y-99794010D01*
X100763158Y-99682068D01*
X100476260Y-99625000D01*
X100183740Y-99625000D01*
X99896842Y-99682068D01*
X99626589Y-99794010D01*
X99383368Y-99956525D01*
X99176525Y-100163368D01*
X99060689Y-100336729D01*
X98818397Y-100261208D01*
X97969605Y-101110000D01*
X97610395Y-101110000D01*
X96761603Y-100261208D01*
X96512528Y-100338843D01*
X96386629Y-100602883D01*
X96314661Y-100886411D01*
X96299389Y-101178531D01*
X92057040Y-101178531D01*
X91824670Y-100946161D01*
X91196554Y-100526467D01*
X90498628Y-100237377D01*
X89757715Y-100090000D01*
X89002285Y-100090000D01*
X88261372Y-100237377D01*
X87563446Y-100526467D01*
X86935330Y-100946161D01*
X86401161Y-101480330D01*
X85981467Y-102108446D01*
X85692377Y-102806372D01*
X85545000Y-103547285D01*
X85040000Y-103547285D01*
X85040000Y-100957279D01*
X85068625Y-100665341D01*
X85144035Y-100415571D01*
X85266522Y-100185208D01*
X85351019Y-100081603D01*
X96941208Y-100081603D01*
X97790000Y-100930395D01*
X98638792Y-100081603D01*
X98561157Y-99832528D01*
X98297117Y-99706629D01*
X98013589Y-99634661D01*
X97721469Y-99619389D01*
X97431981Y-99661401D01*
X97156253Y-99759081D01*
X97018843Y-99832528D01*
X96941208Y-100081603D01*
X85351019Y-100081603D01*
X85431422Y-99983020D01*
X85632450Y-99816714D01*
X85861954Y-99692622D01*
X86111195Y-99615469D01*
X86401088Y-99585000D01*
X121847721Y-99585000D01*
X122139659Y-99613625D01*
%TA.AperFunction,Conductor*%
D32*
G36*
X122139659Y-99613625D02*
G01*
X122389429Y-99689035D01*
X122619792Y-99811522D01*
X122821980Y-99976422D01*
X122988286Y-100177450D01*
X123112378Y-100406954D01*
X123189531Y-100656195D01*
X123220001Y-100946098D01*
X123220000Y-103457418D01*
X123222852Y-103486372D01*
X123222765Y-103498781D01*
X123223665Y-103507952D01*
X123264466Y-103896145D01*
X123276487Y-103954708D01*
X123287702Y-104013501D01*
X123290366Y-104022323D01*
X123405790Y-104395198D01*
X123428975Y-104450353D01*
X123451379Y-104505806D01*
X123455706Y-104513943D01*
X123641357Y-104857298D01*
X123674780Y-104906849D01*
X123707562Y-104956946D01*
X123713387Y-104964087D01*
X123962194Y-105264841D01*
X124004629Y-105306981D01*
X124046492Y-105349730D01*
X124053592Y-105355604D01*
X124356077Y-105602305D01*
X124405904Y-105635409D01*
X124455259Y-105669204D01*
X124463365Y-105673587D01*
X124808007Y-105856837D01*
X124863311Y-105879631D01*
X124918295Y-105903198D01*
X124927098Y-105905923D01*
X125300770Y-106018741D01*
X125359458Y-106030361D01*
X125417961Y-106042797D01*
X125427126Y-106043760D01*
X125815595Y-106081850D01*
X125815598Y-106081850D01*
X125847581Y-106085000D01*
X141912419Y-106085000D01*
X141941373Y-106082148D01*
X141953781Y-106082235D01*
X141962952Y-106081335D01*
X142351145Y-106040534D01*
X142409708Y-106028513D01*
X142468501Y-106017298D01*
X142477323Y-106014634D01*
X142850198Y-105899210D01*
X142905353Y-105876025D01*
X142960806Y-105853621D01*
X142968943Y-105849294D01*
X143312298Y-105663643D01*
X143361849Y-105630220D01*
X143411946Y-105597438D01*
X143419087Y-105591613D01*
X143719841Y-105342806D01*
X143761981Y-105300371D01*
X143804730Y-105258508D01*
X143810604Y-105251408D01*
X144057305Y-104948923D01*
X144090409Y-104899096D01*
X144124204Y-104849741D01*
X144128587Y-104841635D01*
X144311837Y-104496993D01*
X144334631Y-104441689D01*
X144358198Y-104386705D01*
X144360923Y-104377902D01*
X144473741Y-104004230D01*
X144485361Y-103945542D01*
X144497797Y-103887039D01*
X144498760Y-103877874D01*
X144531174Y-103547285D01*
X145545000Y-103547285D01*
X145545000Y-104302715D01*
X145692377Y-105043628D01*
X145981467Y-105741554D01*
X146401161Y-106369670D01*
X146935330Y-106903839D01*
X147563446Y-107323533D01*
X148261372Y-107612623D01*
X149002285Y-107760000D01*
X149757715Y-107760000D01*
X150498628Y-107612623D01*
X151196554Y-107323533D01*
X151824670Y-106903839D01*
X152358839Y-106369670D01*
X152778533Y-105741554D01*
X153067623Y-105043628D01*
X153215000Y-104302715D01*
X153215000Y-103547285D01*
X153067623Y-102806372D01*
X152778533Y-102108446D01*
X152358839Y-101480330D01*
X151824670Y-100946161D01*
X151196554Y-100526467D01*
X150498628Y-100237377D01*
X149757715Y-100090000D01*
X149002285Y-100090000D01*
X148261372Y-100237377D01*
X147563446Y-100526467D01*
X146935330Y-100946161D01*
X146401161Y-101480330D01*
X145981467Y-102108446D01*
X145692377Y-102806372D01*
X145545000Y-103547285D01*
X144531174Y-103547285D01*
X144536850Y-103489405D01*
X144536850Y-103489402D01*
X144540000Y-103457419D01*
X144540000Y-100957279D01*
X144568625Y-100665341D01*
X144644035Y-100415571D01*
X144766522Y-100185208D01*
X144931422Y-99983020D01*
X145132450Y-99816714D01*
X145361954Y-99692622D01*
X145611195Y-99615469D01*
X145901088Y-99585000D01*
X152347721Y-99585000D01*
X152639659Y-99613625D01*
X152889429Y-99689035D01*
X153119792Y-99811522D01*
X153321980Y-99976422D01*
X153488286Y-100177450D01*
X153612378Y-100406954D01*
X153689531Y-100656195D01*
X153720001Y-100946098D01*
X153720000Y-146892721D01*
X153691375Y-147184660D01*
X153615965Y-147434429D01*
X153493477Y-147664794D01*
X153328579Y-147866979D01*
X153127546Y-148033288D01*
X152898046Y-148157378D01*
X152648805Y-148234531D01*
X152358911Y-148265000D01*
X139858685Y-148265000D01*
X140631241Y-147492445D01*
X140684080Y-147449081D01*
X140727445Y-147396241D01*
X140727452Y-147396234D01*
X140857156Y-147238189D01*
X140857157Y-147238188D01*
X140985764Y-146997581D01*
X141064960Y-146736507D01*
X141085000Y-146533037D01*
X141085000Y-146533028D01*
X141091700Y-146465001D01*
X141085000Y-146396974D01*
X141085000Y-145505010D01*
X141130820Y-145529502D01*
X141250518Y-145565812D01*
X141375000Y-145578072D01*
X143105000Y-145578072D01*
X143229482Y-145565812D01*
X143349180Y-145529502D01*
X143459494Y-145470537D01*
X143556185Y-145391185D01*
X143635537Y-145294494D01*
X143694502Y-145184180D01*
X143730812Y-145064482D01*
X143743072Y-144940000D01*
X143743072Y-143547285D01*
X145545000Y-143547285D01*
X145545000Y-144302715D01*
X145692377Y-145043628D01*
X145981467Y-145741554D01*
X146401161Y-146369670D01*
X146935330Y-146903839D01*
X147563446Y-147323533D01*
X148261372Y-147612623D01*
X149002285Y-147760000D01*
X149757715Y-147760000D01*
X150498628Y-147612623D01*
X151196554Y-147323533D01*
X151824670Y-146903839D01*
X152358839Y-146369670D01*
X152778533Y-145741554D01*
X153067623Y-145043628D01*
X153215000Y-144302715D01*
X153215000Y-143547285D01*
X153067623Y-142806372D01*
X152778533Y-142108446D01*
X152358839Y-141480330D01*
X151824670Y-140946161D01*
X151196554Y-140526467D01*
X150498628Y-140237377D01*
X149757715Y-140090000D01*
X149002285Y-140090000D01*
X148261372Y-140237377D01*
X147563446Y-140526467D01*
X146935330Y-140946161D01*
X146401161Y-141480330D01*
X145981467Y-142108446D01*
X145692377Y-142806372D01*
X145545000Y-143547285D01*
X143743072Y-143547285D01*
X143743072Y-142910000D01*
X143730812Y-142785518D01*
X143694502Y-142665820D01*
X143635537Y-142555506D01*
X143556185Y-142458815D01*
X143459494Y-142379463D01*
X143349180Y-142320498D01*
X143229482Y-142284188D01*
X143105000Y-142271928D01*
X141375000Y-142271928D01*
X141250518Y-142284188D01*
X141130820Y-142320498D01*
X141020506Y-142379463D01*
X140923815Y-142458815D01*
X140844463Y-142555506D01*
X140785498Y-142665820D01*
X140770570Y-142715030D01*
X140765792Y-142709208D01*
X140537387Y-142521762D01*
X140276802Y-142382476D01*
X139994051Y-142296705D01*
X139700000Y-142267743D01*
X139405950Y-142296705D01*
X139123199Y-142382476D01*
X138862614Y-142521762D01*
X138634208Y-142709208D01*
X138446762Y-142937613D01*
X138430000Y-142968972D01*
X138413238Y-142937613D01*
X138225792Y-142709208D01*
X137997387Y-142521762D01*
X137945000Y-142493760D01*
X137945000Y-142345157D01*
X139592811Y-140697346D01*
X139622764Y-140672764D01*
X139720862Y-140553233D01*
X139793754Y-140416860D01*
X139793754Y-140416859D01*
X139838642Y-140268887D01*
X139847093Y-140183072D01*
X139850000Y-140153561D01*
X139850000Y-140153556D01*
X139853797Y-140115000D01*
X139850000Y-140076444D01*
X139850000Y-130915157D01*
X140025157Y-130740000D01*
X145376447Y-130740000D01*
X145415000Y-130743797D01*
X145453553Y-130740000D01*
X145453561Y-130740000D01*
X145568887Y-130728641D01*
X145716860Y-130683754D01*
X145853233Y-130610862D01*
X145972764Y-130512764D01*
X145997347Y-130482810D01*
X147847812Y-128632345D01*
X147877764Y-128607764D01*
X147975862Y-128488233D01*
X148048754Y-128351860D01*
X148056465Y-128326440D01*
X148093642Y-128203887D01*
X148101191Y-128127236D01*
X148105000Y-128088561D01*
X148105000Y-128088556D01*
X148108797Y-128050000D01*
X148105000Y-128011444D01*
X148105000Y-120079382D01*
X148288102Y-120155226D01*
X148488061Y-120195000D01*
X148691939Y-120195000D01*
X148891898Y-120155226D01*
X149080256Y-120077205D01*
X149249774Y-119963937D01*
X149393937Y-119819774D01*
X149507205Y-119650256D01*
X149585226Y-119461898D01*
X149625000Y-119261939D01*
X149625000Y-119096552D01*
X149669792Y-119059792D01*
X149779458Y-118926164D01*
X149860947Y-118773709D01*
X149911128Y-118608285D01*
X149928072Y-118436250D01*
X149928072Y-117948750D01*
X149911128Y-117776715D01*
X149860947Y-117611291D01*
X149779458Y-117458836D01*
X149669792Y-117325208D01*
X149584244Y-117255000D01*
X149669792Y-117184792D01*
X149779458Y-117051164D01*
X149860947Y-116898709D01*
X149911128Y-116733285D01*
X149928072Y-116561250D01*
X149928072Y-116073750D01*
X149911128Y-115901715D01*
X149860947Y-115736291D01*
X149779458Y-115583836D01*
X149669792Y-115450208D01*
X149547689Y-115350000D01*
X149669792Y-115249792D01*
X149737328Y-115167500D01*
X149837343Y-115167500D01*
X149912653Y-115242810D01*
X149937236Y-115272764D01*
X150056767Y-115370862D01*
X150193140Y-115443754D01*
X150341113Y-115488641D01*
X150456439Y-115500000D01*
X150456446Y-115500000D01*
X150494999Y-115503797D01*
X150533552Y-115500000D01*
X150618526Y-115500000D01*
X150726525Y-115661632D01*
X150933368Y-115868475D01*
X151107760Y-115985000D01*
X150933368Y-116101525D01*
X150726525Y-116308368D01*
X150564010Y-116551589D01*
X150452068Y-116821842D01*
X150395000Y-117108740D01*
X150395000Y-117401260D01*
X150452068Y-117688158D01*
X150564010Y-117958411D01*
X150726525Y-118201632D01*
X150933368Y-118408475D01*
X151107760Y-118525000D01*
X150933368Y-118641525D01*
X150726525Y-118848368D01*
X150564010Y-119091589D01*
X150452068Y-119361842D01*
X150395000Y-119648740D01*
X150395000Y-119941260D01*
X150452068Y-120228158D01*
X150564010Y-120498411D01*
X150726525Y-120741632D01*
X150933368Y-120948475D01*
X151107760Y-121065000D01*
X150933368Y-121181525D01*
X150726525Y-121388368D01*
X150564010Y-121631589D01*
X150452068Y-121901842D01*
X150395000Y-122188740D01*
X150395000Y-122481260D01*
X150452068Y-122768158D01*
X150564010Y-123038411D01*
X150726525Y-123281632D01*
X150858380Y-123413487D01*
X150785820Y-123435498D01*
X150675506Y-123494463D01*
X150578815Y-123573815D01*
X150499463Y-123670506D01*
X150440498Y-123780820D01*
X150404188Y-123900518D01*
X150391928Y-124025000D01*
X150391928Y-125725000D01*
X150404188Y-125849482D01*
X150440498Y-125969180D01*
X150499463Y-126079494D01*
X150578815Y-126176185D01*
X150675506Y-126255537D01*
X150785820Y-126314502D01*
X150905518Y-126350812D01*
X151030000Y-126363072D01*
X152730000Y-126363072D01*
X152854482Y-126350812D01*
X152974180Y-126314502D01*
X153084494Y-126255537D01*
X153181185Y-126176185D01*
X153260537Y-126079494D01*
X153319502Y-125969180D01*
X153355812Y-125849482D01*
X153368072Y-125725000D01*
X153368072Y-124025000D01*
X153355812Y-123900518D01*
X153319502Y-123780820D01*
X153260537Y-123670506D01*
X153181185Y-123573815D01*
X153084494Y-123494463D01*
X152974180Y-123435498D01*
X152901620Y-123413487D01*
X153033475Y-123281632D01*
X153195990Y-123038411D01*
X153307932Y-122768158D01*
X153365000Y-122481260D01*
X153365000Y-122188740D01*
X153307932Y-121901842D01*
X153195990Y-121631589D01*
X153033475Y-121388368D01*
X152826632Y-121181525D01*
X152652240Y-121065000D01*
X152826632Y-120948475D01*
X153033475Y-120741632D01*
X153195990Y-120498411D01*
X153307932Y-120228158D01*
X153365000Y-119941260D01*
X153365000Y-119648740D01*
X153307932Y-119361842D01*
X153195990Y-119091589D01*
X153033475Y-118848368D01*
X152826632Y-118641525D01*
X152652240Y-118525000D01*
X152826632Y-118408475D01*
X153033475Y-118201632D01*
X153195990Y-117958411D01*
X153307932Y-117688158D01*
X153365000Y-117401260D01*
X153365000Y-117108740D01*
X153307932Y-116821842D01*
X153195990Y-116551589D01*
X153033475Y-116308368D01*
X152826632Y-116101525D01*
X152652240Y-115985000D01*
X152826632Y-115868475D01*
X153033475Y-115661632D01*
X153195990Y-115418411D01*
X153307932Y-115148158D01*
X153365000Y-114861260D01*
X153365000Y-114568740D01*
X153307932Y-114281842D01*
X153195990Y-114011589D01*
X153033475Y-113768368D01*
X152826632Y-113561525D01*
X152644466Y-113439805D01*
X152761355Y-113370178D01*
X152977588Y-113175269D01*
X153151641Y-112941920D01*
X153276825Y-112679099D01*
X153321476Y-112531890D01*
X153200155Y-112302000D01*
X152007000Y-112302000D01*
X152007000Y-112322000D01*
X151753000Y-112322000D01*
X151753000Y-112302000D01*
X150559845Y-112302000D01*
X150438524Y-112531890D01*
X150483175Y-112679099D01*
X150608359Y-112941920D01*
X150782412Y-113175269D01*
X150998645Y-113370178D01*
X151115534Y-113439805D01*
X150933368Y-113561525D01*
X150726525Y-113768368D01*
X150699983Y-113808091D01*
X150600733Y-113726638D01*
X150464360Y-113653746D01*
X150316387Y-113608859D01*
X150201061Y-113597500D01*
X150201053Y-113597500D01*
X150162500Y-113593703D01*
X150123947Y-113597500D01*
X149737328Y-113597500D01*
X149669792Y-113515208D01*
X149663436Y-113509992D01*
X149741185Y-113446185D01*
X149820537Y-113349494D01*
X149879502Y-113239180D01*
X149915812Y-113119482D01*
X149928072Y-112995000D01*
X149925000Y-112793250D01*
X149766250Y-112634500D01*
X148717000Y-112634500D01*
X148717000Y-112654500D01*
X148463000Y-112654500D01*
X148463000Y-112634500D01*
X147413750Y-112634500D01*
X147255000Y-112793250D01*
X147251928Y-112995000D01*
X147264188Y-113119482D01*
X147300498Y-113239180D01*
X147359463Y-113349494D01*
X147438815Y-113446185D01*
X147516564Y-113509992D01*
X147510208Y-113515208D01*
X147400542Y-113648836D01*
X147319053Y-113801291D01*
X147268872Y-113966715D01*
X147251928Y-114138750D01*
X147251928Y-114626250D01*
X147268872Y-114798285D01*
X147319053Y-114963709D01*
X147400542Y-115116164D01*
X147510208Y-115249792D01*
X147632311Y-115350000D01*
X147510208Y-115450208D01*
X147400542Y-115583836D01*
X147398261Y-115588104D01*
X145430375Y-113620218D01*
X145439774Y-113613937D01*
X145583937Y-113469774D01*
X145697205Y-113300256D01*
X145775226Y-113111898D01*
X145815000Y-112911939D01*
X145815000Y-112708061D01*
X145775226Y-112508102D01*
X145697205Y-112319744D01*
X145600490Y-112175000D01*
X145697205Y-112030256D01*
X145701453Y-112020000D01*
X147251928Y-112020000D01*
X147255000Y-112221750D01*
X147413750Y-112380500D01*
X148463000Y-112380500D01*
X148463000Y-111543750D01*
X148717000Y-111543750D01*
X148717000Y-112380500D01*
X149766250Y-112380500D01*
X149925000Y-112221750D01*
X149928072Y-112020000D01*
X149915812Y-111895518D01*
X149892331Y-111818110D01*
X150438524Y-111818110D01*
X150559845Y-112048000D01*
X151753000Y-112048000D01*
X151753000Y-110854186D01*
X152007000Y-110854186D01*
X152007000Y-112048000D01*
X153200155Y-112048000D01*
X153321476Y-111818110D01*
X153276825Y-111670901D01*
X153151641Y-111408080D01*
X152977588Y-111174731D01*
X152761355Y-110979822D01*
X152511252Y-110830843D01*
X152236891Y-110733519D01*
X152007000Y-110854186D01*
X151753000Y-110854186D01*
X151523109Y-110733519D01*
X151248748Y-110830843D01*
X150998645Y-110979822D01*
X150782412Y-111174731D01*
X150608359Y-111408080D01*
X150483175Y-111670901D01*
X150438524Y-111818110D01*
X149892331Y-111818110D01*
X149879502Y-111775820D01*
X149820537Y-111665506D01*
X149741185Y-111568815D01*
X149644494Y-111489463D01*
X149534180Y-111430498D01*
X149414482Y-111394188D01*
X149290000Y-111381928D01*
X148875750Y-111385000D01*
X148717000Y-111543750D01*
X148463000Y-111543750D01*
X148304250Y-111385000D01*
X147890000Y-111381928D01*
X147765518Y-111394188D01*
X147645820Y-111430498D01*
X147535506Y-111489463D01*
X147438815Y-111568815D01*
X147359463Y-111665506D01*
X147300498Y-111775820D01*
X147264188Y-111895518D01*
X147251928Y-112020000D01*
X145701453Y-112020000D01*
X145775226Y-111841898D01*
X145815000Y-111641939D01*
X145815000Y-111438061D01*
X145775226Y-111238102D01*
X145697205Y-111049744D01*
X145583937Y-110880226D01*
X145439774Y-110736063D01*
X145270256Y-110622795D01*
X145081898Y-110544774D01*
X144881939Y-110505000D01*
X144678061Y-110505000D01*
X144478102Y-110544774D01*
X144289744Y-110622795D01*
X144145000Y-110719510D01*
X144145000Y-107095000D01*
X144132799Y-106971118D01*
X144096664Y-106851996D01*
X144037983Y-106742213D01*
X143959013Y-106645987D01*
X143862787Y-106567017D01*
X143753004Y-106508336D01*
X143633882Y-106472201D01*
X143510000Y-106460000D01*
X124460000Y-106460000D01*
X124336118Y-106472201D01*
X124216996Y-106508336D01*
X124107213Y-106567017D01*
X124010987Y-106645987D01*
X124007234Y-106650561D01*
X123900313Y-106593411D01*
X123733490Y-106542805D01*
X123603477Y-106530000D01*
X123603469Y-106530000D01*
X123560000Y-106525719D01*
X123516531Y-106530000D01*
X123014386Y-106530000D01*
X122888386Y-106426595D01*
X122734850Y-106344528D01*
X122568254Y-106293992D01*
X122395000Y-106276928D01*
X121445000Y-106276928D01*
X121271746Y-106293992D01*
X121105150Y-106344528D01*
X120951614Y-106426595D01*
X120817038Y-106537038D01*
X120706595Y-106671614D01*
X120624528Y-106825150D01*
X120573992Y-106991746D01*
X120556928Y-107165000D01*
X120556928Y-107665000D01*
X120573992Y-107838254D01*
X120624528Y-108004850D01*
X120706595Y-108158386D01*
X120817038Y-108292962D01*
X120823594Y-108298342D01*
X120743815Y-108363815D01*
X120664463Y-108460506D01*
X120605498Y-108570820D01*
X120569188Y-108690518D01*
X120556928Y-108815000D01*
X120560000Y-109029250D01*
X120718750Y-109188000D01*
X121793000Y-109188000D01*
X121793000Y-109168000D01*
X122047000Y-109168000D01*
X122047000Y-109188000D01*
X123121250Y-109188000D01*
X123280000Y-109029250D01*
X123283072Y-108815000D01*
X123270812Y-108690518D01*
X123234502Y-108570820D01*
X123175537Y-108460506D01*
X123096185Y-108363815D01*
X123018426Y-108300000D01*
X123193422Y-108300000D01*
X123193466Y-108300044D01*
X123221183Y-108333817D01*
X123355941Y-108444411D01*
X123509687Y-108526589D01*
X123637682Y-108565416D01*
X123676509Y-108577195D01*
X123691306Y-108578652D01*
X123806523Y-108590000D01*
X123806531Y-108590000D01*
X123825000Y-108591819D01*
X123825000Y-110730000D01*
X121670467Y-110730000D01*
X121645226Y-110603102D01*
X121581960Y-110450366D01*
X121634250Y-110450000D01*
X121793000Y-110291250D01*
X121793000Y-109442000D01*
X122047000Y-109442000D01*
X122047000Y-110291250D01*
X122205750Y-110450000D01*
X122645000Y-110453072D01*
X122769482Y-110440812D01*
X122889180Y-110404502D01*
X122999494Y-110345537D01*
X123096185Y-110266185D01*
X123175537Y-110169494D01*
X123234502Y-110059180D01*
X123270812Y-109939482D01*
X123283072Y-109815000D01*
X123280000Y-109600750D01*
X123121250Y-109442000D01*
X122047000Y-109442000D01*
X121793000Y-109442000D01*
X120718750Y-109442000D01*
X120560000Y-109600750D01*
X120556928Y-109815000D01*
X120562345Y-109870000D01*
X120548061Y-109870000D01*
X120348102Y-109909774D01*
X120159744Y-109987795D01*
X119990226Y-110101063D01*
X119846063Y-110245226D01*
X119732795Y-110414744D01*
X119654774Y-110603102D01*
X119637932Y-110687774D01*
X119145000Y-110194843D01*
X119145000Y-110168061D01*
X119105226Y-109968102D01*
X119027205Y-109779744D01*
X118913937Y-109610226D01*
X118769774Y-109466063D01*
X118600256Y-109352795D01*
X118411898Y-109274774D01*
X118211939Y-109235000D01*
X118008061Y-109235000D01*
X117808102Y-109274774D01*
X117619744Y-109352795D01*
X117450226Y-109466063D01*
X117306063Y-109610226D01*
X117192795Y-109779744D01*
X117114774Y-109968102D01*
X117075000Y-110168061D01*
X117075000Y-110371939D01*
X117114774Y-110571898D01*
X117192795Y-110760256D01*
X117237864Y-110827706D01*
X114247347Y-107837190D01*
X114222764Y-107807236D01*
X114103233Y-107709138D01*
X113966860Y-107636246D01*
X113818887Y-107591359D01*
X113703561Y-107580000D01*
X113703553Y-107580000D01*
X113665000Y-107576203D01*
X113626447Y-107580000D01*
X111168711Y-107580000D01*
X111149774Y-107561063D01*
X110980256Y-107447795D01*
X110791898Y-107369774D01*
X110591939Y-107330000D01*
X110388061Y-107330000D01*
X110188102Y-107369774D01*
X109999744Y-107447795D01*
X109830226Y-107561063D01*
X109686063Y-107705226D01*
X109572795Y-107874744D01*
X109494774Y-108063102D01*
X109455000Y-108263061D01*
X109455000Y-108466939D01*
X109494229Y-108664160D01*
X109364744Y-108717795D01*
X109195226Y-108831063D01*
X109051063Y-108975226D01*
X108937795Y-109144744D01*
X108859774Y-109333102D01*
X108820000Y-109533061D01*
X108820000Y-109736939D01*
X108859774Y-109936898D01*
X108937795Y-110125256D01*
X109051063Y-110294774D01*
X109195226Y-110438937D01*
X109364744Y-110552205D01*
X109553102Y-110630226D01*
X109753061Y-110670000D01*
X109956939Y-110670000D01*
X110156898Y-110630226D01*
X110345256Y-110552205D01*
X110514774Y-110438937D01*
X110533711Y-110420000D01*
X110799843Y-110420000D01*
X120160297Y-119780454D01*
X120142000Y-119798750D01*
X120142000Y-120635500D01*
X120162000Y-120635500D01*
X120162000Y-120889500D01*
X120142000Y-120889500D01*
X120142000Y-120909500D01*
X119888000Y-120909500D01*
X119888000Y-120889500D01*
X118838750Y-120889500D01*
X118745000Y-120983250D01*
X118651250Y-120889500D01*
X117602000Y-120889500D01*
X117602000Y-120909500D01*
X117348000Y-120909500D01*
X117348000Y-120889500D01*
X116298750Y-120889500D01*
X116205000Y-120983250D01*
X116111250Y-120889500D01*
X115062000Y-120889500D01*
X115062000Y-120909500D01*
X114808000Y-120909500D01*
X114808000Y-120889500D01*
X113758750Y-120889500D01*
X113665000Y-120983250D01*
X113571250Y-120889500D01*
X112522000Y-120889500D01*
X112522000Y-120909500D01*
X112268000Y-120909500D01*
X112268000Y-120889500D01*
X111218750Y-120889500D01*
X111125000Y-120983250D01*
X111031250Y-120889500D01*
X109982000Y-120889500D01*
X109982000Y-120909500D01*
X109728000Y-120909500D01*
X109728000Y-120889500D01*
X108678750Y-120889500D01*
X108520000Y-121048250D01*
X108516928Y-121250000D01*
X108529188Y-121374482D01*
X108565498Y-121494180D01*
X108624463Y-121604494D01*
X108703815Y-121701185D01*
X108781564Y-121764992D01*
X108775208Y-121770208D01*
X108665542Y-121903836D01*
X108584053Y-122056291D01*
X108533872Y-122221715D01*
X108516928Y-122393750D01*
X108516928Y-122881250D01*
X108533872Y-123053285D01*
X108584053Y-123218709D01*
X108665542Y-123371164D01*
X108775208Y-123504792D01*
X108908836Y-123614458D01*
X109061291Y-123695947D01*
X109070000Y-123698589D01*
X109070000Y-125104838D01*
X109034013Y-125060987D01*
X108399013Y-124425987D01*
X108302787Y-124347017D01*
X108193004Y-124288336D01*
X108073882Y-124252201D01*
X107950000Y-124240000D01*
X106943026Y-124240000D01*
X106094929Y-123391903D01*
X106195149Y-123445472D01*
X106361745Y-123496008D01*
X106534999Y-123513072D01*
X107360001Y-123513072D01*
X107533255Y-123496008D01*
X107699851Y-123445472D01*
X107853387Y-123363405D01*
X107987962Y-123252962D01*
X108098405Y-123118387D01*
X108180472Y-122964851D01*
X108231008Y-122798255D01*
X108248072Y-122625001D01*
X108248072Y-120774999D01*
X108231008Y-120601745D01*
X108180472Y-120435149D01*
X108098405Y-120281613D01*
X108092978Y-120275000D01*
X108516928Y-120275000D01*
X108520000Y-120476750D01*
X108678750Y-120635500D01*
X109728000Y-120635500D01*
X109728000Y-119798750D01*
X109982000Y-119798750D01*
X109982000Y-120635500D01*
X111031250Y-120635500D01*
X111125000Y-120541750D01*
X111218750Y-120635500D01*
X112268000Y-120635500D01*
X112268000Y-119798750D01*
X112522000Y-119798750D01*
X112522000Y-120635500D01*
X113571250Y-120635500D01*
X113665000Y-120541750D01*
X113758750Y-120635500D01*
X114808000Y-120635500D01*
X114808000Y-119798750D01*
X115062000Y-119798750D01*
X115062000Y-120635500D01*
X116111250Y-120635500D01*
X116205000Y-120541750D01*
X116298750Y-120635500D01*
X117348000Y-120635500D01*
X117348000Y-119798750D01*
X117602000Y-119798750D01*
X117602000Y-120635500D01*
X118651250Y-120635500D01*
X118745000Y-120541750D01*
X118838750Y-120635500D01*
X119888000Y-120635500D01*
X119888000Y-119798750D01*
X119729250Y-119640000D01*
X119315000Y-119636928D01*
X119190518Y-119649188D01*
X119070820Y-119685498D01*
X118960506Y-119744463D01*
X118863815Y-119823815D01*
X118784463Y-119920506D01*
X118745000Y-119994335D01*
X118705537Y-119920506D01*
X118626185Y-119823815D01*
X118529494Y-119744463D01*
X118419180Y-119685498D01*
X118299482Y-119649188D01*
X118175000Y-119636928D01*
X117760750Y-119640000D01*
X117602000Y-119798750D01*
X117348000Y-119798750D01*
X117189250Y-119640000D01*
X116775000Y-119636928D01*
X116650518Y-119649188D01*
X116530820Y-119685498D01*
X116420506Y-119744463D01*
X116323815Y-119823815D01*
X116244463Y-119920506D01*
X116205000Y-119994335D01*
X116165537Y-119920506D01*
X116086185Y-119823815D01*
X115989494Y-119744463D01*
X115879180Y-119685498D01*
X115759482Y-119649188D01*
X115635000Y-119636928D01*
X115220750Y-119640000D01*
X115062000Y-119798750D01*
X114808000Y-119798750D01*
X114649250Y-119640000D01*
X114235000Y-119636928D01*
X114110518Y-119649188D01*
X113990820Y-119685498D01*
X113880506Y-119744463D01*
X113783815Y-119823815D01*
X113704463Y-119920506D01*
X113665000Y-119994335D01*
X113625537Y-119920506D01*
X113546185Y-119823815D01*
X113449494Y-119744463D01*
X113339180Y-119685498D01*
X113219482Y-119649188D01*
X113095000Y-119636928D01*
X112680750Y-119640000D01*
X112522000Y-119798750D01*
X112268000Y-119798750D01*
X112109250Y-119640000D01*
X111695000Y-119636928D01*
X111570518Y-119649188D01*
X111450820Y-119685498D01*
X111340506Y-119744463D01*
X111243815Y-119823815D01*
X111164463Y-119920506D01*
X111125000Y-119994335D01*
X111085537Y-119920506D01*
X111006185Y-119823815D01*
X110909494Y-119744463D01*
X110799180Y-119685498D01*
X110679482Y-119649188D01*
X110555000Y-119636928D01*
X110140750Y-119640000D01*
X109982000Y-119798750D01*
X109728000Y-119798750D01*
X109569250Y-119640000D01*
X109155000Y-119636928D01*
X109030518Y-119649188D01*
X108910820Y-119685498D01*
X108800506Y-119744463D01*
X108703815Y-119823815D01*
X108624463Y-119920506D01*
X108565498Y-120030820D01*
X108529188Y-120150518D01*
X108516928Y-120275000D01*
X108092978Y-120275000D01*
X107987962Y-120147038D01*
X107853387Y-120036595D01*
X107732500Y-119971979D01*
X107732500Y-118837342D01*
X107805256Y-118807205D01*
X107974774Y-118693937D01*
X108118937Y-118549774D01*
X108232205Y-118380256D01*
X108310226Y-118191898D01*
X108350000Y-117991939D01*
X108350000Y-117788061D01*
X108310226Y-117588102D01*
X108232205Y-117399744D01*
X108118937Y-117230226D01*
X107974774Y-117086063D01*
X107805256Y-116972795D01*
X107616898Y-116894774D01*
X107416939Y-116855000D01*
X107213061Y-116855000D01*
X107013102Y-116894774D01*
X106824744Y-116972795D01*
X106736465Y-117031781D01*
X106689458Y-116943836D01*
X106579792Y-116810208D01*
X106446164Y-116700542D01*
X106408595Y-116680461D01*
X106441254Y-116619360D01*
X106454972Y-116574139D01*
X106471899Y-116518337D01*
X106579792Y-116429792D01*
X106689458Y-116296164D01*
X106770947Y-116143709D01*
X106821128Y-115978285D01*
X106838072Y-115806250D01*
X106838072Y-114893750D01*
X106821128Y-114721715D01*
X106770947Y-114556291D01*
X106689458Y-114403836D01*
X106579792Y-114270208D01*
X106446164Y-114160542D01*
X106432380Y-114153174D01*
X106480537Y-114094494D01*
X106539502Y-113984180D01*
X106575812Y-113864482D01*
X106588072Y-113740000D01*
X106585000Y-113363250D01*
X106426250Y-113204500D01*
X104902000Y-113204500D01*
X104902000Y-113224500D01*
X104648000Y-113224500D01*
X104648000Y-113204500D01*
X103123750Y-113204500D01*
X102965000Y-113363250D01*
X102961928Y-113740000D01*
X102974188Y-113864482D01*
X103010498Y-113984180D01*
X103063409Y-114083168D01*
X102995506Y-114119463D01*
X102898815Y-114198815D01*
X102870000Y-114233926D01*
X102870000Y-112415000D01*
X102961928Y-112415000D01*
X102965000Y-112791750D01*
X103123750Y-112950500D01*
X104648000Y-112950500D01*
X104648000Y-111938750D01*
X104902000Y-111938750D01*
X104902000Y-112950500D01*
X106426250Y-112950500D01*
X106585000Y-112791750D01*
X106588072Y-112415000D01*
X106575812Y-112290518D01*
X106539502Y-112170820D01*
X106480537Y-112060506D01*
X106401185Y-111963815D01*
X106304494Y-111884463D01*
X106194180Y-111825498D01*
X106074482Y-111789188D01*
X105950000Y-111776928D01*
X105060750Y-111780000D01*
X104902000Y-111938750D01*
X104648000Y-111938750D01*
X104489250Y-111780000D01*
X103600000Y-111776928D01*
X103475518Y-111789188D01*
X103355820Y-111825498D01*
X103245506Y-111884463D01*
X103148815Y-111963815D01*
X103069463Y-112060506D01*
X103010498Y-112170820D01*
X102974188Y-112290518D01*
X102961928Y-112415000D01*
X102870000Y-112415000D01*
X102870000Y-111413000D01*
X102857799Y-111289118D01*
X102821664Y-111169996D01*
X102762983Y-111060213D01*
X102684013Y-110963987D01*
X102587787Y-110885017D01*
X102478004Y-110826336D01*
X102358882Y-110790201D01*
X102235000Y-110778000D01*
X90805000Y-110778000D01*
X90681118Y-110790201D01*
X90561996Y-110826336D01*
X90452213Y-110885017D01*
X90355987Y-110963987D01*
X90277017Y-111060213D01*
X90218336Y-111169996D01*
X90182201Y-111289118D01*
X90170000Y-111413000D01*
X90170000Y-115223000D01*
X90182201Y-115346882D01*
X90218336Y-115466004D01*
X90277017Y-115575787D01*
X90300171Y-115604000D01*
X90277017Y-115632213D01*
X90218336Y-115741996D01*
X90182201Y-115861118D01*
X90170000Y-115985000D01*
X90170000Y-119795000D01*
X90182201Y-119918882D01*
X90218336Y-120038004D01*
X90277017Y-120147787D01*
X90355987Y-120244013D01*
X94800987Y-124689013D01*
X94897213Y-124767983D01*
X95006996Y-124826664D01*
X95126118Y-124862799D01*
X95250000Y-124875000D01*
X97790000Y-124875000D01*
X97790000Y-126030000D01*
X95953026Y-126030000D01*
X95884999Y-126023300D01*
X95816972Y-126030000D01*
X95816963Y-126030000D01*
X95613493Y-126050040D01*
X95352419Y-126129236D01*
X95111812Y-126257843D01*
X95111810Y-126257844D01*
X95111811Y-126257844D01*
X94953766Y-126387548D01*
X94953764Y-126387550D01*
X94900919Y-126430919D01*
X94857550Y-126483764D01*
X93683764Y-127657551D01*
X93630920Y-127700919D01*
X93587551Y-127753764D01*
X93587548Y-127753767D01*
X93457844Y-127911812D01*
X93329236Y-128152420D01*
X93250040Y-128413493D01*
X93223300Y-128685000D01*
X93230001Y-128753039D01*
X93230001Y-129496676D01*
X93014968Y-129640356D01*
X92665356Y-129989968D01*
X92390667Y-130401069D01*
X92201458Y-130857860D01*
X92105000Y-131342787D01*
X92105000Y-131837213D01*
X92201458Y-132322140D01*
X92390667Y-132778931D01*
X92665356Y-133190032D01*
X93014968Y-133539644D01*
X93426069Y-133814333D01*
X93882860Y-134003542D01*
X94367787Y-134100000D01*
X94862213Y-134100000D01*
X95347140Y-134003542D01*
X95803931Y-133814333D01*
X96215032Y-133539644D01*
X96564644Y-133190032D01*
X96839333Y-132778931D01*
X97028542Y-132322140D01*
X97125000Y-131837213D01*
X97125000Y-131342787D01*
X97028542Y-130857860D01*
X96839333Y-130401069D01*
X96564644Y-129989968D01*
X96215032Y-129640356D01*
X96000000Y-129496676D01*
X96000000Y-129258685D01*
X96458686Y-128800000D01*
X97858037Y-128800000D01*
X98061507Y-128779960D01*
X98322581Y-128700764D01*
X98363420Y-128678935D01*
X98425000Y-128685000D01*
X100241928Y-128685000D01*
X100241928Y-128765000D01*
X100254188Y-128889482D01*
X100290498Y-129009180D01*
X100349463Y-129119494D01*
X100428815Y-129216185D01*
X100525506Y-129295537D01*
X100545000Y-129305957D01*
X100545000Y-129370386D01*
X100486613Y-129401595D01*
X100352038Y-129512038D01*
X100330000Y-129538891D01*
X100307962Y-129512038D01*
X100173387Y-129401595D01*
X100019851Y-129319528D01*
X99853255Y-129268992D01*
X99680001Y-129251928D01*
X99154999Y-129251928D01*
X98981745Y-129268992D01*
X98815149Y-129319528D01*
X98661613Y-129401595D01*
X98527038Y-129512038D01*
X98491780Y-129555000D01*
X98323061Y-129555000D01*
X98123102Y-129594774D01*
X97934744Y-129672795D01*
X97765226Y-129786063D01*
X97621063Y-129930226D01*
X97507795Y-130099744D01*
X97429774Y-130288102D01*
X97390000Y-130488061D01*
X97390000Y-130691939D01*
X97429774Y-130891898D01*
X97507795Y-131080256D01*
X97621063Y-131249774D01*
X97765226Y-131393937D01*
X97934744Y-131507205D01*
X98123102Y-131585226D01*
X98323061Y-131625000D01*
X98491780Y-131625000D01*
X98527038Y-131667962D01*
X98661613Y-131778405D01*
X98815149Y-131860472D01*
X98981745Y-131911008D01*
X99154999Y-131928072D01*
X99680001Y-131928072D01*
X99853255Y-131911008D01*
X100019851Y-131860472D01*
X100173387Y-131778405D01*
X100307962Y-131667962D01*
X100330000Y-131641109D01*
X100352038Y-131667962D01*
X100486613Y-131778405D01*
X100640149Y-131860472D01*
X100806745Y-131911008D01*
X100979999Y-131928072D01*
X101505001Y-131928072D01*
X101678255Y-131911008D01*
X101844851Y-131860472D01*
X101998387Y-131778405D01*
X102132962Y-131667962D01*
X102243405Y-131533387D01*
X102325472Y-131379851D01*
X102376008Y-131213255D01*
X102393072Y-131040001D01*
X102393072Y-130139999D01*
X102376008Y-129966745D01*
X102342396Y-129855941D01*
X102413140Y-129893754D01*
X102561113Y-129938642D01*
X102636026Y-129946020D01*
X102667100Y-129949080D01*
X102700498Y-130059180D01*
X102759463Y-130169494D01*
X102838815Y-130266185D01*
X102935506Y-130345537D01*
X103045820Y-130404502D01*
X103165518Y-130440812D01*
X103290000Y-130453072D01*
X104990000Y-130453072D01*
X105114482Y-130440812D01*
X105234180Y-130404502D01*
X105344494Y-130345537D01*
X105441185Y-130266185D01*
X105520537Y-130169494D01*
X105579502Y-130059180D01*
X105615812Y-129939482D01*
X105628072Y-129815000D01*
X105628072Y-128685000D01*
X107950000Y-128685000D01*
X108073882Y-128672799D01*
X108193004Y-128636664D01*
X108302787Y-128577983D01*
X108399013Y-128499013D01*
X109034013Y-127864013D01*
X109070001Y-127820162D01*
X109070001Y-131701288D01*
X109051063Y-131720226D01*
X108937795Y-131889744D01*
X108859774Y-132078102D01*
X108820000Y-132278061D01*
X108820000Y-132345000D01*
X105448556Y-132345000D01*
X105410000Y-132341203D01*
X105371444Y-132345000D01*
X105371439Y-132345000D01*
X105331026Y-132348980D01*
X105256113Y-132356358D01*
X105108140Y-132401246D01*
X104971767Y-132474138D01*
X104852236Y-132572236D01*
X104827655Y-132602188D01*
X99626274Y-137803569D01*
X99594792Y-137765208D01*
X99461164Y-137655542D01*
X99308709Y-137574053D01*
X99143285Y-137523872D01*
X98971250Y-137506928D01*
X98483750Y-137506928D01*
X98311715Y-137523872D01*
X98146291Y-137574053D01*
X97993836Y-137655542D01*
X97860208Y-137765208D01*
X97790000Y-137850756D01*
X97719792Y-137765208D01*
X97586164Y-137655542D01*
X97433709Y-137574053D01*
X97268285Y-137523872D01*
X97096250Y-137506928D01*
X96608750Y-137506928D01*
X96436715Y-137523872D01*
X96271291Y-137574053D01*
X96118836Y-137655542D01*
X95985208Y-137765208D01*
X95875542Y-137898836D01*
X95794053Y-138051291D01*
X95743872Y-138216715D01*
X95726928Y-138388750D01*
X95726928Y-139301250D01*
X95743872Y-139473285D01*
X95794053Y-139638709D01*
X95875542Y-139791164D01*
X95985208Y-139924792D01*
X96067501Y-139992328D01*
X96067501Y-140092342D01*
X95992190Y-140167653D01*
X95962236Y-140192236D01*
X95864138Y-140311768D01*
X95791246Y-140448141D01*
X95746359Y-140596114D01*
X95735000Y-140711440D01*
X95735000Y-140711447D01*
X95731203Y-140750000D01*
X95735000Y-140788553D01*
X95735001Y-142493761D01*
X95682614Y-142521762D01*
X95454208Y-142709208D01*
X95266762Y-142937613D01*
X95127476Y-143198198D01*
X95041705Y-143480949D01*
X95020000Y-143701320D01*
X95020000Y-144148679D01*
X95041705Y-144369050D01*
X95127476Y-144651801D01*
X95266762Y-144912386D01*
X95454208Y-145140792D01*
X95682613Y-145328238D01*
X95943198Y-145467524D01*
X96225949Y-145553295D01*
X96520000Y-145582257D01*
X96814050Y-145553295D01*
X97096801Y-145467524D01*
X97357386Y-145328238D01*
X97585792Y-145140792D01*
X97773238Y-144912387D01*
X97790000Y-144881027D01*
X97806762Y-144912386D01*
X97994208Y-145140792D01*
X98177742Y-145291414D01*
X98139550Y-145329606D01*
X98009866Y-145523692D01*
X97920539Y-145739348D01*
X97875000Y-145968288D01*
X97875000Y-146201712D01*
X97920539Y-146430652D01*
X98009866Y-146646308D01*
X98139550Y-146840394D01*
X98304606Y-147005450D01*
X98498692Y-147135134D01*
X98714348Y-147224461D01*
X98943288Y-147270000D01*
X99176712Y-147270000D01*
X99405652Y-147224461D01*
X99621308Y-147135134D01*
X99815394Y-147005450D01*
X99980450Y-146840394D01*
X100110134Y-146646308D01*
X100199461Y-146430652D01*
X100215001Y-146352527D01*
X100215001Y-146371961D01*
X100208300Y-146440000D01*
X100235040Y-146711507D01*
X100314236Y-146972580D01*
X100442844Y-147213188D01*
X100572548Y-147371233D01*
X100572551Y-147371236D01*
X100615920Y-147424081D01*
X100668764Y-147467449D01*
X101466314Y-148265000D01*
X86412279Y-148265000D01*
X86120340Y-148236375D01*
X85870571Y-148160965D01*
X85640206Y-148038477D01*
X85438021Y-147873579D01*
X85271712Y-147672546D01*
X85147622Y-147443046D01*
X85070469Y-147193805D01*
X85040000Y-146903911D01*
X85040000Y-143547285D01*
X85545000Y-143547285D01*
X85545000Y-144302715D01*
X85692377Y-145043628D01*
X85981467Y-145741554D01*
X86401161Y-146369670D01*
X86935330Y-146903839D01*
X87563446Y-147323533D01*
X88261372Y-147612623D01*
X89002285Y-147760000D01*
X89757715Y-147760000D01*
X90498628Y-147612623D01*
X91196554Y-147323533D01*
X91824670Y-146903839D01*
X92358839Y-146369670D01*
X92778533Y-145741554D01*
X93067623Y-145043628D01*
X93215000Y-144302715D01*
X93215000Y-143547285D01*
X93067623Y-142806372D01*
X92778533Y-142108446D01*
X92358839Y-141480330D01*
X91824670Y-140946161D01*
X91196554Y-140526467D01*
X90498628Y-140237377D01*
X89757715Y-140090000D01*
X89002285Y-140090000D01*
X88261372Y-140237377D01*
X87563446Y-140526467D01*
X86935330Y-140946161D01*
X86401161Y-141480330D01*
X85981467Y-142108446D01*
X85692377Y-142806372D01*
X85545000Y-143547285D01*
X85040000Y-143547285D01*
X85040000Y-136042787D01*
X89105000Y-136042787D01*
X89105000Y-136537213D01*
X89201458Y-137022140D01*
X89390667Y-137478931D01*
X89665356Y-137890032D01*
X90014968Y-138239644D01*
X90426069Y-138514333D01*
X90882860Y-138703542D01*
X91367787Y-138800000D01*
X91862213Y-138800000D01*
X92347140Y-138703542D01*
X92803931Y-138514333D01*
X93215032Y-138239644D01*
X93564644Y-137890032D01*
X93839333Y-137478931D01*
X94028542Y-137022140D01*
X94125000Y-136537213D01*
X94125000Y-136042787D01*
X94028542Y-135557860D01*
X93839333Y-135101069D01*
X93564644Y-134689968D01*
X93215032Y-134340356D01*
X92803931Y-134065667D01*
X92347140Y-133876458D01*
X91862213Y-133780000D01*
X91367787Y-133780000D01*
X90882860Y-133876458D01*
X90426069Y-134065667D01*
X90014968Y-134340356D01*
X89665356Y-134689968D01*
X89390667Y-135101069D01*
X89201458Y-135557860D01*
X89105000Y-136042787D01*
X85040000Y-136042787D01*
X85040000Y-131330475D01*
X85980000Y-131330475D01*
X85980000Y-131849525D01*
X86081261Y-132358601D01*
X86279893Y-132838141D01*
X86568262Y-133269715D01*
X86935285Y-133636738D01*
X87366859Y-133925107D01*
X87846399Y-134123739D01*
X88355475Y-134225000D01*
X88874525Y-134225000D01*
X89383601Y-134123739D01*
X89863141Y-133925107D01*
X90294715Y-133636738D01*
X90661738Y-133269715D01*
X90950107Y-132838141D01*
X91148739Y-132358601D01*
X91250000Y-131849525D01*
X91250000Y-131330475D01*
X91148739Y-130821399D01*
X90950107Y-130341859D01*
X90661738Y-129910285D01*
X90294715Y-129543262D01*
X89863141Y-129254893D01*
X89383601Y-129056261D01*
X88874525Y-128955000D01*
X88355475Y-128955000D01*
X87846399Y-129056261D01*
X87366859Y-129254893D01*
X86935285Y-129543262D01*
X86568262Y-129910285D01*
X86279893Y-130341859D01*
X86081261Y-130821399D01*
X85980000Y-131330475D01*
X85040000Y-131330475D01*
X85040000Y-109589999D01*
X102961928Y-109589999D01*
X102961928Y-110415001D01*
X102978992Y-110588255D01*
X103029528Y-110754851D01*
X103111595Y-110908387D01*
X103222038Y-111042962D01*
X103356613Y-111153405D01*
X103510149Y-111235472D01*
X103676745Y-111286008D01*
X103849999Y-111303072D01*
X105700001Y-111303072D01*
X105873255Y-111286008D01*
X106039851Y-111235472D01*
X106193387Y-111153405D01*
X106327962Y-111042962D01*
X106438405Y-110908387D01*
X106520472Y-110754851D01*
X106571008Y-110588255D01*
X106588072Y-110415001D01*
X106588072Y-109589999D01*
X106571008Y-109416745D01*
X106520472Y-109250149D01*
X106438405Y-109096613D01*
X106327962Y-108962038D01*
X106193387Y-108851595D01*
X106039851Y-108769528D01*
X105873255Y-108718992D01*
X105753532Y-108707200D01*
X105770226Y-108666898D01*
X105810000Y-108466939D01*
X105810000Y-108263061D01*
X105770226Y-108063102D01*
X105692205Y-107874744D01*
X105578937Y-107705226D01*
X105434774Y-107561063D01*
X105265256Y-107447795D01*
X105076898Y-107369774D01*
X104876939Y-107330000D01*
X104673061Y-107330000D01*
X104473102Y-107369774D01*
X104284744Y-107447795D01*
X104115226Y-107561063D01*
X103971063Y-107705226D01*
X103857795Y-107874744D01*
X103779774Y-108063102D01*
X103740000Y-108263061D01*
X103740000Y-108466939D01*
X103779774Y-108666898D01*
X103796468Y-108707200D01*
X103676745Y-108718992D01*
X103510149Y-108769528D01*
X103356613Y-108851595D01*
X103222038Y-108962038D01*
X103111595Y-109096613D01*
X103029528Y-109250149D01*
X102978992Y-109416745D01*
X102961928Y-109589999D01*
X85040000Y-109589999D01*
X85040000Y-108505000D01*
X96686928Y-108505000D01*
X96699188Y-108629482D01*
X96735498Y-108749180D01*
X96794463Y-108859494D01*
X96873815Y-108956185D01*
X96970506Y-109035537D01*
X97080820Y-109094502D01*
X97200518Y-109130812D01*
X97325000Y-109143072D01*
X98139250Y-109140000D01*
X98298000Y-108981250D01*
X98298000Y-107882000D01*
X98552000Y-107882000D01*
X98552000Y-108981250D01*
X98710750Y-109140000D01*
X99525000Y-109143072D01*
X99649482Y-109130812D01*
X99769180Y-109094502D01*
X99879494Y-109035537D01*
X99976185Y-108956185D01*
X100055537Y-108859494D01*
X100114502Y-108749180D01*
X100150812Y-108629482D01*
X100163072Y-108505000D01*
X100160000Y-108040750D01*
X100001250Y-107882000D01*
X98552000Y-107882000D01*
X98298000Y-107882000D01*
X96848750Y-107882000D01*
X96690000Y-108040750D01*
X96686928Y-108505000D01*
X85040000Y-108505000D01*
X85040000Y-103547285D01*
X85545000Y-103547285D01*
X85545000Y-104302715D01*
X85692377Y-105043628D01*
X85981467Y-105741554D01*
X86401161Y-106369670D01*
X86935330Y-106903839D01*
X87563446Y-107323533D01*
X88261372Y-107612623D01*
X89002285Y-107760000D01*
X89757715Y-107760000D01*
X90498628Y-107612623D01*
X91196554Y-107323533D01*
X91673271Y-107005000D01*
X96686928Y-107005000D01*
X96690000Y-107469250D01*
X96848750Y-107628000D01*
X98298000Y-107628000D01*
X98298000Y-106528750D01*
X98552000Y-106528750D01*
X98552000Y-107628000D01*
X100001250Y-107628000D01*
X100160000Y-107469250D01*
X100163072Y-107005000D01*
X100150812Y-106880518D01*
X100114502Y-106760820D01*
X100055537Y-106650506D01*
X99976185Y-106553815D01*
X99879494Y-106474463D01*
X99769180Y-106415498D01*
X99649482Y-106379188D01*
X99525000Y-106366928D01*
X98710750Y-106370000D01*
X98552000Y-106528750D01*
X98298000Y-106528750D01*
X98139250Y-106370000D01*
X97325000Y-106366928D01*
X97200518Y-106379188D01*
X97080820Y-106415498D01*
X96970506Y-106474463D01*
X96873815Y-106553815D01*
X96794463Y-106650506D01*
X96735498Y-106760820D01*
X96699188Y-106880518D01*
X96686928Y-107005000D01*
X91673271Y-107005000D01*
X91824670Y-106903839D01*
X92358839Y-106369670D01*
X92778533Y-105741554D01*
X93067623Y-105043628D01*
X93215000Y-104302715D01*
X93215000Y-103547285D01*
X93067623Y-102806372D01*
X92790940Y-102138397D01*
X96941208Y-102138397D01*
X97018843Y-102387472D01*
X97282883Y-102513371D01*
X97566411Y-102585339D01*
X97858531Y-102600611D01*
X98148019Y-102558599D01*
X98423747Y-102460919D01*
X98561157Y-102387472D01*
X98638792Y-102138397D01*
X97790000Y-101289605D01*
X96941208Y-102138397D01*
X92790940Y-102138397D01*
X92778533Y-102108446D01*
X92358839Y-101480330D01*
X92057040Y-101178531D01*
X96299389Y-101178531D01*
X96341401Y-101468019D01*
X96439081Y-101743747D01*
X96512528Y-101881157D01*
X96761603Y-101958792D01*
X97610395Y-101110000D01*
X97969605Y-101110000D01*
X98818397Y-101958792D01*
X99060689Y-101883271D01*
X99176525Y-102056632D01*
X99383368Y-102263475D01*
X99626589Y-102425990D01*
X99896842Y-102537932D01*
X100183740Y-102595000D01*
X100476260Y-102595000D01*
X100763158Y-102537932D01*
X101033411Y-102425990D01*
X101276632Y-102263475D01*
X101483475Y-102056632D01*
X101600000Y-101882240D01*
X101716525Y-102056632D01*
X101923368Y-102263475D01*
X102166589Y-102425990D01*
X102436842Y-102537932D01*
X102723740Y-102595000D01*
X103016260Y-102595000D01*
X103303158Y-102537932D01*
X103573411Y-102425990D01*
X103816632Y-102263475D01*
X103948487Y-102131620D01*
X103970498Y-102204180D01*
X104029463Y-102314494D01*
X104108815Y-102411185D01*
X104205506Y-102490537D01*
X104315820Y-102549502D01*
X104435518Y-102585812D01*
X104560000Y-102598072D01*
X106260000Y-102598072D01*
X106384482Y-102585812D01*
X106504180Y-102549502D01*
X106614494Y-102490537D01*
X106711185Y-102411185D01*
X106790537Y-102314494D01*
X106849502Y-102204180D01*
X106873966Y-102123534D01*
X106949731Y-102207588D01*
X107183080Y-102381641D01*
X107445901Y-102506825D01*
X107593110Y-102551476D01*
X107823000Y-102430155D01*
X107823000Y-101237000D01*
X107803000Y-101237000D01*
X107803000Y-100983000D01*
X107823000Y-100983000D01*
X107823000Y-99789845D01*
X108077000Y-99789845D01*
X108077000Y-100983000D01*
X108097000Y-100983000D01*
X108097000Y-101237000D01*
X108077000Y-101237000D01*
X108077000Y-102430155D01*
X108306890Y-102551476D01*
X108454099Y-102506825D01*
X108716920Y-102381641D01*
X108950269Y-102207588D01*
X109026034Y-102123534D01*
X109050498Y-102204180D01*
X109109463Y-102314494D01*
X109188815Y-102411185D01*
X109285506Y-102490537D01*
X109395820Y-102549502D01*
X109515518Y-102585812D01*
X109640000Y-102598072D01*
X111340000Y-102598072D01*
X111464482Y-102585812D01*
X111584180Y-102549502D01*
X111694494Y-102490537D01*
X111791185Y-102411185D01*
X111870537Y-102314494D01*
X111929502Y-102204180D01*
X111951513Y-102131620D01*
X112083368Y-102263475D01*
X112326589Y-102425990D01*
X112596842Y-102537932D01*
X112883740Y-102595000D01*
X113176260Y-102595000D01*
X113463158Y-102537932D01*
X113733411Y-102425990D01*
X113976632Y-102263475D01*
X114183475Y-102056632D01*
X114300000Y-101882240D01*
X114416525Y-102056632D01*
X114623368Y-102263475D01*
X114866589Y-102425990D01*
X115136842Y-102537932D01*
X115423740Y-102595000D01*
X115716260Y-102595000D01*
X116003158Y-102537932D01*
X116273411Y-102425990D01*
X116516632Y-102263475D01*
X116723475Y-102056632D01*
X116840000Y-101882240D01*
X116956525Y-102056632D01*
X117163368Y-102263475D01*
X117406589Y-102425990D01*
X117676842Y-102537932D01*
X117963740Y-102595000D01*
X118256260Y-102595000D01*
X118543158Y-102537932D01*
X118813411Y-102425990D01*
X119056632Y-102263475D01*
X119263475Y-102056632D01*
X119380000Y-101882240D01*
X119496525Y-102056632D01*
X119703368Y-102263475D01*
X119946589Y-102425990D01*
X120216842Y-102537932D01*
X120503740Y-102595000D01*
X120796260Y-102595000D01*
X121083158Y-102537932D01*
X121353411Y-102425990D01*
X121596632Y-102263475D01*
X121803475Y-102056632D01*
X121965990Y-101813411D01*
X122077932Y-101543158D01*
X122135000Y-101256260D01*
X122135000Y-100963740D01*
X122077932Y-100676842D01*
X121965990Y-100406589D01*
X121803475Y-100163368D01*
X121596632Y-99956525D01*
X121353411Y-99794010D01*
X121083158Y-99682068D01*
X120796260Y-99625000D01*
X120503740Y-99625000D01*
X120216842Y-99682068D01*
X119946589Y-99794010D01*
X119703368Y-99956525D01*
X119496525Y-100163368D01*
X119380000Y-100337760D01*
X119263475Y-100163368D01*
X119056632Y-99956525D01*
X118813411Y-99794010D01*
X118543158Y-99682068D01*
X118256260Y-99625000D01*
X117963740Y-99625000D01*
X117676842Y-99682068D01*
X117406589Y-99794010D01*
X117163368Y-99956525D01*
X116956525Y-100163368D01*
X116840000Y-100337760D01*
X116723475Y-100163368D01*
X116516632Y-99956525D01*
X116273411Y-99794010D01*
X116003158Y-99682068D01*
X115716260Y-99625000D01*
X115423740Y-99625000D01*
X115136842Y-99682068D01*
X114866589Y-99794010D01*
X114623368Y-99956525D01*
X114416525Y-100163368D01*
X114300000Y-100337760D01*
X114183475Y-100163368D01*
X113976632Y-99956525D01*
X113733411Y-99794010D01*
X113463158Y-99682068D01*
X113176260Y-99625000D01*
X112883740Y-99625000D01*
X112596842Y-99682068D01*
X112326589Y-99794010D01*
X112083368Y-99956525D01*
X111951513Y-100088380D01*
X111929502Y-100015820D01*
X111870537Y-99905506D01*
X111791185Y-99808815D01*
X111694494Y-99729463D01*
X111584180Y-99670498D01*
X111464482Y-99634188D01*
X111340000Y-99621928D01*
X109640000Y-99621928D01*
X109515518Y-99634188D01*
X109395820Y-99670498D01*
X109285506Y-99729463D01*
X109188815Y-99808815D01*
X109109463Y-99905506D01*
X109050498Y-100015820D01*
X109026034Y-100096466D01*
X108950269Y-100012412D01*
X108716920Y-99838359D01*
X108454099Y-99713175D01*
X108306890Y-99668524D01*
X108077000Y-99789845D01*
X107823000Y-99789845D01*
X107593110Y-99668524D01*
X107445901Y-99713175D01*
X107183080Y-99838359D01*
X106949731Y-100012412D01*
X106873966Y-100096466D01*
X106849502Y-100015820D01*
X106790537Y-99905506D01*
X106711185Y-99808815D01*
X106614494Y-99729463D01*
X106504180Y-99670498D01*
X106384482Y-99634188D01*
X106260000Y-99621928D01*
X104560000Y-99621928D01*
X104435518Y-99634188D01*
X104315820Y-99670498D01*
X104205506Y-99729463D01*
X104108815Y-99808815D01*
X104029463Y-99905506D01*
X103970498Y-100015820D01*
X103948487Y-100088380D01*
X103816632Y-99956525D01*
X103573411Y-99794010D01*
X103303158Y-99682068D01*
X103016260Y-99625000D01*
X102723740Y-99625000D01*
X102436842Y-99682068D01*
X102166589Y-99794010D01*
X101923368Y-99956525D01*
X101716525Y-100163368D01*
X101600000Y-100337760D01*
X101483475Y-100163368D01*
X101276632Y-99956525D01*
X101033411Y-99794010D01*
X100763158Y-99682068D01*
X100476260Y-99625000D01*
X100183740Y-99625000D01*
X99896842Y-99682068D01*
X99626589Y-99794010D01*
X99383368Y-99956525D01*
X99176525Y-100163368D01*
X99060689Y-100336729D01*
X98818397Y-100261208D01*
X97969605Y-101110000D01*
X97610395Y-101110000D01*
X96761603Y-100261208D01*
X96512528Y-100338843D01*
X96386629Y-100602883D01*
X96314661Y-100886411D01*
X96299389Y-101178531D01*
X92057040Y-101178531D01*
X91824670Y-100946161D01*
X91196554Y-100526467D01*
X90498628Y-100237377D01*
X89757715Y-100090000D01*
X89002285Y-100090000D01*
X88261372Y-100237377D01*
X87563446Y-100526467D01*
X86935330Y-100946161D01*
X86401161Y-101480330D01*
X85981467Y-102108446D01*
X85692377Y-102806372D01*
X85545000Y-103547285D01*
X85040000Y-103547285D01*
X85040000Y-100957279D01*
X85068625Y-100665341D01*
X85144035Y-100415571D01*
X85266522Y-100185208D01*
X85351019Y-100081603D01*
X96941208Y-100081603D01*
X97790000Y-100930395D01*
X98638792Y-100081603D01*
X98561157Y-99832528D01*
X98297117Y-99706629D01*
X98013589Y-99634661D01*
X97721469Y-99619389D01*
X97431981Y-99661401D01*
X97156253Y-99759081D01*
X97018843Y-99832528D01*
X96941208Y-100081603D01*
X85351019Y-100081603D01*
X85431422Y-99983020D01*
X85632450Y-99816714D01*
X85861954Y-99692622D01*
X86111195Y-99615469D01*
X86401088Y-99585000D01*
X121847721Y-99585000D01*
X122139659Y-99613625D01*
G37*
%TD.AperFunction*%
D31*
X103964500Y-115223000D02*
X103984500Y-115223000D01*
X103984500Y-115477000D01*
X103964500Y-115477000D01*
X103964500Y-115497000D01*
X103710500Y-115497000D01*
X103710500Y-115477000D01*
X103690500Y-115477000D01*
X103690500Y-115223000D01*
X103710500Y-115223000D01*
X103710500Y-115203000D01*
X103964500Y-115203000D01*
X103964500Y-115223000D01*
%TA.AperFunction,Conductor*%
D32*
G36*
X103964500Y-115223000D02*
G01*
X103984500Y-115223000D01*
X103984500Y-115477000D01*
X103964500Y-115477000D01*
X103964500Y-115497000D01*
X103710500Y-115497000D01*
X103710500Y-115477000D01*
X103690500Y-115477000D01*
X103690500Y-115223000D01*
X103710500Y-115223000D01*
X103710500Y-115203000D01*
X103964500Y-115203000D01*
X103964500Y-115223000D01*
G37*
%TD.AperFunction*%
%TD*%
D31*
%TO.N,/DC/DC Buck/OUTPUT*%
X102108000Y-115589985D02*
X101933102Y-115624774D01*
X101915831Y-115631928D01*
X100375000Y-115631928D01*
X100250518Y-115644188D01*
X100130820Y-115680498D01*
X100020506Y-115739463D01*
X99923815Y-115818815D01*
X99844463Y-115915506D01*
X99785498Y-116025820D01*
X99749188Y-116145518D01*
X99736928Y-116270000D01*
X99736928Y-116970000D01*
X99749188Y-117094482D01*
X99785498Y-117214180D01*
X99807317Y-117255000D01*
X99785498Y-117295820D01*
X99749188Y-117415518D01*
X99736928Y-117540000D01*
X99736928Y-118240000D01*
X99749188Y-118364482D01*
X99785498Y-118484180D01*
X99807147Y-118524681D01*
X99789108Y-118557281D01*
X99751063Y-118676439D01*
X99740000Y-118778250D01*
X99898750Y-118937000D01*
X100777000Y-118937000D01*
X100777000Y-118878072D01*
X101523000Y-118878072D01*
X101523000Y-118937000D01*
X101543000Y-118937000D01*
X101543000Y-119383000D01*
X101523000Y-119383000D01*
X101523000Y-119414000D01*
X100777000Y-119414000D01*
X100777000Y-119383000D01*
X99898750Y-119383000D01*
X99867750Y-119414000D01*
X98929829Y-119414000D01*
X98874013Y-119345987D01*
X98777787Y-119267017D01*
X98668004Y-119208336D01*
X98548882Y-119172201D01*
X98425000Y-119160000D01*
X98190000Y-119160000D01*
X98190000Y-119058061D01*
X98150226Y-118858102D01*
X98072205Y-118669744D01*
X97975490Y-118525000D01*
X98072205Y-118380256D01*
X98150226Y-118191898D01*
X98190000Y-117991939D01*
X98190000Y-117788061D01*
X98150226Y-117588102D01*
X98072205Y-117399744D01*
X97975490Y-117255000D01*
X98072205Y-117110256D01*
X98150226Y-116921898D01*
X98190000Y-116721939D01*
X98190000Y-116518061D01*
X98150226Y-116318102D01*
X98072205Y-116129744D01*
X97958937Y-115960226D01*
X97814774Y-115816063D01*
X97751258Y-115773623D01*
X97741664Y-115741996D01*
X97682983Y-115632213D01*
X97604013Y-115535987D01*
X97507787Y-115457017D01*
X97480129Y-115442233D01*
X97893250Y-115440000D01*
X98052000Y-115281250D01*
X98052000Y-114428000D01*
X98798000Y-114428000D01*
X98798000Y-115281250D01*
X98956750Y-115440000D01*
X99525000Y-115443072D01*
X99649482Y-115430812D01*
X99769180Y-115394502D01*
X99879494Y-115335537D01*
X99976185Y-115256185D01*
X100055537Y-115159494D01*
X100114502Y-115049180D01*
X100150812Y-114929482D01*
X100163072Y-114805000D01*
X100160000Y-114586750D01*
X100001250Y-114428000D01*
X98798000Y-114428000D01*
X98052000Y-114428000D01*
X96848750Y-114428000D01*
X96690000Y-114586750D01*
X96686928Y-114805000D01*
X96699188Y-114929482D01*
X96735498Y-115049180D01*
X96760524Y-115096000D01*
X93612477Y-115096000D01*
X93610000Y-114516750D01*
X93451250Y-114358000D01*
X92448000Y-114358000D01*
X92448000Y-114378000D01*
X91702000Y-114378000D01*
X91702000Y-114358000D01*
X91682000Y-114358000D01*
X91682000Y-113612000D01*
X91702000Y-113612000D01*
X91702000Y-112258750D01*
X92448000Y-112258750D01*
X92448000Y-113612000D01*
X93451250Y-113612000D01*
X93610000Y-113453250D01*
X93610634Y-113305000D01*
X96686928Y-113305000D01*
X96690000Y-113523250D01*
X96848750Y-113682000D01*
X98052000Y-113682000D01*
X98052000Y-112828750D01*
X98798000Y-112828750D01*
X98798000Y-113682000D01*
X100001250Y-113682000D01*
X100160000Y-113523250D01*
X100163072Y-113305000D01*
X100150812Y-113180518D01*
X100114502Y-113060820D01*
X100055537Y-112950506D01*
X99976185Y-112853815D01*
X99879494Y-112774463D01*
X99769180Y-112715498D01*
X99649482Y-112679188D01*
X99525000Y-112666928D01*
X98956750Y-112670000D01*
X98798000Y-112828750D01*
X98052000Y-112828750D01*
X97893250Y-112670000D01*
X97325000Y-112666928D01*
X97200518Y-112679188D01*
X97080820Y-112715498D01*
X96970506Y-112774463D01*
X96873815Y-112853815D01*
X96794463Y-112950506D01*
X96735498Y-113060820D01*
X96699188Y-113180518D01*
X96686928Y-113305000D01*
X93610634Y-113305000D01*
X93613072Y-112735000D01*
X93600812Y-112610518D01*
X93564502Y-112490820D01*
X93505537Y-112380506D01*
X93426185Y-112283815D01*
X93329494Y-112204463D01*
X93219180Y-112145498D01*
X93099482Y-112109188D01*
X92975000Y-112096928D01*
X92606750Y-112100000D01*
X92448000Y-112258750D01*
X91702000Y-112258750D01*
X91543250Y-112100000D01*
X91175000Y-112096928D01*
X91050518Y-112109188D01*
X90932000Y-112145140D01*
X90932000Y-111540000D01*
X102108000Y-111540000D01*
X102108000Y-115589985D01*
%TA.AperFunction,Conductor*%
D32*
G36*
X102108000Y-115589985D02*
G01*
X101933102Y-115624774D01*
X101915831Y-115631928D01*
X100375000Y-115631928D01*
X100250518Y-115644188D01*
X100130820Y-115680498D01*
X100020506Y-115739463D01*
X99923815Y-115818815D01*
X99844463Y-115915506D01*
X99785498Y-116025820D01*
X99749188Y-116145518D01*
X99736928Y-116270000D01*
X99736928Y-116970000D01*
X99749188Y-117094482D01*
X99785498Y-117214180D01*
X99807317Y-117255000D01*
X99785498Y-117295820D01*
X99749188Y-117415518D01*
X99736928Y-117540000D01*
X99736928Y-118240000D01*
X99749188Y-118364482D01*
X99785498Y-118484180D01*
X99807147Y-118524681D01*
X99789108Y-118557281D01*
X99751063Y-118676439D01*
X99740000Y-118778250D01*
X99898750Y-118937000D01*
X100777000Y-118937000D01*
X100777000Y-118878072D01*
X101523000Y-118878072D01*
X101523000Y-118937000D01*
X101543000Y-118937000D01*
X101543000Y-119383000D01*
X101523000Y-119383000D01*
X101523000Y-119414000D01*
X100777000Y-119414000D01*
X100777000Y-119383000D01*
X99898750Y-119383000D01*
X99867750Y-119414000D01*
X98929829Y-119414000D01*
X98874013Y-119345987D01*
X98777787Y-119267017D01*
X98668004Y-119208336D01*
X98548882Y-119172201D01*
X98425000Y-119160000D01*
X98190000Y-119160000D01*
X98190000Y-119058061D01*
X98150226Y-118858102D01*
X98072205Y-118669744D01*
X97975490Y-118525000D01*
X98072205Y-118380256D01*
X98150226Y-118191898D01*
X98190000Y-117991939D01*
X98190000Y-117788061D01*
X98150226Y-117588102D01*
X98072205Y-117399744D01*
X97975490Y-117255000D01*
X98072205Y-117110256D01*
X98150226Y-116921898D01*
X98190000Y-116721939D01*
X98190000Y-116518061D01*
X98150226Y-116318102D01*
X98072205Y-116129744D01*
X97958937Y-115960226D01*
X97814774Y-115816063D01*
X97751258Y-115773623D01*
X97741664Y-115741996D01*
X97682983Y-115632213D01*
X97604013Y-115535987D01*
X97507787Y-115457017D01*
X97480129Y-115442233D01*
X97893250Y-115440000D01*
X98052000Y-115281250D01*
X98052000Y-114428000D01*
X98798000Y-114428000D01*
X98798000Y-115281250D01*
X98956750Y-115440000D01*
X99525000Y-115443072D01*
X99649482Y-115430812D01*
X99769180Y-115394502D01*
X99879494Y-115335537D01*
X99976185Y-115256185D01*
X100055537Y-115159494D01*
X100114502Y-115049180D01*
X100150812Y-114929482D01*
X100163072Y-114805000D01*
X100160000Y-114586750D01*
X100001250Y-114428000D01*
X98798000Y-114428000D01*
X98052000Y-114428000D01*
X96848750Y-114428000D01*
X96690000Y-114586750D01*
X96686928Y-114805000D01*
X96699188Y-114929482D01*
X96735498Y-115049180D01*
X96760524Y-115096000D01*
X93612477Y-115096000D01*
X93610000Y-114516750D01*
X93451250Y-114358000D01*
X92448000Y-114358000D01*
X92448000Y-114378000D01*
X91702000Y-114378000D01*
X91702000Y-114358000D01*
X91682000Y-114358000D01*
X91682000Y-113612000D01*
X91702000Y-113612000D01*
X91702000Y-112258750D01*
X92448000Y-112258750D01*
X92448000Y-113612000D01*
X93451250Y-113612000D01*
X93610000Y-113453250D01*
X93610634Y-113305000D01*
X96686928Y-113305000D01*
X96690000Y-113523250D01*
X96848750Y-113682000D01*
X98052000Y-113682000D01*
X98052000Y-112828750D01*
X98798000Y-112828750D01*
X98798000Y-113682000D01*
X100001250Y-113682000D01*
X100160000Y-113523250D01*
X100163072Y-113305000D01*
X100150812Y-113180518D01*
X100114502Y-113060820D01*
X100055537Y-112950506D01*
X99976185Y-112853815D01*
X99879494Y-112774463D01*
X99769180Y-112715498D01*
X99649482Y-112679188D01*
X99525000Y-112666928D01*
X98956750Y-112670000D01*
X98798000Y-112828750D01*
X98052000Y-112828750D01*
X97893250Y-112670000D01*
X97325000Y-112666928D01*
X97200518Y-112679188D01*
X97080820Y-112715498D01*
X96970506Y-112774463D01*
X96873815Y-112853815D01*
X96794463Y-112950506D01*
X96735498Y-113060820D01*
X96699188Y-113180518D01*
X96686928Y-113305000D01*
X93610634Y-113305000D01*
X93613072Y-112735000D01*
X93600812Y-112610518D01*
X93564502Y-112490820D01*
X93505537Y-112380506D01*
X93426185Y-112283815D01*
X93329494Y-112204463D01*
X93219180Y-112145498D01*
X93099482Y-112109188D01*
X92975000Y-112096928D01*
X92606750Y-112100000D01*
X92448000Y-112258750D01*
X91702000Y-112258750D01*
X91543250Y-112100000D01*
X91175000Y-112096928D01*
X91050518Y-112109188D01*
X90932000Y-112145140D01*
X90932000Y-111540000D01*
X102108000Y-111540000D01*
X102108000Y-115589985D01*
G37*
%TD.AperFunction*%
%TD*%
D31*
%TO.N,GND*%
X94301063Y-116136439D02*
X94290000Y-116238250D01*
X94448750Y-116397000D01*
X95327000Y-116397000D01*
X95327000Y-116270000D01*
X96073000Y-116270000D01*
X96073000Y-116397000D01*
X96093000Y-116397000D01*
X96093000Y-116843000D01*
X96073000Y-116843000D01*
X96073000Y-117667000D01*
X96093000Y-117667000D01*
X96093000Y-118113000D01*
X96073000Y-118113000D01*
X96073000Y-118937000D01*
X96093000Y-118937000D01*
X96093000Y-119383000D01*
X96073000Y-119383000D01*
X96073000Y-120207000D01*
X96951250Y-120207000D01*
X97110000Y-120048250D01*
X97098937Y-119946439D01*
X97084250Y-119900439D01*
X97084443Y-119900597D01*
X97106399Y-119912333D01*
X97130224Y-119919560D01*
X97155000Y-119922000D01*
X97803147Y-119922000D01*
X97802201Y-119925118D01*
X97790000Y-120049000D01*
X97790000Y-123363000D01*
X97127000Y-123363000D01*
X97127000Y-123343000D01*
X96523750Y-123343000D01*
X96365000Y-123501750D01*
X96362006Y-123660046D01*
X96372323Y-123784704D01*
X96406761Y-123904954D01*
X96463997Y-124016174D01*
X96540963Y-124113000D01*
X95302606Y-124113000D01*
X93469560Y-122279954D01*
X96362006Y-122279954D01*
X96365000Y-122438250D01*
X96523750Y-122597000D01*
X97127000Y-122597000D01*
X97127000Y-121793750D01*
X96968250Y-121635000D01*
X96865771Y-121646206D01*
X96746654Y-121684379D01*
X96637273Y-121745057D01*
X96541831Y-121825908D01*
X96463997Y-121923826D01*
X96406761Y-122035046D01*
X96372323Y-122155296D01*
X96362006Y-122279954D01*
X93469560Y-122279954D01*
X92001356Y-120811750D01*
X94290000Y-120811750D01*
X94301063Y-120913561D01*
X94339108Y-121032719D01*
X94399669Y-121142165D01*
X94480418Y-121237693D01*
X94578252Y-121315632D01*
X94689411Y-121372987D01*
X94809624Y-121407554D01*
X94934271Y-121418005D01*
X95168250Y-121415000D01*
X95327000Y-121256250D01*
X95327000Y-120653000D01*
X96073000Y-120653000D01*
X96073000Y-121256250D01*
X96231750Y-121415000D01*
X96465729Y-121418005D01*
X96590376Y-121407554D01*
X96710589Y-121372987D01*
X96821748Y-121315632D01*
X96919582Y-121237693D01*
X97000331Y-121142165D01*
X97060892Y-121032719D01*
X97098937Y-120913561D01*
X97110000Y-120811750D01*
X96951250Y-120653000D01*
X96073000Y-120653000D01*
X95327000Y-120653000D01*
X94448750Y-120653000D01*
X94290000Y-120811750D01*
X92001356Y-120811750D01*
X91050374Y-119860768D01*
X91050518Y-119860812D01*
X91175000Y-119873072D01*
X91543250Y-119870000D01*
X91702000Y-119711250D01*
X91702000Y-118358000D01*
X92448000Y-118358000D01*
X92448000Y-119711250D01*
X92606750Y-119870000D01*
X92975000Y-119873072D01*
X93099482Y-119860812D01*
X93219180Y-119824502D01*
X93329494Y-119765537D01*
X93426185Y-119686185D01*
X93505537Y-119589494D01*
X93531057Y-119541750D01*
X94290000Y-119541750D01*
X94301063Y-119643561D01*
X94339108Y-119762719D01*
X94356970Y-119795000D01*
X94339108Y-119827281D01*
X94301063Y-119946439D01*
X94290000Y-120048250D01*
X94448750Y-120207000D01*
X95327000Y-120207000D01*
X95327000Y-119383000D01*
X94448750Y-119383000D01*
X94290000Y-119541750D01*
X93531057Y-119541750D01*
X93564502Y-119479180D01*
X93600812Y-119359482D01*
X93613072Y-119235000D01*
X93610000Y-118516750D01*
X93451250Y-118358000D01*
X92448000Y-118358000D01*
X91702000Y-118358000D01*
X91682000Y-118358000D01*
X91682000Y-118271750D01*
X94290000Y-118271750D01*
X94301063Y-118373561D01*
X94339108Y-118492719D01*
X94356970Y-118525000D01*
X94339108Y-118557281D01*
X94301063Y-118676439D01*
X94290000Y-118778250D01*
X94448750Y-118937000D01*
X95327000Y-118937000D01*
X95327000Y-118113000D01*
X94448750Y-118113000D01*
X94290000Y-118271750D01*
X91682000Y-118271750D01*
X91682000Y-117612000D01*
X91702000Y-117612000D01*
X91702000Y-117592000D01*
X92448000Y-117592000D01*
X92448000Y-117612000D01*
X93451250Y-117612000D01*
X93610000Y-117453250D01*
X93611931Y-117001750D01*
X94290000Y-117001750D01*
X94301063Y-117103561D01*
X94339108Y-117222719D01*
X94356970Y-117255000D01*
X94339108Y-117287281D01*
X94301063Y-117406439D01*
X94290000Y-117508250D01*
X94448750Y-117667000D01*
X95327000Y-117667000D01*
X95327000Y-116843000D01*
X94448750Y-116843000D01*
X94290000Y-117001750D01*
X93611931Y-117001750D01*
X93613072Y-116735000D01*
X93600812Y-116610518D01*
X93564502Y-116490820D01*
X93505537Y-116380506D01*
X93426185Y-116283815D01*
X93329494Y-116204463D01*
X93219180Y-116145498D01*
X93108752Y-116112000D01*
X94308866Y-116112000D01*
X94301063Y-116136439D01*
%TA.AperFunction,Conductor*%
D32*
G36*
X94301063Y-116136439D02*
G01*
X94290000Y-116238250D01*
X94448750Y-116397000D01*
X95327000Y-116397000D01*
X95327000Y-116270000D01*
X96073000Y-116270000D01*
X96073000Y-116397000D01*
X96093000Y-116397000D01*
X96093000Y-116843000D01*
X96073000Y-116843000D01*
X96073000Y-117667000D01*
X96093000Y-117667000D01*
X96093000Y-118113000D01*
X96073000Y-118113000D01*
X96073000Y-118937000D01*
X96093000Y-118937000D01*
X96093000Y-119383000D01*
X96073000Y-119383000D01*
X96073000Y-120207000D01*
X96951250Y-120207000D01*
X97110000Y-120048250D01*
X97098937Y-119946439D01*
X97084250Y-119900439D01*
X97084443Y-119900597D01*
X97106399Y-119912333D01*
X97130224Y-119919560D01*
X97155000Y-119922000D01*
X97803147Y-119922000D01*
X97802201Y-119925118D01*
X97790000Y-120049000D01*
X97790000Y-123363000D01*
X97127000Y-123363000D01*
X97127000Y-123343000D01*
X96523750Y-123343000D01*
X96365000Y-123501750D01*
X96362006Y-123660046D01*
X96372323Y-123784704D01*
X96406761Y-123904954D01*
X96463997Y-124016174D01*
X96540963Y-124113000D01*
X95302606Y-124113000D01*
X93469560Y-122279954D01*
X96362006Y-122279954D01*
X96365000Y-122438250D01*
X96523750Y-122597000D01*
X97127000Y-122597000D01*
X97127000Y-121793750D01*
X96968250Y-121635000D01*
X96865771Y-121646206D01*
X96746654Y-121684379D01*
X96637273Y-121745057D01*
X96541831Y-121825908D01*
X96463997Y-121923826D01*
X96406761Y-122035046D01*
X96372323Y-122155296D01*
X96362006Y-122279954D01*
X93469560Y-122279954D01*
X92001356Y-120811750D01*
X94290000Y-120811750D01*
X94301063Y-120913561D01*
X94339108Y-121032719D01*
X94399669Y-121142165D01*
X94480418Y-121237693D01*
X94578252Y-121315632D01*
X94689411Y-121372987D01*
X94809624Y-121407554D01*
X94934271Y-121418005D01*
X95168250Y-121415000D01*
X95327000Y-121256250D01*
X95327000Y-120653000D01*
X96073000Y-120653000D01*
X96073000Y-121256250D01*
X96231750Y-121415000D01*
X96465729Y-121418005D01*
X96590376Y-121407554D01*
X96710589Y-121372987D01*
X96821748Y-121315632D01*
X96919582Y-121237693D01*
X97000331Y-121142165D01*
X97060892Y-121032719D01*
X97098937Y-120913561D01*
X97110000Y-120811750D01*
X96951250Y-120653000D01*
X96073000Y-120653000D01*
X95327000Y-120653000D01*
X94448750Y-120653000D01*
X94290000Y-120811750D01*
X92001356Y-120811750D01*
X91050374Y-119860768D01*
X91050518Y-119860812D01*
X91175000Y-119873072D01*
X91543250Y-119870000D01*
X91702000Y-119711250D01*
X91702000Y-118358000D01*
X92448000Y-118358000D01*
X92448000Y-119711250D01*
X92606750Y-119870000D01*
X92975000Y-119873072D01*
X93099482Y-119860812D01*
X93219180Y-119824502D01*
X93329494Y-119765537D01*
X93426185Y-119686185D01*
X93505537Y-119589494D01*
X93531057Y-119541750D01*
X94290000Y-119541750D01*
X94301063Y-119643561D01*
X94339108Y-119762719D01*
X94356970Y-119795000D01*
X94339108Y-119827281D01*
X94301063Y-119946439D01*
X94290000Y-120048250D01*
X94448750Y-120207000D01*
X95327000Y-120207000D01*
X95327000Y-119383000D01*
X94448750Y-119383000D01*
X94290000Y-119541750D01*
X93531057Y-119541750D01*
X93564502Y-119479180D01*
X93600812Y-119359482D01*
X93613072Y-119235000D01*
X93610000Y-118516750D01*
X93451250Y-118358000D01*
X92448000Y-118358000D01*
X91702000Y-118358000D01*
X91682000Y-118358000D01*
X91682000Y-118271750D01*
X94290000Y-118271750D01*
X94301063Y-118373561D01*
X94339108Y-118492719D01*
X94356970Y-118525000D01*
X94339108Y-118557281D01*
X94301063Y-118676439D01*
X94290000Y-118778250D01*
X94448750Y-118937000D01*
X95327000Y-118937000D01*
X95327000Y-118113000D01*
X94448750Y-118113000D01*
X94290000Y-118271750D01*
X91682000Y-118271750D01*
X91682000Y-117612000D01*
X91702000Y-117612000D01*
X91702000Y-117592000D01*
X92448000Y-117592000D01*
X92448000Y-117612000D01*
X93451250Y-117612000D01*
X93610000Y-117453250D01*
X93611931Y-117001750D01*
X94290000Y-117001750D01*
X94301063Y-117103561D01*
X94339108Y-117222719D01*
X94356970Y-117255000D01*
X94339108Y-117287281D01*
X94301063Y-117406439D01*
X94290000Y-117508250D01*
X94448750Y-117667000D01*
X95327000Y-117667000D01*
X95327000Y-116843000D01*
X94448750Y-116843000D01*
X94290000Y-117001750D01*
X93611931Y-117001750D01*
X93613072Y-116735000D01*
X93600812Y-116610518D01*
X93564502Y-116490820D01*
X93505537Y-116380506D01*
X93426185Y-116283815D01*
X93329494Y-116204463D01*
X93219180Y-116145498D01*
X93108752Y-116112000D01*
X94308866Y-116112000D01*
X94301063Y-116136439D01*
G37*
%TD.AperFunction*%
%TD*%
D31*
%TO.N,+12V*%
X99898750Y-120207000D02*
X100777000Y-120207000D01*
X100777000Y-120176000D01*
X101523000Y-120176000D01*
X101523000Y-120207000D01*
X102401250Y-120207000D01*
X102432250Y-120176000D01*
X102676526Y-120176000D01*
X102620498Y-120280820D01*
X102584188Y-120400518D01*
X102571928Y-120525000D01*
X102575000Y-121168250D01*
X102733750Y-121327000D01*
X103499500Y-121327000D01*
X103499500Y-121307000D01*
X104245500Y-121307000D01*
X104245500Y-121327000D01*
X105011250Y-121327000D01*
X105170000Y-121168250D01*
X105173072Y-120525000D01*
X105160812Y-120400518D01*
X105124502Y-120280820D01*
X105068474Y-120176000D01*
X105283000Y-120176000D01*
X105283000Y-123605000D01*
X105285440Y-123629776D01*
X105292667Y-123653601D01*
X105304403Y-123675557D01*
X105320197Y-123694803D01*
X106590197Y-124964803D01*
X106609443Y-124980597D01*
X106631399Y-124992333D01*
X106655224Y-124999560D01*
X106680000Y-125002000D01*
X107897394Y-125002000D01*
X108458000Y-125562606D01*
X108458000Y-127362394D01*
X107897394Y-127923000D01*
X105225945Y-127923000D01*
X105114482Y-127889188D01*
X104990000Y-127876928D01*
X103290000Y-127876928D01*
X103165518Y-127889188D01*
X103054055Y-127923000D01*
X102583157Y-127923000D01*
X102497347Y-127837190D01*
X102472764Y-127807236D01*
X102370176Y-127723043D01*
X102369502Y-127720820D01*
X102310537Y-127610506D01*
X102231185Y-127513815D01*
X102134494Y-127434463D01*
X102098701Y-127415331D01*
X102123447Y-127402755D01*
X102221758Y-127325419D01*
X102303093Y-127230389D01*
X102364326Y-127121318D01*
X102403104Y-127002397D01*
X102415000Y-126896750D01*
X102256250Y-126738000D01*
X101653000Y-126738000D01*
X101653000Y-126858000D01*
X101007000Y-126858000D01*
X101007000Y-126738000D01*
X100403750Y-126738000D01*
X100369834Y-126771916D01*
X100369502Y-126770820D01*
X100310537Y-126660506D01*
X100231185Y-126563815D01*
X100134494Y-126484463D01*
X100024180Y-126425498D01*
X99904482Y-126389188D01*
X99780000Y-126376928D01*
X98880000Y-126376928D01*
X98755518Y-126389188D01*
X98731945Y-126396339D01*
X98632834Y-126315000D01*
X102651928Y-126315000D01*
X102664188Y-126439482D01*
X102700498Y-126559180D01*
X102759463Y-126669494D01*
X102838815Y-126766185D01*
X102935506Y-126845537D01*
X103045820Y-126904502D01*
X103165518Y-126940812D01*
X103290000Y-126953072D01*
X103608250Y-126950000D01*
X103767000Y-126791250D01*
X103767000Y-126038000D01*
X104513000Y-126038000D01*
X104513000Y-126791250D01*
X104671750Y-126950000D01*
X104990000Y-126953072D01*
X105114482Y-126940812D01*
X105234180Y-126904502D01*
X105344494Y-126845537D01*
X105441185Y-126766185D01*
X105520537Y-126669494D01*
X105579502Y-126559180D01*
X105615812Y-126439482D01*
X105628072Y-126315000D01*
X105625000Y-126196750D01*
X105466250Y-126038000D01*
X104513000Y-126038000D01*
X103767000Y-126038000D01*
X102813750Y-126038000D01*
X102655000Y-126196750D01*
X102651928Y-126315000D01*
X98632834Y-126315000D01*
X98563188Y-126257843D01*
X98552000Y-126251863D01*
X98552000Y-126033250D01*
X100245000Y-126033250D01*
X100403750Y-126192000D01*
X101007000Y-126192000D01*
X101007000Y-125588750D01*
X101653000Y-125588750D01*
X101653000Y-126192000D01*
X102256250Y-126192000D01*
X102415000Y-126033250D01*
X102403104Y-125927603D01*
X102364326Y-125808682D01*
X102303093Y-125699611D01*
X102221758Y-125604581D01*
X102123447Y-125527245D01*
X102011937Y-125470575D01*
X101891514Y-125436748D01*
X101811750Y-125430000D01*
X101653000Y-125588750D01*
X101007000Y-125588750D01*
X100848250Y-125430000D01*
X100768486Y-125436748D01*
X100648063Y-125470575D01*
X100536553Y-125527245D01*
X100438242Y-125604581D01*
X100356907Y-125699611D01*
X100295674Y-125808682D01*
X100256896Y-125927603D01*
X100245000Y-126033250D01*
X98552000Y-126033250D01*
X98552000Y-125015000D01*
X102651928Y-125015000D01*
X102655000Y-125133250D01*
X102813750Y-125292000D01*
X103767000Y-125292000D01*
X103767000Y-124538750D01*
X104513000Y-124538750D01*
X104513000Y-125292000D01*
X105466250Y-125292000D01*
X105625000Y-125133250D01*
X105628072Y-125015000D01*
X105615812Y-124890518D01*
X105579502Y-124770820D01*
X105520537Y-124660506D01*
X105441185Y-124563815D01*
X105344494Y-124484463D01*
X105234180Y-124425498D01*
X105114482Y-124389188D01*
X104990000Y-124376928D01*
X104671750Y-124380000D01*
X104513000Y-124538750D01*
X103767000Y-124538750D01*
X103608250Y-124380000D01*
X103290000Y-124376928D01*
X103165518Y-124389188D01*
X103045820Y-124425498D01*
X102935506Y-124484463D01*
X102838815Y-124563815D01*
X102759463Y-124660506D01*
X102700498Y-124770820D01*
X102664188Y-124890518D01*
X102651928Y-125015000D01*
X98552000Y-125015000D01*
X98552000Y-124216981D01*
X98621654Y-124255621D01*
X98740771Y-124293794D01*
X98843250Y-124305000D01*
X99002000Y-124146250D01*
X99002000Y-123343000D01*
X99723000Y-123343000D01*
X99723000Y-124146250D01*
X99881750Y-124305000D01*
X99984229Y-124293794D01*
X100103346Y-124255621D01*
X100212727Y-124194943D01*
X100308169Y-124114092D01*
X100386003Y-124016174D01*
X100443239Y-123904954D01*
X100477677Y-123784704D01*
X100487994Y-123660046D01*
X100485000Y-123501750D01*
X100326250Y-123343000D01*
X99723000Y-123343000D01*
X99002000Y-123343000D01*
X98969500Y-123343000D01*
X98969500Y-122875000D01*
X102571928Y-122875000D01*
X102584188Y-122999482D01*
X102620498Y-123119180D01*
X102679463Y-123229494D01*
X102758815Y-123326185D01*
X102855506Y-123405537D01*
X102965820Y-123464502D01*
X103085518Y-123500812D01*
X103210000Y-123513072D01*
X103340750Y-123510000D01*
X103499500Y-123351250D01*
X103499500Y-122073000D01*
X104245500Y-122073000D01*
X104245500Y-123351250D01*
X104404250Y-123510000D01*
X104535000Y-123513072D01*
X104659482Y-123500812D01*
X104779180Y-123464502D01*
X104889494Y-123405537D01*
X104986185Y-123326185D01*
X105065537Y-123229494D01*
X105124502Y-123119180D01*
X105160812Y-122999482D01*
X105173072Y-122875000D01*
X105170000Y-122231750D01*
X105011250Y-122073000D01*
X104245500Y-122073000D01*
X103499500Y-122073000D01*
X102733750Y-122073000D01*
X102575000Y-122231750D01*
X102571928Y-122875000D01*
X98969500Y-122875000D01*
X98969500Y-122597000D01*
X99002000Y-122597000D01*
X99002000Y-121793750D01*
X99723000Y-121793750D01*
X99723000Y-122597000D01*
X100326250Y-122597000D01*
X100485000Y-122438250D01*
X100487994Y-122279954D01*
X100477677Y-122155296D01*
X100443239Y-122035046D01*
X100386003Y-121923826D01*
X100308169Y-121825908D01*
X100212727Y-121745057D01*
X100103346Y-121684379D01*
X99984229Y-121646206D01*
X99881750Y-121635000D01*
X99723000Y-121793750D01*
X99002000Y-121793750D01*
X98843250Y-121635000D01*
X98740771Y-121646206D01*
X98621654Y-121684379D01*
X98552000Y-121723019D01*
X98552000Y-120811750D01*
X99740000Y-120811750D01*
X99751063Y-120913561D01*
X99789108Y-121032719D01*
X99849669Y-121142165D01*
X99930418Y-121237693D01*
X100028252Y-121315632D01*
X100139411Y-121372987D01*
X100259624Y-121407554D01*
X100384271Y-121418005D01*
X100618250Y-121415000D01*
X100777000Y-121256250D01*
X100777000Y-120653000D01*
X101523000Y-120653000D01*
X101523000Y-121256250D01*
X101681750Y-121415000D01*
X101915729Y-121418005D01*
X102040376Y-121407554D01*
X102160589Y-121372987D01*
X102271748Y-121315632D01*
X102369582Y-121237693D01*
X102450331Y-121142165D01*
X102510892Y-121032719D01*
X102548937Y-120913561D01*
X102560000Y-120811750D01*
X102401250Y-120653000D01*
X101523000Y-120653000D01*
X100777000Y-120653000D01*
X99898750Y-120653000D01*
X99740000Y-120811750D01*
X98552000Y-120811750D01*
X98552000Y-120176000D01*
X99867750Y-120176000D01*
X99898750Y-120207000D01*
%TA.AperFunction,Conductor*%
D32*
G36*
X99898750Y-120207000D02*
G01*
X100777000Y-120207000D01*
X100777000Y-120176000D01*
X101523000Y-120176000D01*
X101523000Y-120207000D01*
X102401250Y-120207000D01*
X102432250Y-120176000D01*
X102676526Y-120176000D01*
X102620498Y-120280820D01*
X102584188Y-120400518D01*
X102571928Y-120525000D01*
X102575000Y-121168250D01*
X102733750Y-121327000D01*
X103499500Y-121327000D01*
X103499500Y-121307000D01*
X104245500Y-121307000D01*
X104245500Y-121327000D01*
X105011250Y-121327000D01*
X105170000Y-121168250D01*
X105173072Y-120525000D01*
X105160812Y-120400518D01*
X105124502Y-120280820D01*
X105068474Y-120176000D01*
X105283000Y-120176000D01*
X105283000Y-123605000D01*
X105285440Y-123629776D01*
X105292667Y-123653601D01*
X105304403Y-123675557D01*
X105320197Y-123694803D01*
X106590197Y-124964803D01*
X106609443Y-124980597D01*
X106631399Y-124992333D01*
X106655224Y-124999560D01*
X106680000Y-125002000D01*
X107897394Y-125002000D01*
X108458000Y-125562606D01*
X108458000Y-127362394D01*
X107897394Y-127923000D01*
X105225945Y-127923000D01*
X105114482Y-127889188D01*
X104990000Y-127876928D01*
X103290000Y-127876928D01*
X103165518Y-127889188D01*
X103054055Y-127923000D01*
X102583157Y-127923000D01*
X102497347Y-127837190D01*
X102472764Y-127807236D01*
X102370176Y-127723043D01*
X102369502Y-127720820D01*
X102310537Y-127610506D01*
X102231185Y-127513815D01*
X102134494Y-127434463D01*
X102098701Y-127415331D01*
X102123447Y-127402755D01*
X102221758Y-127325419D01*
X102303093Y-127230389D01*
X102364326Y-127121318D01*
X102403104Y-127002397D01*
X102415000Y-126896750D01*
X102256250Y-126738000D01*
X101653000Y-126738000D01*
X101653000Y-126858000D01*
X101007000Y-126858000D01*
X101007000Y-126738000D01*
X100403750Y-126738000D01*
X100369834Y-126771916D01*
X100369502Y-126770820D01*
X100310537Y-126660506D01*
X100231185Y-126563815D01*
X100134494Y-126484463D01*
X100024180Y-126425498D01*
X99904482Y-126389188D01*
X99780000Y-126376928D01*
X98880000Y-126376928D01*
X98755518Y-126389188D01*
X98731945Y-126396339D01*
X98632834Y-126315000D01*
X102651928Y-126315000D01*
X102664188Y-126439482D01*
X102700498Y-126559180D01*
X102759463Y-126669494D01*
X102838815Y-126766185D01*
X102935506Y-126845537D01*
X103045820Y-126904502D01*
X103165518Y-126940812D01*
X103290000Y-126953072D01*
X103608250Y-126950000D01*
X103767000Y-126791250D01*
X103767000Y-126038000D01*
X104513000Y-126038000D01*
X104513000Y-126791250D01*
X104671750Y-126950000D01*
X104990000Y-126953072D01*
X105114482Y-126940812D01*
X105234180Y-126904502D01*
X105344494Y-126845537D01*
X105441185Y-126766185D01*
X105520537Y-126669494D01*
X105579502Y-126559180D01*
X105615812Y-126439482D01*
X105628072Y-126315000D01*
X105625000Y-126196750D01*
X105466250Y-126038000D01*
X104513000Y-126038000D01*
X103767000Y-126038000D01*
X102813750Y-126038000D01*
X102655000Y-126196750D01*
X102651928Y-126315000D01*
X98632834Y-126315000D01*
X98563188Y-126257843D01*
X98552000Y-126251863D01*
X98552000Y-126033250D01*
X100245000Y-126033250D01*
X100403750Y-126192000D01*
X101007000Y-126192000D01*
X101007000Y-125588750D01*
X101653000Y-125588750D01*
X101653000Y-126192000D01*
X102256250Y-126192000D01*
X102415000Y-126033250D01*
X102403104Y-125927603D01*
X102364326Y-125808682D01*
X102303093Y-125699611D01*
X102221758Y-125604581D01*
X102123447Y-125527245D01*
X102011937Y-125470575D01*
X101891514Y-125436748D01*
X101811750Y-125430000D01*
X101653000Y-125588750D01*
X101007000Y-125588750D01*
X100848250Y-125430000D01*
X100768486Y-125436748D01*
X100648063Y-125470575D01*
X100536553Y-125527245D01*
X100438242Y-125604581D01*
X100356907Y-125699611D01*
X100295674Y-125808682D01*
X100256896Y-125927603D01*
X100245000Y-126033250D01*
X98552000Y-126033250D01*
X98552000Y-125015000D01*
X102651928Y-125015000D01*
X102655000Y-125133250D01*
X102813750Y-125292000D01*
X103767000Y-125292000D01*
X103767000Y-124538750D01*
X104513000Y-124538750D01*
X104513000Y-125292000D01*
X105466250Y-125292000D01*
X105625000Y-125133250D01*
X105628072Y-125015000D01*
X105615812Y-124890518D01*
X105579502Y-124770820D01*
X105520537Y-124660506D01*
X105441185Y-124563815D01*
X105344494Y-124484463D01*
X105234180Y-124425498D01*
X105114482Y-124389188D01*
X104990000Y-124376928D01*
X104671750Y-124380000D01*
X104513000Y-124538750D01*
X103767000Y-124538750D01*
X103608250Y-124380000D01*
X103290000Y-124376928D01*
X103165518Y-124389188D01*
X103045820Y-124425498D01*
X102935506Y-124484463D01*
X102838815Y-124563815D01*
X102759463Y-124660506D01*
X102700498Y-124770820D01*
X102664188Y-124890518D01*
X102651928Y-125015000D01*
X98552000Y-125015000D01*
X98552000Y-124216981D01*
X98621654Y-124255621D01*
X98740771Y-124293794D01*
X98843250Y-124305000D01*
X99002000Y-124146250D01*
X99002000Y-123343000D01*
X99723000Y-123343000D01*
X99723000Y-124146250D01*
X99881750Y-124305000D01*
X99984229Y-124293794D01*
X100103346Y-124255621D01*
X100212727Y-124194943D01*
X100308169Y-124114092D01*
X100386003Y-124016174D01*
X100443239Y-123904954D01*
X100477677Y-123784704D01*
X100487994Y-123660046D01*
X100485000Y-123501750D01*
X100326250Y-123343000D01*
X99723000Y-123343000D01*
X99002000Y-123343000D01*
X98969500Y-123343000D01*
X98969500Y-122875000D01*
X102571928Y-122875000D01*
X102584188Y-122999482D01*
X102620498Y-123119180D01*
X102679463Y-123229494D01*
X102758815Y-123326185D01*
X102855506Y-123405537D01*
X102965820Y-123464502D01*
X103085518Y-123500812D01*
X103210000Y-123513072D01*
X103340750Y-123510000D01*
X103499500Y-123351250D01*
X103499500Y-122073000D01*
X104245500Y-122073000D01*
X104245500Y-123351250D01*
X104404250Y-123510000D01*
X104535000Y-123513072D01*
X104659482Y-123500812D01*
X104779180Y-123464502D01*
X104889494Y-123405537D01*
X104986185Y-123326185D01*
X105065537Y-123229494D01*
X105124502Y-123119180D01*
X105160812Y-122999482D01*
X105173072Y-122875000D01*
X105170000Y-122231750D01*
X105011250Y-122073000D01*
X104245500Y-122073000D01*
X103499500Y-122073000D01*
X102733750Y-122073000D01*
X102575000Y-122231750D01*
X102571928Y-122875000D01*
X98969500Y-122875000D01*
X98969500Y-122597000D01*
X99002000Y-122597000D01*
X99002000Y-121793750D01*
X99723000Y-121793750D01*
X99723000Y-122597000D01*
X100326250Y-122597000D01*
X100485000Y-122438250D01*
X100487994Y-122279954D01*
X100477677Y-122155296D01*
X100443239Y-122035046D01*
X100386003Y-121923826D01*
X100308169Y-121825908D01*
X100212727Y-121745057D01*
X100103346Y-121684379D01*
X99984229Y-121646206D01*
X99881750Y-121635000D01*
X99723000Y-121793750D01*
X99002000Y-121793750D01*
X98843250Y-121635000D01*
X98740771Y-121646206D01*
X98621654Y-121684379D01*
X98552000Y-121723019D01*
X98552000Y-120811750D01*
X99740000Y-120811750D01*
X99751063Y-120913561D01*
X99789108Y-121032719D01*
X99849669Y-121142165D01*
X99930418Y-121237693D01*
X100028252Y-121315632D01*
X100139411Y-121372987D01*
X100259624Y-121407554D01*
X100384271Y-121418005D01*
X100618250Y-121415000D01*
X100777000Y-121256250D01*
X100777000Y-120653000D01*
X101523000Y-120653000D01*
X101523000Y-121256250D01*
X101681750Y-121415000D01*
X101915729Y-121418005D01*
X102040376Y-121407554D01*
X102160589Y-121372987D01*
X102271748Y-121315632D01*
X102369582Y-121237693D01*
X102450331Y-121142165D01*
X102510892Y-121032719D01*
X102548937Y-120913561D01*
X102560000Y-120811750D01*
X102401250Y-120653000D01*
X101523000Y-120653000D01*
X100777000Y-120653000D01*
X99898750Y-120653000D01*
X99740000Y-120811750D01*
X98552000Y-120811750D01*
X98552000Y-120176000D01*
X99867750Y-120176000D01*
X99898750Y-120207000D01*
G37*
%TD.AperFunction*%
%TD*%
D31*
%TO.N,GND*%
X135763000Y-117763000D02*
X130302000Y-117763000D01*
X130302000Y-112302000D01*
X135763000Y-112302000D01*
X135763000Y-117763000D01*
%TA.AperFunction,Conductor*%
D32*
G36*
X135763000Y-117763000D02*
G01*
X130302000Y-117763000D01*
X130302000Y-112302000D01*
X135763000Y-112302000D01*
X135763000Y-117763000D01*
G37*
%TD.AperFunction*%
%TD*%
D31*
%TO.N,GND*%
X141346928Y-107255000D02*
X141350000Y-107419250D01*
X141508750Y-107578000D01*
X142608000Y-107578000D01*
X142608000Y-107558000D01*
X142862000Y-107558000D01*
X142862000Y-107578000D01*
X142882000Y-107578000D01*
X142882000Y-107832000D01*
X142862000Y-107832000D01*
X142862000Y-107852000D01*
X142608000Y-107852000D01*
X142608000Y-107832000D01*
X141508750Y-107832000D01*
X141350000Y-107990750D01*
X141346928Y-108155000D01*
X141359188Y-108279482D01*
X141377546Y-108340000D01*
X141359188Y-108400518D01*
X141346928Y-108525000D01*
X141346928Y-109425000D01*
X141355109Y-109508065D01*
X141328140Y-109516246D01*
X141191767Y-109589138D01*
X141166072Y-109610226D01*
X141102187Y-109662655D01*
X141102184Y-109662658D01*
X141072236Y-109687236D01*
X141047657Y-109717185D01*
X140442189Y-110322653D01*
X140412236Y-110347236D01*
X140314138Y-110466768D01*
X140241246Y-110603141D01*
X140196359Y-110751114D01*
X140185000Y-110866440D01*
X140185000Y-110866447D01*
X140181203Y-110905000D01*
X140185000Y-110943553D01*
X140185001Y-124080868D01*
X140145000Y-124076928D01*
X139245000Y-124076928D01*
X139120518Y-124089188D01*
X139060000Y-124107546D01*
X138999482Y-124089188D01*
X138875000Y-124076928D01*
X137975000Y-124076928D01*
X137850518Y-124089188D01*
X137790000Y-124107546D01*
X137729482Y-124089188D01*
X137605000Y-124076928D01*
X136705000Y-124076928D01*
X136580518Y-124089188D01*
X136520000Y-124107546D01*
X136459482Y-124089188D01*
X136335000Y-124076928D01*
X135435000Y-124076928D01*
X135310518Y-124089188D01*
X135250000Y-124107546D01*
X135189482Y-124089188D01*
X135065000Y-124076928D01*
X134165000Y-124076928D01*
X134040518Y-124089188D01*
X133980000Y-124107546D01*
X133919482Y-124089188D01*
X133795000Y-124076928D01*
X132895000Y-124076928D01*
X132770518Y-124089188D01*
X132710000Y-124107546D01*
X132649482Y-124089188D01*
X132525000Y-124076928D01*
X131625000Y-124076928D01*
X131500518Y-124089188D01*
X131440000Y-124107546D01*
X131379482Y-124089188D01*
X131255000Y-124076928D01*
X130355000Y-124076928D01*
X130230518Y-124089188D01*
X130170000Y-124107546D01*
X130109482Y-124089188D01*
X129985000Y-124076928D01*
X129085000Y-124076928D01*
X128960518Y-124089188D01*
X128900000Y-124107546D01*
X128839482Y-124089188D01*
X128715000Y-124076928D01*
X128550750Y-124080000D01*
X128392000Y-124238750D01*
X128392000Y-125338000D01*
X128412000Y-125338000D01*
X128412000Y-125592000D01*
X128392000Y-125592000D01*
X128392000Y-125612000D01*
X128138000Y-125612000D01*
X128138000Y-125592000D01*
X127338750Y-125592000D01*
X127180000Y-125750750D01*
X127178232Y-126018000D01*
X124587000Y-126018000D01*
X124587000Y-125303072D01*
X125985000Y-125303072D01*
X126109482Y-125290812D01*
X126229180Y-125254502D01*
X126339494Y-125195537D01*
X126436185Y-125116185D01*
X126515537Y-125019494D01*
X126574502Y-124909180D01*
X126610812Y-124789482D01*
X126618147Y-124715000D01*
X127176928Y-124715000D01*
X127180000Y-125179250D01*
X127338750Y-125338000D01*
X128138000Y-125338000D01*
X128138000Y-124238750D01*
X127979250Y-124080000D01*
X127815000Y-124076928D01*
X127690518Y-124089188D01*
X127570820Y-124125498D01*
X127460506Y-124184463D01*
X127363815Y-124263815D01*
X127284463Y-124360506D01*
X127225498Y-124470820D01*
X127189188Y-124590518D01*
X127176928Y-124715000D01*
X126618147Y-124715000D01*
X126623072Y-124665000D01*
X126623072Y-123765000D01*
X126610812Y-123640518D01*
X126592454Y-123580000D01*
X126610812Y-123519482D01*
X126623072Y-123395000D01*
X126623072Y-122495000D01*
X126610812Y-122370518D01*
X126592454Y-122310000D01*
X126610812Y-122249482D01*
X126623072Y-122125000D01*
X126623072Y-121225000D01*
X126610812Y-121100518D01*
X126592454Y-121040000D01*
X126610812Y-120979482D01*
X126623072Y-120855000D01*
X126623072Y-119955000D01*
X126610812Y-119830518D01*
X126592454Y-119770000D01*
X126610812Y-119709482D01*
X126623072Y-119585000D01*
X126623072Y-118685000D01*
X126610812Y-118560518D01*
X126592454Y-118500000D01*
X126610812Y-118439482D01*
X126623072Y-118315000D01*
X126623072Y-117415000D01*
X126610812Y-117290518D01*
X126592454Y-117230000D01*
X126610812Y-117169482D01*
X126618147Y-117095000D01*
X130616928Y-117095000D01*
X130629188Y-117219482D01*
X130665498Y-117339180D01*
X130724463Y-117449494D01*
X130803815Y-117546185D01*
X130900506Y-117625537D01*
X131010820Y-117684502D01*
X131130518Y-117720812D01*
X131255000Y-117733072D01*
X131494250Y-117730000D01*
X131653000Y-117571250D01*
X131653000Y-116697000D01*
X131907000Y-116697000D01*
X131907000Y-117571250D01*
X132065750Y-117730000D01*
X132305000Y-117733072D01*
X132429482Y-117720812D01*
X132542500Y-117686528D01*
X132655518Y-117720812D01*
X132780000Y-117733072D01*
X133019250Y-117730000D01*
X133178000Y-117571250D01*
X133178000Y-116697000D01*
X133432000Y-116697000D01*
X133432000Y-117571250D01*
X133590750Y-117730000D01*
X133830000Y-117733072D01*
X133954482Y-117720812D01*
X134067500Y-117686528D01*
X134180518Y-117720812D01*
X134305000Y-117733072D01*
X134544250Y-117730000D01*
X134703000Y-117571250D01*
X134703000Y-116697000D01*
X134957000Y-116697000D01*
X134957000Y-117571250D01*
X135115750Y-117730000D01*
X135355000Y-117733072D01*
X135479482Y-117720812D01*
X135599180Y-117684502D01*
X135709494Y-117625537D01*
X135806185Y-117546185D01*
X135885537Y-117449494D01*
X135944502Y-117339180D01*
X135980812Y-117219482D01*
X135993072Y-117095000D01*
X135990000Y-116855750D01*
X135831250Y-116697000D01*
X134957000Y-116697000D01*
X134703000Y-116697000D01*
X133432000Y-116697000D01*
X133178000Y-116697000D01*
X131907000Y-116697000D01*
X131653000Y-116697000D01*
X130778750Y-116697000D01*
X130620000Y-116855750D01*
X130616928Y-117095000D01*
X126618147Y-117095000D01*
X126623072Y-117045000D01*
X126623072Y-116145000D01*
X126610812Y-116020518D01*
X126592454Y-115960000D01*
X126610812Y-115899482D01*
X126623072Y-115775000D01*
X126623072Y-115570000D01*
X130616928Y-115570000D01*
X130629188Y-115694482D01*
X130663472Y-115807500D01*
X130629188Y-115920518D01*
X130616928Y-116045000D01*
X130620000Y-116284250D01*
X130778750Y-116443000D01*
X131653000Y-116443000D01*
X131653000Y-115172000D01*
X131907000Y-115172000D01*
X131907000Y-116443000D01*
X133178000Y-116443000D01*
X133178000Y-115172000D01*
X133432000Y-115172000D01*
X133432000Y-116443000D01*
X134703000Y-116443000D01*
X134703000Y-115172000D01*
X134957000Y-115172000D01*
X134957000Y-116443000D01*
X135831250Y-116443000D01*
X135990000Y-116284250D01*
X135993072Y-116045000D01*
X135980812Y-115920518D01*
X135946528Y-115807500D01*
X135980812Y-115694482D01*
X135993072Y-115570000D01*
X135990000Y-115330750D01*
X135831250Y-115172000D01*
X134957000Y-115172000D01*
X134703000Y-115172000D01*
X133432000Y-115172000D01*
X133178000Y-115172000D01*
X131907000Y-115172000D01*
X131653000Y-115172000D01*
X130778750Y-115172000D01*
X130620000Y-115330750D01*
X130616928Y-115570000D01*
X126623072Y-115570000D01*
X126623072Y-114875000D01*
X126610812Y-114750518D01*
X126592454Y-114690000D01*
X126610812Y-114629482D01*
X126623072Y-114505000D01*
X126623072Y-114045000D01*
X130616928Y-114045000D01*
X130629188Y-114169482D01*
X130663472Y-114282500D01*
X130629188Y-114395518D01*
X130616928Y-114520000D01*
X130620000Y-114759250D01*
X130778750Y-114918000D01*
X131653000Y-114918000D01*
X131653000Y-113647000D01*
X131907000Y-113647000D01*
X131907000Y-114918000D01*
X133178000Y-114918000D01*
X133178000Y-113647000D01*
X133432000Y-113647000D01*
X133432000Y-114918000D01*
X134703000Y-114918000D01*
X134703000Y-113647000D01*
X134957000Y-113647000D01*
X134957000Y-114918000D01*
X135831250Y-114918000D01*
X135990000Y-114759250D01*
X135993072Y-114520000D01*
X135980812Y-114395518D01*
X135946528Y-114282500D01*
X135980812Y-114169482D01*
X135993072Y-114045000D01*
X135990000Y-113805750D01*
X135831250Y-113647000D01*
X134957000Y-113647000D01*
X134703000Y-113647000D01*
X133432000Y-113647000D01*
X133178000Y-113647000D01*
X131907000Y-113647000D01*
X131653000Y-113647000D01*
X130778750Y-113647000D01*
X130620000Y-113805750D01*
X130616928Y-114045000D01*
X126623072Y-114045000D01*
X126623072Y-113605000D01*
X126610812Y-113480518D01*
X126592454Y-113420000D01*
X126610812Y-113359482D01*
X126623072Y-113235000D01*
X126623072Y-112995000D01*
X130616928Y-112995000D01*
X130620000Y-113234250D01*
X130778750Y-113393000D01*
X131653000Y-113393000D01*
X131653000Y-112518750D01*
X131907000Y-112518750D01*
X131907000Y-113393000D01*
X133178000Y-113393000D01*
X133178000Y-112518750D01*
X133432000Y-112518750D01*
X133432000Y-113393000D01*
X134703000Y-113393000D01*
X134703000Y-112518750D01*
X134957000Y-112518750D01*
X134957000Y-113393000D01*
X135831250Y-113393000D01*
X135990000Y-113234250D01*
X135993072Y-112995000D01*
X135980812Y-112870518D01*
X135944502Y-112750820D01*
X135885537Y-112640506D01*
X135806185Y-112543815D01*
X135709494Y-112464463D01*
X135599180Y-112405498D01*
X135479482Y-112369188D01*
X135355000Y-112356928D01*
X135115750Y-112360000D01*
X134957000Y-112518750D01*
X134703000Y-112518750D01*
X134544250Y-112360000D01*
X134305000Y-112356928D01*
X134180518Y-112369188D01*
X134067500Y-112403472D01*
X133954482Y-112369188D01*
X133830000Y-112356928D01*
X133590750Y-112360000D01*
X133432000Y-112518750D01*
X133178000Y-112518750D01*
X133019250Y-112360000D01*
X132780000Y-112356928D01*
X132655518Y-112369188D01*
X132542500Y-112403472D01*
X132429482Y-112369188D01*
X132305000Y-112356928D01*
X132065750Y-112360000D01*
X131907000Y-112518750D01*
X131653000Y-112518750D01*
X131494250Y-112360000D01*
X131255000Y-112356928D01*
X131130518Y-112369188D01*
X131010820Y-112405498D01*
X130900506Y-112464463D01*
X130803815Y-112543815D01*
X130724463Y-112640506D01*
X130665498Y-112750820D01*
X130629188Y-112870518D01*
X130616928Y-112995000D01*
X126623072Y-112995000D01*
X126623072Y-112335000D01*
X126610812Y-112210518D01*
X126592454Y-112150000D01*
X126610812Y-112089482D01*
X126623072Y-111965000D01*
X126623072Y-111234147D01*
X126698102Y-111265226D01*
X126898061Y-111305000D01*
X127101939Y-111305000D01*
X127301898Y-111265226D01*
X127490256Y-111187205D01*
X127659774Y-111073937D01*
X127803937Y-110929774D01*
X127917205Y-110760256D01*
X127995226Y-110571898D01*
X128035000Y-110371939D01*
X128035000Y-110168061D01*
X127995226Y-109968102D01*
X127917205Y-109779744D01*
X127803937Y-109610226D01*
X127659774Y-109466063D01*
X127490256Y-109352795D01*
X127301898Y-109274774D01*
X127101939Y-109235000D01*
X126898061Y-109235000D01*
X126698102Y-109274774D01*
X126623072Y-109305853D01*
X126623072Y-108525000D01*
X126610812Y-108400518D01*
X126592454Y-108340000D01*
X126610812Y-108279482D01*
X126623072Y-108155000D01*
X126620000Y-107990750D01*
X126461250Y-107832000D01*
X125362000Y-107832000D01*
X125362000Y-107852000D01*
X125108000Y-107852000D01*
X125108000Y-107832000D01*
X125088000Y-107832000D01*
X125088000Y-107578000D01*
X125108000Y-107578000D01*
X125108000Y-107558000D01*
X125362000Y-107558000D01*
X125362000Y-107578000D01*
X126461250Y-107578000D01*
X126620000Y-107419250D01*
X126623072Y-107255000D01*
X126619822Y-107222000D01*
X141350178Y-107222000D01*
X141346928Y-107255000D01*
%TA.AperFunction,Conductor*%
D32*
G36*
X141346928Y-107255000D02*
G01*
X141350000Y-107419250D01*
X141508750Y-107578000D01*
X142608000Y-107578000D01*
X142608000Y-107558000D01*
X142862000Y-107558000D01*
X142862000Y-107578000D01*
X142882000Y-107578000D01*
X142882000Y-107832000D01*
X142862000Y-107832000D01*
X142862000Y-107852000D01*
X142608000Y-107852000D01*
X142608000Y-107832000D01*
X141508750Y-107832000D01*
X141350000Y-107990750D01*
X141346928Y-108155000D01*
X141359188Y-108279482D01*
X141377546Y-108340000D01*
X141359188Y-108400518D01*
X141346928Y-108525000D01*
X141346928Y-109425000D01*
X141355109Y-109508065D01*
X141328140Y-109516246D01*
X141191767Y-109589138D01*
X141166072Y-109610226D01*
X141102187Y-109662655D01*
X141102184Y-109662658D01*
X141072236Y-109687236D01*
X141047657Y-109717185D01*
X140442189Y-110322653D01*
X140412236Y-110347236D01*
X140314138Y-110466768D01*
X140241246Y-110603141D01*
X140196359Y-110751114D01*
X140185000Y-110866440D01*
X140185000Y-110866447D01*
X140181203Y-110905000D01*
X140185000Y-110943553D01*
X140185001Y-124080868D01*
X140145000Y-124076928D01*
X139245000Y-124076928D01*
X139120518Y-124089188D01*
X139060000Y-124107546D01*
X138999482Y-124089188D01*
X138875000Y-124076928D01*
X137975000Y-124076928D01*
X137850518Y-124089188D01*
X137790000Y-124107546D01*
X137729482Y-124089188D01*
X137605000Y-124076928D01*
X136705000Y-124076928D01*
X136580518Y-124089188D01*
X136520000Y-124107546D01*
X136459482Y-124089188D01*
X136335000Y-124076928D01*
X135435000Y-124076928D01*
X135310518Y-124089188D01*
X135250000Y-124107546D01*
X135189482Y-124089188D01*
X135065000Y-124076928D01*
X134165000Y-124076928D01*
X134040518Y-124089188D01*
X133980000Y-124107546D01*
X133919482Y-124089188D01*
X133795000Y-124076928D01*
X132895000Y-124076928D01*
X132770518Y-124089188D01*
X132710000Y-124107546D01*
X132649482Y-124089188D01*
X132525000Y-124076928D01*
X131625000Y-124076928D01*
X131500518Y-124089188D01*
X131440000Y-124107546D01*
X131379482Y-124089188D01*
X131255000Y-124076928D01*
X130355000Y-124076928D01*
X130230518Y-124089188D01*
X130170000Y-124107546D01*
X130109482Y-124089188D01*
X129985000Y-124076928D01*
X129085000Y-124076928D01*
X128960518Y-124089188D01*
X128900000Y-124107546D01*
X128839482Y-124089188D01*
X128715000Y-124076928D01*
X128550750Y-124080000D01*
X128392000Y-124238750D01*
X128392000Y-125338000D01*
X128412000Y-125338000D01*
X128412000Y-125592000D01*
X128392000Y-125592000D01*
X128392000Y-125612000D01*
X128138000Y-125612000D01*
X128138000Y-125592000D01*
X127338750Y-125592000D01*
X127180000Y-125750750D01*
X127178232Y-126018000D01*
X124587000Y-126018000D01*
X124587000Y-125303072D01*
X125985000Y-125303072D01*
X126109482Y-125290812D01*
X126229180Y-125254502D01*
X126339494Y-125195537D01*
X126436185Y-125116185D01*
X126515537Y-125019494D01*
X126574502Y-124909180D01*
X126610812Y-124789482D01*
X126618147Y-124715000D01*
X127176928Y-124715000D01*
X127180000Y-125179250D01*
X127338750Y-125338000D01*
X128138000Y-125338000D01*
X128138000Y-124238750D01*
X127979250Y-124080000D01*
X127815000Y-124076928D01*
X127690518Y-124089188D01*
X127570820Y-124125498D01*
X127460506Y-124184463D01*
X127363815Y-124263815D01*
X127284463Y-124360506D01*
X127225498Y-124470820D01*
X127189188Y-124590518D01*
X127176928Y-124715000D01*
X126618147Y-124715000D01*
X126623072Y-124665000D01*
X126623072Y-123765000D01*
X126610812Y-123640518D01*
X126592454Y-123580000D01*
X126610812Y-123519482D01*
X126623072Y-123395000D01*
X126623072Y-122495000D01*
X126610812Y-122370518D01*
X126592454Y-122310000D01*
X126610812Y-122249482D01*
X126623072Y-122125000D01*
X126623072Y-121225000D01*
X126610812Y-121100518D01*
X126592454Y-121040000D01*
X126610812Y-120979482D01*
X126623072Y-120855000D01*
X126623072Y-119955000D01*
X126610812Y-119830518D01*
X126592454Y-119770000D01*
X126610812Y-119709482D01*
X126623072Y-119585000D01*
X126623072Y-118685000D01*
X126610812Y-118560518D01*
X126592454Y-118500000D01*
X126610812Y-118439482D01*
X126623072Y-118315000D01*
X126623072Y-117415000D01*
X126610812Y-117290518D01*
X126592454Y-117230000D01*
X126610812Y-117169482D01*
X126618147Y-117095000D01*
X130616928Y-117095000D01*
X130629188Y-117219482D01*
X130665498Y-117339180D01*
X130724463Y-117449494D01*
X130803815Y-117546185D01*
X130900506Y-117625537D01*
X131010820Y-117684502D01*
X131130518Y-117720812D01*
X131255000Y-117733072D01*
X131494250Y-117730000D01*
X131653000Y-117571250D01*
X131653000Y-116697000D01*
X131907000Y-116697000D01*
X131907000Y-117571250D01*
X132065750Y-117730000D01*
X132305000Y-117733072D01*
X132429482Y-117720812D01*
X132542500Y-117686528D01*
X132655518Y-117720812D01*
X132780000Y-117733072D01*
X133019250Y-117730000D01*
X133178000Y-117571250D01*
X133178000Y-116697000D01*
X133432000Y-116697000D01*
X133432000Y-117571250D01*
X133590750Y-117730000D01*
X133830000Y-117733072D01*
X133954482Y-117720812D01*
X134067500Y-117686528D01*
X134180518Y-117720812D01*
X134305000Y-117733072D01*
X134544250Y-117730000D01*
X134703000Y-117571250D01*
X134703000Y-116697000D01*
X134957000Y-116697000D01*
X134957000Y-117571250D01*
X135115750Y-117730000D01*
X135355000Y-117733072D01*
X135479482Y-117720812D01*
X135599180Y-117684502D01*
X135709494Y-117625537D01*
X135806185Y-117546185D01*
X135885537Y-117449494D01*
X135944502Y-117339180D01*
X135980812Y-117219482D01*
X135993072Y-117095000D01*
X135990000Y-116855750D01*
X135831250Y-116697000D01*
X134957000Y-116697000D01*
X134703000Y-116697000D01*
X133432000Y-116697000D01*
X133178000Y-116697000D01*
X131907000Y-116697000D01*
X131653000Y-116697000D01*
X130778750Y-116697000D01*
X130620000Y-116855750D01*
X130616928Y-117095000D01*
X126618147Y-117095000D01*
X126623072Y-117045000D01*
X126623072Y-116145000D01*
X126610812Y-116020518D01*
X126592454Y-115960000D01*
X126610812Y-115899482D01*
X126623072Y-115775000D01*
X126623072Y-115570000D01*
X130616928Y-115570000D01*
X130629188Y-115694482D01*
X130663472Y-115807500D01*
X130629188Y-115920518D01*
X130616928Y-116045000D01*
X130620000Y-116284250D01*
X130778750Y-116443000D01*
X131653000Y-116443000D01*
X131653000Y-115172000D01*
X131907000Y-115172000D01*
X131907000Y-116443000D01*
X133178000Y-116443000D01*
X133178000Y-115172000D01*
X133432000Y-115172000D01*
X133432000Y-116443000D01*
X134703000Y-116443000D01*
X134703000Y-115172000D01*
X134957000Y-115172000D01*
X134957000Y-116443000D01*
X135831250Y-116443000D01*
X135990000Y-116284250D01*
X135993072Y-116045000D01*
X135980812Y-115920518D01*
X135946528Y-115807500D01*
X135980812Y-115694482D01*
X135993072Y-115570000D01*
X135990000Y-115330750D01*
X135831250Y-115172000D01*
X134957000Y-115172000D01*
X134703000Y-115172000D01*
X133432000Y-115172000D01*
X133178000Y-115172000D01*
X131907000Y-115172000D01*
X131653000Y-115172000D01*
X130778750Y-115172000D01*
X130620000Y-115330750D01*
X130616928Y-115570000D01*
X126623072Y-115570000D01*
X126623072Y-114875000D01*
X126610812Y-114750518D01*
X126592454Y-114690000D01*
X126610812Y-114629482D01*
X126623072Y-114505000D01*
X126623072Y-114045000D01*
X130616928Y-114045000D01*
X130629188Y-114169482D01*
X130663472Y-114282500D01*
X130629188Y-114395518D01*
X130616928Y-114520000D01*
X130620000Y-114759250D01*
X130778750Y-114918000D01*
X131653000Y-114918000D01*
X131653000Y-113647000D01*
X131907000Y-113647000D01*
X131907000Y-114918000D01*
X133178000Y-114918000D01*
X133178000Y-113647000D01*
X133432000Y-113647000D01*
X133432000Y-114918000D01*
X134703000Y-114918000D01*
X134703000Y-113647000D01*
X134957000Y-113647000D01*
X134957000Y-114918000D01*
X135831250Y-114918000D01*
X135990000Y-114759250D01*
X135993072Y-114520000D01*
X135980812Y-114395518D01*
X135946528Y-114282500D01*
X135980812Y-114169482D01*
X135993072Y-114045000D01*
X135990000Y-113805750D01*
X135831250Y-113647000D01*
X134957000Y-113647000D01*
X134703000Y-113647000D01*
X133432000Y-113647000D01*
X133178000Y-113647000D01*
X131907000Y-113647000D01*
X131653000Y-113647000D01*
X130778750Y-113647000D01*
X130620000Y-113805750D01*
X130616928Y-114045000D01*
X126623072Y-114045000D01*
X126623072Y-113605000D01*
X126610812Y-113480518D01*
X126592454Y-113420000D01*
X126610812Y-113359482D01*
X126623072Y-113235000D01*
X126623072Y-112995000D01*
X130616928Y-112995000D01*
X130620000Y-113234250D01*
X130778750Y-113393000D01*
X131653000Y-113393000D01*
X131653000Y-112518750D01*
X131907000Y-112518750D01*
X131907000Y-113393000D01*
X133178000Y-113393000D01*
X133178000Y-112518750D01*
X133432000Y-112518750D01*
X133432000Y-113393000D01*
X134703000Y-113393000D01*
X134703000Y-112518750D01*
X134957000Y-112518750D01*
X134957000Y-113393000D01*
X135831250Y-113393000D01*
X135990000Y-113234250D01*
X135993072Y-112995000D01*
X135980812Y-112870518D01*
X135944502Y-112750820D01*
X135885537Y-112640506D01*
X135806185Y-112543815D01*
X135709494Y-112464463D01*
X135599180Y-112405498D01*
X135479482Y-112369188D01*
X135355000Y-112356928D01*
X135115750Y-112360000D01*
X134957000Y-112518750D01*
X134703000Y-112518750D01*
X134544250Y-112360000D01*
X134305000Y-112356928D01*
X134180518Y-112369188D01*
X134067500Y-112403472D01*
X133954482Y-112369188D01*
X133830000Y-112356928D01*
X133590750Y-112360000D01*
X133432000Y-112518750D01*
X133178000Y-112518750D01*
X133019250Y-112360000D01*
X132780000Y-112356928D01*
X132655518Y-112369188D01*
X132542500Y-112403472D01*
X132429482Y-112369188D01*
X132305000Y-112356928D01*
X132065750Y-112360000D01*
X131907000Y-112518750D01*
X131653000Y-112518750D01*
X131494250Y-112360000D01*
X131255000Y-112356928D01*
X131130518Y-112369188D01*
X131010820Y-112405498D01*
X130900506Y-112464463D01*
X130803815Y-112543815D01*
X130724463Y-112640506D01*
X130665498Y-112750820D01*
X130629188Y-112870518D01*
X130616928Y-112995000D01*
X126623072Y-112995000D01*
X126623072Y-112335000D01*
X126610812Y-112210518D01*
X126592454Y-112150000D01*
X126610812Y-112089482D01*
X126623072Y-111965000D01*
X126623072Y-111234147D01*
X126698102Y-111265226D01*
X126898061Y-111305000D01*
X127101939Y-111305000D01*
X127301898Y-111265226D01*
X127490256Y-111187205D01*
X127659774Y-111073937D01*
X127803937Y-110929774D01*
X127917205Y-110760256D01*
X127995226Y-110571898D01*
X128035000Y-110371939D01*
X128035000Y-110168061D01*
X127995226Y-109968102D01*
X127917205Y-109779744D01*
X127803937Y-109610226D01*
X127659774Y-109466063D01*
X127490256Y-109352795D01*
X127301898Y-109274774D01*
X127101939Y-109235000D01*
X126898061Y-109235000D01*
X126698102Y-109274774D01*
X126623072Y-109305853D01*
X126623072Y-108525000D01*
X126610812Y-108400518D01*
X126592454Y-108340000D01*
X126610812Y-108279482D01*
X126623072Y-108155000D01*
X126620000Y-107990750D01*
X126461250Y-107832000D01*
X125362000Y-107832000D01*
X125362000Y-107852000D01*
X125108000Y-107852000D01*
X125108000Y-107832000D01*
X125088000Y-107832000D01*
X125088000Y-107578000D01*
X125108000Y-107578000D01*
X125108000Y-107558000D01*
X125362000Y-107558000D01*
X125362000Y-107578000D01*
X126461250Y-107578000D01*
X126620000Y-107419250D01*
X126623072Y-107255000D01*
X126619822Y-107222000D01*
X141350178Y-107222000D01*
X141346928Y-107255000D01*
G37*
%TD.AperFunction*%
%TD*%
M02*
