%TF.GenerationSoftware,KiCad,Pcbnew,(5.1.9)-1*%
%TF.CreationDate,2021-03-27T11:47:09+01:00*%
%TF.ProjectId,ESP32_Tasmota_Fan,45535033-325f-4546-9173-6d6f74615f46,rev?*%
%TF.SameCoordinates,Original*%
%TF.FileFunction,Legend,Top*%
%TF.FilePolarity,Positive*%
%FSLAX46Y46*%
G04 Gerber Fmt 4.6, Leading zero omitted, Abs format (unit mm)*
G04 Created by KiCad (PCBNEW (5.1.9)-1) date 2021-03-27 11:47:09*
%MOMM*%
%LPD*%
G01*
G04 APERTURE LIST*
%ADD10C,0.150000*%
%ADD11C,0.200000*%
%ADD12C,0.500000*%
%ADD13C,0.120000*%
%ADD14C,0.100000*%
G04 APERTURE END LIST*
D10*
X97499047Y-114703571D02*
X97641904Y-114751190D01*
X97689523Y-114798809D01*
X97737142Y-114894047D01*
X97737142Y-115036904D01*
X97689523Y-115132142D01*
X97641904Y-115179761D01*
X97546666Y-115227380D01*
X97165714Y-115227380D01*
X97165714Y-114227380D01*
X97499047Y-114227380D01*
X97594285Y-114275000D01*
X97641904Y-114322619D01*
X97689523Y-114417857D01*
X97689523Y-114513095D01*
X97641904Y-114608333D01*
X97594285Y-114655952D01*
X97499047Y-114703571D01*
X97165714Y-114703571D01*
X98165714Y-115227380D02*
X98165714Y-114227380D01*
X98499047Y-114941666D01*
X98832380Y-114227380D01*
X98832380Y-115227380D01*
X99308571Y-114703571D02*
X99641904Y-114703571D01*
X99784761Y-115227380D02*
X99308571Y-115227380D01*
X99308571Y-114227380D01*
X99784761Y-114227380D01*
X100165714Y-114322619D02*
X100213333Y-114275000D01*
X100308571Y-114227380D01*
X100546666Y-114227380D01*
X100641904Y-114275000D01*
X100689523Y-114322619D01*
X100737142Y-114417857D01*
X100737142Y-114513095D01*
X100689523Y-114655952D01*
X100118095Y-115227380D01*
X100737142Y-115227380D01*
X101308571Y-114655952D02*
X101213333Y-114608333D01*
X101165714Y-114560714D01*
X101118095Y-114465476D01*
X101118095Y-114417857D01*
X101165714Y-114322619D01*
X101213333Y-114275000D01*
X101308571Y-114227380D01*
X101499047Y-114227380D01*
X101594285Y-114275000D01*
X101641904Y-114322619D01*
X101689523Y-114417857D01*
X101689523Y-114465476D01*
X101641904Y-114560714D01*
X101594285Y-114608333D01*
X101499047Y-114655952D01*
X101308571Y-114655952D01*
X101213333Y-114703571D01*
X101165714Y-114751190D01*
X101118095Y-114846428D01*
X101118095Y-115036904D01*
X101165714Y-115132142D01*
X101213333Y-115179761D01*
X101308571Y-115227380D01*
X101499047Y-115227380D01*
X101594285Y-115179761D01*
X101641904Y-115132142D01*
X101689523Y-115036904D01*
X101689523Y-114846428D01*
X101641904Y-114751190D01*
X101594285Y-114703571D01*
X101499047Y-114655952D01*
X102308571Y-114227380D02*
X102403809Y-114227380D01*
X102499047Y-114275000D01*
X102546666Y-114322619D01*
X102594285Y-114417857D01*
X102641904Y-114608333D01*
X102641904Y-114846428D01*
X102594285Y-115036904D01*
X102546666Y-115132142D01*
X102499047Y-115179761D01*
X102403809Y-115227380D01*
X102308571Y-115227380D01*
X102213333Y-115179761D01*
X102165714Y-115132142D01*
X102118095Y-115036904D01*
X102070476Y-114846428D01*
X102070476Y-114608333D01*
X102118095Y-114417857D01*
X102165714Y-114322619D01*
X102213333Y-114275000D01*
X102308571Y-114227380D01*
X96189523Y-116829761D02*
X96332380Y-116877380D01*
X96570476Y-116877380D01*
X96665714Y-116829761D01*
X96713333Y-116782142D01*
X96760952Y-116686904D01*
X96760952Y-116591666D01*
X96713333Y-116496428D01*
X96665714Y-116448809D01*
X96570476Y-116401190D01*
X96380000Y-116353571D01*
X96284761Y-116305952D01*
X96237142Y-116258333D01*
X96189523Y-116163095D01*
X96189523Y-116067857D01*
X96237142Y-115972619D01*
X96284761Y-115925000D01*
X96380000Y-115877380D01*
X96618095Y-115877380D01*
X96760952Y-115925000D01*
X97189523Y-116877380D02*
X97189523Y-115877380D01*
X97427619Y-115877380D01*
X97570476Y-115925000D01*
X97665714Y-116020238D01*
X97713333Y-116115476D01*
X97760952Y-116305952D01*
X97760952Y-116448809D01*
X97713333Y-116639285D01*
X97665714Y-116734523D01*
X97570476Y-116829761D01*
X97427619Y-116877380D01*
X97189523Y-116877380D01*
X98141904Y-116591666D02*
X98618095Y-116591666D01*
X98046666Y-116877380D02*
X98380000Y-115877380D01*
X98713333Y-116877380D01*
X99808571Y-116877380D02*
X99808571Y-115877380D01*
X100475238Y-115877380D02*
X100665714Y-115877380D01*
X100760952Y-115925000D01*
X100856190Y-116020238D01*
X100903809Y-116210714D01*
X100903809Y-116544047D01*
X100856190Y-116734523D01*
X100760952Y-116829761D01*
X100665714Y-116877380D01*
X100475238Y-116877380D01*
X100380000Y-116829761D01*
X100284761Y-116734523D01*
X100237142Y-116544047D01*
X100237142Y-116210714D01*
X100284761Y-116020238D01*
X100380000Y-115925000D01*
X100475238Y-115877380D01*
X101094285Y-116972619D02*
X101856190Y-116972619D01*
X101999047Y-115877380D02*
X102618095Y-115877380D01*
X102284761Y-116258333D01*
X102427619Y-116258333D01*
X102522857Y-116305952D01*
X102570476Y-116353571D01*
X102618095Y-116448809D01*
X102618095Y-116686904D01*
X102570476Y-116782142D01*
X102522857Y-116829761D01*
X102427619Y-116877380D01*
X102141904Y-116877380D01*
X102046666Y-116829761D01*
X101999047Y-116782142D01*
X103475238Y-116210714D02*
X103475238Y-116877380D01*
X103237142Y-115829761D02*
X102999047Y-116544047D01*
X103618095Y-116544047D01*
X96213333Y-118479761D02*
X96356190Y-118527380D01*
X96594285Y-118527380D01*
X96689523Y-118479761D01*
X96737142Y-118432142D01*
X96784761Y-118336904D01*
X96784761Y-118241666D01*
X96737142Y-118146428D01*
X96689523Y-118098809D01*
X96594285Y-118051190D01*
X96403809Y-118003571D01*
X96308571Y-117955952D01*
X96260952Y-117908333D01*
X96213333Y-117813095D01*
X96213333Y-117717857D01*
X96260952Y-117622619D01*
X96308571Y-117575000D01*
X96403809Y-117527380D01*
X96641904Y-117527380D01*
X96784761Y-117575000D01*
X97784761Y-118432142D02*
X97737142Y-118479761D01*
X97594285Y-118527380D01*
X97499047Y-118527380D01*
X97356190Y-118479761D01*
X97260952Y-118384523D01*
X97213333Y-118289285D01*
X97165714Y-118098809D01*
X97165714Y-117955952D01*
X97213333Y-117765476D01*
X97260952Y-117670238D01*
X97356190Y-117575000D01*
X97499047Y-117527380D01*
X97594285Y-117527380D01*
X97737142Y-117575000D01*
X97784761Y-117622619D01*
X98689523Y-118527380D02*
X98213333Y-118527380D01*
X98213333Y-117527380D01*
X99784761Y-118527380D02*
X99784761Y-117527380D01*
X100451428Y-117527380D02*
X100641904Y-117527380D01*
X100737142Y-117575000D01*
X100832380Y-117670238D01*
X100880000Y-117860714D01*
X100880000Y-118194047D01*
X100832380Y-118384523D01*
X100737142Y-118479761D01*
X100641904Y-118527380D01*
X100451428Y-118527380D01*
X100356190Y-118479761D01*
X100260952Y-118384523D01*
X100213333Y-118194047D01*
X100213333Y-117860714D01*
X100260952Y-117670238D01*
X100356190Y-117575000D01*
X100451428Y-117527380D01*
X101070476Y-118622619D02*
X101832380Y-118622619D01*
X102022857Y-117622619D02*
X102070476Y-117575000D01*
X102165714Y-117527380D01*
X102403809Y-117527380D01*
X102499047Y-117575000D01*
X102546666Y-117622619D01*
X102594285Y-117717857D01*
X102594285Y-117813095D01*
X102546666Y-117955952D01*
X101975238Y-118527380D01*
X102594285Y-118527380D01*
X102927619Y-117527380D02*
X103546666Y-117527380D01*
X103213333Y-117908333D01*
X103356190Y-117908333D01*
X103451428Y-117955952D01*
X103499047Y-118003571D01*
X103546666Y-118098809D01*
X103546666Y-118336904D01*
X103499047Y-118432142D01*
X103451428Y-118479761D01*
X103356190Y-118527380D01*
X103070476Y-118527380D01*
X102975238Y-118479761D01*
X102927619Y-118432142D01*
X108887142Y-121757380D02*
X108887142Y-120757380D01*
X109268095Y-120757380D01*
X109363333Y-120805000D01*
X109410952Y-120852619D01*
X109458571Y-120947857D01*
X109458571Y-121090714D01*
X109410952Y-121185952D01*
X109363333Y-121233571D01*
X109268095Y-121281190D01*
X108887142Y-121281190D01*
X109791904Y-120757380D02*
X110030000Y-121757380D01*
X110220476Y-121043095D01*
X110410952Y-121757380D01*
X110649047Y-120757380D01*
X111030000Y-121757380D02*
X111030000Y-120757380D01*
X111363333Y-121471666D01*
X111696666Y-120757380D01*
X111696666Y-121757380D01*
X115077619Y-120757380D02*
X115649047Y-120757380D01*
X115363333Y-121757380D02*
X115363333Y-120757380D01*
X115934761Y-121471666D02*
X116410952Y-121471666D01*
X115839523Y-121757380D02*
X116172857Y-120757380D01*
X116506190Y-121757380D01*
X117410952Y-121662142D02*
X117363333Y-121709761D01*
X117220476Y-121757380D01*
X117125238Y-121757380D01*
X116982380Y-121709761D01*
X116887142Y-121614523D01*
X116839523Y-121519285D01*
X116791904Y-121328809D01*
X116791904Y-121185952D01*
X116839523Y-120995476D01*
X116887142Y-120900238D01*
X116982380Y-120805000D01*
X117125238Y-120757380D01*
X117220476Y-120757380D01*
X117363333Y-120805000D01*
X117410952Y-120852619D01*
X117839523Y-121757380D02*
X117839523Y-120757380D01*
X117839523Y-121233571D02*
X118410952Y-121233571D01*
X118410952Y-121757380D02*
X118410952Y-120757380D01*
X119077619Y-120757380D02*
X119268095Y-120757380D01*
X119363333Y-120805000D01*
X119458571Y-120900238D01*
X119506190Y-121090714D01*
X119506190Y-121424047D01*
X119458571Y-121614523D01*
X119363333Y-121709761D01*
X119268095Y-121757380D01*
X119077619Y-121757380D01*
X118982380Y-121709761D01*
X118887142Y-121614523D01*
X118839523Y-121424047D01*
X118839523Y-121090714D01*
X118887142Y-120900238D01*
X118982380Y-120805000D01*
X119077619Y-120757380D01*
X107220476Y-123407380D02*
X106649047Y-123407380D01*
X106934761Y-123407380D02*
X106934761Y-122407380D01*
X106839523Y-122550238D01*
X106744285Y-122645476D01*
X106649047Y-122693095D01*
X107649047Y-123312142D02*
X107696666Y-123359761D01*
X107649047Y-123407380D01*
X107601428Y-123359761D01*
X107649047Y-123312142D01*
X107649047Y-123407380D01*
X107649047Y-122788333D02*
X107696666Y-122835952D01*
X107649047Y-122883571D01*
X107601428Y-122835952D01*
X107649047Y-122788333D01*
X107649047Y-122883571D01*
X108887142Y-123407380D02*
X108887142Y-122407380D01*
X109553809Y-122407380D02*
X109744285Y-122407380D01*
X109839523Y-122455000D01*
X109934761Y-122550238D01*
X109982380Y-122740714D01*
X109982380Y-123074047D01*
X109934761Y-123264523D01*
X109839523Y-123359761D01*
X109744285Y-123407380D01*
X109553809Y-123407380D01*
X109458571Y-123359761D01*
X109363333Y-123264523D01*
X109315714Y-123074047D01*
X109315714Y-122740714D01*
X109363333Y-122550238D01*
X109458571Y-122455000D01*
X109553809Y-122407380D01*
X110172857Y-123502619D02*
X110934761Y-123502619D01*
X111363333Y-122407380D02*
X111458571Y-122407380D01*
X111553809Y-122455000D01*
X111601428Y-122502619D01*
X111649047Y-122597857D01*
X111696666Y-122788333D01*
X111696666Y-123026428D01*
X111649047Y-123216904D01*
X111601428Y-123312142D01*
X111553809Y-123359761D01*
X111458571Y-123407380D01*
X111363333Y-123407380D01*
X111268095Y-123359761D01*
X111220476Y-123312142D01*
X111172857Y-123216904D01*
X111125238Y-123026428D01*
X111125238Y-122788333D01*
X111172857Y-122597857D01*
X111220476Y-122502619D01*
X111268095Y-122455000D01*
X111363333Y-122407380D01*
X112077619Y-122502619D02*
X112125238Y-122455000D01*
X112220476Y-122407380D01*
X112458571Y-122407380D01*
X112553809Y-122455000D01*
X112601428Y-122502619D01*
X112649047Y-122597857D01*
X112649047Y-122693095D01*
X112601428Y-122835952D01*
X112030000Y-123407380D01*
X112649047Y-123407380D01*
X114553809Y-122359761D02*
X113696666Y-123645476D01*
X115649047Y-123407380D02*
X115649047Y-122407380D01*
X116315714Y-122407380D02*
X116506190Y-122407380D01*
X116601428Y-122455000D01*
X116696666Y-122550238D01*
X116744285Y-122740714D01*
X116744285Y-123074047D01*
X116696666Y-123264523D01*
X116601428Y-123359761D01*
X116506190Y-123407380D01*
X116315714Y-123407380D01*
X116220476Y-123359761D01*
X116125238Y-123264523D01*
X116077619Y-123074047D01*
X116077619Y-122740714D01*
X116125238Y-122550238D01*
X116220476Y-122455000D01*
X116315714Y-122407380D01*
X116934761Y-123502619D02*
X117696666Y-123502619D01*
X118125238Y-122407380D02*
X118220476Y-122407380D01*
X118315714Y-122455000D01*
X118363333Y-122502619D01*
X118410952Y-122597857D01*
X118458571Y-122788333D01*
X118458571Y-123026428D01*
X118410952Y-123216904D01*
X118363333Y-123312142D01*
X118315714Y-123359761D01*
X118220476Y-123407380D01*
X118125238Y-123407380D01*
X118030000Y-123359761D01*
X117982380Y-123312142D01*
X117934761Y-123216904D01*
X117887142Y-123026428D01*
X117887142Y-122788333D01*
X117934761Y-122597857D01*
X117982380Y-122502619D01*
X118030000Y-122455000D01*
X118125238Y-122407380D01*
X119077619Y-122407380D02*
X119172857Y-122407380D01*
X119268095Y-122455000D01*
X119315714Y-122502619D01*
X119363333Y-122597857D01*
X119410952Y-122788333D01*
X119410952Y-123026428D01*
X119363333Y-123216904D01*
X119315714Y-123312142D01*
X119268095Y-123359761D01*
X119172857Y-123407380D01*
X119077619Y-123407380D01*
X118982380Y-123359761D01*
X118934761Y-123312142D01*
X118887142Y-123216904D01*
X118839523Y-123026428D01*
X118839523Y-122788333D01*
X118887142Y-122597857D01*
X118934761Y-122502619D01*
X118982380Y-122455000D01*
X119077619Y-122407380D01*
X106649047Y-124152619D02*
X106696666Y-124105000D01*
X106791904Y-124057380D01*
X107030000Y-124057380D01*
X107125238Y-124105000D01*
X107172857Y-124152619D01*
X107220476Y-124247857D01*
X107220476Y-124343095D01*
X107172857Y-124485952D01*
X106601428Y-125057380D01*
X107220476Y-125057380D01*
X107649047Y-124962142D02*
X107696666Y-125009761D01*
X107649047Y-125057380D01*
X107601428Y-125009761D01*
X107649047Y-124962142D01*
X107649047Y-125057380D01*
X107649047Y-124438333D02*
X107696666Y-124485952D01*
X107649047Y-124533571D01*
X107601428Y-124485952D01*
X107649047Y-124438333D01*
X107649047Y-124533571D01*
X108887142Y-125057380D02*
X108887142Y-124057380D01*
X109553809Y-124057380D02*
X109744285Y-124057380D01*
X109839523Y-124105000D01*
X109934761Y-124200238D01*
X109982380Y-124390714D01*
X109982380Y-124724047D01*
X109934761Y-124914523D01*
X109839523Y-125009761D01*
X109744285Y-125057380D01*
X109553809Y-125057380D01*
X109458571Y-125009761D01*
X109363333Y-124914523D01*
X109315714Y-124724047D01*
X109315714Y-124390714D01*
X109363333Y-124200238D01*
X109458571Y-124105000D01*
X109553809Y-124057380D01*
X110172857Y-125152619D02*
X110934761Y-125152619D01*
X111696666Y-125057380D02*
X111125238Y-125057380D01*
X111410952Y-125057380D02*
X111410952Y-124057380D01*
X111315714Y-124200238D01*
X111220476Y-124295476D01*
X111125238Y-124343095D01*
X112553809Y-124057380D02*
X112363333Y-124057380D01*
X112268095Y-124105000D01*
X112220476Y-124152619D01*
X112125238Y-124295476D01*
X112077619Y-124485952D01*
X112077619Y-124866904D01*
X112125238Y-124962142D01*
X112172857Y-125009761D01*
X112268095Y-125057380D01*
X112458571Y-125057380D01*
X112553809Y-125009761D01*
X112601428Y-124962142D01*
X112649047Y-124866904D01*
X112649047Y-124628809D01*
X112601428Y-124533571D01*
X112553809Y-124485952D01*
X112458571Y-124438333D01*
X112268095Y-124438333D01*
X112172857Y-124485952D01*
X112125238Y-124533571D01*
X112077619Y-124628809D01*
X114553809Y-124009761D02*
X113696666Y-125295476D01*
X115649047Y-125057380D02*
X115649047Y-124057380D01*
X116315714Y-124057380D02*
X116506190Y-124057380D01*
X116601428Y-124105000D01*
X116696666Y-124200238D01*
X116744285Y-124390714D01*
X116744285Y-124724047D01*
X116696666Y-124914523D01*
X116601428Y-125009761D01*
X116506190Y-125057380D01*
X116315714Y-125057380D01*
X116220476Y-125009761D01*
X116125238Y-124914523D01*
X116077619Y-124724047D01*
X116077619Y-124390714D01*
X116125238Y-124200238D01*
X116220476Y-124105000D01*
X116315714Y-124057380D01*
X116934761Y-125152619D02*
X117696666Y-125152619D01*
X118125238Y-124057380D02*
X118220476Y-124057380D01*
X118315714Y-124105000D01*
X118363333Y-124152619D01*
X118410952Y-124247857D01*
X118458571Y-124438333D01*
X118458571Y-124676428D01*
X118410952Y-124866904D01*
X118363333Y-124962142D01*
X118315714Y-125009761D01*
X118220476Y-125057380D01*
X118125238Y-125057380D01*
X118030000Y-125009761D01*
X117982380Y-124962142D01*
X117934761Y-124866904D01*
X117887142Y-124676428D01*
X117887142Y-124438333D01*
X117934761Y-124247857D01*
X117982380Y-124152619D01*
X118030000Y-124105000D01*
X118125238Y-124057380D01*
X119315714Y-124390714D02*
X119315714Y-125057380D01*
X119077619Y-124009761D02*
X118839523Y-124724047D01*
X119458571Y-124724047D01*
X106601428Y-125707380D02*
X107220476Y-125707380D01*
X106887142Y-126088333D01*
X107030000Y-126088333D01*
X107125238Y-126135952D01*
X107172857Y-126183571D01*
X107220476Y-126278809D01*
X107220476Y-126516904D01*
X107172857Y-126612142D01*
X107125238Y-126659761D01*
X107030000Y-126707380D01*
X106744285Y-126707380D01*
X106649047Y-126659761D01*
X106601428Y-126612142D01*
X107649047Y-126612142D02*
X107696666Y-126659761D01*
X107649047Y-126707380D01*
X107601428Y-126659761D01*
X107649047Y-126612142D01*
X107649047Y-126707380D01*
X107649047Y-126088333D02*
X107696666Y-126135952D01*
X107649047Y-126183571D01*
X107601428Y-126135952D01*
X107649047Y-126088333D01*
X107649047Y-126183571D01*
X108887142Y-126707380D02*
X108887142Y-125707380D01*
X109553809Y-125707380D02*
X109744285Y-125707380D01*
X109839523Y-125755000D01*
X109934761Y-125850238D01*
X109982380Y-126040714D01*
X109982380Y-126374047D01*
X109934761Y-126564523D01*
X109839523Y-126659761D01*
X109744285Y-126707380D01*
X109553809Y-126707380D01*
X109458571Y-126659761D01*
X109363333Y-126564523D01*
X109315714Y-126374047D01*
X109315714Y-126040714D01*
X109363333Y-125850238D01*
X109458571Y-125755000D01*
X109553809Y-125707380D01*
X110172857Y-126802619D02*
X110934761Y-126802619D01*
X111696666Y-126707380D02*
X111125238Y-126707380D01*
X111410952Y-126707380D02*
X111410952Y-125707380D01*
X111315714Y-125850238D01*
X111220476Y-125945476D01*
X111125238Y-125993095D01*
X112077619Y-125802619D02*
X112125238Y-125755000D01*
X112220476Y-125707380D01*
X112458571Y-125707380D01*
X112553809Y-125755000D01*
X112601428Y-125802619D01*
X112649047Y-125897857D01*
X112649047Y-125993095D01*
X112601428Y-126135952D01*
X112030000Y-126707380D01*
X112649047Y-126707380D01*
X114553809Y-125659761D02*
X113696666Y-126945476D01*
X115649047Y-126707380D02*
X115649047Y-125707380D01*
X116315714Y-125707380D02*
X116506190Y-125707380D01*
X116601428Y-125755000D01*
X116696666Y-125850238D01*
X116744285Y-126040714D01*
X116744285Y-126374047D01*
X116696666Y-126564523D01*
X116601428Y-126659761D01*
X116506190Y-126707380D01*
X116315714Y-126707380D01*
X116220476Y-126659761D01*
X116125238Y-126564523D01*
X116077619Y-126374047D01*
X116077619Y-126040714D01*
X116125238Y-125850238D01*
X116220476Y-125755000D01*
X116315714Y-125707380D01*
X116934761Y-126802619D02*
X117696666Y-126802619D01*
X117887142Y-125802619D02*
X117934761Y-125755000D01*
X118030000Y-125707380D01*
X118268095Y-125707380D01*
X118363333Y-125755000D01*
X118410952Y-125802619D01*
X118458571Y-125897857D01*
X118458571Y-125993095D01*
X118410952Y-126135952D01*
X117839523Y-126707380D01*
X118458571Y-126707380D01*
X119410952Y-126707380D02*
X118839523Y-126707380D01*
X119125238Y-126707380D02*
X119125238Y-125707380D01*
X119030000Y-125850238D01*
X118934761Y-125945476D01*
X118839523Y-125993095D01*
X107125238Y-127690714D02*
X107125238Y-128357380D01*
X106887142Y-127309761D02*
X106649047Y-128024047D01*
X107268095Y-128024047D01*
X107649047Y-128262142D02*
X107696666Y-128309761D01*
X107649047Y-128357380D01*
X107601428Y-128309761D01*
X107649047Y-128262142D01*
X107649047Y-128357380D01*
X107649047Y-127738333D02*
X107696666Y-127785952D01*
X107649047Y-127833571D01*
X107601428Y-127785952D01*
X107649047Y-127738333D01*
X107649047Y-127833571D01*
X108887142Y-128357380D02*
X108887142Y-127357380D01*
X109553809Y-127357380D02*
X109744285Y-127357380D01*
X109839523Y-127405000D01*
X109934761Y-127500238D01*
X109982380Y-127690714D01*
X109982380Y-128024047D01*
X109934761Y-128214523D01*
X109839523Y-128309761D01*
X109744285Y-128357380D01*
X109553809Y-128357380D01*
X109458571Y-128309761D01*
X109363333Y-128214523D01*
X109315714Y-128024047D01*
X109315714Y-127690714D01*
X109363333Y-127500238D01*
X109458571Y-127405000D01*
X109553809Y-127357380D01*
X110172857Y-128452619D02*
X110934761Y-128452619D01*
X111077619Y-127357380D02*
X111696666Y-127357380D01*
X111363333Y-127738333D01*
X111506190Y-127738333D01*
X111601428Y-127785952D01*
X111649047Y-127833571D01*
X111696666Y-127928809D01*
X111696666Y-128166904D01*
X111649047Y-128262142D01*
X111601428Y-128309761D01*
X111506190Y-128357380D01*
X111220476Y-128357380D01*
X111125238Y-128309761D01*
X111077619Y-128262142D01*
X112077619Y-127452619D02*
X112125238Y-127405000D01*
X112220476Y-127357380D01*
X112458571Y-127357380D01*
X112553809Y-127405000D01*
X112601428Y-127452619D01*
X112649047Y-127547857D01*
X112649047Y-127643095D01*
X112601428Y-127785952D01*
X112030000Y-128357380D01*
X112649047Y-128357380D01*
X114553809Y-127309761D02*
X113696666Y-128595476D01*
X115649047Y-128357380D02*
X115649047Y-127357380D01*
X116315714Y-127357380D02*
X116506190Y-127357380D01*
X116601428Y-127405000D01*
X116696666Y-127500238D01*
X116744285Y-127690714D01*
X116744285Y-128024047D01*
X116696666Y-128214523D01*
X116601428Y-128309761D01*
X116506190Y-128357380D01*
X116315714Y-128357380D01*
X116220476Y-128309761D01*
X116125238Y-128214523D01*
X116077619Y-128024047D01*
X116077619Y-127690714D01*
X116125238Y-127500238D01*
X116220476Y-127405000D01*
X116315714Y-127357380D01*
X116934761Y-128452619D02*
X117696666Y-128452619D01*
X117887142Y-127452619D02*
X117934761Y-127405000D01*
X118030000Y-127357380D01*
X118268095Y-127357380D01*
X118363333Y-127405000D01*
X118410952Y-127452619D01*
X118458571Y-127547857D01*
X118458571Y-127643095D01*
X118410952Y-127785952D01*
X117839523Y-128357380D01*
X118458571Y-128357380D01*
X119363333Y-127357380D02*
X118887142Y-127357380D01*
X118839523Y-127833571D01*
X118887142Y-127785952D01*
X118982380Y-127738333D01*
X119220476Y-127738333D01*
X119315714Y-127785952D01*
X119363333Y-127833571D01*
X119410952Y-127928809D01*
X119410952Y-128166904D01*
X119363333Y-128262142D01*
X119315714Y-128309761D01*
X119220476Y-128357380D01*
X118982380Y-128357380D01*
X118887142Y-128309761D01*
X118839523Y-128262142D01*
D11*
X137012142Y-117012857D02*
X137512142Y-117012857D01*
X137726428Y-117798571D02*
X137012142Y-117798571D01*
X137012142Y-116298571D01*
X137726428Y-116298571D01*
X138369285Y-117798571D02*
X138369285Y-116298571D01*
X139226428Y-117798571D01*
X139226428Y-116298571D01*
X137012142Y-120248571D02*
X137012142Y-118748571D01*
X137726428Y-120248571D02*
X137726428Y-118748571D01*
X138583571Y-120248571D01*
X138583571Y-118748571D01*
X139297857Y-119677142D02*
X140440714Y-119677142D01*
X139869285Y-120248571D02*
X139869285Y-119105714D01*
X137797857Y-121270000D02*
X137655000Y-121198571D01*
X137440714Y-121198571D01*
X137226428Y-121270000D01*
X137083571Y-121412857D01*
X137012142Y-121555714D01*
X136940714Y-121841428D01*
X136940714Y-122055714D01*
X137012142Y-122341428D01*
X137083571Y-122484285D01*
X137226428Y-122627142D01*
X137440714Y-122698571D01*
X137583571Y-122698571D01*
X137797857Y-122627142D01*
X137869285Y-122555714D01*
X137869285Y-122055714D01*
X137583571Y-122055714D01*
X138512142Y-122698571D02*
X138512142Y-121198571D01*
X139369285Y-122698571D01*
X139369285Y-121198571D01*
X140083571Y-122698571D02*
X140083571Y-121198571D01*
X140440714Y-121198571D01*
X140655000Y-121270000D01*
X140797857Y-121412857D01*
X140869285Y-121555714D01*
X140940714Y-121841428D01*
X140940714Y-122055714D01*
X140869285Y-122341428D01*
X140797857Y-122484285D01*
X140655000Y-122627142D01*
X140440714Y-122698571D01*
X140083571Y-122698571D01*
X136797857Y-123648571D02*
X137297857Y-125148571D01*
X137797857Y-123648571D01*
X138583571Y-123648571D02*
X138869285Y-123648571D01*
X139012142Y-123720000D01*
X139155000Y-123862857D01*
X139226428Y-124148571D01*
X139226428Y-124648571D01*
X139155000Y-124934285D01*
X139012142Y-125077142D01*
X138869285Y-125148571D01*
X138583571Y-125148571D01*
X138440714Y-125077142D01*
X138297857Y-124934285D01*
X138226428Y-124648571D01*
X138226428Y-124148571D01*
X138297857Y-123862857D01*
X138440714Y-123720000D01*
X138583571Y-123648571D01*
X139869285Y-124577142D02*
X141012142Y-124577142D01*
X140440714Y-125148571D02*
X140440714Y-124005714D01*
X137838571Y-112925714D02*
X136338571Y-112925714D01*
X136338571Y-111925714D02*
X136338571Y-111640000D01*
X136410000Y-111497142D01*
X136552857Y-111354285D01*
X136838571Y-111282857D01*
X137338571Y-111282857D01*
X137624285Y-111354285D01*
X137767142Y-111497142D01*
X137838571Y-111640000D01*
X137838571Y-111925714D01*
X137767142Y-112068571D01*
X137624285Y-112211428D01*
X137338571Y-112282857D01*
X136838571Y-112282857D01*
X136552857Y-112211428D01*
X136410000Y-112068571D01*
X136338571Y-111925714D01*
X137838571Y-109854285D02*
X137838571Y-110711428D01*
X137838571Y-110282857D02*
X136338571Y-110282857D01*
X136552857Y-110425714D01*
X136695714Y-110568571D01*
X136767142Y-110711428D01*
X137838571Y-109140000D02*
X137838571Y-108854285D01*
X137767142Y-108711428D01*
X137695714Y-108640000D01*
X137481428Y-108497142D01*
X137195714Y-108425714D01*
X136624285Y-108425714D01*
X136481428Y-108497142D01*
X136410000Y-108568571D01*
X136338571Y-108711428D01*
X136338571Y-108997142D01*
X136410000Y-109140000D01*
X136481428Y-109211428D01*
X136624285Y-109282857D01*
X136981428Y-109282857D01*
X137124285Y-109211428D01*
X137195714Y-109140000D01*
X137267142Y-108997142D01*
X137267142Y-108711428D01*
X137195714Y-108568571D01*
X137124285Y-108497142D01*
X136981428Y-108425714D01*
X132758571Y-112925714D02*
X131258571Y-112925714D01*
X131258571Y-111925714D02*
X131258571Y-111640000D01*
X131330000Y-111497142D01*
X131472857Y-111354285D01*
X131758571Y-111282857D01*
X132258571Y-111282857D01*
X132544285Y-111354285D01*
X132687142Y-111497142D01*
X132758571Y-111640000D01*
X132758571Y-111925714D01*
X132687142Y-112068571D01*
X132544285Y-112211428D01*
X132258571Y-112282857D01*
X131758571Y-112282857D01*
X131472857Y-112211428D01*
X131330000Y-112068571D01*
X131258571Y-111925714D01*
X131258571Y-110782857D02*
X131258571Y-109854285D01*
X131830000Y-110354285D01*
X131830000Y-110140000D01*
X131901428Y-109997142D01*
X131972857Y-109925714D01*
X132115714Y-109854285D01*
X132472857Y-109854285D01*
X132615714Y-109925714D01*
X132687142Y-109997142D01*
X132758571Y-110140000D01*
X132758571Y-110568571D01*
X132687142Y-110711428D01*
X132615714Y-110782857D01*
X131258571Y-108497142D02*
X131258571Y-109211428D01*
X131972857Y-109282857D01*
X131901428Y-109211428D01*
X131830000Y-109068571D01*
X131830000Y-108711428D01*
X131901428Y-108568571D01*
X131972857Y-108497142D01*
X132115714Y-108425714D01*
X132472857Y-108425714D01*
X132615714Y-108497142D01*
X132687142Y-108568571D01*
X132758571Y-108711428D01*
X132758571Y-109068571D01*
X132687142Y-109211428D01*
X132615714Y-109282857D01*
X141418571Y-112282857D02*
X142918571Y-111782857D01*
X141418571Y-111282857D01*
X142775714Y-109925714D02*
X142847142Y-109997142D01*
X142918571Y-110211428D01*
X142918571Y-110354285D01*
X142847142Y-110568571D01*
X142704285Y-110711428D01*
X142561428Y-110782857D01*
X142275714Y-110854285D01*
X142061428Y-110854285D01*
X141775714Y-110782857D01*
X141632857Y-110711428D01*
X141490000Y-110568571D01*
X141418571Y-110354285D01*
X141418571Y-110211428D01*
X141490000Y-109997142D01*
X141561428Y-109925714D01*
X142775714Y-108425714D02*
X142847142Y-108497142D01*
X142918571Y-108711428D01*
X142918571Y-108854285D01*
X142847142Y-109068571D01*
X142704285Y-109211428D01*
X142561428Y-109282857D01*
X142275714Y-109354285D01*
X142061428Y-109354285D01*
X141775714Y-109282857D01*
X141632857Y-109211428D01*
X141490000Y-109068571D01*
X141418571Y-108854285D01*
X141418571Y-108711428D01*
X141490000Y-108497142D01*
X141561428Y-108425714D01*
X138950000Y-111568571D02*
X138878571Y-111711428D01*
X138878571Y-111925714D01*
X138950000Y-112140000D01*
X139092857Y-112282857D01*
X139235714Y-112354285D01*
X139521428Y-112425714D01*
X139735714Y-112425714D01*
X140021428Y-112354285D01*
X140164285Y-112282857D01*
X140307142Y-112140000D01*
X140378571Y-111925714D01*
X140378571Y-111782857D01*
X140307142Y-111568571D01*
X140235714Y-111497142D01*
X139735714Y-111497142D01*
X139735714Y-111782857D01*
X140378571Y-110854285D02*
X138878571Y-110854285D01*
X140378571Y-109997142D01*
X138878571Y-109997142D01*
X140378571Y-109282857D02*
X138878571Y-109282857D01*
X138878571Y-108925714D01*
X138950000Y-108711428D01*
X139092857Y-108568571D01*
X139235714Y-108497142D01*
X139521428Y-108425714D01*
X139735714Y-108425714D01*
X140021428Y-108497142D01*
X140164285Y-108568571D01*
X140307142Y-108711428D01*
X140378571Y-108925714D01*
X140378571Y-109282857D01*
X135298571Y-112925714D02*
X133798571Y-112925714D01*
X133798571Y-111925714D02*
X133798571Y-111640000D01*
X133870000Y-111497142D01*
X134012857Y-111354285D01*
X134298571Y-111282857D01*
X134798571Y-111282857D01*
X135084285Y-111354285D01*
X135227142Y-111497142D01*
X135298571Y-111640000D01*
X135298571Y-111925714D01*
X135227142Y-112068571D01*
X135084285Y-112211428D01*
X134798571Y-112282857D01*
X134298571Y-112282857D01*
X134012857Y-112211428D01*
X133870000Y-112068571D01*
X133798571Y-111925714D01*
X135298571Y-109854285D02*
X135298571Y-110711428D01*
X135298571Y-110282857D02*
X133798571Y-110282857D01*
X134012857Y-110425714D01*
X134155714Y-110568571D01*
X134227142Y-110711428D01*
X134441428Y-108997142D02*
X134370000Y-109140000D01*
X134298571Y-109211428D01*
X134155714Y-109282857D01*
X134084285Y-109282857D01*
X133941428Y-109211428D01*
X133870000Y-109140000D01*
X133798571Y-108997142D01*
X133798571Y-108711428D01*
X133870000Y-108568571D01*
X133941428Y-108497142D01*
X134084285Y-108425714D01*
X134155714Y-108425714D01*
X134298571Y-108497142D01*
X134370000Y-108568571D01*
X134441428Y-108711428D01*
X134441428Y-108997142D01*
X134512857Y-109140000D01*
X134584285Y-109211428D01*
X134727142Y-109282857D01*
X135012857Y-109282857D01*
X135155714Y-109211428D01*
X135227142Y-109140000D01*
X135298571Y-108997142D01*
X135298571Y-108711428D01*
X135227142Y-108568571D01*
X135155714Y-108497142D01*
X135012857Y-108425714D01*
X134727142Y-108425714D01*
X134584285Y-108497142D01*
X134512857Y-108568571D01*
X134441428Y-108711428D01*
X130218571Y-112925714D02*
X128718571Y-112925714D01*
X128718571Y-111925714D02*
X128718571Y-111640000D01*
X128790000Y-111497142D01*
X128932857Y-111354285D01*
X129218571Y-111282857D01*
X129718571Y-111282857D01*
X130004285Y-111354285D01*
X130147142Y-111497142D01*
X130218571Y-111640000D01*
X130218571Y-111925714D01*
X130147142Y-112068571D01*
X130004285Y-112211428D01*
X129718571Y-112282857D01*
X129218571Y-112282857D01*
X128932857Y-112211428D01*
X128790000Y-112068571D01*
X128718571Y-111925714D01*
X128861428Y-110711428D02*
X128790000Y-110640000D01*
X128718571Y-110497142D01*
X128718571Y-110140000D01*
X128790000Y-109997142D01*
X128861428Y-109925714D01*
X129004285Y-109854285D01*
X129147142Y-109854285D01*
X129361428Y-109925714D01*
X130218571Y-110782857D01*
X130218571Y-109854285D01*
X128718571Y-108568571D02*
X128718571Y-108854285D01*
X128790000Y-108997142D01*
X128861428Y-109068571D01*
X129075714Y-109211428D01*
X129361428Y-109282857D01*
X129932857Y-109282857D01*
X130075714Y-109211428D01*
X130147142Y-109140000D01*
X130218571Y-108997142D01*
X130218571Y-108711428D01*
X130147142Y-108568571D01*
X130075714Y-108497142D01*
X129932857Y-108425714D01*
X129575714Y-108425714D01*
X129432857Y-108497142D01*
X129361428Y-108568571D01*
X129290000Y-108711428D01*
X129290000Y-108997142D01*
X129361428Y-109140000D01*
X129432857Y-109211428D01*
X129575714Y-109282857D01*
X153078571Y-124223571D02*
X151578571Y-124223571D01*
X151578571Y-123866428D01*
X151650000Y-123652142D01*
X151792857Y-123509285D01*
X151935714Y-123437857D01*
X152221428Y-123366428D01*
X152435714Y-123366428D01*
X152721428Y-123437857D01*
X152864285Y-123509285D01*
X153007142Y-123652142D01*
X153078571Y-123866428D01*
X153078571Y-124223571D01*
X152935714Y-121866428D02*
X153007142Y-121937857D01*
X153078571Y-122152142D01*
X153078571Y-122295000D01*
X153007142Y-122509285D01*
X152864285Y-122652142D01*
X152721428Y-122723571D01*
X152435714Y-122795000D01*
X152221428Y-122795000D01*
X151935714Y-122723571D01*
X151792857Y-122652142D01*
X151650000Y-122509285D01*
X151578571Y-122295000D01*
X151578571Y-122152142D01*
X151650000Y-121937857D01*
X151721428Y-121866428D01*
X151507142Y-120152142D02*
X153435714Y-121437857D01*
X153078571Y-119652142D02*
X151578571Y-119652142D01*
X151578571Y-119295000D01*
X151650000Y-119080714D01*
X151792857Y-118937857D01*
X151935714Y-118866428D01*
X152221428Y-118795000D01*
X152435714Y-118795000D01*
X152721428Y-118866428D01*
X152864285Y-118937857D01*
X153007142Y-119080714D01*
X153078571Y-119295000D01*
X153078571Y-119652142D01*
X152935714Y-117295000D02*
X153007142Y-117366428D01*
X153078571Y-117580714D01*
X153078571Y-117723571D01*
X153007142Y-117937857D01*
X152864285Y-118080714D01*
X152721428Y-118152142D01*
X152435714Y-118223571D01*
X152221428Y-118223571D01*
X151935714Y-118152142D01*
X151792857Y-118080714D01*
X151650000Y-117937857D01*
X151578571Y-117723571D01*
X151578571Y-117580714D01*
X151650000Y-117366428D01*
X151721428Y-117295000D01*
D12*
X138644285Y-139330714D02*
X138644285Y-137045000D01*
X139787142Y-138187857D02*
X137501428Y-138187857D01*
X139787142Y-134045000D02*
X139787142Y-135759285D01*
X139787142Y-134902142D02*
X136787142Y-134902142D01*
X137215714Y-135187857D01*
X137501428Y-135473571D01*
X137644285Y-135759285D01*
X137072857Y-132902142D02*
X136930000Y-132759285D01*
X136787142Y-132473571D01*
X136787142Y-131759285D01*
X136930000Y-131473571D01*
X137072857Y-131330714D01*
X137358571Y-131187857D01*
X137644285Y-131187857D01*
X138072857Y-131330714D01*
X139787142Y-133045000D01*
X139787142Y-131187857D01*
X136787142Y-130330714D02*
X139787142Y-129330714D01*
X136787142Y-128330714D01*
D13*
%TO.C,J1*%
X152400000Y-114445000D02*
X151130000Y-114445000D01*
X153670000Y-115715000D02*
X153670000Y-116985000D01*
X153670000Y-127145000D02*
X151130000Y-127145000D01*
X153670000Y-124605000D02*
X153670000Y-127145000D01*
X153670000Y-114445000D02*
X153670000Y-115715000D01*
X152400000Y-114445000D02*
X153670000Y-114445000D01*
X133290000Y-115715000D02*
X135950000Y-115715000D01*
X135950000Y-115715000D02*
X135950000Y-125935000D01*
X133290000Y-115715000D02*
X133290000Y-125935000D01*
X133290000Y-125935000D02*
X135950000Y-125935000D01*
%TO.C,J2*%
X128210000Y-104860000D02*
X128210000Y-107520000D01*
X143510000Y-104860000D02*
X128210000Y-104860000D01*
X143510000Y-107520000D02*
X128210000Y-107520000D01*
X143510000Y-104860000D02*
X143510000Y-107520000D01*
%TO.C,J8*%
X111760000Y-95395000D02*
X111760000Y-97935000D01*
X111760000Y-95395000D02*
X109220000Y-95395000D01*
X95250000Y-95395000D02*
X97790000Y-95395000D01*
X95250000Y-97935000D02*
X95250000Y-95395000D01*
X95250000Y-106885000D02*
X95250000Y-104225000D01*
X95250000Y-104225000D02*
X110550000Y-104225000D01*
X95250000Y-106885000D02*
X110550000Y-106885000D01*
X110550000Y-106885000D02*
X110550000Y-104225000D01*
%TO.C,D1*%
X118338870Y-105110163D02*
G75*
G02*
X120420961Y-105110000I1041130J-1079837D01*
G01*
X118338870Y-107269837D02*
G75*
G03*
X120420961Y-107270000I1041130J1079837D01*
G01*
%TO.C,U1*%
X95250000Y-113810000D02*
X95250000Y-136670000D01*
X132080000Y-113810000D02*
X132080000Y-136670000D01*
X100330000Y-111270000D02*
X95250000Y-111270000D01*
X132080000Y-136670000D02*
X129540000Y-139210000D01*
X129540000Y-139210000D02*
X95250000Y-139210000D01*
X128270000Y-108730000D02*
X100330000Y-108730000D01*
X100330000Y-108730000D02*
X100330000Y-111270000D01*
D14*
G36*
X96520000Y-110000000D02*
G01*
X99060000Y-110000000D01*
X99060000Y-111270000D01*
X96520000Y-111270000D01*
X96520000Y-110000000D01*
G37*
X96520000Y-110000000D02*
X99060000Y-110000000D01*
X99060000Y-111270000D01*
X96520000Y-111270000D01*
X96520000Y-110000000D01*
D13*
X95250000Y-111270000D02*
X95250000Y-113810000D01*
X95250000Y-136670000D02*
X95250000Y-139210000D01*
%TO.C,R1*%
X107215000Y-131277936D02*
X107215000Y-131732064D01*
X108685000Y-131277936D02*
X108685000Y-131732064D01*
%TO.C,J6*%
X142470000Y-138970000D02*
X142470000Y-137230000D01*
X144210000Y-138970000D02*
X142470000Y-138970000D01*
X142710000Y-129530000D02*
X144710000Y-129530000D01*
X142710000Y-132330000D02*
X142710000Y-129530000D01*
X142710000Y-138730000D02*
X142710000Y-135930000D01*
X157310000Y-138730000D02*
X142710000Y-138730000D01*
X157310000Y-129530000D02*
X157310000Y-138730000D01*
X148310000Y-129530000D02*
X157310000Y-129530000D01*
%TO.C,R5*%
X114072936Y-105455000D02*
X114527064Y-105455000D01*
X114072936Y-106925000D02*
X114527064Y-106925000D01*
%TO.C,FAN4*%
X137160000Y-142635000D02*
X137160000Y-141625000D01*
X142240000Y-142635000D02*
X137160000Y-142635000D01*
X142240000Y-141625000D02*
X142240000Y-142635000D01*
X143590000Y-141525000D02*
X143590000Y-147525000D01*
X133290000Y-141525000D02*
X143590000Y-141525000D01*
X133290000Y-147475000D02*
X133290000Y-141525000D01*
X143590000Y-147525000D02*
X133350000Y-147525000D01*
%TO.C,FAN3*%
X124460000Y-142635000D02*
X124460000Y-141625000D01*
X129540000Y-142635000D02*
X124460000Y-142635000D01*
X129540000Y-141625000D02*
X129540000Y-142635000D01*
X130890000Y-141525000D02*
X130890000Y-147525000D01*
X120590000Y-141525000D02*
X130890000Y-141525000D01*
X120590000Y-147475000D02*
X120590000Y-141525000D01*
X130890000Y-147525000D02*
X120650000Y-147525000D01*
%TO.C,FAN2*%
X111760000Y-142635000D02*
X111760000Y-141625000D01*
X116840000Y-142635000D02*
X111760000Y-142635000D01*
X116840000Y-141625000D02*
X116840000Y-142635000D01*
X118190000Y-141525000D02*
X118190000Y-147525000D01*
X107890000Y-141525000D02*
X118190000Y-141525000D01*
X107890000Y-147475000D02*
X107890000Y-141525000D01*
X118190000Y-147525000D02*
X107950000Y-147525000D01*
%TO.C,FAN1*%
X99060000Y-142635000D02*
X99060000Y-141625000D01*
X104140000Y-142635000D02*
X99060000Y-142635000D01*
X104140000Y-141625000D02*
X104140000Y-142635000D01*
X105490000Y-141525000D02*
X105490000Y-147525000D01*
X95190000Y-141525000D02*
X105490000Y-141525000D01*
X95190000Y-147475000D02*
X95190000Y-141525000D01*
X105490000Y-147525000D02*
X95250000Y-147525000D01*
%TO.C,R2*%
X112295000Y-131277936D02*
X112295000Y-131732064D01*
X113765000Y-131277936D02*
X113765000Y-131732064D01*
%TO.C,R4*%
X117375000Y-131277936D02*
X117375000Y-131732064D01*
X118845000Y-131277936D02*
X118845000Y-131732064D01*
%TO.C,R3*%
X114835000Y-131277936D02*
X114835000Y-131732064D01*
X116305000Y-131277936D02*
X116305000Y-131732064D01*
%TO.C,J2*%
D10*
X144022380Y-106523333D02*
X144736666Y-106523333D01*
X144879523Y-106570952D01*
X144974761Y-106666190D01*
X145022380Y-106809047D01*
X145022380Y-106904285D01*
X144117619Y-106094761D02*
X144070000Y-106047142D01*
X144022380Y-105951904D01*
X144022380Y-105713809D01*
X144070000Y-105618571D01*
X144117619Y-105570952D01*
X144212857Y-105523333D01*
X144308095Y-105523333D01*
X144450952Y-105570952D01*
X145022380Y-106142380D01*
X145022380Y-105523333D01*
%TO.C,D1*%
X122451904Y-106642380D02*
X122451904Y-105642380D01*
X122690000Y-105642380D01*
X122832857Y-105690000D01*
X122928095Y-105785238D01*
X122975714Y-105880476D01*
X123023333Y-106070952D01*
X123023333Y-106213809D01*
X122975714Y-106404285D01*
X122928095Y-106499523D01*
X122832857Y-106594761D01*
X122690000Y-106642380D01*
X122451904Y-106642380D01*
X123975714Y-106642380D02*
X123404285Y-106642380D01*
X123690000Y-106642380D02*
X123690000Y-105642380D01*
X123594761Y-105785238D01*
X123499523Y-105880476D01*
X123404285Y-105928095D01*
%TO.C,R1*%
X107783333Y-134328380D02*
X107450000Y-133852190D01*
X107211904Y-134328380D02*
X107211904Y-133328380D01*
X107592857Y-133328380D01*
X107688095Y-133376000D01*
X107735714Y-133423619D01*
X107783333Y-133518857D01*
X107783333Y-133661714D01*
X107735714Y-133756952D01*
X107688095Y-133804571D01*
X107592857Y-133852190D01*
X107211904Y-133852190D01*
X108735714Y-134328380D02*
X108164285Y-134328380D01*
X108450000Y-134328380D02*
X108450000Y-133328380D01*
X108354761Y-133471238D01*
X108259523Y-133566476D01*
X108164285Y-133614095D01*
%TO.C,R5*%
X114133333Y-108293380D02*
X113800000Y-107817190D01*
X113561904Y-108293380D02*
X113561904Y-107293380D01*
X113942857Y-107293380D01*
X114038095Y-107341000D01*
X114085714Y-107388619D01*
X114133333Y-107483857D01*
X114133333Y-107626714D01*
X114085714Y-107721952D01*
X114038095Y-107769571D01*
X113942857Y-107817190D01*
X113561904Y-107817190D01*
X115038095Y-107293380D02*
X114561904Y-107293380D01*
X114514285Y-107769571D01*
X114561904Y-107721952D01*
X114657142Y-107674333D01*
X114895238Y-107674333D01*
X114990476Y-107721952D01*
X115038095Y-107769571D01*
X115085714Y-107864809D01*
X115085714Y-108102904D01*
X115038095Y-108198142D01*
X114990476Y-108245761D01*
X114895238Y-108293380D01*
X114657142Y-108293380D01*
X114561904Y-108245761D01*
X114514285Y-108198142D01*
%TO.C,FAN4*%
X133969285Y-142313571D02*
X133635952Y-142313571D01*
X133635952Y-142837380D02*
X133635952Y-141837380D01*
X134112142Y-141837380D01*
X134445476Y-142551666D02*
X134921666Y-142551666D01*
X134350238Y-142837380D02*
X134683571Y-141837380D01*
X135016904Y-142837380D01*
X135350238Y-142837380D02*
X135350238Y-141837380D01*
X135921666Y-142837380D01*
X135921666Y-141837380D01*
X136826428Y-142170714D02*
X136826428Y-142837380D01*
X136588333Y-141789761D02*
X136350238Y-142504047D01*
X136969285Y-142504047D01*
%TO.C,FAN3*%
X121269285Y-142313571D02*
X120935952Y-142313571D01*
X120935952Y-142837380D02*
X120935952Y-141837380D01*
X121412142Y-141837380D01*
X121745476Y-142551666D02*
X122221666Y-142551666D01*
X121650238Y-142837380D02*
X121983571Y-141837380D01*
X122316904Y-142837380D01*
X122650238Y-142837380D02*
X122650238Y-141837380D01*
X123221666Y-142837380D01*
X123221666Y-141837380D01*
X123602619Y-141837380D02*
X124221666Y-141837380D01*
X123888333Y-142218333D01*
X124031190Y-142218333D01*
X124126428Y-142265952D01*
X124174047Y-142313571D01*
X124221666Y-142408809D01*
X124221666Y-142646904D01*
X124174047Y-142742142D01*
X124126428Y-142789761D01*
X124031190Y-142837380D01*
X123745476Y-142837380D01*
X123650238Y-142789761D01*
X123602619Y-142742142D01*
%TO.C,FAN2*%
X108569285Y-142313571D02*
X108235952Y-142313571D01*
X108235952Y-142837380D02*
X108235952Y-141837380D01*
X108712142Y-141837380D01*
X109045476Y-142551666D02*
X109521666Y-142551666D01*
X108950238Y-142837380D02*
X109283571Y-141837380D01*
X109616904Y-142837380D01*
X109950238Y-142837380D02*
X109950238Y-141837380D01*
X110521666Y-142837380D01*
X110521666Y-141837380D01*
X110950238Y-141932619D02*
X110997857Y-141885000D01*
X111093095Y-141837380D01*
X111331190Y-141837380D01*
X111426428Y-141885000D01*
X111474047Y-141932619D01*
X111521666Y-142027857D01*
X111521666Y-142123095D01*
X111474047Y-142265952D01*
X110902619Y-142837380D01*
X111521666Y-142837380D01*
%TO.C,FAN1*%
X95869285Y-142228571D02*
X95535952Y-142228571D01*
X95535952Y-142752380D02*
X95535952Y-141752380D01*
X96012142Y-141752380D01*
X96345476Y-142466666D02*
X96821666Y-142466666D01*
X96250238Y-142752380D02*
X96583571Y-141752380D01*
X96916904Y-142752380D01*
X97250238Y-142752380D02*
X97250238Y-141752380D01*
X97821666Y-142752380D01*
X97821666Y-141752380D01*
X98821666Y-142752380D02*
X98250238Y-142752380D01*
X98535952Y-142752380D02*
X98535952Y-141752380D01*
X98440714Y-141895238D01*
X98345476Y-141990476D01*
X98250238Y-142038095D01*
%TO.C,R2*%
X112863333Y-134328380D02*
X112530000Y-133852190D01*
X112291904Y-134328380D02*
X112291904Y-133328380D01*
X112672857Y-133328380D01*
X112768095Y-133376000D01*
X112815714Y-133423619D01*
X112863333Y-133518857D01*
X112863333Y-133661714D01*
X112815714Y-133756952D01*
X112768095Y-133804571D01*
X112672857Y-133852190D01*
X112291904Y-133852190D01*
X113244285Y-133423619D02*
X113291904Y-133376000D01*
X113387142Y-133328380D01*
X113625238Y-133328380D01*
X113720476Y-133376000D01*
X113768095Y-133423619D01*
X113815714Y-133518857D01*
X113815714Y-133614095D01*
X113768095Y-133756952D01*
X113196666Y-134328380D01*
X113815714Y-134328380D01*
%TO.C,R4*%
X117943333Y-134328380D02*
X117610000Y-133852190D01*
X117371904Y-134328380D02*
X117371904Y-133328380D01*
X117752857Y-133328380D01*
X117848095Y-133376000D01*
X117895714Y-133423619D01*
X117943333Y-133518857D01*
X117943333Y-133661714D01*
X117895714Y-133756952D01*
X117848095Y-133804571D01*
X117752857Y-133852190D01*
X117371904Y-133852190D01*
X118800476Y-133661714D02*
X118800476Y-134328380D01*
X118562380Y-133280761D02*
X118324285Y-133995047D01*
X118943333Y-133995047D01*
%TO.C,R3*%
X115403333Y-134328380D02*
X115070000Y-133852190D01*
X114831904Y-134328380D02*
X114831904Y-133328380D01*
X115212857Y-133328380D01*
X115308095Y-133376000D01*
X115355714Y-133423619D01*
X115403333Y-133518857D01*
X115403333Y-133661714D01*
X115355714Y-133756952D01*
X115308095Y-133804571D01*
X115212857Y-133852190D01*
X114831904Y-133852190D01*
X115736666Y-133328380D02*
X116355714Y-133328380D01*
X116022380Y-133709333D01*
X116165238Y-133709333D01*
X116260476Y-133756952D01*
X116308095Y-133804571D01*
X116355714Y-133899809D01*
X116355714Y-134137904D01*
X116308095Y-134233142D01*
X116260476Y-134280761D01*
X116165238Y-134328380D01*
X115879523Y-134328380D01*
X115784285Y-134280761D01*
X115736666Y-134233142D01*
%TD*%
M02*
