%TF.GenerationSoftware,KiCad,Pcbnew,(5.1.9)-1*%
%TF.CreationDate,2021-04-29T19:34:58+02:00*%
%TF.ProjectId,ESP32_Tasmota_Fan,45535033-325f-4546-9173-6d6f74615f46,rev?*%
%TF.SameCoordinates,Original*%
%TF.FileFunction,Legend,Top*%
%TF.FilePolarity,Positive*%
%FSLAX46Y46*%
G04 Gerber Fmt 4.6, Leading zero omitted, Abs format (unit mm)*
G04 Created by KiCad (PCBNEW (5.1.9)-1) date 2021-04-29 19:34:58*
%MOMM*%
%LPD*%
G01*
G04 APERTURE LIST*
%ADD10C,0.150000*%
%ADD11C,0.200000*%
%ADD12C,0.500000*%
%ADD13C,0.120000*%
%ADD14C,0.100000*%
G04 APERTURE END LIST*
D10*
X97499047Y-114703571D02*
X97641904Y-114751190D01*
X97689523Y-114798809D01*
X97737142Y-114894047D01*
X97737142Y-115036904D01*
X97689523Y-115132142D01*
X97641904Y-115179761D01*
X97546666Y-115227380D01*
X97165714Y-115227380D01*
X97165714Y-114227380D01*
X97499047Y-114227380D01*
X97594285Y-114275000D01*
X97641904Y-114322619D01*
X97689523Y-114417857D01*
X97689523Y-114513095D01*
X97641904Y-114608333D01*
X97594285Y-114655952D01*
X97499047Y-114703571D01*
X97165714Y-114703571D01*
X98165714Y-115227380D02*
X98165714Y-114227380D01*
X98499047Y-114941666D01*
X98832380Y-114227380D01*
X98832380Y-115227380D01*
X99308571Y-114703571D02*
X99641904Y-114703571D01*
X99784761Y-115227380D02*
X99308571Y-115227380D01*
X99308571Y-114227380D01*
X99784761Y-114227380D01*
X100165714Y-114322619D02*
X100213333Y-114275000D01*
X100308571Y-114227380D01*
X100546666Y-114227380D01*
X100641904Y-114275000D01*
X100689523Y-114322619D01*
X100737142Y-114417857D01*
X100737142Y-114513095D01*
X100689523Y-114655952D01*
X100118095Y-115227380D01*
X100737142Y-115227380D01*
X101308571Y-114655952D02*
X101213333Y-114608333D01*
X101165714Y-114560714D01*
X101118095Y-114465476D01*
X101118095Y-114417857D01*
X101165714Y-114322619D01*
X101213333Y-114275000D01*
X101308571Y-114227380D01*
X101499047Y-114227380D01*
X101594285Y-114275000D01*
X101641904Y-114322619D01*
X101689523Y-114417857D01*
X101689523Y-114465476D01*
X101641904Y-114560714D01*
X101594285Y-114608333D01*
X101499047Y-114655952D01*
X101308571Y-114655952D01*
X101213333Y-114703571D01*
X101165714Y-114751190D01*
X101118095Y-114846428D01*
X101118095Y-115036904D01*
X101165714Y-115132142D01*
X101213333Y-115179761D01*
X101308571Y-115227380D01*
X101499047Y-115227380D01*
X101594285Y-115179761D01*
X101641904Y-115132142D01*
X101689523Y-115036904D01*
X101689523Y-114846428D01*
X101641904Y-114751190D01*
X101594285Y-114703571D01*
X101499047Y-114655952D01*
X102308571Y-114227380D02*
X102403809Y-114227380D01*
X102499047Y-114275000D01*
X102546666Y-114322619D01*
X102594285Y-114417857D01*
X102641904Y-114608333D01*
X102641904Y-114846428D01*
X102594285Y-115036904D01*
X102546666Y-115132142D01*
X102499047Y-115179761D01*
X102403809Y-115227380D01*
X102308571Y-115227380D01*
X102213333Y-115179761D01*
X102165714Y-115132142D01*
X102118095Y-115036904D01*
X102070476Y-114846428D01*
X102070476Y-114608333D01*
X102118095Y-114417857D01*
X102165714Y-114322619D01*
X102213333Y-114275000D01*
X102308571Y-114227380D01*
X96189523Y-116829761D02*
X96332380Y-116877380D01*
X96570476Y-116877380D01*
X96665714Y-116829761D01*
X96713333Y-116782142D01*
X96760952Y-116686904D01*
X96760952Y-116591666D01*
X96713333Y-116496428D01*
X96665714Y-116448809D01*
X96570476Y-116401190D01*
X96380000Y-116353571D01*
X96284761Y-116305952D01*
X96237142Y-116258333D01*
X96189523Y-116163095D01*
X96189523Y-116067857D01*
X96237142Y-115972619D01*
X96284761Y-115925000D01*
X96380000Y-115877380D01*
X96618095Y-115877380D01*
X96760952Y-115925000D01*
X97189523Y-116877380D02*
X97189523Y-115877380D01*
X97427619Y-115877380D01*
X97570476Y-115925000D01*
X97665714Y-116020238D01*
X97713333Y-116115476D01*
X97760952Y-116305952D01*
X97760952Y-116448809D01*
X97713333Y-116639285D01*
X97665714Y-116734523D01*
X97570476Y-116829761D01*
X97427619Y-116877380D01*
X97189523Y-116877380D01*
X98141904Y-116591666D02*
X98618095Y-116591666D01*
X98046666Y-116877380D02*
X98380000Y-115877380D01*
X98713333Y-116877380D01*
X99808571Y-116877380D02*
X99808571Y-115877380D01*
X100475238Y-115877380D02*
X100665714Y-115877380D01*
X100760952Y-115925000D01*
X100856190Y-116020238D01*
X100903809Y-116210714D01*
X100903809Y-116544047D01*
X100856190Y-116734523D01*
X100760952Y-116829761D01*
X100665714Y-116877380D01*
X100475238Y-116877380D01*
X100380000Y-116829761D01*
X100284761Y-116734523D01*
X100237142Y-116544047D01*
X100237142Y-116210714D01*
X100284761Y-116020238D01*
X100380000Y-115925000D01*
X100475238Y-115877380D01*
X101094285Y-116972619D02*
X101856190Y-116972619D01*
X102046666Y-115972619D02*
X102094285Y-115925000D01*
X102189523Y-115877380D01*
X102427619Y-115877380D01*
X102522857Y-115925000D01*
X102570476Y-115972619D01*
X102618095Y-116067857D01*
X102618095Y-116163095D01*
X102570476Y-116305952D01*
X101999047Y-116877380D01*
X102618095Y-116877380D01*
X102951428Y-115877380D02*
X103570476Y-115877380D01*
X103237142Y-116258333D01*
X103380000Y-116258333D01*
X103475238Y-116305952D01*
X103522857Y-116353571D01*
X103570476Y-116448809D01*
X103570476Y-116686904D01*
X103522857Y-116782142D01*
X103475238Y-116829761D01*
X103380000Y-116877380D01*
X103094285Y-116877380D01*
X102999047Y-116829761D01*
X102951428Y-116782142D01*
X96213333Y-118479761D02*
X96356190Y-118527380D01*
X96594285Y-118527380D01*
X96689523Y-118479761D01*
X96737142Y-118432142D01*
X96784761Y-118336904D01*
X96784761Y-118241666D01*
X96737142Y-118146428D01*
X96689523Y-118098809D01*
X96594285Y-118051190D01*
X96403809Y-118003571D01*
X96308571Y-117955952D01*
X96260952Y-117908333D01*
X96213333Y-117813095D01*
X96213333Y-117717857D01*
X96260952Y-117622619D01*
X96308571Y-117575000D01*
X96403809Y-117527380D01*
X96641904Y-117527380D01*
X96784761Y-117575000D01*
X97784761Y-118432142D02*
X97737142Y-118479761D01*
X97594285Y-118527380D01*
X97499047Y-118527380D01*
X97356190Y-118479761D01*
X97260952Y-118384523D01*
X97213333Y-118289285D01*
X97165714Y-118098809D01*
X97165714Y-117955952D01*
X97213333Y-117765476D01*
X97260952Y-117670238D01*
X97356190Y-117575000D01*
X97499047Y-117527380D01*
X97594285Y-117527380D01*
X97737142Y-117575000D01*
X97784761Y-117622619D01*
X98689523Y-118527380D02*
X98213333Y-118527380D01*
X98213333Y-117527380D01*
X99784761Y-118527380D02*
X99784761Y-117527380D01*
X100451428Y-117527380D02*
X100641904Y-117527380D01*
X100737142Y-117575000D01*
X100832380Y-117670238D01*
X100880000Y-117860714D01*
X100880000Y-118194047D01*
X100832380Y-118384523D01*
X100737142Y-118479761D01*
X100641904Y-118527380D01*
X100451428Y-118527380D01*
X100356190Y-118479761D01*
X100260952Y-118384523D01*
X100213333Y-118194047D01*
X100213333Y-117860714D01*
X100260952Y-117670238D01*
X100356190Y-117575000D01*
X100451428Y-117527380D01*
X101070476Y-118622619D02*
X101832380Y-118622619D01*
X102260952Y-117527380D02*
X102356190Y-117527380D01*
X102451428Y-117575000D01*
X102499047Y-117622619D01*
X102546666Y-117717857D01*
X102594285Y-117908333D01*
X102594285Y-118146428D01*
X102546666Y-118336904D01*
X102499047Y-118432142D01*
X102451428Y-118479761D01*
X102356190Y-118527380D01*
X102260952Y-118527380D01*
X102165714Y-118479761D01*
X102118095Y-118432142D01*
X102070476Y-118336904D01*
X102022857Y-118146428D01*
X102022857Y-117908333D01*
X102070476Y-117717857D01*
X102118095Y-117622619D01*
X102165714Y-117575000D01*
X102260952Y-117527380D01*
X103499047Y-117527380D02*
X103022857Y-117527380D01*
X102975238Y-118003571D01*
X103022857Y-117955952D01*
X103118095Y-117908333D01*
X103356190Y-117908333D01*
X103451428Y-117955952D01*
X103499047Y-118003571D01*
X103546666Y-118098809D01*
X103546666Y-118336904D01*
X103499047Y-118432142D01*
X103451428Y-118479761D01*
X103356190Y-118527380D01*
X103118095Y-118527380D01*
X103022857Y-118479761D01*
X102975238Y-118432142D01*
X109001309Y-122077380D02*
X109001309Y-121077380D01*
X109382261Y-121077380D01*
X109477500Y-121125000D01*
X109525119Y-121172619D01*
X109572738Y-121267857D01*
X109572738Y-121410714D01*
X109525119Y-121505952D01*
X109477500Y-121553571D01*
X109382261Y-121601190D01*
X109001309Y-121601190D01*
X109906071Y-121077380D02*
X110144166Y-122077380D01*
X110334642Y-121363095D01*
X110525119Y-122077380D01*
X110763214Y-121077380D01*
X111144166Y-122077380D02*
X111144166Y-121077380D01*
X111477500Y-121791666D01*
X111810833Y-121077380D01*
X111810833Y-122077380D01*
X115191785Y-121077380D02*
X115763214Y-121077380D01*
X115477500Y-122077380D02*
X115477500Y-121077380D01*
X116048928Y-121791666D02*
X116525119Y-121791666D01*
X115953690Y-122077380D02*
X116287023Y-121077380D01*
X116620357Y-122077380D01*
X117525119Y-121982142D02*
X117477500Y-122029761D01*
X117334642Y-122077380D01*
X117239404Y-122077380D01*
X117096547Y-122029761D01*
X117001309Y-121934523D01*
X116953690Y-121839285D01*
X116906071Y-121648809D01*
X116906071Y-121505952D01*
X116953690Y-121315476D01*
X117001309Y-121220238D01*
X117096547Y-121125000D01*
X117239404Y-121077380D01*
X117334642Y-121077380D01*
X117477500Y-121125000D01*
X117525119Y-121172619D01*
X117953690Y-122077380D02*
X117953690Y-121077380D01*
X117953690Y-121553571D02*
X118525119Y-121553571D01*
X118525119Y-122077380D02*
X118525119Y-121077380D01*
X119191785Y-121077380D02*
X119382261Y-121077380D01*
X119477500Y-121125000D01*
X119572738Y-121220238D01*
X119620357Y-121410714D01*
X119620357Y-121744047D01*
X119572738Y-121934523D01*
X119477500Y-122029761D01*
X119382261Y-122077380D01*
X119191785Y-122077380D01*
X119096547Y-122029761D01*
X119001309Y-121934523D01*
X118953690Y-121744047D01*
X118953690Y-121410714D01*
X119001309Y-121220238D01*
X119096547Y-121125000D01*
X119191785Y-121077380D01*
X107239404Y-123727380D02*
X106667976Y-123727380D01*
X106953690Y-123727380D02*
X106953690Y-122727380D01*
X106858452Y-122870238D01*
X106763214Y-122965476D01*
X106667976Y-123013095D01*
X107667976Y-123632142D02*
X107715595Y-123679761D01*
X107667976Y-123727380D01*
X107620357Y-123679761D01*
X107667976Y-123632142D01*
X107667976Y-123727380D01*
X107667976Y-123108333D02*
X107715595Y-123155952D01*
X107667976Y-123203571D01*
X107620357Y-123155952D01*
X107667976Y-123108333D01*
X107667976Y-123203571D01*
X108906071Y-123727380D02*
X108906071Y-122727380D01*
X109572738Y-122727380D02*
X109763214Y-122727380D01*
X109858452Y-122775000D01*
X109953690Y-122870238D01*
X110001309Y-123060714D01*
X110001309Y-123394047D01*
X109953690Y-123584523D01*
X109858452Y-123679761D01*
X109763214Y-123727380D01*
X109572738Y-123727380D01*
X109477500Y-123679761D01*
X109382261Y-123584523D01*
X109334642Y-123394047D01*
X109334642Y-123060714D01*
X109382261Y-122870238D01*
X109477500Y-122775000D01*
X109572738Y-122727380D01*
X110191785Y-123822619D02*
X110953690Y-123822619D01*
X111382261Y-122727380D02*
X111477500Y-122727380D01*
X111572738Y-122775000D01*
X111620357Y-122822619D01*
X111667976Y-122917857D01*
X111715595Y-123108333D01*
X111715595Y-123346428D01*
X111667976Y-123536904D01*
X111620357Y-123632142D01*
X111572738Y-123679761D01*
X111477500Y-123727380D01*
X111382261Y-123727380D01*
X111287023Y-123679761D01*
X111239404Y-123632142D01*
X111191785Y-123536904D01*
X111144166Y-123346428D01*
X111144166Y-123108333D01*
X111191785Y-122917857D01*
X111239404Y-122822619D01*
X111287023Y-122775000D01*
X111382261Y-122727380D01*
X112096547Y-122822619D02*
X112144166Y-122775000D01*
X112239404Y-122727380D01*
X112477500Y-122727380D01*
X112572738Y-122775000D01*
X112620357Y-122822619D01*
X112667976Y-122917857D01*
X112667976Y-123013095D01*
X112620357Y-123155952D01*
X112048928Y-123727380D01*
X112667976Y-123727380D01*
X114572738Y-122679761D02*
X113715595Y-123965476D01*
X115667976Y-123727380D02*
X115667976Y-122727380D01*
X116334642Y-122727380D02*
X116525119Y-122727380D01*
X116620357Y-122775000D01*
X116715595Y-122870238D01*
X116763214Y-123060714D01*
X116763214Y-123394047D01*
X116715595Y-123584523D01*
X116620357Y-123679761D01*
X116525119Y-123727380D01*
X116334642Y-123727380D01*
X116239404Y-123679761D01*
X116144166Y-123584523D01*
X116096547Y-123394047D01*
X116096547Y-123060714D01*
X116144166Y-122870238D01*
X116239404Y-122775000D01*
X116334642Y-122727380D01*
X116953690Y-123822619D02*
X117715595Y-123822619D01*
X118144166Y-122727380D02*
X118239404Y-122727380D01*
X118334642Y-122775000D01*
X118382261Y-122822619D01*
X118429880Y-122917857D01*
X118477500Y-123108333D01*
X118477500Y-123346428D01*
X118429880Y-123536904D01*
X118382261Y-123632142D01*
X118334642Y-123679761D01*
X118239404Y-123727380D01*
X118144166Y-123727380D01*
X118048928Y-123679761D01*
X118001309Y-123632142D01*
X117953690Y-123536904D01*
X117906071Y-123346428D01*
X117906071Y-123108333D01*
X117953690Y-122917857D01*
X118001309Y-122822619D01*
X118048928Y-122775000D01*
X118144166Y-122727380D01*
X119096547Y-122727380D02*
X119191785Y-122727380D01*
X119287023Y-122775000D01*
X119334642Y-122822619D01*
X119382261Y-122917857D01*
X119429880Y-123108333D01*
X119429880Y-123346428D01*
X119382261Y-123536904D01*
X119334642Y-123632142D01*
X119287023Y-123679761D01*
X119191785Y-123727380D01*
X119096547Y-123727380D01*
X119001309Y-123679761D01*
X118953690Y-123632142D01*
X118906071Y-123536904D01*
X118858452Y-123346428D01*
X118858452Y-123108333D01*
X118906071Y-122917857D01*
X118953690Y-122822619D01*
X119001309Y-122775000D01*
X119096547Y-122727380D01*
X106667976Y-124472619D02*
X106715595Y-124425000D01*
X106810833Y-124377380D01*
X107048928Y-124377380D01*
X107144166Y-124425000D01*
X107191785Y-124472619D01*
X107239404Y-124567857D01*
X107239404Y-124663095D01*
X107191785Y-124805952D01*
X106620357Y-125377380D01*
X107239404Y-125377380D01*
X107667976Y-125282142D02*
X107715595Y-125329761D01*
X107667976Y-125377380D01*
X107620357Y-125329761D01*
X107667976Y-125282142D01*
X107667976Y-125377380D01*
X107667976Y-124758333D02*
X107715595Y-124805952D01*
X107667976Y-124853571D01*
X107620357Y-124805952D01*
X107667976Y-124758333D01*
X107667976Y-124853571D01*
X108906071Y-125377380D02*
X108906071Y-124377380D01*
X109572738Y-124377380D02*
X109763214Y-124377380D01*
X109858452Y-124425000D01*
X109953690Y-124520238D01*
X110001309Y-124710714D01*
X110001309Y-125044047D01*
X109953690Y-125234523D01*
X109858452Y-125329761D01*
X109763214Y-125377380D01*
X109572738Y-125377380D01*
X109477500Y-125329761D01*
X109382261Y-125234523D01*
X109334642Y-125044047D01*
X109334642Y-124710714D01*
X109382261Y-124520238D01*
X109477500Y-124425000D01*
X109572738Y-124377380D01*
X110191785Y-125472619D02*
X110953690Y-125472619D01*
X111715595Y-125377380D02*
X111144166Y-125377380D01*
X111429880Y-125377380D02*
X111429880Y-124377380D01*
X111334642Y-124520238D01*
X111239404Y-124615476D01*
X111144166Y-124663095D01*
X112572738Y-124377380D02*
X112382261Y-124377380D01*
X112287023Y-124425000D01*
X112239404Y-124472619D01*
X112144166Y-124615476D01*
X112096547Y-124805952D01*
X112096547Y-125186904D01*
X112144166Y-125282142D01*
X112191785Y-125329761D01*
X112287023Y-125377380D01*
X112477500Y-125377380D01*
X112572738Y-125329761D01*
X112620357Y-125282142D01*
X112667976Y-125186904D01*
X112667976Y-124948809D01*
X112620357Y-124853571D01*
X112572738Y-124805952D01*
X112477500Y-124758333D01*
X112287023Y-124758333D01*
X112191785Y-124805952D01*
X112144166Y-124853571D01*
X112096547Y-124948809D01*
X114572738Y-124329761D02*
X113715595Y-125615476D01*
X115667976Y-125377380D02*
X115667976Y-124377380D01*
X116334642Y-124377380D02*
X116525119Y-124377380D01*
X116620357Y-124425000D01*
X116715595Y-124520238D01*
X116763214Y-124710714D01*
X116763214Y-125044047D01*
X116715595Y-125234523D01*
X116620357Y-125329761D01*
X116525119Y-125377380D01*
X116334642Y-125377380D01*
X116239404Y-125329761D01*
X116144166Y-125234523D01*
X116096547Y-125044047D01*
X116096547Y-124710714D01*
X116144166Y-124520238D01*
X116239404Y-124425000D01*
X116334642Y-124377380D01*
X116953690Y-125472619D02*
X117715595Y-125472619D01*
X118144166Y-124377380D02*
X118239404Y-124377380D01*
X118334642Y-124425000D01*
X118382261Y-124472619D01*
X118429880Y-124567857D01*
X118477500Y-124758333D01*
X118477500Y-124996428D01*
X118429880Y-125186904D01*
X118382261Y-125282142D01*
X118334642Y-125329761D01*
X118239404Y-125377380D01*
X118144166Y-125377380D01*
X118048928Y-125329761D01*
X118001309Y-125282142D01*
X117953690Y-125186904D01*
X117906071Y-124996428D01*
X117906071Y-124758333D01*
X117953690Y-124567857D01*
X118001309Y-124472619D01*
X118048928Y-124425000D01*
X118144166Y-124377380D01*
X119334642Y-124710714D02*
X119334642Y-125377380D01*
X119096547Y-124329761D02*
X118858452Y-125044047D01*
X119477500Y-125044047D01*
X106620357Y-126027380D02*
X107239404Y-126027380D01*
X106906071Y-126408333D01*
X107048928Y-126408333D01*
X107144166Y-126455952D01*
X107191785Y-126503571D01*
X107239404Y-126598809D01*
X107239404Y-126836904D01*
X107191785Y-126932142D01*
X107144166Y-126979761D01*
X107048928Y-127027380D01*
X106763214Y-127027380D01*
X106667976Y-126979761D01*
X106620357Y-126932142D01*
X107667976Y-126932142D02*
X107715595Y-126979761D01*
X107667976Y-127027380D01*
X107620357Y-126979761D01*
X107667976Y-126932142D01*
X107667976Y-127027380D01*
X107667976Y-126408333D02*
X107715595Y-126455952D01*
X107667976Y-126503571D01*
X107620357Y-126455952D01*
X107667976Y-126408333D01*
X107667976Y-126503571D01*
X108906071Y-127027380D02*
X108906071Y-126027380D01*
X109572738Y-126027380D02*
X109763214Y-126027380D01*
X109858452Y-126075000D01*
X109953690Y-126170238D01*
X110001309Y-126360714D01*
X110001309Y-126694047D01*
X109953690Y-126884523D01*
X109858452Y-126979761D01*
X109763214Y-127027380D01*
X109572738Y-127027380D01*
X109477500Y-126979761D01*
X109382261Y-126884523D01*
X109334642Y-126694047D01*
X109334642Y-126360714D01*
X109382261Y-126170238D01*
X109477500Y-126075000D01*
X109572738Y-126027380D01*
X110191785Y-127122619D02*
X110953690Y-127122619D01*
X111715595Y-127027380D02*
X111144166Y-127027380D01*
X111429880Y-127027380D02*
X111429880Y-126027380D01*
X111334642Y-126170238D01*
X111239404Y-126265476D01*
X111144166Y-126313095D01*
X112096547Y-126122619D02*
X112144166Y-126075000D01*
X112239404Y-126027380D01*
X112477500Y-126027380D01*
X112572738Y-126075000D01*
X112620357Y-126122619D01*
X112667976Y-126217857D01*
X112667976Y-126313095D01*
X112620357Y-126455952D01*
X112048928Y-127027380D01*
X112667976Y-127027380D01*
X114572738Y-125979761D02*
X113715595Y-127265476D01*
X115667976Y-127027380D02*
X115667976Y-126027380D01*
X116334642Y-126027380D02*
X116525119Y-126027380D01*
X116620357Y-126075000D01*
X116715595Y-126170238D01*
X116763214Y-126360714D01*
X116763214Y-126694047D01*
X116715595Y-126884523D01*
X116620357Y-126979761D01*
X116525119Y-127027380D01*
X116334642Y-127027380D01*
X116239404Y-126979761D01*
X116144166Y-126884523D01*
X116096547Y-126694047D01*
X116096547Y-126360714D01*
X116144166Y-126170238D01*
X116239404Y-126075000D01*
X116334642Y-126027380D01*
X116953690Y-127122619D02*
X117715595Y-127122619D01*
X117906071Y-126122619D02*
X117953690Y-126075000D01*
X118048928Y-126027380D01*
X118287023Y-126027380D01*
X118382261Y-126075000D01*
X118429880Y-126122619D01*
X118477500Y-126217857D01*
X118477500Y-126313095D01*
X118429880Y-126455952D01*
X117858452Y-127027380D01*
X118477500Y-127027380D01*
X119429880Y-127027380D02*
X118858452Y-127027380D01*
X119144166Y-127027380D02*
X119144166Y-126027380D01*
X119048928Y-126170238D01*
X118953690Y-126265476D01*
X118858452Y-126313095D01*
X107144166Y-128010714D02*
X107144166Y-128677380D01*
X106906071Y-127629761D02*
X106667976Y-128344047D01*
X107287023Y-128344047D01*
X107667976Y-128582142D02*
X107715595Y-128629761D01*
X107667976Y-128677380D01*
X107620357Y-128629761D01*
X107667976Y-128582142D01*
X107667976Y-128677380D01*
X107667976Y-128058333D02*
X107715595Y-128105952D01*
X107667976Y-128153571D01*
X107620357Y-128105952D01*
X107667976Y-128058333D01*
X107667976Y-128153571D01*
X108906071Y-128677380D02*
X108906071Y-127677380D01*
X109572738Y-127677380D02*
X109763214Y-127677380D01*
X109858452Y-127725000D01*
X109953690Y-127820238D01*
X110001309Y-128010714D01*
X110001309Y-128344047D01*
X109953690Y-128534523D01*
X109858452Y-128629761D01*
X109763214Y-128677380D01*
X109572738Y-128677380D01*
X109477500Y-128629761D01*
X109382261Y-128534523D01*
X109334642Y-128344047D01*
X109334642Y-128010714D01*
X109382261Y-127820238D01*
X109477500Y-127725000D01*
X109572738Y-127677380D01*
X110191785Y-128772619D02*
X110953690Y-128772619D01*
X111096547Y-127677380D02*
X111715595Y-127677380D01*
X111382261Y-128058333D01*
X111525119Y-128058333D01*
X111620357Y-128105952D01*
X111667976Y-128153571D01*
X111715595Y-128248809D01*
X111715595Y-128486904D01*
X111667976Y-128582142D01*
X111620357Y-128629761D01*
X111525119Y-128677380D01*
X111239404Y-128677380D01*
X111144166Y-128629761D01*
X111096547Y-128582142D01*
X112096547Y-127772619D02*
X112144166Y-127725000D01*
X112239404Y-127677380D01*
X112477500Y-127677380D01*
X112572738Y-127725000D01*
X112620357Y-127772619D01*
X112667976Y-127867857D01*
X112667976Y-127963095D01*
X112620357Y-128105952D01*
X112048928Y-128677380D01*
X112667976Y-128677380D01*
X114572738Y-127629761D02*
X113715595Y-128915476D01*
X115667976Y-128677380D02*
X115667976Y-127677380D01*
X116334642Y-127677380D02*
X116525119Y-127677380D01*
X116620357Y-127725000D01*
X116715595Y-127820238D01*
X116763214Y-128010714D01*
X116763214Y-128344047D01*
X116715595Y-128534523D01*
X116620357Y-128629761D01*
X116525119Y-128677380D01*
X116334642Y-128677380D01*
X116239404Y-128629761D01*
X116144166Y-128534523D01*
X116096547Y-128344047D01*
X116096547Y-128010714D01*
X116144166Y-127820238D01*
X116239404Y-127725000D01*
X116334642Y-127677380D01*
X116953690Y-128772619D02*
X117715595Y-128772619D01*
X117906071Y-127772619D02*
X117953690Y-127725000D01*
X118048928Y-127677380D01*
X118287023Y-127677380D01*
X118382261Y-127725000D01*
X118429880Y-127772619D01*
X118477500Y-127867857D01*
X118477500Y-127963095D01*
X118429880Y-128105952D01*
X117858452Y-128677380D01*
X118477500Y-128677380D01*
X119382261Y-127677380D02*
X118906071Y-127677380D01*
X118858452Y-128153571D01*
X118906071Y-128105952D01*
X119001309Y-128058333D01*
X119239404Y-128058333D01*
X119334642Y-128105952D01*
X119382261Y-128153571D01*
X119429880Y-128248809D01*
X119429880Y-128486904D01*
X119382261Y-128582142D01*
X119334642Y-128629761D01*
X119239404Y-128677380D01*
X119001309Y-128677380D01*
X118906071Y-128629761D01*
X118858452Y-128582142D01*
D11*
X137012142Y-117012857D02*
X137512142Y-117012857D01*
X137726428Y-117798571D02*
X137012142Y-117798571D01*
X137012142Y-116298571D01*
X137726428Y-116298571D01*
X138369285Y-117798571D02*
X138369285Y-116298571D01*
X139226428Y-117798571D01*
X139226428Y-116298571D01*
X137012142Y-120248571D02*
X137012142Y-118748571D01*
X137726428Y-120248571D02*
X137726428Y-118748571D01*
X138583571Y-120248571D01*
X138583571Y-118748571D01*
X139297857Y-119677142D02*
X140440714Y-119677142D01*
X139869285Y-120248571D02*
X139869285Y-119105714D01*
X137797857Y-121270000D02*
X137655000Y-121198571D01*
X137440714Y-121198571D01*
X137226428Y-121270000D01*
X137083571Y-121412857D01*
X137012142Y-121555714D01*
X136940714Y-121841428D01*
X136940714Y-122055714D01*
X137012142Y-122341428D01*
X137083571Y-122484285D01*
X137226428Y-122627142D01*
X137440714Y-122698571D01*
X137583571Y-122698571D01*
X137797857Y-122627142D01*
X137869285Y-122555714D01*
X137869285Y-122055714D01*
X137583571Y-122055714D01*
X138512142Y-122698571D02*
X138512142Y-121198571D01*
X139369285Y-122698571D01*
X139369285Y-121198571D01*
X140083571Y-122698571D02*
X140083571Y-121198571D01*
X140440714Y-121198571D01*
X140655000Y-121270000D01*
X140797857Y-121412857D01*
X140869285Y-121555714D01*
X140940714Y-121841428D01*
X140940714Y-122055714D01*
X140869285Y-122341428D01*
X140797857Y-122484285D01*
X140655000Y-122627142D01*
X140440714Y-122698571D01*
X140083571Y-122698571D01*
X136797857Y-123648571D02*
X137297857Y-125148571D01*
X137797857Y-123648571D01*
X138583571Y-123648571D02*
X138869285Y-123648571D01*
X139012142Y-123720000D01*
X139155000Y-123862857D01*
X139226428Y-124148571D01*
X139226428Y-124648571D01*
X139155000Y-124934285D01*
X139012142Y-125077142D01*
X138869285Y-125148571D01*
X138583571Y-125148571D01*
X138440714Y-125077142D01*
X138297857Y-124934285D01*
X138226428Y-124648571D01*
X138226428Y-124148571D01*
X138297857Y-123862857D01*
X138440714Y-123720000D01*
X138583571Y-123648571D01*
X139869285Y-124577142D02*
X141012142Y-124577142D01*
X140440714Y-125148571D02*
X140440714Y-124005714D01*
X137838571Y-112925714D02*
X136338571Y-112925714D01*
X136338571Y-111925714D02*
X136338571Y-111640000D01*
X136410000Y-111497142D01*
X136552857Y-111354285D01*
X136838571Y-111282857D01*
X137338571Y-111282857D01*
X137624285Y-111354285D01*
X137767142Y-111497142D01*
X137838571Y-111640000D01*
X137838571Y-111925714D01*
X137767142Y-112068571D01*
X137624285Y-112211428D01*
X137338571Y-112282857D01*
X136838571Y-112282857D01*
X136552857Y-112211428D01*
X136410000Y-112068571D01*
X136338571Y-111925714D01*
X137838571Y-109854285D02*
X137838571Y-110711428D01*
X137838571Y-110282857D02*
X136338571Y-110282857D01*
X136552857Y-110425714D01*
X136695714Y-110568571D01*
X136767142Y-110711428D01*
X137838571Y-109140000D02*
X137838571Y-108854285D01*
X137767142Y-108711428D01*
X137695714Y-108640000D01*
X137481428Y-108497142D01*
X137195714Y-108425714D01*
X136624285Y-108425714D01*
X136481428Y-108497142D01*
X136410000Y-108568571D01*
X136338571Y-108711428D01*
X136338571Y-108997142D01*
X136410000Y-109140000D01*
X136481428Y-109211428D01*
X136624285Y-109282857D01*
X136981428Y-109282857D01*
X137124285Y-109211428D01*
X137195714Y-109140000D01*
X137267142Y-108997142D01*
X137267142Y-108711428D01*
X137195714Y-108568571D01*
X137124285Y-108497142D01*
X136981428Y-108425714D01*
X132758571Y-112925714D02*
X131258571Y-112925714D01*
X131258571Y-111925714D02*
X131258571Y-111640000D01*
X131330000Y-111497142D01*
X131472857Y-111354285D01*
X131758571Y-111282857D01*
X132258571Y-111282857D01*
X132544285Y-111354285D01*
X132687142Y-111497142D01*
X132758571Y-111640000D01*
X132758571Y-111925714D01*
X132687142Y-112068571D01*
X132544285Y-112211428D01*
X132258571Y-112282857D01*
X131758571Y-112282857D01*
X131472857Y-112211428D01*
X131330000Y-112068571D01*
X131258571Y-111925714D01*
X131258571Y-110782857D02*
X131258571Y-109854285D01*
X131830000Y-110354285D01*
X131830000Y-110140000D01*
X131901428Y-109997142D01*
X131972857Y-109925714D01*
X132115714Y-109854285D01*
X132472857Y-109854285D01*
X132615714Y-109925714D01*
X132687142Y-109997142D01*
X132758571Y-110140000D01*
X132758571Y-110568571D01*
X132687142Y-110711428D01*
X132615714Y-110782857D01*
X131258571Y-108497142D02*
X131258571Y-109211428D01*
X131972857Y-109282857D01*
X131901428Y-109211428D01*
X131830000Y-109068571D01*
X131830000Y-108711428D01*
X131901428Y-108568571D01*
X131972857Y-108497142D01*
X132115714Y-108425714D01*
X132472857Y-108425714D01*
X132615714Y-108497142D01*
X132687142Y-108568571D01*
X132758571Y-108711428D01*
X132758571Y-109068571D01*
X132687142Y-109211428D01*
X132615714Y-109282857D01*
X141418571Y-112282857D02*
X142918571Y-111782857D01*
X141418571Y-111282857D01*
X142775714Y-109925714D02*
X142847142Y-109997142D01*
X142918571Y-110211428D01*
X142918571Y-110354285D01*
X142847142Y-110568571D01*
X142704285Y-110711428D01*
X142561428Y-110782857D01*
X142275714Y-110854285D01*
X142061428Y-110854285D01*
X141775714Y-110782857D01*
X141632857Y-110711428D01*
X141490000Y-110568571D01*
X141418571Y-110354285D01*
X141418571Y-110211428D01*
X141490000Y-109997142D01*
X141561428Y-109925714D01*
X142775714Y-108425714D02*
X142847142Y-108497142D01*
X142918571Y-108711428D01*
X142918571Y-108854285D01*
X142847142Y-109068571D01*
X142704285Y-109211428D01*
X142561428Y-109282857D01*
X142275714Y-109354285D01*
X142061428Y-109354285D01*
X141775714Y-109282857D01*
X141632857Y-109211428D01*
X141490000Y-109068571D01*
X141418571Y-108854285D01*
X141418571Y-108711428D01*
X141490000Y-108497142D01*
X141561428Y-108425714D01*
X138950000Y-111568571D02*
X138878571Y-111711428D01*
X138878571Y-111925714D01*
X138950000Y-112140000D01*
X139092857Y-112282857D01*
X139235714Y-112354285D01*
X139521428Y-112425714D01*
X139735714Y-112425714D01*
X140021428Y-112354285D01*
X140164285Y-112282857D01*
X140307142Y-112140000D01*
X140378571Y-111925714D01*
X140378571Y-111782857D01*
X140307142Y-111568571D01*
X140235714Y-111497142D01*
X139735714Y-111497142D01*
X139735714Y-111782857D01*
X140378571Y-110854285D02*
X138878571Y-110854285D01*
X140378571Y-109997142D01*
X138878571Y-109997142D01*
X140378571Y-109282857D02*
X138878571Y-109282857D01*
X138878571Y-108925714D01*
X138950000Y-108711428D01*
X139092857Y-108568571D01*
X139235714Y-108497142D01*
X139521428Y-108425714D01*
X139735714Y-108425714D01*
X140021428Y-108497142D01*
X140164285Y-108568571D01*
X140307142Y-108711428D01*
X140378571Y-108925714D01*
X140378571Y-109282857D01*
X135298571Y-112925714D02*
X133798571Y-112925714D01*
X133798571Y-111925714D02*
X133798571Y-111640000D01*
X133870000Y-111497142D01*
X134012857Y-111354285D01*
X134298571Y-111282857D01*
X134798571Y-111282857D01*
X135084285Y-111354285D01*
X135227142Y-111497142D01*
X135298571Y-111640000D01*
X135298571Y-111925714D01*
X135227142Y-112068571D01*
X135084285Y-112211428D01*
X134798571Y-112282857D01*
X134298571Y-112282857D01*
X134012857Y-112211428D01*
X133870000Y-112068571D01*
X133798571Y-111925714D01*
X135298571Y-109854285D02*
X135298571Y-110711428D01*
X135298571Y-110282857D02*
X133798571Y-110282857D01*
X134012857Y-110425714D01*
X134155714Y-110568571D01*
X134227142Y-110711428D01*
X134441428Y-108997142D02*
X134370000Y-109140000D01*
X134298571Y-109211428D01*
X134155714Y-109282857D01*
X134084285Y-109282857D01*
X133941428Y-109211428D01*
X133870000Y-109140000D01*
X133798571Y-108997142D01*
X133798571Y-108711428D01*
X133870000Y-108568571D01*
X133941428Y-108497142D01*
X134084285Y-108425714D01*
X134155714Y-108425714D01*
X134298571Y-108497142D01*
X134370000Y-108568571D01*
X134441428Y-108711428D01*
X134441428Y-108997142D01*
X134512857Y-109140000D01*
X134584285Y-109211428D01*
X134727142Y-109282857D01*
X135012857Y-109282857D01*
X135155714Y-109211428D01*
X135227142Y-109140000D01*
X135298571Y-108997142D01*
X135298571Y-108711428D01*
X135227142Y-108568571D01*
X135155714Y-108497142D01*
X135012857Y-108425714D01*
X134727142Y-108425714D01*
X134584285Y-108497142D01*
X134512857Y-108568571D01*
X134441428Y-108711428D01*
X130218571Y-112925714D02*
X128718571Y-112925714D01*
X128718571Y-111925714D02*
X128718571Y-111640000D01*
X128790000Y-111497142D01*
X128932857Y-111354285D01*
X129218571Y-111282857D01*
X129718571Y-111282857D01*
X130004285Y-111354285D01*
X130147142Y-111497142D01*
X130218571Y-111640000D01*
X130218571Y-111925714D01*
X130147142Y-112068571D01*
X130004285Y-112211428D01*
X129718571Y-112282857D01*
X129218571Y-112282857D01*
X128932857Y-112211428D01*
X128790000Y-112068571D01*
X128718571Y-111925714D01*
X128861428Y-110711428D02*
X128790000Y-110640000D01*
X128718571Y-110497142D01*
X128718571Y-110140000D01*
X128790000Y-109997142D01*
X128861428Y-109925714D01*
X129004285Y-109854285D01*
X129147142Y-109854285D01*
X129361428Y-109925714D01*
X130218571Y-110782857D01*
X130218571Y-109854285D01*
X128718571Y-108568571D02*
X128718571Y-108854285D01*
X128790000Y-108997142D01*
X128861428Y-109068571D01*
X129075714Y-109211428D01*
X129361428Y-109282857D01*
X129932857Y-109282857D01*
X130075714Y-109211428D01*
X130147142Y-109140000D01*
X130218571Y-108997142D01*
X130218571Y-108711428D01*
X130147142Y-108568571D01*
X130075714Y-108497142D01*
X129932857Y-108425714D01*
X129575714Y-108425714D01*
X129432857Y-108497142D01*
X129361428Y-108568571D01*
X129290000Y-108711428D01*
X129290000Y-108997142D01*
X129361428Y-109140000D01*
X129432857Y-109211428D01*
X129575714Y-109282857D01*
X153078571Y-124223571D02*
X151578571Y-124223571D01*
X151578571Y-123866428D01*
X151650000Y-123652142D01*
X151792857Y-123509285D01*
X151935714Y-123437857D01*
X152221428Y-123366428D01*
X152435714Y-123366428D01*
X152721428Y-123437857D01*
X152864285Y-123509285D01*
X153007142Y-123652142D01*
X153078571Y-123866428D01*
X153078571Y-124223571D01*
X152935714Y-121866428D02*
X153007142Y-121937857D01*
X153078571Y-122152142D01*
X153078571Y-122295000D01*
X153007142Y-122509285D01*
X152864285Y-122652142D01*
X152721428Y-122723571D01*
X152435714Y-122795000D01*
X152221428Y-122795000D01*
X151935714Y-122723571D01*
X151792857Y-122652142D01*
X151650000Y-122509285D01*
X151578571Y-122295000D01*
X151578571Y-122152142D01*
X151650000Y-121937857D01*
X151721428Y-121866428D01*
X151507142Y-120152142D02*
X153435714Y-121437857D01*
X153078571Y-119652142D02*
X151578571Y-119652142D01*
X151578571Y-119295000D01*
X151650000Y-119080714D01*
X151792857Y-118937857D01*
X151935714Y-118866428D01*
X152221428Y-118795000D01*
X152435714Y-118795000D01*
X152721428Y-118866428D01*
X152864285Y-118937857D01*
X153007142Y-119080714D01*
X153078571Y-119295000D01*
X153078571Y-119652142D01*
X152935714Y-117295000D02*
X153007142Y-117366428D01*
X153078571Y-117580714D01*
X153078571Y-117723571D01*
X153007142Y-117937857D01*
X152864285Y-118080714D01*
X152721428Y-118152142D01*
X152435714Y-118223571D01*
X152221428Y-118223571D01*
X151935714Y-118152142D01*
X151792857Y-118080714D01*
X151650000Y-117937857D01*
X151578571Y-117723571D01*
X151578571Y-117580714D01*
X151650000Y-117366428D01*
X151721428Y-117295000D01*
D12*
X140094285Y-138710714D02*
X140094285Y-136425000D01*
X141237142Y-137567857D02*
X138951428Y-137567857D01*
X141237142Y-133425000D02*
X141237142Y-135139285D01*
X141237142Y-134282142D02*
X138237142Y-134282142D01*
X138665714Y-134567857D01*
X138951428Y-134853571D01*
X139094285Y-135139285D01*
X138522857Y-132282142D02*
X138380000Y-132139285D01*
X138237142Y-131853571D01*
X138237142Y-131139285D01*
X138380000Y-130853571D01*
X138522857Y-130710714D01*
X138808571Y-130567857D01*
X139094285Y-130567857D01*
X139522857Y-130710714D01*
X141237142Y-132425000D01*
X141237142Y-130567857D01*
X138237142Y-129710714D02*
X141237142Y-128710714D01*
X138237142Y-127710714D01*
D13*
%TO.C,J8*%
X110550000Y-106885000D02*
X110550000Y-104225000D01*
X95250000Y-106885000D02*
X110550000Y-106885000D01*
X95250000Y-104225000D02*
X110550000Y-104225000D01*
X95250000Y-106885000D02*
X95250000Y-104225000D01*
X95250000Y-97935000D02*
X95250000Y-95395000D01*
X95250000Y-95395000D02*
X97790000Y-95395000D01*
X111760000Y-95395000D02*
X109220000Y-95395000D01*
X111760000Y-95395000D02*
X111760000Y-97935000D01*
%TO.C,J6*%
X149580000Y-128895000D02*
X158580000Y-128895000D01*
X158580000Y-128895000D02*
X158580000Y-138095000D01*
X158580000Y-138095000D02*
X143980000Y-138095000D01*
X143980000Y-138095000D02*
X143980000Y-135295000D01*
X143980000Y-131695000D02*
X143980000Y-128895000D01*
X143980000Y-128895000D02*
X145980000Y-128895000D01*
X145480000Y-138335000D02*
X143740000Y-138335000D01*
X143740000Y-138335000D02*
X143740000Y-136595000D01*
%TO.C,J1*%
X133290000Y-125935000D02*
X135950000Y-125935000D01*
X133290000Y-115715000D02*
X133290000Y-125935000D01*
X135950000Y-115715000D02*
X135950000Y-125935000D01*
X133290000Y-115715000D02*
X135950000Y-115715000D01*
X152400000Y-114445000D02*
X153670000Y-114445000D01*
X153670000Y-114445000D02*
X153670000Y-115715000D01*
X153670000Y-124605000D02*
X153670000Y-127145000D01*
X153670000Y-127145000D02*
X151130000Y-127145000D01*
X153670000Y-115715000D02*
X153670000Y-116985000D01*
X152400000Y-114445000D02*
X151130000Y-114445000D01*
%TO.C,J2*%
X143510000Y-104860000D02*
X143510000Y-107520000D01*
X143510000Y-107520000D02*
X128210000Y-107520000D01*
X143510000Y-104860000D02*
X128210000Y-104860000D01*
X128210000Y-104860000D02*
X128210000Y-107520000D01*
%TO.C,D1*%
X118338870Y-105110163D02*
G75*
G02*
X120420961Y-105110000I1041130J-1079837D01*
G01*
X118338870Y-107269837D02*
G75*
G03*
X120420961Y-107270000I1041130J1079837D01*
G01*
%TO.C,U1*%
X95250000Y-136670000D02*
X95250000Y-139210000D01*
X95250000Y-111270000D02*
X95250000Y-113810000D01*
D14*
G36*
X96520000Y-110000000D02*
G01*
X99060000Y-110000000D01*
X99060000Y-111270000D01*
X96520000Y-111270000D01*
X96520000Y-110000000D01*
G37*
X96520000Y-110000000D02*
X99060000Y-110000000D01*
X99060000Y-111270000D01*
X96520000Y-111270000D01*
X96520000Y-110000000D01*
D13*
X100330000Y-108730000D02*
X100330000Y-111270000D01*
X128270000Y-108730000D02*
X100330000Y-108730000D01*
X129540000Y-139210000D02*
X95250000Y-139210000D01*
X132080000Y-136670000D02*
X129540000Y-139210000D01*
X100330000Y-111270000D02*
X95250000Y-111270000D01*
X132080000Y-113810000D02*
X132080000Y-136670000D01*
X95250000Y-113810000D02*
X95250000Y-136670000D01*
%TO.C,R1*%
X108685000Y-131277936D02*
X108685000Y-131732064D01*
X107215000Y-131277936D02*
X107215000Y-131732064D01*
%TO.C,R5*%
X114072936Y-106925000D02*
X114527064Y-106925000D01*
X114072936Y-105455000D02*
X114527064Y-105455000D01*
%TO.C,FAN4*%
X143590000Y-147525000D02*
X133350000Y-147525000D01*
X133290000Y-147475000D02*
X133290000Y-141525000D01*
X133290000Y-141525000D02*
X143590000Y-141525000D01*
X143590000Y-141525000D02*
X143590000Y-147525000D01*
X142240000Y-141625000D02*
X142240000Y-142635000D01*
X142240000Y-142635000D02*
X137160000Y-142635000D01*
X137160000Y-142635000D02*
X137160000Y-141625000D01*
%TO.C,FAN3*%
X130890000Y-147525000D02*
X120650000Y-147525000D01*
X120590000Y-147475000D02*
X120590000Y-141525000D01*
X120590000Y-141525000D02*
X130890000Y-141525000D01*
X130890000Y-141525000D02*
X130890000Y-147525000D01*
X129540000Y-141625000D02*
X129540000Y-142635000D01*
X129540000Y-142635000D02*
X124460000Y-142635000D01*
X124460000Y-142635000D02*
X124460000Y-141625000D01*
%TO.C,FAN2*%
X118190000Y-147525000D02*
X107950000Y-147525000D01*
X107890000Y-147475000D02*
X107890000Y-141525000D01*
X107890000Y-141525000D02*
X118190000Y-141525000D01*
X118190000Y-141525000D02*
X118190000Y-147525000D01*
X116840000Y-141625000D02*
X116840000Y-142635000D01*
X116840000Y-142635000D02*
X111760000Y-142635000D01*
X111760000Y-142635000D02*
X111760000Y-141625000D01*
%TO.C,FAN1*%
X105490000Y-147525000D02*
X95250000Y-147525000D01*
X95190000Y-147475000D02*
X95190000Y-141525000D01*
X95190000Y-141525000D02*
X105490000Y-141525000D01*
X105490000Y-141525000D02*
X105490000Y-147525000D01*
X104140000Y-141625000D02*
X104140000Y-142635000D01*
X104140000Y-142635000D02*
X99060000Y-142635000D01*
X99060000Y-142635000D02*
X99060000Y-141625000D01*
%TO.C,R2*%
X113765000Y-131277936D02*
X113765000Y-131732064D01*
X112295000Y-131277936D02*
X112295000Y-131732064D01*
%TO.C,R4*%
X118845000Y-131277936D02*
X118845000Y-131732064D01*
X117375000Y-131277936D02*
X117375000Y-131732064D01*
%TO.C,R3*%
X116305000Y-131277936D02*
X116305000Y-131732064D01*
X114835000Y-131277936D02*
X114835000Y-131732064D01*
%TO.C,J2*%
D10*
X144022380Y-106523333D02*
X144736666Y-106523333D01*
X144879523Y-106570952D01*
X144974761Y-106666190D01*
X145022380Y-106809047D01*
X145022380Y-106904285D01*
X144117619Y-106094761D02*
X144070000Y-106047142D01*
X144022380Y-105951904D01*
X144022380Y-105713809D01*
X144070000Y-105618571D01*
X144117619Y-105570952D01*
X144212857Y-105523333D01*
X144308095Y-105523333D01*
X144450952Y-105570952D01*
X145022380Y-106142380D01*
X145022380Y-105523333D01*
%TO.C,D1*%
X122451904Y-106642380D02*
X122451904Y-105642380D01*
X122690000Y-105642380D01*
X122832857Y-105690000D01*
X122928095Y-105785238D01*
X122975714Y-105880476D01*
X123023333Y-106070952D01*
X123023333Y-106213809D01*
X122975714Y-106404285D01*
X122928095Y-106499523D01*
X122832857Y-106594761D01*
X122690000Y-106642380D01*
X122451904Y-106642380D01*
X123975714Y-106642380D02*
X123404285Y-106642380D01*
X123690000Y-106642380D02*
X123690000Y-105642380D01*
X123594761Y-105785238D01*
X123499523Y-105880476D01*
X123404285Y-105928095D01*
%TO.C,R1*%
X107783333Y-134328380D02*
X107450000Y-133852190D01*
X107211904Y-134328380D02*
X107211904Y-133328380D01*
X107592857Y-133328380D01*
X107688095Y-133376000D01*
X107735714Y-133423619D01*
X107783333Y-133518857D01*
X107783333Y-133661714D01*
X107735714Y-133756952D01*
X107688095Y-133804571D01*
X107592857Y-133852190D01*
X107211904Y-133852190D01*
X108735714Y-134328380D02*
X108164285Y-134328380D01*
X108450000Y-134328380D02*
X108450000Y-133328380D01*
X108354761Y-133471238D01*
X108259523Y-133566476D01*
X108164285Y-133614095D01*
%TO.C,R5*%
X114133333Y-108293380D02*
X113800000Y-107817190D01*
X113561904Y-108293380D02*
X113561904Y-107293380D01*
X113942857Y-107293380D01*
X114038095Y-107341000D01*
X114085714Y-107388619D01*
X114133333Y-107483857D01*
X114133333Y-107626714D01*
X114085714Y-107721952D01*
X114038095Y-107769571D01*
X113942857Y-107817190D01*
X113561904Y-107817190D01*
X115038095Y-107293380D02*
X114561904Y-107293380D01*
X114514285Y-107769571D01*
X114561904Y-107721952D01*
X114657142Y-107674333D01*
X114895238Y-107674333D01*
X114990476Y-107721952D01*
X115038095Y-107769571D01*
X115085714Y-107864809D01*
X115085714Y-108102904D01*
X115038095Y-108198142D01*
X114990476Y-108245761D01*
X114895238Y-108293380D01*
X114657142Y-108293380D01*
X114561904Y-108245761D01*
X114514285Y-108198142D01*
%TO.C,FAN4*%
X133969285Y-142313571D02*
X133635952Y-142313571D01*
X133635952Y-142837380D02*
X133635952Y-141837380D01*
X134112142Y-141837380D01*
X134445476Y-142551666D02*
X134921666Y-142551666D01*
X134350238Y-142837380D02*
X134683571Y-141837380D01*
X135016904Y-142837380D01*
X135350238Y-142837380D02*
X135350238Y-141837380D01*
X135921666Y-142837380D01*
X135921666Y-141837380D01*
X136826428Y-142170714D02*
X136826428Y-142837380D01*
X136588333Y-141789761D02*
X136350238Y-142504047D01*
X136969285Y-142504047D01*
%TO.C,FAN3*%
X121269285Y-142313571D02*
X120935952Y-142313571D01*
X120935952Y-142837380D02*
X120935952Y-141837380D01*
X121412142Y-141837380D01*
X121745476Y-142551666D02*
X122221666Y-142551666D01*
X121650238Y-142837380D02*
X121983571Y-141837380D01*
X122316904Y-142837380D01*
X122650238Y-142837380D02*
X122650238Y-141837380D01*
X123221666Y-142837380D01*
X123221666Y-141837380D01*
X123602619Y-141837380D02*
X124221666Y-141837380D01*
X123888333Y-142218333D01*
X124031190Y-142218333D01*
X124126428Y-142265952D01*
X124174047Y-142313571D01*
X124221666Y-142408809D01*
X124221666Y-142646904D01*
X124174047Y-142742142D01*
X124126428Y-142789761D01*
X124031190Y-142837380D01*
X123745476Y-142837380D01*
X123650238Y-142789761D01*
X123602619Y-142742142D01*
%TO.C,FAN2*%
X108569285Y-142313571D02*
X108235952Y-142313571D01*
X108235952Y-142837380D02*
X108235952Y-141837380D01*
X108712142Y-141837380D01*
X109045476Y-142551666D02*
X109521666Y-142551666D01*
X108950238Y-142837380D02*
X109283571Y-141837380D01*
X109616904Y-142837380D01*
X109950238Y-142837380D02*
X109950238Y-141837380D01*
X110521666Y-142837380D01*
X110521666Y-141837380D01*
X110950238Y-141932619D02*
X110997857Y-141885000D01*
X111093095Y-141837380D01*
X111331190Y-141837380D01*
X111426428Y-141885000D01*
X111474047Y-141932619D01*
X111521666Y-142027857D01*
X111521666Y-142123095D01*
X111474047Y-142265952D01*
X110902619Y-142837380D01*
X111521666Y-142837380D01*
%TO.C,FAN1*%
X95869285Y-142228571D02*
X95535952Y-142228571D01*
X95535952Y-142752380D02*
X95535952Y-141752380D01*
X96012142Y-141752380D01*
X96345476Y-142466666D02*
X96821666Y-142466666D01*
X96250238Y-142752380D02*
X96583571Y-141752380D01*
X96916904Y-142752380D01*
X97250238Y-142752380D02*
X97250238Y-141752380D01*
X97821666Y-142752380D01*
X97821666Y-141752380D01*
X98821666Y-142752380D02*
X98250238Y-142752380D01*
X98535952Y-142752380D02*
X98535952Y-141752380D01*
X98440714Y-141895238D01*
X98345476Y-141990476D01*
X98250238Y-142038095D01*
%TO.C,R2*%
X112863333Y-134328380D02*
X112530000Y-133852190D01*
X112291904Y-134328380D02*
X112291904Y-133328380D01*
X112672857Y-133328380D01*
X112768095Y-133376000D01*
X112815714Y-133423619D01*
X112863333Y-133518857D01*
X112863333Y-133661714D01*
X112815714Y-133756952D01*
X112768095Y-133804571D01*
X112672857Y-133852190D01*
X112291904Y-133852190D01*
X113244285Y-133423619D02*
X113291904Y-133376000D01*
X113387142Y-133328380D01*
X113625238Y-133328380D01*
X113720476Y-133376000D01*
X113768095Y-133423619D01*
X113815714Y-133518857D01*
X113815714Y-133614095D01*
X113768095Y-133756952D01*
X113196666Y-134328380D01*
X113815714Y-134328380D01*
%TO.C,R4*%
X117943333Y-134328380D02*
X117610000Y-133852190D01*
X117371904Y-134328380D02*
X117371904Y-133328380D01*
X117752857Y-133328380D01*
X117848095Y-133376000D01*
X117895714Y-133423619D01*
X117943333Y-133518857D01*
X117943333Y-133661714D01*
X117895714Y-133756952D01*
X117848095Y-133804571D01*
X117752857Y-133852190D01*
X117371904Y-133852190D01*
X118800476Y-133661714D02*
X118800476Y-134328380D01*
X118562380Y-133280761D02*
X118324285Y-133995047D01*
X118943333Y-133995047D01*
%TO.C,R3*%
X115403333Y-134328380D02*
X115070000Y-133852190D01*
X114831904Y-134328380D02*
X114831904Y-133328380D01*
X115212857Y-133328380D01*
X115308095Y-133376000D01*
X115355714Y-133423619D01*
X115403333Y-133518857D01*
X115403333Y-133661714D01*
X115355714Y-133756952D01*
X115308095Y-133804571D01*
X115212857Y-133852190D01*
X114831904Y-133852190D01*
X115736666Y-133328380D02*
X116355714Y-133328380D01*
X116022380Y-133709333D01*
X116165238Y-133709333D01*
X116260476Y-133756952D01*
X116308095Y-133804571D01*
X116355714Y-133899809D01*
X116355714Y-134137904D01*
X116308095Y-134233142D01*
X116260476Y-134280761D01*
X116165238Y-134328380D01*
X115879523Y-134328380D01*
X115784285Y-134280761D01*
X115736666Y-134233142D01*
%TD*%
M02*
