%TF.GenerationSoftware,KiCad,Pcbnew,(5.1.9)-1*%
%TF.CreationDate,2021-11-10T21:17:52+01:00*%
%TF.ProjectId,ESP32_Tasmota_Fan,45535033-325f-4546-9173-6d6f74615f46,rev?*%
%TF.SameCoordinates,Original*%
%TF.FileFunction,Legend,Top*%
%TF.FilePolarity,Positive*%
%FSLAX46Y46*%
G04 Gerber Fmt 4.6, Leading zero omitted, Abs format (unit mm)*
G04 Created by KiCad (PCBNEW (5.1.9)-1) date 2021-11-10 21:17:52*
%MOMM*%
%LPD*%
G01*
G04 APERTURE LIST*
%ADD10C,0.120000*%
%ADD11C,0.200000*%
%ADD12C,0.150000*%
%ADD13C,0.254000*%
G04 APERTURE END LIST*
D10*
%TO.C,L1*%
X101838333Y-114905000D02*
X99505000Y-114905000D01*
X99505000Y-114905000D02*
X99505000Y-112571667D01*
X99885000Y-114525000D02*
X99885000Y-107285000D01*
X99885000Y-107285000D02*
X102155000Y-107285000D01*
X104855000Y-107285000D02*
X107125000Y-107285000D01*
X107125000Y-114525000D02*
X107125000Y-107285000D01*
X99885000Y-114525000D02*
X102155000Y-114525000D01*
X104855000Y-114525000D02*
X107125000Y-114525000D01*
%TO.C,C5*%
X121820000Y-108311252D02*
X121820000Y-107788748D01*
X123290000Y-108311252D02*
X123290000Y-107788748D01*
%TO.C,C4*%
X112635000Y-115195000D02*
X112635000Y-110985000D01*
X112635000Y-110985000D02*
X109615000Y-110985000D01*
X109615000Y-110985000D02*
X109615000Y-115195000D01*
%TO.C,C2*%
X93500000Y-125115000D02*
X97710000Y-125115000D01*
X97710000Y-125115000D02*
X97710000Y-122095000D01*
X97710000Y-122095000D02*
X93500000Y-122095000D01*
%TO.C,U1*%
X124880000Y-99925000D02*
X124880000Y-106675000D01*
X142880000Y-99925000D02*
X142880000Y-106675000D01*
X124880000Y-125425000D02*
X125630000Y-125425000D01*
X124880000Y-124675000D02*
X124880000Y-125425000D01*
X142880000Y-125425000D02*
X142130000Y-125425000D01*
X142880000Y-124675000D02*
X142880000Y-125425000D01*
X142880000Y-105865000D02*
X124880000Y-105865000D01*
X124880000Y-99925000D02*
X142880000Y-99925000D01*
X125630000Y-125425000D02*
X127380000Y-125425000D01*
X142130000Y-125425000D02*
X140380000Y-125425000D01*
%TO.C,R5*%
X112470000Y-120806422D02*
X112470000Y-121323578D01*
X111050000Y-120806422D02*
X111050000Y-121323578D01*
%TO.C,R12*%
X101192064Y-131960000D02*
X100737936Y-131960000D01*
X101192064Y-130490000D02*
X100737936Y-130490000D01*
%TO.C,Q1*%
X100205000Y-126470000D02*
X100205000Y-127400000D01*
X100205000Y-129630000D02*
X100205000Y-128700000D01*
X100205000Y-129630000D02*
X102365000Y-129630000D01*
X100205000Y-126470000D02*
X101665000Y-126470000D01*
%TO.C,D3*%
X105775000Y-129800000D02*
X105775000Y-125500000D01*
X105775000Y-125500000D02*
X103775000Y-125500000D01*
X103775000Y-125500000D02*
X103775000Y-129800000D01*
%TO.C,J3*%
X99060000Y-102440000D02*
X99060000Y-99780000D01*
X99060000Y-102440000D02*
X121980000Y-102440000D01*
X121980000Y-102440000D02*
X121980000Y-99780000D01*
X99060000Y-99780000D02*
X121980000Y-99780000D01*
X96460000Y-99780000D02*
X97790000Y-99780000D01*
X96460000Y-101110000D02*
X96460000Y-99780000D01*
%TO.C,D1*%
X120340000Y-138575000D02*
X120340000Y-135890000D01*
X120340000Y-135890000D02*
X118420000Y-135890000D01*
X118420000Y-135890000D02*
X118420000Y-138575000D01*
D11*
%TO.C,IC1*%
X103595000Y-122745000D02*
X100395000Y-122745000D01*
X100395000Y-122745000D02*
X100395000Y-117845000D01*
X100395000Y-117845000D02*
X103595000Y-117845000D01*
X103595000Y-117845000D02*
X103595000Y-122745000D01*
X105495000Y-122900000D02*
X103945000Y-122900000D01*
D10*
%TO.C,R21*%
X108420000Y-122273922D02*
X108420000Y-122791078D01*
X107000000Y-122273922D02*
X107000000Y-122791078D01*
%TO.C,R20*%
X108420000Y-118766422D02*
X108420000Y-119283578D01*
X107000000Y-118766422D02*
X107000000Y-119283578D01*
%TO.C,D2*%
X97535000Y-113855000D02*
X94235000Y-113855000D01*
X94235000Y-113855000D02*
X94235000Y-119255000D01*
X97535000Y-113855000D02*
X97535000Y-119255000D01*
%TO.C,C3*%
X102493578Y-124950000D02*
X101976422Y-124950000D01*
X102493578Y-123530000D02*
X101976422Y-123530000D01*
%TO.C,R11*%
X120090000Y-120806422D02*
X120090000Y-121323578D01*
X118670000Y-120806422D02*
X118670000Y-121323578D01*
%TO.C,R10*%
X135330000Y-137316422D02*
X135330000Y-137833578D01*
X133910000Y-137316422D02*
X133910000Y-137833578D01*
%TO.C,R9*%
X117550000Y-120806422D02*
X117550000Y-121323578D01*
X116130000Y-120806422D02*
X116130000Y-121323578D01*
%TO.C,R8*%
X122630000Y-137316422D02*
X122630000Y-137833578D01*
X121210000Y-137316422D02*
X121210000Y-137833578D01*
%TO.C,FAN4*%
X143590000Y-146525000D02*
X137840000Y-146525000D01*
X136490000Y-146475000D02*
X133290000Y-146475000D01*
X133290000Y-146475000D02*
X133290000Y-140525000D01*
X133290000Y-140525000D02*
X143590000Y-140525000D01*
X143590000Y-140525000D02*
X143590000Y-146525000D01*
X142240000Y-140625000D02*
X142240000Y-141635000D01*
X142240000Y-141635000D02*
X137160000Y-141635000D01*
X137160000Y-141635000D02*
X137160000Y-140625000D01*
%TO.C,FAN3*%
X130890000Y-146525000D02*
X125140000Y-146525000D01*
X123790000Y-146475000D02*
X120590000Y-146475000D01*
X120590000Y-146475000D02*
X120590000Y-140525000D01*
X120590000Y-140525000D02*
X130890000Y-140525000D01*
X130890000Y-140525000D02*
X130890000Y-146525000D01*
X129540000Y-140625000D02*
X129540000Y-141635000D01*
X129540000Y-141635000D02*
X124460000Y-141635000D01*
X124460000Y-141635000D02*
X124460000Y-140625000D01*
%TO.C,FAN2*%
X118190000Y-146525000D02*
X112440000Y-146525000D01*
X111090000Y-146475000D02*
X107890000Y-146475000D01*
X107890000Y-146475000D02*
X107890000Y-140525000D01*
X107890000Y-140525000D02*
X118190000Y-140525000D01*
X118190000Y-140525000D02*
X118190000Y-146525000D01*
X116840000Y-140625000D02*
X116840000Y-141635000D01*
X116840000Y-141635000D02*
X111760000Y-141635000D01*
X111760000Y-141635000D02*
X111760000Y-140625000D01*
%TO.C,R7*%
X149300000Y-113186422D02*
X149300000Y-113703578D01*
X147880000Y-113186422D02*
X147880000Y-113703578D01*
%TO.C,R6*%
X115010000Y-120806422D02*
X115010000Y-121323578D01*
X113590000Y-120806422D02*
X113590000Y-121323578D01*
%TO.C,R4*%
X100405000Y-137013922D02*
X100405000Y-137531078D01*
X98985000Y-137013922D02*
X98985000Y-137531078D01*
%TO.C,R3*%
X109930000Y-137316422D02*
X109930000Y-137833578D01*
X108510000Y-137316422D02*
X108510000Y-137833578D01*
%TO.C,R1*%
X122630000Y-120806422D02*
X122630000Y-121323578D01*
X121210000Y-120806422D02*
X121210000Y-121323578D01*
%TO.C,J2*%
X153210000Y-110845000D02*
X150550000Y-110845000D01*
X153210000Y-123605000D02*
X153210000Y-110845000D01*
X150550000Y-123605000D02*
X150550000Y-110845000D01*
X153210000Y-123605000D02*
X150550000Y-123605000D01*
X153210000Y-124875000D02*
X153210000Y-126205000D01*
X153210000Y-126205000D02*
X151880000Y-126205000D01*
%TO.C,FAN1*%
X105490000Y-146525000D02*
X99740000Y-146525000D01*
X98390000Y-146475000D02*
X95190000Y-146475000D01*
X95190000Y-146475000D02*
X95190000Y-140525000D01*
X95190000Y-140525000D02*
X105490000Y-140525000D01*
X105490000Y-140525000D02*
X105490000Y-146525000D01*
X104140000Y-140625000D02*
X104140000Y-141635000D01*
X104140000Y-141635000D02*
X99060000Y-141635000D01*
X99060000Y-141635000D02*
X99060000Y-140625000D01*
%TO.C,C1*%
X149300000Y-116996422D02*
X149300000Y-117513578D01*
X147880000Y-116996422D02*
X147880000Y-117513578D01*
%TO.C,J1*%
X95655000Y-126750000D02*
X95655000Y-128490000D01*
X93915000Y-126750000D02*
X95655000Y-126750000D01*
X95415000Y-136190000D02*
X93415000Y-136190000D01*
X95415000Y-133390000D02*
X95415000Y-136190000D01*
X95415000Y-126990000D02*
X95415000Y-129790000D01*
X80815000Y-126990000D02*
X95415000Y-126990000D01*
X80815000Y-136190000D02*
X80815000Y-126990000D01*
X89815000Y-136190000D02*
X80815000Y-136190000D01*
%TO.C,R2*%
X117575000Y-137347936D02*
X117575000Y-137802064D01*
X116105000Y-137347936D02*
X116105000Y-137802064D01*
%TO.C,L1*%
D12*
X99257380Y-112071666D02*
X99257380Y-112547857D01*
X98257380Y-112547857D01*
X99257380Y-111214523D02*
X99257380Y-111785952D01*
X99257380Y-111500238D02*
X98257380Y-111500238D01*
X98400238Y-111595476D01*
X98495476Y-111690714D01*
X98543095Y-111785952D01*
%TO.C,C5*%
X121232142Y-108216666D02*
X121279761Y-108264285D01*
X121327380Y-108407142D01*
X121327380Y-108502380D01*
X121279761Y-108645238D01*
X121184523Y-108740476D01*
X121089285Y-108788095D01*
X120898809Y-108835714D01*
X120755952Y-108835714D01*
X120565476Y-108788095D01*
X120470238Y-108740476D01*
X120375000Y-108645238D01*
X120327380Y-108502380D01*
X120327380Y-108407142D01*
X120375000Y-108264285D01*
X120422619Y-108216666D01*
X120327380Y-107311904D02*
X120327380Y-107788095D01*
X120803571Y-107835714D01*
X120755952Y-107788095D01*
X120708333Y-107692857D01*
X120708333Y-107454761D01*
X120755952Y-107359523D01*
X120803571Y-107311904D01*
X120898809Y-107264285D01*
X121136904Y-107264285D01*
X121232142Y-107311904D01*
X121279761Y-107359523D01*
X121327380Y-107454761D01*
X121327380Y-107692857D01*
X121279761Y-107788095D01*
X121232142Y-107835714D01*
%TO.C,C4*%
X113832142Y-113611666D02*
X113879761Y-113659285D01*
X113927380Y-113802142D01*
X113927380Y-113897380D01*
X113879761Y-114040238D01*
X113784523Y-114135476D01*
X113689285Y-114183095D01*
X113498809Y-114230714D01*
X113355952Y-114230714D01*
X113165476Y-114183095D01*
X113070238Y-114135476D01*
X112975000Y-114040238D01*
X112927380Y-113897380D01*
X112927380Y-113802142D01*
X112975000Y-113659285D01*
X113022619Y-113611666D01*
X113260714Y-112754523D02*
X113927380Y-112754523D01*
X112879761Y-112992619D02*
X113594047Y-113230714D01*
X113594047Y-112611666D01*
%TO.C,C2*%
X95083333Y-126312142D02*
X95035714Y-126359761D01*
X94892857Y-126407380D01*
X94797619Y-126407380D01*
X94654761Y-126359761D01*
X94559523Y-126264523D01*
X94511904Y-126169285D01*
X94464285Y-125978809D01*
X94464285Y-125835952D01*
X94511904Y-125645476D01*
X94559523Y-125550238D01*
X94654761Y-125455000D01*
X94797619Y-125407380D01*
X94892857Y-125407380D01*
X95035714Y-125455000D01*
X95083333Y-125502619D01*
X95464285Y-125502619D02*
X95511904Y-125455000D01*
X95607142Y-125407380D01*
X95845238Y-125407380D01*
X95940476Y-125455000D01*
X95988095Y-125502619D01*
X96035714Y-125597857D01*
X96035714Y-125693095D01*
X95988095Y-125835952D01*
X95416666Y-126407380D01*
X96035714Y-126407380D01*
%TO.C,U1*%
X133118095Y-98077380D02*
X133118095Y-98886904D01*
X133165714Y-98982142D01*
X133213333Y-99029761D01*
X133308571Y-99077380D01*
X133499047Y-99077380D01*
X133594285Y-99029761D01*
X133641904Y-98982142D01*
X133689523Y-98886904D01*
X133689523Y-98077380D01*
X134689523Y-99077380D02*
X134118095Y-99077380D01*
X134403809Y-99077380D02*
X134403809Y-98077380D01*
X134308571Y-98220238D01*
X134213333Y-98315476D01*
X134118095Y-98363095D01*
X129118095Y-103091666D02*
X129594285Y-103091666D01*
X129022857Y-103377380D02*
X129356190Y-102377380D01*
X129689523Y-103377380D01*
X130022857Y-102710714D02*
X130022857Y-103377380D01*
X130022857Y-102805952D02*
X130070476Y-102758333D01*
X130165714Y-102710714D01*
X130308571Y-102710714D01*
X130403809Y-102758333D01*
X130451428Y-102853571D01*
X130451428Y-103377380D01*
X130784761Y-102710714D02*
X131165714Y-102710714D01*
X130927619Y-102377380D02*
X130927619Y-103234523D01*
X130975238Y-103329761D01*
X131070476Y-103377380D01*
X131165714Y-103377380D01*
X131880000Y-103329761D02*
X131784761Y-103377380D01*
X131594285Y-103377380D01*
X131499047Y-103329761D01*
X131451428Y-103234523D01*
X131451428Y-102853571D01*
X131499047Y-102758333D01*
X131594285Y-102710714D01*
X131784761Y-102710714D01*
X131880000Y-102758333D01*
X131927619Y-102853571D01*
X131927619Y-102948809D01*
X131451428Y-103044047D01*
X132356190Y-102710714D02*
X132356190Y-103377380D01*
X132356190Y-102805952D02*
X132403809Y-102758333D01*
X132499047Y-102710714D01*
X132641904Y-102710714D01*
X132737142Y-102758333D01*
X132784761Y-102853571D01*
X132784761Y-103377380D01*
X133260952Y-102710714D02*
X133260952Y-103377380D01*
X133260952Y-102805952D02*
X133308571Y-102758333D01*
X133403809Y-102710714D01*
X133546666Y-102710714D01*
X133641904Y-102758333D01*
X133689523Y-102853571D01*
X133689523Y-103377380D01*
X134594285Y-103377380D02*
X134594285Y-102853571D01*
X134546666Y-102758333D01*
X134451428Y-102710714D01*
X134260952Y-102710714D01*
X134165714Y-102758333D01*
X134594285Y-103329761D02*
X134499047Y-103377380D01*
X134260952Y-103377380D01*
X134165714Y-103329761D01*
X134118095Y-103234523D01*
X134118095Y-103139285D01*
X134165714Y-103044047D01*
X134260952Y-102996428D01*
X134499047Y-102996428D01*
X134594285Y-102948809D01*
X135784761Y-103091666D02*
X136260952Y-103091666D01*
X135689523Y-103377380D02*
X136022857Y-102377380D01*
X136356190Y-103377380D01*
X136689523Y-103377380D02*
X136689523Y-102710714D01*
X136689523Y-102901190D02*
X136737142Y-102805952D01*
X136784761Y-102758333D01*
X136880000Y-102710714D01*
X136975238Y-102710714D01*
X137689523Y-103329761D02*
X137594285Y-103377380D01*
X137403809Y-103377380D01*
X137308571Y-103329761D01*
X137260952Y-103234523D01*
X137260952Y-102853571D01*
X137308571Y-102758333D01*
X137403809Y-102710714D01*
X137594285Y-102710714D01*
X137689523Y-102758333D01*
X137737142Y-102853571D01*
X137737142Y-102948809D01*
X137260952Y-103044047D01*
X138594285Y-103377380D02*
X138594285Y-102853571D01*
X138546666Y-102758333D01*
X138451428Y-102710714D01*
X138260952Y-102710714D01*
X138165714Y-102758333D01*
X138594285Y-103329761D02*
X138499047Y-103377380D01*
X138260952Y-103377380D01*
X138165714Y-103329761D01*
X138118095Y-103234523D01*
X138118095Y-103139285D01*
X138165714Y-103044047D01*
X138260952Y-102996428D01*
X138499047Y-102996428D01*
X138594285Y-102948809D01*
%TO.C,R5*%
X113862380Y-121231666D02*
X113386190Y-121565000D01*
X113862380Y-121803095D02*
X112862380Y-121803095D01*
X112862380Y-121422142D01*
X112910000Y-121326904D01*
X112957619Y-121279285D01*
X113052857Y-121231666D01*
X113195714Y-121231666D01*
X113290952Y-121279285D01*
X113338571Y-121326904D01*
X113386190Y-121422142D01*
X113386190Y-121803095D01*
X112862380Y-120326904D02*
X112862380Y-120803095D01*
X113338571Y-120850714D01*
X113290952Y-120803095D01*
X113243333Y-120707857D01*
X113243333Y-120469761D01*
X113290952Y-120374523D01*
X113338571Y-120326904D01*
X113433809Y-120279285D01*
X113671904Y-120279285D01*
X113767142Y-120326904D01*
X113814761Y-120374523D01*
X113862380Y-120469761D01*
X113862380Y-120707857D01*
X113814761Y-120803095D01*
X113767142Y-120850714D01*
%TO.C,R12*%
X100322142Y-133327380D02*
X99988809Y-132851190D01*
X99750714Y-133327380D02*
X99750714Y-132327380D01*
X100131666Y-132327380D01*
X100226904Y-132375000D01*
X100274523Y-132422619D01*
X100322142Y-132517857D01*
X100322142Y-132660714D01*
X100274523Y-132755952D01*
X100226904Y-132803571D01*
X100131666Y-132851190D01*
X99750714Y-132851190D01*
X101274523Y-133327380D02*
X100703095Y-133327380D01*
X100988809Y-133327380D02*
X100988809Y-132327380D01*
X100893571Y-132470238D01*
X100798333Y-132565476D01*
X100703095Y-132613095D01*
X101655476Y-132422619D02*
X101703095Y-132375000D01*
X101798333Y-132327380D01*
X102036428Y-132327380D01*
X102131666Y-132375000D01*
X102179285Y-132422619D01*
X102226904Y-132517857D01*
X102226904Y-132613095D01*
X102179285Y-132755952D01*
X101607857Y-133327380D01*
X102226904Y-133327380D01*
%TO.C,Q1*%
X100869761Y-131097619D02*
X100774523Y-131050000D01*
X100679285Y-130954761D01*
X100536428Y-130811904D01*
X100441190Y-130764285D01*
X100345952Y-130764285D01*
X100393571Y-131002380D02*
X100298333Y-130954761D01*
X100203095Y-130859523D01*
X100155476Y-130669047D01*
X100155476Y-130335714D01*
X100203095Y-130145238D01*
X100298333Y-130050000D01*
X100393571Y-130002380D01*
X100584047Y-130002380D01*
X100679285Y-130050000D01*
X100774523Y-130145238D01*
X100822142Y-130335714D01*
X100822142Y-130669047D01*
X100774523Y-130859523D01*
X100679285Y-130954761D01*
X100584047Y-131002380D01*
X100393571Y-131002380D01*
X101774523Y-131002380D02*
X101203095Y-131002380D01*
X101488809Y-131002380D02*
X101488809Y-130002380D01*
X101393571Y-130145238D01*
X101298333Y-130240476D01*
X101203095Y-130288095D01*
%TO.C,D3*%
X107227380Y-128788095D02*
X106227380Y-128788095D01*
X106227380Y-128550000D01*
X106275000Y-128407142D01*
X106370238Y-128311904D01*
X106465476Y-128264285D01*
X106655952Y-128216666D01*
X106798809Y-128216666D01*
X106989285Y-128264285D01*
X107084523Y-128311904D01*
X107179761Y-128407142D01*
X107227380Y-128550000D01*
X107227380Y-128788095D01*
X106227380Y-127883333D02*
X106227380Y-127264285D01*
X106608333Y-127597619D01*
X106608333Y-127454761D01*
X106655952Y-127359523D01*
X106703571Y-127311904D01*
X106798809Y-127264285D01*
X107036904Y-127264285D01*
X107132142Y-127311904D01*
X107179761Y-127359523D01*
X107227380Y-127454761D01*
X107227380Y-127740476D01*
X107179761Y-127835714D01*
X107132142Y-127883333D01*
%TO.C,J3*%
X94472380Y-101443333D02*
X95186666Y-101443333D01*
X95329523Y-101490952D01*
X95424761Y-101586190D01*
X95472380Y-101729047D01*
X95472380Y-101824285D01*
X94472380Y-101062380D02*
X94472380Y-100443333D01*
X94853333Y-100776666D01*
X94853333Y-100633809D01*
X94900952Y-100538571D01*
X94948571Y-100490952D01*
X95043809Y-100443333D01*
X95281904Y-100443333D01*
X95377142Y-100490952D01*
X95424761Y-100538571D01*
X95472380Y-100633809D01*
X95472380Y-100919523D01*
X95424761Y-101014761D01*
X95377142Y-101062380D01*
%TO.C,D1*%
X121482380Y-138313095D02*
X120482380Y-138313095D01*
X120482380Y-138075000D01*
X120530000Y-137932142D01*
X120625238Y-137836904D01*
X120720476Y-137789285D01*
X120910952Y-137741666D01*
X121053809Y-137741666D01*
X121244285Y-137789285D01*
X121339523Y-137836904D01*
X121434761Y-137932142D01*
X121482380Y-138075000D01*
X121482380Y-138313095D01*
X121482380Y-136789285D02*
X121482380Y-137360714D01*
X121482380Y-137075000D02*
X120482380Y-137075000D01*
X120625238Y-137170238D01*
X120720476Y-137265476D01*
X120768095Y-137360714D01*
%TO.C,IC1*%
D13*
X100755238Y-120869523D02*
X100755238Y-119599523D01*
X102085714Y-120748571D02*
X102025238Y-120809047D01*
X101843809Y-120869523D01*
X101722857Y-120869523D01*
X101541428Y-120809047D01*
X101420476Y-120688095D01*
X101360000Y-120567142D01*
X101299523Y-120325238D01*
X101299523Y-120143809D01*
X101360000Y-119901904D01*
X101420476Y-119780952D01*
X101541428Y-119660000D01*
X101722857Y-119599523D01*
X101843809Y-119599523D01*
X102025238Y-119660000D01*
X102085714Y-119720476D01*
X103295238Y-120869523D02*
X102569523Y-120869523D01*
X102932380Y-120869523D02*
X102932380Y-119599523D01*
X102811428Y-119780952D01*
X102690476Y-119901904D01*
X102569523Y-119962380D01*
%TO.C,R21*%
D12*
X109812380Y-123175357D02*
X109336190Y-123508690D01*
X109812380Y-123746785D02*
X108812380Y-123746785D01*
X108812380Y-123365833D01*
X108860000Y-123270595D01*
X108907619Y-123222976D01*
X109002857Y-123175357D01*
X109145714Y-123175357D01*
X109240952Y-123222976D01*
X109288571Y-123270595D01*
X109336190Y-123365833D01*
X109336190Y-123746785D01*
X108907619Y-122794404D02*
X108860000Y-122746785D01*
X108812380Y-122651547D01*
X108812380Y-122413452D01*
X108860000Y-122318214D01*
X108907619Y-122270595D01*
X109002857Y-122222976D01*
X109098095Y-122222976D01*
X109240952Y-122270595D01*
X109812380Y-122842023D01*
X109812380Y-122222976D01*
X109812380Y-121270595D02*
X109812380Y-121842023D01*
X109812380Y-121556309D02*
X108812380Y-121556309D01*
X108955238Y-121651547D01*
X109050476Y-121746785D01*
X109098095Y-121842023D01*
%TO.C,R20*%
X109812380Y-119667857D02*
X109336190Y-120001190D01*
X109812380Y-120239285D02*
X108812380Y-120239285D01*
X108812380Y-119858333D01*
X108860000Y-119763095D01*
X108907619Y-119715476D01*
X109002857Y-119667857D01*
X109145714Y-119667857D01*
X109240952Y-119715476D01*
X109288571Y-119763095D01*
X109336190Y-119858333D01*
X109336190Y-120239285D01*
X108907619Y-119286904D02*
X108860000Y-119239285D01*
X108812380Y-119144047D01*
X108812380Y-118905952D01*
X108860000Y-118810714D01*
X108907619Y-118763095D01*
X109002857Y-118715476D01*
X109098095Y-118715476D01*
X109240952Y-118763095D01*
X109812380Y-119334523D01*
X109812380Y-118715476D01*
X108812380Y-118096428D02*
X108812380Y-118001190D01*
X108860000Y-117905952D01*
X108907619Y-117858333D01*
X109002857Y-117810714D01*
X109193333Y-117763095D01*
X109431428Y-117763095D01*
X109621904Y-117810714D01*
X109717142Y-117858333D01*
X109764761Y-117905952D01*
X109812380Y-118001190D01*
X109812380Y-118096428D01*
X109764761Y-118191666D01*
X109717142Y-118239285D01*
X109621904Y-118286904D01*
X109431428Y-118334523D01*
X109193333Y-118334523D01*
X109002857Y-118286904D01*
X108907619Y-118239285D01*
X108860000Y-118191666D01*
X108812380Y-118096428D01*
%TO.C,D2*%
X98837380Y-117993095D02*
X97837380Y-117993095D01*
X97837380Y-117755000D01*
X97885000Y-117612142D01*
X97980238Y-117516904D01*
X98075476Y-117469285D01*
X98265952Y-117421666D01*
X98408809Y-117421666D01*
X98599285Y-117469285D01*
X98694523Y-117516904D01*
X98789761Y-117612142D01*
X98837380Y-117755000D01*
X98837380Y-117993095D01*
X97932619Y-117040714D02*
X97885000Y-116993095D01*
X97837380Y-116897857D01*
X97837380Y-116659761D01*
X97885000Y-116564523D01*
X97932619Y-116516904D01*
X98027857Y-116469285D01*
X98123095Y-116469285D01*
X98265952Y-116516904D01*
X98837380Y-117088333D01*
X98837380Y-116469285D01*
%TO.C,C3*%
X102068333Y-126247142D02*
X102020714Y-126294761D01*
X101877857Y-126342380D01*
X101782619Y-126342380D01*
X101639761Y-126294761D01*
X101544523Y-126199523D01*
X101496904Y-126104285D01*
X101449285Y-125913809D01*
X101449285Y-125770952D01*
X101496904Y-125580476D01*
X101544523Y-125485238D01*
X101639761Y-125390000D01*
X101782619Y-125342380D01*
X101877857Y-125342380D01*
X102020714Y-125390000D01*
X102068333Y-125437619D01*
X102401666Y-125342380D02*
X103020714Y-125342380D01*
X102687380Y-125723333D01*
X102830238Y-125723333D01*
X102925476Y-125770952D01*
X102973095Y-125818571D01*
X103020714Y-125913809D01*
X103020714Y-126151904D01*
X102973095Y-126247142D01*
X102925476Y-126294761D01*
X102830238Y-126342380D01*
X102544523Y-126342380D01*
X102449285Y-126294761D01*
X102401666Y-126247142D01*
%TO.C,R11*%
X121482380Y-121707857D02*
X121006190Y-122041190D01*
X121482380Y-122279285D02*
X120482380Y-122279285D01*
X120482380Y-121898333D01*
X120530000Y-121803095D01*
X120577619Y-121755476D01*
X120672857Y-121707857D01*
X120815714Y-121707857D01*
X120910952Y-121755476D01*
X120958571Y-121803095D01*
X121006190Y-121898333D01*
X121006190Y-122279285D01*
X121482380Y-120755476D02*
X121482380Y-121326904D01*
X121482380Y-121041190D02*
X120482380Y-121041190D01*
X120625238Y-121136428D01*
X120720476Y-121231666D01*
X120768095Y-121326904D01*
X121482380Y-119803095D02*
X121482380Y-120374523D01*
X121482380Y-120088809D02*
X120482380Y-120088809D01*
X120625238Y-120184047D01*
X120720476Y-120279285D01*
X120768095Y-120374523D01*
%TO.C,R10*%
X136722380Y-138217857D02*
X136246190Y-138551190D01*
X136722380Y-138789285D02*
X135722380Y-138789285D01*
X135722380Y-138408333D01*
X135770000Y-138313095D01*
X135817619Y-138265476D01*
X135912857Y-138217857D01*
X136055714Y-138217857D01*
X136150952Y-138265476D01*
X136198571Y-138313095D01*
X136246190Y-138408333D01*
X136246190Y-138789285D01*
X136722380Y-137265476D02*
X136722380Y-137836904D01*
X136722380Y-137551190D02*
X135722380Y-137551190D01*
X135865238Y-137646428D01*
X135960476Y-137741666D01*
X136008095Y-137836904D01*
X135722380Y-136646428D02*
X135722380Y-136551190D01*
X135770000Y-136455952D01*
X135817619Y-136408333D01*
X135912857Y-136360714D01*
X136103333Y-136313095D01*
X136341428Y-136313095D01*
X136531904Y-136360714D01*
X136627142Y-136408333D01*
X136674761Y-136455952D01*
X136722380Y-136551190D01*
X136722380Y-136646428D01*
X136674761Y-136741666D01*
X136627142Y-136789285D01*
X136531904Y-136836904D01*
X136341428Y-136884523D01*
X136103333Y-136884523D01*
X135912857Y-136836904D01*
X135817619Y-136789285D01*
X135770000Y-136741666D01*
X135722380Y-136646428D01*
%TO.C,R9*%
X118942380Y-121231666D02*
X118466190Y-121565000D01*
X118942380Y-121803095D02*
X117942380Y-121803095D01*
X117942380Y-121422142D01*
X117990000Y-121326904D01*
X118037619Y-121279285D01*
X118132857Y-121231666D01*
X118275714Y-121231666D01*
X118370952Y-121279285D01*
X118418571Y-121326904D01*
X118466190Y-121422142D01*
X118466190Y-121803095D01*
X118942380Y-120755476D02*
X118942380Y-120565000D01*
X118894761Y-120469761D01*
X118847142Y-120422142D01*
X118704285Y-120326904D01*
X118513809Y-120279285D01*
X118132857Y-120279285D01*
X118037619Y-120326904D01*
X117990000Y-120374523D01*
X117942380Y-120469761D01*
X117942380Y-120660238D01*
X117990000Y-120755476D01*
X118037619Y-120803095D01*
X118132857Y-120850714D01*
X118370952Y-120850714D01*
X118466190Y-120803095D01*
X118513809Y-120755476D01*
X118561428Y-120660238D01*
X118561428Y-120469761D01*
X118513809Y-120374523D01*
X118466190Y-120326904D01*
X118370952Y-120279285D01*
%TO.C,R8*%
X124022380Y-137741666D02*
X123546190Y-138075000D01*
X124022380Y-138313095D02*
X123022380Y-138313095D01*
X123022380Y-137932142D01*
X123070000Y-137836904D01*
X123117619Y-137789285D01*
X123212857Y-137741666D01*
X123355714Y-137741666D01*
X123450952Y-137789285D01*
X123498571Y-137836904D01*
X123546190Y-137932142D01*
X123546190Y-138313095D01*
X123450952Y-137170238D02*
X123403333Y-137265476D01*
X123355714Y-137313095D01*
X123260476Y-137360714D01*
X123212857Y-137360714D01*
X123117619Y-137313095D01*
X123070000Y-137265476D01*
X123022380Y-137170238D01*
X123022380Y-136979761D01*
X123070000Y-136884523D01*
X123117619Y-136836904D01*
X123212857Y-136789285D01*
X123260476Y-136789285D01*
X123355714Y-136836904D01*
X123403333Y-136884523D01*
X123450952Y-136979761D01*
X123450952Y-137170238D01*
X123498571Y-137265476D01*
X123546190Y-137313095D01*
X123641428Y-137360714D01*
X123831904Y-137360714D01*
X123927142Y-137313095D01*
X123974761Y-137265476D01*
X124022380Y-137170238D01*
X124022380Y-136979761D01*
X123974761Y-136884523D01*
X123927142Y-136836904D01*
X123831904Y-136789285D01*
X123641428Y-136789285D01*
X123546190Y-136836904D01*
X123498571Y-136884523D01*
X123450952Y-136979761D01*
%TO.C,FAN4*%
X136954285Y-147403571D02*
X136620952Y-147403571D01*
X136620952Y-147927380D02*
X136620952Y-146927380D01*
X137097142Y-146927380D01*
X137430476Y-147641666D02*
X137906666Y-147641666D01*
X137335238Y-147927380D02*
X137668571Y-146927380D01*
X138001904Y-147927380D01*
X138335238Y-147927380D02*
X138335238Y-146927380D01*
X138906666Y-147927380D01*
X138906666Y-146927380D01*
X139811428Y-147260714D02*
X139811428Y-147927380D01*
X139573333Y-146879761D02*
X139335238Y-147594047D01*
X139954285Y-147594047D01*
%TO.C,FAN3*%
X124254285Y-147403571D02*
X123920952Y-147403571D01*
X123920952Y-147927380D02*
X123920952Y-146927380D01*
X124397142Y-146927380D01*
X124730476Y-147641666D02*
X125206666Y-147641666D01*
X124635238Y-147927380D02*
X124968571Y-146927380D01*
X125301904Y-147927380D01*
X125635238Y-147927380D02*
X125635238Y-146927380D01*
X126206666Y-147927380D01*
X126206666Y-146927380D01*
X126587619Y-146927380D02*
X127206666Y-146927380D01*
X126873333Y-147308333D01*
X127016190Y-147308333D01*
X127111428Y-147355952D01*
X127159047Y-147403571D01*
X127206666Y-147498809D01*
X127206666Y-147736904D01*
X127159047Y-147832142D01*
X127111428Y-147879761D01*
X127016190Y-147927380D01*
X126730476Y-147927380D01*
X126635238Y-147879761D01*
X126587619Y-147832142D01*
%TO.C,FAN2*%
X111554285Y-147403571D02*
X111220952Y-147403571D01*
X111220952Y-147927380D02*
X111220952Y-146927380D01*
X111697142Y-146927380D01*
X112030476Y-147641666D02*
X112506666Y-147641666D01*
X111935238Y-147927380D02*
X112268571Y-146927380D01*
X112601904Y-147927380D01*
X112935238Y-147927380D02*
X112935238Y-146927380D01*
X113506666Y-147927380D01*
X113506666Y-146927380D01*
X113935238Y-147022619D02*
X113982857Y-146975000D01*
X114078095Y-146927380D01*
X114316190Y-146927380D01*
X114411428Y-146975000D01*
X114459047Y-147022619D01*
X114506666Y-147117857D01*
X114506666Y-147213095D01*
X114459047Y-147355952D01*
X113887619Y-147927380D01*
X114506666Y-147927380D01*
%TO.C,R7*%
X150692380Y-113611666D02*
X150216190Y-113945000D01*
X150692380Y-114183095D02*
X149692380Y-114183095D01*
X149692380Y-113802142D01*
X149740000Y-113706904D01*
X149787619Y-113659285D01*
X149882857Y-113611666D01*
X150025714Y-113611666D01*
X150120952Y-113659285D01*
X150168571Y-113706904D01*
X150216190Y-113802142D01*
X150216190Y-114183095D01*
X149692380Y-113278333D02*
X149692380Y-112611666D01*
X150692380Y-113040238D01*
%TO.C,R6*%
X116402380Y-121231666D02*
X115926190Y-121565000D01*
X116402380Y-121803095D02*
X115402380Y-121803095D01*
X115402380Y-121422142D01*
X115450000Y-121326904D01*
X115497619Y-121279285D01*
X115592857Y-121231666D01*
X115735714Y-121231666D01*
X115830952Y-121279285D01*
X115878571Y-121326904D01*
X115926190Y-121422142D01*
X115926190Y-121803095D01*
X115402380Y-120374523D02*
X115402380Y-120565000D01*
X115450000Y-120660238D01*
X115497619Y-120707857D01*
X115640476Y-120803095D01*
X115830952Y-120850714D01*
X116211904Y-120850714D01*
X116307142Y-120803095D01*
X116354761Y-120755476D01*
X116402380Y-120660238D01*
X116402380Y-120469761D01*
X116354761Y-120374523D01*
X116307142Y-120326904D01*
X116211904Y-120279285D01*
X115973809Y-120279285D01*
X115878571Y-120326904D01*
X115830952Y-120374523D01*
X115783333Y-120469761D01*
X115783333Y-120660238D01*
X115830952Y-120755476D01*
X115878571Y-120803095D01*
X115973809Y-120850714D01*
%TO.C,R4*%
X101797380Y-137439166D02*
X101321190Y-137772500D01*
X101797380Y-138010595D02*
X100797380Y-138010595D01*
X100797380Y-137629642D01*
X100845000Y-137534404D01*
X100892619Y-137486785D01*
X100987857Y-137439166D01*
X101130714Y-137439166D01*
X101225952Y-137486785D01*
X101273571Y-137534404D01*
X101321190Y-137629642D01*
X101321190Y-138010595D01*
X101130714Y-136582023D02*
X101797380Y-136582023D01*
X100749761Y-136820119D02*
X101464047Y-137058214D01*
X101464047Y-136439166D01*
%TO.C,R3*%
X111322380Y-137741666D02*
X110846190Y-138075000D01*
X111322380Y-138313095D02*
X110322380Y-138313095D01*
X110322380Y-137932142D01*
X110370000Y-137836904D01*
X110417619Y-137789285D01*
X110512857Y-137741666D01*
X110655714Y-137741666D01*
X110750952Y-137789285D01*
X110798571Y-137836904D01*
X110846190Y-137932142D01*
X110846190Y-138313095D01*
X110322380Y-137408333D02*
X110322380Y-136789285D01*
X110703333Y-137122619D01*
X110703333Y-136979761D01*
X110750952Y-136884523D01*
X110798571Y-136836904D01*
X110893809Y-136789285D01*
X111131904Y-136789285D01*
X111227142Y-136836904D01*
X111274761Y-136884523D01*
X111322380Y-136979761D01*
X111322380Y-137265476D01*
X111274761Y-137360714D01*
X111227142Y-137408333D01*
%TO.C,R1*%
X124022380Y-121231666D02*
X123546190Y-121565000D01*
X124022380Y-121803095D02*
X123022380Y-121803095D01*
X123022380Y-121422142D01*
X123070000Y-121326904D01*
X123117619Y-121279285D01*
X123212857Y-121231666D01*
X123355714Y-121231666D01*
X123450952Y-121279285D01*
X123498571Y-121326904D01*
X123546190Y-121422142D01*
X123546190Y-121803095D01*
X124022380Y-120279285D02*
X124022380Y-120850714D01*
X124022380Y-120565000D02*
X123022380Y-120565000D01*
X123165238Y-120660238D01*
X123260476Y-120755476D01*
X123308095Y-120850714D01*
%TO.C,J2*%
X151546666Y-126657380D02*
X151546666Y-127371666D01*
X151499047Y-127514523D01*
X151403809Y-127609761D01*
X151260952Y-127657380D01*
X151165714Y-127657380D01*
X151975238Y-126752619D02*
X152022857Y-126705000D01*
X152118095Y-126657380D01*
X152356190Y-126657380D01*
X152451428Y-126705000D01*
X152499047Y-126752619D01*
X152546666Y-126847857D01*
X152546666Y-126943095D01*
X152499047Y-127085952D01*
X151927619Y-127657380D01*
X152546666Y-127657380D01*
%TO.C,FAN1*%
X98854285Y-147403571D02*
X98520952Y-147403571D01*
X98520952Y-147927380D02*
X98520952Y-146927380D01*
X98997142Y-146927380D01*
X99330476Y-147641666D02*
X99806666Y-147641666D01*
X99235238Y-147927380D02*
X99568571Y-146927380D01*
X99901904Y-147927380D01*
X100235238Y-147927380D02*
X100235238Y-146927380D01*
X100806666Y-147927380D01*
X100806666Y-146927380D01*
X101806666Y-147927380D02*
X101235238Y-147927380D01*
X101520952Y-147927380D02*
X101520952Y-146927380D01*
X101425714Y-147070238D01*
X101330476Y-147165476D01*
X101235238Y-147213095D01*
%TO.C,C1*%
X150597142Y-117421666D02*
X150644761Y-117469285D01*
X150692380Y-117612142D01*
X150692380Y-117707380D01*
X150644761Y-117850238D01*
X150549523Y-117945476D01*
X150454285Y-117993095D01*
X150263809Y-118040714D01*
X150120952Y-118040714D01*
X149930476Y-117993095D01*
X149835238Y-117945476D01*
X149740000Y-117850238D01*
X149692380Y-117707380D01*
X149692380Y-117612142D01*
X149740000Y-117469285D01*
X149787619Y-117421666D01*
X150692380Y-116469285D02*
X150692380Y-117040714D01*
X150692380Y-116755000D02*
X149692380Y-116755000D01*
X149835238Y-116850238D01*
X149930476Y-116945476D01*
X149978095Y-117040714D01*
%TO.C,R2*%
X115641380Y-137741666D02*
X115165190Y-138075000D01*
X115641380Y-138313095D02*
X114641380Y-138313095D01*
X114641380Y-137932142D01*
X114689000Y-137836904D01*
X114736619Y-137789285D01*
X114831857Y-137741666D01*
X114974714Y-137741666D01*
X115069952Y-137789285D01*
X115117571Y-137836904D01*
X115165190Y-137932142D01*
X115165190Y-138313095D01*
X114736619Y-137360714D02*
X114689000Y-137313095D01*
X114641380Y-137217857D01*
X114641380Y-136979761D01*
X114689000Y-136884523D01*
X114736619Y-136836904D01*
X114831857Y-136789285D01*
X114927095Y-136789285D01*
X115069952Y-136836904D01*
X115641380Y-137408333D01*
X115641380Y-136789285D01*
%TD*%
M02*
