%TF.GenerationSoftware,KiCad,Pcbnew,(5.1.9)-1*%
%TF.CreationDate,2021-11-10T21:17:52+01:00*%
%TF.ProjectId,ESP32_Tasmota_Fan,45535033-325f-4546-9173-6d6f74615f46,rev?*%
%TF.SameCoordinates,Original*%
%TF.FileFunction,Soldermask,Top*%
%TF.FilePolarity,Negative*%
%FSLAX46Y46*%
G04 Gerber Fmt 4.6, Leading zero omitted, Abs format (unit mm)*
G04 Created by KiCad (PCBNEW (5.1.9)-1) date 2021-11-10 21:17:52*
%MOMM*%
%LPD*%
G01*
G04 APERTURE LIST*
%ADD10C,0.100000*%
%ADD11R,1.050000X1.050000*%
%ADD12R,1.500000X0.900000*%
%ADD13R,0.900000X1.500000*%
%ADD14R,0.900000X0.800000*%
%ADD15R,1.700000X1.300000*%
%ADD16O,1.700000X1.700000*%
%ADD17R,1.700000X1.700000*%
%ADD18C,1.700000*%
%ADD19R,1.550000X0.700000*%
%ADD20R,1.800000X2.500000*%
%ADD21C,1.100000*%
%ADD22O,1.730000X2.030000*%
%ADD23R,1.730000X2.030000*%
%ADD24C,0.800000*%
%ADD25C,6.400000*%
%ADD26C,3.750000*%
%ADD27C,4.000000*%
G04 APERTURE END LIST*
D10*
G36*
X135630000Y-117175000D02*
G01*
X130880000Y-117175000D01*
X130880000Y-112425000D01*
X135630000Y-112425000D01*
X135630000Y-117175000D01*
G37*
X135630000Y-117175000D02*
X130880000Y-117175000D01*
X130880000Y-112425000D01*
X135630000Y-112425000D01*
X135630000Y-117175000D01*
%TO.C,L1*%
G36*
G01*
X104230000Y-108505000D02*
X102780000Y-108505000D01*
G75*
G02*
X102405000Y-108130000I0J375000D01*
G01*
X102405000Y-107380000D01*
G75*
G02*
X102780000Y-107005000I375000J0D01*
G01*
X104230000Y-107005000D01*
G75*
G02*
X104605000Y-107380000I0J-375000D01*
G01*
X104605000Y-108130000D01*
G75*
G02*
X104230000Y-108505000I-375000J0D01*
G01*
G37*
G36*
G01*
X104230000Y-114805000D02*
X102780000Y-114805000D01*
G75*
G02*
X102405000Y-114430000I0J375000D01*
G01*
X102405000Y-113680000D01*
G75*
G02*
X102780000Y-113305000I375000J0D01*
G01*
X104230000Y-113305000D01*
G75*
G02*
X104605000Y-113680000I0J-375000D01*
G01*
X104605000Y-114430000D01*
G75*
G02*
X104230000Y-114805000I-375000J0D01*
G01*
G37*
%TD*%
%TO.C,C5*%
G36*
G01*
X123030000Y-107600000D02*
X122080000Y-107600000D01*
G75*
G02*
X121830000Y-107350000I0J250000D01*
G01*
X121830000Y-106850000D01*
G75*
G02*
X122080000Y-106600000I250000J0D01*
G01*
X123030000Y-106600000D01*
G75*
G02*
X123280000Y-106850000I0J-250000D01*
G01*
X123280000Y-107350000D01*
G75*
G02*
X123030000Y-107600000I-250000J0D01*
G01*
G37*
G36*
G01*
X123030000Y-109500000D02*
X122080000Y-109500000D01*
G75*
G02*
X121830000Y-109250000I0J250000D01*
G01*
X121830000Y-108750000D01*
G75*
G02*
X122080000Y-108500000I250000J0D01*
G01*
X123030000Y-108500000D01*
G75*
G02*
X123280000Y-108750000I0J-250000D01*
G01*
X123280000Y-109250000D01*
G75*
G02*
X123030000Y-109500000I-250000J0D01*
G01*
G37*
%TD*%
%TO.C,C4*%
G36*
G01*
X110199999Y-114320000D02*
X112050001Y-114320000D01*
G75*
G02*
X112300000Y-114569999I0J-249999D01*
G01*
X112300000Y-115395001D01*
G75*
G02*
X112050001Y-115645000I-249999J0D01*
G01*
X110199999Y-115645000D01*
G75*
G02*
X109950000Y-115395001I0J249999D01*
G01*
X109950000Y-114569999D01*
G75*
G02*
X110199999Y-114320000I249999J0D01*
G01*
G37*
G36*
G01*
X110199999Y-111245000D02*
X112050001Y-111245000D01*
G75*
G02*
X112300000Y-111494999I0J-249999D01*
G01*
X112300000Y-112320001D01*
G75*
G02*
X112050001Y-112570000I-249999J0D01*
G01*
X110199999Y-112570000D01*
G75*
G02*
X109950000Y-112320001I0J249999D01*
G01*
X109950000Y-111494999D01*
G75*
G02*
X110199999Y-111245000I249999J0D01*
G01*
G37*
%TD*%
%TO.C,C2*%
G36*
G01*
X94375000Y-122679999D02*
X94375000Y-124530001D01*
G75*
G02*
X94125001Y-124780000I-249999J0D01*
G01*
X93299999Y-124780000D01*
G75*
G02*
X93050000Y-124530001I0J249999D01*
G01*
X93050000Y-122679999D01*
G75*
G02*
X93299999Y-122430000I249999J0D01*
G01*
X94125001Y-122430000D01*
G75*
G02*
X94375000Y-122679999I0J-249999D01*
G01*
G37*
G36*
G01*
X97450000Y-122679999D02*
X97450000Y-124530001D01*
G75*
G02*
X97200001Y-124780000I-249999J0D01*
G01*
X96374999Y-124780000D01*
G75*
G02*
X96125000Y-124530001I0J249999D01*
G01*
X96125000Y-122679999D01*
G75*
G02*
X96374999Y-122430000I249999J0D01*
G01*
X97200001Y-122430000D01*
G75*
G02*
X97450000Y-122679999I0J-249999D01*
G01*
G37*
%TD*%
D11*
%TO.C,U1*%
X131675000Y-113230000D03*
X133200000Y-113230000D03*
X134725000Y-113230000D03*
X134725000Y-116280000D03*
X133200000Y-116280000D03*
X131675000Y-116280000D03*
X131675000Y-114755000D03*
X134725000Y-114755000D03*
X133200000Y-114755000D03*
D12*
X142630000Y-107415000D03*
X142630000Y-108685000D03*
X142630000Y-109955000D03*
X142630000Y-111225000D03*
X142630000Y-112495000D03*
X142630000Y-113765000D03*
X142630000Y-115035000D03*
X142630000Y-116305000D03*
X142630000Y-117575000D03*
X142630000Y-118845000D03*
X142630000Y-120115000D03*
X142630000Y-121385000D03*
X142630000Y-122655000D03*
X142630000Y-123925000D03*
D13*
X139590000Y-125175000D03*
X138320000Y-125175000D03*
X137050000Y-125175000D03*
X135780000Y-125175000D03*
X134510000Y-125175000D03*
X133240000Y-125175000D03*
X131970000Y-125175000D03*
X130700000Y-125175000D03*
X129430000Y-125175000D03*
X128160000Y-125175000D03*
D12*
X125130000Y-107415000D03*
X125130000Y-108685000D03*
X125130000Y-109955000D03*
X125130000Y-111225000D03*
X125130000Y-112495000D03*
X125130000Y-113765000D03*
X125130000Y-115035000D03*
X125130000Y-116305000D03*
X125130000Y-117575000D03*
X125130000Y-118845000D03*
X125130000Y-120115000D03*
X125130000Y-121385000D03*
X125130000Y-122655000D03*
X125130000Y-123925000D03*
%TD*%
%TO.C,R5*%
G36*
G01*
X111303750Y-121515000D02*
X112216250Y-121515000D01*
G75*
G02*
X112460000Y-121758750I0J-243750D01*
G01*
X112460000Y-122246250D01*
G75*
G02*
X112216250Y-122490000I-243750J0D01*
G01*
X111303750Y-122490000D01*
G75*
G02*
X111060000Y-122246250I0J243750D01*
G01*
X111060000Y-121758750D01*
G75*
G02*
X111303750Y-121515000I243750J0D01*
G01*
G37*
G36*
G01*
X111303750Y-119640000D02*
X112216250Y-119640000D01*
G75*
G02*
X112460000Y-119883750I0J-243750D01*
G01*
X112460000Y-120371250D01*
G75*
G02*
X112216250Y-120615000I-243750J0D01*
G01*
X111303750Y-120615000D01*
G75*
G02*
X111060000Y-120371250I0J243750D01*
G01*
X111060000Y-119883750D01*
G75*
G02*
X111303750Y-119640000I243750J0D01*
G01*
G37*
%TD*%
%TO.C,R12*%
G36*
G01*
X100565000Y-130774999D02*
X100565000Y-131675001D01*
G75*
G02*
X100315001Y-131925000I-249999J0D01*
G01*
X99789999Y-131925000D01*
G75*
G02*
X99540000Y-131675001I0J249999D01*
G01*
X99540000Y-130774999D01*
G75*
G02*
X99789999Y-130525000I249999J0D01*
G01*
X100315001Y-130525000D01*
G75*
G02*
X100565000Y-130774999I0J-249999D01*
G01*
G37*
G36*
G01*
X102390000Y-130774999D02*
X102390000Y-131675001D01*
G75*
G02*
X102140001Y-131925000I-249999J0D01*
G01*
X101614999Y-131925000D01*
G75*
G02*
X101365000Y-131675001I0J249999D01*
G01*
X101365000Y-130774999D01*
G75*
G02*
X101614999Y-130525000I249999J0D01*
G01*
X102140001Y-130525000D01*
G75*
G02*
X102390000Y-130774999I0J-249999D01*
G01*
G37*
%TD*%
D14*
%TO.C,Q1*%
X99965000Y-128050000D03*
X101965000Y-127100000D03*
X101965000Y-129000000D03*
%TD*%
D15*
%TO.C,D3*%
X104775000Y-129800000D03*
X104775000Y-126300000D03*
%TD*%
D16*
%TO.C,J3*%
X120650000Y-101110000D03*
X118110000Y-101110000D03*
X115570000Y-101110000D03*
X113030000Y-101110000D03*
D17*
X110490000Y-101110000D03*
D16*
X107950000Y-101110000D03*
D17*
X105410000Y-101110000D03*
D16*
X102870000Y-101110000D03*
X100330000Y-101110000D03*
D18*
X97790000Y-101110000D03*
%TD*%
%TO.C,D1*%
G36*
G01*
X118923750Y-138025000D02*
X119836250Y-138025000D01*
G75*
G02*
X120080000Y-138268750I0J-243750D01*
G01*
X120080000Y-138756250D01*
G75*
G02*
X119836250Y-139000000I-243750J0D01*
G01*
X118923750Y-139000000D01*
G75*
G02*
X118680000Y-138756250I0J243750D01*
G01*
X118680000Y-138268750D01*
G75*
G02*
X118923750Y-138025000I243750J0D01*
G01*
G37*
G36*
G01*
X118923750Y-136150000D02*
X119836250Y-136150000D01*
G75*
G02*
X120080000Y-136393750I0J-243750D01*
G01*
X120080000Y-136881250D01*
G75*
G02*
X119836250Y-137125000I-243750J0D01*
G01*
X118923750Y-137125000D01*
G75*
G02*
X118680000Y-136881250I0J243750D01*
G01*
X118680000Y-136393750D01*
G75*
G02*
X118923750Y-136150000I243750J0D01*
G01*
G37*
%TD*%
D19*
%TO.C,IC1*%
X99270000Y-122200000D03*
X99270000Y-120930000D03*
X99270000Y-119660000D03*
X99270000Y-118390000D03*
X104720000Y-118390000D03*
X104720000Y-119660000D03*
X104720000Y-120930000D03*
X104720000Y-122200000D03*
%TD*%
%TO.C,R21*%
G36*
G01*
X107253750Y-122982500D02*
X108166250Y-122982500D01*
G75*
G02*
X108410000Y-123226250I0J-243750D01*
G01*
X108410000Y-123713750D01*
G75*
G02*
X108166250Y-123957500I-243750J0D01*
G01*
X107253750Y-123957500D01*
G75*
G02*
X107010000Y-123713750I0J243750D01*
G01*
X107010000Y-123226250D01*
G75*
G02*
X107253750Y-122982500I243750J0D01*
G01*
G37*
G36*
G01*
X107253750Y-121107500D02*
X108166250Y-121107500D01*
G75*
G02*
X108410000Y-121351250I0J-243750D01*
G01*
X108410000Y-121838750D01*
G75*
G02*
X108166250Y-122082500I-243750J0D01*
G01*
X107253750Y-122082500D01*
G75*
G02*
X107010000Y-121838750I0J243750D01*
G01*
X107010000Y-121351250D01*
G75*
G02*
X107253750Y-121107500I243750J0D01*
G01*
G37*
%TD*%
%TO.C,R20*%
G36*
G01*
X107253750Y-119475000D02*
X108166250Y-119475000D01*
G75*
G02*
X108410000Y-119718750I0J-243750D01*
G01*
X108410000Y-120206250D01*
G75*
G02*
X108166250Y-120450000I-243750J0D01*
G01*
X107253750Y-120450000D01*
G75*
G02*
X107010000Y-120206250I0J243750D01*
G01*
X107010000Y-119718750D01*
G75*
G02*
X107253750Y-119475000I243750J0D01*
G01*
G37*
G36*
G01*
X107253750Y-117600000D02*
X108166250Y-117600000D01*
G75*
G02*
X108410000Y-117843750I0J-243750D01*
G01*
X108410000Y-118331250D01*
G75*
G02*
X108166250Y-118575000I-243750J0D01*
G01*
X107253750Y-118575000D01*
G75*
G02*
X107010000Y-118331250I0J243750D01*
G01*
X107010000Y-117843750D01*
G75*
G02*
X107253750Y-117600000I243750J0D01*
G01*
G37*
%TD*%
D20*
%TO.C,D2*%
X95885000Y-119255000D03*
X95885000Y-115255000D03*
%TD*%
%TO.C,C3*%
G36*
G01*
X101785000Y-123783750D02*
X101785000Y-124696250D01*
G75*
G02*
X101541250Y-124940000I-243750J0D01*
G01*
X101053750Y-124940000D01*
G75*
G02*
X100810000Y-124696250I0J243750D01*
G01*
X100810000Y-123783750D01*
G75*
G02*
X101053750Y-123540000I243750J0D01*
G01*
X101541250Y-123540000D01*
G75*
G02*
X101785000Y-123783750I0J-243750D01*
G01*
G37*
G36*
G01*
X103660000Y-123783750D02*
X103660000Y-124696250D01*
G75*
G02*
X103416250Y-124940000I-243750J0D01*
G01*
X102928750Y-124940000D01*
G75*
G02*
X102685000Y-124696250I0J243750D01*
G01*
X102685000Y-123783750D01*
G75*
G02*
X102928750Y-123540000I243750J0D01*
G01*
X103416250Y-123540000D01*
G75*
G02*
X103660000Y-123783750I0J-243750D01*
G01*
G37*
%TD*%
%TO.C,R11*%
G36*
G01*
X118923750Y-121515000D02*
X119836250Y-121515000D01*
G75*
G02*
X120080000Y-121758750I0J-243750D01*
G01*
X120080000Y-122246250D01*
G75*
G02*
X119836250Y-122490000I-243750J0D01*
G01*
X118923750Y-122490000D01*
G75*
G02*
X118680000Y-122246250I0J243750D01*
G01*
X118680000Y-121758750D01*
G75*
G02*
X118923750Y-121515000I243750J0D01*
G01*
G37*
G36*
G01*
X118923750Y-119640000D02*
X119836250Y-119640000D01*
G75*
G02*
X120080000Y-119883750I0J-243750D01*
G01*
X120080000Y-120371250D01*
G75*
G02*
X119836250Y-120615000I-243750J0D01*
G01*
X118923750Y-120615000D01*
G75*
G02*
X118680000Y-120371250I0J243750D01*
G01*
X118680000Y-119883750D01*
G75*
G02*
X118923750Y-119640000I243750J0D01*
G01*
G37*
%TD*%
%TO.C,R10*%
G36*
G01*
X134163750Y-138025000D02*
X135076250Y-138025000D01*
G75*
G02*
X135320000Y-138268750I0J-243750D01*
G01*
X135320000Y-138756250D01*
G75*
G02*
X135076250Y-139000000I-243750J0D01*
G01*
X134163750Y-139000000D01*
G75*
G02*
X133920000Y-138756250I0J243750D01*
G01*
X133920000Y-138268750D01*
G75*
G02*
X134163750Y-138025000I243750J0D01*
G01*
G37*
G36*
G01*
X134163750Y-136150000D02*
X135076250Y-136150000D01*
G75*
G02*
X135320000Y-136393750I0J-243750D01*
G01*
X135320000Y-136881250D01*
G75*
G02*
X135076250Y-137125000I-243750J0D01*
G01*
X134163750Y-137125000D01*
G75*
G02*
X133920000Y-136881250I0J243750D01*
G01*
X133920000Y-136393750D01*
G75*
G02*
X134163750Y-136150000I243750J0D01*
G01*
G37*
%TD*%
%TO.C,R9*%
G36*
G01*
X116383750Y-121515000D02*
X117296250Y-121515000D01*
G75*
G02*
X117540000Y-121758750I0J-243750D01*
G01*
X117540000Y-122246250D01*
G75*
G02*
X117296250Y-122490000I-243750J0D01*
G01*
X116383750Y-122490000D01*
G75*
G02*
X116140000Y-122246250I0J243750D01*
G01*
X116140000Y-121758750D01*
G75*
G02*
X116383750Y-121515000I243750J0D01*
G01*
G37*
G36*
G01*
X116383750Y-119640000D02*
X117296250Y-119640000D01*
G75*
G02*
X117540000Y-119883750I0J-243750D01*
G01*
X117540000Y-120371250D01*
G75*
G02*
X117296250Y-120615000I-243750J0D01*
G01*
X116383750Y-120615000D01*
G75*
G02*
X116140000Y-120371250I0J243750D01*
G01*
X116140000Y-119883750D01*
G75*
G02*
X116383750Y-119640000I243750J0D01*
G01*
G37*
%TD*%
%TO.C,R8*%
G36*
G01*
X121463750Y-138025000D02*
X122376250Y-138025000D01*
G75*
G02*
X122620000Y-138268750I0J-243750D01*
G01*
X122620000Y-138756250D01*
G75*
G02*
X122376250Y-139000000I-243750J0D01*
G01*
X121463750Y-139000000D01*
G75*
G02*
X121220000Y-138756250I0J243750D01*
G01*
X121220000Y-138268750D01*
G75*
G02*
X121463750Y-138025000I243750J0D01*
G01*
G37*
G36*
G01*
X121463750Y-136150000D02*
X122376250Y-136150000D01*
G75*
G02*
X122620000Y-136393750I0J-243750D01*
G01*
X122620000Y-136881250D01*
G75*
G02*
X122376250Y-137125000I-243750J0D01*
G01*
X121463750Y-137125000D01*
G75*
G02*
X121220000Y-136881250I0J243750D01*
G01*
X121220000Y-136393750D01*
G75*
G02*
X121463750Y-136150000I243750J0D01*
G01*
G37*
%TD*%
D21*
%TO.C,FAN4*%
X137160000Y-146085000D03*
D22*
X134620000Y-143925000D03*
X137160000Y-143925000D03*
X139700000Y-143925000D03*
D23*
X142240000Y-143925000D03*
%TD*%
D21*
%TO.C,FAN3*%
X124460000Y-146085000D03*
D22*
X121920000Y-143925000D03*
X124460000Y-143925000D03*
X127000000Y-143925000D03*
D23*
X129540000Y-143925000D03*
%TD*%
D21*
%TO.C,FAN2*%
X111760000Y-146085000D03*
D22*
X109220000Y-143925000D03*
X111760000Y-143925000D03*
X114300000Y-143925000D03*
D23*
X116840000Y-143925000D03*
%TD*%
%TO.C,R7*%
G36*
G01*
X148133750Y-113895000D02*
X149046250Y-113895000D01*
G75*
G02*
X149290000Y-114138750I0J-243750D01*
G01*
X149290000Y-114626250D01*
G75*
G02*
X149046250Y-114870000I-243750J0D01*
G01*
X148133750Y-114870000D01*
G75*
G02*
X147890000Y-114626250I0J243750D01*
G01*
X147890000Y-114138750D01*
G75*
G02*
X148133750Y-113895000I243750J0D01*
G01*
G37*
G36*
G01*
X148133750Y-112020000D02*
X149046250Y-112020000D01*
G75*
G02*
X149290000Y-112263750I0J-243750D01*
G01*
X149290000Y-112751250D01*
G75*
G02*
X149046250Y-112995000I-243750J0D01*
G01*
X148133750Y-112995000D01*
G75*
G02*
X147890000Y-112751250I0J243750D01*
G01*
X147890000Y-112263750D01*
G75*
G02*
X148133750Y-112020000I243750J0D01*
G01*
G37*
%TD*%
%TO.C,R6*%
G36*
G01*
X113843750Y-121515000D02*
X114756250Y-121515000D01*
G75*
G02*
X115000000Y-121758750I0J-243750D01*
G01*
X115000000Y-122246250D01*
G75*
G02*
X114756250Y-122490000I-243750J0D01*
G01*
X113843750Y-122490000D01*
G75*
G02*
X113600000Y-122246250I0J243750D01*
G01*
X113600000Y-121758750D01*
G75*
G02*
X113843750Y-121515000I243750J0D01*
G01*
G37*
G36*
G01*
X113843750Y-119640000D02*
X114756250Y-119640000D01*
G75*
G02*
X115000000Y-119883750I0J-243750D01*
G01*
X115000000Y-120371250D01*
G75*
G02*
X114756250Y-120615000I-243750J0D01*
G01*
X113843750Y-120615000D01*
G75*
G02*
X113600000Y-120371250I0J243750D01*
G01*
X113600000Y-119883750D01*
G75*
G02*
X113843750Y-119640000I243750J0D01*
G01*
G37*
%TD*%
%TO.C,R4*%
G36*
G01*
X99238750Y-137722500D02*
X100151250Y-137722500D01*
G75*
G02*
X100395000Y-137966250I0J-243750D01*
G01*
X100395000Y-138453750D01*
G75*
G02*
X100151250Y-138697500I-243750J0D01*
G01*
X99238750Y-138697500D01*
G75*
G02*
X98995000Y-138453750I0J243750D01*
G01*
X98995000Y-137966250D01*
G75*
G02*
X99238750Y-137722500I243750J0D01*
G01*
G37*
G36*
G01*
X99238750Y-135847500D02*
X100151250Y-135847500D01*
G75*
G02*
X100395000Y-136091250I0J-243750D01*
G01*
X100395000Y-136578750D01*
G75*
G02*
X100151250Y-136822500I-243750J0D01*
G01*
X99238750Y-136822500D01*
G75*
G02*
X98995000Y-136578750I0J243750D01*
G01*
X98995000Y-136091250D01*
G75*
G02*
X99238750Y-135847500I243750J0D01*
G01*
G37*
%TD*%
%TO.C,R3*%
G36*
G01*
X108763750Y-138025000D02*
X109676250Y-138025000D01*
G75*
G02*
X109920000Y-138268750I0J-243750D01*
G01*
X109920000Y-138756250D01*
G75*
G02*
X109676250Y-139000000I-243750J0D01*
G01*
X108763750Y-139000000D01*
G75*
G02*
X108520000Y-138756250I0J243750D01*
G01*
X108520000Y-138268750D01*
G75*
G02*
X108763750Y-138025000I243750J0D01*
G01*
G37*
G36*
G01*
X108763750Y-136150000D02*
X109676250Y-136150000D01*
G75*
G02*
X109920000Y-136393750I0J-243750D01*
G01*
X109920000Y-136881250D01*
G75*
G02*
X109676250Y-137125000I-243750J0D01*
G01*
X108763750Y-137125000D01*
G75*
G02*
X108520000Y-136881250I0J243750D01*
G01*
X108520000Y-136393750D01*
G75*
G02*
X108763750Y-136150000I243750J0D01*
G01*
G37*
%TD*%
%TO.C,R1*%
G36*
G01*
X121463750Y-121515000D02*
X122376250Y-121515000D01*
G75*
G02*
X122620000Y-121758750I0J-243750D01*
G01*
X122620000Y-122246250D01*
G75*
G02*
X122376250Y-122490000I-243750J0D01*
G01*
X121463750Y-122490000D01*
G75*
G02*
X121220000Y-122246250I0J243750D01*
G01*
X121220000Y-121758750D01*
G75*
G02*
X121463750Y-121515000I243750J0D01*
G01*
G37*
G36*
G01*
X121463750Y-119640000D02*
X122376250Y-119640000D01*
G75*
G02*
X122620000Y-119883750I0J-243750D01*
G01*
X122620000Y-120371250D01*
G75*
G02*
X122376250Y-120615000I-243750J0D01*
G01*
X121463750Y-120615000D01*
G75*
G02*
X121220000Y-120371250I0J243750D01*
G01*
X121220000Y-119883750D01*
G75*
G02*
X121463750Y-119640000I243750J0D01*
G01*
G37*
%TD*%
D16*
%TO.C,J2*%
X151880000Y-112175000D03*
X151880000Y-114715000D03*
X151880000Y-117255000D03*
X151880000Y-119795000D03*
X151880000Y-122335000D03*
D17*
X151880000Y-124875000D03*
%TD*%
D21*
%TO.C,FAN1*%
X99060000Y-146085000D03*
D22*
X96520000Y-143925000D03*
X99060000Y-143925000D03*
X101600000Y-143925000D03*
D23*
X104140000Y-143925000D03*
%TD*%
%TO.C,C1*%
G36*
G01*
X148133750Y-117705000D02*
X149046250Y-117705000D01*
G75*
G02*
X149290000Y-117948750I0J-243750D01*
G01*
X149290000Y-118436250D01*
G75*
G02*
X149046250Y-118680000I-243750J0D01*
G01*
X148133750Y-118680000D01*
G75*
G02*
X147890000Y-118436250I0J243750D01*
G01*
X147890000Y-117948750D01*
G75*
G02*
X148133750Y-117705000I243750J0D01*
G01*
G37*
G36*
G01*
X148133750Y-115830000D02*
X149046250Y-115830000D01*
G75*
G02*
X149290000Y-116073750I0J-243750D01*
G01*
X149290000Y-116561250D01*
G75*
G02*
X149046250Y-116805000I-243750J0D01*
G01*
X148133750Y-116805000D01*
G75*
G02*
X147890000Y-116561250I0J243750D01*
G01*
X147890000Y-116073750D01*
G75*
G02*
X148133750Y-115830000I243750J0D01*
G01*
G37*
%TD*%
D24*
%TO.C,H4*%
X91077056Y-142227944D03*
X89380000Y-141525000D03*
X87682944Y-142227944D03*
X86980000Y-143925000D03*
X87682944Y-145622056D03*
X89380000Y-146325000D03*
X91077056Y-145622056D03*
X91780000Y-143925000D03*
D25*
X89380000Y-143925000D03*
%TD*%
D24*
%TO.C,H3*%
X151077056Y-142227944D03*
X149380000Y-141525000D03*
X147682944Y-142227944D03*
X146980000Y-143925000D03*
X147682944Y-145622056D03*
X149380000Y-146325000D03*
X151077056Y-145622056D03*
X151780000Y-143925000D03*
D25*
X149380000Y-143925000D03*
%TD*%
D24*
%TO.C,H2*%
X151077056Y-102227944D03*
X149380000Y-101525000D03*
X147682944Y-102227944D03*
X146980000Y-103925000D03*
X147682944Y-105622056D03*
X149380000Y-106325000D03*
X151077056Y-105622056D03*
X151780000Y-103925000D03*
D25*
X149380000Y-103925000D03*
%TD*%
D24*
%TO.C,H1*%
X91077056Y-102227944D03*
X89380000Y-101525000D03*
X87682944Y-102227944D03*
X86980000Y-103925000D03*
X87682944Y-105622056D03*
X89380000Y-106325000D03*
X91077056Y-105622056D03*
X91780000Y-103925000D03*
D25*
X89380000Y-103925000D03*
%TD*%
D26*
%TO.C,J1*%
X91615000Y-136290000D03*
D27*
X88615000Y-131590000D03*
D26*
X94615000Y-131590000D03*
%TD*%
%TO.C,R2*%
G36*
G01*
X116389998Y-137975000D02*
X117290002Y-137975000D01*
G75*
G02*
X117540000Y-138224998I0J-249998D01*
G01*
X117540000Y-138750002D01*
G75*
G02*
X117290002Y-139000000I-249998J0D01*
G01*
X116389998Y-139000000D01*
G75*
G02*
X116140000Y-138750002I0J249998D01*
G01*
X116140000Y-138224998D01*
G75*
G02*
X116389998Y-137975000I249998J0D01*
G01*
G37*
G36*
G01*
X116389998Y-136150000D02*
X117290002Y-136150000D01*
G75*
G02*
X117540000Y-136399998I0J-249998D01*
G01*
X117540000Y-136925002D01*
G75*
G02*
X117290002Y-137175000I-249998J0D01*
G01*
X116389998Y-137175000D01*
G75*
G02*
X116140000Y-136925002I0J249998D01*
G01*
X116140000Y-136399998D01*
G75*
G02*
X116389998Y-136150000I249998J0D01*
G01*
G37*
%TD*%
M02*
