%TF.GenerationSoftware,KiCad,Pcbnew,(5.1.9)-1*%
%TF.CreationDate,2021-11-10T22:47:00+01:00*%
%TF.ProjectId,ESP32_Tasmota_Fan,45535033-325f-4546-9173-6d6f74615f46,rev?*%
%TF.SameCoordinates,Original*%
%TF.FileFunction,Legend,Top*%
%TF.FilePolarity,Positive*%
%FSLAX46Y46*%
G04 Gerber Fmt 4.6, Leading zero omitted, Abs format (unit mm)*
G04 Created by KiCad (PCBNEW (5.1.9)-1) date 2021-11-10 22:47:00*
%MOMM*%
%LPD*%
G01*
G04 APERTURE LIST*
%ADD10C,0.300000*%
%ADD11C,0.120000*%
%ADD12C,0.200000*%
%ADD13C,0.150000*%
%ADD14C,0.254000*%
G04 APERTURE END LIST*
D10*
X86011190Y-125017857D02*
X87535000Y-125017857D01*
X86773095Y-125779761D02*
X86773095Y-124255952D01*
X89535000Y-125779761D02*
X88392142Y-125779761D01*
X88963571Y-125779761D02*
X88963571Y-123779761D01*
X88773095Y-124065476D01*
X88582619Y-124255952D01*
X88392142Y-124351190D01*
X90296904Y-123970238D02*
X90392142Y-123875000D01*
X90582619Y-123779761D01*
X91058809Y-123779761D01*
X91249285Y-123875000D01*
X91344523Y-123970238D01*
X91439761Y-124160714D01*
X91439761Y-124351190D01*
X91344523Y-124636904D01*
X90201666Y-125779761D01*
X91439761Y-125779761D01*
X92011190Y-123779761D02*
X92677857Y-125779761D01*
X93344523Y-123779761D01*
D11*
%TO.C,U1*%
X124985000Y-100215000D02*
X124985000Y-106965000D01*
X142985000Y-100215000D02*
X142985000Y-106965000D01*
X124985000Y-125715000D02*
X125735000Y-125715000D01*
X124985000Y-124965000D02*
X124985000Y-125715000D01*
X142985000Y-125715000D02*
X142235000Y-125715000D01*
X142985000Y-124965000D02*
X142985000Y-125715000D01*
X142985000Y-106155000D02*
X124985000Y-106155000D01*
X124985000Y-100215000D02*
X142985000Y-100215000D01*
X125735000Y-125715000D02*
X127485000Y-125715000D01*
X142235000Y-125715000D02*
X140485000Y-125715000D01*
%TO.C,L1*%
X96758333Y-114905000D02*
X94425000Y-114905000D01*
X94425000Y-114905000D02*
X94425000Y-112571667D01*
X94805000Y-114525000D02*
X94805000Y-107285000D01*
X94805000Y-107285000D02*
X97075000Y-107285000D01*
X99775000Y-107285000D02*
X102045000Y-107285000D01*
X102045000Y-114525000D02*
X102045000Y-107285000D01*
X94805000Y-114525000D02*
X97075000Y-114525000D01*
X99775000Y-114525000D02*
X102045000Y-114525000D01*
%TO.C,C5*%
X121185000Y-108626252D02*
X121185000Y-108103748D01*
X122655000Y-108626252D02*
X122655000Y-108103748D01*
%TO.C,C4*%
X103265000Y-109790000D02*
X103265000Y-114000000D01*
X103265000Y-114000000D02*
X106285000Y-114000000D01*
X106285000Y-114000000D02*
X106285000Y-109790000D01*
%TO.C,C2*%
X107160000Y-120190000D02*
X102950000Y-120190000D01*
X102950000Y-120190000D02*
X102950000Y-123210000D01*
X102950000Y-123210000D02*
X107160000Y-123210000D01*
%TO.C,R5*%
X110565000Y-121441422D02*
X110565000Y-121958578D01*
X109145000Y-121441422D02*
X109145000Y-121958578D01*
%TO.C,R12*%
X100557064Y-131325000D02*
X100102936Y-131325000D01*
X100557064Y-129855000D02*
X100102936Y-129855000D01*
%TO.C,Q1*%
X99570000Y-125835000D02*
X99570000Y-126765000D01*
X99570000Y-128995000D02*
X99570000Y-128065000D01*
X99570000Y-128995000D02*
X101730000Y-128995000D01*
X99570000Y-125835000D02*
X101030000Y-125835000D01*
%TO.C,D3*%
X105140000Y-129165000D02*
X105140000Y-124865000D01*
X105140000Y-124865000D02*
X103140000Y-124865000D01*
X103140000Y-124865000D02*
X103140000Y-129165000D01*
%TO.C,J3*%
X99060000Y-102440000D02*
X99060000Y-99780000D01*
X99060000Y-102440000D02*
X121980000Y-102440000D01*
X121980000Y-102440000D02*
X121980000Y-99780000D01*
X99060000Y-99780000D02*
X121980000Y-99780000D01*
X96460000Y-99780000D02*
X97790000Y-99780000D01*
X96460000Y-101110000D02*
X96460000Y-99780000D01*
%TO.C,D1*%
X118420000Y-135305000D02*
X118420000Y-137990000D01*
X118420000Y-137990000D02*
X120340000Y-137990000D01*
X120340000Y-137990000D02*
X120340000Y-135305000D01*
D12*
%TO.C,IC1*%
X100025000Y-120975000D02*
X96825000Y-120975000D01*
X96825000Y-120975000D02*
X96825000Y-116075000D01*
X96825000Y-116075000D02*
X100025000Y-116075000D01*
X100025000Y-116075000D02*
X100025000Y-120975000D01*
X101925000Y-121130000D02*
X100375000Y-121130000D01*
D11*
%TO.C,R21*%
X104516422Y-117180000D02*
X105033578Y-117180000D01*
X104516422Y-118600000D02*
X105033578Y-118600000D01*
%TO.C,R20*%
X104516422Y-114640000D02*
X105033578Y-114640000D01*
X104516422Y-116060000D02*
X105033578Y-116060000D01*
%TO.C,D2*%
X93725000Y-112585000D02*
X90425000Y-112585000D01*
X90425000Y-112585000D02*
X90425000Y-117985000D01*
X93725000Y-112585000D02*
X93725000Y-117985000D01*
%TO.C,C3*%
X98683578Y-123680000D02*
X98166422Y-123680000D01*
X98683578Y-122260000D02*
X98166422Y-122260000D01*
%TO.C,R11*%
X118185000Y-121441422D02*
X118185000Y-121958578D01*
X116765000Y-121441422D02*
X116765000Y-121958578D01*
%TO.C,R10*%
X136148578Y-139555000D02*
X135631422Y-139555000D01*
X136148578Y-138135000D02*
X135631422Y-138135000D01*
%TO.C,R9*%
X115645000Y-121441422D02*
X115645000Y-121958578D01*
X114225000Y-121441422D02*
X114225000Y-121958578D01*
%TO.C,R8*%
X123448578Y-139555000D02*
X122931422Y-139555000D01*
X123448578Y-138135000D02*
X122931422Y-138135000D01*
%TO.C,FAN4*%
X143590000Y-146525000D02*
X137840000Y-146525000D01*
X136490000Y-146475000D02*
X133290000Y-146475000D01*
X133290000Y-146475000D02*
X133290000Y-140525000D01*
X133290000Y-140525000D02*
X143590000Y-140525000D01*
X143590000Y-140525000D02*
X143590000Y-146525000D01*
X142240000Y-140625000D02*
X142240000Y-141635000D01*
X142240000Y-141635000D02*
X137160000Y-141635000D01*
X137160000Y-141635000D02*
X137160000Y-140625000D01*
%TO.C,FAN3*%
X130890000Y-146525000D02*
X125140000Y-146525000D01*
X123790000Y-146475000D02*
X120590000Y-146475000D01*
X120590000Y-146475000D02*
X120590000Y-140525000D01*
X120590000Y-140525000D02*
X130890000Y-140525000D01*
X130890000Y-140525000D02*
X130890000Y-146525000D01*
X129540000Y-140625000D02*
X129540000Y-141635000D01*
X129540000Y-141635000D02*
X124460000Y-141635000D01*
X124460000Y-141635000D02*
X124460000Y-140625000D01*
%TO.C,FAN2*%
X118190000Y-146525000D02*
X112440000Y-146525000D01*
X111090000Y-146475000D02*
X107890000Y-146475000D01*
X107890000Y-146475000D02*
X107890000Y-140525000D01*
X107890000Y-140525000D02*
X118190000Y-140525000D01*
X118190000Y-140525000D02*
X118190000Y-146525000D01*
X116840000Y-140625000D02*
X116840000Y-141635000D01*
X116840000Y-141635000D02*
X111760000Y-141635000D01*
X111760000Y-141635000D02*
X111760000Y-140625000D01*
%TO.C,R7*%
X149300000Y-113186422D02*
X149300000Y-113703578D01*
X147880000Y-113186422D02*
X147880000Y-113703578D01*
%TO.C,R6*%
X113105000Y-121441422D02*
X113105000Y-121958578D01*
X111685000Y-121441422D02*
X111685000Y-121958578D01*
%TO.C,R4*%
X98048578Y-139555000D02*
X97531422Y-139555000D01*
X98048578Y-138135000D02*
X97531422Y-138135000D01*
%TO.C,R3*%
X110748578Y-139555000D02*
X110231422Y-139555000D01*
X110748578Y-138135000D02*
X110231422Y-138135000D01*
%TO.C,R1*%
X120725000Y-121441422D02*
X120725000Y-121958578D01*
X119305000Y-121441422D02*
X119305000Y-121958578D01*
%TO.C,J2*%
X153210000Y-110845000D02*
X150550000Y-110845000D01*
X153210000Y-123605000D02*
X153210000Y-110845000D01*
X150550000Y-123605000D02*
X150550000Y-110845000D01*
X153210000Y-123605000D02*
X150550000Y-123605000D01*
X153210000Y-124875000D02*
X153210000Y-126205000D01*
X153210000Y-126205000D02*
X151880000Y-126205000D01*
%TO.C,FAN1*%
X105490000Y-146525000D02*
X99740000Y-146525000D01*
X98390000Y-146475000D02*
X95190000Y-146475000D01*
X95190000Y-146475000D02*
X95190000Y-140525000D01*
X95190000Y-140525000D02*
X105490000Y-140525000D01*
X105490000Y-140525000D02*
X105490000Y-146525000D01*
X104140000Y-140625000D02*
X104140000Y-141635000D01*
X104140000Y-141635000D02*
X99060000Y-141635000D01*
X99060000Y-141635000D02*
X99060000Y-140625000D01*
%TO.C,C1*%
X149300000Y-116996422D02*
X149300000Y-117513578D01*
X147880000Y-116996422D02*
X147880000Y-117513578D01*
%TO.C,J1*%
X95655000Y-126750000D02*
X95655000Y-128490000D01*
X93915000Y-126750000D02*
X95655000Y-126750000D01*
X95415000Y-136190000D02*
X93415000Y-136190000D01*
X95415000Y-133390000D02*
X95415000Y-136190000D01*
X95415000Y-126990000D02*
X95415000Y-129790000D01*
X80815000Y-126990000D02*
X95415000Y-126990000D01*
X80815000Y-136190000D02*
X80815000Y-126990000D01*
X89815000Y-136190000D02*
X80815000Y-136190000D01*
%TO.C,R2*%
X120115000Y-132267936D02*
X120115000Y-132722064D01*
X118645000Y-132267936D02*
X118645000Y-132722064D01*
%TO.C,U1*%
D13*
X133223095Y-107817380D02*
X133223095Y-108626904D01*
X133270714Y-108722142D01*
X133318333Y-108769761D01*
X133413571Y-108817380D01*
X133604047Y-108817380D01*
X133699285Y-108769761D01*
X133746904Y-108722142D01*
X133794523Y-108626904D01*
X133794523Y-107817380D01*
X134794523Y-108817380D02*
X134223095Y-108817380D01*
X134508809Y-108817380D02*
X134508809Y-107817380D01*
X134413571Y-107960238D01*
X134318333Y-108055476D01*
X134223095Y-108103095D01*
X129223095Y-103381666D02*
X129699285Y-103381666D01*
X129127857Y-103667380D02*
X129461190Y-102667380D01*
X129794523Y-103667380D01*
X130127857Y-103000714D02*
X130127857Y-103667380D01*
X130127857Y-103095952D02*
X130175476Y-103048333D01*
X130270714Y-103000714D01*
X130413571Y-103000714D01*
X130508809Y-103048333D01*
X130556428Y-103143571D01*
X130556428Y-103667380D01*
X130889761Y-103000714D02*
X131270714Y-103000714D01*
X131032619Y-102667380D02*
X131032619Y-103524523D01*
X131080238Y-103619761D01*
X131175476Y-103667380D01*
X131270714Y-103667380D01*
X131985000Y-103619761D02*
X131889761Y-103667380D01*
X131699285Y-103667380D01*
X131604047Y-103619761D01*
X131556428Y-103524523D01*
X131556428Y-103143571D01*
X131604047Y-103048333D01*
X131699285Y-103000714D01*
X131889761Y-103000714D01*
X131985000Y-103048333D01*
X132032619Y-103143571D01*
X132032619Y-103238809D01*
X131556428Y-103334047D01*
X132461190Y-103000714D02*
X132461190Y-103667380D01*
X132461190Y-103095952D02*
X132508809Y-103048333D01*
X132604047Y-103000714D01*
X132746904Y-103000714D01*
X132842142Y-103048333D01*
X132889761Y-103143571D01*
X132889761Y-103667380D01*
X133365952Y-103000714D02*
X133365952Y-103667380D01*
X133365952Y-103095952D02*
X133413571Y-103048333D01*
X133508809Y-103000714D01*
X133651666Y-103000714D01*
X133746904Y-103048333D01*
X133794523Y-103143571D01*
X133794523Y-103667380D01*
X134699285Y-103667380D02*
X134699285Y-103143571D01*
X134651666Y-103048333D01*
X134556428Y-103000714D01*
X134365952Y-103000714D01*
X134270714Y-103048333D01*
X134699285Y-103619761D02*
X134604047Y-103667380D01*
X134365952Y-103667380D01*
X134270714Y-103619761D01*
X134223095Y-103524523D01*
X134223095Y-103429285D01*
X134270714Y-103334047D01*
X134365952Y-103286428D01*
X134604047Y-103286428D01*
X134699285Y-103238809D01*
X135889761Y-103381666D02*
X136365952Y-103381666D01*
X135794523Y-103667380D02*
X136127857Y-102667380D01*
X136461190Y-103667380D01*
X136794523Y-103667380D02*
X136794523Y-103000714D01*
X136794523Y-103191190D02*
X136842142Y-103095952D01*
X136889761Y-103048333D01*
X136985000Y-103000714D01*
X137080238Y-103000714D01*
X137794523Y-103619761D02*
X137699285Y-103667380D01*
X137508809Y-103667380D01*
X137413571Y-103619761D01*
X137365952Y-103524523D01*
X137365952Y-103143571D01*
X137413571Y-103048333D01*
X137508809Y-103000714D01*
X137699285Y-103000714D01*
X137794523Y-103048333D01*
X137842142Y-103143571D01*
X137842142Y-103238809D01*
X137365952Y-103334047D01*
X138699285Y-103667380D02*
X138699285Y-103143571D01*
X138651666Y-103048333D01*
X138556428Y-103000714D01*
X138365952Y-103000714D01*
X138270714Y-103048333D01*
X138699285Y-103619761D02*
X138604047Y-103667380D01*
X138365952Y-103667380D01*
X138270714Y-103619761D01*
X138223095Y-103524523D01*
X138223095Y-103429285D01*
X138270714Y-103334047D01*
X138365952Y-103286428D01*
X138604047Y-103286428D01*
X138699285Y-103238809D01*
%TO.C,L1*%
X94177380Y-110436666D02*
X94177380Y-110912857D01*
X93177380Y-110912857D01*
X94177380Y-109579523D02*
X94177380Y-110150952D01*
X94177380Y-109865238D02*
X93177380Y-109865238D01*
X93320238Y-109960476D01*
X93415476Y-110055714D01*
X93463095Y-110150952D01*
%TO.C,C5*%
X120597142Y-108531666D02*
X120644761Y-108579285D01*
X120692380Y-108722142D01*
X120692380Y-108817380D01*
X120644761Y-108960238D01*
X120549523Y-109055476D01*
X120454285Y-109103095D01*
X120263809Y-109150714D01*
X120120952Y-109150714D01*
X119930476Y-109103095D01*
X119835238Y-109055476D01*
X119740000Y-108960238D01*
X119692380Y-108817380D01*
X119692380Y-108722142D01*
X119740000Y-108579285D01*
X119787619Y-108531666D01*
X119692380Y-107626904D02*
X119692380Y-108103095D01*
X120168571Y-108150714D01*
X120120952Y-108103095D01*
X120073333Y-108007857D01*
X120073333Y-107769761D01*
X120120952Y-107674523D01*
X120168571Y-107626904D01*
X120263809Y-107579285D01*
X120501904Y-107579285D01*
X120597142Y-107626904D01*
X120644761Y-107674523D01*
X120692380Y-107769761D01*
X120692380Y-108007857D01*
X120644761Y-108103095D01*
X120597142Y-108150714D01*
%TO.C,C4*%
X107672142Y-111706666D02*
X107719761Y-111754285D01*
X107767380Y-111897142D01*
X107767380Y-111992380D01*
X107719761Y-112135238D01*
X107624523Y-112230476D01*
X107529285Y-112278095D01*
X107338809Y-112325714D01*
X107195952Y-112325714D01*
X107005476Y-112278095D01*
X106910238Y-112230476D01*
X106815000Y-112135238D01*
X106767380Y-111992380D01*
X106767380Y-111897142D01*
X106815000Y-111754285D01*
X106862619Y-111706666D01*
X107100714Y-110849523D02*
X107767380Y-110849523D01*
X106719761Y-111087619D02*
X107434047Y-111325714D01*
X107434047Y-110706666D01*
%TO.C,C2*%
X105243333Y-124597142D02*
X105195714Y-124644761D01*
X105052857Y-124692380D01*
X104957619Y-124692380D01*
X104814761Y-124644761D01*
X104719523Y-124549523D01*
X104671904Y-124454285D01*
X104624285Y-124263809D01*
X104624285Y-124120952D01*
X104671904Y-123930476D01*
X104719523Y-123835238D01*
X104814761Y-123740000D01*
X104957619Y-123692380D01*
X105052857Y-123692380D01*
X105195714Y-123740000D01*
X105243333Y-123787619D01*
X105624285Y-123787619D02*
X105671904Y-123740000D01*
X105767142Y-123692380D01*
X106005238Y-123692380D01*
X106100476Y-123740000D01*
X106148095Y-123787619D01*
X106195714Y-123882857D01*
X106195714Y-123978095D01*
X106148095Y-124120952D01*
X105576666Y-124692380D01*
X106195714Y-124692380D01*
%TO.C,R5*%
X110307380Y-125041666D02*
X109831190Y-125375000D01*
X110307380Y-125613095D02*
X109307380Y-125613095D01*
X109307380Y-125232142D01*
X109355000Y-125136904D01*
X109402619Y-125089285D01*
X109497857Y-125041666D01*
X109640714Y-125041666D01*
X109735952Y-125089285D01*
X109783571Y-125136904D01*
X109831190Y-125232142D01*
X109831190Y-125613095D01*
X109307380Y-124136904D02*
X109307380Y-124613095D01*
X109783571Y-124660714D01*
X109735952Y-124613095D01*
X109688333Y-124517857D01*
X109688333Y-124279761D01*
X109735952Y-124184523D01*
X109783571Y-124136904D01*
X109878809Y-124089285D01*
X110116904Y-124089285D01*
X110212142Y-124136904D01*
X110259761Y-124184523D01*
X110307380Y-124279761D01*
X110307380Y-124517857D01*
X110259761Y-124613095D01*
X110212142Y-124660714D01*
%TO.C,R12*%
X99687142Y-132692380D02*
X99353809Y-132216190D01*
X99115714Y-132692380D02*
X99115714Y-131692380D01*
X99496666Y-131692380D01*
X99591904Y-131740000D01*
X99639523Y-131787619D01*
X99687142Y-131882857D01*
X99687142Y-132025714D01*
X99639523Y-132120952D01*
X99591904Y-132168571D01*
X99496666Y-132216190D01*
X99115714Y-132216190D01*
X100639523Y-132692380D02*
X100068095Y-132692380D01*
X100353809Y-132692380D02*
X100353809Y-131692380D01*
X100258571Y-131835238D01*
X100163333Y-131930476D01*
X100068095Y-131978095D01*
X101020476Y-131787619D02*
X101068095Y-131740000D01*
X101163333Y-131692380D01*
X101401428Y-131692380D01*
X101496666Y-131740000D01*
X101544285Y-131787619D01*
X101591904Y-131882857D01*
X101591904Y-131978095D01*
X101544285Y-132120952D01*
X100972857Y-132692380D01*
X101591904Y-132692380D01*
%TO.C,Q1*%
X100234761Y-130462619D02*
X100139523Y-130415000D01*
X100044285Y-130319761D01*
X99901428Y-130176904D01*
X99806190Y-130129285D01*
X99710952Y-130129285D01*
X99758571Y-130367380D02*
X99663333Y-130319761D01*
X99568095Y-130224523D01*
X99520476Y-130034047D01*
X99520476Y-129700714D01*
X99568095Y-129510238D01*
X99663333Y-129415000D01*
X99758571Y-129367380D01*
X99949047Y-129367380D01*
X100044285Y-129415000D01*
X100139523Y-129510238D01*
X100187142Y-129700714D01*
X100187142Y-130034047D01*
X100139523Y-130224523D01*
X100044285Y-130319761D01*
X99949047Y-130367380D01*
X99758571Y-130367380D01*
X101139523Y-130367380D02*
X100568095Y-130367380D01*
X100853809Y-130367380D02*
X100853809Y-129367380D01*
X100758571Y-129510238D01*
X100663333Y-129605476D01*
X100568095Y-129653095D01*
%TO.C,D3*%
X106592380Y-128153095D02*
X105592380Y-128153095D01*
X105592380Y-127915000D01*
X105640000Y-127772142D01*
X105735238Y-127676904D01*
X105830476Y-127629285D01*
X106020952Y-127581666D01*
X106163809Y-127581666D01*
X106354285Y-127629285D01*
X106449523Y-127676904D01*
X106544761Y-127772142D01*
X106592380Y-127915000D01*
X106592380Y-128153095D01*
X105592380Y-127248333D02*
X105592380Y-126629285D01*
X105973333Y-126962619D01*
X105973333Y-126819761D01*
X106020952Y-126724523D01*
X106068571Y-126676904D01*
X106163809Y-126629285D01*
X106401904Y-126629285D01*
X106497142Y-126676904D01*
X106544761Y-126724523D01*
X106592380Y-126819761D01*
X106592380Y-127105476D01*
X106544761Y-127200714D01*
X106497142Y-127248333D01*
%TO.C,J3*%
X94472380Y-101443333D02*
X95186666Y-101443333D01*
X95329523Y-101490952D01*
X95424761Y-101586190D01*
X95472380Y-101729047D01*
X95472380Y-101824285D01*
X94472380Y-101062380D02*
X94472380Y-100443333D01*
X94853333Y-100776666D01*
X94853333Y-100633809D01*
X94900952Y-100538571D01*
X94948571Y-100490952D01*
X95043809Y-100443333D01*
X95281904Y-100443333D01*
X95377142Y-100490952D01*
X95424761Y-100538571D01*
X95472380Y-100633809D01*
X95472380Y-100919523D01*
X95424761Y-101014761D01*
X95377142Y-101062380D01*
%TO.C,D1*%
X118182380Y-137043095D02*
X117182380Y-137043095D01*
X117182380Y-136805000D01*
X117230000Y-136662142D01*
X117325238Y-136566904D01*
X117420476Y-136519285D01*
X117610952Y-136471666D01*
X117753809Y-136471666D01*
X117944285Y-136519285D01*
X118039523Y-136566904D01*
X118134761Y-136662142D01*
X118182380Y-136805000D01*
X118182380Y-137043095D01*
X118182380Y-135519285D02*
X118182380Y-136090714D01*
X118182380Y-135805000D02*
X117182380Y-135805000D01*
X117325238Y-135900238D01*
X117420476Y-135995476D01*
X117468095Y-136090714D01*
%TO.C,IC1*%
D14*
X97185238Y-119099523D02*
X97185238Y-117829523D01*
X98515714Y-118978571D02*
X98455238Y-119039047D01*
X98273809Y-119099523D01*
X98152857Y-119099523D01*
X97971428Y-119039047D01*
X97850476Y-118918095D01*
X97790000Y-118797142D01*
X97729523Y-118555238D01*
X97729523Y-118373809D01*
X97790000Y-118131904D01*
X97850476Y-118010952D01*
X97971428Y-117890000D01*
X98152857Y-117829523D01*
X98273809Y-117829523D01*
X98455238Y-117890000D01*
X98515714Y-117950476D01*
X99725238Y-119099523D02*
X98999523Y-119099523D01*
X99362380Y-119099523D02*
X99362380Y-117829523D01*
X99241428Y-118010952D01*
X99120476Y-118131904D01*
X98999523Y-118192380D01*
%TO.C,R21*%
D13*
X108577142Y-118342380D02*
X108243809Y-117866190D01*
X108005714Y-118342380D02*
X108005714Y-117342380D01*
X108386666Y-117342380D01*
X108481904Y-117390000D01*
X108529523Y-117437619D01*
X108577142Y-117532857D01*
X108577142Y-117675714D01*
X108529523Y-117770952D01*
X108481904Y-117818571D01*
X108386666Y-117866190D01*
X108005714Y-117866190D01*
X108958095Y-117437619D02*
X109005714Y-117390000D01*
X109100952Y-117342380D01*
X109339047Y-117342380D01*
X109434285Y-117390000D01*
X109481904Y-117437619D01*
X109529523Y-117532857D01*
X109529523Y-117628095D01*
X109481904Y-117770952D01*
X108910476Y-118342380D01*
X109529523Y-118342380D01*
X110481904Y-118342380D02*
X109910476Y-118342380D01*
X110196190Y-118342380D02*
X110196190Y-117342380D01*
X110100952Y-117485238D01*
X110005714Y-117580476D01*
X109910476Y-117628095D01*
%TO.C,R20*%
X107307142Y-115802380D02*
X106973809Y-115326190D01*
X106735714Y-115802380D02*
X106735714Y-114802380D01*
X107116666Y-114802380D01*
X107211904Y-114850000D01*
X107259523Y-114897619D01*
X107307142Y-114992857D01*
X107307142Y-115135714D01*
X107259523Y-115230952D01*
X107211904Y-115278571D01*
X107116666Y-115326190D01*
X106735714Y-115326190D01*
X107688095Y-114897619D02*
X107735714Y-114850000D01*
X107830952Y-114802380D01*
X108069047Y-114802380D01*
X108164285Y-114850000D01*
X108211904Y-114897619D01*
X108259523Y-114992857D01*
X108259523Y-115088095D01*
X108211904Y-115230952D01*
X107640476Y-115802380D01*
X108259523Y-115802380D01*
X108878571Y-114802380D02*
X108973809Y-114802380D01*
X109069047Y-114850000D01*
X109116666Y-114897619D01*
X109164285Y-114992857D01*
X109211904Y-115183333D01*
X109211904Y-115421428D01*
X109164285Y-115611904D01*
X109116666Y-115707142D01*
X109069047Y-115754761D01*
X108973809Y-115802380D01*
X108878571Y-115802380D01*
X108783333Y-115754761D01*
X108735714Y-115707142D01*
X108688095Y-115611904D01*
X108640476Y-115421428D01*
X108640476Y-115183333D01*
X108688095Y-114992857D01*
X108735714Y-114897619D01*
X108783333Y-114850000D01*
X108878571Y-114802380D01*
%TO.C,D2*%
X89987380Y-116723095D02*
X88987380Y-116723095D01*
X88987380Y-116485000D01*
X89035000Y-116342142D01*
X89130238Y-116246904D01*
X89225476Y-116199285D01*
X89415952Y-116151666D01*
X89558809Y-116151666D01*
X89749285Y-116199285D01*
X89844523Y-116246904D01*
X89939761Y-116342142D01*
X89987380Y-116485000D01*
X89987380Y-116723095D01*
X89082619Y-115770714D02*
X89035000Y-115723095D01*
X88987380Y-115627857D01*
X88987380Y-115389761D01*
X89035000Y-115294523D01*
X89082619Y-115246904D01*
X89177857Y-115199285D01*
X89273095Y-115199285D01*
X89415952Y-115246904D01*
X89987380Y-115818333D01*
X89987380Y-115199285D01*
%TO.C,C3*%
X98258333Y-124977142D02*
X98210714Y-125024761D01*
X98067857Y-125072380D01*
X97972619Y-125072380D01*
X97829761Y-125024761D01*
X97734523Y-124929523D01*
X97686904Y-124834285D01*
X97639285Y-124643809D01*
X97639285Y-124500952D01*
X97686904Y-124310476D01*
X97734523Y-124215238D01*
X97829761Y-124120000D01*
X97972619Y-124072380D01*
X98067857Y-124072380D01*
X98210714Y-124120000D01*
X98258333Y-124167619D01*
X98591666Y-124072380D02*
X99210714Y-124072380D01*
X98877380Y-124453333D01*
X99020238Y-124453333D01*
X99115476Y-124500952D01*
X99163095Y-124548571D01*
X99210714Y-124643809D01*
X99210714Y-124881904D01*
X99163095Y-124977142D01*
X99115476Y-125024761D01*
X99020238Y-125072380D01*
X98734523Y-125072380D01*
X98639285Y-125024761D01*
X98591666Y-124977142D01*
%TO.C,R11*%
X117927380Y-125517857D02*
X117451190Y-125851190D01*
X117927380Y-126089285D02*
X116927380Y-126089285D01*
X116927380Y-125708333D01*
X116975000Y-125613095D01*
X117022619Y-125565476D01*
X117117857Y-125517857D01*
X117260714Y-125517857D01*
X117355952Y-125565476D01*
X117403571Y-125613095D01*
X117451190Y-125708333D01*
X117451190Y-126089285D01*
X117927380Y-124565476D02*
X117927380Y-125136904D01*
X117927380Y-124851190D02*
X116927380Y-124851190D01*
X117070238Y-124946428D01*
X117165476Y-125041666D01*
X117213095Y-125136904D01*
X117927380Y-123613095D02*
X117927380Y-124184523D01*
X117927380Y-123898809D02*
X116927380Y-123898809D01*
X117070238Y-123994047D01*
X117165476Y-124089285D01*
X117213095Y-124184523D01*
%TO.C,R10*%
X135247142Y-137392380D02*
X134913809Y-136916190D01*
X134675714Y-137392380D02*
X134675714Y-136392380D01*
X135056666Y-136392380D01*
X135151904Y-136440000D01*
X135199523Y-136487619D01*
X135247142Y-136582857D01*
X135247142Y-136725714D01*
X135199523Y-136820952D01*
X135151904Y-136868571D01*
X135056666Y-136916190D01*
X134675714Y-136916190D01*
X136199523Y-137392380D02*
X135628095Y-137392380D01*
X135913809Y-137392380D02*
X135913809Y-136392380D01*
X135818571Y-136535238D01*
X135723333Y-136630476D01*
X135628095Y-136678095D01*
X136818571Y-136392380D02*
X136913809Y-136392380D01*
X137009047Y-136440000D01*
X137056666Y-136487619D01*
X137104285Y-136582857D01*
X137151904Y-136773333D01*
X137151904Y-137011428D01*
X137104285Y-137201904D01*
X137056666Y-137297142D01*
X137009047Y-137344761D01*
X136913809Y-137392380D01*
X136818571Y-137392380D01*
X136723333Y-137344761D01*
X136675714Y-137297142D01*
X136628095Y-137201904D01*
X136580476Y-137011428D01*
X136580476Y-136773333D01*
X136628095Y-136582857D01*
X136675714Y-136487619D01*
X136723333Y-136440000D01*
X136818571Y-136392380D01*
%TO.C,R9*%
X115387380Y-125041666D02*
X114911190Y-125375000D01*
X115387380Y-125613095D02*
X114387380Y-125613095D01*
X114387380Y-125232142D01*
X114435000Y-125136904D01*
X114482619Y-125089285D01*
X114577857Y-125041666D01*
X114720714Y-125041666D01*
X114815952Y-125089285D01*
X114863571Y-125136904D01*
X114911190Y-125232142D01*
X114911190Y-125613095D01*
X115387380Y-124565476D02*
X115387380Y-124375000D01*
X115339761Y-124279761D01*
X115292142Y-124232142D01*
X115149285Y-124136904D01*
X114958809Y-124089285D01*
X114577857Y-124089285D01*
X114482619Y-124136904D01*
X114435000Y-124184523D01*
X114387380Y-124279761D01*
X114387380Y-124470238D01*
X114435000Y-124565476D01*
X114482619Y-124613095D01*
X114577857Y-124660714D01*
X114815952Y-124660714D01*
X114911190Y-124613095D01*
X114958809Y-124565476D01*
X115006428Y-124470238D01*
X115006428Y-124279761D01*
X114958809Y-124184523D01*
X114911190Y-124136904D01*
X114815952Y-124089285D01*
%TO.C,R8*%
X123023333Y-137392380D02*
X122690000Y-136916190D01*
X122451904Y-137392380D02*
X122451904Y-136392380D01*
X122832857Y-136392380D01*
X122928095Y-136440000D01*
X122975714Y-136487619D01*
X123023333Y-136582857D01*
X123023333Y-136725714D01*
X122975714Y-136820952D01*
X122928095Y-136868571D01*
X122832857Y-136916190D01*
X122451904Y-136916190D01*
X123594761Y-136820952D02*
X123499523Y-136773333D01*
X123451904Y-136725714D01*
X123404285Y-136630476D01*
X123404285Y-136582857D01*
X123451904Y-136487619D01*
X123499523Y-136440000D01*
X123594761Y-136392380D01*
X123785238Y-136392380D01*
X123880476Y-136440000D01*
X123928095Y-136487619D01*
X123975714Y-136582857D01*
X123975714Y-136630476D01*
X123928095Y-136725714D01*
X123880476Y-136773333D01*
X123785238Y-136820952D01*
X123594761Y-136820952D01*
X123499523Y-136868571D01*
X123451904Y-136916190D01*
X123404285Y-137011428D01*
X123404285Y-137201904D01*
X123451904Y-137297142D01*
X123499523Y-137344761D01*
X123594761Y-137392380D01*
X123785238Y-137392380D01*
X123880476Y-137344761D01*
X123928095Y-137297142D01*
X123975714Y-137201904D01*
X123975714Y-137011428D01*
X123928095Y-136916190D01*
X123880476Y-136868571D01*
X123785238Y-136820952D01*
%TO.C,FAN4*%
X136954285Y-147663571D02*
X136620952Y-147663571D01*
X136620952Y-148187380D02*
X136620952Y-147187380D01*
X137097142Y-147187380D01*
X137430476Y-147901666D02*
X137906666Y-147901666D01*
X137335238Y-148187380D02*
X137668571Y-147187380D01*
X138001904Y-148187380D01*
X138335238Y-148187380D02*
X138335238Y-147187380D01*
X138906666Y-148187380D01*
X138906666Y-147187380D01*
X139811428Y-147520714D02*
X139811428Y-148187380D01*
X139573333Y-147139761D02*
X139335238Y-147854047D01*
X139954285Y-147854047D01*
%TO.C,FAN3*%
X124254285Y-147663571D02*
X123920952Y-147663571D01*
X123920952Y-148187380D02*
X123920952Y-147187380D01*
X124397142Y-147187380D01*
X124730476Y-147901666D02*
X125206666Y-147901666D01*
X124635238Y-148187380D02*
X124968571Y-147187380D01*
X125301904Y-148187380D01*
X125635238Y-148187380D02*
X125635238Y-147187380D01*
X126206666Y-148187380D01*
X126206666Y-147187380D01*
X126587619Y-147187380D02*
X127206666Y-147187380D01*
X126873333Y-147568333D01*
X127016190Y-147568333D01*
X127111428Y-147615952D01*
X127159047Y-147663571D01*
X127206666Y-147758809D01*
X127206666Y-147996904D01*
X127159047Y-148092142D01*
X127111428Y-148139761D01*
X127016190Y-148187380D01*
X126730476Y-148187380D01*
X126635238Y-148139761D01*
X126587619Y-148092142D01*
%TO.C,FAN2*%
X111554285Y-147663571D02*
X111220952Y-147663571D01*
X111220952Y-148187380D02*
X111220952Y-147187380D01*
X111697142Y-147187380D01*
X112030476Y-147901666D02*
X112506666Y-147901666D01*
X111935238Y-148187380D02*
X112268571Y-147187380D01*
X112601904Y-148187380D01*
X112935238Y-148187380D02*
X112935238Y-147187380D01*
X113506666Y-148187380D01*
X113506666Y-147187380D01*
X113935238Y-147282619D02*
X113982857Y-147235000D01*
X114078095Y-147187380D01*
X114316190Y-147187380D01*
X114411428Y-147235000D01*
X114459047Y-147282619D01*
X114506666Y-147377857D01*
X114506666Y-147473095D01*
X114459047Y-147615952D01*
X113887619Y-148187380D01*
X114506666Y-148187380D01*
%TO.C,R7*%
X147137380Y-113611666D02*
X146661190Y-113945000D01*
X147137380Y-114183095D02*
X146137380Y-114183095D01*
X146137380Y-113802142D01*
X146185000Y-113706904D01*
X146232619Y-113659285D01*
X146327857Y-113611666D01*
X146470714Y-113611666D01*
X146565952Y-113659285D01*
X146613571Y-113706904D01*
X146661190Y-113802142D01*
X146661190Y-114183095D01*
X146137380Y-113278333D02*
X146137380Y-112611666D01*
X147137380Y-113040238D01*
%TO.C,R6*%
X112847380Y-125041666D02*
X112371190Y-125375000D01*
X112847380Y-125613095D02*
X111847380Y-125613095D01*
X111847380Y-125232142D01*
X111895000Y-125136904D01*
X111942619Y-125089285D01*
X112037857Y-125041666D01*
X112180714Y-125041666D01*
X112275952Y-125089285D01*
X112323571Y-125136904D01*
X112371190Y-125232142D01*
X112371190Y-125613095D01*
X111847380Y-124184523D02*
X111847380Y-124375000D01*
X111895000Y-124470238D01*
X111942619Y-124517857D01*
X112085476Y-124613095D01*
X112275952Y-124660714D01*
X112656904Y-124660714D01*
X112752142Y-124613095D01*
X112799761Y-124565476D01*
X112847380Y-124470238D01*
X112847380Y-124279761D01*
X112799761Y-124184523D01*
X112752142Y-124136904D01*
X112656904Y-124089285D01*
X112418809Y-124089285D01*
X112323571Y-124136904D01*
X112275952Y-124184523D01*
X112228333Y-124279761D01*
X112228333Y-124470238D01*
X112275952Y-124565476D01*
X112323571Y-124613095D01*
X112418809Y-124660714D01*
%TO.C,R4*%
X97623333Y-137392380D02*
X97290000Y-136916190D01*
X97051904Y-137392380D02*
X97051904Y-136392380D01*
X97432857Y-136392380D01*
X97528095Y-136440000D01*
X97575714Y-136487619D01*
X97623333Y-136582857D01*
X97623333Y-136725714D01*
X97575714Y-136820952D01*
X97528095Y-136868571D01*
X97432857Y-136916190D01*
X97051904Y-136916190D01*
X98480476Y-136725714D02*
X98480476Y-137392380D01*
X98242380Y-136344761D02*
X98004285Y-137059047D01*
X98623333Y-137059047D01*
%TO.C,R3*%
X110323333Y-137392380D02*
X109990000Y-136916190D01*
X109751904Y-137392380D02*
X109751904Y-136392380D01*
X110132857Y-136392380D01*
X110228095Y-136440000D01*
X110275714Y-136487619D01*
X110323333Y-136582857D01*
X110323333Y-136725714D01*
X110275714Y-136820952D01*
X110228095Y-136868571D01*
X110132857Y-136916190D01*
X109751904Y-136916190D01*
X110656666Y-136392380D02*
X111275714Y-136392380D01*
X110942380Y-136773333D01*
X111085238Y-136773333D01*
X111180476Y-136820952D01*
X111228095Y-136868571D01*
X111275714Y-136963809D01*
X111275714Y-137201904D01*
X111228095Y-137297142D01*
X111180476Y-137344761D01*
X111085238Y-137392380D01*
X110799523Y-137392380D01*
X110704285Y-137344761D01*
X110656666Y-137297142D01*
%TO.C,R1*%
X120467380Y-125041666D02*
X119991190Y-125375000D01*
X120467380Y-125613095D02*
X119467380Y-125613095D01*
X119467380Y-125232142D01*
X119515000Y-125136904D01*
X119562619Y-125089285D01*
X119657857Y-125041666D01*
X119800714Y-125041666D01*
X119895952Y-125089285D01*
X119943571Y-125136904D01*
X119991190Y-125232142D01*
X119991190Y-125613095D01*
X120467380Y-124089285D02*
X120467380Y-124660714D01*
X120467380Y-124375000D02*
X119467380Y-124375000D01*
X119610238Y-124470238D01*
X119705476Y-124565476D01*
X119753095Y-124660714D01*
%TO.C,J2*%
X151546666Y-126657380D02*
X151546666Y-127371666D01*
X151499047Y-127514523D01*
X151403809Y-127609761D01*
X151260952Y-127657380D01*
X151165714Y-127657380D01*
X151975238Y-126752619D02*
X152022857Y-126705000D01*
X152118095Y-126657380D01*
X152356190Y-126657380D01*
X152451428Y-126705000D01*
X152499047Y-126752619D01*
X152546666Y-126847857D01*
X152546666Y-126943095D01*
X152499047Y-127085952D01*
X151927619Y-127657380D01*
X152546666Y-127657380D01*
%TO.C,FAN1*%
X98854285Y-147663571D02*
X98520952Y-147663571D01*
X98520952Y-148187380D02*
X98520952Y-147187380D01*
X98997142Y-147187380D01*
X99330476Y-147901666D02*
X99806666Y-147901666D01*
X99235238Y-148187380D02*
X99568571Y-147187380D01*
X99901904Y-148187380D01*
X100235238Y-148187380D02*
X100235238Y-147187380D01*
X100806666Y-148187380D01*
X100806666Y-147187380D01*
X101806666Y-148187380D02*
X101235238Y-148187380D01*
X101520952Y-148187380D02*
X101520952Y-147187380D01*
X101425714Y-147330238D01*
X101330476Y-147425476D01*
X101235238Y-147473095D01*
%TO.C,C1*%
X147042142Y-117421666D02*
X147089761Y-117469285D01*
X147137380Y-117612142D01*
X147137380Y-117707380D01*
X147089761Y-117850238D01*
X146994523Y-117945476D01*
X146899285Y-117993095D01*
X146708809Y-118040714D01*
X146565952Y-118040714D01*
X146375476Y-117993095D01*
X146280238Y-117945476D01*
X146185000Y-117850238D01*
X146137380Y-117707380D01*
X146137380Y-117612142D01*
X146185000Y-117469285D01*
X146232619Y-117421666D01*
X147137380Y-116469285D02*
X147137380Y-117040714D01*
X147137380Y-116755000D02*
X146137380Y-116755000D01*
X146280238Y-116850238D01*
X146375476Y-116945476D01*
X146423095Y-117040714D01*
%TO.C,R2*%
X118181380Y-132661666D02*
X117705190Y-132995000D01*
X118181380Y-133233095D02*
X117181380Y-133233095D01*
X117181380Y-132852142D01*
X117229000Y-132756904D01*
X117276619Y-132709285D01*
X117371857Y-132661666D01*
X117514714Y-132661666D01*
X117609952Y-132709285D01*
X117657571Y-132756904D01*
X117705190Y-132852142D01*
X117705190Y-133233095D01*
X117276619Y-132280714D02*
X117229000Y-132233095D01*
X117181380Y-132137857D01*
X117181380Y-131899761D01*
X117229000Y-131804523D01*
X117276619Y-131756904D01*
X117371857Y-131709285D01*
X117467095Y-131709285D01*
X117609952Y-131756904D01*
X118181380Y-132328333D01*
X118181380Y-131709285D01*
%TD*%
M02*
