M48
; DRILL file {KiCad (5.1.9)-1} date 03/27/21 11:47:11
; FORMAT={-:-/ absolute / inch / decimal}
; #@! TF.CreationDate,2021-03-27T11:47:11+01:00
; #@! TF.GenerationSoftware,Kicad,Pcbnew,(5.1.9)-1
FMAT,2
INCH
T1C0.0315
T2C0.0354
T3C0.0394
T4C0.0402
T5C0.0984
T6C0.1083
T7C0.1260
%
G90
G05
T1
X4.0Y-4.3307
X4.0Y-4.4307
X4.0Y-5.3307
X4.0Y-5.4307
X4.1Y-4.3307
X4.1Y-4.4307
X4.1Y-5.3307
X4.1Y-5.4307
X4.2Y-4.3307
X4.2Y-4.4307
X4.2Y-5.3307
X4.2Y-5.4307
X4.3Y-4.3307
X4.3Y-4.4307
X4.3Y-5.3307
X4.3Y-5.4307
X4.4Y-4.3307
X4.4Y-4.4307
X4.4Y-5.3307
X4.4Y-5.4307
X4.5Y-4.3307
X4.5Y-4.4307
X4.5Y-5.3307
X4.5Y-5.4307
X4.6Y-4.3307
X4.6Y-4.4307
X4.6Y-5.3307
X4.6Y-5.4307
X4.7Y-4.3307
X4.7Y-4.4307
X4.7Y-5.3307
X4.7Y-5.4307
X4.8Y-4.3307
X4.8Y-4.4307
X4.8Y-5.3307
X4.8Y-5.4307
X4.9Y-4.3307
X4.9Y-4.4307
X4.9Y-5.3307
X4.9Y-5.4307
T2
X4.65Y-4.1807
X4.75Y-4.1807
T3
X3.8Y-4.1557
X3.9Y-4.1557
X4.0Y-4.1557
X4.1Y-4.1557
X4.2Y-4.1557
X4.3Y-4.1557
X5.1Y-4.1807
X5.2Y-4.1807
X5.3Y-4.1807
X5.3Y-4.6057
X5.3Y-4.7057
X5.3Y-4.8057
X5.3Y-4.9057
X5.4Y-4.1807
X5.5Y-4.1807
X5.6Y-4.1807
T4
X3.8Y-5.7057
X3.9Y-5.7057
X4.0Y-5.7057
X4.1Y-5.7057
X4.3Y-5.7057
X4.4Y-5.7057
X4.5Y-5.7057
X4.6Y-5.7057
X4.8Y-5.7057
X4.9Y-5.7057
X5.0Y-5.7057
X5.1Y-5.7057
X5.3Y-5.7057
X5.4Y-5.7057
X5.5Y-5.7057
X5.6Y-5.7057
T5
X5.65Y-5.2807
X5.7681Y-5.0957
T6
X5.8862Y-5.2807
T7
X3.5189Y-4.2884
X3.5189Y-5.6663
X5.8811Y-4.2884
X5.8811Y-5.6663
T0
M30
