%TF.GenerationSoftware,KiCad,Pcbnew,(5.1.9)-1*%
%TF.CreationDate,2021-04-29T19:34:58+02:00*%
%TF.ProjectId,ESP32_Tasmota_Fan,45535033-325f-4546-9173-6d6f74615f46,rev?*%
%TF.SameCoordinates,Original*%
%TF.FileFunction,Copper,L2,Bot*%
%TF.FilePolarity,Positive*%
%FSLAX46Y46*%
G04 Gerber Fmt 4.6, Leading zero omitted, Abs format (unit mm)*
G04 Created by KiCad (PCBNEW (5.1.9)-1) date 2021-04-29 19:34:58*
%MOMM*%
%LPD*%
G01*
G04 APERTURE LIST*
%TA.AperFunction,ComponentPad*%
%ADD10O,1.700000X1.700000*%
%TD*%
%TA.AperFunction,ComponentPad*%
%ADD11C,1.700000*%
%TD*%
%TA.AperFunction,ComponentPad*%
%ADD12C,0.800000*%
%TD*%
%TA.AperFunction,ComponentPad*%
%ADD13C,6.400000*%
%TD*%
%TA.AperFunction,ComponentPad*%
%ADD14C,3.750000*%
%TD*%
%TA.AperFunction,ComponentPad*%
%ADD15C,4.000000*%
%TD*%
%TA.AperFunction,ComponentPad*%
%ADD16C,1.800000*%
%TD*%
%TA.AperFunction,ComponentPad*%
%ADD17R,1.800000X1.800000*%
%TD*%
%TA.AperFunction,ComponentPad*%
%ADD18C,1.400000*%
%TD*%
%TA.AperFunction,ComponentPad*%
%ADD19O,1.730000X2.030000*%
%TD*%
%TA.AperFunction,ComponentPad*%
%ADD20R,1.730000X2.030000*%
%TD*%
%TA.AperFunction,Conductor*%
%ADD21C,1.500000*%
%TD*%
%TA.AperFunction,Conductor*%
%ADD22C,0.254000*%
%TD*%
%TA.AperFunction,Conductor*%
%ADD23C,0.100000*%
%TD*%
G04 APERTURE END LIST*
D10*
%TO.P,J8,6*%
%TO.N,Net-(J8-Pad6)*%
X109220000Y-105555000D03*
%TO.P,J8,5*%
%TO.N,Net-(J8-Pad5)*%
X106680000Y-105555000D03*
%TO.P,J8,4*%
%TO.N,SDA*%
X104140000Y-105555000D03*
%TO.P,J8,3*%
%TO.N,SCL*%
X101600000Y-105555000D03*
%TO.P,J8,2*%
%TO.N,GND*%
X99060000Y-105555000D03*
D11*
%TO.P,J8,1*%
%TO.N,+3V3*%
X96520000Y-105555000D03*
%TD*%
D12*
%TO.P,H4,1*%
%TO.N,N/C*%
X91077056Y-142227944D03*
X89380000Y-141525000D03*
X87682944Y-142227944D03*
X86980000Y-143925000D03*
X87682944Y-145622056D03*
X89380000Y-146325000D03*
X91077056Y-145622056D03*
X91780000Y-143925000D03*
D13*
X89380000Y-143925000D03*
%TD*%
D12*
%TO.P,H3,1*%
%TO.N,N/C*%
X151077056Y-142227944D03*
X149380000Y-141525000D03*
X147682944Y-142227944D03*
X146980000Y-143925000D03*
X147682944Y-145622056D03*
X149380000Y-146325000D03*
X151077056Y-145622056D03*
X151780000Y-143925000D03*
D13*
X149380000Y-143925000D03*
%TD*%
D12*
%TO.P,H2,1*%
%TO.N,N/C*%
X151077056Y-107227944D03*
X149380000Y-106525000D03*
X147682944Y-107227944D03*
X146980000Y-108925000D03*
X147682944Y-110622056D03*
X149380000Y-111325000D03*
X151077056Y-110622056D03*
X151780000Y-108925000D03*
D13*
X149380000Y-108925000D03*
%TD*%
D12*
%TO.P,H1,1*%
%TO.N,N/C*%
X91077056Y-107227944D03*
X89380000Y-106525000D03*
X87682944Y-107227944D03*
X86980000Y-108925000D03*
X87682944Y-110622056D03*
X89380000Y-111325000D03*
X91077056Y-110622056D03*
X91780000Y-108925000D03*
D13*
X89380000Y-108925000D03*
%TD*%
D14*
%TO.P,J6,2*%
%TO.N,GND*%
X147780000Y-128795000D03*
D15*
X150780000Y-133495000D03*
D14*
%TO.P,J6,1*%
%TO.N,+12V*%
X144780000Y-133495000D03*
%TD*%
D10*
%TO.P,J1,4*%
%TO.N,+3V3*%
X134620000Y-124605000D03*
%TO.P,J1,3*%
%TO.N,GND*%
X134620000Y-122065000D03*
%TO.P,J1,2*%
%TO.N,+12V*%
X134620000Y-119525000D03*
D11*
%TO.P,J1,1*%
%TO.N,Net-(J1-Pad1)*%
X134620000Y-116985000D03*
%TD*%
D10*
%TO.P,J2,6*%
%TO.N,IO26*%
X129540000Y-106190000D03*
%TO.P,J2,5*%
%TO.N,IO35*%
X132080000Y-106190000D03*
%TO.P,J2,4*%
%TO.N,IO18*%
X134620000Y-106190000D03*
%TO.P,J2,3*%
%TO.N,IO19*%
X137160000Y-106190000D03*
%TO.P,J2,2*%
%TO.N,GND*%
X139700000Y-106190000D03*
D11*
%TO.P,J2,1*%
%TO.N,+3V3*%
X142240000Y-106190000D03*
%TD*%
D16*
%TO.P,D1,2*%
%TO.N,Net-(D1-Pad2)*%
X118110000Y-106190000D03*
D17*
%TO.P,D1,1*%
%TO.N,GND*%
X120650000Y-106190000D03*
%TD*%
D18*
%TO.P,U1,2*%
%TO.N,Net-(U1-Pad2)*%
X124460000Y-112540000D03*
%TO.P,U1,1*%
%TO.N,GND*%
X124460000Y-110000000D03*
%TO.P,U1,3*%
%TO.N,Net-(U1-Pad3)*%
X121920000Y-110000000D03*
%TO.P,U1,4*%
%TO.N,Net-(U1-Pad4)*%
X121920000Y-112540000D03*
%TO.P,U1,5*%
%TO.N,Net-(U1-Pad5)*%
X119380000Y-110000000D03*
%TO.P,U1,6*%
%TO.N,IO26*%
X119380000Y-112540000D03*
%TO.P,U1,7*%
%TO.N,IO35*%
X116840000Y-110000000D03*
%TO.P,U1,8*%
%TO.N,IO18*%
X116840000Y-112540000D03*
%TO.P,U1,9*%
%TO.N,LINK*%
X114300000Y-110000000D03*
%TO.P,U1,10*%
%TO.N,IO19*%
X114300000Y-112540000D03*
%TO.P,U1,11*%
%TO.N,Net-(U1-Pad11)*%
X111760000Y-110000000D03*
%TO.P,U1,12*%
%TO.N,SDA*%
X111760000Y-112540000D03*
%TO.P,U1,13*%
%TO.N,Net-(U1-Pad13)*%
X109220000Y-110000000D03*
%TO.P,U1,14*%
%TO.N,SCL*%
X109220000Y-112540000D03*
%TO.P,U1,15*%
%TO.N,Net-(U1-Pad15)*%
X106680000Y-110000000D03*
%TO.P,U1,16*%
%TO.N,+3V3*%
X106680000Y-112540000D03*
%TO.P,U1,17*%
%TO.N,Net-(U1-Pad17)*%
X104140000Y-110000000D03*
%TO.P,U1,18*%
%TO.N,Net-(U1-Pad18)*%
X104140000Y-112540000D03*
%TO.P,U1,19*%
%TO.N,Net-(U1-Pad19)*%
X101600000Y-110000000D03*
%TO.P,U1,20*%
%TO.N,Net-(U1-Pad20)*%
X101600000Y-112540000D03*
%TO.P,U1,21*%
%TO.N,Net-(U1-Pad21)*%
X124460000Y-135400000D03*
%TO.P,U1,22*%
%TO.N,GND*%
X124460000Y-137940000D03*
%TO.P,U1,23*%
%TO.N,Net-(U1-Pad23)*%
X121920000Y-135400000D03*
%TO.P,U1,24*%
%TO.N,Net-(U1-Pad24)*%
X121920000Y-137940000D03*
%TO.P,U1,25*%
%TO.N,Net-(U1-Pad25)*%
X119380000Y-135400000D03*
%TO.P,U1,26*%
%TO.N,SENSE4*%
X119380000Y-137940000D03*
%TO.P,U1,27*%
%TO.N,SENSE3*%
X116840000Y-135400000D03*
%TO.P,U1,28*%
%TO.N,PWM4*%
X116840000Y-137940000D03*
%TO.P,U1,29*%
%TO.N,Net-(U1-Pad29)*%
X114300000Y-135400000D03*
%TO.P,U1,30*%
%TO.N,PWM3*%
X114300000Y-137940000D03*
%TO.P,U1,31*%
%TO.N,PWM2*%
X111760000Y-135400000D03*
%TO.P,U1,32*%
%TO.N,SENSE2*%
X111760000Y-137940000D03*
%TO.P,U1,33*%
%TO.N,GND*%
X109220000Y-135400000D03*
%TO.P,U1,34*%
%TO.N,SENSE1*%
X109220000Y-137940000D03*
%TO.P,U1,35*%
%TO.N,Net-(U1-Pad35)*%
X106680000Y-135400000D03*
%TO.P,U1,36*%
%TO.N,PWM1*%
X106680000Y-137940000D03*
%TO.P,U1,37*%
%TO.N,Net-(U1-Pad37)*%
X104140000Y-135400000D03*
%TO.P,U1,38*%
%TO.N,Net-(U1-Pad38)*%
X104140000Y-137940000D03*
%TO.P,U1,39*%
%TO.N,Net-(U1-Pad39)*%
X101600000Y-135400000D03*
%TO.P,U1,40*%
%TO.N,Net-(U1-Pad40)*%
X101600000Y-137940000D03*
%TD*%
D19*
%TO.P,FAN4,4*%
%TO.N,PWM4*%
X134620000Y-144925000D03*
%TO.P,FAN4,3*%
%TO.N,SENSE4*%
X137160000Y-144925000D03*
%TO.P,FAN4,2*%
%TO.N,+12V*%
X139700000Y-144925000D03*
D20*
%TO.P,FAN4,1*%
%TO.N,GND*%
X142240000Y-144925000D03*
%TD*%
D19*
%TO.P,FAN3,4*%
%TO.N,PWM3*%
X121920000Y-144925000D03*
%TO.P,FAN3,3*%
%TO.N,SENSE3*%
X124460000Y-144925000D03*
%TO.P,FAN3,2*%
%TO.N,+12V*%
X127000000Y-144925000D03*
D20*
%TO.P,FAN3,1*%
%TO.N,GND*%
X129540000Y-144925000D03*
%TD*%
D19*
%TO.P,FAN2,4*%
%TO.N,PWM2*%
X109220000Y-144925000D03*
%TO.P,FAN2,3*%
%TO.N,SENSE2*%
X111760000Y-144925000D03*
%TO.P,FAN2,2*%
%TO.N,+12V*%
X114300000Y-144925000D03*
D20*
%TO.P,FAN2,1*%
%TO.N,GND*%
X116840000Y-144925000D03*
%TD*%
D19*
%TO.P,FAN1,4*%
%TO.N,PWM1*%
X96520000Y-144925000D03*
%TO.P,FAN1,3*%
%TO.N,SENSE1*%
X99060000Y-144925000D03*
%TO.P,FAN1,2*%
%TO.N,+12V*%
X101600000Y-144925000D03*
D20*
%TO.P,FAN1,1*%
%TO.N,GND*%
X104140000Y-144925000D03*
%TD*%
D21*
%TO.N,+12V*%
X139700000Y-144925000D02*
X139700000Y-143655000D01*
X139700000Y-143655000D02*
X138430000Y-142385000D01*
X127000000Y-143655000D02*
X127000000Y-144925000D01*
X128270000Y-142385000D02*
X127000000Y-143655000D01*
X125730000Y-142385000D02*
X127000000Y-143655000D01*
X115789998Y-142385000D02*
X125730000Y-142385000D01*
X114300000Y-143874998D02*
X115789998Y-142385000D01*
X114300000Y-144925000D02*
X114300000Y-143874998D01*
X112810002Y-142385000D02*
X114300000Y-143874998D01*
X101600000Y-143874998D02*
X103089998Y-142385000D01*
X101600000Y-144925000D02*
X101600000Y-143874998D01*
X109855000Y-142385000D02*
X112810002Y-142385000D01*
X130810000Y-142385000D02*
X109855000Y-142385000D01*
X103089998Y-142385000D02*
X109855000Y-142385000D01*
X138430000Y-142385000D02*
X130810000Y-142385000D01*
X130810000Y-142385000D02*
X128270000Y-142385000D01*
%TD*%
D22*
%TO.N,GND*%
X95366525Y-104608368D02*
X95204010Y-104851589D01*
X95092068Y-105121842D01*
X95035000Y-105408740D01*
X95035000Y-105701260D01*
X95092068Y-105988158D01*
X95204010Y-106258411D01*
X95366525Y-106501632D01*
X95573368Y-106708475D01*
X95816589Y-106870990D01*
X96086842Y-106982932D01*
X96373740Y-107040000D01*
X96666260Y-107040000D01*
X96953158Y-106982932D01*
X97223411Y-106870990D01*
X97466632Y-106708475D01*
X97673475Y-106501632D01*
X97794658Y-106320269D01*
X97840539Y-106402457D01*
X98029301Y-106624078D01*
X98257672Y-106804615D01*
X98466735Y-106916345D01*
X98687000Y-106827718D01*
X98687000Y-105928000D01*
X98667000Y-105928000D01*
X98667000Y-105182000D01*
X98687000Y-105182000D01*
X98687000Y-105162000D01*
X99433000Y-105162000D01*
X99433000Y-105182000D01*
X99453000Y-105182000D01*
X99453000Y-105928000D01*
X99433000Y-105928000D01*
X99433000Y-106827718D01*
X99653265Y-106916345D01*
X99862328Y-106804615D01*
X100090699Y-106624078D01*
X100279461Y-106402457D01*
X100325342Y-106320269D01*
X100446525Y-106501632D01*
X100653368Y-106708475D01*
X100896589Y-106870990D01*
X101166842Y-106982932D01*
X101453740Y-107040000D01*
X101746260Y-107040000D01*
X102033158Y-106982932D01*
X102303411Y-106870990D01*
X102546632Y-106708475D01*
X102753475Y-106501632D01*
X102870000Y-106327240D01*
X102986525Y-106501632D01*
X103193368Y-106708475D01*
X103436589Y-106870990D01*
X103706842Y-106982932D01*
X103993740Y-107040000D01*
X104286260Y-107040000D01*
X104573158Y-106982932D01*
X104843411Y-106870990D01*
X105086632Y-106708475D01*
X105293475Y-106501632D01*
X105410000Y-106327240D01*
X105526525Y-106501632D01*
X105733368Y-106708475D01*
X105976589Y-106870990D01*
X106246842Y-106982932D01*
X106533740Y-107040000D01*
X106826260Y-107040000D01*
X107113158Y-106982932D01*
X107383411Y-106870990D01*
X107626632Y-106708475D01*
X107833475Y-106501632D01*
X107950000Y-106327240D01*
X108066525Y-106501632D01*
X108273368Y-106708475D01*
X108516589Y-106870990D01*
X108786842Y-106982932D01*
X109073740Y-107040000D01*
X109366260Y-107040000D01*
X109653158Y-106982932D01*
X109923411Y-106870990D01*
X110166632Y-106708475D01*
X110373475Y-106501632D01*
X110535990Y-106258411D01*
X110626948Y-106038816D01*
X116575000Y-106038816D01*
X116575000Y-106341184D01*
X116633989Y-106637743D01*
X116749701Y-106917095D01*
X116917688Y-107168505D01*
X117131495Y-107382312D01*
X117382905Y-107550299D01*
X117662257Y-107666011D01*
X117958816Y-107725000D01*
X118261184Y-107725000D01*
X118557743Y-107666011D01*
X118837095Y-107550299D01*
X119088505Y-107382312D01*
X119154944Y-107315873D01*
X119160498Y-107334180D01*
X119219463Y-107444494D01*
X119298815Y-107541185D01*
X119395506Y-107620537D01*
X119505820Y-107679502D01*
X119625518Y-107715812D01*
X119750000Y-107728072D01*
X120118250Y-107725000D01*
X120277000Y-107566250D01*
X120277000Y-106563000D01*
X121023000Y-106563000D01*
X121023000Y-107566250D01*
X121181750Y-107725000D01*
X121550000Y-107728072D01*
X121674482Y-107715812D01*
X121794180Y-107679502D01*
X121904494Y-107620537D01*
X122001185Y-107541185D01*
X122080537Y-107444494D01*
X122139502Y-107334180D01*
X122175812Y-107214482D01*
X122188072Y-107090000D01*
X122185000Y-106721750D01*
X122026250Y-106563000D01*
X121023000Y-106563000D01*
X120277000Y-106563000D01*
X120257000Y-106563000D01*
X120257000Y-106043740D01*
X128055000Y-106043740D01*
X128055000Y-106336260D01*
X128112068Y-106623158D01*
X128224010Y-106893411D01*
X128386525Y-107136632D01*
X128593368Y-107343475D01*
X128836589Y-107505990D01*
X129106842Y-107617932D01*
X129393740Y-107675000D01*
X129686260Y-107675000D01*
X129973158Y-107617932D01*
X130243411Y-107505990D01*
X130486632Y-107343475D01*
X130693475Y-107136632D01*
X130810000Y-106962240D01*
X130926525Y-107136632D01*
X131133368Y-107343475D01*
X131376589Y-107505990D01*
X131646842Y-107617932D01*
X131933740Y-107675000D01*
X132226260Y-107675000D01*
X132513158Y-107617932D01*
X132783411Y-107505990D01*
X133026632Y-107343475D01*
X133233475Y-107136632D01*
X133350000Y-106962240D01*
X133466525Y-107136632D01*
X133673368Y-107343475D01*
X133916589Y-107505990D01*
X134186842Y-107617932D01*
X134473740Y-107675000D01*
X134766260Y-107675000D01*
X135053158Y-107617932D01*
X135323411Y-107505990D01*
X135566632Y-107343475D01*
X135773475Y-107136632D01*
X135890000Y-106962240D01*
X136006525Y-107136632D01*
X136213368Y-107343475D01*
X136456589Y-107505990D01*
X136726842Y-107617932D01*
X137013740Y-107675000D01*
X137306260Y-107675000D01*
X137593158Y-107617932D01*
X137863411Y-107505990D01*
X138106632Y-107343475D01*
X138313475Y-107136632D01*
X138434658Y-106955269D01*
X138480539Y-107037457D01*
X138669301Y-107259078D01*
X138897672Y-107439615D01*
X139106735Y-107551345D01*
X139327000Y-107462718D01*
X139327000Y-106563000D01*
X139307000Y-106563000D01*
X139307000Y-105817000D01*
X139327000Y-105817000D01*
X139327000Y-104917282D01*
X140073000Y-104917282D01*
X140073000Y-105817000D01*
X140093000Y-105817000D01*
X140093000Y-106563000D01*
X140073000Y-106563000D01*
X140073000Y-107462718D01*
X140293265Y-107551345D01*
X140502328Y-107439615D01*
X140730699Y-107259078D01*
X140919461Y-107037457D01*
X140965342Y-106955269D01*
X141086525Y-107136632D01*
X141293368Y-107343475D01*
X141536589Y-107505990D01*
X141806842Y-107617932D01*
X142093740Y-107675000D01*
X142386260Y-107675000D01*
X142673158Y-107617932D01*
X142943411Y-107505990D01*
X143186632Y-107343475D01*
X143393475Y-107136632D01*
X143555990Y-106893411D01*
X143667932Y-106623158D01*
X143725000Y-106336260D01*
X143725000Y-106043740D01*
X143667932Y-105756842D01*
X143555990Y-105486589D01*
X143393475Y-105243368D01*
X143186632Y-105036525D01*
X142943411Y-104874010D01*
X142673158Y-104762068D01*
X142386260Y-104705000D01*
X142093740Y-104705000D01*
X141806842Y-104762068D01*
X141536589Y-104874010D01*
X141293368Y-105036525D01*
X141086525Y-105243368D01*
X140965342Y-105424731D01*
X140919461Y-105342543D01*
X140730699Y-105120922D01*
X140502328Y-104940385D01*
X140293265Y-104828655D01*
X140073000Y-104917282D01*
X139327000Y-104917282D01*
X139106735Y-104828655D01*
X138897672Y-104940385D01*
X138669301Y-105120922D01*
X138480539Y-105342543D01*
X138434658Y-105424731D01*
X138313475Y-105243368D01*
X138106632Y-105036525D01*
X137863411Y-104874010D01*
X137593158Y-104762068D01*
X137306260Y-104705000D01*
X137013740Y-104705000D01*
X136726842Y-104762068D01*
X136456589Y-104874010D01*
X136213368Y-105036525D01*
X136006525Y-105243368D01*
X135890000Y-105417760D01*
X135773475Y-105243368D01*
X135566632Y-105036525D01*
X135323411Y-104874010D01*
X135053158Y-104762068D01*
X134766260Y-104705000D01*
X134473740Y-104705000D01*
X134186842Y-104762068D01*
X133916589Y-104874010D01*
X133673368Y-105036525D01*
X133466525Y-105243368D01*
X133350000Y-105417760D01*
X133233475Y-105243368D01*
X133026632Y-105036525D01*
X132783411Y-104874010D01*
X132513158Y-104762068D01*
X132226260Y-104705000D01*
X131933740Y-104705000D01*
X131646842Y-104762068D01*
X131376589Y-104874010D01*
X131133368Y-105036525D01*
X130926525Y-105243368D01*
X130810000Y-105417760D01*
X130693475Y-105243368D01*
X130486632Y-105036525D01*
X130243411Y-104874010D01*
X129973158Y-104762068D01*
X129686260Y-104705000D01*
X129393740Y-104705000D01*
X129106842Y-104762068D01*
X128836589Y-104874010D01*
X128593368Y-105036525D01*
X128386525Y-105243368D01*
X128224010Y-105486589D01*
X128112068Y-105756842D01*
X128055000Y-106043740D01*
X120257000Y-106043740D01*
X120257000Y-105817000D01*
X120277000Y-105817000D01*
X120277000Y-104813750D01*
X121023000Y-104813750D01*
X121023000Y-105817000D01*
X122026250Y-105817000D01*
X122185000Y-105658250D01*
X122188072Y-105290000D01*
X122175812Y-105165518D01*
X122139502Y-105045820D01*
X122080537Y-104935506D01*
X122001185Y-104838815D01*
X121904494Y-104759463D01*
X121794180Y-104700498D01*
X121674482Y-104664188D01*
X121550000Y-104651928D01*
X121181750Y-104655000D01*
X121023000Y-104813750D01*
X120277000Y-104813750D01*
X120118250Y-104655000D01*
X119750000Y-104651928D01*
X119625518Y-104664188D01*
X119505820Y-104700498D01*
X119395506Y-104759463D01*
X119298815Y-104838815D01*
X119219463Y-104935506D01*
X119160498Y-105045820D01*
X119154944Y-105064127D01*
X119088505Y-104997688D01*
X118837095Y-104829701D01*
X118557743Y-104713989D01*
X118261184Y-104655000D01*
X117958816Y-104655000D01*
X117662257Y-104713989D01*
X117382905Y-104829701D01*
X117131495Y-104997688D01*
X116917688Y-105211495D01*
X116749701Y-105462905D01*
X116633989Y-105742257D01*
X116575000Y-106038816D01*
X110626948Y-106038816D01*
X110647932Y-105988158D01*
X110705000Y-105701260D01*
X110705000Y-105408740D01*
X110647932Y-105121842D01*
X110535990Y-104851589D01*
X110373475Y-104608368D01*
X110350107Y-104585000D01*
X152347721Y-104585000D01*
X152639659Y-104613625D01*
X152889429Y-104689035D01*
X153119792Y-104811522D01*
X153321980Y-104976422D01*
X153488286Y-105177450D01*
X153612378Y-105406954D01*
X153689531Y-105656195D01*
X153720001Y-105946098D01*
X153720000Y-146892721D01*
X153691375Y-147184660D01*
X153615965Y-147434429D01*
X153493477Y-147664794D01*
X153328579Y-147866979D01*
X153127546Y-148033288D01*
X152898046Y-148157378D01*
X152648805Y-148234531D01*
X152358911Y-148265000D01*
X86412279Y-148265000D01*
X86120340Y-148236375D01*
X85870571Y-148160965D01*
X85640206Y-148038477D01*
X85438021Y-147873579D01*
X85271712Y-147672546D01*
X85147622Y-147443046D01*
X85070469Y-147193805D01*
X85040000Y-146903911D01*
X85040000Y-143547285D01*
X85545000Y-143547285D01*
X85545000Y-144302715D01*
X85692377Y-145043628D01*
X85981467Y-145741554D01*
X86401161Y-146369670D01*
X86935330Y-146903839D01*
X87563446Y-147323533D01*
X88261372Y-147612623D01*
X89002285Y-147760000D01*
X89757715Y-147760000D01*
X90498628Y-147612623D01*
X91196554Y-147323533D01*
X91824670Y-146903839D01*
X92358839Y-146369670D01*
X92778533Y-145741554D01*
X93067623Y-145043628D01*
X93135712Y-144701320D01*
X95020000Y-144701320D01*
X95020000Y-145148679D01*
X95041705Y-145369050D01*
X95127476Y-145651801D01*
X95266762Y-145912386D01*
X95454208Y-146140792D01*
X95682613Y-146328238D01*
X95943198Y-146467524D01*
X96225949Y-146553295D01*
X96520000Y-146582257D01*
X96814050Y-146553295D01*
X97096801Y-146467524D01*
X97357386Y-146328238D01*
X97585792Y-146140792D01*
X97773238Y-145912387D01*
X97790000Y-145881027D01*
X97806762Y-145912386D01*
X97994208Y-146140792D01*
X98222613Y-146328238D01*
X98483198Y-146467524D01*
X98765949Y-146553295D01*
X99060000Y-146582257D01*
X99354050Y-146553295D01*
X99636801Y-146467524D01*
X99897386Y-146328238D01*
X100125792Y-146140792D01*
X100313238Y-145912387D01*
X100330000Y-145881027D01*
X100346762Y-145912386D01*
X100534208Y-146140792D01*
X100762613Y-146328238D01*
X101023198Y-146467524D01*
X101305949Y-146553295D01*
X101600000Y-146582257D01*
X101894050Y-146553295D01*
X102176801Y-146467524D01*
X102437386Y-146328238D01*
X102665792Y-146140792D01*
X102670570Y-146134970D01*
X102685498Y-146184180D01*
X102744463Y-146294494D01*
X102823815Y-146391185D01*
X102920506Y-146470537D01*
X103030820Y-146529502D01*
X103150518Y-146565812D01*
X103275000Y-146578072D01*
X103608250Y-146575000D01*
X103767000Y-146416250D01*
X103767000Y-145298000D01*
X104513000Y-145298000D01*
X104513000Y-146416250D01*
X104671750Y-146575000D01*
X105005000Y-146578072D01*
X105129482Y-146565812D01*
X105249180Y-146529502D01*
X105359494Y-146470537D01*
X105456185Y-146391185D01*
X105535537Y-146294494D01*
X105594502Y-146184180D01*
X105630812Y-146064482D01*
X105643072Y-145940000D01*
X105640000Y-145456750D01*
X105481250Y-145298000D01*
X104513000Y-145298000D01*
X103767000Y-145298000D01*
X103747000Y-145298000D01*
X103747000Y-144552000D01*
X103767000Y-144552000D01*
X103767000Y-144532000D01*
X104513000Y-144532000D01*
X104513000Y-144552000D01*
X105481250Y-144552000D01*
X105640000Y-144393250D01*
X105643072Y-143910000D01*
X105630812Y-143785518D01*
X105626105Y-143770000D01*
X108104318Y-143770000D01*
X107966762Y-143937613D01*
X107827476Y-144198198D01*
X107741705Y-144480949D01*
X107720000Y-144701320D01*
X107720000Y-145148679D01*
X107741705Y-145369050D01*
X107827476Y-145651801D01*
X107966762Y-145912386D01*
X108154208Y-146140792D01*
X108382613Y-146328238D01*
X108643198Y-146467524D01*
X108925949Y-146553295D01*
X109220000Y-146582257D01*
X109514050Y-146553295D01*
X109796801Y-146467524D01*
X110057386Y-146328238D01*
X110285792Y-146140792D01*
X110473238Y-145912387D01*
X110490000Y-145881027D01*
X110506762Y-145912386D01*
X110694208Y-146140792D01*
X110922613Y-146328238D01*
X111183198Y-146467524D01*
X111465949Y-146553295D01*
X111760000Y-146582257D01*
X112054050Y-146553295D01*
X112336801Y-146467524D01*
X112597386Y-146328238D01*
X112825792Y-146140792D01*
X113013238Y-145912387D01*
X113030000Y-145881027D01*
X113046762Y-145912386D01*
X113234208Y-146140792D01*
X113462613Y-146328238D01*
X113723198Y-146467524D01*
X114005949Y-146553295D01*
X114300000Y-146582257D01*
X114594050Y-146553295D01*
X114876801Y-146467524D01*
X115137386Y-146328238D01*
X115365792Y-146140792D01*
X115370570Y-146134970D01*
X115385498Y-146184180D01*
X115444463Y-146294494D01*
X115523815Y-146391185D01*
X115620506Y-146470537D01*
X115730820Y-146529502D01*
X115850518Y-146565812D01*
X115975000Y-146578072D01*
X116308250Y-146575000D01*
X116467000Y-146416250D01*
X116467000Y-145298000D01*
X117213000Y-145298000D01*
X117213000Y-146416250D01*
X117371750Y-146575000D01*
X117705000Y-146578072D01*
X117829482Y-146565812D01*
X117949180Y-146529502D01*
X118059494Y-146470537D01*
X118156185Y-146391185D01*
X118235537Y-146294494D01*
X118294502Y-146184180D01*
X118330812Y-146064482D01*
X118343072Y-145940000D01*
X118340000Y-145456750D01*
X118181250Y-145298000D01*
X117213000Y-145298000D01*
X116467000Y-145298000D01*
X116447000Y-145298000D01*
X116447000Y-144552000D01*
X116467000Y-144552000D01*
X116467000Y-144532000D01*
X117213000Y-144532000D01*
X117213000Y-144552000D01*
X118181250Y-144552000D01*
X118340000Y-144393250D01*
X118343072Y-143910000D01*
X118330812Y-143785518D01*
X118326105Y-143770000D01*
X120804318Y-143770000D01*
X120666762Y-143937613D01*
X120527476Y-144198198D01*
X120441705Y-144480949D01*
X120420000Y-144701320D01*
X120420000Y-145148679D01*
X120441705Y-145369050D01*
X120527476Y-145651801D01*
X120666762Y-145912386D01*
X120854208Y-146140792D01*
X121082613Y-146328238D01*
X121343198Y-146467524D01*
X121625949Y-146553295D01*
X121920000Y-146582257D01*
X122214050Y-146553295D01*
X122496801Y-146467524D01*
X122757386Y-146328238D01*
X122985792Y-146140792D01*
X123173238Y-145912387D01*
X123190000Y-145881027D01*
X123206762Y-145912386D01*
X123394208Y-146140792D01*
X123622613Y-146328238D01*
X123883198Y-146467524D01*
X124165949Y-146553295D01*
X124460000Y-146582257D01*
X124754050Y-146553295D01*
X125036801Y-146467524D01*
X125297386Y-146328238D01*
X125525792Y-146140792D01*
X125713238Y-145912387D01*
X125730000Y-145881027D01*
X125746762Y-145912386D01*
X125934208Y-146140792D01*
X126162613Y-146328238D01*
X126423198Y-146467524D01*
X126705949Y-146553295D01*
X127000000Y-146582257D01*
X127294050Y-146553295D01*
X127576801Y-146467524D01*
X127837386Y-146328238D01*
X128065792Y-146140792D01*
X128070570Y-146134970D01*
X128085498Y-146184180D01*
X128144463Y-146294494D01*
X128223815Y-146391185D01*
X128320506Y-146470537D01*
X128430820Y-146529502D01*
X128550518Y-146565812D01*
X128675000Y-146578072D01*
X129008250Y-146575000D01*
X129167000Y-146416250D01*
X129167000Y-145298000D01*
X129913000Y-145298000D01*
X129913000Y-146416250D01*
X130071750Y-146575000D01*
X130405000Y-146578072D01*
X130529482Y-146565812D01*
X130649180Y-146529502D01*
X130759494Y-146470537D01*
X130856185Y-146391185D01*
X130935537Y-146294494D01*
X130994502Y-146184180D01*
X131030812Y-146064482D01*
X131043072Y-145940000D01*
X131040000Y-145456750D01*
X130881250Y-145298000D01*
X129913000Y-145298000D01*
X129167000Y-145298000D01*
X129147000Y-145298000D01*
X129147000Y-144552000D01*
X129167000Y-144552000D01*
X129167000Y-144532000D01*
X129913000Y-144532000D01*
X129913000Y-144552000D01*
X130881250Y-144552000D01*
X131040000Y-144393250D01*
X131043072Y-143910000D01*
X131030812Y-143785518D01*
X131026105Y-143770000D01*
X133504318Y-143770000D01*
X133366762Y-143937613D01*
X133227476Y-144198198D01*
X133141705Y-144480949D01*
X133120000Y-144701320D01*
X133120000Y-145148679D01*
X133141705Y-145369050D01*
X133227476Y-145651801D01*
X133366762Y-145912386D01*
X133554208Y-146140792D01*
X133782613Y-146328238D01*
X134043198Y-146467524D01*
X134325949Y-146553295D01*
X134620000Y-146582257D01*
X134914050Y-146553295D01*
X135196801Y-146467524D01*
X135457386Y-146328238D01*
X135685792Y-146140792D01*
X135873238Y-145912387D01*
X135890000Y-145881027D01*
X135906762Y-145912386D01*
X136094208Y-146140792D01*
X136322613Y-146328238D01*
X136583198Y-146467524D01*
X136865949Y-146553295D01*
X137160000Y-146582257D01*
X137454050Y-146553295D01*
X137736801Y-146467524D01*
X137997386Y-146328238D01*
X138225792Y-146140792D01*
X138413238Y-145912387D01*
X138430000Y-145881027D01*
X138446762Y-145912386D01*
X138634208Y-146140792D01*
X138862613Y-146328238D01*
X139123198Y-146467524D01*
X139405949Y-146553295D01*
X139700000Y-146582257D01*
X139994050Y-146553295D01*
X140276801Y-146467524D01*
X140537386Y-146328238D01*
X140765792Y-146140792D01*
X140770570Y-146134970D01*
X140785498Y-146184180D01*
X140844463Y-146294494D01*
X140923815Y-146391185D01*
X141020506Y-146470537D01*
X141130820Y-146529502D01*
X141250518Y-146565812D01*
X141375000Y-146578072D01*
X141708250Y-146575000D01*
X141867000Y-146416250D01*
X141867000Y-145298000D01*
X142613000Y-145298000D01*
X142613000Y-146416250D01*
X142771750Y-146575000D01*
X143105000Y-146578072D01*
X143229482Y-146565812D01*
X143349180Y-146529502D01*
X143459494Y-146470537D01*
X143556185Y-146391185D01*
X143635537Y-146294494D01*
X143694502Y-146184180D01*
X143730812Y-146064482D01*
X143743072Y-145940000D01*
X143740000Y-145456750D01*
X143581250Y-145298000D01*
X142613000Y-145298000D01*
X141867000Y-145298000D01*
X141847000Y-145298000D01*
X141847000Y-144552000D01*
X141867000Y-144552000D01*
X141867000Y-143433750D01*
X142613000Y-143433750D01*
X142613000Y-144552000D01*
X143581250Y-144552000D01*
X143740000Y-144393250D01*
X143743072Y-143910000D01*
X143730812Y-143785518D01*
X143694502Y-143665820D01*
X143635537Y-143555506D01*
X143628791Y-143547285D01*
X145545000Y-143547285D01*
X145545000Y-144302715D01*
X145692377Y-145043628D01*
X145981467Y-145741554D01*
X146401161Y-146369670D01*
X146935330Y-146903839D01*
X147563446Y-147323533D01*
X148261372Y-147612623D01*
X149002285Y-147760000D01*
X149757715Y-147760000D01*
X150498628Y-147612623D01*
X151196554Y-147323533D01*
X151824670Y-146903839D01*
X152358839Y-146369670D01*
X152778533Y-145741554D01*
X153067623Y-145043628D01*
X153215000Y-144302715D01*
X153215000Y-143547285D01*
X153067623Y-142806372D01*
X152778533Y-142108446D01*
X152358839Y-141480330D01*
X151824670Y-140946161D01*
X151196554Y-140526467D01*
X150498628Y-140237377D01*
X149757715Y-140090000D01*
X149002285Y-140090000D01*
X148261372Y-140237377D01*
X147563446Y-140526467D01*
X146935330Y-140946161D01*
X146401161Y-141480330D01*
X145981467Y-142108446D01*
X145692377Y-142806372D01*
X145545000Y-143547285D01*
X143628791Y-143547285D01*
X143556185Y-143458815D01*
X143459494Y-143379463D01*
X143349180Y-143320498D01*
X143229482Y-143284188D01*
X143105000Y-143271928D01*
X142771750Y-143275000D01*
X142613000Y-143433750D01*
X141867000Y-143433750D01*
X141708250Y-143275000D01*
X141375000Y-143271928D01*
X141250518Y-143284188D01*
X141130820Y-143320498D01*
X141057706Y-143359579D01*
X140985764Y-143122419D01*
X140857157Y-142881812D01*
X140795245Y-142806372D01*
X140727452Y-142723766D01*
X140727450Y-142723764D01*
X140684081Y-142670919D01*
X140631236Y-142627550D01*
X139457454Y-141453769D01*
X139414081Y-141400919D01*
X139203188Y-141227843D01*
X138962581Y-141099236D01*
X138701507Y-141020040D01*
X138498037Y-141000000D01*
X138498029Y-141000000D01*
X138430000Y-140993300D01*
X138361971Y-141000000D01*
X128338026Y-141000000D01*
X128269999Y-140993300D01*
X128201972Y-141000000D01*
X125798029Y-141000000D01*
X125730000Y-140993300D01*
X125661971Y-141000000D01*
X115858024Y-141000000D01*
X115789997Y-140993300D01*
X115721970Y-141000000D01*
X112878031Y-141000000D01*
X112810002Y-140993300D01*
X112741973Y-141000000D01*
X103158024Y-141000000D01*
X103089997Y-140993300D01*
X103021970Y-141000000D01*
X103021961Y-141000000D01*
X102818491Y-141020040D01*
X102557417Y-141099236D01*
X102316810Y-141227843D01*
X102316808Y-141227844D01*
X102316809Y-141227844D01*
X102158764Y-141357548D01*
X102158762Y-141357550D01*
X102105917Y-141400919D01*
X102062548Y-141453764D01*
X100668764Y-142847549D01*
X100615920Y-142890917D01*
X100442843Y-143101810D01*
X100314236Y-143342417D01*
X100235040Y-143603491D01*
X100215000Y-143806961D01*
X100215000Y-143806969D01*
X100214038Y-143816737D01*
X100125792Y-143709208D01*
X99897387Y-143521762D01*
X99636802Y-143382476D01*
X99354051Y-143296705D01*
X99060000Y-143267743D01*
X98765950Y-143296705D01*
X98483199Y-143382476D01*
X98222614Y-143521762D01*
X97994208Y-143709208D01*
X97806762Y-143937613D01*
X97790000Y-143968972D01*
X97773238Y-143937613D01*
X97585792Y-143709208D01*
X97357387Y-143521762D01*
X97096802Y-143382476D01*
X96814051Y-143296705D01*
X96520000Y-143267743D01*
X96225950Y-143296705D01*
X95943199Y-143382476D01*
X95682614Y-143521762D01*
X95454208Y-143709208D01*
X95266762Y-143937613D01*
X95127476Y-144198198D01*
X95041705Y-144480949D01*
X95020000Y-144701320D01*
X93135712Y-144701320D01*
X93215000Y-144302715D01*
X93215000Y-143547285D01*
X93067623Y-142806372D01*
X92778533Y-142108446D01*
X92358839Y-141480330D01*
X91824670Y-140946161D01*
X91196554Y-140526467D01*
X90498628Y-140237377D01*
X89757715Y-140090000D01*
X89002285Y-140090000D01*
X88261372Y-140237377D01*
X87563446Y-140526467D01*
X86935330Y-140946161D01*
X86401161Y-141480330D01*
X85981467Y-142108446D01*
X85692377Y-142806372D01*
X85545000Y-143547285D01*
X85040000Y-143547285D01*
X85040000Y-135268514D01*
X100265000Y-135268514D01*
X100265000Y-135531486D01*
X100316304Y-135789405D01*
X100416939Y-136032359D01*
X100563038Y-136251013D01*
X100748987Y-136436962D01*
X100967641Y-136583061D01*
X101177530Y-136670000D01*
X100967641Y-136756939D01*
X100748987Y-136903038D01*
X100563038Y-137088987D01*
X100416939Y-137307641D01*
X100316304Y-137550595D01*
X100265000Y-137808514D01*
X100265000Y-138071486D01*
X100316304Y-138329405D01*
X100416939Y-138572359D01*
X100563038Y-138791013D01*
X100748987Y-138976962D01*
X100967641Y-139123061D01*
X101210595Y-139223696D01*
X101468514Y-139275000D01*
X101731486Y-139275000D01*
X101989405Y-139223696D01*
X102232359Y-139123061D01*
X102451013Y-138976962D01*
X102636962Y-138791013D01*
X102783061Y-138572359D01*
X102870000Y-138362470D01*
X102956939Y-138572359D01*
X103103038Y-138791013D01*
X103288987Y-138976962D01*
X103507641Y-139123061D01*
X103750595Y-139223696D01*
X104008514Y-139275000D01*
X104271486Y-139275000D01*
X104529405Y-139223696D01*
X104772359Y-139123061D01*
X104991013Y-138976962D01*
X105176962Y-138791013D01*
X105323061Y-138572359D01*
X105410000Y-138362470D01*
X105496939Y-138572359D01*
X105643038Y-138791013D01*
X105828987Y-138976962D01*
X106047641Y-139123061D01*
X106290595Y-139223696D01*
X106548514Y-139275000D01*
X106811486Y-139275000D01*
X107069405Y-139223696D01*
X107312359Y-139123061D01*
X107531013Y-138976962D01*
X107716962Y-138791013D01*
X107863061Y-138572359D01*
X107950000Y-138362470D01*
X108036939Y-138572359D01*
X108183038Y-138791013D01*
X108368987Y-138976962D01*
X108587641Y-139123061D01*
X108830595Y-139223696D01*
X109088514Y-139275000D01*
X109351486Y-139275000D01*
X109609405Y-139223696D01*
X109852359Y-139123061D01*
X110071013Y-138976962D01*
X110256962Y-138791013D01*
X110403061Y-138572359D01*
X110490000Y-138362470D01*
X110576939Y-138572359D01*
X110723038Y-138791013D01*
X110908987Y-138976962D01*
X111127641Y-139123061D01*
X111370595Y-139223696D01*
X111628514Y-139275000D01*
X111891486Y-139275000D01*
X112149405Y-139223696D01*
X112392359Y-139123061D01*
X112611013Y-138976962D01*
X112796962Y-138791013D01*
X112943061Y-138572359D01*
X113030000Y-138362470D01*
X113116939Y-138572359D01*
X113263038Y-138791013D01*
X113448987Y-138976962D01*
X113667641Y-139123061D01*
X113910595Y-139223696D01*
X114168514Y-139275000D01*
X114431486Y-139275000D01*
X114689405Y-139223696D01*
X114932359Y-139123061D01*
X115151013Y-138976962D01*
X115336962Y-138791013D01*
X115483061Y-138572359D01*
X115570000Y-138362470D01*
X115656939Y-138572359D01*
X115803038Y-138791013D01*
X115988987Y-138976962D01*
X116207641Y-139123061D01*
X116450595Y-139223696D01*
X116708514Y-139275000D01*
X116971486Y-139275000D01*
X117229405Y-139223696D01*
X117472359Y-139123061D01*
X117691013Y-138976962D01*
X117876962Y-138791013D01*
X118023061Y-138572359D01*
X118110000Y-138362470D01*
X118196939Y-138572359D01*
X118343038Y-138791013D01*
X118528987Y-138976962D01*
X118747641Y-139123061D01*
X118990595Y-139223696D01*
X119248514Y-139275000D01*
X119511486Y-139275000D01*
X119769405Y-139223696D01*
X120012359Y-139123061D01*
X120231013Y-138976962D01*
X120416962Y-138791013D01*
X120563061Y-138572359D01*
X120650000Y-138362470D01*
X120736939Y-138572359D01*
X120883038Y-138791013D01*
X121068987Y-138976962D01*
X121287641Y-139123061D01*
X121530595Y-139223696D01*
X121788514Y-139275000D01*
X122051486Y-139275000D01*
X122309405Y-139223696D01*
X122552359Y-139123061D01*
X122740465Y-138997373D01*
X123930129Y-138997373D01*
X124004367Y-139201710D01*
X124259269Y-139266357D01*
X124521886Y-139280032D01*
X124782124Y-139242211D01*
X124915633Y-139201710D01*
X124989871Y-138997373D01*
X124460000Y-138467502D01*
X123930129Y-138997373D01*
X122740465Y-138997373D01*
X122771013Y-138976962D01*
X122956962Y-138791013D01*
X123103061Y-138572359D01*
X123188978Y-138364937D01*
X123198290Y-138395633D01*
X123402627Y-138469871D01*
X123932498Y-137940000D01*
X124987502Y-137940000D01*
X125517373Y-138469871D01*
X125721710Y-138395633D01*
X125786357Y-138140731D01*
X125800032Y-137878114D01*
X125762211Y-137617876D01*
X125721710Y-137484367D01*
X125517373Y-137410129D01*
X124987502Y-137940000D01*
X123932498Y-137940000D01*
X123402627Y-137410129D01*
X123198290Y-137484367D01*
X123189925Y-137517349D01*
X123103061Y-137307641D01*
X122956962Y-137088987D01*
X122771013Y-136903038D01*
X122552359Y-136756939D01*
X122342470Y-136670000D01*
X122552359Y-136583061D01*
X122771013Y-136436962D01*
X122956962Y-136251013D01*
X123103061Y-136032359D01*
X123190000Y-135822470D01*
X123276939Y-136032359D01*
X123423038Y-136251013D01*
X123608987Y-136436962D01*
X123827641Y-136583061D01*
X124035063Y-136668978D01*
X124004367Y-136678290D01*
X123930129Y-136882627D01*
X124460000Y-137412498D01*
X124989871Y-136882627D01*
X124915633Y-136678290D01*
X124882651Y-136669925D01*
X125092359Y-136583061D01*
X125311013Y-136436962D01*
X125496962Y-136251013D01*
X125643061Y-136032359D01*
X125743696Y-135789405D01*
X125795000Y-135531486D01*
X125795000Y-135268514D01*
X125743696Y-135010595D01*
X125643061Y-134767641D01*
X125496962Y-134548987D01*
X125311013Y-134363038D01*
X125092359Y-134216939D01*
X124849405Y-134116304D01*
X124591486Y-134065000D01*
X124328514Y-134065000D01*
X124070595Y-134116304D01*
X123827641Y-134216939D01*
X123608987Y-134363038D01*
X123423038Y-134548987D01*
X123276939Y-134767641D01*
X123190000Y-134977530D01*
X123103061Y-134767641D01*
X122956962Y-134548987D01*
X122771013Y-134363038D01*
X122552359Y-134216939D01*
X122309405Y-134116304D01*
X122051486Y-134065000D01*
X121788514Y-134065000D01*
X121530595Y-134116304D01*
X121287641Y-134216939D01*
X121068987Y-134363038D01*
X120883038Y-134548987D01*
X120736939Y-134767641D01*
X120650000Y-134977530D01*
X120563061Y-134767641D01*
X120416962Y-134548987D01*
X120231013Y-134363038D01*
X120012359Y-134216939D01*
X119769405Y-134116304D01*
X119511486Y-134065000D01*
X119248514Y-134065000D01*
X118990595Y-134116304D01*
X118747641Y-134216939D01*
X118528987Y-134363038D01*
X118343038Y-134548987D01*
X118196939Y-134767641D01*
X118110000Y-134977530D01*
X118023061Y-134767641D01*
X117876962Y-134548987D01*
X117691013Y-134363038D01*
X117472359Y-134216939D01*
X117229405Y-134116304D01*
X116971486Y-134065000D01*
X116708514Y-134065000D01*
X116450595Y-134116304D01*
X116207641Y-134216939D01*
X115988987Y-134363038D01*
X115803038Y-134548987D01*
X115656939Y-134767641D01*
X115570000Y-134977530D01*
X115483061Y-134767641D01*
X115336962Y-134548987D01*
X115151013Y-134363038D01*
X114932359Y-134216939D01*
X114689405Y-134116304D01*
X114431486Y-134065000D01*
X114168514Y-134065000D01*
X113910595Y-134116304D01*
X113667641Y-134216939D01*
X113448987Y-134363038D01*
X113263038Y-134548987D01*
X113116939Y-134767641D01*
X113030000Y-134977530D01*
X112943061Y-134767641D01*
X112796962Y-134548987D01*
X112611013Y-134363038D01*
X112392359Y-134216939D01*
X112149405Y-134116304D01*
X111891486Y-134065000D01*
X111628514Y-134065000D01*
X111370595Y-134116304D01*
X111127641Y-134216939D01*
X110908987Y-134363038D01*
X110723038Y-134548987D01*
X110576939Y-134767641D01*
X110491022Y-134975063D01*
X110481710Y-134944367D01*
X110277373Y-134870129D01*
X109747502Y-135400000D01*
X110277373Y-135929871D01*
X110481710Y-135855633D01*
X110490075Y-135822651D01*
X110576939Y-136032359D01*
X110723038Y-136251013D01*
X110908987Y-136436962D01*
X111127641Y-136583061D01*
X111337530Y-136670000D01*
X111127641Y-136756939D01*
X110908987Y-136903038D01*
X110723038Y-137088987D01*
X110576939Y-137307641D01*
X110490000Y-137517530D01*
X110403061Y-137307641D01*
X110256962Y-137088987D01*
X110071013Y-136903038D01*
X109852359Y-136756939D01*
X109644937Y-136671022D01*
X109675633Y-136661710D01*
X109749871Y-136457373D01*
X109220000Y-135927502D01*
X108690129Y-136457373D01*
X108764367Y-136661710D01*
X108797349Y-136670075D01*
X108587641Y-136756939D01*
X108368987Y-136903038D01*
X108183038Y-137088987D01*
X108036939Y-137307641D01*
X107950000Y-137517530D01*
X107863061Y-137307641D01*
X107716962Y-137088987D01*
X107531013Y-136903038D01*
X107312359Y-136756939D01*
X107102470Y-136670000D01*
X107312359Y-136583061D01*
X107531013Y-136436962D01*
X107716962Y-136251013D01*
X107863061Y-136032359D01*
X107948978Y-135824937D01*
X107958290Y-135855633D01*
X108162627Y-135929871D01*
X108692498Y-135400000D01*
X108162627Y-134870129D01*
X107958290Y-134944367D01*
X107949925Y-134977349D01*
X107863061Y-134767641D01*
X107716962Y-134548987D01*
X107531013Y-134363038D01*
X107500466Y-134342627D01*
X108690129Y-134342627D01*
X109220000Y-134872498D01*
X109749871Y-134342627D01*
X109675633Y-134138290D01*
X109420731Y-134073643D01*
X109158114Y-134059968D01*
X108897876Y-134097789D01*
X108764367Y-134138290D01*
X108690129Y-134342627D01*
X107500466Y-134342627D01*
X107312359Y-134216939D01*
X107069405Y-134116304D01*
X106811486Y-134065000D01*
X106548514Y-134065000D01*
X106290595Y-134116304D01*
X106047641Y-134216939D01*
X105828987Y-134363038D01*
X105643038Y-134548987D01*
X105496939Y-134767641D01*
X105410000Y-134977530D01*
X105323061Y-134767641D01*
X105176962Y-134548987D01*
X104991013Y-134363038D01*
X104772359Y-134216939D01*
X104529405Y-134116304D01*
X104271486Y-134065000D01*
X104008514Y-134065000D01*
X103750595Y-134116304D01*
X103507641Y-134216939D01*
X103288987Y-134363038D01*
X103103038Y-134548987D01*
X102956939Y-134767641D01*
X102870000Y-134977530D01*
X102783061Y-134767641D01*
X102636962Y-134548987D01*
X102451013Y-134363038D01*
X102232359Y-134216939D01*
X101989405Y-134116304D01*
X101731486Y-134065000D01*
X101468514Y-134065000D01*
X101210595Y-134116304D01*
X100967641Y-134216939D01*
X100748987Y-134363038D01*
X100563038Y-134548987D01*
X100416939Y-134767641D01*
X100316304Y-135010595D01*
X100265000Y-135268514D01*
X85040000Y-135268514D01*
X85040000Y-133247787D01*
X142270000Y-133247787D01*
X142270000Y-133742213D01*
X142366458Y-134227140D01*
X142555667Y-134683931D01*
X142830356Y-135095032D01*
X143179968Y-135444644D01*
X143591069Y-135719333D01*
X144047860Y-135908542D01*
X144532787Y-136005000D01*
X145027213Y-136005000D01*
X145512140Y-135908542D01*
X145968931Y-135719333D01*
X146298884Y-135498865D01*
X149303637Y-135498865D01*
X149540975Y-135834956D01*
X150021285Y-136031717D01*
X150530752Y-136130992D01*
X151049798Y-136128969D01*
X151558476Y-136025723D01*
X152019025Y-135834956D01*
X152256363Y-135498865D01*
X150780000Y-134022502D01*
X149303637Y-135498865D01*
X146298884Y-135498865D01*
X146380032Y-135444644D01*
X146729644Y-135095032D01*
X147004333Y-134683931D01*
X147193542Y-134227140D01*
X147290000Y-133742213D01*
X147290000Y-133247787D01*
X147289596Y-133245752D01*
X148144008Y-133245752D01*
X148146031Y-133764798D01*
X148249277Y-134273476D01*
X148440044Y-134734025D01*
X148776135Y-134971363D01*
X150252498Y-133495000D01*
X151307502Y-133495000D01*
X152783865Y-134971363D01*
X153119956Y-134734025D01*
X153316717Y-134253715D01*
X153415992Y-133744248D01*
X153413969Y-133225202D01*
X153310723Y-132716524D01*
X153119956Y-132255975D01*
X152783865Y-132018637D01*
X151307502Y-133495000D01*
X150252498Y-133495000D01*
X148776135Y-132018637D01*
X148440044Y-132255975D01*
X148243283Y-132736285D01*
X148144008Y-133245752D01*
X147289596Y-133245752D01*
X147193542Y-132762860D01*
X147004333Y-132306069D01*
X146729644Y-131894968D01*
X146380032Y-131545356D01*
X146298885Y-131491135D01*
X149303637Y-131491135D01*
X150780000Y-132967498D01*
X152256363Y-131491135D01*
X152019025Y-131155044D01*
X151538715Y-130958283D01*
X151029248Y-130859008D01*
X150510202Y-130861031D01*
X150001524Y-130964277D01*
X149540975Y-131155044D01*
X149303637Y-131491135D01*
X146298885Y-131491135D01*
X145968931Y-131270667D01*
X145512140Y-131081458D01*
X145027213Y-130985000D01*
X144532787Y-130985000D01*
X144047860Y-131081458D01*
X143591069Y-131270667D01*
X143179968Y-131545356D01*
X142830356Y-131894968D01*
X142555667Y-132306069D01*
X142366458Y-132762860D01*
X142270000Y-133247787D01*
X85040000Y-133247787D01*
X85040000Y-130708979D01*
X146393523Y-130708979D01*
X146615585Y-131032265D01*
X147074428Y-131216443D01*
X147560385Y-131307565D01*
X148054782Y-131302131D01*
X148538620Y-131200350D01*
X148944415Y-131032265D01*
X149166477Y-130708979D01*
X147780000Y-129322502D01*
X146393523Y-130708979D01*
X85040000Y-130708979D01*
X85040000Y-128575385D01*
X145267435Y-128575385D01*
X145272869Y-129069782D01*
X145374650Y-129553620D01*
X145542735Y-129959415D01*
X145866021Y-130181477D01*
X147252498Y-128795000D01*
X148307502Y-128795000D01*
X149693979Y-130181477D01*
X150017265Y-129959415D01*
X150201443Y-129500572D01*
X150292565Y-129014615D01*
X150287131Y-128520218D01*
X150185350Y-128036380D01*
X150017265Y-127630585D01*
X149693979Y-127408523D01*
X148307502Y-128795000D01*
X147252498Y-128795000D01*
X145866021Y-127408523D01*
X145542735Y-127630585D01*
X145358557Y-128089428D01*
X145267435Y-128575385D01*
X85040000Y-128575385D01*
X85040000Y-126881021D01*
X146393523Y-126881021D01*
X147780000Y-128267498D01*
X149166477Y-126881021D01*
X148944415Y-126557735D01*
X148485572Y-126373557D01*
X147999615Y-126282435D01*
X147505218Y-126287869D01*
X147021380Y-126389650D01*
X146615585Y-126557735D01*
X146393523Y-126881021D01*
X85040000Y-126881021D01*
X85040000Y-124458740D01*
X133135000Y-124458740D01*
X133135000Y-124751260D01*
X133192068Y-125038158D01*
X133304010Y-125308411D01*
X133466525Y-125551632D01*
X133673368Y-125758475D01*
X133916589Y-125920990D01*
X134186842Y-126032932D01*
X134473740Y-126090000D01*
X134766260Y-126090000D01*
X135053158Y-126032932D01*
X135323411Y-125920990D01*
X135566632Y-125758475D01*
X135773475Y-125551632D01*
X135935990Y-125308411D01*
X136047932Y-125038158D01*
X136105000Y-124751260D01*
X136105000Y-124458740D01*
X136047932Y-124171842D01*
X135935990Y-123901589D01*
X135773475Y-123658368D01*
X135566632Y-123451525D01*
X135385269Y-123330342D01*
X135467457Y-123284461D01*
X135689078Y-123095699D01*
X135869615Y-122867328D01*
X135981345Y-122658265D01*
X135892718Y-122438000D01*
X134993000Y-122438000D01*
X134993000Y-122458000D01*
X134247000Y-122458000D01*
X134247000Y-122438000D01*
X133347282Y-122438000D01*
X133258655Y-122658265D01*
X133370385Y-122867328D01*
X133550922Y-123095699D01*
X133772543Y-123284461D01*
X133854731Y-123330342D01*
X133673368Y-123451525D01*
X133466525Y-123658368D01*
X133304010Y-123901589D01*
X133192068Y-124171842D01*
X133135000Y-124458740D01*
X85040000Y-124458740D01*
X85040000Y-116838740D01*
X133135000Y-116838740D01*
X133135000Y-117131260D01*
X133192068Y-117418158D01*
X133304010Y-117688411D01*
X133466525Y-117931632D01*
X133673368Y-118138475D01*
X133847760Y-118255000D01*
X133673368Y-118371525D01*
X133466525Y-118578368D01*
X133304010Y-118821589D01*
X133192068Y-119091842D01*
X133135000Y-119378740D01*
X133135000Y-119671260D01*
X133192068Y-119958158D01*
X133304010Y-120228411D01*
X133466525Y-120471632D01*
X133673368Y-120678475D01*
X133854731Y-120799658D01*
X133772543Y-120845539D01*
X133550922Y-121034301D01*
X133370385Y-121262672D01*
X133258655Y-121471735D01*
X133347282Y-121692000D01*
X134247000Y-121692000D01*
X134247000Y-121672000D01*
X134993000Y-121672000D01*
X134993000Y-121692000D01*
X135892718Y-121692000D01*
X135981345Y-121471735D01*
X135869615Y-121262672D01*
X135689078Y-121034301D01*
X135467457Y-120845539D01*
X135385269Y-120799658D01*
X135566632Y-120678475D01*
X135773475Y-120471632D01*
X135935990Y-120228411D01*
X136047932Y-119958158D01*
X136105000Y-119671260D01*
X136105000Y-119378740D01*
X136047932Y-119091842D01*
X135935990Y-118821589D01*
X135773475Y-118578368D01*
X135566632Y-118371525D01*
X135392240Y-118255000D01*
X135566632Y-118138475D01*
X135773475Y-117931632D01*
X135935990Y-117688411D01*
X136047932Y-117418158D01*
X136105000Y-117131260D01*
X136105000Y-116838740D01*
X136047932Y-116551842D01*
X135935990Y-116281589D01*
X135773475Y-116038368D01*
X135566632Y-115831525D01*
X135323411Y-115669010D01*
X135053158Y-115557068D01*
X134766260Y-115500000D01*
X134473740Y-115500000D01*
X134186842Y-115557068D01*
X133916589Y-115669010D01*
X133673368Y-115831525D01*
X133466525Y-116038368D01*
X133304010Y-116281589D01*
X133192068Y-116551842D01*
X133135000Y-116838740D01*
X85040000Y-116838740D01*
X85040000Y-108547285D01*
X85545000Y-108547285D01*
X85545000Y-109302715D01*
X85692377Y-110043628D01*
X85981467Y-110741554D01*
X86401161Y-111369670D01*
X86935330Y-111903839D01*
X87563446Y-112323533D01*
X88261372Y-112612623D01*
X89002285Y-112760000D01*
X89757715Y-112760000D01*
X90498628Y-112612623D01*
X91196554Y-112323533D01*
X91824670Y-111903839D01*
X92358839Y-111369670D01*
X92778533Y-110741554D01*
X93067623Y-110043628D01*
X93102455Y-109868514D01*
X100265000Y-109868514D01*
X100265000Y-110131486D01*
X100316304Y-110389405D01*
X100416939Y-110632359D01*
X100563038Y-110851013D01*
X100748987Y-111036962D01*
X100967641Y-111183061D01*
X101177530Y-111270000D01*
X100967641Y-111356939D01*
X100748987Y-111503038D01*
X100563038Y-111688987D01*
X100416939Y-111907641D01*
X100316304Y-112150595D01*
X100265000Y-112408514D01*
X100265000Y-112671486D01*
X100316304Y-112929405D01*
X100416939Y-113172359D01*
X100563038Y-113391013D01*
X100748987Y-113576962D01*
X100967641Y-113723061D01*
X101210595Y-113823696D01*
X101468514Y-113875000D01*
X101731486Y-113875000D01*
X101989405Y-113823696D01*
X102232359Y-113723061D01*
X102451013Y-113576962D01*
X102636962Y-113391013D01*
X102783061Y-113172359D01*
X102870000Y-112962470D01*
X102956939Y-113172359D01*
X103103038Y-113391013D01*
X103288987Y-113576962D01*
X103507641Y-113723061D01*
X103750595Y-113823696D01*
X104008514Y-113875000D01*
X104271486Y-113875000D01*
X104529405Y-113823696D01*
X104772359Y-113723061D01*
X104991013Y-113576962D01*
X105176962Y-113391013D01*
X105323061Y-113172359D01*
X105410000Y-112962470D01*
X105496939Y-113172359D01*
X105643038Y-113391013D01*
X105828987Y-113576962D01*
X106047641Y-113723061D01*
X106290595Y-113823696D01*
X106548514Y-113875000D01*
X106811486Y-113875000D01*
X107069405Y-113823696D01*
X107312359Y-113723061D01*
X107531013Y-113576962D01*
X107716962Y-113391013D01*
X107863061Y-113172359D01*
X107950000Y-112962470D01*
X108036939Y-113172359D01*
X108183038Y-113391013D01*
X108368987Y-113576962D01*
X108587641Y-113723061D01*
X108830595Y-113823696D01*
X109088514Y-113875000D01*
X109351486Y-113875000D01*
X109609405Y-113823696D01*
X109852359Y-113723061D01*
X110071013Y-113576962D01*
X110256962Y-113391013D01*
X110403061Y-113172359D01*
X110490000Y-112962470D01*
X110576939Y-113172359D01*
X110723038Y-113391013D01*
X110908987Y-113576962D01*
X111127641Y-113723061D01*
X111370595Y-113823696D01*
X111628514Y-113875000D01*
X111891486Y-113875000D01*
X112149405Y-113823696D01*
X112392359Y-113723061D01*
X112611013Y-113576962D01*
X112796962Y-113391013D01*
X112943061Y-113172359D01*
X113030000Y-112962470D01*
X113116939Y-113172359D01*
X113263038Y-113391013D01*
X113448987Y-113576962D01*
X113667641Y-113723061D01*
X113910595Y-113823696D01*
X114168514Y-113875000D01*
X114431486Y-113875000D01*
X114689405Y-113823696D01*
X114932359Y-113723061D01*
X115151013Y-113576962D01*
X115336962Y-113391013D01*
X115483061Y-113172359D01*
X115570000Y-112962470D01*
X115656939Y-113172359D01*
X115803038Y-113391013D01*
X115988987Y-113576962D01*
X116207641Y-113723061D01*
X116450595Y-113823696D01*
X116708514Y-113875000D01*
X116971486Y-113875000D01*
X117229405Y-113823696D01*
X117472359Y-113723061D01*
X117691013Y-113576962D01*
X117876962Y-113391013D01*
X118023061Y-113172359D01*
X118110000Y-112962470D01*
X118196939Y-113172359D01*
X118343038Y-113391013D01*
X118528987Y-113576962D01*
X118747641Y-113723061D01*
X118990595Y-113823696D01*
X119248514Y-113875000D01*
X119511486Y-113875000D01*
X119769405Y-113823696D01*
X120012359Y-113723061D01*
X120231013Y-113576962D01*
X120416962Y-113391013D01*
X120563061Y-113172359D01*
X120650000Y-112962470D01*
X120736939Y-113172359D01*
X120883038Y-113391013D01*
X121068987Y-113576962D01*
X121287641Y-113723061D01*
X121530595Y-113823696D01*
X121788514Y-113875000D01*
X122051486Y-113875000D01*
X122309405Y-113823696D01*
X122552359Y-113723061D01*
X122771013Y-113576962D01*
X122956962Y-113391013D01*
X123103061Y-113172359D01*
X123190000Y-112962470D01*
X123276939Y-113172359D01*
X123423038Y-113391013D01*
X123608987Y-113576962D01*
X123827641Y-113723061D01*
X124070595Y-113823696D01*
X124328514Y-113875000D01*
X124591486Y-113875000D01*
X124849405Y-113823696D01*
X125092359Y-113723061D01*
X125311013Y-113576962D01*
X125496962Y-113391013D01*
X125643061Y-113172359D01*
X125743696Y-112929405D01*
X125795000Y-112671486D01*
X125795000Y-112408514D01*
X125743696Y-112150595D01*
X125643061Y-111907641D01*
X125496962Y-111688987D01*
X125311013Y-111503038D01*
X125092359Y-111356939D01*
X124884937Y-111271022D01*
X124915633Y-111261710D01*
X124989871Y-111057373D01*
X124460000Y-110527502D01*
X123930129Y-111057373D01*
X124004367Y-111261710D01*
X124037349Y-111270075D01*
X123827641Y-111356939D01*
X123608987Y-111503038D01*
X123423038Y-111688987D01*
X123276939Y-111907641D01*
X123190000Y-112117530D01*
X123103061Y-111907641D01*
X122956962Y-111688987D01*
X122771013Y-111503038D01*
X122552359Y-111356939D01*
X122342470Y-111270000D01*
X122552359Y-111183061D01*
X122771013Y-111036962D01*
X122956962Y-110851013D01*
X123103061Y-110632359D01*
X123188978Y-110424937D01*
X123198290Y-110455633D01*
X123402627Y-110529871D01*
X123932498Y-110000000D01*
X124987502Y-110000000D01*
X125517373Y-110529871D01*
X125721710Y-110455633D01*
X125786357Y-110200731D01*
X125800032Y-109938114D01*
X125762211Y-109677876D01*
X125721710Y-109544367D01*
X125517373Y-109470129D01*
X124987502Y-110000000D01*
X123932498Y-110000000D01*
X123402627Y-109470129D01*
X123198290Y-109544367D01*
X123189925Y-109577349D01*
X123103061Y-109367641D01*
X122956962Y-109148987D01*
X122771013Y-108963038D01*
X122740466Y-108942627D01*
X123930129Y-108942627D01*
X124460000Y-109472498D01*
X124989871Y-108942627D01*
X124915633Y-108738290D01*
X124660731Y-108673643D01*
X124398114Y-108659968D01*
X124137876Y-108697789D01*
X124004367Y-108738290D01*
X123930129Y-108942627D01*
X122740466Y-108942627D01*
X122552359Y-108816939D01*
X122309405Y-108716304D01*
X122051486Y-108665000D01*
X121788514Y-108665000D01*
X121530595Y-108716304D01*
X121287641Y-108816939D01*
X121068987Y-108963038D01*
X120883038Y-109148987D01*
X120736939Y-109367641D01*
X120650000Y-109577530D01*
X120563061Y-109367641D01*
X120416962Y-109148987D01*
X120231013Y-108963038D01*
X120012359Y-108816939D01*
X119769405Y-108716304D01*
X119511486Y-108665000D01*
X119248514Y-108665000D01*
X118990595Y-108716304D01*
X118747641Y-108816939D01*
X118528987Y-108963038D01*
X118343038Y-109148987D01*
X118196939Y-109367641D01*
X118110000Y-109577530D01*
X118023061Y-109367641D01*
X117876962Y-109148987D01*
X117691013Y-108963038D01*
X117472359Y-108816939D01*
X117229405Y-108716304D01*
X116971486Y-108665000D01*
X116708514Y-108665000D01*
X116450595Y-108716304D01*
X116207641Y-108816939D01*
X115988987Y-108963038D01*
X115803038Y-109148987D01*
X115656939Y-109367641D01*
X115570000Y-109577530D01*
X115483061Y-109367641D01*
X115336962Y-109148987D01*
X115151013Y-108963038D01*
X114932359Y-108816939D01*
X114689405Y-108716304D01*
X114431486Y-108665000D01*
X114168514Y-108665000D01*
X113910595Y-108716304D01*
X113667641Y-108816939D01*
X113448987Y-108963038D01*
X113263038Y-109148987D01*
X113116939Y-109367641D01*
X113030000Y-109577530D01*
X112943061Y-109367641D01*
X112796962Y-109148987D01*
X112611013Y-108963038D01*
X112392359Y-108816939D01*
X112149405Y-108716304D01*
X111891486Y-108665000D01*
X111628514Y-108665000D01*
X111370595Y-108716304D01*
X111127641Y-108816939D01*
X110908987Y-108963038D01*
X110723038Y-109148987D01*
X110576939Y-109367641D01*
X110490000Y-109577530D01*
X110403061Y-109367641D01*
X110256962Y-109148987D01*
X110071013Y-108963038D01*
X109852359Y-108816939D01*
X109609405Y-108716304D01*
X109351486Y-108665000D01*
X109088514Y-108665000D01*
X108830595Y-108716304D01*
X108587641Y-108816939D01*
X108368987Y-108963038D01*
X108183038Y-109148987D01*
X108036939Y-109367641D01*
X107950000Y-109577530D01*
X107863061Y-109367641D01*
X107716962Y-109148987D01*
X107531013Y-108963038D01*
X107312359Y-108816939D01*
X107069405Y-108716304D01*
X106811486Y-108665000D01*
X106548514Y-108665000D01*
X106290595Y-108716304D01*
X106047641Y-108816939D01*
X105828987Y-108963038D01*
X105643038Y-109148987D01*
X105496939Y-109367641D01*
X105410000Y-109577530D01*
X105323061Y-109367641D01*
X105176962Y-109148987D01*
X104991013Y-108963038D01*
X104772359Y-108816939D01*
X104529405Y-108716304D01*
X104271486Y-108665000D01*
X104008514Y-108665000D01*
X103750595Y-108716304D01*
X103507641Y-108816939D01*
X103288987Y-108963038D01*
X103103038Y-109148987D01*
X102956939Y-109367641D01*
X102870000Y-109577530D01*
X102783061Y-109367641D01*
X102636962Y-109148987D01*
X102451013Y-108963038D01*
X102232359Y-108816939D01*
X101989405Y-108716304D01*
X101731486Y-108665000D01*
X101468514Y-108665000D01*
X101210595Y-108716304D01*
X100967641Y-108816939D01*
X100748987Y-108963038D01*
X100563038Y-109148987D01*
X100416939Y-109367641D01*
X100316304Y-109610595D01*
X100265000Y-109868514D01*
X93102455Y-109868514D01*
X93215000Y-109302715D01*
X93215000Y-108547285D01*
X145545000Y-108547285D01*
X145545000Y-109302715D01*
X145692377Y-110043628D01*
X145981467Y-110741554D01*
X146401161Y-111369670D01*
X146935330Y-111903839D01*
X147563446Y-112323533D01*
X148261372Y-112612623D01*
X149002285Y-112760000D01*
X149757715Y-112760000D01*
X150498628Y-112612623D01*
X151196554Y-112323533D01*
X151824670Y-111903839D01*
X152358839Y-111369670D01*
X152778533Y-110741554D01*
X153067623Y-110043628D01*
X153215000Y-109302715D01*
X153215000Y-108547285D01*
X153067623Y-107806372D01*
X152778533Y-107108446D01*
X152358839Y-106480330D01*
X151824670Y-105946161D01*
X151196554Y-105526467D01*
X150498628Y-105237377D01*
X149757715Y-105090000D01*
X149002285Y-105090000D01*
X148261372Y-105237377D01*
X147563446Y-105526467D01*
X146935330Y-105946161D01*
X146401161Y-106480330D01*
X145981467Y-107108446D01*
X145692377Y-107806372D01*
X145545000Y-108547285D01*
X93215000Y-108547285D01*
X93067623Y-107806372D01*
X92778533Y-107108446D01*
X92358839Y-106480330D01*
X91824670Y-105946161D01*
X91196554Y-105526467D01*
X90498628Y-105237377D01*
X89757715Y-105090000D01*
X89002285Y-105090000D01*
X88261372Y-105237377D01*
X87563446Y-105526467D01*
X86935330Y-105946161D01*
X86401161Y-106480330D01*
X85981467Y-107108446D01*
X85692377Y-107806372D01*
X85545000Y-108547285D01*
X85040000Y-108547285D01*
X85040000Y-105957279D01*
X85068625Y-105665341D01*
X85144035Y-105415571D01*
X85266522Y-105185208D01*
X85431422Y-104983020D01*
X85632450Y-104816714D01*
X85861954Y-104692622D01*
X86111195Y-104615469D01*
X86401088Y-104585000D01*
X95389893Y-104585000D01*
X95366525Y-104608368D01*
%TA.AperFunction,Conductor*%
D23*
G36*
X95366525Y-104608368D02*
G01*
X95204010Y-104851589D01*
X95092068Y-105121842D01*
X95035000Y-105408740D01*
X95035000Y-105701260D01*
X95092068Y-105988158D01*
X95204010Y-106258411D01*
X95366525Y-106501632D01*
X95573368Y-106708475D01*
X95816589Y-106870990D01*
X96086842Y-106982932D01*
X96373740Y-107040000D01*
X96666260Y-107040000D01*
X96953158Y-106982932D01*
X97223411Y-106870990D01*
X97466632Y-106708475D01*
X97673475Y-106501632D01*
X97794658Y-106320269D01*
X97840539Y-106402457D01*
X98029301Y-106624078D01*
X98257672Y-106804615D01*
X98466735Y-106916345D01*
X98687000Y-106827718D01*
X98687000Y-105928000D01*
X98667000Y-105928000D01*
X98667000Y-105182000D01*
X98687000Y-105182000D01*
X98687000Y-105162000D01*
X99433000Y-105162000D01*
X99433000Y-105182000D01*
X99453000Y-105182000D01*
X99453000Y-105928000D01*
X99433000Y-105928000D01*
X99433000Y-106827718D01*
X99653265Y-106916345D01*
X99862328Y-106804615D01*
X100090699Y-106624078D01*
X100279461Y-106402457D01*
X100325342Y-106320269D01*
X100446525Y-106501632D01*
X100653368Y-106708475D01*
X100896589Y-106870990D01*
X101166842Y-106982932D01*
X101453740Y-107040000D01*
X101746260Y-107040000D01*
X102033158Y-106982932D01*
X102303411Y-106870990D01*
X102546632Y-106708475D01*
X102753475Y-106501632D01*
X102870000Y-106327240D01*
X102986525Y-106501632D01*
X103193368Y-106708475D01*
X103436589Y-106870990D01*
X103706842Y-106982932D01*
X103993740Y-107040000D01*
X104286260Y-107040000D01*
X104573158Y-106982932D01*
X104843411Y-106870990D01*
X105086632Y-106708475D01*
X105293475Y-106501632D01*
X105410000Y-106327240D01*
X105526525Y-106501632D01*
X105733368Y-106708475D01*
X105976589Y-106870990D01*
X106246842Y-106982932D01*
X106533740Y-107040000D01*
X106826260Y-107040000D01*
X107113158Y-106982932D01*
X107383411Y-106870990D01*
X107626632Y-106708475D01*
X107833475Y-106501632D01*
X107950000Y-106327240D01*
X108066525Y-106501632D01*
X108273368Y-106708475D01*
X108516589Y-106870990D01*
X108786842Y-106982932D01*
X109073740Y-107040000D01*
X109366260Y-107040000D01*
X109653158Y-106982932D01*
X109923411Y-106870990D01*
X110166632Y-106708475D01*
X110373475Y-106501632D01*
X110535990Y-106258411D01*
X110626948Y-106038816D01*
X116575000Y-106038816D01*
X116575000Y-106341184D01*
X116633989Y-106637743D01*
X116749701Y-106917095D01*
X116917688Y-107168505D01*
X117131495Y-107382312D01*
X117382905Y-107550299D01*
X117662257Y-107666011D01*
X117958816Y-107725000D01*
X118261184Y-107725000D01*
X118557743Y-107666011D01*
X118837095Y-107550299D01*
X119088505Y-107382312D01*
X119154944Y-107315873D01*
X119160498Y-107334180D01*
X119219463Y-107444494D01*
X119298815Y-107541185D01*
X119395506Y-107620537D01*
X119505820Y-107679502D01*
X119625518Y-107715812D01*
X119750000Y-107728072D01*
X120118250Y-107725000D01*
X120277000Y-107566250D01*
X120277000Y-106563000D01*
X121023000Y-106563000D01*
X121023000Y-107566250D01*
X121181750Y-107725000D01*
X121550000Y-107728072D01*
X121674482Y-107715812D01*
X121794180Y-107679502D01*
X121904494Y-107620537D01*
X122001185Y-107541185D01*
X122080537Y-107444494D01*
X122139502Y-107334180D01*
X122175812Y-107214482D01*
X122188072Y-107090000D01*
X122185000Y-106721750D01*
X122026250Y-106563000D01*
X121023000Y-106563000D01*
X120277000Y-106563000D01*
X120257000Y-106563000D01*
X120257000Y-106043740D01*
X128055000Y-106043740D01*
X128055000Y-106336260D01*
X128112068Y-106623158D01*
X128224010Y-106893411D01*
X128386525Y-107136632D01*
X128593368Y-107343475D01*
X128836589Y-107505990D01*
X129106842Y-107617932D01*
X129393740Y-107675000D01*
X129686260Y-107675000D01*
X129973158Y-107617932D01*
X130243411Y-107505990D01*
X130486632Y-107343475D01*
X130693475Y-107136632D01*
X130810000Y-106962240D01*
X130926525Y-107136632D01*
X131133368Y-107343475D01*
X131376589Y-107505990D01*
X131646842Y-107617932D01*
X131933740Y-107675000D01*
X132226260Y-107675000D01*
X132513158Y-107617932D01*
X132783411Y-107505990D01*
X133026632Y-107343475D01*
X133233475Y-107136632D01*
X133350000Y-106962240D01*
X133466525Y-107136632D01*
X133673368Y-107343475D01*
X133916589Y-107505990D01*
X134186842Y-107617932D01*
X134473740Y-107675000D01*
X134766260Y-107675000D01*
X135053158Y-107617932D01*
X135323411Y-107505990D01*
X135566632Y-107343475D01*
X135773475Y-107136632D01*
X135890000Y-106962240D01*
X136006525Y-107136632D01*
X136213368Y-107343475D01*
X136456589Y-107505990D01*
X136726842Y-107617932D01*
X137013740Y-107675000D01*
X137306260Y-107675000D01*
X137593158Y-107617932D01*
X137863411Y-107505990D01*
X138106632Y-107343475D01*
X138313475Y-107136632D01*
X138434658Y-106955269D01*
X138480539Y-107037457D01*
X138669301Y-107259078D01*
X138897672Y-107439615D01*
X139106735Y-107551345D01*
X139327000Y-107462718D01*
X139327000Y-106563000D01*
X139307000Y-106563000D01*
X139307000Y-105817000D01*
X139327000Y-105817000D01*
X139327000Y-104917282D01*
X140073000Y-104917282D01*
X140073000Y-105817000D01*
X140093000Y-105817000D01*
X140093000Y-106563000D01*
X140073000Y-106563000D01*
X140073000Y-107462718D01*
X140293265Y-107551345D01*
X140502328Y-107439615D01*
X140730699Y-107259078D01*
X140919461Y-107037457D01*
X140965342Y-106955269D01*
X141086525Y-107136632D01*
X141293368Y-107343475D01*
X141536589Y-107505990D01*
X141806842Y-107617932D01*
X142093740Y-107675000D01*
X142386260Y-107675000D01*
X142673158Y-107617932D01*
X142943411Y-107505990D01*
X143186632Y-107343475D01*
X143393475Y-107136632D01*
X143555990Y-106893411D01*
X143667932Y-106623158D01*
X143725000Y-106336260D01*
X143725000Y-106043740D01*
X143667932Y-105756842D01*
X143555990Y-105486589D01*
X143393475Y-105243368D01*
X143186632Y-105036525D01*
X142943411Y-104874010D01*
X142673158Y-104762068D01*
X142386260Y-104705000D01*
X142093740Y-104705000D01*
X141806842Y-104762068D01*
X141536589Y-104874010D01*
X141293368Y-105036525D01*
X141086525Y-105243368D01*
X140965342Y-105424731D01*
X140919461Y-105342543D01*
X140730699Y-105120922D01*
X140502328Y-104940385D01*
X140293265Y-104828655D01*
X140073000Y-104917282D01*
X139327000Y-104917282D01*
X139106735Y-104828655D01*
X138897672Y-104940385D01*
X138669301Y-105120922D01*
X138480539Y-105342543D01*
X138434658Y-105424731D01*
X138313475Y-105243368D01*
X138106632Y-105036525D01*
X137863411Y-104874010D01*
X137593158Y-104762068D01*
X137306260Y-104705000D01*
X137013740Y-104705000D01*
X136726842Y-104762068D01*
X136456589Y-104874010D01*
X136213368Y-105036525D01*
X136006525Y-105243368D01*
X135890000Y-105417760D01*
X135773475Y-105243368D01*
X135566632Y-105036525D01*
X135323411Y-104874010D01*
X135053158Y-104762068D01*
X134766260Y-104705000D01*
X134473740Y-104705000D01*
X134186842Y-104762068D01*
X133916589Y-104874010D01*
X133673368Y-105036525D01*
X133466525Y-105243368D01*
X133350000Y-105417760D01*
X133233475Y-105243368D01*
X133026632Y-105036525D01*
X132783411Y-104874010D01*
X132513158Y-104762068D01*
X132226260Y-104705000D01*
X131933740Y-104705000D01*
X131646842Y-104762068D01*
X131376589Y-104874010D01*
X131133368Y-105036525D01*
X130926525Y-105243368D01*
X130810000Y-105417760D01*
X130693475Y-105243368D01*
X130486632Y-105036525D01*
X130243411Y-104874010D01*
X129973158Y-104762068D01*
X129686260Y-104705000D01*
X129393740Y-104705000D01*
X129106842Y-104762068D01*
X128836589Y-104874010D01*
X128593368Y-105036525D01*
X128386525Y-105243368D01*
X128224010Y-105486589D01*
X128112068Y-105756842D01*
X128055000Y-106043740D01*
X120257000Y-106043740D01*
X120257000Y-105817000D01*
X120277000Y-105817000D01*
X120277000Y-104813750D01*
X121023000Y-104813750D01*
X121023000Y-105817000D01*
X122026250Y-105817000D01*
X122185000Y-105658250D01*
X122188072Y-105290000D01*
X122175812Y-105165518D01*
X122139502Y-105045820D01*
X122080537Y-104935506D01*
X122001185Y-104838815D01*
X121904494Y-104759463D01*
X121794180Y-104700498D01*
X121674482Y-104664188D01*
X121550000Y-104651928D01*
X121181750Y-104655000D01*
X121023000Y-104813750D01*
X120277000Y-104813750D01*
X120118250Y-104655000D01*
X119750000Y-104651928D01*
X119625518Y-104664188D01*
X119505820Y-104700498D01*
X119395506Y-104759463D01*
X119298815Y-104838815D01*
X119219463Y-104935506D01*
X119160498Y-105045820D01*
X119154944Y-105064127D01*
X119088505Y-104997688D01*
X118837095Y-104829701D01*
X118557743Y-104713989D01*
X118261184Y-104655000D01*
X117958816Y-104655000D01*
X117662257Y-104713989D01*
X117382905Y-104829701D01*
X117131495Y-104997688D01*
X116917688Y-105211495D01*
X116749701Y-105462905D01*
X116633989Y-105742257D01*
X116575000Y-106038816D01*
X110626948Y-106038816D01*
X110647932Y-105988158D01*
X110705000Y-105701260D01*
X110705000Y-105408740D01*
X110647932Y-105121842D01*
X110535990Y-104851589D01*
X110373475Y-104608368D01*
X110350107Y-104585000D01*
X152347721Y-104585000D01*
X152639659Y-104613625D01*
X152889429Y-104689035D01*
X153119792Y-104811522D01*
X153321980Y-104976422D01*
X153488286Y-105177450D01*
X153612378Y-105406954D01*
X153689531Y-105656195D01*
X153720001Y-105946098D01*
X153720000Y-146892721D01*
X153691375Y-147184660D01*
X153615965Y-147434429D01*
X153493477Y-147664794D01*
X153328579Y-147866979D01*
X153127546Y-148033288D01*
X152898046Y-148157378D01*
X152648805Y-148234531D01*
X152358911Y-148265000D01*
X86412279Y-148265000D01*
X86120340Y-148236375D01*
X85870571Y-148160965D01*
X85640206Y-148038477D01*
X85438021Y-147873579D01*
X85271712Y-147672546D01*
X85147622Y-147443046D01*
X85070469Y-147193805D01*
X85040000Y-146903911D01*
X85040000Y-143547285D01*
X85545000Y-143547285D01*
X85545000Y-144302715D01*
X85692377Y-145043628D01*
X85981467Y-145741554D01*
X86401161Y-146369670D01*
X86935330Y-146903839D01*
X87563446Y-147323533D01*
X88261372Y-147612623D01*
X89002285Y-147760000D01*
X89757715Y-147760000D01*
X90498628Y-147612623D01*
X91196554Y-147323533D01*
X91824670Y-146903839D01*
X92358839Y-146369670D01*
X92778533Y-145741554D01*
X93067623Y-145043628D01*
X93135712Y-144701320D01*
X95020000Y-144701320D01*
X95020000Y-145148679D01*
X95041705Y-145369050D01*
X95127476Y-145651801D01*
X95266762Y-145912386D01*
X95454208Y-146140792D01*
X95682613Y-146328238D01*
X95943198Y-146467524D01*
X96225949Y-146553295D01*
X96520000Y-146582257D01*
X96814050Y-146553295D01*
X97096801Y-146467524D01*
X97357386Y-146328238D01*
X97585792Y-146140792D01*
X97773238Y-145912387D01*
X97790000Y-145881027D01*
X97806762Y-145912386D01*
X97994208Y-146140792D01*
X98222613Y-146328238D01*
X98483198Y-146467524D01*
X98765949Y-146553295D01*
X99060000Y-146582257D01*
X99354050Y-146553295D01*
X99636801Y-146467524D01*
X99897386Y-146328238D01*
X100125792Y-146140792D01*
X100313238Y-145912387D01*
X100330000Y-145881027D01*
X100346762Y-145912386D01*
X100534208Y-146140792D01*
X100762613Y-146328238D01*
X101023198Y-146467524D01*
X101305949Y-146553295D01*
X101600000Y-146582257D01*
X101894050Y-146553295D01*
X102176801Y-146467524D01*
X102437386Y-146328238D01*
X102665792Y-146140792D01*
X102670570Y-146134970D01*
X102685498Y-146184180D01*
X102744463Y-146294494D01*
X102823815Y-146391185D01*
X102920506Y-146470537D01*
X103030820Y-146529502D01*
X103150518Y-146565812D01*
X103275000Y-146578072D01*
X103608250Y-146575000D01*
X103767000Y-146416250D01*
X103767000Y-145298000D01*
X104513000Y-145298000D01*
X104513000Y-146416250D01*
X104671750Y-146575000D01*
X105005000Y-146578072D01*
X105129482Y-146565812D01*
X105249180Y-146529502D01*
X105359494Y-146470537D01*
X105456185Y-146391185D01*
X105535537Y-146294494D01*
X105594502Y-146184180D01*
X105630812Y-146064482D01*
X105643072Y-145940000D01*
X105640000Y-145456750D01*
X105481250Y-145298000D01*
X104513000Y-145298000D01*
X103767000Y-145298000D01*
X103747000Y-145298000D01*
X103747000Y-144552000D01*
X103767000Y-144552000D01*
X103767000Y-144532000D01*
X104513000Y-144532000D01*
X104513000Y-144552000D01*
X105481250Y-144552000D01*
X105640000Y-144393250D01*
X105643072Y-143910000D01*
X105630812Y-143785518D01*
X105626105Y-143770000D01*
X108104318Y-143770000D01*
X107966762Y-143937613D01*
X107827476Y-144198198D01*
X107741705Y-144480949D01*
X107720000Y-144701320D01*
X107720000Y-145148679D01*
X107741705Y-145369050D01*
X107827476Y-145651801D01*
X107966762Y-145912386D01*
X108154208Y-146140792D01*
X108382613Y-146328238D01*
X108643198Y-146467524D01*
X108925949Y-146553295D01*
X109220000Y-146582257D01*
X109514050Y-146553295D01*
X109796801Y-146467524D01*
X110057386Y-146328238D01*
X110285792Y-146140792D01*
X110473238Y-145912387D01*
X110490000Y-145881027D01*
X110506762Y-145912386D01*
X110694208Y-146140792D01*
X110922613Y-146328238D01*
X111183198Y-146467524D01*
X111465949Y-146553295D01*
X111760000Y-146582257D01*
X112054050Y-146553295D01*
X112336801Y-146467524D01*
X112597386Y-146328238D01*
X112825792Y-146140792D01*
X113013238Y-145912387D01*
X113030000Y-145881027D01*
X113046762Y-145912386D01*
X113234208Y-146140792D01*
X113462613Y-146328238D01*
X113723198Y-146467524D01*
X114005949Y-146553295D01*
X114300000Y-146582257D01*
X114594050Y-146553295D01*
X114876801Y-146467524D01*
X115137386Y-146328238D01*
X115365792Y-146140792D01*
X115370570Y-146134970D01*
X115385498Y-146184180D01*
X115444463Y-146294494D01*
X115523815Y-146391185D01*
X115620506Y-146470537D01*
X115730820Y-146529502D01*
X115850518Y-146565812D01*
X115975000Y-146578072D01*
X116308250Y-146575000D01*
X116467000Y-146416250D01*
X116467000Y-145298000D01*
X117213000Y-145298000D01*
X117213000Y-146416250D01*
X117371750Y-146575000D01*
X117705000Y-146578072D01*
X117829482Y-146565812D01*
X117949180Y-146529502D01*
X118059494Y-146470537D01*
X118156185Y-146391185D01*
X118235537Y-146294494D01*
X118294502Y-146184180D01*
X118330812Y-146064482D01*
X118343072Y-145940000D01*
X118340000Y-145456750D01*
X118181250Y-145298000D01*
X117213000Y-145298000D01*
X116467000Y-145298000D01*
X116447000Y-145298000D01*
X116447000Y-144552000D01*
X116467000Y-144552000D01*
X116467000Y-144532000D01*
X117213000Y-144532000D01*
X117213000Y-144552000D01*
X118181250Y-144552000D01*
X118340000Y-144393250D01*
X118343072Y-143910000D01*
X118330812Y-143785518D01*
X118326105Y-143770000D01*
X120804318Y-143770000D01*
X120666762Y-143937613D01*
X120527476Y-144198198D01*
X120441705Y-144480949D01*
X120420000Y-144701320D01*
X120420000Y-145148679D01*
X120441705Y-145369050D01*
X120527476Y-145651801D01*
X120666762Y-145912386D01*
X120854208Y-146140792D01*
X121082613Y-146328238D01*
X121343198Y-146467524D01*
X121625949Y-146553295D01*
X121920000Y-146582257D01*
X122214050Y-146553295D01*
X122496801Y-146467524D01*
X122757386Y-146328238D01*
X122985792Y-146140792D01*
X123173238Y-145912387D01*
X123190000Y-145881027D01*
X123206762Y-145912386D01*
X123394208Y-146140792D01*
X123622613Y-146328238D01*
X123883198Y-146467524D01*
X124165949Y-146553295D01*
X124460000Y-146582257D01*
X124754050Y-146553295D01*
X125036801Y-146467524D01*
X125297386Y-146328238D01*
X125525792Y-146140792D01*
X125713238Y-145912387D01*
X125730000Y-145881027D01*
X125746762Y-145912386D01*
X125934208Y-146140792D01*
X126162613Y-146328238D01*
X126423198Y-146467524D01*
X126705949Y-146553295D01*
X127000000Y-146582257D01*
X127294050Y-146553295D01*
X127576801Y-146467524D01*
X127837386Y-146328238D01*
X128065792Y-146140792D01*
X128070570Y-146134970D01*
X128085498Y-146184180D01*
X128144463Y-146294494D01*
X128223815Y-146391185D01*
X128320506Y-146470537D01*
X128430820Y-146529502D01*
X128550518Y-146565812D01*
X128675000Y-146578072D01*
X129008250Y-146575000D01*
X129167000Y-146416250D01*
X129167000Y-145298000D01*
X129913000Y-145298000D01*
X129913000Y-146416250D01*
X130071750Y-146575000D01*
X130405000Y-146578072D01*
X130529482Y-146565812D01*
X130649180Y-146529502D01*
X130759494Y-146470537D01*
X130856185Y-146391185D01*
X130935537Y-146294494D01*
X130994502Y-146184180D01*
X131030812Y-146064482D01*
X131043072Y-145940000D01*
X131040000Y-145456750D01*
X130881250Y-145298000D01*
X129913000Y-145298000D01*
X129167000Y-145298000D01*
X129147000Y-145298000D01*
X129147000Y-144552000D01*
X129167000Y-144552000D01*
X129167000Y-144532000D01*
X129913000Y-144532000D01*
X129913000Y-144552000D01*
X130881250Y-144552000D01*
X131040000Y-144393250D01*
X131043072Y-143910000D01*
X131030812Y-143785518D01*
X131026105Y-143770000D01*
X133504318Y-143770000D01*
X133366762Y-143937613D01*
X133227476Y-144198198D01*
X133141705Y-144480949D01*
X133120000Y-144701320D01*
X133120000Y-145148679D01*
X133141705Y-145369050D01*
X133227476Y-145651801D01*
X133366762Y-145912386D01*
X133554208Y-146140792D01*
X133782613Y-146328238D01*
X134043198Y-146467524D01*
X134325949Y-146553295D01*
X134620000Y-146582257D01*
X134914050Y-146553295D01*
X135196801Y-146467524D01*
X135457386Y-146328238D01*
X135685792Y-146140792D01*
X135873238Y-145912387D01*
X135890000Y-145881027D01*
X135906762Y-145912386D01*
X136094208Y-146140792D01*
X136322613Y-146328238D01*
X136583198Y-146467524D01*
X136865949Y-146553295D01*
X137160000Y-146582257D01*
X137454050Y-146553295D01*
X137736801Y-146467524D01*
X137997386Y-146328238D01*
X138225792Y-146140792D01*
X138413238Y-145912387D01*
X138430000Y-145881027D01*
X138446762Y-145912386D01*
X138634208Y-146140792D01*
X138862613Y-146328238D01*
X139123198Y-146467524D01*
X139405949Y-146553295D01*
X139700000Y-146582257D01*
X139994050Y-146553295D01*
X140276801Y-146467524D01*
X140537386Y-146328238D01*
X140765792Y-146140792D01*
X140770570Y-146134970D01*
X140785498Y-146184180D01*
X140844463Y-146294494D01*
X140923815Y-146391185D01*
X141020506Y-146470537D01*
X141130820Y-146529502D01*
X141250518Y-146565812D01*
X141375000Y-146578072D01*
X141708250Y-146575000D01*
X141867000Y-146416250D01*
X141867000Y-145298000D01*
X142613000Y-145298000D01*
X142613000Y-146416250D01*
X142771750Y-146575000D01*
X143105000Y-146578072D01*
X143229482Y-146565812D01*
X143349180Y-146529502D01*
X143459494Y-146470537D01*
X143556185Y-146391185D01*
X143635537Y-146294494D01*
X143694502Y-146184180D01*
X143730812Y-146064482D01*
X143743072Y-145940000D01*
X143740000Y-145456750D01*
X143581250Y-145298000D01*
X142613000Y-145298000D01*
X141867000Y-145298000D01*
X141847000Y-145298000D01*
X141847000Y-144552000D01*
X141867000Y-144552000D01*
X141867000Y-143433750D01*
X142613000Y-143433750D01*
X142613000Y-144552000D01*
X143581250Y-144552000D01*
X143740000Y-144393250D01*
X143743072Y-143910000D01*
X143730812Y-143785518D01*
X143694502Y-143665820D01*
X143635537Y-143555506D01*
X143628791Y-143547285D01*
X145545000Y-143547285D01*
X145545000Y-144302715D01*
X145692377Y-145043628D01*
X145981467Y-145741554D01*
X146401161Y-146369670D01*
X146935330Y-146903839D01*
X147563446Y-147323533D01*
X148261372Y-147612623D01*
X149002285Y-147760000D01*
X149757715Y-147760000D01*
X150498628Y-147612623D01*
X151196554Y-147323533D01*
X151824670Y-146903839D01*
X152358839Y-146369670D01*
X152778533Y-145741554D01*
X153067623Y-145043628D01*
X153215000Y-144302715D01*
X153215000Y-143547285D01*
X153067623Y-142806372D01*
X152778533Y-142108446D01*
X152358839Y-141480330D01*
X151824670Y-140946161D01*
X151196554Y-140526467D01*
X150498628Y-140237377D01*
X149757715Y-140090000D01*
X149002285Y-140090000D01*
X148261372Y-140237377D01*
X147563446Y-140526467D01*
X146935330Y-140946161D01*
X146401161Y-141480330D01*
X145981467Y-142108446D01*
X145692377Y-142806372D01*
X145545000Y-143547285D01*
X143628791Y-143547285D01*
X143556185Y-143458815D01*
X143459494Y-143379463D01*
X143349180Y-143320498D01*
X143229482Y-143284188D01*
X143105000Y-143271928D01*
X142771750Y-143275000D01*
X142613000Y-143433750D01*
X141867000Y-143433750D01*
X141708250Y-143275000D01*
X141375000Y-143271928D01*
X141250518Y-143284188D01*
X141130820Y-143320498D01*
X141057706Y-143359579D01*
X140985764Y-143122419D01*
X140857157Y-142881812D01*
X140795245Y-142806372D01*
X140727452Y-142723766D01*
X140727450Y-142723764D01*
X140684081Y-142670919D01*
X140631236Y-142627550D01*
X139457454Y-141453769D01*
X139414081Y-141400919D01*
X139203188Y-141227843D01*
X138962581Y-141099236D01*
X138701507Y-141020040D01*
X138498037Y-141000000D01*
X138498029Y-141000000D01*
X138430000Y-140993300D01*
X138361971Y-141000000D01*
X128338026Y-141000000D01*
X128269999Y-140993300D01*
X128201972Y-141000000D01*
X125798029Y-141000000D01*
X125730000Y-140993300D01*
X125661971Y-141000000D01*
X115858024Y-141000000D01*
X115789997Y-140993300D01*
X115721970Y-141000000D01*
X112878031Y-141000000D01*
X112810002Y-140993300D01*
X112741973Y-141000000D01*
X103158024Y-141000000D01*
X103089997Y-140993300D01*
X103021970Y-141000000D01*
X103021961Y-141000000D01*
X102818491Y-141020040D01*
X102557417Y-141099236D01*
X102316810Y-141227843D01*
X102316808Y-141227844D01*
X102316809Y-141227844D01*
X102158764Y-141357548D01*
X102158762Y-141357550D01*
X102105917Y-141400919D01*
X102062548Y-141453764D01*
X100668764Y-142847549D01*
X100615920Y-142890917D01*
X100442843Y-143101810D01*
X100314236Y-143342417D01*
X100235040Y-143603491D01*
X100215000Y-143806961D01*
X100215000Y-143806969D01*
X100214038Y-143816737D01*
X100125792Y-143709208D01*
X99897387Y-143521762D01*
X99636802Y-143382476D01*
X99354051Y-143296705D01*
X99060000Y-143267743D01*
X98765950Y-143296705D01*
X98483199Y-143382476D01*
X98222614Y-143521762D01*
X97994208Y-143709208D01*
X97806762Y-143937613D01*
X97790000Y-143968972D01*
X97773238Y-143937613D01*
X97585792Y-143709208D01*
X97357387Y-143521762D01*
X97096802Y-143382476D01*
X96814051Y-143296705D01*
X96520000Y-143267743D01*
X96225950Y-143296705D01*
X95943199Y-143382476D01*
X95682614Y-143521762D01*
X95454208Y-143709208D01*
X95266762Y-143937613D01*
X95127476Y-144198198D01*
X95041705Y-144480949D01*
X95020000Y-144701320D01*
X93135712Y-144701320D01*
X93215000Y-144302715D01*
X93215000Y-143547285D01*
X93067623Y-142806372D01*
X92778533Y-142108446D01*
X92358839Y-141480330D01*
X91824670Y-140946161D01*
X91196554Y-140526467D01*
X90498628Y-140237377D01*
X89757715Y-140090000D01*
X89002285Y-140090000D01*
X88261372Y-140237377D01*
X87563446Y-140526467D01*
X86935330Y-140946161D01*
X86401161Y-141480330D01*
X85981467Y-142108446D01*
X85692377Y-142806372D01*
X85545000Y-143547285D01*
X85040000Y-143547285D01*
X85040000Y-135268514D01*
X100265000Y-135268514D01*
X100265000Y-135531486D01*
X100316304Y-135789405D01*
X100416939Y-136032359D01*
X100563038Y-136251013D01*
X100748987Y-136436962D01*
X100967641Y-136583061D01*
X101177530Y-136670000D01*
X100967641Y-136756939D01*
X100748987Y-136903038D01*
X100563038Y-137088987D01*
X100416939Y-137307641D01*
X100316304Y-137550595D01*
X100265000Y-137808514D01*
X100265000Y-138071486D01*
X100316304Y-138329405D01*
X100416939Y-138572359D01*
X100563038Y-138791013D01*
X100748987Y-138976962D01*
X100967641Y-139123061D01*
X101210595Y-139223696D01*
X101468514Y-139275000D01*
X101731486Y-139275000D01*
X101989405Y-139223696D01*
X102232359Y-139123061D01*
X102451013Y-138976962D01*
X102636962Y-138791013D01*
X102783061Y-138572359D01*
X102870000Y-138362470D01*
X102956939Y-138572359D01*
X103103038Y-138791013D01*
X103288987Y-138976962D01*
X103507641Y-139123061D01*
X103750595Y-139223696D01*
X104008514Y-139275000D01*
X104271486Y-139275000D01*
X104529405Y-139223696D01*
X104772359Y-139123061D01*
X104991013Y-138976962D01*
X105176962Y-138791013D01*
X105323061Y-138572359D01*
X105410000Y-138362470D01*
X105496939Y-138572359D01*
X105643038Y-138791013D01*
X105828987Y-138976962D01*
X106047641Y-139123061D01*
X106290595Y-139223696D01*
X106548514Y-139275000D01*
X106811486Y-139275000D01*
X107069405Y-139223696D01*
X107312359Y-139123061D01*
X107531013Y-138976962D01*
X107716962Y-138791013D01*
X107863061Y-138572359D01*
X107950000Y-138362470D01*
X108036939Y-138572359D01*
X108183038Y-138791013D01*
X108368987Y-138976962D01*
X108587641Y-139123061D01*
X108830595Y-139223696D01*
X109088514Y-139275000D01*
X109351486Y-139275000D01*
X109609405Y-139223696D01*
X109852359Y-139123061D01*
X110071013Y-138976962D01*
X110256962Y-138791013D01*
X110403061Y-138572359D01*
X110490000Y-138362470D01*
X110576939Y-138572359D01*
X110723038Y-138791013D01*
X110908987Y-138976962D01*
X111127641Y-139123061D01*
X111370595Y-139223696D01*
X111628514Y-139275000D01*
X111891486Y-139275000D01*
X112149405Y-139223696D01*
X112392359Y-139123061D01*
X112611013Y-138976962D01*
X112796962Y-138791013D01*
X112943061Y-138572359D01*
X113030000Y-138362470D01*
X113116939Y-138572359D01*
X113263038Y-138791013D01*
X113448987Y-138976962D01*
X113667641Y-139123061D01*
X113910595Y-139223696D01*
X114168514Y-139275000D01*
X114431486Y-139275000D01*
X114689405Y-139223696D01*
X114932359Y-139123061D01*
X115151013Y-138976962D01*
X115336962Y-138791013D01*
X115483061Y-138572359D01*
X115570000Y-138362470D01*
X115656939Y-138572359D01*
X115803038Y-138791013D01*
X115988987Y-138976962D01*
X116207641Y-139123061D01*
X116450595Y-139223696D01*
X116708514Y-139275000D01*
X116971486Y-139275000D01*
X117229405Y-139223696D01*
X117472359Y-139123061D01*
X117691013Y-138976962D01*
X117876962Y-138791013D01*
X118023061Y-138572359D01*
X118110000Y-138362470D01*
X118196939Y-138572359D01*
X118343038Y-138791013D01*
X118528987Y-138976962D01*
X118747641Y-139123061D01*
X118990595Y-139223696D01*
X119248514Y-139275000D01*
X119511486Y-139275000D01*
X119769405Y-139223696D01*
X120012359Y-139123061D01*
X120231013Y-138976962D01*
X120416962Y-138791013D01*
X120563061Y-138572359D01*
X120650000Y-138362470D01*
X120736939Y-138572359D01*
X120883038Y-138791013D01*
X121068987Y-138976962D01*
X121287641Y-139123061D01*
X121530595Y-139223696D01*
X121788514Y-139275000D01*
X122051486Y-139275000D01*
X122309405Y-139223696D01*
X122552359Y-139123061D01*
X122740465Y-138997373D01*
X123930129Y-138997373D01*
X124004367Y-139201710D01*
X124259269Y-139266357D01*
X124521886Y-139280032D01*
X124782124Y-139242211D01*
X124915633Y-139201710D01*
X124989871Y-138997373D01*
X124460000Y-138467502D01*
X123930129Y-138997373D01*
X122740465Y-138997373D01*
X122771013Y-138976962D01*
X122956962Y-138791013D01*
X123103061Y-138572359D01*
X123188978Y-138364937D01*
X123198290Y-138395633D01*
X123402627Y-138469871D01*
X123932498Y-137940000D01*
X124987502Y-137940000D01*
X125517373Y-138469871D01*
X125721710Y-138395633D01*
X125786357Y-138140731D01*
X125800032Y-137878114D01*
X125762211Y-137617876D01*
X125721710Y-137484367D01*
X125517373Y-137410129D01*
X124987502Y-137940000D01*
X123932498Y-137940000D01*
X123402627Y-137410129D01*
X123198290Y-137484367D01*
X123189925Y-137517349D01*
X123103061Y-137307641D01*
X122956962Y-137088987D01*
X122771013Y-136903038D01*
X122552359Y-136756939D01*
X122342470Y-136670000D01*
X122552359Y-136583061D01*
X122771013Y-136436962D01*
X122956962Y-136251013D01*
X123103061Y-136032359D01*
X123190000Y-135822470D01*
X123276939Y-136032359D01*
X123423038Y-136251013D01*
X123608987Y-136436962D01*
X123827641Y-136583061D01*
X124035063Y-136668978D01*
X124004367Y-136678290D01*
X123930129Y-136882627D01*
X124460000Y-137412498D01*
X124989871Y-136882627D01*
X124915633Y-136678290D01*
X124882651Y-136669925D01*
X125092359Y-136583061D01*
X125311013Y-136436962D01*
X125496962Y-136251013D01*
X125643061Y-136032359D01*
X125743696Y-135789405D01*
X125795000Y-135531486D01*
X125795000Y-135268514D01*
X125743696Y-135010595D01*
X125643061Y-134767641D01*
X125496962Y-134548987D01*
X125311013Y-134363038D01*
X125092359Y-134216939D01*
X124849405Y-134116304D01*
X124591486Y-134065000D01*
X124328514Y-134065000D01*
X124070595Y-134116304D01*
X123827641Y-134216939D01*
X123608987Y-134363038D01*
X123423038Y-134548987D01*
X123276939Y-134767641D01*
X123190000Y-134977530D01*
X123103061Y-134767641D01*
X122956962Y-134548987D01*
X122771013Y-134363038D01*
X122552359Y-134216939D01*
X122309405Y-134116304D01*
X122051486Y-134065000D01*
X121788514Y-134065000D01*
X121530595Y-134116304D01*
X121287641Y-134216939D01*
X121068987Y-134363038D01*
X120883038Y-134548987D01*
X120736939Y-134767641D01*
X120650000Y-134977530D01*
X120563061Y-134767641D01*
X120416962Y-134548987D01*
X120231013Y-134363038D01*
X120012359Y-134216939D01*
X119769405Y-134116304D01*
X119511486Y-134065000D01*
X119248514Y-134065000D01*
X118990595Y-134116304D01*
X118747641Y-134216939D01*
X118528987Y-134363038D01*
X118343038Y-134548987D01*
X118196939Y-134767641D01*
X118110000Y-134977530D01*
X118023061Y-134767641D01*
X117876962Y-134548987D01*
X117691013Y-134363038D01*
X117472359Y-134216939D01*
X117229405Y-134116304D01*
X116971486Y-134065000D01*
X116708514Y-134065000D01*
X116450595Y-134116304D01*
X116207641Y-134216939D01*
X115988987Y-134363038D01*
X115803038Y-134548987D01*
X115656939Y-134767641D01*
X115570000Y-134977530D01*
X115483061Y-134767641D01*
X115336962Y-134548987D01*
X115151013Y-134363038D01*
X114932359Y-134216939D01*
X114689405Y-134116304D01*
X114431486Y-134065000D01*
X114168514Y-134065000D01*
X113910595Y-134116304D01*
X113667641Y-134216939D01*
X113448987Y-134363038D01*
X113263038Y-134548987D01*
X113116939Y-134767641D01*
X113030000Y-134977530D01*
X112943061Y-134767641D01*
X112796962Y-134548987D01*
X112611013Y-134363038D01*
X112392359Y-134216939D01*
X112149405Y-134116304D01*
X111891486Y-134065000D01*
X111628514Y-134065000D01*
X111370595Y-134116304D01*
X111127641Y-134216939D01*
X110908987Y-134363038D01*
X110723038Y-134548987D01*
X110576939Y-134767641D01*
X110491022Y-134975063D01*
X110481710Y-134944367D01*
X110277373Y-134870129D01*
X109747502Y-135400000D01*
X110277373Y-135929871D01*
X110481710Y-135855633D01*
X110490075Y-135822651D01*
X110576939Y-136032359D01*
X110723038Y-136251013D01*
X110908987Y-136436962D01*
X111127641Y-136583061D01*
X111337530Y-136670000D01*
X111127641Y-136756939D01*
X110908987Y-136903038D01*
X110723038Y-137088987D01*
X110576939Y-137307641D01*
X110490000Y-137517530D01*
X110403061Y-137307641D01*
X110256962Y-137088987D01*
X110071013Y-136903038D01*
X109852359Y-136756939D01*
X109644937Y-136671022D01*
X109675633Y-136661710D01*
X109749871Y-136457373D01*
X109220000Y-135927502D01*
X108690129Y-136457373D01*
X108764367Y-136661710D01*
X108797349Y-136670075D01*
X108587641Y-136756939D01*
X108368987Y-136903038D01*
X108183038Y-137088987D01*
X108036939Y-137307641D01*
X107950000Y-137517530D01*
X107863061Y-137307641D01*
X107716962Y-137088987D01*
X107531013Y-136903038D01*
X107312359Y-136756939D01*
X107102470Y-136670000D01*
X107312359Y-136583061D01*
X107531013Y-136436962D01*
X107716962Y-136251013D01*
X107863061Y-136032359D01*
X107948978Y-135824937D01*
X107958290Y-135855633D01*
X108162627Y-135929871D01*
X108692498Y-135400000D01*
X108162627Y-134870129D01*
X107958290Y-134944367D01*
X107949925Y-134977349D01*
X107863061Y-134767641D01*
X107716962Y-134548987D01*
X107531013Y-134363038D01*
X107500466Y-134342627D01*
X108690129Y-134342627D01*
X109220000Y-134872498D01*
X109749871Y-134342627D01*
X109675633Y-134138290D01*
X109420731Y-134073643D01*
X109158114Y-134059968D01*
X108897876Y-134097789D01*
X108764367Y-134138290D01*
X108690129Y-134342627D01*
X107500466Y-134342627D01*
X107312359Y-134216939D01*
X107069405Y-134116304D01*
X106811486Y-134065000D01*
X106548514Y-134065000D01*
X106290595Y-134116304D01*
X106047641Y-134216939D01*
X105828987Y-134363038D01*
X105643038Y-134548987D01*
X105496939Y-134767641D01*
X105410000Y-134977530D01*
X105323061Y-134767641D01*
X105176962Y-134548987D01*
X104991013Y-134363038D01*
X104772359Y-134216939D01*
X104529405Y-134116304D01*
X104271486Y-134065000D01*
X104008514Y-134065000D01*
X103750595Y-134116304D01*
X103507641Y-134216939D01*
X103288987Y-134363038D01*
X103103038Y-134548987D01*
X102956939Y-134767641D01*
X102870000Y-134977530D01*
X102783061Y-134767641D01*
X102636962Y-134548987D01*
X102451013Y-134363038D01*
X102232359Y-134216939D01*
X101989405Y-134116304D01*
X101731486Y-134065000D01*
X101468514Y-134065000D01*
X101210595Y-134116304D01*
X100967641Y-134216939D01*
X100748987Y-134363038D01*
X100563038Y-134548987D01*
X100416939Y-134767641D01*
X100316304Y-135010595D01*
X100265000Y-135268514D01*
X85040000Y-135268514D01*
X85040000Y-133247787D01*
X142270000Y-133247787D01*
X142270000Y-133742213D01*
X142366458Y-134227140D01*
X142555667Y-134683931D01*
X142830356Y-135095032D01*
X143179968Y-135444644D01*
X143591069Y-135719333D01*
X144047860Y-135908542D01*
X144532787Y-136005000D01*
X145027213Y-136005000D01*
X145512140Y-135908542D01*
X145968931Y-135719333D01*
X146298884Y-135498865D01*
X149303637Y-135498865D01*
X149540975Y-135834956D01*
X150021285Y-136031717D01*
X150530752Y-136130992D01*
X151049798Y-136128969D01*
X151558476Y-136025723D01*
X152019025Y-135834956D01*
X152256363Y-135498865D01*
X150780000Y-134022502D01*
X149303637Y-135498865D01*
X146298884Y-135498865D01*
X146380032Y-135444644D01*
X146729644Y-135095032D01*
X147004333Y-134683931D01*
X147193542Y-134227140D01*
X147290000Y-133742213D01*
X147290000Y-133247787D01*
X147289596Y-133245752D01*
X148144008Y-133245752D01*
X148146031Y-133764798D01*
X148249277Y-134273476D01*
X148440044Y-134734025D01*
X148776135Y-134971363D01*
X150252498Y-133495000D01*
X151307502Y-133495000D01*
X152783865Y-134971363D01*
X153119956Y-134734025D01*
X153316717Y-134253715D01*
X153415992Y-133744248D01*
X153413969Y-133225202D01*
X153310723Y-132716524D01*
X153119956Y-132255975D01*
X152783865Y-132018637D01*
X151307502Y-133495000D01*
X150252498Y-133495000D01*
X148776135Y-132018637D01*
X148440044Y-132255975D01*
X148243283Y-132736285D01*
X148144008Y-133245752D01*
X147289596Y-133245752D01*
X147193542Y-132762860D01*
X147004333Y-132306069D01*
X146729644Y-131894968D01*
X146380032Y-131545356D01*
X146298885Y-131491135D01*
X149303637Y-131491135D01*
X150780000Y-132967498D01*
X152256363Y-131491135D01*
X152019025Y-131155044D01*
X151538715Y-130958283D01*
X151029248Y-130859008D01*
X150510202Y-130861031D01*
X150001524Y-130964277D01*
X149540975Y-131155044D01*
X149303637Y-131491135D01*
X146298885Y-131491135D01*
X145968931Y-131270667D01*
X145512140Y-131081458D01*
X145027213Y-130985000D01*
X144532787Y-130985000D01*
X144047860Y-131081458D01*
X143591069Y-131270667D01*
X143179968Y-131545356D01*
X142830356Y-131894968D01*
X142555667Y-132306069D01*
X142366458Y-132762860D01*
X142270000Y-133247787D01*
X85040000Y-133247787D01*
X85040000Y-130708979D01*
X146393523Y-130708979D01*
X146615585Y-131032265D01*
X147074428Y-131216443D01*
X147560385Y-131307565D01*
X148054782Y-131302131D01*
X148538620Y-131200350D01*
X148944415Y-131032265D01*
X149166477Y-130708979D01*
X147780000Y-129322502D01*
X146393523Y-130708979D01*
X85040000Y-130708979D01*
X85040000Y-128575385D01*
X145267435Y-128575385D01*
X145272869Y-129069782D01*
X145374650Y-129553620D01*
X145542735Y-129959415D01*
X145866021Y-130181477D01*
X147252498Y-128795000D01*
X148307502Y-128795000D01*
X149693979Y-130181477D01*
X150017265Y-129959415D01*
X150201443Y-129500572D01*
X150292565Y-129014615D01*
X150287131Y-128520218D01*
X150185350Y-128036380D01*
X150017265Y-127630585D01*
X149693979Y-127408523D01*
X148307502Y-128795000D01*
X147252498Y-128795000D01*
X145866021Y-127408523D01*
X145542735Y-127630585D01*
X145358557Y-128089428D01*
X145267435Y-128575385D01*
X85040000Y-128575385D01*
X85040000Y-126881021D01*
X146393523Y-126881021D01*
X147780000Y-128267498D01*
X149166477Y-126881021D01*
X148944415Y-126557735D01*
X148485572Y-126373557D01*
X147999615Y-126282435D01*
X147505218Y-126287869D01*
X147021380Y-126389650D01*
X146615585Y-126557735D01*
X146393523Y-126881021D01*
X85040000Y-126881021D01*
X85040000Y-124458740D01*
X133135000Y-124458740D01*
X133135000Y-124751260D01*
X133192068Y-125038158D01*
X133304010Y-125308411D01*
X133466525Y-125551632D01*
X133673368Y-125758475D01*
X133916589Y-125920990D01*
X134186842Y-126032932D01*
X134473740Y-126090000D01*
X134766260Y-126090000D01*
X135053158Y-126032932D01*
X135323411Y-125920990D01*
X135566632Y-125758475D01*
X135773475Y-125551632D01*
X135935990Y-125308411D01*
X136047932Y-125038158D01*
X136105000Y-124751260D01*
X136105000Y-124458740D01*
X136047932Y-124171842D01*
X135935990Y-123901589D01*
X135773475Y-123658368D01*
X135566632Y-123451525D01*
X135385269Y-123330342D01*
X135467457Y-123284461D01*
X135689078Y-123095699D01*
X135869615Y-122867328D01*
X135981345Y-122658265D01*
X135892718Y-122438000D01*
X134993000Y-122438000D01*
X134993000Y-122458000D01*
X134247000Y-122458000D01*
X134247000Y-122438000D01*
X133347282Y-122438000D01*
X133258655Y-122658265D01*
X133370385Y-122867328D01*
X133550922Y-123095699D01*
X133772543Y-123284461D01*
X133854731Y-123330342D01*
X133673368Y-123451525D01*
X133466525Y-123658368D01*
X133304010Y-123901589D01*
X133192068Y-124171842D01*
X133135000Y-124458740D01*
X85040000Y-124458740D01*
X85040000Y-116838740D01*
X133135000Y-116838740D01*
X133135000Y-117131260D01*
X133192068Y-117418158D01*
X133304010Y-117688411D01*
X133466525Y-117931632D01*
X133673368Y-118138475D01*
X133847760Y-118255000D01*
X133673368Y-118371525D01*
X133466525Y-118578368D01*
X133304010Y-118821589D01*
X133192068Y-119091842D01*
X133135000Y-119378740D01*
X133135000Y-119671260D01*
X133192068Y-119958158D01*
X133304010Y-120228411D01*
X133466525Y-120471632D01*
X133673368Y-120678475D01*
X133854731Y-120799658D01*
X133772543Y-120845539D01*
X133550922Y-121034301D01*
X133370385Y-121262672D01*
X133258655Y-121471735D01*
X133347282Y-121692000D01*
X134247000Y-121692000D01*
X134247000Y-121672000D01*
X134993000Y-121672000D01*
X134993000Y-121692000D01*
X135892718Y-121692000D01*
X135981345Y-121471735D01*
X135869615Y-121262672D01*
X135689078Y-121034301D01*
X135467457Y-120845539D01*
X135385269Y-120799658D01*
X135566632Y-120678475D01*
X135773475Y-120471632D01*
X135935990Y-120228411D01*
X136047932Y-119958158D01*
X136105000Y-119671260D01*
X136105000Y-119378740D01*
X136047932Y-119091842D01*
X135935990Y-118821589D01*
X135773475Y-118578368D01*
X135566632Y-118371525D01*
X135392240Y-118255000D01*
X135566632Y-118138475D01*
X135773475Y-117931632D01*
X135935990Y-117688411D01*
X136047932Y-117418158D01*
X136105000Y-117131260D01*
X136105000Y-116838740D01*
X136047932Y-116551842D01*
X135935990Y-116281589D01*
X135773475Y-116038368D01*
X135566632Y-115831525D01*
X135323411Y-115669010D01*
X135053158Y-115557068D01*
X134766260Y-115500000D01*
X134473740Y-115500000D01*
X134186842Y-115557068D01*
X133916589Y-115669010D01*
X133673368Y-115831525D01*
X133466525Y-116038368D01*
X133304010Y-116281589D01*
X133192068Y-116551842D01*
X133135000Y-116838740D01*
X85040000Y-116838740D01*
X85040000Y-108547285D01*
X85545000Y-108547285D01*
X85545000Y-109302715D01*
X85692377Y-110043628D01*
X85981467Y-110741554D01*
X86401161Y-111369670D01*
X86935330Y-111903839D01*
X87563446Y-112323533D01*
X88261372Y-112612623D01*
X89002285Y-112760000D01*
X89757715Y-112760000D01*
X90498628Y-112612623D01*
X91196554Y-112323533D01*
X91824670Y-111903839D01*
X92358839Y-111369670D01*
X92778533Y-110741554D01*
X93067623Y-110043628D01*
X93102455Y-109868514D01*
X100265000Y-109868514D01*
X100265000Y-110131486D01*
X100316304Y-110389405D01*
X100416939Y-110632359D01*
X100563038Y-110851013D01*
X100748987Y-111036962D01*
X100967641Y-111183061D01*
X101177530Y-111270000D01*
X100967641Y-111356939D01*
X100748987Y-111503038D01*
X100563038Y-111688987D01*
X100416939Y-111907641D01*
X100316304Y-112150595D01*
X100265000Y-112408514D01*
X100265000Y-112671486D01*
X100316304Y-112929405D01*
X100416939Y-113172359D01*
X100563038Y-113391013D01*
X100748987Y-113576962D01*
X100967641Y-113723061D01*
X101210595Y-113823696D01*
X101468514Y-113875000D01*
X101731486Y-113875000D01*
X101989405Y-113823696D01*
X102232359Y-113723061D01*
X102451013Y-113576962D01*
X102636962Y-113391013D01*
X102783061Y-113172359D01*
X102870000Y-112962470D01*
X102956939Y-113172359D01*
X103103038Y-113391013D01*
X103288987Y-113576962D01*
X103507641Y-113723061D01*
X103750595Y-113823696D01*
X104008514Y-113875000D01*
X104271486Y-113875000D01*
X104529405Y-113823696D01*
X104772359Y-113723061D01*
X104991013Y-113576962D01*
X105176962Y-113391013D01*
X105323061Y-113172359D01*
X105410000Y-112962470D01*
X105496939Y-113172359D01*
X105643038Y-113391013D01*
X105828987Y-113576962D01*
X106047641Y-113723061D01*
X106290595Y-113823696D01*
X106548514Y-113875000D01*
X106811486Y-113875000D01*
X107069405Y-113823696D01*
X107312359Y-113723061D01*
X107531013Y-113576962D01*
X107716962Y-113391013D01*
X107863061Y-113172359D01*
X107950000Y-112962470D01*
X108036939Y-113172359D01*
X108183038Y-113391013D01*
X108368987Y-113576962D01*
X108587641Y-113723061D01*
X108830595Y-113823696D01*
X109088514Y-113875000D01*
X109351486Y-113875000D01*
X109609405Y-113823696D01*
X109852359Y-113723061D01*
X110071013Y-113576962D01*
X110256962Y-113391013D01*
X110403061Y-113172359D01*
X110490000Y-112962470D01*
X110576939Y-113172359D01*
X110723038Y-113391013D01*
X110908987Y-113576962D01*
X111127641Y-113723061D01*
X111370595Y-113823696D01*
X111628514Y-113875000D01*
X111891486Y-113875000D01*
X112149405Y-113823696D01*
X112392359Y-113723061D01*
X112611013Y-113576962D01*
X112796962Y-113391013D01*
X112943061Y-113172359D01*
X113030000Y-112962470D01*
X113116939Y-113172359D01*
X113263038Y-113391013D01*
X113448987Y-113576962D01*
X113667641Y-113723061D01*
X113910595Y-113823696D01*
X114168514Y-113875000D01*
X114431486Y-113875000D01*
X114689405Y-113823696D01*
X114932359Y-113723061D01*
X115151013Y-113576962D01*
X115336962Y-113391013D01*
X115483061Y-113172359D01*
X115570000Y-112962470D01*
X115656939Y-113172359D01*
X115803038Y-113391013D01*
X115988987Y-113576962D01*
X116207641Y-113723061D01*
X116450595Y-113823696D01*
X116708514Y-113875000D01*
X116971486Y-113875000D01*
X117229405Y-113823696D01*
X117472359Y-113723061D01*
X117691013Y-113576962D01*
X117876962Y-113391013D01*
X118023061Y-113172359D01*
X118110000Y-112962470D01*
X118196939Y-113172359D01*
X118343038Y-113391013D01*
X118528987Y-113576962D01*
X118747641Y-113723061D01*
X118990595Y-113823696D01*
X119248514Y-113875000D01*
X119511486Y-113875000D01*
X119769405Y-113823696D01*
X120012359Y-113723061D01*
X120231013Y-113576962D01*
X120416962Y-113391013D01*
X120563061Y-113172359D01*
X120650000Y-112962470D01*
X120736939Y-113172359D01*
X120883038Y-113391013D01*
X121068987Y-113576962D01*
X121287641Y-113723061D01*
X121530595Y-113823696D01*
X121788514Y-113875000D01*
X122051486Y-113875000D01*
X122309405Y-113823696D01*
X122552359Y-113723061D01*
X122771013Y-113576962D01*
X122956962Y-113391013D01*
X123103061Y-113172359D01*
X123190000Y-112962470D01*
X123276939Y-113172359D01*
X123423038Y-113391013D01*
X123608987Y-113576962D01*
X123827641Y-113723061D01*
X124070595Y-113823696D01*
X124328514Y-113875000D01*
X124591486Y-113875000D01*
X124849405Y-113823696D01*
X125092359Y-113723061D01*
X125311013Y-113576962D01*
X125496962Y-113391013D01*
X125643061Y-113172359D01*
X125743696Y-112929405D01*
X125795000Y-112671486D01*
X125795000Y-112408514D01*
X125743696Y-112150595D01*
X125643061Y-111907641D01*
X125496962Y-111688987D01*
X125311013Y-111503038D01*
X125092359Y-111356939D01*
X124884937Y-111271022D01*
X124915633Y-111261710D01*
X124989871Y-111057373D01*
X124460000Y-110527502D01*
X123930129Y-111057373D01*
X124004367Y-111261710D01*
X124037349Y-111270075D01*
X123827641Y-111356939D01*
X123608987Y-111503038D01*
X123423038Y-111688987D01*
X123276939Y-111907641D01*
X123190000Y-112117530D01*
X123103061Y-111907641D01*
X122956962Y-111688987D01*
X122771013Y-111503038D01*
X122552359Y-111356939D01*
X122342470Y-111270000D01*
X122552359Y-111183061D01*
X122771013Y-111036962D01*
X122956962Y-110851013D01*
X123103061Y-110632359D01*
X123188978Y-110424937D01*
X123198290Y-110455633D01*
X123402627Y-110529871D01*
X123932498Y-110000000D01*
X124987502Y-110000000D01*
X125517373Y-110529871D01*
X125721710Y-110455633D01*
X125786357Y-110200731D01*
X125800032Y-109938114D01*
X125762211Y-109677876D01*
X125721710Y-109544367D01*
X125517373Y-109470129D01*
X124987502Y-110000000D01*
X123932498Y-110000000D01*
X123402627Y-109470129D01*
X123198290Y-109544367D01*
X123189925Y-109577349D01*
X123103061Y-109367641D01*
X122956962Y-109148987D01*
X122771013Y-108963038D01*
X122740466Y-108942627D01*
X123930129Y-108942627D01*
X124460000Y-109472498D01*
X124989871Y-108942627D01*
X124915633Y-108738290D01*
X124660731Y-108673643D01*
X124398114Y-108659968D01*
X124137876Y-108697789D01*
X124004367Y-108738290D01*
X123930129Y-108942627D01*
X122740466Y-108942627D01*
X122552359Y-108816939D01*
X122309405Y-108716304D01*
X122051486Y-108665000D01*
X121788514Y-108665000D01*
X121530595Y-108716304D01*
X121287641Y-108816939D01*
X121068987Y-108963038D01*
X120883038Y-109148987D01*
X120736939Y-109367641D01*
X120650000Y-109577530D01*
X120563061Y-109367641D01*
X120416962Y-109148987D01*
X120231013Y-108963038D01*
X120012359Y-108816939D01*
X119769405Y-108716304D01*
X119511486Y-108665000D01*
X119248514Y-108665000D01*
X118990595Y-108716304D01*
X118747641Y-108816939D01*
X118528987Y-108963038D01*
X118343038Y-109148987D01*
X118196939Y-109367641D01*
X118110000Y-109577530D01*
X118023061Y-109367641D01*
X117876962Y-109148987D01*
X117691013Y-108963038D01*
X117472359Y-108816939D01*
X117229405Y-108716304D01*
X116971486Y-108665000D01*
X116708514Y-108665000D01*
X116450595Y-108716304D01*
X116207641Y-108816939D01*
X115988987Y-108963038D01*
X115803038Y-109148987D01*
X115656939Y-109367641D01*
X115570000Y-109577530D01*
X115483061Y-109367641D01*
X115336962Y-109148987D01*
X115151013Y-108963038D01*
X114932359Y-108816939D01*
X114689405Y-108716304D01*
X114431486Y-108665000D01*
X114168514Y-108665000D01*
X113910595Y-108716304D01*
X113667641Y-108816939D01*
X113448987Y-108963038D01*
X113263038Y-109148987D01*
X113116939Y-109367641D01*
X113030000Y-109577530D01*
X112943061Y-109367641D01*
X112796962Y-109148987D01*
X112611013Y-108963038D01*
X112392359Y-108816939D01*
X112149405Y-108716304D01*
X111891486Y-108665000D01*
X111628514Y-108665000D01*
X111370595Y-108716304D01*
X111127641Y-108816939D01*
X110908987Y-108963038D01*
X110723038Y-109148987D01*
X110576939Y-109367641D01*
X110490000Y-109577530D01*
X110403061Y-109367641D01*
X110256962Y-109148987D01*
X110071013Y-108963038D01*
X109852359Y-108816939D01*
X109609405Y-108716304D01*
X109351486Y-108665000D01*
X109088514Y-108665000D01*
X108830595Y-108716304D01*
X108587641Y-108816939D01*
X108368987Y-108963038D01*
X108183038Y-109148987D01*
X108036939Y-109367641D01*
X107950000Y-109577530D01*
X107863061Y-109367641D01*
X107716962Y-109148987D01*
X107531013Y-108963038D01*
X107312359Y-108816939D01*
X107069405Y-108716304D01*
X106811486Y-108665000D01*
X106548514Y-108665000D01*
X106290595Y-108716304D01*
X106047641Y-108816939D01*
X105828987Y-108963038D01*
X105643038Y-109148987D01*
X105496939Y-109367641D01*
X105410000Y-109577530D01*
X105323061Y-109367641D01*
X105176962Y-109148987D01*
X104991013Y-108963038D01*
X104772359Y-108816939D01*
X104529405Y-108716304D01*
X104271486Y-108665000D01*
X104008514Y-108665000D01*
X103750595Y-108716304D01*
X103507641Y-108816939D01*
X103288987Y-108963038D01*
X103103038Y-109148987D01*
X102956939Y-109367641D01*
X102870000Y-109577530D01*
X102783061Y-109367641D01*
X102636962Y-109148987D01*
X102451013Y-108963038D01*
X102232359Y-108816939D01*
X101989405Y-108716304D01*
X101731486Y-108665000D01*
X101468514Y-108665000D01*
X101210595Y-108716304D01*
X100967641Y-108816939D01*
X100748987Y-108963038D01*
X100563038Y-109148987D01*
X100416939Y-109367641D01*
X100316304Y-109610595D01*
X100265000Y-109868514D01*
X93102455Y-109868514D01*
X93215000Y-109302715D01*
X93215000Y-108547285D01*
X145545000Y-108547285D01*
X145545000Y-109302715D01*
X145692377Y-110043628D01*
X145981467Y-110741554D01*
X146401161Y-111369670D01*
X146935330Y-111903839D01*
X147563446Y-112323533D01*
X148261372Y-112612623D01*
X149002285Y-112760000D01*
X149757715Y-112760000D01*
X150498628Y-112612623D01*
X151196554Y-112323533D01*
X151824670Y-111903839D01*
X152358839Y-111369670D01*
X152778533Y-110741554D01*
X153067623Y-110043628D01*
X153215000Y-109302715D01*
X153215000Y-108547285D01*
X153067623Y-107806372D01*
X152778533Y-107108446D01*
X152358839Y-106480330D01*
X151824670Y-105946161D01*
X151196554Y-105526467D01*
X150498628Y-105237377D01*
X149757715Y-105090000D01*
X149002285Y-105090000D01*
X148261372Y-105237377D01*
X147563446Y-105526467D01*
X146935330Y-105946161D01*
X146401161Y-106480330D01*
X145981467Y-107108446D01*
X145692377Y-107806372D01*
X145545000Y-108547285D01*
X93215000Y-108547285D01*
X93067623Y-107806372D01*
X92778533Y-107108446D01*
X92358839Y-106480330D01*
X91824670Y-105946161D01*
X91196554Y-105526467D01*
X90498628Y-105237377D01*
X89757715Y-105090000D01*
X89002285Y-105090000D01*
X88261372Y-105237377D01*
X87563446Y-105526467D01*
X86935330Y-105946161D01*
X86401161Y-106480330D01*
X85981467Y-107108446D01*
X85692377Y-107806372D01*
X85545000Y-108547285D01*
X85040000Y-108547285D01*
X85040000Y-105957279D01*
X85068625Y-105665341D01*
X85144035Y-105415571D01*
X85266522Y-105185208D01*
X85431422Y-104983020D01*
X85632450Y-104816714D01*
X85861954Y-104692622D01*
X86111195Y-104615469D01*
X86401088Y-104585000D01*
X95389893Y-104585000D01*
X95366525Y-104608368D01*
G37*
%TD.AperFunction*%
%TD*%
M02*
