%TF.GenerationSoftware,KiCad,Pcbnew,(5.1.9)-1*%
%TF.CreationDate,2021-03-28T20:40:14+02:00*%
%TF.ProjectId,ESP32_Tasmota_Fan,45535033-325f-4546-9173-6d6f74615f46,rev?*%
%TF.SameCoordinates,Original*%
%TF.FileFunction,Copper,L1,Top*%
%TF.FilePolarity,Positive*%
%FSLAX46Y46*%
G04 Gerber Fmt 4.6, Leading zero omitted, Abs format (unit mm)*
G04 Created by KiCad (PCBNEW (5.1.9)-1) date 2021-03-28 20:40:14*
%MOMM*%
%LPD*%
G01*
G04 APERTURE LIST*
%TA.AperFunction,ComponentPad*%
%ADD10C,0.800000*%
%TD*%
%TA.AperFunction,ComponentPad*%
%ADD11C,6.400000*%
%TD*%
%TA.AperFunction,ComponentPad*%
%ADD12C,3.750000*%
%TD*%
%TA.AperFunction,ComponentPad*%
%ADD13C,4.000000*%
%TD*%
%TA.AperFunction,ComponentPad*%
%ADD14O,1.700000X1.700000*%
%TD*%
%TA.AperFunction,ComponentPad*%
%ADD15C,1.700000*%
%TD*%
%TA.AperFunction,ComponentPad*%
%ADD16C,1.800000*%
%TD*%
%TA.AperFunction,ComponentPad*%
%ADD17R,1.800000X1.800000*%
%TD*%
%TA.AperFunction,ComponentPad*%
%ADD18C,1.400000*%
%TD*%
%TA.AperFunction,ComponentPad*%
%ADD19O,1.730000X2.030000*%
%TD*%
%TA.AperFunction,ComponentPad*%
%ADD20R,1.730000X2.030000*%
%TD*%
%TA.AperFunction,Conductor*%
%ADD21C,0.300000*%
%TD*%
%TA.AperFunction,Conductor*%
%ADD22C,1.500000*%
%TD*%
%TA.AperFunction,Conductor*%
%ADD23C,0.254000*%
%TD*%
%TA.AperFunction,Conductor*%
%ADD24C,0.100000*%
%TD*%
G04 APERTURE END LIST*
D10*
%TO.P,H4,1*%
%TO.N,N/C*%
X91077056Y-142227944D03*
X89380000Y-141525000D03*
X87682944Y-142227944D03*
X86980000Y-143925000D03*
X87682944Y-145622056D03*
X89380000Y-146325000D03*
X91077056Y-145622056D03*
X91780000Y-143925000D03*
D11*
X89380000Y-143925000D03*
%TD*%
D10*
%TO.P,H3,1*%
%TO.N,N/C*%
X151077056Y-142227944D03*
X149380000Y-141525000D03*
X147682944Y-142227944D03*
X146980000Y-143925000D03*
X147682944Y-145622056D03*
X149380000Y-146325000D03*
X151077056Y-145622056D03*
X151780000Y-143925000D03*
D11*
X149380000Y-143925000D03*
%TD*%
D10*
%TO.P,H2,1*%
%TO.N,N/C*%
X151077056Y-107227944D03*
X149380000Y-106525000D03*
X147682944Y-107227944D03*
X146980000Y-108925000D03*
X147682944Y-110622056D03*
X149380000Y-111325000D03*
X151077056Y-110622056D03*
X151780000Y-108925000D03*
D11*
X149380000Y-108925000D03*
%TD*%
D10*
%TO.P,H1,1*%
%TO.N,N/C*%
X91077056Y-107227944D03*
X89380000Y-106525000D03*
X87682944Y-107227944D03*
X86980000Y-108925000D03*
X87682944Y-110622056D03*
X89380000Y-111325000D03*
X91077056Y-110622056D03*
X91780000Y-108925000D03*
D11*
X89380000Y-108925000D03*
%TD*%
D12*
%TO.P,J6,2*%
%TO.N,GND*%
X147780000Y-128795000D03*
D13*
X150780000Y-133495000D03*
D12*
%TO.P,J6,1*%
%TO.N,+12V*%
X144780000Y-133495000D03*
%TD*%
D14*
%TO.P,J1,4*%
%TO.N,+3V3*%
X134620000Y-124605000D03*
%TO.P,J1,3*%
%TO.N,GND*%
X134620000Y-122065000D03*
%TO.P,J1,2*%
%TO.N,+12V*%
X134620000Y-119525000D03*
D15*
%TO.P,J1,1*%
%TO.N,Net-(J1-Pad1)*%
X134620000Y-116985000D03*
%TD*%
D14*
%TO.P,J2,6*%
%TO.N,IO26*%
X129540000Y-106190000D03*
%TO.P,J2,5*%
%TO.N,IO35*%
X132080000Y-106190000D03*
%TO.P,J2,4*%
%TO.N,IO18*%
X134620000Y-106190000D03*
%TO.P,J2,3*%
%TO.N,IO19*%
X137160000Y-106190000D03*
%TO.P,J2,2*%
%TO.N,GND*%
X139700000Y-106190000D03*
D15*
%TO.P,J2,1*%
%TO.N,+3V3*%
X142240000Y-106190000D03*
%TD*%
D14*
%TO.P,J8,6*%
%TO.N,Net-(J8-Pad6)*%
X109220000Y-105555000D03*
%TO.P,J8,5*%
%TO.N,Net-(J8-Pad5)*%
X106680000Y-105555000D03*
%TO.P,J8,4*%
%TO.N,SDA*%
X104140000Y-105555000D03*
%TO.P,J8,3*%
%TO.N,SCL*%
X101600000Y-105555000D03*
%TO.P,J8,2*%
%TO.N,GND*%
X99060000Y-105555000D03*
D15*
%TO.P,J8,1*%
%TO.N,+3V3*%
X96520000Y-105555000D03*
%TD*%
D16*
%TO.P,D1,2*%
%TO.N,Net-(D1-Pad2)*%
X118110000Y-106190000D03*
D17*
%TO.P,D1,1*%
%TO.N,GND*%
X120650000Y-106190000D03*
%TD*%
D18*
%TO.P,U1,2*%
%TO.N,Net-(U1-Pad2)*%
X124460000Y-112540000D03*
%TO.P,U1,1*%
%TO.N,GND*%
X124460000Y-110000000D03*
%TO.P,U1,3*%
%TO.N,Net-(U1-Pad3)*%
X121920000Y-110000000D03*
%TO.P,U1,4*%
%TO.N,Net-(U1-Pad4)*%
X121920000Y-112540000D03*
%TO.P,U1,5*%
%TO.N,Net-(U1-Pad5)*%
X119380000Y-110000000D03*
%TO.P,U1,6*%
%TO.N,IO26*%
X119380000Y-112540000D03*
%TO.P,U1,7*%
%TO.N,IO35*%
X116840000Y-110000000D03*
%TO.P,U1,8*%
%TO.N,IO18*%
X116840000Y-112540000D03*
%TO.P,U1,9*%
%TO.N,LINK*%
X114300000Y-110000000D03*
%TO.P,U1,10*%
%TO.N,IO19*%
X114300000Y-112540000D03*
%TO.P,U1,11*%
%TO.N,SDA*%
X111760000Y-110000000D03*
%TO.P,U1,12*%
%TO.N,SCL*%
X111760000Y-112540000D03*
%TO.P,U1,13*%
%TO.N,Net-(U1-Pad13)*%
X109220000Y-110000000D03*
%TO.P,U1,14*%
%TO.N,Net-(U1-Pad14)*%
X109220000Y-112540000D03*
%TO.P,U1,15*%
%TO.N,Net-(U1-Pad15)*%
X106680000Y-110000000D03*
%TO.P,U1,16*%
%TO.N,+3V3*%
X106680000Y-112540000D03*
%TO.P,U1,17*%
%TO.N,Net-(U1-Pad17)*%
X104140000Y-110000000D03*
%TO.P,U1,18*%
%TO.N,Net-(U1-Pad18)*%
X104140000Y-112540000D03*
%TO.P,U1,19*%
%TO.N,Net-(U1-Pad19)*%
X101600000Y-110000000D03*
%TO.P,U1,20*%
%TO.N,Net-(U1-Pad20)*%
X101600000Y-112540000D03*
%TO.P,U1,21*%
%TO.N,Net-(U1-Pad21)*%
X124460000Y-135400000D03*
%TO.P,U1,22*%
%TO.N,GND*%
X124460000Y-137940000D03*
%TO.P,U1,23*%
%TO.N,Net-(U1-Pad23)*%
X121920000Y-135400000D03*
%TO.P,U1,24*%
%TO.N,Net-(U1-Pad24)*%
X121920000Y-137940000D03*
%TO.P,U1,25*%
%TO.N,Net-(U1-Pad25)*%
X119380000Y-135400000D03*
%TO.P,U1,26*%
%TO.N,SENSE4*%
X119380000Y-137940000D03*
%TO.P,U1,27*%
%TO.N,SENSE3*%
X116840000Y-135400000D03*
%TO.P,U1,28*%
%TO.N,PWM4*%
X116840000Y-137940000D03*
%TO.P,U1,29*%
%TO.N,Net-(U1-Pad29)*%
X114300000Y-135400000D03*
%TO.P,U1,30*%
%TO.N,PWM3*%
X114300000Y-137940000D03*
%TO.P,U1,31*%
%TO.N,PWM2*%
X111760000Y-135400000D03*
%TO.P,U1,32*%
%TO.N,SENSE2*%
X111760000Y-137940000D03*
%TO.P,U1,33*%
%TO.N,GND*%
X109220000Y-135400000D03*
%TO.P,U1,34*%
%TO.N,SENSE1*%
X109220000Y-137940000D03*
%TO.P,U1,35*%
%TO.N,Net-(U1-Pad35)*%
X106680000Y-135400000D03*
%TO.P,U1,36*%
%TO.N,PWM1*%
X106680000Y-137940000D03*
%TO.P,U1,37*%
%TO.N,Net-(U1-Pad37)*%
X104140000Y-135400000D03*
%TO.P,U1,38*%
%TO.N,Net-(U1-Pad38)*%
X104140000Y-137940000D03*
%TO.P,U1,39*%
%TO.N,Net-(U1-Pad39)*%
X101600000Y-135400000D03*
%TO.P,U1,40*%
%TO.N,Net-(U1-Pad40)*%
X101600000Y-137940000D03*
%TD*%
%TO.P,R1,2*%
%TO.N,SENSE1*%
%TA.AperFunction,SMDPad,CuDef*%
G36*
G01*
X107499998Y-131905000D02*
X108400002Y-131905000D01*
G75*
G02*
X108650000Y-132154998I0J-249998D01*
G01*
X108650000Y-132680002D01*
G75*
G02*
X108400002Y-132930000I-249998J0D01*
G01*
X107499998Y-132930000D01*
G75*
G02*
X107250000Y-132680002I0J249998D01*
G01*
X107250000Y-132154998D01*
G75*
G02*
X107499998Y-131905000I249998J0D01*
G01*
G37*
%TD.AperFunction*%
%TO.P,R1,1*%
%TO.N,+3V3*%
%TA.AperFunction,SMDPad,CuDef*%
G36*
G01*
X107499998Y-130080000D02*
X108400002Y-130080000D01*
G75*
G02*
X108650000Y-130329998I0J-249998D01*
G01*
X108650000Y-130855002D01*
G75*
G02*
X108400002Y-131105000I-249998J0D01*
G01*
X107499998Y-131105000D01*
G75*
G02*
X107250000Y-130855002I0J249998D01*
G01*
X107250000Y-130329998D01*
G75*
G02*
X107499998Y-130080000I249998J0D01*
G01*
G37*
%TD.AperFunction*%
%TD*%
%TO.P,R5,2*%
%TO.N,Net-(D1-Pad2)*%
%TA.AperFunction,SMDPad,CuDef*%
G36*
G01*
X114700000Y-106640002D02*
X114700000Y-105739998D01*
G75*
G02*
X114949998Y-105490000I249998J0D01*
G01*
X115475002Y-105490000D01*
G75*
G02*
X115725000Y-105739998I0J-249998D01*
G01*
X115725000Y-106640002D01*
G75*
G02*
X115475002Y-106890000I-249998J0D01*
G01*
X114949998Y-106890000D01*
G75*
G02*
X114700000Y-106640002I0J249998D01*
G01*
G37*
%TD.AperFunction*%
%TO.P,R5,1*%
%TO.N,LINK*%
%TA.AperFunction,SMDPad,CuDef*%
G36*
G01*
X112875000Y-106640002D02*
X112875000Y-105739998D01*
G75*
G02*
X113124998Y-105490000I249998J0D01*
G01*
X113650002Y-105490000D01*
G75*
G02*
X113900000Y-105739998I0J-249998D01*
G01*
X113900000Y-106640002D01*
G75*
G02*
X113650002Y-106890000I-249998J0D01*
G01*
X113124998Y-106890000D01*
G75*
G02*
X112875000Y-106640002I0J249998D01*
G01*
G37*
%TD.AperFunction*%
%TD*%
D19*
%TO.P,FAN4,4*%
%TO.N,PWM4*%
X134620000Y-144925000D03*
%TO.P,FAN4,3*%
%TO.N,SENSE4*%
X137160000Y-144925000D03*
%TO.P,FAN4,2*%
%TO.N,+12V*%
X139700000Y-144925000D03*
D20*
%TO.P,FAN4,1*%
%TO.N,GND*%
X142240000Y-144925000D03*
%TD*%
D19*
%TO.P,FAN3,4*%
%TO.N,PWM3*%
X121920000Y-144925000D03*
%TO.P,FAN3,3*%
%TO.N,SENSE3*%
X124460000Y-144925000D03*
%TO.P,FAN3,2*%
%TO.N,+12V*%
X127000000Y-144925000D03*
D20*
%TO.P,FAN3,1*%
%TO.N,GND*%
X129540000Y-144925000D03*
%TD*%
D19*
%TO.P,FAN2,4*%
%TO.N,PWM2*%
X109220000Y-144925000D03*
%TO.P,FAN2,3*%
%TO.N,SENSE2*%
X111760000Y-144925000D03*
%TO.P,FAN2,2*%
%TO.N,+12V*%
X114300000Y-144925000D03*
D20*
%TO.P,FAN2,1*%
%TO.N,GND*%
X116840000Y-144925000D03*
%TD*%
D19*
%TO.P,FAN1,4*%
%TO.N,PWM1*%
X96520000Y-144925000D03*
%TO.P,FAN1,3*%
%TO.N,SENSE1*%
X99060000Y-144925000D03*
%TO.P,FAN1,2*%
%TO.N,+12V*%
X101600000Y-144925000D03*
D20*
%TO.P,FAN1,1*%
%TO.N,GND*%
X104140000Y-144925000D03*
%TD*%
%TO.P,R2,2*%
%TO.N,SENSE2*%
%TA.AperFunction,SMDPad,CuDef*%
G36*
G01*
X112579998Y-131905000D02*
X113480002Y-131905000D01*
G75*
G02*
X113730000Y-132154998I0J-249998D01*
G01*
X113730000Y-132680002D01*
G75*
G02*
X113480002Y-132930000I-249998J0D01*
G01*
X112579998Y-132930000D01*
G75*
G02*
X112330000Y-132680002I0J249998D01*
G01*
X112330000Y-132154998D01*
G75*
G02*
X112579998Y-131905000I249998J0D01*
G01*
G37*
%TD.AperFunction*%
%TO.P,R2,1*%
%TO.N,+3V3*%
%TA.AperFunction,SMDPad,CuDef*%
G36*
G01*
X112579998Y-130080000D02*
X113480002Y-130080000D01*
G75*
G02*
X113730000Y-130329998I0J-249998D01*
G01*
X113730000Y-130855002D01*
G75*
G02*
X113480002Y-131105000I-249998J0D01*
G01*
X112579998Y-131105000D01*
G75*
G02*
X112330000Y-130855002I0J249998D01*
G01*
X112330000Y-130329998D01*
G75*
G02*
X112579998Y-130080000I249998J0D01*
G01*
G37*
%TD.AperFunction*%
%TD*%
%TO.P,R4,2*%
%TO.N,SENSE4*%
%TA.AperFunction,SMDPad,CuDef*%
G36*
G01*
X117659998Y-131905000D02*
X118560002Y-131905000D01*
G75*
G02*
X118810000Y-132154998I0J-249998D01*
G01*
X118810000Y-132680002D01*
G75*
G02*
X118560002Y-132930000I-249998J0D01*
G01*
X117659998Y-132930000D01*
G75*
G02*
X117410000Y-132680002I0J249998D01*
G01*
X117410000Y-132154998D01*
G75*
G02*
X117659998Y-131905000I249998J0D01*
G01*
G37*
%TD.AperFunction*%
%TO.P,R4,1*%
%TO.N,+3V3*%
%TA.AperFunction,SMDPad,CuDef*%
G36*
G01*
X117659998Y-130080000D02*
X118560002Y-130080000D01*
G75*
G02*
X118810000Y-130329998I0J-249998D01*
G01*
X118810000Y-130855002D01*
G75*
G02*
X118560002Y-131105000I-249998J0D01*
G01*
X117659998Y-131105000D01*
G75*
G02*
X117410000Y-130855002I0J249998D01*
G01*
X117410000Y-130329998D01*
G75*
G02*
X117659998Y-130080000I249998J0D01*
G01*
G37*
%TD.AperFunction*%
%TD*%
%TO.P,R3,2*%
%TO.N,SENSE3*%
%TA.AperFunction,SMDPad,CuDef*%
G36*
G01*
X115119998Y-131905000D02*
X116020002Y-131905000D01*
G75*
G02*
X116270000Y-132154998I0J-249998D01*
G01*
X116270000Y-132680002D01*
G75*
G02*
X116020002Y-132930000I-249998J0D01*
G01*
X115119998Y-132930000D01*
G75*
G02*
X114870000Y-132680002I0J249998D01*
G01*
X114870000Y-132154998D01*
G75*
G02*
X115119998Y-131905000I249998J0D01*
G01*
G37*
%TD.AperFunction*%
%TO.P,R3,1*%
%TO.N,+3V3*%
%TA.AperFunction,SMDPad,CuDef*%
G36*
G01*
X115119998Y-130080000D02*
X116020002Y-130080000D01*
G75*
G02*
X116270000Y-130329998I0J-249998D01*
G01*
X116270000Y-130855002D01*
G75*
G02*
X116020002Y-131105000I-249998J0D01*
G01*
X115119998Y-131105000D01*
G75*
G02*
X114870000Y-130855002I0J249998D01*
G01*
X114870000Y-130329998D01*
G75*
G02*
X115119998Y-130080000I249998J0D01*
G01*
G37*
%TD.AperFunction*%
%TD*%
D21*
%TO.N,PWM1*%
X106680000Y-137940000D02*
X106680000Y-140480000D01*
X106680000Y-140480000D02*
X106045000Y-141115000D01*
X106045000Y-141115000D02*
X97155000Y-141115000D01*
X96520000Y-141750000D02*
X96520000Y-144925000D01*
X97155000Y-141115000D02*
X96520000Y-141750000D01*
%TO.N,SENSE1*%
X109220000Y-137940000D02*
X107950000Y-136670000D01*
X107950000Y-136670000D02*
X107950000Y-132417500D01*
X109220000Y-137940000D02*
X109220000Y-141115000D01*
X109220000Y-141115000D02*
X108585000Y-141750000D01*
X108585000Y-141750000D02*
X99695000Y-141750000D01*
X99060000Y-142385000D02*
X99060000Y-144925000D01*
X99695000Y-141750000D02*
X99060000Y-142385000D01*
D22*
%TO.N,+12V*%
X139700000Y-138575000D02*
X139700000Y-144925000D01*
X144780000Y-133495000D02*
X139700000Y-138575000D01*
X144780000Y-133495000D02*
X139700000Y-128415000D01*
X139700000Y-128415000D02*
X139700000Y-120795000D01*
X138430000Y-119525000D02*
X134620000Y-119525000D01*
X139700000Y-120795000D02*
X138430000Y-119525000D01*
D21*
%TO.N,PWM2*%
X111760000Y-135400000D02*
X110490000Y-136670000D01*
X110490000Y-136670000D02*
X110490000Y-141115000D01*
X110490000Y-141115000D02*
X109220000Y-142385000D01*
X109220000Y-142385000D02*
X109220000Y-144925000D01*
%TO.N,SENSE2*%
X111760000Y-137940000D02*
X111760000Y-144925000D01*
X111760000Y-137940000D02*
X113030000Y-136670000D01*
X113030000Y-136670000D02*
X113030000Y-132417500D01*
%TO.N,PWM3*%
X114300000Y-137940000D02*
X114300000Y-141115000D01*
X114300000Y-141115000D02*
X114935000Y-141750000D01*
X114935000Y-141750000D02*
X121285000Y-141750000D01*
X121920000Y-142385000D02*
X121920000Y-144925000D01*
X121285000Y-141750000D02*
X121920000Y-142385000D01*
%TO.N,SENSE3*%
X116840000Y-135400000D02*
X115570000Y-134130000D01*
X115570000Y-134130000D02*
X115570000Y-132417500D01*
X124460000Y-141750000D02*
X124460000Y-144925000D01*
X123825000Y-141115000D02*
X124460000Y-141750000D01*
X116205000Y-141115000D02*
X123825000Y-141115000D01*
X115570000Y-140480000D02*
X116205000Y-141115000D01*
X115570000Y-136670000D02*
X115570000Y-140480000D01*
X116840000Y-135400000D02*
X115570000Y-136670000D01*
%TO.N,PWM4*%
X116840000Y-137940000D02*
X116840000Y-139845000D01*
X116840000Y-139845000D02*
X117475000Y-140480000D01*
X117475000Y-140480000D02*
X133985000Y-140480000D01*
X134620000Y-141115000D02*
X134620000Y-144925000D01*
X133985000Y-140480000D02*
X134620000Y-141115000D01*
%TO.N,SENSE4*%
X119380000Y-137940000D02*
X118110000Y-136670000D01*
X118110000Y-136670000D02*
X118110000Y-132417500D01*
X137160000Y-140480000D02*
X137160000Y-144925000D01*
X136525000Y-139845000D02*
X137160000Y-140480000D01*
X120015000Y-139845000D02*
X136525000Y-139845000D01*
X119380000Y-139210000D02*
X120015000Y-139845000D01*
X119380000Y-137940000D02*
X119380000Y-139210000D01*
%TO.N,SDA*%
X111760000Y-108730000D02*
X111760000Y-110000000D01*
X110490000Y-107460000D02*
X111760000Y-108730000D01*
X106045000Y-107460000D02*
X110490000Y-107460000D01*
X104140000Y-105555000D02*
X106045000Y-107460000D01*
%TO.N,SCL*%
X101600000Y-105555000D02*
X104140000Y-108095000D01*
X104140000Y-108095000D02*
X109855000Y-108095000D01*
X109855000Y-108095000D02*
X110490000Y-108730000D01*
X110490000Y-111270000D02*
X111760000Y-112540000D01*
X110490000Y-108730000D02*
X110490000Y-111270000D01*
%TO.N,IO26*%
X129540000Y-113810000D02*
X129540000Y-106190000D01*
X128905000Y-114445000D02*
X129540000Y-113810000D01*
X120015000Y-114445000D02*
X128905000Y-114445000D01*
X119380000Y-113810000D02*
X120015000Y-114445000D01*
X119380000Y-112540000D02*
X119380000Y-113810000D01*
%TO.N,IO18*%
X134620000Y-106190000D02*
X134620000Y-111270000D01*
X134620000Y-111270000D02*
X130175000Y-115715000D01*
X119025051Y-115715000D02*
X130175000Y-115715000D01*
X116840000Y-113529949D02*
X119025051Y-115715000D01*
X116840000Y-112540000D02*
X116840000Y-113529949D01*
%TO.N,Net-(D1-Pad2)*%
X115212500Y-106190000D02*
X118110000Y-106190000D01*
%TO.N,LINK*%
X113387500Y-106190000D02*
X113387500Y-107817500D01*
X114300000Y-108730000D02*
X114300000Y-110000000D01*
X113387500Y-107817500D02*
X114300000Y-108730000D01*
%TO.N,IO19*%
X137160000Y-110000000D02*
X130810000Y-116350000D01*
X137160000Y-106190000D02*
X137160000Y-110000000D01*
X118110000Y-116350000D02*
X130810000Y-116350000D01*
X114300000Y-112540000D02*
X118110000Y-116350000D01*
%TO.N,IO35*%
X132080000Y-106190000D02*
X132080000Y-112540000D01*
X132080000Y-112540000D02*
X129540000Y-115080000D01*
X118110000Y-111270000D02*
X116840000Y-110000000D01*
X118110000Y-111270000D02*
X118110000Y-113810000D01*
X119380000Y-115080000D02*
X129540000Y-115080000D01*
X118110000Y-113810000D02*
X119380000Y-115080000D01*
%TD*%
D23*
%TO.N,+3V3*%
X95375496Y-104590104D02*
X95491601Y-104706209D01*
X95242528Y-104783843D01*
X95116629Y-105047883D01*
X95044661Y-105331411D01*
X95029389Y-105623531D01*
X95071401Y-105913019D01*
X95169081Y-106188747D01*
X95242528Y-106326157D01*
X95491603Y-106403792D01*
X96340395Y-105555000D01*
X96326253Y-105540858D01*
X96505858Y-105361253D01*
X96520000Y-105375395D01*
X96534143Y-105361253D01*
X96713748Y-105540858D01*
X96699605Y-105555000D01*
X97548397Y-106403792D01*
X97790689Y-106328271D01*
X97906525Y-106501632D01*
X98113368Y-106708475D01*
X98356589Y-106870990D01*
X98626842Y-106982932D01*
X98913740Y-107040000D01*
X99206260Y-107040000D01*
X99493158Y-106982932D01*
X99763411Y-106870990D01*
X100006632Y-106708475D01*
X100213475Y-106501632D01*
X100330000Y-106327240D01*
X100446525Y-106501632D01*
X100653368Y-106708475D01*
X100896589Y-106870990D01*
X101166842Y-106982932D01*
X101453740Y-107040000D01*
X101746260Y-107040000D01*
X101936918Y-107002075D01*
X103557658Y-108622816D01*
X103582236Y-108652764D01*
X103612184Y-108677342D01*
X103612187Y-108677345D01*
X103629361Y-108691439D01*
X103690161Y-108741337D01*
X103507641Y-108816939D01*
X103288987Y-108963038D01*
X103103038Y-109148987D01*
X102956939Y-109367641D01*
X102870000Y-109577530D01*
X102783061Y-109367641D01*
X102636962Y-109148987D01*
X102451013Y-108963038D01*
X102232359Y-108816939D01*
X101989405Y-108716304D01*
X101731486Y-108665000D01*
X101468514Y-108665000D01*
X101210595Y-108716304D01*
X100967641Y-108816939D01*
X100748987Y-108963038D01*
X100563038Y-109148987D01*
X100416939Y-109367641D01*
X100316304Y-109610595D01*
X100265000Y-109868514D01*
X100265000Y-110131486D01*
X100316304Y-110389405D01*
X100416939Y-110632359D01*
X100563038Y-110851013D01*
X100748987Y-111036962D01*
X100967641Y-111183061D01*
X101177530Y-111270000D01*
X100967641Y-111356939D01*
X100748987Y-111503038D01*
X100563038Y-111688987D01*
X100416939Y-111907641D01*
X100316304Y-112150595D01*
X100265000Y-112408514D01*
X100265000Y-112671486D01*
X100316304Y-112929405D01*
X100416939Y-113172359D01*
X100563038Y-113391013D01*
X100748987Y-113576962D01*
X100967641Y-113723061D01*
X101210595Y-113823696D01*
X101468514Y-113875000D01*
X101731486Y-113875000D01*
X101989405Y-113823696D01*
X102232359Y-113723061D01*
X102451013Y-113576962D01*
X102636962Y-113391013D01*
X102783061Y-113172359D01*
X102870000Y-112962470D01*
X102956939Y-113172359D01*
X103103038Y-113391013D01*
X103288987Y-113576962D01*
X103507641Y-113723061D01*
X103750595Y-113823696D01*
X104008514Y-113875000D01*
X104271486Y-113875000D01*
X104529405Y-113823696D01*
X104772359Y-113723061D01*
X104991013Y-113576962D01*
X105106706Y-113461269D01*
X105938336Y-113461269D01*
X105997797Y-113695037D01*
X106236242Y-113805934D01*
X106491740Y-113868183D01*
X106754473Y-113879390D01*
X107014344Y-113839125D01*
X107261366Y-113748935D01*
X107362203Y-113695037D01*
X107421664Y-113461269D01*
X106680000Y-112719605D01*
X105938336Y-113461269D01*
X105106706Y-113461269D01*
X105176962Y-113391013D01*
X105323061Y-113172359D01*
X105411621Y-112958556D01*
X105471065Y-113121366D01*
X105524963Y-113222203D01*
X105758731Y-113281664D01*
X106500395Y-112540000D01*
X105758731Y-111798336D01*
X105524963Y-111857797D01*
X105414066Y-112096242D01*
X105409294Y-112115827D01*
X105323061Y-111907641D01*
X105176962Y-111688987D01*
X104991013Y-111503038D01*
X104772359Y-111356939D01*
X104562470Y-111270000D01*
X104772359Y-111183061D01*
X104991013Y-111036962D01*
X105176962Y-110851013D01*
X105323061Y-110632359D01*
X105410000Y-110422470D01*
X105496939Y-110632359D01*
X105643038Y-110851013D01*
X105828987Y-111036962D01*
X106047641Y-111183061D01*
X106261444Y-111271621D01*
X106098634Y-111331065D01*
X105997797Y-111384963D01*
X105938336Y-111618731D01*
X106680000Y-112360395D01*
X107421664Y-111618731D01*
X107362203Y-111384963D01*
X107123758Y-111274066D01*
X107104173Y-111269294D01*
X107312359Y-111183061D01*
X107531013Y-111036962D01*
X107716962Y-110851013D01*
X107863061Y-110632359D01*
X107950000Y-110422470D01*
X108036939Y-110632359D01*
X108183038Y-110851013D01*
X108368987Y-111036962D01*
X108587641Y-111183061D01*
X108797530Y-111270000D01*
X108587641Y-111356939D01*
X108368987Y-111503038D01*
X108183038Y-111688987D01*
X108036939Y-111907641D01*
X107948379Y-112121444D01*
X107888935Y-111958634D01*
X107835037Y-111857797D01*
X107601269Y-111798336D01*
X106859605Y-112540000D01*
X107601269Y-113281664D01*
X107835037Y-113222203D01*
X107945934Y-112983758D01*
X107950706Y-112964173D01*
X108036939Y-113172359D01*
X108183038Y-113391013D01*
X108368987Y-113576962D01*
X108587641Y-113723061D01*
X108830595Y-113823696D01*
X109088514Y-113875000D01*
X109351486Y-113875000D01*
X109609405Y-113823696D01*
X109852359Y-113723061D01*
X110071013Y-113576962D01*
X110256962Y-113391013D01*
X110403061Y-113172359D01*
X110490000Y-112962470D01*
X110576939Y-113172359D01*
X110723038Y-113391013D01*
X110908987Y-113576962D01*
X111127641Y-113723061D01*
X111370595Y-113823696D01*
X111628514Y-113875000D01*
X111891486Y-113875000D01*
X112149405Y-113823696D01*
X112392359Y-113723061D01*
X112611013Y-113576962D01*
X112796962Y-113391013D01*
X112943061Y-113172359D01*
X113030000Y-112962470D01*
X113116939Y-113172359D01*
X113263038Y-113391013D01*
X113448987Y-113576962D01*
X113667641Y-113723061D01*
X113910595Y-113823696D01*
X114168514Y-113875000D01*
X114431486Y-113875000D01*
X114509354Y-113859511D01*
X117527653Y-116877810D01*
X117552236Y-116907764D01*
X117671767Y-117005862D01*
X117808140Y-117078754D01*
X117956113Y-117123642D01*
X118031026Y-117131020D01*
X118071439Y-117135000D01*
X118071444Y-117135000D01*
X118110000Y-117138797D01*
X118148556Y-117135000D01*
X130771447Y-117135000D01*
X130810000Y-117138797D01*
X130848553Y-117135000D01*
X130848561Y-117135000D01*
X130963887Y-117123641D01*
X131111860Y-117078754D01*
X131248233Y-117005862D01*
X131367764Y-116907764D01*
X131392347Y-116877810D01*
X137687816Y-110582342D01*
X137717764Y-110557764D01*
X137742346Y-110527812D01*
X137766450Y-110498441D01*
X137815862Y-110438233D01*
X137888754Y-110301860D01*
X137933641Y-110153887D01*
X137945000Y-110038561D01*
X137945000Y-110038554D01*
X137948797Y-110000001D01*
X137945000Y-109961448D01*
X137945000Y-108547285D01*
X145545000Y-108547285D01*
X145545000Y-109302715D01*
X145692377Y-110043628D01*
X145981467Y-110741554D01*
X146401161Y-111369670D01*
X146935330Y-111903839D01*
X147563446Y-112323533D01*
X148261372Y-112612623D01*
X149002285Y-112760000D01*
X149757715Y-112760000D01*
X150498628Y-112612623D01*
X151196554Y-112323533D01*
X151824670Y-111903839D01*
X152358839Y-111369670D01*
X152778533Y-110741554D01*
X153067623Y-110043628D01*
X153215000Y-109302715D01*
X153215000Y-108547285D01*
X153067623Y-107806372D01*
X152778533Y-107108446D01*
X152358839Y-106480330D01*
X151824670Y-105946161D01*
X151196554Y-105526467D01*
X150498628Y-105237377D01*
X149757715Y-105090000D01*
X149002285Y-105090000D01*
X148261372Y-105237377D01*
X147563446Y-105526467D01*
X146935330Y-105946161D01*
X146401161Y-106480330D01*
X145981467Y-107108446D01*
X145692377Y-107806372D01*
X145545000Y-108547285D01*
X137945000Y-108547285D01*
X137945000Y-107451474D01*
X138106632Y-107343475D01*
X138313475Y-107136632D01*
X138430000Y-106962240D01*
X138546525Y-107136632D01*
X138753368Y-107343475D01*
X138996589Y-107505990D01*
X139266842Y-107617932D01*
X139553740Y-107675000D01*
X139846260Y-107675000D01*
X140133158Y-107617932D01*
X140403411Y-107505990D01*
X140646632Y-107343475D01*
X140771710Y-107218397D01*
X141391208Y-107218397D01*
X141468843Y-107467472D01*
X141732883Y-107593371D01*
X142016411Y-107665339D01*
X142308531Y-107680611D01*
X142598019Y-107638599D01*
X142873747Y-107540919D01*
X143011157Y-107467472D01*
X143088792Y-107218397D01*
X142240000Y-106369605D01*
X141391208Y-107218397D01*
X140771710Y-107218397D01*
X140853475Y-107136632D01*
X140969311Y-106963271D01*
X141211603Y-107038792D01*
X142060395Y-106190000D01*
X142419605Y-106190000D01*
X143268397Y-107038792D01*
X143517472Y-106961157D01*
X143643371Y-106697117D01*
X143715339Y-106413589D01*
X143730611Y-106121469D01*
X143688599Y-105831981D01*
X143590919Y-105556253D01*
X143517472Y-105418843D01*
X143268397Y-105341208D01*
X142419605Y-106190000D01*
X142060395Y-106190000D01*
X141211603Y-105341208D01*
X140969311Y-105416729D01*
X140853475Y-105243368D01*
X140771710Y-105161603D01*
X141391208Y-105161603D01*
X142240000Y-106010395D01*
X143088792Y-105161603D01*
X143011157Y-104912528D01*
X142747117Y-104786629D01*
X142463589Y-104714661D01*
X142171469Y-104699389D01*
X141881981Y-104741401D01*
X141606253Y-104839081D01*
X141468843Y-104912528D01*
X141391208Y-105161603D01*
X140771710Y-105161603D01*
X140646632Y-105036525D01*
X140403411Y-104874010D01*
X140133158Y-104762068D01*
X139846260Y-104705000D01*
X139553740Y-104705000D01*
X139266842Y-104762068D01*
X138996589Y-104874010D01*
X138753368Y-105036525D01*
X138546525Y-105243368D01*
X138430000Y-105417760D01*
X138313475Y-105243368D01*
X138106632Y-105036525D01*
X137863411Y-104874010D01*
X137593158Y-104762068D01*
X137306260Y-104705000D01*
X137013740Y-104705000D01*
X136726842Y-104762068D01*
X136456589Y-104874010D01*
X136213368Y-105036525D01*
X136006525Y-105243368D01*
X135890000Y-105417760D01*
X135773475Y-105243368D01*
X135566632Y-105036525D01*
X135323411Y-104874010D01*
X135053158Y-104762068D01*
X134766260Y-104705000D01*
X134473740Y-104705000D01*
X134186842Y-104762068D01*
X133916589Y-104874010D01*
X133673368Y-105036525D01*
X133466525Y-105243368D01*
X133350000Y-105417760D01*
X133233475Y-105243368D01*
X133026632Y-105036525D01*
X132783411Y-104874010D01*
X132513158Y-104762068D01*
X132226260Y-104705000D01*
X131933740Y-104705000D01*
X131646842Y-104762068D01*
X131376589Y-104874010D01*
X131133368Y-105036525D01*
X130926525Y-105243368D01*
X130810000Y-105417760D01*
X130693475Y-105243368D01*
X130486632Y-105036525D01*
X130243411Y-104874010D01*
X129973158Y-104762068D01*
X129686260Y-104705000D01*
X129393740Y-104705000D01*
X129106842Y-104762068D01*
X128836589Y-104874010D01*
X128593368Y-105036525D01*
X128386525Y-105243368D01*
X128224010Y-105486589D01*
X128112068Y-105756842D01*
X128055000Y-106043740D01*
X128055000Y-106336260D01*
X128112068Y-106623158D01*
X128224010Y-106893411D01*
X128386525Y-107136632D01*
X128593368Y-107343475D01*
X128755001Y-107451475D01*
X128755000Y-113484843D01*
X128579843Y-113660000D01*
X125186737Y-113660000D01*
X125311013Y-113576962D01*
X125496962Y-113391013D01*
X125643061Y-113172359D01*
X125743696Y-112929405D01*
X125795000Y-112671486D01*
X125795000Y-112408514D01*
X125743696Y-112150595D01*
X125643061Y-111907641D01*
X125496962Y-111688987D01*
X125311013Y-111503038D01*
X125092359Y-111356939D01*
X124882470Y-111270000D01*
X125092359Y-111183061D01*
X125311013Y-111036962D01*
X125496962Y-110851013D01*
X125643061Y-110632359D01*
X125743696Y-110389405D01*
X125795000Y-110131486D01*
X125795000Y-109868514D01*
X125743696Y-109610595D01*
X125643061Y-109367641D01*
X125496962Y-109148987D01*
X125311013Y-108963038D01*
X125092359Y-108816939D01*
X124849405Y-108716304D01*
X124591486Y-108665000D01*
X124328514Y-108665000D01*
X124070595Y-108716304D01*
X123827641Y-108816939D01*
X123608987Y-108963038D01*
X123423038Y-109148987D01*
X123276939Y-109367641D01*
X123190000Y-109577530D01*
X123103061Y-109367641D01*
X122956962Y-109148987D01*
X122771013Y-108963038D01*
X122552359Y-108816939D01*
X122309405Y-108716304D01*
X122051486Y-108665000D01*
X121788514Y-108665000D01*
X121530595Y-108716304D01*
X121287641Y-108816939D01*
X121068987Y-108963038D01*
X120883038Y-109148987D01*
X120736939Y-109367641D01*
X120650000Y-109577530D01*
X120563061Y-109367641D01*
X120416962Y-109148987D01*
X120231013Y-108963038D01*
X120012359Y-108816939D01*
X119769405Y-108716304D01*
X119511486Y-108665000D01*
X119248514Y-108665000D01*
X118990595Y-108716304D01*
X118747641Y-108816939D01*
X118528987Y-108963038D01*
X118343038Y-109148987D01*
X118196939Y-109367641D01*
X118110000Y-109577530D01*
X118023061Y-109367641D01*
X117876962Y-109148987D01*
X117691013Y-108963038D01*
X117472359Y-108816939D01*
X117229405Y-108716304D01*
X116971486Y-108665000D01*
X116708514Y-108665000D01*
X116450595Y-108716304D01*
X116207641Y-108816939D01*
X115988987Y-108963038D01*
X115803038Y-109148987D01*
X115656939Y-109367641D01*
X115570000Y-109577530D01*
X115483061Y-109367641D01*
X115336962Y-109148987D01*
X115151013Y-108963038D01*
X115085000Y-108918930D01*
X115085000Y-108768556D01*
X115088797Y-108730000D01*
X115085000Y-108691440D01*
X115085000Y-108691439D01*
X115081020Y-108651026D01*
X115073642Y-108576113D01*
X115028754Y-108428140D01*
X114955862Y-108291767D01*
X114857764Y-108172236D01*
X114827811Y-108147654D01*
X114172500Y-107492343D01*
X114172500Y-107354513D01*
X114277962Y-107267962D01*
X114300000Y-107241109D01*
X114322038Y-107267962D01*
X114456613Y-107378405D01*
X114610148Y-107460472D01*
X114776744Y-107511008D01*
X114949998Y-107528072D01*
X115475002Y-107528072D01*
X115648256Y-107511008D01*
X115814852Y-107460472D01*
X115968387Y-107378405D01*
X116102962Y-107267962D01*
X116213405Y-107133387D01*
X116295472Y-106979852D01*
X116296944Y-106975000D01*
X116788392Y-106975000D01*
X116917688Y-107168505D01*
X117131495Y-107382312D01*
X117382905Y-107550299D01*
X117662257Y-107666011D01*
X117958816Y-107725000D01*
X118261184Y-107725000D01*
X118557743Y-107666011D01*
X118837095Y-107550299D01*
X119088505Y-107382312D01*
X119154944Y-107315873D01*
X119160498Y-107334180D01*
X119219463Y-107444494D01*
X119298815Y-107541185D01*
X119395506Y-107620537D01*
X119505820Y-107679502D01*
X119625518Y-107715812D01*
X119750000Y-107728072D01*
X121550000Y-107728072D01*
X121674482Y-107715812D01*
X121794180Y-107679502D01*
X121904494Y-107620537D01*
X122001185Y-107541185D01*
X122080537Y-107444494D01*
X122139502Y-107334180D01*
X122175812Y-107214482D01*
X122188072Y-107090000D01*
X122188072Y-105290000D01*
X122175812Y-105165518D01*
X122139502Y-105045820D01*
X122080537Y-104935506D01*
X122001185Y-104838815D01*
X121904494Y-104759463D01*
X121794180Y-104700498D01*
X121674482Y-104664188D01*
X121550000Y-104651928D01*
X119750000Y-104651928D01*
X119625518Y-104664188D01*
X119505820Y-104700498D01*
X119395506Y-104759463D01*
X119298815Y-104838815D01*
X119219463Y-104935506D01*
X119160498Y-105045820D01*
X119154944Y-105064127D01*
X119088505Y-104997688D01*
X118837095Y-104829701D01*
X118557743Y-104713989D01*
X118261184Y-104655000D01*
X117958816Y-104655000D01*
X117662257Y-104713989D01*
X117382905Y-104829701D01*
X117131495Y-104997688D01*
X116917688Y-105211495D01*
X116788392Y-105405000D01*
X116296944Y-105405000D01*
X116295472Y-105400148D01*
X116213405Y-105246613D01*
X116102962Y-105112038D01*
X115968387Y-105001595D01*
X115814852Y-104919528D01*
X115648256Y-104868992D01*
X115475002Y-104851928D01*
X114949998Y-104851928D01*
X114776744Y-104868992D01*
X114610148Y-104919528D01*
X114456613Y-105001595D01*
X114322038Y-105112038D01*
X114300000Y-105138891D01*
X114277962Y-105112038D01*
X114143387Y-105001595D01*
X113989852Y-104919528D01*
X113823256Y-104868992D01*
X113650002Y-104851928D01*
X113124998Y-104851928D01*
X112951744Y-104868992D01*
X112785148Y-104919528D01*
X112631613Y-105001595D01*
X112497038Y-105112038D01*
X112386595Y-105246613D01*
X112304528Y-105400148D01*
X112253992Y-105566744D01*
X112236928Y-105739998D01*
X112236928Y-106640002D01*
X112253992Y-106813256D01*
X112304528Y-106979852D01*
X112386595Y-107133387D01*
X112497038Y-107267962D01*
X112602501Y-107354513D01*
X112602501Y-107778938D01*
X112598703Y-107817500D01*
X112613859Y-107971386D01*
X112658746Y-108119359D01*
X112658747Y-108119360D01*
X112731639Y-108255733D01*
X112739430Y-108265226D01*
X112805155Y-108345312D01*
X112805159Y-108345316D01*
X112829737Y-108375264D01*
X112859685Y-108399842D01*
X113435934Y-108976091D01*
X113263038Y-109148987D01*
X113116939Y-109367641D01*
X113030000Y-109577530D01*
X112943061Y-109367641D01*
X112796962Y-109148987D01*
X112611013Y-108963038D01*
X112545000Y-108918930D01*
X112545000Y-108768552D01*
X112548797Y-108729999D01*
X112545000Y-108691446D01*
X112545000Y-108691439D01*
X112533641Y-108576113D01*
X112488754Y-108428140D01*
X112415862Y-108291767D01*
X112359565Y-108223170D01*
X112342345Y-108202187D01*
X112342342Y-108202184D01*
X112317764Y-108172236D01*
X112287817Y-108147659D01*
X111072345Y-106932188D01*
X111047764Y-106902236D01*
X110928233Y-106804138D01*
X110791860Y-106731246D01*
X110643887Y-106686359D01*
X110528561Y-106675000D01*
X110528553Y-106675000D01*
X110490000Y-106671203D01*
X110451447Y-106675000D01*
X110200107Y-106675000D01*
X110373475Y-106501632D01*
X110535990Y-106258411D01*
X110647932Y-105988158D01*
X110705000Y-105701260D01*
X110705000Y-105408740D01*
X110647932Y-105121842D01*
X110535990Y-104851589D01*
X110373475Y-104608368D01*
X110350107Y-104585000D01*
X152347721Y-104585000D01*
X152639659Y-104613625D01*
X152889429Y-104689035D01*
X153119792Y-104811522D01*
X153321980Y-104976422D01*
X153488286Y-105177450D01*
X153612378Y-105406954D01*
X153689531Y-105656195D01*
X153720001Y-105946098D01*
X153720000Y-146892721D01*
X153691375Y-147184660D01*
X153615965Y-147434429D01*
X153493477Y-147664794D01*
X153328579Y-147866979D01*
X153127546Y-148033288D01*
X152898046Y-148157378D01*
X152648805Y-148234531D01*
X152358911Y-148265000D01*
X86412279Y-148265000D01*
X86120340Y-148236375D01*
X85870571Y-148160965D01*
X85640206Y-148038477D01*
X85438021Y-147873579D01*
X85271712Y-147672546D01*
X85147622Y-147443046D01*
X85070469Y-147193805D01*
X85040000Y-146903911D01*
X85040000Y-143547285D01*
X85545000Y-143547285D01*
X85545000Y-144302715D01*
X85692377Y-145043628D01*
X85981467Y-145741554D01*
X86401161Y-146369670D01*
X86935330Y-146903839D01*
X87563446Y-147323533D01*
X88261372Y-147612623D01*
X89002285Y-147760000D01*
X89757715Y-147760000D01*
X90498628Y-147612623D01*
X91196554Y-147323533D01*
X91824670Y-146903839D01*
X92358839Y-146369670D01*
X92778533Y-145741554D01*
X93067623Y-145043628D01*
X93135712Y-144701320D01*
X95020000Y-144701320D01*
X95020000Y-145148679D01*
X95041705Y-145369050D01*
X95127476Y-145651801D01*
X95266762Y-145912386D01*
X95454208Y-146140792D01*
X95682613Y-146328238D01*
X95943198Y-146467524D01*
X96225949Y-146553295D01*
X96520000Y-146582257D01*
X96814050Y-146553295D01*
X97096801Y-146467524D01*
X97357386Y-146328238D01*
X97585792Y-146140792D01*
X97773238Y-145912387D01*
X97790000Y-145881027D01*
X97806762Y-145912386D01*
X97994208Y-146140792D01*
X98222613Y-146328238D01*
X98483198Y-146467524D01*
X98765949Y-146553295D01*
X99060000Y-146582257D01*
X99354050Y-146553295D01*
X99636801Y-146467524D01*
X99897386Y-146328238D01*
X100125792Y-146140792D01*
X100313238Y-145912387D01*
X100330000Y-145881027D01*
X100346762Y-145912386D01*
X100534208Y-146140792D01*
X100762613Y-146328238D01*
X101023198Y-146467524D01*
X101305949Y-146553295D01*
X101600000Y-146582257D01*
X101894050Y-146553295D01*
X102176801Y-146467524D01*
X102437386Y-146328238D01*
X102665792Y-146140792D01*
X102670570Y-146134970D01*
X102685498Y-146184180D01*
X102744463Y-146294494D01*
X102823815Y-146391185D01*
X102920506Y-146470537D01*
X103030820Y-146529502D01*
X103150518Y-146565812D01*
X103275000Y-146578072D01*
X105005000Y-146578072D01*
X105129482Y-146565812D01*
X105249180Y-146529502D01*
X105359494Y-146470537D01*
X105456185Y-146391185D01*
X105535537Y-146294494D01*
X105594502Y-146184180D01*
X105630812Y-146064482D01*
X105643072Y-145940000D01*
X105643072Y-143910000D01*
X105630812Y-143785518D01*
X105594502Y-143665820D01*
X105535537Y-143555506D01*
X105456185Y-143458815D01*
X105359494Y-143379463D01*
X105249180Y-143320498D01*
X105129482Y-143284188D01*
X105005000Y-143271928D01*
X103275000Y-143271928D01*
X103150518Y-143284188D01*
X103030820Y-143320498D01*
X102920506Y-143379463D01*
X102823815Y-143458815D01*
X102744463Y-143555506D01*
X102685498Y-143665820D01*
X102670570Y-143715030D01*
X102665792Y-143709208D01*
X102437387Y-143521762D01*
X102176802Y-143382476D01*
X101894051Y-143296705D01*
X101600000Y-143267743D01*
X101305950Y-143296705D01*
X101023199Y-143382476D01*
X100762614Y-143521762D01*
X100534208Y-143709208D01*
X100346762Y-143937613D01*
X100330000Y-143968972D01*
X100313238Y-143937613D01*
X100125792Y-143709208D01*
X99897387Y-143521762D01*
X99845000Y-143493760D01*
X99845000Y-142710157D01*
X100020157Y-142535000D01*
X108435000Y-142535000D01*
X108435000Y-143493761D01*
X108382614Y-143521762D01*
X108154208Y-143709208D01*
X107966762Y-143937613D01*
X107827476Y-144198198D01*
X107741705Y-144480949D01*
X107720000Y-144701320D01*
X107720000Y-145148679D01*
X107741705Y-145369050D01*
X107827476Y-145651801D01*
X107966762Y-145912386D01*
X108154208Y-146140792D01*
X108382613Y-146328238D01*
X108643198Y-146467524D01*
X108925949Y-146553295D01*
X109220000Y-146582257D01*
X109514050Y-146553295D01*
X109796801Y-146467524D01*
X110057386Y-146328238D01*
X110285792Y-146140792D01*
X110473238Y-145912387D01*
X110490000Y-145881027D01*
X110506762Y-145912386D01*
X110694208Y-146140792D01*
X110922613Y-146328238D01*
X111183198Y-146467524D01*
X111465949Y-146553295D01*
X111760000Y-146582257D01*
X112054050Y-146553295D01*
X112336801Y-146467524D01*
X112597386Y-146328238D01*
X112825792Y-146140792D01*
X113013238Y-145912387D01*
X113030000Y-145881027D01*
X113046762Y-145912386D01*
X113234208Y-146140792D01*
X113462613Y-146328238D01*
X113723198Y-146467524D01*
X114005949Y-146553295D01*
X114300000Y-146582257D01*
X114594050Y-146553295D01*
X114876801Y-146467524D01*
X115137386Y-146328238D01*
X115365792Y-146140792D01*
X115370570Y-146134970D01*
X115385498Y-146184180D01*
X115444463Y-146294494D01*
X115523815Y-146391185D01*
X115620506Y-146470537D01*
X115730820Y-146529502D01*
X115850518Y-146565812D01*
X115975000Y-146578072D01*
X117705000Y-146578072D01*
X117829482Y-146565812D01*
X117949180Y-146529502D01*
X118059494Y-146470537D01*
X118156185Y-146391185D01*
X118235537Y-146294494D01*
X118294502Y-146184180D01*
X118330812Y-146064482D01*
X118343072Y-145940000D01*
X118343072Y-143910000D01*
X118330812Y-143785518D01*
X118294502Y-143665820D01*
X118235537Y-143555506D01*
X118156185Y-143458815D01*
X118059494Y-143379463D01*
X117949180Y-143320498D01*
X117829482Y-143284188D01*
X117705000Y-143271928D01*
X115975000Y-143271928D01*
X115850518Y-143284188D01*
X115730820Y-143320498D01*
X115620506Y-143379463D01*
X115523815Y-143458815D01*
X115444463Y-143555506D01*
X115385498Y-143665820D01*
X115370570Y-143715030D01*
X115365792Y-143709208D01*
X115137387Y-143521762D01*
X114876802Y-143382476D01*
X114594051Y-143296705D01*
X114300000Y-143267743D01*
X114005950Y-143296705D01*
X113723199Y-143382476D01*
X113462614Y-143521762D01*
X113234208Y-143709208D01*
X113046762Y-143937613D01*
X113030000Y-143968972D01*
X113013238Y-143937613D01*
X112825792Y-143709208D01*
X112597387Y-143521762D01*
X112545000Y-143493760D01*
X112545000Y-139021070D01*
X112611013Y-138976962D01*
X112796962Y-138791013D01*
X112943061Y-138572359D01*
X113030000Y-138362470D01*
X113116939Y-138572359D01*
X113263038Y-138791013D01*
X113448987Y-138976962D01*
X113515000Y-139021070D01*
X113515001Y-141076437D01*
X113511203Y-141115000D01*
X113526359Y-141268886D01*
X113571246Y-141416859D01*
X113571247Y-141416860D01*
X113644139Y-141553233D01*
X113656398Y-141568170D01*
X113717655Y-141642812D01*
X113717656Y-141642813D01*
X113742237Y-141672764D01*
X113772185Y-141697342D01*
X114352653Y-142277810D01*
X114377236Y-142307764D01*
X114496767Y-142405862D01*
X114633140Y-142478754D01*
X114781113Y-142523642D01*
X114856026Y-142531020D01*
X114896439Y-142535000D01*
X114896444Y-142535000D01*
X114935000Y-142538797D01*
X114973556Y-142535000D01*
X120959843Y-142535000D01*
X121135000Y-142710157D01*
X121135000Y-143493761D01*
X121082614Y-143521762D01*
X120854208Y-143709208D01*
X120666762Y-143937613D01*
X120527476Y-144198198D01*
X120441705Y-144480949D01*
X120420000Y-144701320D01*
X120420000Y-145148679D01*
X120441705Y-145369050D01*
X120527476Y-145651801D01*
X120666762Y-145912386D01*
X120854208Y-146140792D01*
X121082613Y-146328238D01*
X121343198Y-146467524D01*
X121625949Y-146553295D01*
X121920000Y-146582257D01*
X122214050Y-146553295D01*
X122496801Y-146467524D01*
X122757386Y-146328238D01*
X122985792Y-146140792D01*
X123173238Y-145912387D01*
X123190000Y-145881027D01*
X123206762Y-145912386D01*
X123394208Y-146140792D01*
X123622613Y-146328238D01*
X123883198Y-146467524D01*
X124165949Y-146553295D01*
X124460000Y-146582257D01*
X124754050Y-146553295D01*
X125036801Y-146467524D01*
X125297386Y-146328238D01*
X125525792Y-146140792D01*
X125713238Y-145912387D01*
X125730000Y-145881027D01*
X125746762Y-145912386D01*
X125934208Y-146140792D01*
X126162613Y-146328238D01*
X126423198Y-146467524D01*
X126705949Y-146553295D01*
X127000000Y-146582257D01*
X127294050Y-146553295D01*
X127576801Y-146467524D01*
X127837386Y-146328238D01*
X128065792Y-146140792D01*
X128070570Y-146134970D01*
X128085498Y-146184180D01*
X128144463Y-146294494D01*
X128223815Y-146391185D01*
X128320506Y-146470537D01*
X128430820Y-146529502D01*
X128550518Y-146565812D01*
X128675000Y-146578072D01*
X130405000Y-146578072D01*
X130529482Y-146565812D01*
X130649180Y-146529502D01*
X130759494Y-146470537D01*
X130856185Y-146391185D01*
X130935537Y-146294494D01*
X130994502Y-146184180D01*
X131030812Y-146064482D01*
X131043072Y-145940000D01*
X131043072Y-143910000D01*
X131030812Y-143785518D01*
X130994502Y-143665820D01*
X130935537Y-143555506D01*
X130856185Y-143458815D01*
X130759494Y-143379463D01*
X130649180Y-143320498D01*
X130529482Y-143284188D01*
X130405000Y-143271928D01*
X128675000Y-143271928D01*
X128550518Y-143284188D01*
X128430820Y-143320498D01*
X128320506Y-143379463D01*
X128223815Y-143458815D01*
X128144463Y-143555506D01*
X128085498Y-143665820D01*
X128070570Y-143715030D01*
X128065792Y-143709208D01*
X127837387Y-143521762D01*
X127576802Y-143382476D01*
X127294051Y-143296705D01*
X127000000Y-143267743D01*
X126705950Y-143296705D01*
X126423199Y-143382476D01*
X126162614Y-143521762D01*
X125934208Y-143709208D01*
X125746762Y-143937613D01*
X125730000Y-143968972D01*
X125713238Y-143937613D01*
X125525792Y-143709208D01*
X125297387Y-143521762D01*
X125245000Y-143493760D01*
X125245000Y-141788556D01*
X125248797Y-141750000D01*
X125245000Y-141711440D01*
X125245000Y-141711439D01*
X125238241Y-141642812D01*
X125233642Y-141596113D01*
X125188754Y-141448140D01*
X125175349Y-141423061D01*
X125115862Y-141311767D01*
X125077481Y-141265000D01*
X133659843Y-141265000D01*
X133835000Y-141440157D01*
X133835001Y-143493761D01*
X133782614Y-143521762D01*
X133554208Y-143709208D01*
X133366762Y-143937613D01*
X133227476Y-144198198D01*
X133141705Y-144480949D01*
X133120000Y-144701320D01*
X133120000Y-145148679D01*
X133141705Y-145369050D01*
X133227476Y-145651801D01*
X133366762Y-145912386D01*
X133554208Y-146140792D01*
X133782613Y-146328238D01*
X134043198Y-146467524D01*
X134325949Y-146553295D01*
X134620000Y-146582257D01*
X134914050Y-146553295D01*
X135196801Y-146467524D01*
X135457386Y-146328238D01*
X135685792Y-146140792D01*
X135873238Y-145912387D01*
X135890000Y-145881027D01*
X135906762Y-145912386D01*
X136094208Y-146140792D01*
X136322613Y-146328238D01*
X136583198Y-146467524D01*
X136865949Y-146553295D01*
X137160000Y-146582257D01*
X137454050Y-146553295D01*
X137736801Y-146467524D01*
X137997386Y-146328238D01*
X138225792Y-146140792D01*
X138413238Y-145912387D01*
X138430000Y-145881027D01*
X138446762Y-145912386D01*
X138634208Y-146140792D01*
X138862613Y-146328238D01*
X139123198Y-146467524D01*
X139405949Y-146553295D01*
X139700000Y-146582257D01*
X139994050Y-146553295D01*
X140276801Y-146467524D01*
X140537386Y-146328238D01*
X140765792Y-146140792D01*
X140770570Y-146134970D01*
X140785498Y-146184180D01*
X140844463Y-146294494D01*
X140923815Y-146391185D01*
X141020506Y-146470537D01*
X141130820Y-146529502D01*
X141250518Y-146565812D01*
X141375000Y-146578072D01*
X143105000Y-146578072D01*
X143229482Y-146565812D01*
X143349180Y-146529502D01*
X143459494Y-146470537D01*
X143556185Y-146391185D01*
X143635537Y-146294494D01*
X143694502Y-146184180D01*
X143730812Y-146064482D01*
X143743072Y-145940000D01*
X143743072Y-143910000D01*
X143730812Y-143785518D01*
X143694502Y-143665820D01*
X143635537Y-143555506D01*
X143628791Y-143547285D01*
X145545000Y-143547285D01*
X145545000Y-144302715D01*
X145692377Y-145043628D01*
X145981467Y-145741554D01*
X146401161Y-146369670D01*
X146935330Y-146903839D01*
X147563446Y-147323533D01*
X148261372Y-147612623D01*
X149002285Y-147760000D01*
X149757715Y-147760000D01*
X150498628Y-147612623D01*
X151196554Y-147323533D01*
X151824670Y-146903839D01*
X152358839Y-146369670D01*
X152778533Y-145741554D01*
X153067623Y-145043628D01*
X153215000Y-144302715D01*
X153215000Y-143547285D01*
X153067623Y-142806372D01*
X152778533Y-142108446D01*
X152358839Y-141480330D01*
X151824670Y-140946161D01*
X151196554Y-140526467D01*
X150498628Y-140237377D01*
X149757715Y-140090000D01*
X149002285Y-140090000D01*
X148261372Y-140237377D01*
X147563446Y-140526467D01*
X146935330Y-140946161D01*
X146401161Y-141480330D01*
X145981467Y-142108446D01*
X145692377Y-142806372D01*
X145545000Y-143547285D01*
X143628791Y-143547285D01*
X143556185Y-143458815D01*
X143459494Y-143379463D01*
X143349180Y-143320498D01*
X143229482Y-143284188D01*
X143105000Y-143271928D01*
X141375000Y-143271928D01*
X141250518Y-143284188D01*
X141130820Y-143320498D01*
X141085000Y-143344990D01*
X141085000Y-139148685D01*
X144279139Y-135954546D01*
X144532787Y-136005000D01*
X145027213Y-136005000D01*
X145512140Y-135908542D01*
X145968931Y-135719333D01*
X146380032Y-135444644D01*
X146729644Y-135095032D01*
X147004333Y-134683931D01*
X147193542Y-134227140D01*
X147290000Y-133742213D01*
X147290000Y-133247787D01*
X147287551Y-133235475D01*
X148145000Y-133235475D01*
X148145000Y-133754525D01*
X148246261Y-134263601D01*
X148444893Y-134743141D01*
X148733262Y-135174715D01*
X149100285Y-135541738D01*
X149531859Y-135830107D01*
X150011399Y-136028739D01*
X150520475Y-136130000D01*
X151039525Y-136130000D01*
X151548601Y-136028739D01*
X152028141Y-135830107D01*
X152459715Y-135541738D01*
X152826738Y-135174715D01*
X153115107Y-134743141D01*
X153313739Y-134263601D01*
X153415000Y-133754525D01*
X153415000Y-133235475D01*
X153313739Y-132726399D01*
X153115107Y-132246859D01*
X152826738Y-131815285D01*
X152459715Y-131448262D01*
X152028141Y-131159893D01*
X151548601Y-130961261D01*
X151039525Y-130860000D01*
X150520475Y-130860000D01*
X150011399Y-130961261D01*
X149531859Y-131159893D01*
X149100285Y-131448262D01*
X148733262Y-131815285D01*
X148444893Y-132246859D01*
X148246261Y-132726399D01*
X148145000Y-133235475D01*
X147287551Y-133235475D01*
X147193542Y-132762860D01*
X147004333Y-132306069D01*
X146729644Y-131894968D01*
X146380032Y-131545356D01*
X145968931Y-131270667D01*
X145512140Y-131081458D01*
X145027213Y-130985000D01*
X144532787Y-130985000D01*
X144279139Y-131035454D01*
X141791472Y-128547787D01*
X145270000Y-128547787D01*
X145270000Y-129042213D01*
X145366458Y-129527140D01*
X145555667Y-129983931D01*
X145830356Y-130395032D01*
X146179968Y-130744644D01*
X146591069Y-131019333D01*
X147047860Y-131208542D01*
X147532787Y-131305000D01*
X148027213Y-131305000D01*
X148512140Y-131208542D01*
X148968931Y-131019333D01*
X149380032Y-130744644D01*
X149729644Y-130395032D01*
X150004333Y-129983931D01*
X150193542Y-129527140D01*
X150290000Y-129042213D01*
X150290000Y-128547787D01*
X150193542Y-128062860D01*
X150004333Y-127606069D01*
X149729644Y-127194968D01*
X149380032Y-126845356D01*
X148968931Y-126570667D01*
X148512140Y-126381458D01*
X148027213Y-126285000D01*
X147532787Y-126285000D01*
X147047860Y-126381458D01*
X146591069Y-126570667D01*
X146179968Y-126845356D01*
X145830356Y-127194968D01*
X145555667Y-127606069D01*
X145366458Y-128062860D01*
X145270000Y-128547787D01*
X141791472Y-128547787D01*
X141085000Y-127841315D01*
X141085000Y-120863026D01*
X141091700Y-120794999D01*
X141085000Y-120726972D01*
X141085000Y-120726963D01*
X141064960Y-120523493D01*
X140985764Y-120262419D01*
X140857157Y-120021812D01*
X140684081Y-119810919D01*
X140631236Y-119767550D01*
X139457454Y-118593769D01*
X139414081Y-118540919D01*
X139203188Y-118367843D01*
X138962581Y-118239236D01*
X138701507Y-118160040D01*
X138498037Y-118140000D01*
X138498029Y-118140000D01*
X138430000Y-118133300D01*
X138361971Y-118140000D01*
X135564350Y-118140000D01*
X135566632Y-118138475D01*
X135773475Y-117931632D01*
X135935990Y-117688411D01*
X136047932Y-117418158D01*
X136105000Y-117131260D01*
X136105000Y-116838740D01*
X136047932Y-116551842D01*
X135935990Y-116281589D01*
X135773475Y-116038368D01*
X135566632Y-115831525D01*
X135323411Y-115669010D01*
X135053158Y-115557068D01*
X134766260Y-115500000D01*
X134473740Y-115500000D01*
X134186842Y-115557068D01*
X133916589Y-115669010D01*
X133673368Y-115831525D01*
X133466525Y-116038368D01*
X133304010Y-116281589D01*
X133192068Y-116551842D01*
X133135000Y-116838740D01*
X133135000Y-117131260D01*
X133192068Y-117418158D01*
X133304010Y-117688411D01*
X133466525Y-117931632D01*
X133673368Y-118138475D01*
X133847760Y-118255000D01*
X133673368Y-118371525D01*
X133466525Y-118578368D01*
X133304010Y-118821589D01*
X133192068Y-119091842D01*
X133135000Y-119378740D01*
X133135000Y-119671260D01*
X133192068Y-119958158D01*
X133304010Y-120228411D01*
X133466525Y-120471632D01*
X133673368Y-120678475D01*
X133847760Y-120795000D01*
X133673368Y-120911525D01*
X133466525Y-121118368D01*
X133304010Y-121361589D01*
X133192068Y-121631842D01*
X133135000Y-121918740D01*
X133135000Y-122211260D01*
X133192068Y-122498158D01*
X133304010Y-122768411D01*
X133466525Y-123011632D01*
X133673368Y-123218475D01*
X133855534Y-123340195D01*
X133738645Y-123409822D01*
X133522412Y-123604731D01*
X133348359Y-123838080D01*
X133223175Y-124100901D01*
X133178524Y-124248110D01*
X133299845Y-124478000D01*
X134493000Y-124478000D01*
X134493000Y-124458000D01*
X134747000Y-124458000D01*
X134747000Y-124478000D01*
X135940155Y-124478000D01*
X136061476Y-124248110D01*
X136016825Y-124100901D01*
X135891641Y-123838080D01*
X135717588Y-123604731D01*
X135501355Y-123409822D01*
X135384466Y-123340195D01*
X135566632Y-123218475D01*
X135773475Y-123011632D01*
X135935990Y-122768411D01*
X136047932Y-122498158D01*
X136105000Y-122211260D01*
X136105000Y-121918740D01*
X136047932Y-121631842D01*
X135935990Y-121361589D01*
X135773475Y-121118368D01*
X135566632Y-120911525D01*
X135564350Y-120910000D01*
X137856315Y-120910000D01*
X138315001Y-121368687D01*
X138315000Y-128346971D01*
X138308300Y-128415000D01*
X138315000Y-128483029D01*
X138315000Y-128483036D01*
X138335040Y-128686506D01*
X138414236Y-128947580D01*
X138542843Y-129188187D01*
X138715919Y-129399080D01*
X138768765Y-129442450D01*
X142320454Y-132994139D01*
X142270000Y-133247787D01*
X142270000Y-133742213D01*
X142320454Y-133995861D01*
X138768765Y-137547550D01*
X138715919Y-137590920D01*
X138542843Y-137801813D01*
X138414236Y-138042420D01*
X138335040Y-138303494D01*
X138315000Y-138506964D01*
X138315000Y-138506971D01*
X138308300Y-138575000D01*
X138315000Y-138643029D01*
X138315001Y-143817910D01*
X138225792Y-143709208D01*
X137997387Y-143521762D01*
X137945000Y-143493760D01*
X137945000Y-140518556D01*
X137948797Y-140480000D01*
X137945000Y-140441440D01*
X137945000Y-140441439D01*
X137935143Y-140341358D01*
X137933642Y-140326113D01*
X137888754Y-140178140D01*
X137815862Y-140041767D01*
X137717764Y-139922236D01*
X137687811Y-139897654D01*
X137107345Y-139317188D01*
X137082764Y-139287236D01*
X136963233Y-139189138D01*
X136826860Y-139116246D01*
X136678887Y-139071359D01*
X136563561Y-139060000D01*
X136563553Y-139060000D01*
X136525000Y-139056203D01*
X136486447Y-139060000D01*
X125186737Y-139060000D01*
X125311013Y-138976962D01*
X125496962Y-138791013D01*
X125643061Y-138572359D01*
X125743696Y-138329405D01*
X125795000Y-138071486D01*
X125795000Y-137808514D01*
X125743696Y-137550595D01*
X125643061Y-137307641D01*
X125496962Y-137088987D01*
X125311013Y-136903038D01*
X125092359Y-136756939D01*
X124882470Y-136670000D01*
X125092359Y-136583061D01*
X125311013Y-136436962D01*
X125496962Y-136251013D01*
X125643061Y-136032359D01*
X125743696Y-135789405D01*
X125795000Y-135531486D01*
X125795000Y-135268514D01*
X125743696Y-135010595D01*
X125643061Y-134767641D01*
X125496962Y-134548987D01*
X125311013Y-134363038D01*
X125092359Y-134216939D01*
X124849405Y-134116304D01*
X124591486Y-134065000D01*
X124328514Y-134065000D01*
X124070595Y-134116304D01*
X123827641Y-134216939D01*
X123608987Y-134363038D01*
X123423038Y-134548987D01*
X123276939Y-134767641D01*
X123190000Y-134977530D01*
X123103061Y-134767641D01*
X122956962Y-134548987D01*
X122771013Y-134363038D01*
X122552359Y-134216939D01*
X122309405Y-134116304D01*
X122051486Y-134065000D01*
X121788514Y-134065000D01*
X121530595Y-134116304D01*
X121287641Y-134216939D01*
X121068987Y-134363038D01*
X120883038Y-134548987D01*
X120736939Y-134767641D01*
X120650000Y-134977530D01*
X120563061Y-134767641D01*
X120416962Y-134548987D01*
X120231013Y-134363038D01*
X120012359Y-134216939D01*
X119769405Y-134116304D01*
X119511486Y-134065000D01*
X119248514Y-134065000D01*
X118990595Y-134116304D01*
X118895000Y-134155901D01*
X118895000Y-133501944D01*
X118899852Y-133500472D01*
X119053387Y-133418405D01*
X119187962Y-133307962D01*
X119298405Y-133173387D01*
X119380472Y-133019852D01*
X119431008Y-132853256D01*
X119448072Y-132680002D01*
X119448072Y-132154998D01*
X119431008Y-131981744D01*
X119380472Y-131815148D01*
X119298405Y-131661613D01*
X119231724Y-131580363D01*
X119261185Y-131556185D01*
X119340537Y-131459494D01*
X119399502Y-131349180D01*
X119435812Y-131229482D01*
X119448072Y-131105000D01*
X119445000Y-130878250D01*
X119286250Y-130719500D01*
X118237000Y-130719500D01*
X118237000Y-130739500D01*
X117983000Y-130739500D01*
X117983000Y-130719500D01*
X116933750Y-130719500D01*
X116840000Y-130813250D01*
X116746250Y-130719500D01*
X115697000Y-130719500D01*
X115697000Y-130739500D01*
X115443000Y-130739500D01*
X115443000Y-130719500D01*
X114393750Y-130719500D01*
X114300000Y-130813250D01*
X114206250Y-130719500D01*
X113157000Y-130719500D01*
X113157000Y-130739500D01*
X112903000Y-130739500D01*
X112903000Y-130719500D01*
X111853750Y-130719500D01*
X111695000Y-130878250D01*
X111691928Y-131105000D01*
X111704188Y-131229482D01*
X111740498Y-131349180D01*
X111799463Y-131459494D01*
X111878815Y-131556185D01*
X111908276Y-131580363D01*
X111841595Y-131661613D01*
X111759528Y-131815148D01*
X111708992Y-131981744D01*
X111691928Y-132154998D01*
X111691928Y-132680002D01*
X111708992Y-132853256D01*
X111759528Y-133019852D01*
X111841595Y-133173387D01*
X111952038Y-133307962D01*
X112086613Y-133418405D01*
X112240148Y-133500472D01*
X112245001Y-133501944D01*
X112245001Y-134155901D01*
X112149405Y-134116304D01*
X111891486Y-134065000D01*
X111628514Y-134065000D01*
X111370595Y-134116304D01*
X111127641Y-134216939D01*
X110908987Y-134363038D01*
X110723038Y-134548987D01*
X110576939Y-134767641D01*
X110490000Y-134977530D01*
X110403061Y-134767641D01*
X110256962Y-134548987D01*
X110071013Y-134363038D01*
X109852359Y-134216939D01*
X109609405Y-134116304D01*
X109351486Y-134065000D01*
X109088514Y-134065000D01*
X108830595Y-134116304D01*
X108735000Y-134155901D01*
X108735000Y-133501944D01*
X108739852Y-133500472D01*
X108893387Y-133418405D01*
X109027962Y-133307962D01*
X109138405Y-133173387D01*
X109220472Y-133019852D01*
X109271008Y-132853256D01*
X109288072Y-132680002D01*
X109288072Y-132154998D01*
X109271008Y-131981744D01*
X109220472Y-131815148D01*
X109138405Y-131661613D01*
X109071724Y-131580363D01*
X109101185Y-131556185D01*
X109180537Y-131459494D01*
X109239502Y-131349180D01*
X109275812Y-131229482D01*
X109288072Y-131105000D01*
X109285000Y-130878250D01*
X109126250Y-130719500D01*
X108077000Y-130719500D01*
X108077000Y-130739500D01*
X107823000Y-130739500D01*
X107823000Y-130719500D01*
X106773750Y-130719500D01*
X106615000Y-130878250D01*
X106611928Y-131105000D01*
X106624188Y-131229482D01*
X106660498Y-131349180D01*
X106719463Y-131459494D01*
X106798815Y-131556185D01*
X106828276Y-131580363D01*
X106761595Y-131661613D01*
X106679528Y-131815148D01*
X106628992Y-131981744D01*
X106611928Y-132154998D01*
X106611928Y-132680002D01*
X106628992Y-132853256D01*
X106679528Y-133019852D01*
X106761595Y-133173387D01*
X106872038Y-133307962D01*
X107006613Y-133418405D01*
X107160148Y-133500472D01*
X107165001Y-133501944D01*
X107165001Y-134155901D01*
X107069405Y-134116304D01*
X106811486Y-134065000D01*
X106548514Y-134065000D01*
X106290595Y-134116304D01*
X106047641Y-134216939D01*
X105828987Y-134363038D01*
X105643038Y-134548987D01*
X105496939Y-134767641D01*
X105410000Y-134977530D01*
X105323061Y-134767641D01*
X105176962Y-134548987D01*
X104991013Y-134363038D01*
X104772359Y-134216939D01*
X104529405Y-134116304D01*
X104271486Y-134065000D01*
X104008514Y-134065000D01*
X103750595Y-134116304D01*
X103507641Y-134216939D01*
X103288987Y-134363038D01*
X103103038Y-134548987D01*
X102956939Y-134767641D01*
X102870000Y-134977530D01*
X102783061Y-134767641D01*
X102636962Y-134548987D01*
X102451013Y-134363038D01*
X102232359Y-134216939D01*
X101989405Y-134116304D01*
X101731486Y-134065000D01*
X101468514Y-134065000D01*
X101210595Y-134116304D01*
X100967641Y-134216939D01*
X100748987Y-134363038D01*
X100563038Y-134548987D01*
X100416939Y-134767641D01*
X100316304Y-135010595D01*
X100265000Y-135268514D01*
X100265000Y-135531486D01*
X100316304Y-135789405D01*
X100416939Y-136032359D01*
X100563038Y-136251013D01*
X100748987Y-136436962D01*
X100967641Y-136583061D01*
X101177530Y-136670000D01*
X100967641Y-136756939D01*
X100748987Y-136903038D01*
X100563038Y-137088987D01*
X100416939Y-137307641D01*
X100316304Y-137550595D01*
X100265000Y-137808514D01*
X100265000Y-138071486D01*
X100316304Y-138329405D01*
X100416939Y-138572359D01*
X100563038Y-138791013D01*
X100748987Y-138976962D01*
X100967641Y-139123061D01*
X101210595Y-139223696D01*
X101468514Y-139275000D01*
X101731486Y-139275000D01*
X101989405Y-139223696D01*
X102232359Y-139123061D01*
X102451013Y-138976962D01*
X102636962Y-138791013D01*
X102783061Y-138572359D01*
X102870000Y-138362470D01*
X102956939Y-138572359D01*
X103103038Y-138791013D01*
X103288987Y-138976962D01*
X103507641Y-139123061D01*
X103750595Y-139223696D01*
X104008514Y-139275000D01*
X104271486Y-139275000D01*
X104529405Y-139223696D01*
X104772359Y-139123061D01*
X104991013Y-138976962D01*
X105176962Y-138791013D01*
X105323061Y-138572359D01*
X105410000Y-138362470D01*
X105496939Y-138572359D01*
X105643038Y-138791013D01*
X105828987Y-138976962D01*
X105895000Y-139021070D01*
X105895001Y-140154842D01*
X105719843Y-140330000D01*
X97193556Y-140330000D01*
X97155000Y-140326203D01*
X97116444Y-140330000D01*
X97116439Y-140330000D01*
X97076026Y-140333980D01*
X97001113Y-140341358D01*
X96853140Y-140386246D01*
X96716767Y-140459138D01*
X96597236Y-140557236D01*
X96572655Y-140587188D01*
X95992190Y-141167653D01*
X95962236Y-141192236D01*
X95864138Y-141311768D01*
X95791246Y-141448141D01*
X95746359Y-141596114D01*
X95735000Y-141711440D01*
X95735000Y-141711447D01*
X95731203Y-141750000D01*
X95735000Y-141788553D01*
X95735001Y-143493761D01*
X95682614Y-143521762D01*
X95454208Y-143709208D01*
X95266762Y-143937613D01*
X95127476Y-144198198D01*
X95041705Y-144480949D01*
X95020000Y-144701320D01*
X93135712Y-144701320D01*
X93215000Y-144302715D01*
X93215000Y-143547285D01*
X93067623Y-142806372D01*
X92778533Y-142108446D01*
X92358839Y-141480330D01*
X91824670Y-140946161D01*
X91196554Y-140526467D01*
X90498628Y-140237377D01*
X89757715Y-140090000D01*
X89002285Y-140090000D01*
X88261372Y-140237377D01*
X87563446Y-140526467D01*
X86935330Y-140946161D01*
X86401161Y-141480330D01*
X85981467Y-142108446D01*
X85692377Y-142806372D01*
X85545000Y-143547285D01*
X85040000Y-143547285D01*
X85040000Y-130080000D01*
X106611928Y-130080000D01*
X106615000Y-130306750D01*
X106773750Y-130465500D01*
X107823000Y-130465500D01*
X107823000Y-129603750D01*
X108077000Y-129603750D01*
X108077000Y-130465500D01*
X109126250Y-130465500D01*
X109285000Y-130306750D01*
X109288072Y-130080000D01*
X111691928Y-130080000D01*
X111695000Y-130306750D01*
X111853750Y-130465500D01*
X112903000Y-130465500D01*
X112903000Y-129603750D01*
X113157000Y-129603750D01*
X113157000Y-130465500D01*
X114206250Y-130465500D01*
X114300000Y-130371750D01*
X114393750Y-130465500D01*
X115443000Y-130465500D01*
X115443000Y-129603750D01*
X115697000Y-129603750D01*
X115697000Y-130465500D01*
X116746250Y-130465500D01*
X116840000Y-130371750D01*
X116933750Y-130465500D01*
X117983000Y-130465500D01*
X117983000Y-129603750D01*
X118237000Y-129603750D01*
X118237000Y-130465500D01*
X119286250Y-130465500D01*
X119445000Y-130306750D01*
X119448072Y-130080000D01*
X119435812Y-129955518D01*
X119399502Y-129835820D01*
X119340537Y-129725506D01*
X119261185Y-129628815D01*
X119164494Y-129549463D01*
X119054180Y-129490498D01*
X118934482Y-129454188D01*
X118810000Y-129441928D01*
X118395750Y-129445000D01*
X118237000Y-129603750D01*
X117983000Y-129603750D01*
X117824250Y-129445000D01*
X117410000Y-129441928D01*
X117285518Y-129454188D01*
X117165820Y-129490498D01*
X117055506Y-129549463D01*
X116958815Y-129628815D01*
X116879463Y-129725506D01*
X116840000Y-129799335D01*
X116800537Y-129725506D01*
X116721185Y-129628815D01*
X116624494Y-129549463D01*
X116514180Y-129490498D01*
X116394482Y-129454188D01*
X116270000Y-129441928D01*
X115855750Y-129445000D01*
X115697000Y-129603750D01*
X115443000Y-129603750D01*
X115284250Y-129445000D01*
X114870000Y-129441928D01*
X114745518Y-129454188D01*
X114625820Y-129490498D01*
X114515506Y-129549463D01*
X114418815Y-129628815D01*
X114339463Y-129725506D01*
X114300000Y-129799335D01*
X114260537Y-129725506D01*
X114181185Y-129628815D01*
X114084494Y-129549463D01*
X113974180Y-129490498D01*
X113854482Y-129454188D01*
X113730000Y-129441928D01*
X113315750Y-129445000D01*
X113157000Y-129603750D01*
X112903000Y-129603750D01*
X112744250Y-129445000D01*
X112330000Y-129441928D01*
X112205518Y-129454188D01*
X112085820Y-129490498D01*
X111975506Y-129549463D01*
X111878815Y-129628815D01*
X111799463Y-129725506D01*
X111740498Y-129835820D01*
X111704188Y-129955518D01*
X111691928Y-130080000D01*
X109288072Y-130080000D01*
X109275812Y-129955518D01*
X109239502Y-129835820D01*
X109180537Y-129725506D01*
X109101185Y-129628815D01*
X109004494Y-129549463D01*
X108894180Y-129490498D01*
X108774482Y-129454188D01*
X108650000Y-129441928D01*
X108235750Y-129445000D01*
X108077000Y-129603750D01*
X107823000Y-129603750D01*
X107664250Y-129445000D01*
X107250000Y-129441928D01*
X107125518Y-129454188D01*
X107005820Y-129490498D01*
X106895506Y-129549463D01*
X106798815Y-129628815D01*
X106719463Y-129725506D01*
X106660498Y-129835820D01*
X106624188Y-129955518D01*
X106611928Y-130080000D01*
X85040000Y-130080000D01*
X85040000Y-124961890D01*
X133178524Y-124961890D01*
X133223175Y-125109099D01*
X133348359Y-125371920D01*
X133522412Y-125605269D01*
X133738645Y-125800178D01*
X133988748Y-125949157D01*
X134263109Y-126046481D01*
X134493000Y-125925814D01*
X134493000Y-124732000D01*
X134747000Y-124732000D01*
X134747000Y-125925814D01*
X134976891Y-126046481D01*
X135251252Y-125949157D01*
X135501355Y-125800178D01*
X135717588Y-125605269D01*
X135891641Y-125371920D01*
X136016825Y-125109099D01*
X136061476Y-124961890D01*
X135940155Y-124732000D01*
X134747000Y-124732000D01*
X134493000Y-124732000D01*
X133299845Y-124732000D01*
X133178524Y-124961890D01*
X85040000Y-124961890D01*
X85040000Y-108547285D01*
X85545000Y-108547285D01*
X85545000Y-109302715D01*
X85692377Y-110043628D01*
X85981467Y-110741554D01*
X86401161Y-111369670D01*
X86935330Y-111903839D01*
X87563446Y-112323533D01*
X88261372Y-112612623D01*
X89002285Y-112760000D01*
X89757715Y-112760000D01*
X90498628Y-112612623D01*
X91196554Y-112323533D01*
X91824670Y-111903839D01*
X92358839Y-111369670D01*
X92778533Y-110741554D01*
X93067623Y-110043628D01*
X93215000Y-109302715D01*
X93215000Y-108547285D01*
X93067623Y-107806372D01*
X92778533Y-107108446D01*
X92427707Y-106583397D01*
X95671208Y-106583397D01*
X95748843Y-106832472D01*
X96012883Y-106958371D01*
X96296411Y-107030339D01*
X96588531Y-107045611D01*
X96878019Y-107003599D01*
X97153747Y-106905919D01*
X97291157Y-106832472D01*
X97368792Y-106583397D01*
X96520000Y-105734605D01*
X95671208Y-106583397D01*
X92427707Y-106583397D01*
X92358839Y-106480330D01*
X91824670Y-105946161D01*
X91196554Y-105526467D01*
X90498628Y-105237377D01*
X89757715Y-105090000D01*
X89002285Y-105090000D01*
X88261372Y-105237377D01*
X87563446Y-105526467D01*
X86935330Y-105946161D01*
X86401161Y-106480330D01*
X85981467Y-107108446D01*
X85692377Y-107806372D01*
X85545000Y-108547285D01*
X85040000Y-108547285D01*
X85040000Y-105957279D01*
X85068625Y-105665341D01*
X85144035Y-105415571D01*
X85266522Y-105185208D01*
X85431422Y-104983020D01*
X85632450Y-104816714D01*
X85861954Y-104692622D01*
X86111195Y-104615469D01*
X86401088Y-104585000D01*
X95380600Y-104585000D01*
X95375496Y-104590104D01*
%TA.AperFunction,Conductor*%
D24*
G36*
X95375496Y-104590104D02*
G01*
X95491601Y-104706209D01*
X95242528Y-104783843D01*
X95116629Y-105047883D01*
X95044661Y-105331411D01*
X95029389Y-105623531D01*
X95071401Y-105913019D01*
X95169081Y-106188747D01*
X95242528Y-106326157D01*
X95491603Y-106403792D01*
X96340395Y-105555000D01*
X96326253Y-105540858D01*
X96505858Y-105361253D01*
X96520000Y-105375395D01*
X96534143Y-105361253D01*
X96713748Y-105540858D01*
X96699605Y-105555000D01*
X97548397Y-106403792D01*
X97790689Y-106328271D01*
X97906525Y-106501632D01*
X98113368Y-106708475D01*
X98356589Y-106870990D01*
X98626842Y-106982932D01*
X98913740Y-107040000D01*
X99206260Y-107040000D01*
X99493158Y-106982932D01*
X99763411Y-106870990D01*
X100006632Y-106708475D01*
X100213475Y-106501632D01*
X100330000Y-106327240D01*
X100446525Y-106501632D01*
X100653368Y-106708475D01*
X100896589Y-106870990D01*
X101166842Y-106982932D01*
X101453740Y-107040000D01*
X101746260Y-107040000D01*
X101936918Y-107002075D01*
X103557658Y-108622816D01*
X103582236Y-108652764D01*
X103612184Y-108677342D01*
X103612187Y-108677345D01*
X103629361Y-108691439D01*
X103690161Y-108741337D01*
X103507641Y-108816939D01*
X103288987Y-108963038D01*
X103103038Y-109148987D01*
X102956939Y-109367641D01*
X102870000Y-109577530D01*
X102783061Y-109367641D01*
X102636962Y-109148987D01*
X102451013Y-108963038D01*
X102232359Y-108816939D01*
X101989405Y-108716304D01*
X101731486Y-108665000D01*
X101468514Y-108665000D01*
X101210595Y-108716304D01*
X100967641Y-108816939D01*
X100748987Y-108963038D01*
X100563038Y-109148987D01*
X100416939Y-109367641D01*
X100316304Y-109610595D01*
X100265000Y-109868514D01*
X100265000Y-110131486D01*
X100316304Y-110389405D01*
X100416939Y-110632359D01*
X100563038Y-110851013D01*
X100748987Y-111036962D01*
X100967641Y-111183061D01*
X101177530Y-111270000D01*
X100967641Y-111356939D01*
X100748987Y-111503038D01*
X100563038Y-111688987D01*
X100416939Y-111907641D01*
X100316304Y-112150595D01*
X100265000Y-112408514D01*
X100265000Y-112671486D01*
X100316304Y-112929405D01*
X100416939Y-113172359D01*
X100563038Y-113391013D01*
X100748987Y-113576962D01*
X100967641Y-113723061D01*
X101210595Y-113823696D01*
X101468514Y-113875000D01*
X101731486Y-113875000D01*
X101989405Y-113823696D01*
X102232359Y-113723061D01*
X102451013Y-113576962D01*
X102636962Y-113391013D01*
X102783061Y-113172359D01*
X102870000Y-112962470D01*
X102956939Y-113172359D01*
X103103038Y-113391013D01*
X103288987Y-113576962D01*
X103507641Y-113723061D01*
X103750595Y-113823696D01*
X104008514Y-113875000D01*
X104271486Y-113875000D01*
X104529405Y-113823696D01*
X104772359Y-113723061D01*
X104991013Y-113576962D01*
X105106706Y-113461269D01*
X105938336Y-113461269D01*
X105997797Y-113695037D01*
X106236242Y-113805934D01*
X106491740Y-113868183D01*
X106754473Y-113879390D01*
X107014344Y-113839125D01*
X107261366Y-113748935D01*
X107362203Y-113695037D01*
X107421664Y-113461269D01*
X106680000Y-112719605D01*
X105938336Y-113461269D01*
X105106706Y-113461269D01*
X105176962Y-113391013D01*
X105323061Y-113172359D01*
X105411621Y-112958556D01*
X105471065Y-113121366D01*
X105524963Y-113222203D01*
X105758731Y-113281664D01*
X106500395Y-112540000D01*
X105758731Y-111798336D01*
X105524963Y-111857797D01*
X105414066Y-112096242D01*
X105409294Y-112115827D01*
X105323061Y-111907641D01*
X105176962Y-111688987D01*
X104991013Y-111503038D01*
X104772359Y-111356939D01*
X104562470Y-111270000D01*
X104772359Y-111183061D01*
X104991013Y-111036962D01*
X105176962Y-110851013D01*
X105323061Y-110632359D01*
X105410000Y-110422470D01*
X105496939Y-110632359D01*
X105643038Y-110851013D01*
X105828987Y-111036962D01*
X106047641Y-111183061D01*
X106261444Y-111271621D01*
X106098634Y-111331065D01*
X105997797Y-111384963D01*
X105938336Y-111618731D01*
X106680000Y-112360395D01*
X107421664Y-111618731D01*
X107362203Y-111384963D01*
X107123758Y-111274066D01*
X107104173Y-111269294D01*
X107312359Y-111183061D01*
X107531013Y-111036962D01*
X107716962Y-110851013D01*
X107863061Y-110632359D01*
X107950000Y-110422470D01*
X108036939Y-110632359D01*
X108183038Y-110851013D01*
X108368987Y-111036962D01*
X108587641Y-111183061D01*
X108797530Y-111270000D01*
X108587641Y-111356939D01*
X108368987Y-111503038D01*
X108183038Y-111688987D01*
X108036939Y-111907641D01*
X107948379Y-112121444D01*
X107888935Y-111958634D01*
X107835037Y-111857797D01*
X107601269Y-111798336D01*
X106859605Y-112540000D01*
X107601269Y-113281664D01*
X107835037Y-113222203D01*
X107945934Y-112983758D01*
X107950706Y-112964173D01*
X108036939Y-113172359D01*
X108183038Y-113391013D01*
X108368987Y-113576962D01*
X108587641Y-113723061D01*
X108830595Y-113823696D01*
X109088514Y-113875000D01*
X109351486Y-113875000D01*
X109609405Y-113823696D01*
X109852359Y-113723061D01*
X110071013Y-113576962D01*
X110256962Y-113391013D01*
X110403061Y-113172359D01*
X110490000Y-112962470D01*
X110576939Y-113172359D01*
X110723038Y-113391013D01*
X110908987Y-113576962D01*
X111127641Y-113723061D01*
X111370595Y-113823696D01*
X111628514Y-113875000D01*
X111891486Y-113875000D01*
X112149405Y-113823696D01*
X112392359Y-113723061D01*
X112611013Y-113576962D01*
X112796962Y-113391013D01*
X112943061Y-113172359D01*
X113030000Y-112962470D01*
X113116939Y-113172359D01*
X113263038Y-113391013D01*
X113448987Y-113576962D01*
X113667641Y-113723061D01*
X113910595Y-113823696D01*
X114168514Y-113875000D01*
X114431486Y-113875000D01*
X114509354Y-113859511D01*
X117527653Y-116877810D01*
X117552236Y-116907764D01*
X117671767Y-117005862D01*
X117808140Y-117078754D01*
X117956113Y-117123642D01*
X118031026Y-117131020D01*
X118071439Y-117135000D01*
X118071444Y-117135000D01*
X118110000Y-117138797D01*
X118148556Y-117135000D01*
X130771447Y-117135000D01*
X130810000Y-117138797D01*
X130848553Y-117135000D01*
X130848561Y-117135000D01*
X130963887Y-117123641D01*
X131111860Y-117078754D01*
X131248233Y-117005862D01*
X131367764Y-116907764D01*
X131392347Y-116877810D01*
X137687816Y-110582342D01*
X137717764Y-110557764D01*
X137742346Y-110527812D01*
X137766450Y-110498441D01*
X137815862Y-110438233D01*
X137888754Y-110301860D01*
X137933641Y-110153887D01*
X137945000Y-110038561D01*
X137945000Y-110038554D01*
X137948797Y-110000001D01*
X137945000Y-109961448D01*
X137945000Y-108547285D01*
X145545000Y-108547285D01*
X145545000Y-109302715D01*
X145692377Y-110043628D01*
X145981467Y-110741554D01*
X146401161Y-111369670D01*
X146935330Y-111903839D01*
X147563446Y-112323533D01*
X148261372Y-112612623D01*
X149002285Y-112760000D01*
X149757715Y-112760000D01*
X150498628Y-112612623D01*
X151196554Y-112323533D01*
X151824670Y-111903839D01*
X152358839Y-111369670D01*
X152778533Y-110741554D01*
X153067623Y-110043628D01*
X153215000Y-109302715D01*
X153215000Y-108547285D01*
X153067623Y-107806372D01*
X152778533Y-107108446D01*
X152358839Y-106480330D01*
X151824670Y-105946161D01*
X151196554Y-105526467D01*
X150498628Y-105237377D01*
X149757715Y-105090000D01*
X149002285Y-105090000D01*
X148261372Y-105237377D01*
X147563446Y-105526467D01*
X146935330Y-105946161D01*
X146401161Y-106480330D01*
X145981467Y-107108446D01*
X145692377Y-107806372D01*
X145545000Y-108547285D01*
X137945000Y-108547285D01*
X137945000Y-107451474D01*
X138106632Y-107343475D01*
X138313475Y-107136632D01*
X138430000Y-106962240D01*
X138546525Y-107136632D01*
X138753368Y-107343475D01*
X138996589Y-107505990D01*
X139266842Y-107617932D01*
X139553740Y-107675000D01*
X139846260Y-107675000D01*
X140133158Y-107617932D01*
X140403411Y-107505990D01*
X140646632Y-107343475D01*
X140771710Y-107218397D01*
X141391208Y-107218397D01*
X141468843Y-107467472D01*
X141732883Y-107593371D01*
X142016411Y-107665339D01*
X142308531Y-107680611D01*
X142598019Y-107638599D01*
X142873747Y-107540919D01*
X143011157Y-107467472D01*
X143088792Y-107218397D01*
X142240000Y-106369605D01*
X141391208Y-107218397D01*
X140771710Y-107218397D01*
X140853475Y-107136632D01*
X140969311Y-106963271D01*
X141211603Y-107038792D01*
X142060395Y-106190000D01*
X142419605Y-106190000D01*
X143268397Y-107038792D01*
X143517472Y-106961157D01*
X143643371Y-106697117D01*
X143715339Y-106413589D01*
X143730611Y-106121469D01*
X143688599Y-105831981D01*
X143590919Y-105556253D01*
X143517472Y-105418843D01*
X143268397Y-105341208D01*
X142419605Y-106190000D01*
X142060395Y-106190000D01*
X141211603Y-105341208D01*
X140969311Y-105416729D01*
X140853475Y-105243368D01*
X140771710Y-105161603D01*
X141391208Y-105161603D01*
X142240000Y-106010395D01*
X143088792Y-105161603D01*
X143011157Y-104912528D01*
X142747117Y-104786629D01*
X142463589Y-104714661D01*
X142171469Y-104699389D01*
X141881981Y-104741401D01*
X141606253Y-104839081D01*
X141468843Y-104912528D01*
X141391208Y-105161603D01*
X140771710Y-105161603D01*
X140646632Y-105036525D01*
X140403411Y-104874010D01*
X140133158Y-104762068D01*
X139846260Y-104705000D01*
X139553740Y-104705000D01*
X139266842Y-104762068D01*
X138996589Y-104874010D01*
X138753368Y-105036525D01*
X138546525Y-105243368D01*
X138430000Y-105417760D01*
X138313475Y-105243368D01*
X138106632Y-105036525D01*
X137863411Y-104874010D01*
X137593158Y-104762068D01*
X137306260Y-104705000D01*
X137013740Y-104705000D01*
X136726842Y-104762068D01*
X136456589Y-104874010D01*
X136213368Y-105036525D01*
X136006525Y-105243368D01*
X135890000Y-105417760D01*
X135773475Y-105243368D01*
X135566632Y-105036525D01*
X135323411Y-104874010D01*
X135053158Y-104762068D01*
X134766260Y-104705000D01*
X134473740Y-104705000D01*
X134186842Y-104762068D01*
X133916589Y-104874010D01*
X133673368Y-105036525D01*
X133466525Y-105243368D01*
X133350000Y-105417760D01*
X133233475Y-105243368D01*
X133026632Y-105036525D01*
X132783411Y-104874010D01*
X132513158Y-104762068D01*
X132226260Y-104705000D01*
X131933740Y-104705000D01*
X131646842Y-104762068D01*
X131376589Y-104874010D01*
X131133368Y-105036525D01*
X130926525Y-105243368D01*
X130810000Y-105417760D01*
X130693475Y-105243368D01*
X130486632Y-105036525D01*
X130243411Y-104874010D01*
X129973158Y-104762068D01*
X129686260Y-104705000D01*
X129393740Y-104705000D01*
X129106842Y-104762068D01*
X128836589Y-104874010D01*
X128593368Y-105036525D01*
X128386525Y-105243368D01*
X128224010Y-105486589D01*
X128112068Y-105756842D01*
X128055000Y-106043740D01*
X128055000Y-106336260D01*
X128112068Y-106623158D01*
X128224010Y-106893411D01*
X128386525Y-107136632D01*
X128593368Y-107343475D01*
X128755001Y-107451475D01*
X128755000Y-113484843D01*
X128579843Y-113660000D01*
X125186737Y-113660000D01*
X125311013Y-113576962D01*
X125496962Y-113391013D01*
X125643061Y-113172359D01*
X125743696Y-112929405D01*
X125795000Y-112671486D01*
X125795000Y-112408514D01*
X125743696Y-112150595D01*
X125643061Y-111907641D01*
X125496962Y-111688987D01*
X125311013Y-111503038D01*
X125092359Y-111356939D01*
X124882470Y-111270000D01*
X125092359Y-111183061D01*
X125311013Y-111036962D01*
X125496962Y-110851013D01*
X125643061Y-110632359D01*
X125743696Y-110389405D01*
X125795000Y-110131486D01*
X125795000Y-109868514D01*
X125743696Y-109610595D01*
X125643061Y-109367641D01*
X125496962Y-109148987D01*
X125311013Y-108963038D01*
X125092359Y-108816939D01*
X124849405Y-108716304D01*
X124591486Y-108665000D01*
X124328514Y-108665000D01*
X124070595Y-108716304D01*
X123827641Y-108816939D01*
X123608987Y-108963038D01*
X123423038Y-109148987D01*
X123276939Y-109367641D01*
X123190000Y-109577530D01*
X123103061Y-109367641D01*
X122956962Y-109148987D01*
X122771013Y-108963038D01*
X122552359Y-108816939D01*
X122309405Y-108716304D01*
X122051486Y-108665000D01*
X121788514Y-108665000D01*
X121530595Y-108716304D01*
X121287641Y-108816939D01*
X121068987Y-108963038D01*
X120883038Y-109148987D01*
X120736939Y-109367641D01*
X120650000Y-109577530D01*
X120563061Y-109367641D01*
X120416962Y-109148987D01*
X120231013Y-108963038D01*
X120012359Y-108816939D01*
X119769405Y-108716304D01*
X119511486Y-108665000D01*
X119248514Y-108665000D01*
X118990595Y-108716304D01*
X118747641Y-108816939D01*
X118528987Y-108963038D01*
X118343038Y-109148987D01*
X118196939Y-109367641D01*
X118110000Y-109577530D01*
X118023061Y-109367641D01*
X117876962Y-109148987D01*
X117691013Y-108963038D01*
X117472359Y-108816939D01*
X117229405Y-108716304D01*
X116971486Y-108665000D01*
X116708514Y-108665000D01*
X116450595Y-108716304D01*
X116207641Y-108816939D01*
X115988987Y-108963038D01*
X115803038Y-109148987D01*
X115656939Y-109367641D01*
X115570000Y-109577530D01*
X115483061Y-109367641D01*
X115336962Y-109148987D01*
X115151013Y-108963038D01*
X115085000Y-108918930D01*
X115085000Y-108768556D01*
X115088797Y-108730000D01*
X115085000Y-108691440D01*
X115085000Y-108691439D01*
X115081020Y-108651026D01*
X115073642Y-108576113D01*
X115028754Y-108428140D01*
X114955862Y-108291767D01*
X114857764Y-108172236D01*
X114827811Y-108147654D01*
X114172500Y-107492343D01*
X114172500Y-107354513D01*
X114277962Y-107267962D01*
X114300000Y-107241109D01*
X114322038Y-107267962D01*
X114456613Y-107378405D01*
X114610148Y-107460472D01*
X114776744Y-107511008D01*
X114949998Y-107528072D01*
X115475002Y-107528072D01*
X115648256Y-107511008D01*
X115814852Y-107460472D01*
X115968387Y-107378405D01*
X116102962Y-107267962D01*
X116213405Y-107133387D01*
X116295472Y-106979852D01*
X116296944Y-106975000D01*
X116788392Y-106975000D01*
X116917688Y-107168505D01*
X117131495Y-107382312D01*
X117382905Y-107550299D01*
X117662257Y-107666011D01*
X117958816Y-107725000D01*
X118261184Y-107725000D01*
X118557743Y-107666011D01*
X118837095Y-107550299D01*
X119088505Y-107382312D01*
X119154944Y-107315873D01*
X119160498Y-107334180D01*
X119219463Y-107444494D01*
X119298815Y-107541185D01*
X119395506Y-107620537D01*
X119505820Y-107679502D01*
X119625518Y-107715812D01*
X119750000Y-107728072D01*
X121550000Y-107728072D01*
X121674482Y-107715812D01*
X121794180Y-107679502D01*
X121904494Y-107620537D01*
X122001185Y-107541185D01*
X122080537Y-107444494D01*
X122139502Y-107334180D01*
X122175812Y-107214482D01*
X122188072Y-107090000D01*
X122188072Y-105290000D01*
X122175812Y-105165518D01*
X122139502Y-105045820D01*
X122080537Y-104935506D01*
X122001185Y-104838815D01*
X121904494Y-104759463D01*
X121794180Y-104700498D01*
X121674482Y-104664188D01*
X121550000Y-104651928D01*
X119750000Y-104651928D01*
X119625518Y-104664188D01*
X119505820Y-104700498D01*
X119395506Y-104759463D01*
X119298815Y-104838815D01*
X119219463Y-104935506D01*
X119160498Y-105045820D01*
X119154944Y-105064127D01*
X119088505Y-104997688D01*
X118837095Y-104829701D01*
X118557743Y-104713989D01*
X118261184Y-104655000D01*
X117958816Y-104655000D01*
X117662257Y-104713989D01*
X117382905Y-104829701D01*
X117131495Y-104997688D01*
X116917688Y-105211495D01*
X116788392Y-105405000D01*
X116296944Y-105405000D01*
X116295472Y-105400148D01*
X116213405Y-105246613D01*
X116102962Y-105112038D01*
X115968387Y-105001595D01*
X115814852Y-104919528D01*
X115648256Y-104868992D01*
X115475002Y-104851928D01*
X114949998Y-104851928D01*
X114776744Y-104868992D01*
X114610148Y-104919528D01*
X114456613Y-105001595D01*
X114322038Y-105112038D01*
X114300000Y-105138891D01*
X114277962Y-105112038D01*
X114143387Y-105001595D01*
X113989852Y-104919528D01*
X113823256Y-104868992D01*
X113650002Y-104851928D01*
X113124998Y-104851928D01*
X112951744Y-104868992D01*
X112785148Y-104919528D01*
X112631613Y-105001595D01*
X112497038Y-105112038D01*
X112386595Y-105246613D01*
X112304528Y-105400148D01*
X112253992Y-105566744D01*
X112236928Y-105739998D01*
X112236928Y-106640002D01*
X112253992Y-106813256D01*
X112304528Y-106979852D01*
X112386595Y-107133387D01*
X112497038Y-107267962D01*
X112602501Y-107354513D01*
X112602501Y-107778938D01*
X112598703Y-107817500D01*
X112613859Y-107971386D01*
X112658746Y-108119359D01*
X112658747Y-108119360D01*
X112731639Y-108255733D01*
X112739430Y-108265226D01*
X112805155Y-108345312D01*
X112805159Y-108345316D01*
X112829737Y-108375264D01*
X112859685Y-108399842D01*
X113435934Y-108976091D01*
X113263038Y-109148987D01*
X113116939Y-109367641D01*
X113030000Y-109577530D01*
X112943061Y-109367641D01*
X112796962Y-109148987D01*
X112611013Y-108963038D01*
X112545000Y-108918930D01*
X112545000Y-108768552D01*
X112548797Y-108729999D01*
X112545000Y-108691446D01*
X112545000Y-108691439D01*
X112533641Y-108576113D01*
X112488754Y-108428140D01*
X112415862Y-108291767D01*
X112359565Y-108223170D01*
X112342345Y-108202187D01*
X112342342Y-108202184D01*
X112317764Y-108172236D01*
X112287817Y-108147659D01*
X111072345Y-106932188D01*
X111047764Y-106902236D01*
X110928233Y-106804138D01*
X110791860Y-106731246D01*
X110643887Y-106686359D01*
X110528561Y-106675000D01*
X110528553Y-106675000D01*
X110490000Y-106671203D01*
X110451447Y-106675000D01*
X110200107Y-106675000D01*
X110373475Y-106501632D01*
X110535990Y-106258411D01*
X110647932Y-105988158D01*
X110705000Y-105701260D01*
X110705000Y-105408740D01*
X110647932Y-105121842D01*
X110535990Y-104851589D01*
X110373475Y-104608368D01*
X110350107Y-104585000D01*
X152347721Y-104585000D01*
X152639659Y-104613625D01*
X152889429Y-104689035D01*
X153119792Y-104811522D01*
X153321980Y-104976422D01*
X153488286Y-105177450D01*
X153612378Y-105406954D01*
X153689531Y-105656195D01*
X153720001Y-105946098D01*
X153720000Y-146892721D01*
X153691375Y-147184660D01*
X153615965Y-147434429D01*
X153493477Y-147664794D01*
X153328579Y-147866979D01*
X153127546Y-148033288D01*
X152898046Y-148157378D01*
X152648805Y-148234531D01*
X152358911Y-148265000D01*
X86412279Y-148265000D01*
X86120340Y-148236375D01*
X85870571Y-148160965D01*
X85640206Y-148038477D01*
X85438021Y-147873579D01*
X85271712Y-147672546D01*
X85147622Y-147443046D01*
X85070469Y-147193805D01*
X85040000Y-146903911D01*
X85040000Y-143547285D01*
X85545000Y-143547285D01*
X85545000Y-144302715D01*
X85692377Y-145043628D01*
X85981467Y-145741554D01*
X86401161Y-146369670D01*
X86935330Y-146903839D01*
X87563446Y-147323533D01*
X88261372Y-147612623D01*
X89002285Y-147760000D01*
X89757715Y-147760000D01*
X90498628Y-147612623D01*
X91196554Y-147323533D01*
X91824670Y-146903839D01*
X92358839Y-146369670D01*
X92778533Y-145741554D01*
X93067623Y-145043628D01*
X93135712Y-144701320D01*
X95020000Y-144701320D01*
X95020000Y-145148679D01*
X95041705Y-145369050D01*
X95127476Y-145651801D01*
X95266762Y-145912386D01*
X95454208Y-146140792D01*
X95682613Y-146328238D01*
X95943198Y-146467524D01*
X96225949Y-146553295D01*
X96520000Y-146582257D01*
X96814050Y-146553295D01*
X97096801Y-146467524D01*
X97357386Y-146328238D01*
X97585792Y-146140792D01*
X97773238Y-145912387D01*
X97790000Y-145881027D01*
X97806762Y-145912386D01*
X97994208Y-146140792D01*
X98222613Y-146328238D01*
X98483198Y-146467524D01*
X98765949Y-146553295D01*
X99060000Y-146582257D01*
X99354050Y-146553295D01*
X99636801Y-146467524D01*
X99897386Y-146328238D01*
X100125792Y-146140792D01*
X100313238Y-145912387D01*
X100330000Y-145881027D01*
X100346762Y-145912386D01*
X100534208Y-146140792D01*
X100762613Y-146328238D01*
X101023198Y-146467524D01*
X101305949Y-146553295D01*
X101600000Y-146582257D01*
X101894050Y-146553295D01*
X102176801Y-146467524D01*
X102437386Y-146328238D01*
X102665792Y-146140792D01*
X102670570Y-146134970D01*
X102685498Y-146184180D01*
X102744463Y-146294494D01*
X102823815Y-146391185D01*
X102920506Y-146470537D01*
X103030820Y-146529502D01*
X103150518Y-146565812D01*
X103275000Y-146578072D01*
X105005000Y-146578072D01*
X105129482Y-146565812D01*
X105249180Y-146529502D01*
X105359494Y-146470537D01*
X105456185Y-146391185D01*
X105535537Y-146294494D01*
X105594502Y-146184180D01*
X105630812Y-146064482D01*
X105643072Y-145940000D01*
X105643072Y-143910000D01*
X105630812Y-143785518D01*
X105594502Y-143665820D01*
X105535537Y-143555506D01*
X105456185Y-143458815D01*
X105359494Y-143379463D01*
X105249180Y-143320498D01*
X105129482Y-143284188D01*
X105005000Y-143271928D01*
X103275000Y-143271928D01*
X103150518Y-143284188D01*
X103030820Y-143320498D01*
X102920506Y-143379463D01*
X102823815Y-143458815D01*
X102744463Y-143555506D01*
X102685498Y-143665820D01*
X102670570Y-143715030D01*
X102665792Y-143709208D01*
X102437387Y-143521762D01*
X102176802Y-143382476D01*
X101894051Y-143296705D01*
X101600000Y-143267743D01*
X101305950Y-143296705D01*
X101023199Y-143382476D01*
X100762614Y-143521762D01*
X100534208Y-143709208D01*
X100346762Y-143937613D01*
X100330000Y-143968972D01*
X100313238Y-143937613D01*
X100125792Y-143709208D01*
X99897387Y-143521762D01*
X99845000Y-143493760D01*
X99845000Y-142710157D01*
X100020157Y-142535000D01*
X108435000Y-142535000D01*
X108435000Y-143493761D01*
X108382614Y-143521762D01*
X108154208Y-143709208D01*
X107966762Y-143937613D01*
X107827476Y-144198198D01*
X107741705Y-144480949D01*
X107720000Y-144701320D01*
X107720000Y-145148679D01*
X107741705Y-145369050D01*
X107827476Y-145651801D01*
X107966762Y-145912386D01*
X108154208Y-146140792D01*
X108382613Y-146328238D01*
X108643198Y-146467524D01*
X108925949Y-146553295D01*
X109220000Y-146582257D01*
X109514050Y-146553295D01*
X109796801Y-146467524D01*
X110057386Y-146328238D01*
X110285792Y-146140792D01*
X110473238Y-145912387D01*
X110490000Y-145881027D01*
X110506762Y-145912386D01*
X110694208Y-146140792D01*
X110922613Y-146328238D01*
X111183198Y-146467524D01*
X111465949Y-146553295D01*
X111760000Y-146582257D01*
X112054050Y-146553295D01*
X112336801Y-146467524D01*
X112597386Y-146328238D01*
X112825792Y-146140792D01*
X113013238Y-145912387D01*
X113030000Y-145881027D01*
X113046762Y-145912386D01*
X113234208Y-146140792D01*
X113462613Y-146328238D01*
X113723198Y-146467524D01*
X114005949Y-146553295D01*
X114300000Y-146582257D01*
X114594050Y-146553295D01*
X114876801Y-146467524D01*
X115137386Y-146328238D01*
X115365792Y-146140792D01*
X115370570Y-146134970D01*
X115385498Y-146184180D01*
X115444463Y-146294494D01*
X115523815Y-146391185D01*
X115620506Y-146470537D01*
X115730820Y-146529502D01*
X115850518Y-146565812D01*
X115975000Y-146578072D01*
X117705000Y-146578072D01*
X117829482Y-146565812D01*
X117949180Y-146529502D01*
X118059494Y-146470537D01*
X118156185Y-146391185D01*
X118235537Y-146294494D01*
X118294502Y-146184180D01*
X118330812Y-146064482D01*
X118343072Y-145940000D01*
X118343072Y-143910000D01*
X118330812Y-143785518D01*
X118294502Y-143665820D01*
X118235537Y-143555506D01*
X118156185Y-143458815D01*
X118059494Y-143379463D01*
X117949180Y-143320498D01*
X117829482Y-143284188D01*
X117705000Y-143271928D01*
X115975000Y-143271928D01*
X115850518Y-143284188D01*
X115730820Y-143320498D01*
X115620506Y-143379463D01*
X115523815Y-143458815D01*
X115444463Y-143555506D01*
X115385498Y-143665820D01*
X115370570Y-143715030D01*
X115365792Y-143709208D01*
X115137387Y-143521762D01*
X114876802Y-143382476D01*
X114594051Y-143296705D01*
X114300000Y-143267743D01*
X114005950Y-143296705D01*
X113723199Y-143382476D01*
X113462614Y-143521762D01*
X113234208Y-143709208D01*
X113046762Y-143937613D01*
X113030000Y-143968972D01*
X113013238Y-143937613D01*
X112825792Y-143709208D01*
X112597387Y-143521762D01*
X112545000Y-143493760D01*
X112545000Y-139021070D01*
X112611013Y-138976962D01*
X112796962Y-138791013D01*
X112943061Y-138572359D01*
X113030000Y-138362470D01*
X113116939Y-138572359D01*
X113263038Y-138791013D01*
X113448987Y-138976962D01*
X113515000Y-139021070D01*
X113515001Y-141076437D01*
X113511203Y-141115000D01*
X113526359Y-141268886D01*
X113571246Y-141416859D01*
X113571247Y-141416860D01*
X113644139Y-141553233D01*
X113656398Y-141568170D01*
X113717655Y-141642812D01*
X113717656Y-141642813D01*
X113742237Y-141672764D01*
X113772185Y-141697342D01*
X114352653Y-142277810D01*
X114377236Y-142307764D01*
X114496767Y-142405862D01*
X114633140Y-142478754D01*
X114781113Y-142523642D01*
X114856026Y-142531020D01*
X114896439Y-142535000D01*
X114896444Y-142535000D01*
X114935000Y-142538797D01*
X114973556Y-142535000D01*
X120959843Y-142535000D01*
X121135000Y-142710157D01*
X121135000Y-143493761D01*
X121082614Y-143521762D01*
X120854208Y-143709208D01*
X120666762Y-143937613D01*
X120527476Y-144198198D01*
X120441705Y-144480949D01*
X120420000Y-144701320D01*
X120420000Y-145148679D01*
X120441705Y-145369050D01*
X120527476Y-145651801D01*
X120666762Y-145912386D01*
X120854208Y-146140792D01*
X121082613Y-146328238D01*
X121343198Y-146467524D01*
X121625949Y-146553295D01*
X121920000Y-146582257D01*
X122214050Y-146553295D01*
X122496801Y-146467524D01*
X122757386Y-146328238D01*
X122985792Y-146140792D01*
X123173238Y-145912387D01*
X123190000Y-145881027D01*
X123206762Y-145912386D01*
X123394208Y-146140792D01*
X123622613Y-146328238D01*
X123883198Y-146467524D01*
X124165949Y-146553295D01*
X124460000Y-146582257D01*
X124754050Y-146553295D01*
X125036801Y-146467524D01*
X125297386Y-146328238D01*
X125525792Y-146140792D01*
X125713238Y-145912387D01*
X125730000Y-145881027D01*
X125746762Y-145912386D01*
X125934208Y-146140792D01*
X126162613Y-146328238D01*
X126423198Y-146467524D01*
X126705949Y-146553295D01*
X127000000Y-146582257D01*
X127294050Y-146553295D01*
X127576801Y-146467524D01*
X127837386Y-146328238D01*
X128065792Y-146140792D01*
X128070570Y-146134970D01*
X128085498Y-146184180D01*
X128144463Y-146294494D01*
X128223815Y-146391185D01*
X128320506Y-146470537D01*
X128430820Y-146529502D01*
X128550518Y-146565812D01*
X128675000Y-146578072D01*
X130405000Y-146578072D01*
X130529482Y-146565812D01*
X130649180Y-146529502D01*
X130759494Y-146470537D01*
X130856185Y-146391185D01*
X130935537Y-146294494D01*
X130994502Y-146184180D01*
X131030812Y-146064482D01*
X131043072Y-145940000D01*
X131043072Y-143910000D01*
X131030812Y-143785518D01*
X130994502Y-143665820D01*
X130935537Y-143555506D01*
X130856185Y-143458815D01*
X130759494Y-143379463D01*
X130649180Y-143320498D01*
X130529482Y-143284188D01*
X130405000Y-143271928D01*
X128675000Y-143271928D01*
X128550518Y-143284188D01*
X128430820Y-143320498D01*
X128320506Y-143379463D01*
X128223815Y-143458815D01*
X128144463Y-143555506D01*
X128085498Y-143665820D01*
X128070570Y-143715030D01*
X128065792Y-143709208D01*
X127837387Y-143521762D01*
X127576802Y-143382476D01*
X127294051Y-143296705D01*
X127000000Y-143267743D01*
X126705950Y-143296705D01*
X126423199Y-143382476D01*
X126162614Y-143521762D01*
X125934208Y-143709208D01*
X125746762Y-143937613D01*
X125730000Y-143968972D01*
X125713238Y-143937613D01*
X125525792Y-143709208D01*
X125297387Y-143521762D01*
X125245000Y-143493760D01*
X125245000Y-141788556D01*
X125248797Y-141750000D01*
X125245000Y-141711440D01*
X125245000Y-141711439D01*
X125238241Y-141642812D01*
X125233642Y-141596113D01*
X125188754Y-141448140D01*
X125175349Y-141423061D01*
X125115862Y-141311767D01*
X125077481Y-141265000D01*
X133659843Y-141265000D01*
X133835000Y-141440157D01*
X133835001Y-143493761D01*
X133782614Y-143521762D01*
X133554208Y-143709208D01*
X133366762Y-143937613D01*
X133227476Y-144198198D01*
X133141705Y-144480949D01*
X133120000Y-144701320D01*
X133120000Y-145148679D01*
X133141705Y-145369050D01*
X133227476Y-145651801D01*
X133366762Y-145912386D01*
X133554208Y-146140792D01*
X133782613Y-146328238D01*
X134043198Y-146467524D01*
X134325949Y-146553295D01*
X134620000Y-146582257D01*
X134914050Y-146553295D01*
X135196801Y-146467524D01*
X135457386Y-146328238D01*
X135685792Y-146140792D01*
X135873238Y-145912387D01*
X135890000Y-145881027D01*
X135906762Y-145912386D01*
X136094208Y-146140792D01*
X136322613Y-146328238D01*
X136583198Y-146467524D01*
X136865949Y-146553295D01*
X137160000Y-146582257D01*
X137454050Y-146553295D01*
X137736801Y-146467524D01*
X137997386Y-146328238D01*
X138225792Y-146140792D01*
X138413238Y-145912387D01*
X138430000Y-145881027D01*
X138446762Y-145912386D01*
X138634208Y-146140792D01*
X138862613Y-146328238D01*
X139123198Y-146467524D01*
X139405949Y-146553295D01*
X139700000Y-146582257D01*
X139994050Y-146553295D01*
X140276801Y-146467524D01*
X140537386Y-146328238D01*
X140765792Y-146140792D01*
X140770570Y-146134970D01*
X140785498Y-146184180D01*
X140844463Y-146294494D01*
X140923815Y-146391185D01*
X141020506Y-146470537D01*
X141130820Y-146529502D01*
X141250518Y-146565812D01*
X141375000Y-146578072D01*
X143105000Y-146578072D01*
X143229482Y-146565812D01*
X143349180Y-146529502D01*
X143459494Y-146470537D01*
X143556185Y-146391185D01*
X143635537Y-146294494D01*
X143694502Y-146184180D01*
X143730812Y-146064482D01*
X143743072Y-145940000D01*
X143743072Y-143910000D01*
X143730812Y-143785518D01*
X143694502Y-143665820D01*
X143635537Y-143555506D01*
X143628791Y-143547285D01*
X145545000Y-143547285D01*
X145545000Y-144302715D01*
X145692377Y-145043628D01*
X145981467Y-145741554D01*
X146401161Y-146369670D01*
X146935330Y-146903839D01*
X147563446Y-147323533D01*
X148261372Y-147612623D01*
X149002285Y-147760000D01*
X149757715Y-147760000D01*
X150498628Y-147612623D01*
X151196554Y-147323533D01*
X151824670Y-146903839D01*
X152358839Y-146369670D01*
X152778533Y-145741554D01*
X153067623Y-145043628D01*
X153215000Y-144302715D01*
X153215000Y-143547285D01*
X153067623Y-142806372D01*
X152778533Y-142108446D01*
X152358839Y-141480330D01*
X151824670Y-140946161D01*
X151196554Y-140526467D01*
X150498628Y-140237377D01*
X149757715Y-140090000D01*
X149002285Y-140090000D01*
X148261372Y-140237377D01*
X147563446Y-140526467D01*
X146935330Y-140946161D01*
X146401161Y-141480330D01*
X145981467Y-142108446D01*
X145692377Y-142806372D01*
X145545000Y-143547285D01*
X143628791Y-143547285D01*
X143556185Y-143458815D01*
X143459494Y-143379463D01*
X143349180Y-143320498D01*
X143229482Y-143284188D01*
X143105000Y-143271928D01*
X141375000Y-143271928D01*
X141250518Y-143284188D01*
X141130820Y-143320498D01*
X141085000Y-143344990D01*
X141085000Y-139148685D01*
X144279139Y-135954546D01*
X144532787Y-136005000D01*
X145027213Y-136005000D01*
X145512140Y-135908542D01*
X145968931Y-135719333D01*
X146380032Y-135444644D01*
X146729644Y-135095032D01*
X147004333Y-134683931D01*
X147193542Y-134227140D01*
X147290000Y-133742213D01*
X147290000Y-133247787D01*
X147287551Y-133235475D01*
X148145000Y-133235475D01*
X148145000Y-133754525D01*
X148246261Y-134263601D01*
X148444893Y-134743141D01*
X148733262Y-135174715D01*
X149100285Y-135541738D01*
X149531859Y-135830107D01*
X150011399Y-136028739D01*
X150520475Y-136130000D01*
X151039525Y-136130000D01*
X151548601Y-136028739D01*
X152028141Y-135830107D01*
X152459715Y-135541738D01*
X152826738Y-135174715D01*
X153115107Y-134743141D01*
X153313739Y-134263601D01*
X153415000Y-133754525D01*
X153415000Y-133235475D01*
X153313739Y-132726399D01*
X153115107Y-132246859D01*
X152826738Y-131815285D01*
X152459715Y-131448262D01*
X152028141Y-131159893D01*
X151548601Y-130961261D01*
X151039525Y-130860000D01*
X150520475Y-130860000D01*
X150011399Y-130961261D01*
X149531859Y-131159893D01*
X149100285Y-131448262D01*
X148733262Y-131815285D01*
X148444893Y-132246859D01*
X148246261Y-132726399D01*
X148145000Y-133235475D01*
X147287551Y-133235475D01*
X147193542Y-132762860D01*
X147004333Y-132306069D01*
X146729644Y-131894968D01*
X146380032Y-131545356D01*
X145968931Y-131270667D01*
X145512140Y-131081458D01*
X145027213Y-130985000D01*
X144532787Y-130985000D01*
X144279139Y-131035454D01*
X141791472Y-128547787D01*
X145270000Y-128547787D01*
X145270000Y-129042213D01*
X145366458Y-129527140D01*
X145555667Y-129983931D01*
X145830356Y-130395032D01*
X146179968Y-130744644D01*
X146591069Y-131019333D01*
X147047860Y-131208542D01*
X147532787Y-131305000D01*
X148027213Y-131305000D01*
X148512140Y-131208542D01*
X148968931Y-131019333D01*
X149380032Y-130744644D01*
X149729644Y-130395032D01*
X150004333Y-129983931D01*
X150193542Y-129527140D01*
X150290000Y-129042213D01*
X150290000Y-128547787D01*
X150193542Y-128062860D01*
X150004333Y-127606069D01*
X149729644Y-127194968D01*
X149380032Y-126845356D01*
X148968931Y-126570667D01*
X148512140Y-126381458D01*
X148027213Y-126285000D01*
X147532787Y-126285000D01*
X147047860Y-126381458D01*
X146591069Y-126570667D01*
X146179968Y-126845356D01*
X145830356Y-127194968D01*
X145555667Y-127606069D01*
X145366458Y-128062860D01*
X145270000Y-128547787D01*
X141791472Y-128547787D01*
X141085000Y-127841315D01*
X141085000Y-120863026D01*
X141091700Y-120794999D01*
X141085000Y-120726972D01*
X141085000Y-120726963D01*
X141064960Y-120523493D01*
X140985764Y-120262419D01*
X140857157Y-120021812D01*
X140684081Y-119810919D01*
X140631236Y-119767550D01*
X139457454Y-118593769D01*
X139414081Y-118540919D01*
X139203188Y-118367843D01*
X138962581Y-118239236D01*
X138701507Y-118160040D01*
X138498037Y-118140000D01*
X138498029Y-118140000D01*
X138430000Y-118133300D01*
X138361971Y-118140000D01*
X135564350Y-118140000D01*
X135566632Y-118138475D01*
X135773475Y-117931632D01*
X135935990Y-117688411D01*
X136047932Y-117418158D01*
X136105000Y-117131260D01*
X136105000Y-116838740D01*
X136047932Y-116551842D01*
X135935990Y-116281589D01*
X135773475Y-116038368D01*
X135566632Y-115831525D01*
X135323411Y-115669010D01*
X135053158Y-115557068D01*
X134766260Y-115500000D01*
X134473740Y-115500000D01*
X134186842Y-115557068D01*
X133916589Y-115669010D01*
X133673368Y-115831525D01*
X133466525Y-116038368D01*
X133304010Y-116281589D01*
X133192068Y-116551842D01*
X133135000Y-116838740D01*
X133135000Y-117131260D01*
X133192068Y-117418158D01*
X133304010Y-117688411D01*
X133466525Y-117931632D01*
X133673368Y-118138475D01*
X133847760Y-118255000D01*
X133673368Y-118371525D01*
X133466525Y-118578368D01*
X133304010Y-118821589D01*
X133192068Y-119091842D01*
X133135000Y-119378740D01*
X133135000Y-119671260D01*
X133192068Y-119958158D01*
X133304010Y-120228411D01*
X133466525Y-120471632D01*
X133673368Y-120678475D01*
X133847760Y-120795000D01*
X133673368Y-120911525D01*
X133466525Y-121118368D01*
X133304010Y-121361589D01*
X133192068Y-121631842D01*
X133135000Y-121918740D01*
X133135000Y-122211260D01*
X133192068Y-122498158D01*
X133304010Y-122768411D01*
X133466525Y-123011632D01*
X133673368Y-123218475D01*
X133855534Y-123340195D01*
X133738645Y-123409822D01*
X133522412Y-123604731D01*
X133348359Y-123838080D01*
X133223175Y-124100901D01*
X133178524Y-124248110D01*
X133299845Y-124478000D01*
X134493000Y-124478000D01*
X134493000Y-124458000D01*
X134747000Y-124458000D01*
X134747000Y-124478000D01*
X135940155Y-124478000D01*
X136061476Y-124248110D01*
X136016825Y-124100901D01*
X135891641Y-123838080D01*
X135717588Y-123604731D01*
X135501355Y-123409822D01*
X135384466Y-123340195D01*
X135566632Y-123218475D01*
X135773475Y-123011632D01*
X135935990Y-122768411D01*
X136047932Y-122498158D01*
X136105000Y-122211260D01*
X136105000Y-121918740D01*
X136047932Y-121631842D01*
X135935990Y-121361589D01*
X135773475Y-121118368D01*
X135566632Y-120911525D01*
X135564350Y-120910000D01*
X137856315Y-120910000D01*
X138315001Y-121368687D01*
X138315000Y-128346971D01*
X138308300Y-128415000D01*
X138315000Y-128483029D01*
X138315000Y-128483036D01*
X138335040Y-128686506D01*
X138414236Y-128947580D01*
X138542843Y-129188187D01*
X138715919Y-129399080D01*
X138768765Y-129442450D01*
X142320454Y-132994139D01*
X142270000Y-133247787D01*
X142270000Y-133742213D01*
X142320454Y-133995861D01*
X138768765Y-137547550D01*
X138715919Y-137590920D01*
X138542843Y-137801813D01*
X138414236Y-138042420D01*
X138335040Y-138303494D01*
X138315000Y-138506964D01*
X138315000Y-138506971D01*
X138308300Y-138575000D01*
X138315000Y-138643029D01*
X138315001Y-143817910D01*
X138225792Y-143709208D01*
X137997387Y-143521762D01*
X137945000Y-143493760D01*
X137945000Y-140518556D01*
X137948797Y-140480000D01*
X137945000Y-140441440D01*
X137945000Y-140441439D01*
X137935143Y-140341358D01*
X137933642Y-140326113D01*
X137888754Y-140178140D01*
X137815862Y-140041767D01*
X137717764Y-139922236D01*
X137687811Y-139897654D01*
X137107345Y-139317188D01*
X137082764Y-139287236D01*
X136963233Y-139189138D01*
X136826860Y-139116246D01*
X136678887Y-139071359D01*
X136563561Y-139060000D01*
X136563553Y-139060000D01*
X136525000Y-139056203D01*
X136486447Y-139060000D01*
X125186737Y-139060000D01*
X125311013Y-138976962D01*
X125496962Y-138791013D01*
X125643061Y-138572359D01*
X125743696Y-138329405D01*
X125795000Y-138071486D01*
X125795000Y-137808514D01*
X125743696Y-137550595D01*
X125643061Y-137307641D01*
X125496962Y-137088987D01*
X125311013Y-136903038D01*
X125092359Y-136756939D01*
X124882470Y-136670000D01*
X125092359Y-136583061D01*
X125311013Y-136436962D01*
X125496962Y-136251013D01*
X125643061Y-136032359D01*
X125743696Y-135789405D01*
X125795000Y-135531486D01*
X125795000Y-135268514D01*
X125743696Y-135010595D01*
X125643061Y-134767641D01*
X125496962Y-134548987D01*
X125311013Y-134363038D01*
X125092359Y-134216939D01*
X124849405Y-134116304D01*
X124591486Y-134065000D01*
X124328514Y-134065000D01*
X124070595Y-134116304D01*
X123827641Y-134216939D01*
X123608987Y-134363038D01*
X123423038Y-134548987D01*
X123276939Y-134767641D01*
X123190000Y-134977530D01*
X123103061Y-134767641D01*
X122956962Y-134548987D01*
X122771013Y-134363038D01*
X122552359Y-134216939D01*
X122309405Y-134116304D01*
X122051486Y-134065000D01*
X121788514Y-134065000D01*
X121530595Y-134116304D01*
X121287641Y-134216939D01*
X121068987Y-134363038D01*
X120883038Y-134548987D01*
X120736939Y-134767641D01*
X120650000Y-134977530D01*
X120563061Y-134767641D01*
X120416962Y-134548987D01*
X120231013Y-134363038D01*
X120012359Y-134216939D01*
X119769405Y-134116304D01*
X119511486Y-134065000D01*
X119248514Y-134065000D01*
X118990595Y-134116304D01*
X118895000Y-134155901D01*
X118895000Y-133501944D01*
X118899852Y-133500472D01*
X119053387Y-133418405D01*
X119187962Y-133307962D01*
X119298405Y-133173387D01*
X119380472Y-133019852D01*
X119431008Y-132853256D01*
X119448072Y-132680002D01*
X119448072Y-132154998D01*
X119431008Y-131981744D01*
X119380472Y-131815148D01*
X119298405Y-131661613D01*
X119231724Y-131580363D01*
X119261185Y-131556185D01*
X119340537Y-131459494D01*
X119399502Y-131349180D01*
X119435812Y-131229482D01*
X119448072Y-131105000D01*
X119445000Y-130878250D01*
X119286250Y-130719500D01*
X118237000Y-130719500D01*
X118237000Y-130739500D01*
X117983000Y-130739500D01*
X117983000Y-130719500D01*
X116933750Y-130719500D01*
X116840000Y-130813250D01*
X116746250Y-130719500D01*
X115697000Y-130719500D01*
X115697000Y-130739500D01*
X115443000Y-130739500D01*
X115443000Y-130719500D01*
X114393750Y-130719500D01*
X114300000Y-130813250D01*
X114206250Y-130719500D01*
X113157000Y-130719500D01*
X113157000Y-130739500D01*
X112903000Y-130739500D01*
X112903000Y-130719500D01*
X111853750Y-130719500D01*
X111695000Y-130878250D01*
X111691928Y-131105000D01*
X111704188Y-131229482D01*
X111740498Y-131349180D01*
X111799463Y-131459494D01*
X111878815Y-131556185D01*
X111908276Y-131580363D01*
X111841595Y-131661613D01*
X111759528Y-131815148D01*
X111708992Y-131981744D01*
X111691928Y-132154998D01*
X111691928Y-132680002D01*
X111708992Y-132853256D01*
X111759528Y-133019852D01*
X111841595Y-133173387D01*
X111952038Y-133307962D01*
X112086613Y-133418405D01*
X112240148Y-133500472D01*
X112245001Y-133501944D01*
X112245001Y-134155901D01*
X112149405Y-134116304D01*
X111891486Y-134065000D01*
X111628514Y-134065000D01*
X111370595Y-134116304D01*
X111127641Y-134216939D01*
X110908987Y-134363038D01*
X110723038Y-134548987D01*
X110576939Y-134767641D01*
X110490000Y-134977530D01*
X110403061Y-134767641D01*
X110256962Y-134548987D01*
X110071013Y-134363038D01*
X109852359Y-134216939D01*
X109609405Y-134116304D01*
X109351486Y-134065000D01*
X109088514Y-134065000D01*
X108830595Y-134116304D01*
X108735000Y-134155901D01*
X108735000Y-133501944D01*
X108739852Y-133500472D01*
X108893387Y-133418405D01*
X109027962Y-133307962D01*
X109138405Y-133173387D01*
X109220472Y-133019852D01*
X109271008Y-132853256D01*
X109288072Y-132680002D01*
X109288072Y-132154998D01*
X109271008Y-131981744D01*
X109220472Y-131815148D01*
X109138405Y-131661613D01*
X109071724Y-131580363D01*
X109101185Y-131556185D01*
X109180537Y-131459494D01*
X109239502Y-131349180D01*
X109275812Y-131229482D01*
X109288072Y-131105000D01*
X109285000Y-130878250D01*
X109126250Y-130719500D01*
X108077000Y-130719500D01*
X108077000Y-130739500D01*
X107823000Y-130739500D01*
X107823000Y-130719500D01*
X106773750Y-130719500D01*
X106615000Y-130878250D01*
X106611928Y-131105000D01*
X106624188Y-131229482D01*
X106660498Y-131349180D01*
X106719463Y-131459494D01*
X106798815Y-131556185D01*
X106828276Y-131580363D01*
X106761595Y-131661613D01*
X106679528Y-131815148D01*
X106628992Y-131981744D01*
X106611928Y-132154998D01*
X106611928Y-132680002D01*
X106628992Y-132853256D01*
X106679528Y-133019852D01*
X106761595Y-133173387D01*
X106872038Y-133307962D01*
X107006613Y-133418405D01*
X107160148Y-133500472D01*
X107165001Y-133501944D01*
X107165001Y-134155901D01*
X107069405Y-134116304D01*
X106811486Y-134065000D01*
X106548514Y-134065000D01*
X106290595Y-134116304D01*
X106047641Y-134216939D01*
X105828987Y-134363038D01*
X105643038Y-134548987D01*
X105496939Y-134767641D01*
X105410000Y-134977530D01*
X105323061Y-134767641D01*
X105176962Y-134548987D01*
X104991013Y-134363038D01*
X104772359Y-134216939D01*
X104529405Y-134116304D01*
X104271486Y-134065000D01*
X104008514Y-134065000D01*
X103750595Y-134116304D01*
X103507641Y-134216939D01*
X103288987Y-134363038D01*
X103103038Y-134548987D01*
X102956939Y-134767641D01*
X102870000Y-134977530D01*
X102783061Y-134767641D01*
X102636962Y-134548987D01*
X102451013Y-134363038D01*
X102232359Y-134216939D01*
X101989405Y-134116304D01*
X101731486Y-134065000D01*
X101468514Y-134065000D01*
X101210595Y-134116304D01*
X100967641Y-134216939D01*
X100748987Y-134363038D01*
X100563038Y-134548987D01*
X100416939Y-134767641D01*
X100316304Y-135010595D01*
X100265000Y-135268514D01*
X100265000Y-135531486D01*
X100316304Y-135789405D01*
X100416939Y-136032359D01*
X100563038Y-136251013D01*
X100748987Y-136436962D01*
X100967641Y-136583061D01*
X101177530Y-136670000D01*
X100967641Y-136756939D01*
X100748987Y-136903038D01*
X100563038Y-137088987D01*
X100416939Y-137307641D01*
X100316304Y-137550595D01*
X100265000Y-137808514D01*
X100265000Y-138071486D01*
X100316304Y-138329405D01*
X100416939Y-138572359D01*
X100563038Y-138791013D01*
X100748987Y-138976962D01*
X100967641Y-139123061D01*
X101210595Y-139223696D01*
X101468514Y-139275000D01*
X101731486Y-139275000D01*
X101989405Y-139223696D01*
X102232359Y-139123061D01*
X102451013Y-138976962D01*
X102636962Y-138791013D01*
X102783061Y-138572359D01*
X102870000Y-138362470D01*
X102956939Y-138572359D01*
X103103038Y-138791013D01*
X103288987Y-138976962D01*
X103507641Y-139123061D01*
X103750595Y-139223696D01*
X104008514Y-139275000D01*
X104271486Y-139275000D01*
X104529405Y-139223696D01*
X104772359Y-139123061D01*
X104991013Y-138976962D01*
X105176962Y-138791013D01*
X105323061Y-138572359D01*
X105410000Y-138362470D01*
X105496939Y-138572359D01*
X105643038Y-138791013D01*
X105828987Y-138976962D01*
X105895000Y-139021070D01*
X105895001Y-140154842D01*
X105719843Y-140330000D01*
X97193556Y-140330000D01*
X97155000Y-140326203D01*
X97116444Y-140330000D01*
X97116439Y-140330000D01*
X97076026Y-140333980D01*
X97001113Y-140341358D01*
X96853140Y-140386246D01*
X96716767Y-140459138D01*
X96597236Y-140557236D01*
X96572655Y-140587188D01*
X95992190Y-141167653D01*
X95962236Y-141192236D01*
X95864138Y-141311768D01*
X95791246Y-141448141D01*
X95746359Y-141596114D01*
X95735000Y-141711440D01*
X95735000Y-141711447D01*
X95731203Y-141750000D01*
X95735000Y-141788553D01*
X95735001Y-143493761D01*
X95682614Y-143521762D01*
X95454208Y-143709208D01*
X95266762Y-143937613D01*
X95127476Y-144198198D01*
X95041705Y-144480949D01*
X95020000Y-144701320D01*
X93135712Y-144701320D01*
X93215000Y-144302715D01*
X93215000Y-143547285D01*
X93067623Y-142806372D01*
X92778533Y-142108446D01*
X92358839Y-141480330D01*
X91824670Y-140946161D01*
X91196554Y-140526467D01*
X90498628Y-140237377D01*
X89757715Y-140090000D01*
X89002285Y-140090000D01*
X88261372Y-140237377D01*
X87563446Y-140526467D01*
X86935330Y-140946161D01*
X86401161Y-141480330D01*
X85981467Y-142108446D01*
X85692377Y-142806372D01*
X85545000Y-143547285D01*
X85040000Y-143547285D01*
X85040000Y-130080000D01*
X106611928Y-130080000D01*
X106615000Y-130306750D01*
X106773750Y-130465500D01*
X107823000Y-130465500D01*
X107823000Y-129603750D01*
X108077000Y-129603750D01*
X108077000Y-130465500D01*
X109126250Y-130465500D01*
X109285000Y-130306750D01*
X109288072Y-130080000D01*
X111691928Y-130080000D01*
X111695000Y-130306750D01*
X111853750Y-130465500D01*
X112903000Y-130465500D01*
X112903000Y-129603750D01*
X113157000Y-129603750D01*
X113157000Y-130465500D01*
X114206250Y-130465500D01*
X114300000Y-130371750D01*
X114393750Y-130465500D01*
X115443000Y-130465500D01*
X115443000Y-129603750D01*
X115697000Y-129603750D01*
X115697000Y-130465500D01*
X116746250Y-130465500D01*
X116840000Y-130371750D01*
X116933750Y-130465500D01*
X117983000Y-130465500D01*
X117983000Y-129603750D01*
X118237000Y-129603750D01*
X118237000Y-130465500D01*
X119286250Y-130465500D01*
X119445000Y-130306750D01*
X119448072Y-130080000D01*
X119435812Y-129955518D01*
X119399502Y-129835820D01*
X119340537Y-129725506D01*
X119261185Y-129628815D01*
X119164494Y-129549463D01*
X119054180Y-129490498D01*
X118934482Y-129454188D01*
X118810000Y-129441928D01*
X118395750Y-129445000D01*
X118237000Y-129603750D01*
X117983000Y-129603750D01*
X117824250Y-129445000D01*
X117410000Y-129441928D01*
X117285518Y-129454188D01*
X117165820Y-129490498D01*
X117055506Y-129549463D01*
X116958815Y-129628815D01*
X116879463Y-129725506D01*
X116840000Y-129799335D01*
X116800537Y-129725506D01*
X116721185Y-129628815D01*
X116624494Y-129549463D01*
X116514180Y-129490498D01*
X116394482Y-129454188D01*
X116270000Y-129441928D01*
X115855750Y-129445000D01*
X115697000Y-129603750D01*
X115443000Y-129603750D01*
X115284250Y-129445000D01*
X114870000Y-129441928D01*
X114745518Y-129454188D01*
X114625820Y-129490498D01*
X114515506Y-129549463D01*
X114418815Y-129628815D01*
X114339463Y-129725506D01*
X114300000Y-129799335D01*
X114260537Y-129725506D01*
X114181185Y-129628815D01*
X114084494Y-129549463D01*
X113974180Y-129490498D01*
X113854482Y-129454188D01*
X113730000Y-129441928D01*
X113315750Y-129445000D01*
X113157000Y-129603750D01*
X112903000Y-129603750D01*
X112744250Y-129445000D01*
X112330000Y-129441928D01*
X112205518Y-129454188D01*
X112085820Y-129490498D01*
X111975506Y-129549463D01*
X111878815Y-129628815D01*
X111799463Y-129725506D01*
X111740498Y-129835820D01*
X111704188Y-129955518D01*
X111691928Y-130080000D01*
X109288072Y-130080000D01*
X109275812Y-129955518D01*
X109239502Y-129835820D01*
X109180537Y-129725506D01*
X109101185Y-129628815D01*
X109004494Y-129549463D01*
X108894180Y-129490498D01*
X108774482Y-129454188D01*
X108650000Y-129441928D01*
X108235750Y-129445000D01*
X108077000Y-129603750D01*
X107823000Y-129603750D01*
X107664250Y-129445000D01*
X107250000Y-129441928D01*
X107125518Y-129454188D01*
X107005820Y-129490498D01*
X106895506Y-129549463D01*
X106798815Y-129628815D01*
X106719463Y-129725506D01*
X106660498Y-129835820D01*
X106624188Y-129955518D01*
X106611928Y-130080000D01*
X85040000Y-130080000D01*
X85040000Y-124961890D01*
X133178524Y-124961890D01*
X133223175Y-125109099D01*
X133348359Y-125371920D01*
X133522412Y-125605269D01*
X133738645Y-125800178D01*
X133988748Y-125949157D01*
X134263109Y-126046481D01*
X134493000Y-125925814D01*
X134493000Y-124732000D01*
X134747000Y-124732000D01*
X134747000Y-125925814D01*
X134976891Y-126046481D01*
X135251252Y-125949157D01*
X135501355Y-125800178D01*
X135717588Y-125605269D01*
X135891641Y-125371920D01*
X136016825Y-125109099D01*
X136061476Y-124961890D01*
X135940155Y-124732000D01*
X134747000Y-124732000D01*
X134493000Y-124732000D01*
X133299845Y-124732000D01*
X133178524Y-124961890D01*
X85040000Y-124961890D01*
X85040000Y-108547285D01*
X85545000Y-108547285D01*
X85545000Y-109302715D01*
X85692377Y-110043628D01*
X85981467Y-110741554D01*
X86401161Y-111369670D01*
X86935330Y-111903839D01*
X87563446Y-112323533D01*
X88261372Y-112612623D01*
X89002285Y-112760000D01*
X89757715Y-112760000D01*
X90498628Y-112612623D01*
X91196554Y-112323533D01*
X91824670Y-111903839D01*
X92358839Y-111369670D01*
X92778533Y-110741554D01*
X93067623Y-110043628D01*
X93215000Y-109302715D01*
X93215000Y-108547285D01*
X93067623Y-107806372D01*
X92778533Y-107108446D01*
X92427707Y-106583397D01*
X95671208Y-106583397D01*
X95748843Y-106832472D01*
X96012883Y-106958371D01*
X96296411Y-107030339D01*
X96588531Y-107045611D01*
X96878019Y-107003599D01*
X97153747Y-106905919D01*
X97291157Y-106832472D01*
X97368792Y-106583397D01*
X96520000Y-105734605D01*
X95671208Y-106583397D01*
X92427707Y-106583397D01*
X92358839Y-106480330D01*
X91824670Y-105946161D01*
X91196554Y-105526467D01*
X90498628Y-105237377D01*
X89757715Y-105090000D01*
X89002285Y-105090000D01*
X88261372Y-105237377D01*
X87563446Y-105526467D01*
X86935330Y-105946161D01*
X86401161Y-106480330D01*
X85981467Y-107108446D01*
X85692377Y-107806372D01*
X85545000Y-108547285D01*
X85040000Y-108547285D01*
X85040000Y-105957279D01*
X85068625Y-105665341D01*
X85144035Y-105415571D01*
X85266522Y-105185208D01*
X85431422Y-104983020D01*
X85632450Y-104816714D01*
X85861954Y-104692622D01*
X86111195Y-104615469D01*
X86401088Y-104585000D01*
X95380600Y-104585000D01*
X95375496Y-104590104D01*
G37*
%TD.AperFunction*%
%TD*%
M02*
